M48
; DRILL file {KiCad 6.0.11-2627ca5db0~126~ubuntu20.04.1} date Fri 17 Feb 2023 07:44:00 CET
; FORMAT={-:-/ absolute / metric / decimal}
; #@! TF.CreationDate,2023-02-17T07:44:00+01:00
; #@! TF.GenerationSoftware,Kicad,Pcbnew,6.0.11-2627ca5db0~126~ubuntu20.04.1
; #@! TF.FileFunction,Plated,1,4,PTH
FMAT,2
METRIC
; #@! TA.AperFunction,Plated,PTH,ViaDrill
T1C0.400
; #@! TA.AperFunction,Plated,PTH,ComponentDrill
T2C0.600
; #@! TA.AperFunction,Plated,PTH,ComponentDrill
T3C0.800
; #@! TA.AperFunction,Plated,PTH,ComponentDrill
T4C1.000
%
G90
G05
T1
X115.45Y-110.22
X116.1Y-117.8
X117.5Y-123.8
X117.9Y-92.1
X118.8Y-115.075
X119.15Y-118.9
X119.35Y-84.9
X119.8Y-101.425
X121.04Y-100.06
X121.2Y-105.2
X121.35Y-84.5
X121.9Y-108.5
X121.925Y-99.875
X122.65Y-98.75
X123.45Y-117.85
X123.9Y-112.1
X123.9Y-114.75
X124.575Y-109.3
X125.0Y-114.225
X125.525Y-104.325
X125.9Y-115.2
X126.275Y-105.275
X126.85Y-78.8
X128.55Y-108.97
X129.33Y-108.99
X130.03Y-104.15
X130.2Y-112.95
X131.0Y-106.96
X131.08Y-113.95
X131.6Y-110.83
X131.93Y-87.34
X134.09Y-84.52
X136.36Y-88.14
X139.08Y-114.9
X139.09Y-115.78
X139.13Y-113.88
X140.49Y-110.38
X142.05Y-99.18
X142.6Y-87.25
X142.65Y-110.32
X142.74Y-98.03
X143.65Y-94.4
X144.1Y-98.01
X144.725Y-78.25
X146.52Y-110.74
X146.59Y-112.91
X147.38Y-112.21
X147.44Y-106.65
X148.04Y-99.11
X148.05Y-78.275
X148.08Y-97.99
X148.27Y-108.96
X149.3Y-88.3
X151.0Y-87.15
X151.35Y-92.025
X152.15Y-97.4
X153.03Y-101.31
X153.325Y-118.925
X153.73Y-104.36
X153.8Y-96.65
X153.8Y-122.41
X153.81Y-106.13
X154.63Y-111.03
X154.77Y-112.1
X154.77Y-113.72
X155.0Y-87.05
X155.1Y-117.95
X159.17Y-100.68
X159.75Y-69.95
X160.27Y-123.25
T3
X126.972Y-72.2
X128.972Y-72.2
X130.972Y-72.2
X132.972Y-72.2
T4
X157.65Y-102.35
X157.65Y-104.89
X157.65Y-107.43
X157.65Y-109.97
X157.65Y-112.51
X157.65Y-115.05
T2
X120.48Y-117.07G85X120.48Y-118.17
G05
X120.48Y-121.5G85X120.48Y-122.1
G05
X129.12Y-117.07G85X129.12Y-118.17
G05
X129.12Y-121.5G85X129.12Y-122.1
G05
T0
M30
