G04 #@! TF.GenerationSoftware,KiCad,Pcbnew,6.0.8-f2edbf62ab~116~ubuntu20.04.1*
G04 #@! TF.CreationDate,2022-10-27T16:24:36+02:00*
G04 #@! TF.ProjectId,S3-44-to-33-FPC,53332d34-342d-4746-9f2d-33332d465043,1.0*
G04 #@! TF.SameCoordinates,Original*
G04 #@! TF.FileFunction,Copper,L2,Bot*
G04 #@! TF.FilePolarity,Positive*
%FSLAX46Y46*%
G04 Gerber Fmt 4.6, Leading zero omitted, Abs format (unit mm)*
G04 Created by KiCad (PCBNEW 6.0.8-f2edbf62ab~116~ubuntu20.04.1) date 2022-10-27 16:24:36*
%MOMM*%
%LPD*%
G01*
G04 APERTURE LIST*
G04 #@! TA.AperFunction,SMDPad,CuDef*
%ADD10C,1.500000*%
G04 #@! TD*
G04 #@! TA.AperFunction,ViaPad*
%ADD11C,0.500000*%
G04 #@! TD*
G04 #@! TA.AperFunction,Conductor*
%ADD12C,0.300000*%
G04 #@! TD*
G04 #@! TA.AperFunction,Conductor*
%ADD13C,0.500000*%
G04 #@! TD*
G04 #@! TA.AperFunction,Conductor*
%ADD14C,0.250000*%
G04 #@! TD*
G04 #@! TA.AperFunction,Conductor*
%ADD15C,0.200000*%
G04 #@! TD*
G04 APERTURE END LIST*
D10*
X103800000Y-96300000D03*
X123175000Y-96200000D03*
X113425000Y-93950000D03*
D11*
X119225000Y-92500000D03*
X119250000Y-116750000D03*
X107400000Y-96900000D03*
X106150000Y-110050000D03*
X109400000Y-95950000D03*
X113650000Y-117950000D03*
X105450000Y-109500000D03*
X107500000Y-105850000D03*
X105250000Y-95925000D03*
X107950000Y-106350000D03*
X111900000Y-112900000D03*
X105650000Y-99700000D03*
X111700000Y-116900000D03*
X106800000Y-100850000D03*
X116800000Y-113300000D03*
X116887500Y-92587500D03*
X118700000Y-95450000D03*
X110650000Y-117150000D03*
X111300000Y-112450000D03*
X103700000Y-97350000D03*
X109050000Y-93025000D03*
X112600000Y-112700000D03*
X110100000Y-99100000D03*
X113300000Y-102450000D03*
X111425000Y-93250000D03*
X113000000Y-117600000D03*
X112000000Y-97900000D03*
X111250000Y-101550000D03*
X112750000Y-100950000D03*
X113650000Y-117250000D03*
X113850000Y-98850000D03*
X114300000Y-117600000D03*
X115050000Y-117700000D03*
X114850000Y-98250000D03*
X115650000Y-97300000D03*
X115600000Y-117250000D03*
X116200000Y-104700000D03*
X116200000Y-117700000D03*
X120600000Y-116600000D03*
X121300000Y-99300000D03*
X119150000Y-113050000D03*
X121250000Y-117950000D03*
D12*
X109400000Y-95950000D02*
X107775000Y-95950000D01*
X107400000Y-96325000D02*
X107775000Y-95950000D01*
D13*
X105450000Y-107900000D02*
X107500000Y-105850000D01*
D12*
X119250000Y-118050000D02*
X118950000Y-118350000D01*
X107400000Y-96900000D02*
X107400000Y-96325000D01*
X107775000Y-95950000D02*
X107750000Y-95925000D01*
X114050000Y-118350000D02*
X113650000Y-117950000D01*
D14*
X112350000Y-91325000D02*
X116825000Y-91325000D01*
D13*
X106150000Y-110050000D02*
X106150000Y-108150000D01*
D14*
X116825000Y-91325000D02*
X117900000Y-92400000D01*
D12*
X118950000Y-118350000D02*
X114050000Y-118350000D01*
D14*
X105250000Y-95925000D02*
X107750000Y-95925000D01*
X119125000Y-92400000D02*
X119225000Y-92500000D01*
D13*
X105450000Y-109500000D02*
X105450000Y-107900000D01*
D14*
X117900000Y-92400000D02*
X119125000Y-92400000D01*
D13*
X106150000Y-108150000D02*
X107950000Y-106350000D01*
D12*
X119250000Y-116750000D02*
X119250000Y-118050000D01*
D14*
X107750000Y-95925000D02*
X112350000Y-91325000D01*
D15*
X111900000Y-116700000D02*
X111700000Y-116900000D01*
X105650000Y-99700000D02*
X106800000Y-100850000D01*
X111900000Y-112900000D02*
X111900000Y-116700000D01*
D12*
X117750000Y-95850000D02*
X116887500Y-94987500D01*
X118700000Y-95500000D02*
X118700000Y-95450000D01*
X117750000Y-95850000D02*
X117750000Y-96450000D01*
X117750000Y-96450000D02*
X118700000Y-95500000D01*
X116150000Y-98050000D02*
X116150000Y-103650000D01*
X116150000Y-103650000D02*
X116800000Y-104300000D01*
X116887500Y-94987500D02*
X116887500Y-92587500D01*
X116800000Y-104300000D02*
X116800000Y-113300000D01*
X117750000Y-96450000D02*
X116150000Y-98050000D01*
D15*
X110900000Y-117150000D02*
X111150000Y-116900000D01*
X111150000Y-112600000D02*
X111300000Y-112450000D01*
X111150000Y-116900000D02*
X111150000Y-112600000D01*
X110650000Y-117150000D02*
X110900000Y-117150000D01*
D14*
X103800000Y-96300000D02*
X107750000Y-92350000D01*
X108375000Y-92350000D02*
X109050000Y-93025000D01*
D12*
X103700000Y-97350000D02*
X103700000Y-96400000D01*
D14*
X107750000Y-92350000D02*
X108375000Y-92350000D01*
D12*
X103700000Y-96400000D02*
X103800000Y-96300000D01*
X110100000Y-99350000D02*
X110100000Y-99100000D01*
X112600000Y-101850000D02*
X110100000Y-99350000D01*
X112600000Y-101850000D02*
X112600000Y-112700000D01*
D15*
X113350000Y-116100000D02*
X113350000Y-102500000D01*
X112400000Y-117400000D02*
X112400000Y-117050000D01*
X111425000Y-93250000D02*
X112725000Y-93250000D01*
X112725000Y-93250000D02*
X113425000Y-93950000D01*
X112600000Y-117600000D02*
X112400000Y-117400000D01*
X112400000Y-117050000D02*
X113350000Y-116100000D01*
X113350000Y-102500000D02*
X113300000Y-102450000D01*
X113000000Y-117600000D02*
X112600000Y-117600000D01*
X111350000Y-98550000D02*
X112000000Y-97900000D01*
X109350000Y-99300000D02*
X111250000Y-101200000D01*
X109600000Y-98550000D02*
X110350000Y-98550000D01*
X110350000Y-98550000D02*
X111350000Y-98550000D01*
X111250000Y-101200000D02*
X111250000Y-101550000D01*
X109350000Y-98800000D02*
X109600000Y-98550000D01*
X109350000Y-99300000D02*
X109350000Y-98800000D01*
X113850000Y-102050000D02*
X112750000Y-100950000D01*
X113650000Y-117250000D02*
X113500000Y-117250000D01*
X113300000Y-117050000D02*
X113300000Y-116850000D01*
X113550000Y-116600000D02*
X113850000Y-116300000D01*
X113500000Y-117250000D02*
X113300000Y-117050000D01*
X113850000Y-116300000D02*
X113850000Y-102050000D01*
X113300000Y-116850000D02*
X113550000Y-116600000D01*
X114300000Y-99300000D02*
X113850000Y-98850000D01*
X114300000Y-117600000D02*
X114300000Y-99300000D01*
X114850000Y-98250000D02*
X114850000Y-117500000D01*
X114850000Y-117500000D02*
X115050000Y-117700000D01*
X115650000Y-117200000D02*
X115600000Y-117250000D01*
X115650000Y-97300000D02*
X115650000Y-117200000D01*
X116200000Y-104700000D02*
X116200000Y-117700000D01*
D12*
X121300000Y-99300000D02*
X121300000Y-115900000D01*
X121300000Y-115900000D02*
X120600000Y-116600000D01*
D14*
X123175000Y-96200000D02*
X123175000Y-97425000D01*
X123175000Y-97425000D02*
X121300000Y-99300000D01*
D12*
X119950000Y-113500000D02*
X119500000Y-113050000D01*
X120550000Y-117950000D02*
X119950000Y-117350000D01*
X119950000Y-117350000D02*
X119950000Y-113500000D01*
X121250000Y-117950000D02*
X120550000Y-117950000D01*
X119500000Y-113050000D02*
X119150000Y-113050000D01*
M02*
