G04 #@! TF.GenerationSoftware,KiCad,Pcbnew,6.0.8-f2edbf62ab~116~ubuntu20.04.1*
G04 #@! TF.CreationDate,2022-10-27T16:24:36+02:00*
G04 #@! TF.ProjectId,S3-44-to-33-FPC,53332d34-342d-4746-9f2d-33332d465043,1.0*
G04 #@! TF.SameCoordinates,Original*
G04 #@! TF.FileFunction,Soldermask,Top*
G04 #@! TF.FilePolarity,Negative*
%FSLAX46Y46*%
G04 Gerber Fmt 4.6, Leading zero omitted, Abs format (unit mm)*
G04 Created by KiCad (PCBNEW 6.0.8-f2edbf62ab~116~ubuntu20.04.1) date 2022-10-27 16:24:36*
%MOMM*%
%LPD*%
G01*
G04 APERTURE LIST*
%ADD10C,1.000000*%
%ADD11R,0.254000X0.812800*%
%ADD12R,1.524000X1.701800*%
%ADD13R,0.177800X0.660400*%
%ADD14R,0.177800X0.304800*%
%ADD15C,1.500000*%
G04 APERTURE END LIST*
D10*
X109850000Y-97650000D03*
D11*
X121574999Y-94415650D03*
X121075000Y-94415650D03*
X120574999Y-94415650D03*
X120075000Y-94415650D03*
X119574998Y-94415650D03*
X119074999Y-94415650D03*
X118575000Y-94415650D03*
X118074999Y-94415650D03*
X117575000Y-94415650D03*
X117074998Y-94415650D03*
X116574999Y-94415650D03*
X116075000Y-94415650D03*
X115574999Y-94415650D03*
X115075000Y-94415650D03*
X114574998Y-94415650D03*
X114074999Y-94415650D03*
X113575000Y-94415650D03*
X113074998Y-94415650D03*
X112574999Y-94415650D03*
X112075000Y-94415650D03*
X111574999Y-94415650D03*
X111075000Y-94415650D03*
X110574998Y-94415650D03*
X110074999Y-94415650D03*
X109575000Y-94415650D03*
X109074999Y-94415650D03*
X108575000Y-94415650D03*
X108074998Y-94415650D03*
X107574999Y-94415650D03*
X107075000Y-94415650D03*
X106574999Y-94415650D03*
X106075000Y-94415650D03*
X105574998Y-94415650D03*
D12*
X103923000Y-90402450D03*
X123227000Y-90402450D03*
D13*
X117788525Y-114275000D03*
X117788525Y-115625000D03*
X117388475Y-114275000D03*
X117388475Y-115625000D03*
X116988425Y-114275000D03*
X116988425Y-115625000D03*
X116588375Y-114275000D03*
X116588375Y-115625000D03*
X116188325Y-114275000D03*
X116188325Y-115625000D03*
X115788275Y-114275000D03*
X115788275Y-115625000D03*
X115388225Y-114275000D03*
X115388225Y-115625000D03*
X114988175Y-114275000D03*
X114988175Y-115625000D03*
X114588125Y-114275000D03*
X114588125Y-115625000D03*
X114188075Y-114275000D03*
X114188075Y-115625000D03*
X113788025Y-114275000D03*
X113788025Y-115625000D03*
X113387975Y-114275000D03*
X113387975Y-115625000D03*
X112987925Y-114275000D03*
X112987925Y-115625000D03*
X112587875Y-114275000D03*
X112587875Y-115625000D03*
X112187825Y-114275000D03*
X112187825Y-115625000D03*
X111787775Y-114275000D03*
X111787775Y-115625000D03*
X111387725Y-114275000D03*
X111387725Y-115625000D03*
X110987675Y-114275000D03*
X110987675Y-115625000D03*
X110587625Y-114275000D03*
X110587625Y-115625000D03*
X110187575Y-114275000D03*
X110187575Y-115625000D03*
X109787525Y-114275000D03*
X109787525Y-115625000D03*
X109387475Y-114275000D03*
X109387475Y-115625000D03*
D14*
X108588000Y-114374944D03*
X118588000Y-114374944D03*
X108588010Y-115525056D03*
X118587990Y-115525056D03*
D15*
X123175000Y-96350000D03*
M02*
