M48
; DRILL file {KiCad 6.0.8-f2edbf62ab~116~ubuntu20.04.1} date Thu 27 Oct 2022 16:24:42 CEST
; FORMAT={-:-/ absolute / metric / decimal}
; #@! TF.CreationDate,2022-10-27T16:24:42+02:00
; #@! TF.GenerationSoftware,Kicad,Pcbnew,6.0.8-f2edbf62ab~116~ubuntu20.04.1
; #@! TF.FileFunction,Plated,1,2,PTH
FMAT,2
METRIC
; #@! TA.AperFunction,Plated,PTH,ViaDrill
T1C0.300
%
G90
G05
T1
X103.7Y-97.35
X105.25Y-95.925
X105.45Y-109.5
X105.65Y-99.7
X106.15Y-110.05
X106.8Y-100.85
X107.4Y-96.9
X107.5Y-105.85
X107.95Y-106.35
X109.05Y-93.025
X109.4Y-95.95
X110.1Y-99.1
X110.65Y-117.15
X111.25Y-101.55
X111.3Y-112.45
X111.425Y-93.25
X111.7Y-116.9
X111.9Y-112.9
X112.0Y-97.9
X112.6Y-112.7
X112.75Y-100.95
X113.0Y-117.6
X113.3Y-102.45
X113.65Y-117.25
X113.65Y-117.95
X113.85Y-98.85
X114.3Y-117.6
X114.85Y-98.25
X115.05Y-117.7
X115.6Y-117.25
X115.65Y-97.3
X116.2Y-104.7
X116.2Y-117.7
X116.8Y-113.3
X116.887Y-92.587
X118.7Y-95.45
X119.15Y-113.05
X119.225Y-92.5
X119.25Y-116.75
X120.6Y-116.6
X121.25Y-117.95
X121.3Y-99.3
T0
M30
