G04 #@! TF.GenerationSoftware,KiCad,Pcbnew,6.0.8-f2edbf62ab~116~ubuntu20.04.1*
G04 #@! TF.CreationDate,2022-10-27T16:24:36+02:00*
G04 #@! TF.ProjectId,S3-44-to-33-FPC,53332d34-342d-4746-9f2d-33332d465043,1.0*
G04 #@! TF.SameCoordinates,Original*
G04 #@! TF.FileFunction,Legend,Top*
G04 #@! TF.FilePolarity,Positive*
%FSLAX46Y46*%
G04 Gerber Fmt 4.6, Leading zero omitted, Abs format (unit mm)*
G04 Created by KiCad (PCBNEW 6.0.8-f2edbf62ab~116~ubuntu20.04.1) date 2022-10-27 16:24:36*
%MOMM*%
%LPD*%
G01*
G04 APERTURE LIST*
%ADD10C,0.130000*%
%ADD11C,0.140000*%
%ADD12C,0.150000*%
%ADD13C,0.120000*%
%ADD14C,0.152400*%
%ADD15C,1.000000*%
%ADD16R,0.254000X0.812800*%
%ADD17R,1.524000X1.701800*%
%ADD18R,0.177800X0.660400*%
%ADD19R,0.177800X0.304800*%
%ADD20C,1.500000*%
G04 APERTURE END LIST*
D10*
X118028571Y-113211904D02*
X117571428Y-113211904D01*
X117800000Y-113211904D02*
X117800000Y-112411904D01*
X117723809Y-112526190D01*
X117647619Y-112602380D01*
X117571428Y-112640476D01*
D11*
X105911904Y-96473809D02*
X105911904Y-96511904D01*
X105950000Y-96397619D02*
X105950000Y-96511904D01*
X105988095Y-96321428D02*
X105988095Y-96511904D01*
X106026190Y-96245238D02*
X106026190Y-96511904D01*
X106064285Y-96207142D02*
X106064285Y-96511904D01*
X106102380Y-96130952D02*
X106102380Y-96511904D01*
X106140476Y-96054761D02*
X106140476Y-96511904D01*
X106178571Y-95978571D02*
X106178571Y-96511904D01*
X106216666Y-95902380D02*
X106216666Y-96511904D01*
X106254761Y-95978571D02*
X106254761Y-96511904D01*
X106292857Y-96054761D02*
X106292857Y-96511904D01*
X106330952Y-96130952D02*
X106330952Y-96511904D01*
X106369047Y-96207142D02*
X106369047Y-96511904D01*
X106407142Y-96245238D02*
X106407142Y-96511904D01*
X106445238Y-96321428D02*
X106445238Y-96511904D01*
X106483333Y-96397619D02*
X106483333Y-96511904D01*
X106521428Y-96511904D02*
X106216666Y-95940476D01*
X105911904Y-96511904D01*
X106521428Y-96473809D02*
X106521428Y-96511904D01*
X106216666Y-95902380D02*
X106559523Y-96511904D01*
X105873809Y-96511904D01*
X106216666Y-95902380D01*
X107169047Y-96092857D02*
X106902380Y-96092857D01*
X106902380Y-96511904D02*
X106902380Y-95711904D01*
X107283333Y-95711904D01*
X107588095Y-96511904D02*
X107588095Y-95711904D01*
X107892857Y-95711904D01*
X107969047Y-95750000D01*
X108007142Y-95788095D01*
X108045238Y-95864285D01*
X108045238Y-95978571D01*
X108007142Y-96054761D01*
X107969047Y-96092857D01*
X107892857Y-96130952D01*
X107588095Y-96130952D01*
X108845238Y-96435714D02*
X108807142Y-96473809D01*
X108692857Y-96511904D01*
X108616666Y-96511904D01*
X108502380Y-96473809D01*
X108426190Y-96397619D01*
X108388095Y-96321428D01*
X108350000Y-96169047D01*
X108350000Y-96054761D01*
X108388095Y-95902380D01*
X108426190Y-95826190D01*
X108502380Y-95750000D01*
X108616666Y-95711904D01*
X108692857Y-95711904D01*
X108807142Y-95750000D01*
X108845238Y-95788095D01*
X109797619Y-95978571D02*
X109797619Y-96778571D01*
X109797619Y-96016666D02*
X109873809Y-95978571D01*
X110026190Y-95978571D01*
X110102380Y-96016666D01*
X110140476Y-96054761D01*
X110178571Y-96130952D01*
X110178571Y-96359523D01*
X110140476Y-96435714D01*
X110102380Y-96473809D01*
X110026190Y-96511904D01*
X109873809Y-96511904D01*
X109797619Y-96473809D01*
X110521428Y-96511904D02*
X110521428Y-95978571D01*
X110521428Y-95711904D02*
X110483333Y-95750000D01*
X110521428Y-95788095D01*
X110559523Y-95750000D01*
X110521428Y-95711904D01*
X110521428Y-95788095D01*
X110902380Y-95978571D02*
X110902380Y-96511904D01*
X110902380Y-96054761D02*
X110940476Y-96016666D01*
X111016666Y-95978571D01*
X111130952Y-95978571D01*
X111207142Y-96016666D01*
X111245238Y-96092857D01*
X111245238Y-96511904D01*
X111588095Y-96473809D02*
X111664285Y-96511904D01*
X111816666Y-96511904D01*
X111892857Y-96473809D01*
X111930952Y-96397619D01*
X111930952Y-96359523D01*
X111892857Y-96283333D01*
X111816666Y-96245238D01*
X111702380Y-96245238D01*
X111626190Y-96207142D01*
X111588095Y-96130952D01*
X111588095Y-96092857D01*
X111626190Y-96016666D01*
X111702380Y-95978571D01*
X111816666Y-95978571D01*
X111892857Y-96016666D01*
X112769047Y-95978571D02*
X113073809Y-95978571D01*
X112883333Y-96511904D02*
X112883333Y-95826190D01*
X112921428Y-95750000D01*
X112997619Y-95711904D01*
X113073809Y-95711904D01*
X113683333Y-96511904D02*
X113683333Y-96092857D01*
X113645238Y-96016666D01*
X113569047Y-95978571D01*
X113416666Y-95978571D01*
X113340476Y-96016666D01*
X113683333Y-96473809D02*
X113607142Y-96511904D01*
X113416666Y-96511904D01*
X113340476Y-96473809D01*
X113302380Y-96397619D01*
X113302380Y-96321428D01*
X113340476Y-96245238D01*
X113416666Y-96207142D01*
X113607142Y-96207142D01*
X113683333Y-96169047D01*
X114407142Y-96473809D02*
X114330952Y-96511904D01*
X114178571Y-96511904D01*
X114102380Y-96473809D01*
X114064285Y-96435714D01*
X114026190Y-96359523D01*
X114026190Y-96130952D01*
X114064285Y-96054761D01*
X114102380Y-96016666D01*
X114178571Y-95978571D01*
X114330952Y-95978571D01*
X114407142Y-96016666D01*
X114750000Y-96511904D02*
X114750000Y-95978571D01*
X114750000Y-95711904D02*
X114711904Y-95750000D01*
X114750000Y-95788095D01*
X114788095Y-95750000D01*
X114750000Y-95711904D01*
X114750000Y-95788095D01*
X115130952Y-95978571D02*
X115130952Y-96511904D01*
X115130952Y-96054761D02*
X115169047Y-96016666D01*
X115245238Y-95978571D01*
X115359523Y-95978571D01*
X115435714Y-96016666D01*
X115473809Y-96092857D01*
X115473809Y-96511904D01*
X116197619Y-95978571D02*
X116197619Y-96626190D01*
X116159523Y-96702380D01*
X116121428Y-96740476D01*
X116045238Y-96778571D01*
X115930952Y-96778571D01*
X115854761Y-96740476D01*
X116197619Y-96473809D02*
X116121428Y-96511904D01*
X115969047Y-96511904D01*
X115892857Y-96473809D01*
X115854761Y-96435714D01*
X115816666Y-96359523D01*
X115816666Y-96130952D01*
X115854761Y-96054761D01*
X115892857Y-96016666D01*
X115969047Y-95978571D01*
X116121428Y-95978571D01*
X116197619Y-96016666D01*
X117188095Y-96511904D02*
X117188095Y-95711904D01*
X117378571Y-95711904D01*
X117492857Y-95750000D01*
X117569047Y-95826190D01*
X117607142Y-95902380D01*
X117645238Y-96054761D01*
X117645238Y-96169047D01*
X117607142Y-96321428D01*
X117569047Y-96397619D01*
X117492857Y-96473809D01*
X117378571Y-96511904D01*
X117188095Y-96511904D01*
X118140476Y-95711904D02*
X118292857Y-95711904D01*
X118369047Y-95750000D01*
X118445238Y-95826190D01*
X118483333Y-95978571D01*
X118483333Y-96245238D01*
X118445238Y-96397619D01*
X118369047Y-96473809D01*
X118292857Y-96511904D01*
X118140476Y-96511904D01*
X118064285Y-96473809D01*
X117988095Y-96397619D01*
X117950000Y-96245238D01*
X117950000Y-95978571D01*
X117988095Y-95826190D01*
X118064285Y-95750000D01*
X118140476Y-95711904D01*
X118750000Y-95711904D02*
X118940476Y-96511904D01*
X119092857Y-95940476D01*
X119245238Y-96511904D01*
X119435714Y-95711904D01*
X119740476Y-96511904D02*
X119740476Y-95711904D01*
X120197619Y-96511904D01*
X120197619Y-95711904D01*
X120578571Y-96473809D02*
X120578571Y-96511904D01*
X120616666Y-96397619D02*
X120616666Y-96511904D01*
X120654761Y-96321428D02*
X120654761Y-96511904D01*
X120692857Y-96245238D02*
X120692857Y-96511904D01*
X120730952Y-96207142D02*
X120730952Y-96511904D01*
X120769047Y-96130952D02*
X120769047Y-96511904D01*
X120807142Y-96054761D02*
X120807142Y-96511904D01*
X120845238Y-95978571D02*
X120845238Y-96511904D01*
X120883333Y-95902380D02*
X120883333Y-96511904D01*
X120921428Y-95978571D02*
X120921428Y-96511904D01*
X120959523Y-96054761D02*
X120959523Y-96511904D01*
X120997619Y-96130952D02*
X120997619Y-96511904D01*
X121035714Y-96207142D02*
X121035714Y-96511904D01*
X121073809Y-96245238D02*
X121073809Y-96511904D01*
X121111904Y-96321428D02*
X121111904Y-96511904D01*
X121150000Y-96397619D02*
X121150000Y-96511904D01*
X121188095Y-96511904D02*
X120883333Y-95940476D01*
X120578571Y-96511904D01*
X121188095Y-96473809D02*
X121188095Y-96511904D01*
X120883333Y-95902380D02*
X121226190Y-96511904D01*
X120540476Y-96511904D01*
X120883333Y-95902380D01*
D10*
X109071428Y-116578571D02*
X109071428Y-117111904D01*
X108880952Y-116273809D02*
X108690476Y-116845238D01*
X109185714Y-116845238D01*
X109833333Y-116578571D02*
X109833333Y-117111904D01*
X109642857Y-116273809D02*
X109452380Y-116845238D01*
X109947619Y-116845238D01*
D11*
X105652380Y-118361904D02*
X105385714Y-117980952D01*
X105195238Y-118361904D02*
X105195238Y-117561904D01*
X105500000Y-117561904D01*
X105576190Y-117600000D01*
X105614285Y-117638095D01*
X105652380Y-117714285D01*
X105652380Y-117828571D01*
X105614285Y-117904761D01*
X105576190Y-117942857D01*
X105500000Y-117980952D01*
X105195238Y-117980952D01*
X106300000Y-118323809D02*
X106223809Y-118361904D01*
X106071428Y-118361904D01*
X105995238Y-118323809D01*
X105957142Y-118247619D01*
X105957142Y-117942857D01*
X105995238Y-117866666D01*
X106071428Y-117828571D01*
X106223809Y-117828571D01*
X106300000Y-117866666D01*
X106338095Y-117942857D01*
X106338095Y-118019047D01*
X105957142Y-118095238D01*
X106604761Y-117828571D02*
X106795238Y-118361904D01*
X106985714Y-117828571D01*
X107290476Y-118285714D02*
X107328571Y-118323809D01*
X107290476Y-118361904D01*
X107252380Y-118323809D01*
X107290476Y-118285714D01*
X107290476Y-118361904D01*
X108700000Y-118361904D02*
X108242857Y-118361904D01*
X108471428Y-118361904D02*
X108471428Y-117561904D01*
X108395238Y-117676190D01*
X108319047Y-117752380D01*
X108242857Y-117790476D01*
X109042857Y-118285714D02*
X109080952Y-118323809D01*
X109042857Y-118361904D01*
X109004761Y-118323809D01*
X109042857Y-118285714D01*
X109042857Y-118361904D01*
X109576190Y-117561904D02*
X109652380Y-117561904D01*
X109728571Y-117600000D01*
X109766666Y-117638095D01*
X109804761Y-117714285D01*
X109842857Y-117866666D01*
X109842857Y-118057142D01*
X109804761Y-118209523D01*
X109766666Y-118285714D01*
X109728571Y-118323809D01*
X109652380Y-118361904D01*
X109576190Y-118361904D01*
X109500000Y-118323809D01*
X109461904Y-118285714D01*
X109423809Y-118209523D01*
X109385714Y-118057142D01*
X109385714Y-117866666D01*
X109423809Y-117714285D01*
X109461904Y-117638095D01*
X109500000Y-117600000D01*
X109576190Y-117561904D01*
X104108333Y-87986904D02*
X104603571Y-87986904D01*
X104336904Y-88291666D01*
X104451190Y-88291666D01*
X104527380Y-88329761D01*
X104565476Y-88367857D01*
X104603571Y-88444047D01*
X104603571Y-88634523D01*
X104565476Y-88710714D01*
X104527380Y-88748809D01*
X104451190Y-88786904D01*
X104222619Y-88786904D01*
X104146428Y-88748809D01*
X104108333Y-88710714D01*
X104870238Y-87986904D02*
X105365476Y-87986904D01*
X105098809Y-88291666D01*
X105213095Y-88291666D01*
X105289285Y-88329761D01*
X105327380Y-88367857D01*
X105365476Y-88444047D01*
X105365476Y-88634523D01*
X105327380Y-88710714D01*
X105289285Y-88748809D01*
X105213095Y-88786904D01*
X104984523Y-88786904D01*
X104908333Y-88748809D01*
X104870238Y-88710714D01*
X106317857Y-88253571D02*
X106317857Y-89053571D01*
X106317857Y-88291666D02*
X106394047Y-88253571D01*
X106546428Y-88253571D01*
X106622619Y-88291666D01*
X106660714Y-88329761D01*
X106698809Y-88405952D01*
X106698809Y-88634523D01*
X106660714Y-88710714D01*
X106622619Y-88748809D01*
X106546428Y-88786904D01*
X106394047Y-88786904D01*
X106317857Y-88748809D01*
X107041666Y-88786904D02*
X107041666Y-88253571D01*
X107041666Y-87986904D02*
X107003571Y-88025000D01*
X107041666Y-88063095D01*
X107079761Y-88025000D01*
X107041666Y-87986904D01*
X107041666Y-88063095D01*
X107422619Y-88253571D02*
X107422619Y-88786904D01*
X107422619Y-88329761D02*
X107460714Y-88291666D01*
X107536904Y-88253571D01*
X107651190Y-88253571D01*
X107727380Y-88291666D01*
X107765476Y-88367857D01*
X107765476Y-88786904D01*
X109098809Y-88786904D02*
X109098809Y-88367857D01*
X109060714Y-88291666D01*
X108984523Y-88253571D01*
X108832142Y-88253571D01*
X108755952Y-88291666D01*
X109098809Y-88748809D02*
X109022619Y-88786904D01*
X108832142Y-88786904D01*
X108755952Y-88748809D01*
X108717857Y-88672619D01*
X108717857Y-88596428D01*
X108755952Y-88520238D01*
X108832142Y-88482142D01*
X109022619Y-88482142D01*
X109098809Y-88444047D01*
X109822619Y-88786904D02*
X109822619Y-87986904D01*
X109822619Y-88748809D02*
X109746428Y-88786904D01*
X109594047Y-88786904D01*
X109517857Y-88748809D01*
X109479761Y-88710714D01*
X109441666Y-88634523D01*
X109441666Y-88405952D01*
X109479761Y-88329761D01*
X109517857Y-88291666D01*
X109594047Y-88253571D01*
X109746428Y-88253571D01*
X109822619Y-88291666D01*
X110546428Y-88786904D02*
X110546428Y-88367857D01*
X110508333Y-88291666D01*
X110432142Y-88253571D01*
X110279761Y-88253571D01*
X110203571Y-88291666D01*
X110546428Y-88748809D02*
X110470238Y-88786904D01*
X110279761Y-88786904D01*
X110203571Y-88748809D01*
X110165476Y-88672619D01*
X110165476Y-88596428D01*
X110203571Y-88520238D01*
X110279761Y-88482142D01*
X110470238Y-88482142D01*
X110546428Y-88444047D01*
X110927380Y-88253571D02*
X110927380Y-89053571D01*
X110927380Y-88291666D02*
X111003571Y-88253571D01*
X111155952Y-88253571D01*
X111232142Y-88291666D01*
X111270238Y-88329761D01*
X111308333Y-88405952D01*
X111308333Y-88634523D01*
X111270238Y-88710714D01*
X111232142Y-88748809D01*
X111155952Y-88786904D01*
X111003571Y-88786904D01*
X110927380Y-88748809D01*
X111536904Y-88253571D02*
X111841666Y-88253571D01*
X111651190Y-87986904D02*
X111651190Y-88672619D01*
X111689285Y-88748809D01*
X111765476Y-88786904D01*
X111841666Y-88786904D01*
X112413095Y-88748809D02*
X112336904Y-88786904D01*
X112184523Y-88786904D01*
X112108333Y-88748809D01*
X112070238Y-88672619D01*
X112070238Y-88367857D01*
X112108333Y-88291666D01*
X112184523Y-88253571D01*
X112336904Y-88253571D01*
X112413095Y-88291666D01*
X112451190Y-88367857D01*
X112451190Y-88444047D01*
X112070238Y-88520238D01*
X112794047Y-88786904D02*
X112794047Y-88253571D01*
X112794047Y-88405952D02*
X112832142Y-88329761D01*
X112870238Y-88291666D01*
X112946428Y-88253571D01*
X113022619Y-88253571D01*
X113784523Y-88253571D02*
X114089285Y-88253571D01*
X113898809Y-88786904D02*
X113898809Y-88101190D01*
X113936904Y-88025000D01*
X114013095Y-87986904D01*
X114089285Y-87986904D01*
X114470238Y-88786904D02*
X114394047Y-88748809D01*
X114355952Y-88710714D01*
X114317857Y-88634523D01*
X114317857Y-88405952D01*
X114355952Y-88329761D01*
X114394047Y-88291666D01*
X114470238Y-88253571D01*
X114584523Y-88253571D01*
X114660714Y-88291666D01*
X114698809Y-88329761D01*
X114736904Y-88405952D01*
X114736904Y-88634523D01*
X114698809Y-88710714D01*
X114660714Y-88748809D01*
X114584523Y-88786904D01*
X114470238Y-88786904D01*
X115079761Y-88786904D02*
X115079761Y-88253571D01*
X115079761Y-88405952D02*
X115117857Y-88329761D01*
X115155952Y-88291666D01*
X115232142Y-88253571D01*
X115308333Y-88253571D01*
X116222619Y-88786904D02*
X116374999Y-88786904D01*
X116451190Y-88748809D01*
X116489285Y-88710714D01*
X116565476Y-88596428D01*
X116603571Y-88444047D01*
X116603571Y-88139285D01*
X116565476Y-88063095D01*
X116527380Y-88025000D01*
X116451190Y-87986904D01*
X116298809Y-87986904D01*
X116222619Y-88025000D01*
X116184523Y-88063095D01*
X116146428Y-88139285D01*
X116146428Y-88329761D01*
X116184523Y-88405952D01*
X116222619Y-88444047D01*
X116298809Y-88482142D01*
X116451190Y-88482142D01*
X116527380Y-88444047D01*
X116565476Y-88405952D01*
X116603571Y-88329761D01*
X116946428Y-88710714D02*
X116984523Y-88748809D01*
X116946428Y-88786904D01*
X116908333Y-88748809D01*
X116946428Y-88710714D01*
X116946428Y-88786904D01*
X117251190Y-87986904D02*
X117784523Y-87986904D01*
X117441666Y-88786904D01*
X118051190Y-87986904D02*
X118051190Y-88139285D01*
X118355952Y-87986904D02*
X118355952Y-88139285D01*
X119613095Y-88748809D02*
X119536904Y-88786904D01*
X119384523Y-88786904D01*
X119308333Y-88748809D01*
X119270238Y-88672619D01*
X119270238Y-88367857D01*
X119308333Y-88291666D01*
X119384523Y-88253571D01*
X119536904Y-88253571D01*
X119613095Y-88291666D01*
X119651190Y-88367857D01*
X119651190Y-88444047D01*
X119270238Y-88520238D01*
X119994047Y-88253571D02*
X119994047Y-89053571D01*
X119994047Y-88291666D02*
X120070238Y-88253571D01*
X120222619Y-88253571D01*
X120298809Y-88291666D01*
X120336904Y-88329761D01*
X120374999Y-88405952D01*
X120374999Y-88634523D01*
X120336904Y-88710714D01*
X120298809Y-88748809D01*
X120222619Y-88786904D01*
X120070238Y-88786904D01*
X119994047Y-88748809D01*
X121060714Y-88786904D02*
X121060714Y-88367857D01*
X121022619Y-88291666D01*
X120946428Y-88253571D01*
X120794047Y-88253571D01*
X120717857Y-88291666D01*
X121060714Y-88748809D02*
X120984523Y-88786904D01*
X120794047Y-88786904D01*
X120717857Y-88748809D01*
X120679761Y-88672619D01*
X120679761Y-88596428D01*
X120717857Y-88520238D01*
X120794047Y-88482142D01*
X120984523Y-88482142D01*
X121060714Y-88444047D01*
X121441666Y-88253571D02*
X121441666Y-89053571D01*
X121441666Y-88291666D02*
X121517857Y-88253571D01*
X121670238Y-88253571D01*
X121746428Y-88291666D01*
X121784523Y-88329761D01*
X121822619Y-88405952D01*
X121822619Y-88634523D01*
X121784523Y-88710714D01*
X121746428Y-88748809D01*
X121670238Y-88786904D01*
X121517857Y-88786904D01*
X121441666Y-88748809D01*
X122470238Y-88748809D02*
X122394047Y-88786904D01*
X122241666Y-88786904D01*
X122165476Y-88748809D01*
X122127380Y-88672619D01*
X122127380Y-88367857D01*
X122165476Y-88291666D01*
X122241666Y-88253571D01*
X122394047Y-88253571D01*
X122470238Y-88291666D01*
X122508333Y-88367857D01*
X122508333Y-88444047D01*
X122127380Y-88520238D01*
X122851190Y-88786904D02*
X122851190Y-88253571D01*
X122851190Y-88405952D02*
X122889285Y-88329761D01*
X122927380Y-88291666D01*
X123003571Y-88253571D01*
X123079761Y-88253571D01*
D10*
X108750000Y-99316666D02*
X109150000Y-99316666D01*
X108950000Y-100016666D02*
X108950000Y-99316666D01*
X109383333Y-99750000D02*
X109916666Y-99750000D01*
X109650000Y-100016666D02*
X109650000Y-99483333D01*
X110216666Y-99383333D02*
X110250000Y-99350000D01*
X110316666Y-99316666D01*
X110483333Y-99316666D01*
X110550000Y-99350000D01*
X110583333Y-99383333D01*
X110616666Y-99450000D01*
X110616666Y-99516666D01*
X110583333Y-99616666D01*
X110183333Y-100016666D01*
X110616666Y-100016666D01*
X110883333Y-99383333D02*
X110916666Y-99350000D01*
X110983333Y-99316666D01*
X111150000Y-99316666D01*
X111216666Y-99350000D01*
X111250000Y-99383333D01*
X111283333Y-99450000D01*
X111283333Y-99516666D01*
X111250000Y-99616666D01*
X110850000Y-100016666D01*
X111283333Y-100016666D01*
D12*
X118054666Y-116452380D02*
X118054666Y-117166666D01*
X118007047Y-117309523D01*
X117911809Y-117404761D01*
X117768952Y-117452380D01*
X117673714Y-117452380D01*
X118483238Y-116547619D02*
X118530857Y-116500000D01*
X118626095Y-116452380D01*
X118864190Y-116452380D01*
X118959428Y-116500000D01*
X119007047Y-116547619D01*
X119054666Y-116642857D01*
X119054666Y-116738095D01*
X119007047Y-116880952D01*
X118435619Y-117452380D01*
X119054666Y-117452380D01*
D10*
X121950000Y-98116666D02*
X122350000Y-98116666D01*
X122150000Y-98816666D02*
X122150000Y-98116666D01*
X122583333Y-98550000D02*
X123116666Y-98550000D01*
X123816666Y-98816666D02*
X123416666Y-98816666D01*
X123616666Y-98816666D02*
X123616666Y-98116666D01*
X123550000Y-98216666D01*
X123483333Y-98283333D01*
X123416666Y-98316666D01*
X124450000Y-98116666D02*
X124116666Y-98116666D01*
X124083333Y-98450000D01*
X124116666Y-98416666D01*
X124183333Y-98383333D01*
X124350000Y-98383333D01*
X124416666Y-98416666D01*
X124450000Y-98450000D01*
X124483333Y-98516666D01*
X124483333Y-98683333D01*
X124450000Y-98750000D01*
X124416666Y-98783333D01*
X124350000Y-98816666D01*
X124183333Y-98816666D01*
X124116666Y-98783333D01*
X124083333Y-98750000D01*
D13*
X110550000Y-97650000D02*
G75*
G03*
X110550000Y-97650000I-700000J0D01*
G01*
D14*
X123696900Y-94542650D02*
X123696900Y-91586090D01*
X103453100Y-94542650D02*
X105115258Y-94542650D01*
X103453100Y-91586090D02*
X103453100Y-94542650D01*
X122176109Y-89386450D02*
X104973891Y-89386450D01*
X122034739Y-94542650D02*
X123696900Y-94542650D01*
D13*
X119010900Y-115788200D02*
X119010900Y-114111800D01*
X108165100Y-114111800D02*
X108165100Y-115788200D01*
X120026900Y-114275000D02*
G75*
G03*
X120026900Y-114275000I-381000J0D01*
G01*
X124125000Y-96350000D02*
G75*
G03*
X124125000Y-96350000I-950000J0D01*
G01*
%LPC*%
D15*
X109850000Y-97650000D03*
D16*
X121574999Y-94415650D03*
X121075000Y-94415650D03*
X120574999Y-94415650D03*
X120075000Y-94415650D03*
X119574998Y-94415650D03*
X119074999Y-94415650D03*
X118575000Y-94415650D03*
X118074999Y-94415650D03*
X117575000Y-94415650D03*
X117074998Y-94415650D03*
X116574999Y-94415650D03*
X116075000Y-94415650D03*
X115574999Y-94415650D03*
X115075000Y-94415650D03*
X114574998Y-94415650D03*
X114074999Y-94415650D03*
X113575000Y-94415650D03*
X113074998Y-94415650D03*
X112574999Y-94415650D03*
X112075000Y-94415650D03*
X111574999Y-94415650D03*
X111075000Y-94415650D03*
X110574998Y-94415650D03*
X110074999Y-94415650D03*
X109575000Y-94415650D03*
X109074999Y-94415650D03*
X108575000Y-94415650D03*
X108074998Y-94415650D03*
X107574999Y-94415650D03*
X107075000Y-94415650D03*
X106574999Y-94415650D03*
X106075000Y-94415650D03*
X105574998Y-94415650D03*
D17*
X103923000Y-90402450D03*
X123227000Y-90402450D03*
D18*
X117788525Y-114275000D03*
X117788525Y-115625000D03*
X117388475Y-114275000D03*
X117388475Y-115625000D03*
X116988425Y-114275000D03*
X116988425Y-115625000D03*
X116588375Y-114275000D03*
X116588375Y-115625000D03*
X116188325Y-114275000D03*
X116188325Y-115625000D03*
X115788275Y-114275000D03*
X115788275Y-115625000D03*
X115388225Y-114275000D03*
X115388225Y-115625000D03*
X114988175Y-114275000D03*
X114988175Y-115625000D03*
X114588125Y-114275000D03*
X114588125Y-115625000D03*
X114188075Y-114275000D03*
X114188075Y-115625000D03*
X113788025Y-114275000D03*
X113788025Y-115625000D03*
X113387975Y-114275000D03*
X113387975Y-115625000D03*
X112987925Y-114275000D03*
X112987925Y-115625000D03*
X112587875Y-114275000D03*
X112587875Y-115625000D03*
X112187825Y-114275000D03*
X112187825Y-115625000D03*
X111787775Y-114275000D03*
X111787775Y-115625000D03*
X111387725Y-114275000D03*
X111387725Y-115625000D03*
X110987675Y-114275000D03*
X110987675Y-115625000D03*
X110587625Y-114275000D03*
X110587625Y-115625000D03*
X110187575Y-114275000D03*
X110187575Y-115625000D03*
X109787525Y-114275000D03*
X109787525Y-115625000D03*
X109387475Y-114275000D03*
X109387475Y-115625000D03*
D19*
X108588000Y-114374944D03*
X118588000Y-114374944D03*
X108588010Y-115525056D03*
X118587990Y-115525056D03*
D20*
X123175000Y-96350000D03*
M02*
