G04 #@! TF.GenerationSoftware,KiCad,Pcbnew,7.0.2-6a45011f42~172~ubuntu22.04.1*
G04 #@! TF.CreationDate,2023-05-15T14:22:46+02:00*
G04 #@! TF.ProjectId,sharp-lcd-128x128,73686172-702d-46c6-9364-2d3132387831,rev?*
G04 #@! TF.SameCoordinates,Original*
G04 #@! TF.FileFunction,Copper,L1,Top*
G04 #@! TF.FilePolarity,Positive*
%FSLAX46Y46*%
G04 Gerber Fmt 4.6, Leading zero omitted, Abs format (unit mm)*
G04 Created by KiCad (PCBNEW 7.0.2-6a45011f42~172~ubuntu22.04.1) date 2023-05-15 14:22:46*
%MOMM*%
%LPD*%
G01*
G04 APERTURE LIST*
G04 Aperture macros list*
%AMRoundRect*
0 Rectangle with rounded corners*
0 $1 Rounding radius*
0 $2 $3 $4 $5 $6 $7 $8 $9 X,Y pos of 4 corners*
0 Add a 4 corners polygon primitive as box body*
4,1,4,$2,$3,$4,$5,$6,$7,$8,$9,$2,$3,0*
0 Add four circle primitives for the rounded corners*
1,1,$1+$1,$2,$3*
1,1,$1+$1,$4,$5*
1,1,$1+$1,$6,$7*
1,1,$1+$1,$8,$9*
0 Add four rect primitives between the rounded corners*
20,1,$1+$1,$2,$3,$4,$5,0*
20,1,$1+$1,$4,$5,$6,$7,0*
20,1,$1+$1,$6,$7,$8,$9,0*
20,1,$1+$1,$8,$9,$2,$3,0*%
%AMFreePoly0*
4,1,19,0.500000,-0.750000,0.000000,-0.750000,0.000000,-0.744911,-0.071157,-0.744911,-0.207708,-0.704816,-0.327430,-0.627875,-0.420627,-0.520320,-0.479746,-0.390866,-0.500000,-0.250000,-0.500000,0.250000,-0.479746,0.390866,-0.420627,0.520320,-0.327430,0.627875,-0.207708,0.704816,-0.071157,0.744911,0.000000,0.744911,0.000000,0.750000,0.500000,0.750000,0.500000,-0.750000,0.500000,-0.750000,
$1*%
%AMFreePoly1*
4,1,19,0.000000,0.744911,0.071157,0.744911,0.207708,0.704816,0.327430,0.627875,0.420627,0.520320,0.479746,0.390866,0.500000,0.250000,0.500000,-0.250000,0.479746,-0.390866,0.420627,-0.520320,0.327430,-0.627875,0.207708,-0.704816,0.071157,-0.744911,0.000000,-0.744911,0.000000,-0.750000,-0.500000,-0.750000,-0.500000,0.750000,0.000000,0.750000,0.000000,0.744911,0.000000,0.744911,
$1*%
G04 Aperture macros list end*
G04 #@! TA.AperFunction,ComponentPad*
%ADD10R,1.700000X1.700000*%
G04 #@! TD*
G04 #@! TA.AperFunction,ComponentPad*
%ADD11O,1.700000X1.700000*%
G04 #@! TD*
G04 #@! TA.AperFunction,SMDPad,CuDef*
%ADD12R,1.498600X0.889000*%
G04 #@! TD*
G04 #@! TA.AperFunction,SMDPad,CuDef*
%ADD13R,0.711200X0.711200*%
G04 #@! TD*
G04 #@! TA.AperFunction,SMDPad,CuDef*
%ADD14R,1.000000X1.000000*%
G04 #@! TD*
G04 #@! TA.AperFunction,SMDPad,CuDef*
%ADD15RoundRect,0.200000X-0.200000X-0.275000X0.200000X-0.275000X0.200000X0.275000X-0.200000X0.275000X0*%
G04 #@! TD*
G04 #@! TA.AperFunction,SMDPad,CuDef*
%ADD16RoundRect,0.150000X-0.587500X-0.150000X0.587500X-0.150000X0.587500X0.150000X-0.587500X0.150000X0*%
G04 #@! TD*
G04 #@! TA.AperFunction,SMDPad,CuDef*
%ADD17RoundRect,0.200000X-0.275000X0.200000X-0.275000X-0.200000X0.275000X-0.200000X0.275000X0.200000X0*%
G04 #@! TD*
G04 #@! TA.AperFunction,SMDPad,CuDef*
%ADD18RoundRect,0.250000X-0.250000X-0.475000X0.250000X-0.475000X0.250000X0.475000X-0.250000X0.475000X0*%
G04 #@! TD*
G04 #@! TA.AperFunction,SMDPad,CuDef*
%ADD19RoundRect,0.150000X0.587500X0.150000X-0.587500X0.150000X-0.587500X-0.150000X0.587500X-0.150000X0*%
G04 #@! TD*
G04 #@! TA.AperFunction,SMDPad,CuDef*
%ADD20RoundRect,0.243750X-0.456250X0.243750X-0.456250X-0.243750X0.456250X-0.243750X0.456250X0.243750X0*%
G04 #@! TD*
G04 #@! TA.AperFunction,SMDPad,CuDef*
%ADD21RoundRect,0.150000X-0.150000X0.825000X-0.150000X-0.825000X0.150000X-0.825000X0.150000X0.825000X0*%
G04 #@! TD*
G04 #@! TA.AperFunction,SMDPad,CuDef*
%ADD22R,0.558800X0.990600*%
G04 #@! TD*
G04 #@! TA.AperFunction,SMDPad,CuDef*
%ADD23RoundRect,0.200000X0.200000X0.275000X-0.200000X0.275000X-0.200000X-0.275000X0.200000X-0.275000X0*%
G04 #@! TD*
G04 #@! TA.AperFunction,SMDPad,CuDef*
%ADD24RoundRect,0.150000X0.150000X-0.587500X0.150000X0.587500X-0.150000X0.587500X-0.150000X-0.587500X0*%
G04 #@! TD*
G04 #@! TA.AperFunction,SMDPad,CuDef*
%ADD25R,1.450000X0.600000*%
G04 #@! TD*
G04 #@! TA.AperFunction,SMDPad,CuDef*
%ADD26R,1.450000X0.300000*%
G04 #@! TD*
G04 #@! TA.AperFunction,ComponentPad*
%ADD27O,2.100000X1.000000*%
G04 #@! TD*
G04 #@! TA.AperFunction,ComponentPad*
%ADD28O,1.600000X1.000000*%
G04 #@! TD*
G04 #@! TA.AperFunction,SMDPad,CuDef*
%ADD29RoundRect,0.250000X-0.412500X-0.925000X0.412500X-0.925000X0.412500X0.925000X-0.412500X0.925000X0*%
G04 #@! TD*
G04 #@! TA.AperFunction,SMDPad,CuDef*
%ADD30FreePoly0,0.000000*%
G04 #@! TD*
G04 #@! TA.AperFunction,SMDPad,CuDef*
%ADD31FreePoly1,0.000000*%
G04 #@! TD*
G04 #@! TA.AperFunction,SMDPad,CuDef*
%ADD32R,0.812800X0.304800*%
G04 #@! TD*
G04 #@! TA.AperFunction,SMDPad,CuDef*
%ADD33R,0.812800X0.406400*%
G04 #@! TD*
G04 #@! TA.AperFunction,SMDPad,CuDef*
%ADD34R,0.850000X0.300000*%
G04 #@! TD*
G04 #@! TA.AperFunction,SMDPad,CuDef*
%ADD35R,2.000000X0.800000*%
G04 #@! TD*
G04 #@! TA.AperFunction,SMDPad,CuDef*
%ADD36RoundRect,0.250000X0.262500X0.450000X-0.262500X0.450000X-0.262500X-0.450000X0.262500X-0.450000X0*%
G04 #@! TD*
G04 #@! TA.AperFunction,SMDPad,CuDef*
%ADD37RoundRect,0.150000X0.275000X-0.150000X0.275000X0.150000X-0.275000X0.150000X-0.275000X-0.150000X0*%
G04 #@! TD*
G04 #@! TA.AperFunction,SMDPad,CuDef*
%ADD38RoundRect,0.175000X0.225000X-0.175000X0.225000X0.175000X-0.225000X0.175000X-0.225000X-0.175000X0*%
G04 #@! TD*
G04 #@! TA.AperFunction,SMDPad,CuDef*
%ADD39RoundRect,0.200000X0.275000X-0.200000X0.275000X0.200000X-0.275000X0.200000X-0.275000X-0.200000X0*%
G04 #@! TD*
G04 #@! TA.AperFunction,SMDPad,CuDef*
%ADD40RoundRect,0.112500X-0.112500X0.187500X-0.112500X-0.187500X0.112500X-0.187500X0.112500X0.187500X0*%
G04 #@! TD*
G04 #@! TA.AperFunction,ViaPad*
%ADD41C,0.500000*%
G04 #@! TD*
G04 #@! TA.AperFunction,ViaPad*
%ADD42C,0.600000*%
G04 #@! TD*
G04 #@! TA.AperFunction,Conductor*
%ADD43C,0.250000*%
G04 #@! TD*
G04 #@! TA.AperFunction,Conductor*
%ADD44C,0.500000*%
G04 #@! TD*
G04 #@! TA.AperFunction,Conductor*
%ADD45C,0.350000*%
G04 #@! TD*
G04 #@! TA.AperFunction,Conductor*
%ADD46C,0.300000*%
G04 #@! TD*
G04 APERTURE END LIST*
G04 #@! TA.AperFunction,EtchedComponent*
G36*
X99210000Y-36000000D02*
G01*
X98710000Y-36000000D01*
X98710000Y-35400000D01*
X99210000Y-35400000D01*
X99210000Y-36000000D01*
G37*
G04 #@! TD.AperFunction*
D10*
X107030000Y-60250000D03*
D11*
X109570000Y-60250000D03*
X112110000Y-60250000D03*
X114650000Y-60250000D03*
X117190000Y-60250000D03*
X119730000Y-60250000D03*
D12*
X102835802Y-61009973D03*
X102835802Y-59509973D03*
X102835802Y-58009971D03*
X102835802Y-56509972D03*
X102835802Y-55009972D03*
X102835802Y-53509973D03*
X102835802Y-52009973D03*
X102835802Y-50509971D03*
X102835802Y-49009971D03*
X85335802Y-49009971D03*
X85335802Y-50509971D03*
X85335802Y-52009973D03*
X85335802Y-53509973D03*
X85335802Y-55009972D03*
X85335802Y-56509972D03*
X85335802Y-58009971D03*
X85335802Y-59509973D03*
X85335802Y-61009973D03*
D13*
X94230000Y-55909996D03*
X93130000Y-55909996D03*
X92030000Y-55909996D03*
X94230102Y-54809998D03*
X93130102Y-54809998D03*
X92030101Y-54809998D03*
X94230000Y-53710000D03*
X93130000Y-53710000D03*
X92030000Y-53710000D03*
D14*
X95040000Y-44160000D03*
D15*
X80880000Y-43077500D03*
X82530000Y-43077500D03*
D16*
X97230000Y-40780000D03*
X97230000Y-42680000D03*
X99105000Y-41730000D03*
D17*
X73320000Y-42905000D03*
X73320000Y-44555000D03*
D14*
X90520000Y-44160000D03*
D18*
X79100000Y-48070000D03*
X81000000Y-48070000D03*
D15*
X111880000Y-36060000D03*
X113530000Y-36060000D03*
D19*
X79097500Y-46040000D03*
X79097500Y-44140000D03*
X77222500Y-45090000D03*
D20*
X96040000Y-31865000D03*
X96040000Y-33740000D03*
D21*
X86395000Y-33075000D03*
X85125000Y-33075000D03*
X83855000Y-33075000D03*
X82585000Y-33075000D03*
X82585000Y-38025000D03*
X83855000Y-38025000D03*
X85125000Y-38025000D03*
X86395000Y-38025000D03*
D15*
X83635000Y-45650000D03*
X85285000Y-45650000D03*
D22*
X92150001Y-34262200D03*
X91200000Y-34262200D03*
X90249999Y-34262200D03*
X90249999Y-36980000D03*
X91200000Y-36980000D03*
X92150001Y-36980000D03*
D23*
X94925000Y-42400000D03*
X93275000Y-42400000D03*
D24*
X73330000Y-48260000D03*
X75230000Y-48260000D03*
X74280000Y-46385000D03*
D25*
X80845000Y-53875000D03*
X80845000Y-54675000D03*
D26*
X80845000Y-55875000D03*
X80845000Y-56875000D03*
X80845000Y-57375000D03*
X80845000Y-58375000D03*
D25*
X80845000Y-59575000D03*
X80845000Y-60375000D03*
X80845000Y-60375000D03*
X80845000Y-59575000D03*
D26*
X80845000Y-58875000D03*
X80845000Y-57875000D03*
X80845000Y-56375000D03*
X80845000Y-55375000D03*
D25*
X80845000Y-54675000D03*
X80845000Y-53875000D03*
D27*
X79930000Y-52805000D03*
D28*
X75750000Y-52805000D03*
D27*
X79930000Y-61445000D03*
D28*
X75750000Y-61445000D03*
D23*
X102925000Y-41680000D03*
X101275000Y-41680000D03*
D18*
X77117500Y-42120000D03*
X79017500Y-42120000D03*
D23*
X94925000Y-40560000D03*
X93275000Y-40560000D03*
D29*
X113982500Y-54170000D03*
X117057500Y-54170000D03*
D30*
X98310000Y-35700000D03*
D31*
X99610000Y-35700000D03*
D32*
X107580000Y-31080000D03*
X107580000Y-31579999D03*
X107580000Y-32080001D03*
X107580000Y-32580000D03*
X107580000Y-33080001D03*
X107580000Y-33580000D03*
D33*
X110093122Y-34580001D03*
X110093122Y-30079999D03*
D15*
X101915000Y-38220000D03*
X103565000Y-38220000D03*
D34*
X108815000Y-48250000D03*
X108815000Y-47750000D03*
X108815000Y-47250000D03*
X108815000Y-46750000D03*
X108815000Y-46250000D03*
X108815000Y-45750000D03*
X108815000Y-45250000D03*
X108815000Y-44750000D03*
X108815000Y-44250000D03*
X108815000Y-43750000D03*
D35*
X111990000Y-49950000D03*
X111990000Y-42050000D03*
D36*
X95912500Y-37330000D03*
X94087500Y-37330000D03*
D23*
X93605000Y-31910000D03*
X91955000Y-31910000D03*
D17*
X105200000Y-36760000D03*
X105200000Y-38410000D03*
D37*
X74010000Y-37920000D03*
X74010000Y-36720000D03*
D38*
X77785000Y-39070000D03*
X77785000Y-35570000D03*
D19*
X91280000Y-42340000D03*
X91280000Y-40440000D03*
X89405000Y-41390000D03*
D39*
X80695000Y-41437500D03*
X80695000Y-39787500D03*
D40*
X77170000Y-48490000D03*
X77170000Y-50590000D03*
D41*
X99160000Y-44150000D03*
X118260000Y-54200000D03*
X88130000Y-45180000D03*
D42*
X80827500Y-46810000D03*
X102860000Y-44570000D03*
D41*
X95910000Y-36170000D03*
D42*
X82425000Y-61375000D03*
X93130000Y-53690000D03*
X90000000Y-31760000D03*
X102860000Y-46930000D03*
D41*
X73940000Y-40430000D03*
X91180000Y-35110000D03*
X79740000Y-42450000D03*
X107990000Y-43940000D03*
D42*
X82130000Y-39810000D03*
D41*
X105658781Y-30772500D03*
D42*
X79300000Y-58825000D03*
X79300000Y-55475000D03*
X80897500Y-44360000D03*
D41*
X83710000Y-46460000D03*
D42*
X84270000Y-36120000D03*
X101576492Y-53790325D03*
X106340000Y-56070000D03*
X87430000Y-55500000D03*
D41*
X85511935Y-43131935D03*
X91370000Y-45720000D03*
X99180000Y-56700000D03*
X86370000Y-39830000D03*
X87480000Y-59510000D03*
X101040000Y-37680000D03*
X92010000Y-43900500D03*
X101549104Y-36264500D03*
X97751213Y-38310563D03*
X100637961Y-51735932D03*
X109684502Y-47356665D03*
X100300000Y-54120000D03*
X99196815Y-38341685D03*
X110000000Y-46480000D03*
X100010000Y-53240000D03*
X106160000Y-47100000D03*
X92830000Y-33140000D03*
D42*
X108770000Y-42730000D03*
X116370000Y-50660000D03*
D41*
X111410000Y-39040000D03*
X102600000Y-39240000D03*
X105950000Y-57800000D03*
X90790000Y-49880000D03*
X92670000Y-48080000D03*
X95110000Y-50480000D03*
X83750000Y-48260000D03*
X89867464Y-49997140D03*
D42*
X117190000Y-56430000D03*
D41*
X100190000Y-39030000D03*
D42*
X101320000Y-58020000D03*
D41*
X83111111Y-42856717D03*
X86698914Y-43188914D03*
D43*
X90520000Y-44160000D02*
X91750500Y-44160000D01*
X91750500Y-44160000D02*
X92010000Y-43900500D01*
X99150000Y-44160000D02*
X95040000Y-44160000D01*
X99160000Y-44150000D02*
X99150000Y-44160000D01*
X108180000Y-43750000D02*
X107990000Y-43940000D01*
X80845000Y-53875000D02*
X80845000Y-53720000D01*
X108300000Y-44250000D02*
X107990000Y-43940000D01*
X91200000Y-32960000D02*
X90000000Y-31760000D01*
D44*
X93110000Y-53710000D02*
X93130000Y-53690000D01*
X73940000Y-40430000D02*
X73940000Y-37990000D01*
X93150000Y-53710000D02*
X94230000Y-53710000D01*
X82425000Y-61175000D02*
X81625000Y-60375000D01*
D45*
X82585000Y-38025000D02*
X82585000Y-39355000D01*
X79540000Y-42250000D02*
X79740000Y-42450000D01*
D44*
X95912500Y-37330000D02*
X95912500Y-36172500D01*
X82425000Y-61375000D02*
X82425000Y-61175000D01*
D43*
X91200000Y-34262200D02*
X91200000Y-35090000D01*
D44*
X92030000Y-53710000D02*
X93110000Y-53710000D01*
X95912500Y-37330000D02*
X94767500Y-38475000D01*
X92030000Y-55909996D02*
X92030000Y-53710000D01*
X94230000Y-53710000D02*
X94230000Y-55909996D01*
X93130102Y-54809998D02*
X93130102Y-53710102D01*
X93130102Y-53710102D02*
X93130000Y-53710000D01*
D45*
X81000000Y-46982500D02*
X80827500Y-46810000D01*
D44*
X73320000Y-42905000D02*
X73320000Y-41050000D01*
X94230000Y-55909996D02*
X92030000Y-55909996D01*
X81625000Y-60375000D02*
X80845000Y-60375000D01*
X90741043Y-38475000D02*
X88130000Y-41086043D01*
D45*
X80057500Y-46040000D02*
X80827500Y-46810000D01*
D43*
X103490000Y-43940000D02*
X102860000Y-44570000D01*
X80845000Y-53720000D02*
X79930000Y-52805000D01*
D44*
X117057500Y-54170000D02*
X118230000Y-54170000D01*
D43*
X91200000Y-35090000D02*
X91180000Y-35110000D01*
D45*
X81000000Y-48070000D02*
X81000000Y-46982500D01*
D43*
X108815000Y-43750000D02*
X108180000Y-43750000D01*
D45*
X78780000Y-42250000D02*
X79540000Y-42250000D01*
D44*
X93130000Y-53690000D02*
X93150000Y-53710000D01*
X118230000Y-54170000D02*
X118260000Y-54200000D01*
X73320000Y-41050000D02*
X73940000Y-40430000D01*
D46*
X106893500Y-30772500D02*
X105658781Y-30772500D01*
D44*
X88130000Y-41086043D02*
X88130000Y-45180000D01*
X102835802Y-46954198D02*
X102860000Y-46930000D01*
X95912500Y-36172500D02*
X95910000Y-36170000D01*
X102835802Y-49009971D02*
X102835802Y-46954198D01*
D45*
X79097500Y-46040000D02*
X80057500Y-46040000D01*
D44*
X94767500Y-38475000D02*
X90741043Y-38475000D01*
D43*
X91200000Y-34262200D02*
X91200000Y-32960000D01*
D46*
X107201000Y-31080000D02*
X106893500Y-30772500D01*
D43*
X107990000Y-43940000D02*
X103490000Y-43940000D01*
D44*
X73940000Y-37990000D02*
X74010000Y-37920000D01*
D45*
X82585000Y-39355000D02*
X82130000Y-39810000D01*
D43*
X108815000Y-44250000D02*
X108300000Y-44250000D01*
D44*
X86504664Y-44366043D02*
X83233957Y-44366043D01*
X90249999Y-36265301D02*
X90705300Y-35810000D01*
X87393914Y-43476793D02*
X87393914Y-38206086D01*
X80187878Y-50590000D02*
X77170000Y-50590000D01*
X82010000Y-48767878D02*
X80187878Y-50590000D01*
X73330000Y-52700000D02*
X73330000Y-48260000D01*
D43*
X79300000Y-58825000D02*
X80050000Y-59575000D01*
D44*
X73330000Y-44565000D02*
X73320000Y-44555000D01*
X77505000Y-58825000D02*
X73330000Y-54650000D01*
X86504664Y-44366043D02*
X87393914Y-43476793D01*
X83233957Y-44366043D02*
X82010000Y-45590000D01*
D43*
X80100000Y-54675000D02*
X79300000Y-55475000D01*
D44*
X73330000Y-48260000D02*
X73330000Y-44565000D01*
X75360000Y-50670000D02*
X77090000Y-50670000D01*
X90705300Y-35810000D02*
X93970000Y-35810000D01*
D43*
X80050000Y-59575000D02*
X80845000Y-59575000D01*
X80845000Y-54675000D02*
X80100000Y-54675000D01*
D44*
X77090000Y-50670000D02*
X77170000Y-50590000D01*
X90249999Y-36980000D02*
X90249999Y-36265301D01*
X73330000Y-54650000D02*
X73330000Y-52700000D01*
X77505000Y-58825000D02*
X79300000Y-58825000D01*
X87393914Y-38206086D02*
X88620000Y-36980000D01*
X88620000Y-36980000D02*
X90249999Y-36980000D01*
X82010000Y-45590000D02*
X82010000Y-48767878D01*
X93970000Y-35810000D02*
X96040000Y-33740000D01*
X73330000Y-52700000D02*
X75360000Y-50670000D01*
X80897500Y-44360000D02*
X80897500Y-43065000D01*
D43*
X108815000Y-45750000D02*
X109690000Y-45750000D01*
D45*
X79792500Y-44140000D02*
X80882500Y-43050000D01*
X78860000Y-44270000D02*
X79555000Y-44270000D01*
D44*
X99076167Y-51290000D02*
X101576492Y-53790325D01*
X103565000Y-41040000D02*
X102925000Y-41680000D01*
X84270000Y-36120000D02*
X85125000Y-35265000D01*
D45*
X77117500Y-42120000D02*
X77117500Y-43310000D01*
D44*
X103565000Y-38220000D02*
X103565000Y-41040000D01*
X110440000Y-42725000D02*
X105990000Y-38275000D01*
X109785000Y-45655000D02*
X109610000Y-45655000D01*
X109665000Y-38275000D02*
X111880000Y-36060000D01*
X113982500Y-47332500D02*
X113982500Y-54170000D01*
X85125000Y-35265000D02*
X85125000Y-33075000D01*
D43*
X108815000Y-45250000D02*
X109205000Y-45250000D01*
X111300000Y-32580000D02*
X111880000Y-33160000D01*
X111880000Y-33160000D02*
X111880000Y-36060000D01*
D44*
X110440000Y-42725000D02*
X110440000Y-45000000D01*
X105100000Y-38275000D02*
X103620000Y-38275000D01*
X87664016Y-55500000D02*
X91874016Y-51290000D01*
X106270027Y-61009973D02*
X107030000Y-60250000D01*
D43*
X109690000Y-45750000D02*
X109785000Y-45655000D01*
D44*
X103620000Y-38275000D02*
X103565000Y-38220000D01*
X110440000Y-45000000D02*
X109785000Y-45655000D01*
X113982500Y-54170000D02*
X108240000Y-54170000D01*
D45*
X83635000Y-46385000D02*
X83710000Y-46460000D01*
D44*
X109610000Y-45655000D02*
X112305000Y-45655000D01*
X102835802Y-61009973D02*
X106270027Y-61009973D01*
X108240000Y-54170000D02*
X106340000Y-56070000D01*
D43*
X109205000Y-45250000D02*
X109610000Y-45655000D01*
D45*
X77117500Y-43310000D02*
X77947500Y-44140000D01*
X83635000Y-45650000D02*
X83635000Y-46385000D01*
D44*
X112305000Y-45655000D02*
X113982500Y-47332500D01*
X91874016Y-51290000D02*
X99076167Y-51290000D01*
X105990000Y-38275000D02*
X105100000Y-38275000D01*
X87430000Y-55500000D02*
X87664016Y-55500000D01*
D45*
X80880000Y-43077500D02*
X80880000Y-41622500D01*
X77947500Y-44140000D02*
X79097500Y-44140000D01*
D44*
X105100000Y-38275000D02*
X109665000Y-38275000D01*
D43*
X107580000Y-32580000D02*
X111300000Y-32580000D01*
X85125000Y-38025000D02*
X85125000Y-42745000D01*
X94110000Y-42980000D02*
X91370000Y-45720000D01*
X106555000Y-33580000D02*
X107580000Y-33580000D01*
D45*
X99370028Y-56509972D02*
X99180000Y-56700000D01*
D43*
X94585107Y-39689501D02*
X94110000Y-40164608D01*
X85125000Y-42745000D02*
X85511935Y-43131935D01*
D45*
X102835802Y-56509972D02*
X99370028Y-56509972D01*
D43*
X101915000Y-38255000D02*
X100480499Y-39689501D01*
X101915000Y-38220000D02*
X106555000Y-33580000D01*
X100480499Y-39689501D02*
X94585107Y-39689501D01*
X101915000Y-38220000D02*
X101915000Y-38255000D01*
X94110000Y-42930000D02*
X94110000Y-42980000D01*
X94110000Y-40164608D02*
X94110000Y-42930000D01*
D46*
X87480000Y-59510000D02*
X85335829Y-59510000D01*
X107580000Y-33080001D02*
X108328801Y-33080001D01*
X108328801Y-33080001D02*
X108700000Y-33451200D01*
X105809253Y-33080001D02*
X105639999Y-33080001D01*
X105639999Y-33080001D02*
X101040000Y-37680000D01*
X108700000Y-33451200D02*
X108700000Y-33850000D01*
X107580000Y-33080001D02*
X105809253Y-33080001D01*
X108340000Y-34210000D02*
X107515000Y-34210000D01*
X86370000Y-38050000D02*
X86395000Y-38025000D01*
X85335829Y-59510000D02*
X85335802Y-59509973D01*
X86370000Y-39830000D02*
X86370000Y-38050000D01*
X107515000Y-34210000D02*
X105100000Y-36625000D01*
X108700000Y-33850000D02*
X108340000Y-34210000D01*
D43*
X106233605Y-31579999D02*
X101549104Y-36264500D01*
X111989999Y-31579999D02*
X113530000Y-33120000D01*
X99012586Y-37777414D02*
X98284362Y-37777414D01*
X100912002Y-52009973D02*
X100637961Y-51735932D01*
X113530000Y-33120000D02*
X113530000Y-36060000D01*
X107580000Y-31579999D02*
X106233605Y-31579999D01*
X99610000Y-35700000D02*
X99610000Y-37180000D01*
X102835802Y-52009973D02*
X100912002Y-52009973D01*
X107580000Y-31579999D02*
X111989999Y-31579999D01*
X99610000Y-37180000D02*
X99012586Y-37777414D01*
X98284362Y-37777414D02*
X97751213Y-38310563D01*
D45*
X78927500Y-48040000D02*
X77222500Y-46335000D01*
X75230000Y-48260000D02*
X78600000Y-48260000D01*
X78600000Y-48260000D02*
X78690000Y-48170000D01*
X77222500Y-46335000D02*
X77222500Y-45090000D01*
D46*
X83675028Y-55009972D02*
X85335802Y-55009972D01*
X81810000Y-56875000D02*
X83675028Y-55009972D01*
X81810000Y-56875000D02*
X80845000Y-56875000D01*
D43*
X80845000Y-56875000D02*
X81700000Y-56875000D01*
X82000000Y-57175000D02*
X82000000Y-57675000D01*
X81800000Y-57875000D02*
X80845000Y-57875000D01*
X82000000Y-57675000D02*
X81800000Y-57875000D01*
X81700000Y-56875000D02*
X82000000Y-57175000D01*
X79650000Y-56675000D02*
X79650000Y-57125000D01*
D46*
X83199973Y-53509973D02*
X85335802Y-53509973D01*
X78180000Y-56610000D02*
X78945000Y-57375000D01*
X78180000Y-52220000D02*
X78180000Y-56610000D01*
D43*
X79900000Y-57375000D02*
X80845000Y-57375000D01*
D46*
X79085000Y-51315000D02*
X81005000Y-51315000D01*
D43*
X79950000Y-56375000D02*
X79650000Y-56675000D01*
D46*
X81005000Y-51315000D02*
X83199973Y-53509973D01*
X78945000Y-57375000D02*
X80845000Y-57375000D01*
D43*
X79650000Y-57125000D02*
X79900000Y-57375000D01*
D46*
X78180000Y-52220000D02*
X79085000Y-51315000D01*
D43*
X79950000Y-56375000D02*
X80845000Y-56375000D01*
X95995000Y-31910000D02*
X96040000Y-31865000D01*
X93605000Y-31910000D02*
X95995000Y-31910000D01*
X106490028Y-55009972D02*
X102835802Y-55009972D01*
X108815000Y-52685000D02*
X106490028Y-55009972D01*
X108815000Y-48250000D02*
X108815000Y-52685000D01*
D45*
X85335802Y-61009973D02*
X93410027Y-61009973D01*
D43*
X108815000Y-47750000D02*
X109530000Y-47750000D01*
X109684502Y-47595498D02*
X109684502Y-47356665D01*
D45*
X93410027Y-61009973D02*
X100300000Y-54120000D01*
D43*
X109530000Y-47750000D02*
X109684502Y-47595498D01*
X105700027Y-53509973D02*
X107130000Y-52080000D01*
X107130000Y-48220000D02*
X107130000Y-52080000D01*
X108100000Y-47250000D02*
X107130000Y-48220000D01*
X108815000Y-47250000D02*
X108100000Y-47250000D01*
X102835802Y-53509973D02*
X105700027Y-53509973D01*
X110000000Y-46480000D02*
X109730000Y-46750000D01*
D45*
X83855000Y-33075000D02*
X83855000Y-34565000D01*
X100910000Y-36628500D02*
X99196815Y-38341685D01*
X83855000Y-34565000D02*
X80695000Y-37725000D01*
X83855000Y-33075000D02*
X83855000Y-31635000D01*
X100910000Y-31424035D02*
X100910000Y-36628500D01*
X100010965Y-30525000D02*
X100910000Y-31424035D01*
X80695000Y-37725000D02*
X80695000Y-39787500D01*
X83855000Y-31635000D02*
X84965000Y-30525000D01*
X84965000Y-30525000D02*
X100010965Y-30525000D01*
D43*
X109730000Y-46750000D02*
X108815000Y-46750000D01*
D45*
X95240029Y-58009971D02*
X100010000Y-53240000D01*
X85335802Y-58009971D02*
X95240029Y-58009971D01*
D43*
X108815000Y-46250000D02*
X107010000Y-46250000D01*
X107010000Y-46250000D02*
X106160000Y-47100000D01*
X103556106Y-44750000D02*
X103116606Y-45189500D01*
X96749119Y-45189500D02*
X86530000Y-55408619D01*
X86530000Y-55620574D02*
X85640602Y-56509972D01*
X103116606Y-45189500D02*
X96749119Y-45189500D01*
X85640602Y-56509972D02*
X85335802Y-56509972D01*
X86530000Y-55408619D02*
X86530000Y-55620574D01*
X108815000Y-44750000D02*
X103556106Y-44750000D01*
D44*
X74280000Y-41410000D02*
X74880000Y-40810000D01*
D46*
X88434964Y-33040000D02*
X90080000Y-33040000D01*
D44*
X74940000Y-36720000D02*
X75670000Y-37450000D01*
D46*
X83855000Y-39255000D02*
X82510000Y-40600000D01*
X83855000Y-38025000D02*
X83855000Y-37619964D01*
X83855000Y-38025000D02*
X83855000Y-39255000D01*
X90080000Y-33040000D02*
X90250000Y-33210000D01*
D44*
X75670000Y-40020000D02*
X75090000Y-40600000D01*
X74280000Y-41410000D02*
X74280000Y-46385000D01*
X75090000Y-40600000D02*
X74880000Y-40810000D01*
D46*
X83855000Y-37619964D02*
X88434964Y-33040000D01*
D44*
X75670000Y-37450000D02*
X75670000Y-40020000D01*
D46*
X82510000Y-40600000D02*
X75090000Y-40600000D01*
X90250000Y-33210000D02*
X90249999Y-34262200D01*
D44*
X74010000Y-36720000D02*
X74940000Y-36720000D01*
D46*
X74980000Y-40710000D02*
X74880000Y-40810000D01*
D43*
X98310000Y-34512737D02*
X96627263Y-32830000D01*
X96627263Y-32830000D02*
X94290000Y-32830000D01*
X98310000Y-35700000D02*
X98310000Y-34512737D01*
X93980000Y-33140000D02*
X92830000Y-33140000D01*
X94290000Y-32830000D02*
X93980000Y-33140000D01*
D45*
X97230000Y-40780000D02*
X95145000Y-40780000D01*
X95145000Y-40780000D02*
X94925000Y-40560000D01*
X97230000Y-42680000D02*
X97995499Y-43445499D01*
X105550670Y-42730000D02*
X108770000Y-42730000D01*
X104835171Y-43445499D02*
X105550670Y-42730000D01*
X119730000Y-60250000D02*
X119730000Y-54020000D01*
X119730000Y-54020000D02*
X116370000Y-50660000D01*
X97995499Y-43445499D02*
X104835171Y-43445499D01*
X96950000Y-42400000D02*
X97230000Y-42680000D01*
X94925000Y-42400000D02*
X96950000Y-42400000D01*
X103140602Y-59509973D02*
X105710575Y-56940000D01*
X115540000Y-43170000D02*
X111410000Y-39040000D01*
D43*
X101310000Y-41645000D02*
X101275000Y-41680000D01*
X101310000Y-40520000D02*
X102590000Y-39240000D01*
X102590000Y-39240000D02*
X102600000Y-39240000D01*
X99105000Y-41730000D02*
X101225000Y-41730000D01*
X101225000Y-41730000D02*
X101275000Y-41680000D01*
D45*
X105710575Y-56940000D02*
X114410000Y-56940000D01*
X102835802Y-59509973D02*
X103140602Y-59509973D01*
X114410000Y-56940000D02*
X115540000Y-55810000D01*
X115540000Y-55810000D02*
X115540000Y-43170000D01*
D43*
X101310000Y-40520000D02*
X101310000Y-41645000D01*
D45*
X93215000Y-42340000D02*
X93275000Y-42400000D01*
X91280000Y-42340000D02*
X93215000Y-42340000D01*
D43*
X112110000Y-58700000D02*
X112110000Y-60250000D01*
X88660027Y-52009973D02*
X90790000Y-49880000D01*
X105950000Y-57800000D02*
X111210000Y-57800000D01*
X111210000Y-57800000D02*
X112110000Y-58700000D01*
X85335802Y-52009973D02*
X88660027Y-52009973D01*
D45*
X89405000Y-41390000D02*
X89405000Y-44815000D01*
X89405000Y-44815000D02*
X92670000Y-48080000D01*
X95139971Y-50509971D02*
X102835802Y-50509971D01*
X95110000Y-50480000D02*
X95139971Y-50509971D01*
X92500001Y-37330000D02*
X92150001Y-36980000D01*
X94087500Y-37330000D02*
X92500001Y-37330000D01*
D43*
X92150001Y-34262200D02*
X92150001Y-32105001D01*
X92150001Y-32105001D02*
X91955000Y-31910000D01*
D45*
X85285000Y-48959169D02*
X85335802Y-49009971D01*
X85335802Y-49009971D02*
X84499971Y-49009971D01*
X85285000Y-45650000D02*
X85285000Y-48959169D01*
X84499971Y-49009971D02*
X83750000Y-48260000D01*
D43*
X89354633Y-50509971D02*
X89867464Y-49997140D01*
X85335802Y-50509971D02*
X89354633Y-50509971D01*
D46*
X93155000Y-40440000D02*
X93275000Y-40560000D01*
D45*
X117190000Y-60250000D02*
X117190000Y-56430000D01*
D46*
X93275000Y-40335634D02*
X94541133Y-39069501D01*
X100150499Y-39069501D02*
X100190000Y-39030000D01*
X94541133Y-39069501D02*
X100150499Y-39069501D01*
X93275000Y-40560000D02*
X93275000Y-40335634D01*
X91280000Y-40440000D02*
X93155000Y-40440000D01*
D43*
X82295000Y-43180000D02*
X82787828Y-43180000D01*
X101320000Y-58020000D02*
X102825773Y-58020000D01*
X82787828Y-43180000D02*
X83111111Y-42856717D01*
X84050437Y-43796043D02*
X83111111Y-42856717D01*
X102825773Y-58020000D02*
X102835802Y-58009971D01*
X86698914Y-43188914D02*
X86091785Y-43796043D01*
X86091785Y-43796043D02*
X84050437Y-43796043D01*
M02*
