G04 #@! TF.GenerationSoftware,KiCad,Pcbnew,6.0.8-f2edbf62ab~116~ubuntu20.04.1*
G04 #@! TF.CreationDate,2022-10-29T07:55:17+02:00*
G04 #@! TF.ProjectId,tinypico-goodisplay,74696e79-7069-4636-9f2d-676f6f646973,rev?*
G04 #@! TF.SameCoordinates,Original*
G04 #@! TF.FileFunction,Paste,Top*
G04 #@! TF.FilePolarity,Positive*
%FSLAX46Y46*%
G04 Gerber Fmt 4.6, Leading zero omitted, Abs format (unit mm)*
G04 Created by KiCad (PCBNEW 6.0.8-f2edbf62ab~116~ubuntu20.04.1) date 2022-10-29 07:55:17*
%MOMM*%
%LPD*%
G01*
G04 APERTURE LIST*
G04 Aperture macros list*
%AMRoundRect*
0 Rectangle with rounded corners*
0 $1 Rounding radius*
0 $2 $3 $4 $5 $6 $7 $8 $9 X,Y pos of 4 corners*
0 Add a 4 corners polygon primitive as box body*
4,1,4,$2,$3,$4,$5,$6,$7,$8,$9,$2,$3,0*
0 Add four circle primitives for the rounded corners*
1,1,$1+$1,$2,$3*
1,1,$1+$1,$4,$5*
1,1,$1+$1,$6,$7*
1,1,$1+$1,$8,$9*
0 Add four rect primitives between the rounded corners*
20,1,$1+$1,$2,$3,$4,$5,0*
20,1,$1+$1,$4,$5,$6,$7,0*
20,1,$1+$1,$6,$7,$8,$9,0*
20,1,$1+$1,$8,$9,$2,$3,0*%
G04 Aperture macros list end*
%ADD10RoundRect,0.250000X0.475000X-0.337500X0.475000X0.337500X-0.475000X0.337500X-0.475000X-0.337500X0*%
%ADD11RoundRect,0.250000X0.337500X0.475000X-0.337500X0.475000X-0.337500X-0.475000X0.337500X-0.475000X0*%
%ADD12R,0.600000X0.450000*%
%ADD13R,0.450000X0.700000*%
%ADD14RoundRect,0.200000X-0.200000X-0.275000X0.200000X-0.275000X0.200000X0.275000X-0.200000X0.275000X0*%
%ADD15R,1.422400X1.295400*%
%ADD16RoundRect,0.225000X0.250000X-0.225000X0.250000X0.225000X-0.250000X0.225000X-0.250000X-0.225000X0*%
%ADD17R,0.889000X1.244600*%
%ADD18R,0.812800X0.939800*%
%ADD19RoundRect,0.200000X0.275000X-0.200000X0.275000X0.200000X-0.275000X0.200000X-0.275000X-0.200000X0*%
%ADD20R,0.900000X1.200000*%
%ADD21R,3.708400X1.092200*%
%ADD22RoundRect,0.200000X0.200000X0.275000X-0.200000X0.275000X-0.200000X-0.275000X0.200000X-0.275000X0*%
%ADD23R,0.304800X1.193800*%
%ADD24R,1.803400X2.006600*%
%ADD25RoundRect,0.225000X-0.250000X0.225000X-0.250000X-0.225000X0.250000X-0.225000X0.250000X0.225000X0*%
%ADD26RoundRect,0.250000X-0.475000X0.337500X-0.475000X-0.337500X0.475000X-0.337500X0.475000X0.337500X0*%
%ADD27RoundRect,0.150000X0.150000X-0.825000X0.150000X0.825000X-0.150000X0.825000X-0.150000X-0.825000X0*%
G04 APERTURE END LIST*
D10*
X98950000Y-49537500D03*
X98950000Y-47462500D03*
D11*
X112087500Y-41350000D03*
X110012500Y-41350000D03*
D10*
X87250000Y-41987500D03*
X87250000Y-39912500D03*
D12*
X117850000Y-36995000D03*
X115750000Y-36995000D03*
D13*
X91850000Y-46200000D03*
X90550000Y-46200000D03*
X91200000Y-48200000D03*
D14*
X112425000Y-50600000D03*
X114075000Y-50600000D03*
D10*
X107350000Y-46837500D03*
X107350000Y-44762500D03*
D15*
X120592200Y-50950000D03*
X118407800Y-50950000D03*
D16*
X97200000Y-47375000D03*
X97200000Y-45825000D03*
D17*
X104942100Y-48664820D03*
X107939300Y-48664820D03*
X109437900Y-48664820D03*
D18*
X103390160Y-49609700D03*
X110989840Y-49609700D03*
X103390160Y-51870300D03*
X110989840Y-51870300D03*
D19*
X123300000Y-38250000D03*
X123300000Y-36600000D03*
D20*
X81050000Y-43950000D03*
X84350000Y-43950000D03*
D19*
X115950000Y-46175000D03*
X115950000Y-44525000D03*
D10*
X105250000Y-46837500D03*
X105250000Y-44762500D03*
X94050000Y-48037500D03*
X94050000Y-45962500D03*
D20*
X84350000Y-41550000D03*
X81050000Y-41550000D03*
D12*
X119300000Y-37050000D03*
X121400000Y-37050000D03*
D19*
X100700000Y-51575000D03*
X100700000Y-49925000D03*
D11*
X112087500Y-43450000D03*
X110012500Y-43450000D03*
D21*
X77550000Y-46548600D03*
X77550000Y-43551400D03*
D22*
X88825000Y-47550000D03*
X87175000Y-47550000D03*
D10*
X111950000Y-47587500D03*
X111950000Y-45512500D03*
D23*
X103350001Y-41199999D03*
X102850000Y-41199999D03*
X102350001Y-41199999D03*
X101849999Y-41199999D03*
X101350000Y-41199999D03*
X100850001Y-41199999D03*
X100350000Y-41199999D03*
X99850001Y-41199999D03*
X99349999Y-41199999D03*
X98850000Y-41199999D03*
X98350001Y-41199999D03*
X97850000Y-41199999D03*
X97350000Y-41199999D03*
X96849999Y-41199999D03*
X96350000Y-41199999D03*
X95850001Y-41199999D03*
X95349999Y-41199999D03*
X94850000Y-41199999D03*
X94349999Y-41199999D03*
X93850000Y-41199999D03*
X93350001Y-41199999D03*
X92849999Y-41199999D03*
X92350000Y-41199999D03*
X91850001Y-41199999D03*
D24*
X105000000Y-38050000D03*
X90200000Y-38050000D03*
D19*
X123650000Y-42300000D03*
X123650000Y-40650000D03*
D10*
X103150000Y-47837500D03*
X103150000Y-45762500D03*
D25*
X116200000Y-49775000D03*
X116200000Y-51325000D03*
D20*
X84350000Y-46350000D03*
X81050000Y-46350000D03*
D25*
X122800000Y-49775000D03*
X122800000Y-51325000D03*
D26*
X73800000Y-45100000D03*
X73800000Y-47175000D03*
D27*
X118045000Y-46125000D03*
X119315000Y-46125000D03*
X120585000Y-46125000D03*
X121855000Y-46125000D03*
X121855000Y-41175000D03*
X120585000Y-41175000D03*
X119315000Y-41175000D03*
X118045000Y-41175000D03*
D10*
X101000000Y-48337500D03*
X101000000Y-46262500D03*
M02*
