G04 #@! TF.GenerationSoftware,KiCad,Pcbnew,6.0.8-f2edbf62ab~116~ubuntu20.04.1*
G04 #@! TF.CreationDate,2022-10-29T07:55:17+02:00*
G04 #@! TF.ProjectId,tinypico-goodisplay,74696e79-7069-4636-9f2d-676f6f646973,rev?*
G04 #@! TF.SameCoordinates,Original*
G04 #@! TF.FileFunction,Legend,Top*
G04 #@! TF.FilePolarity,Positive*
%FSLAX46Y46*%
G04 Gerber Fmt 4.6, Leading zero omitted, Abs format (unit mm)*
G04 Created by KiCad (PCBNEW 6.0.8-f2edbf62ab~116~ubuntu20.04.1) date 2022-10-29 07:55:17*
%MOMM*%
%LPD*%
G01*
G04 APERTURE LIST*
G04 Aperture macros list*
%AMRoundRect*
0 Rectangle with rounded corners*
0 $1 Rounding radius*
0 $2 $3 $4 $5 $6 $7 $8 $9 X,Y pos of 4 corners*
0 Add a 4 corners polygon primitive as box body*
4,1,4,$2,$3,$4,$5,$6,$7,$8,$9,$2,$3,0*
0 Add four circle primitives for the rounded corners*
1,1,$1+$1,$2,$3*
1,1,$1+$1,$4,$5*
1,1,$1+$1,$6,$7*
1,1,$1+$1,$8,$9*
0 Add four rect primitives between the rounded corners*
20,1,$1+$1,$2,$3,$4,$5,0*
20,1,$1+$1,$4,$5,$6,$7,0*
20,1,$1+$1,$6,$7,$8,$9,0*
20,1,$1+$1,$8,$9,$2,$3,0*%
G04 Aperture macros list end*
%ADD10C,0.150000*%
%ADD11C,0.120000*%
%ADD12C,0.200000*%
%ADD13C,0.130000*%
%ADD14RoundRect,0.250000X0.475000X-0.337500X0.475000X0.337500X-0.475000X0.337500X-0.475000X-0.337500X0*%
%ADD15RoundRect,0.250000X0.337500X0.475000X-0.337500X0.475000X-0.337500X-0.475000X0.337500X-0.475000X0*%
%ADD16R,0.600000X0.450000*%
%ADD17R,0.450000X0.700000*%
%ADD18RoundRect,0.200000X-0.200000X-0.275000X0.200000X-0.275000X0.200000X0.275000X-0.200000X0.275000X0*%
%ADD19R,1.422400X1.295400*%
%ADD20RoundRect,0.225000X0.250000X-0.225000X0.250000X0.225000X-0.250000X0.225000X-0.250000X-0.225000X0*%
%ADD21C,0.889000*%
%ADD22R,0.889000X1.244600*%
%ADD23R,0.812800X0.939800*%
%ADD24RoundRect,0.200000X0.275000X-0.200000X0.275000X0.200000X-0.275000X0.200000X-0.275000X-0.200000X0*%
%ADD25R,0.900000X1.200000*%
%ADD26R,3.708400X1.092200*%
%ADD27RoundRect,0.200000X0.200000X0.275000X-0.200000X0.275000X-0.200000X-0.275000X0.200000X-0.275000X0*%
%ADD28C,1.473200*%
%ADD29RoundRect,0.025400X0.635000X-0.635000X0.635000X0.635000X-0.635000X0.635000X-0.635000X-0.635000X0*%
%ADD30R,0.304800X1.193800*%
%ADD31R,1.803400X2.006600*%
%ADD32RoundRect,0.225000X-0.250000X0.225000X-0.250000X-0.225000X0.250000X-0.225000X0.250000X0.225000X0*%
%ADD33RoundRect,0.250000X-0.475000X0.337500X-0.475000X-0.337500X0.475000X-0.337500X0.475000X0.337500X0*%
%ADD34RoundRect,0.150000X0.150000X-0.825000X0.150000X0.825000X-0.150000X0.825000X-0.150000X-0.825000X0*%
G04 APERTURE END LIST*
D10*
X97850000Y-51700000D02*
X97850000Y-50450000D01*
X97850000Y-52200000D02*
X97500000Y-51700000D01*
X97850000Y-50450000D02*
X99100000Y-50450000D01*
X97550000Y-51700000D02*
X98200000Y-51700000D01*
X99100000Y-50450000D02*
X99100000Y-50600000D01*
X98200000Y-51700000D02*
X97850000Y-52200000D01*
D11*
X82983333Y-37316666D02*
X83416666Y-37316666D01*
X83183333Y-37583333D01*
X83283333Y-37583333D01*
X83350000Y-37616666D01*
X83383333Y-37650000D01*
X83416666Y-37716666D01*
X83416666Y-37883333D01*
X83383333Y-37950000D01*
X83350000Y-37983333D01*
X83283333Y-38016666D01*
X83083333Y-38016666D01*
X83016666Y-37983333D01*
X82983333Y-37950000D01*
X83616666Y-37316666D02*
X83850000Y-38016666D01*
X84083333Y-37316666D01*
X84250000Y-37316666D02*
X84683333Y-37316666D01*
X84450000Y-37583333D01*
X84550000Y-37583333D01*
X84616666Y-37616666D01*
X84650000Y-37650000D01*
X84683333Y-37716666D01*
X84683333Y-37883333D01*
X84650000Y-37950000D01*
X84616666Y-37983333D01*
X84550000Y-38016666D01*
X84350000Y-38016666D01*
X84283333Y-37983333D01*
X84250000Y-37950000D01*
D12*
X72908571Y-41885714D02*
X73080000Y-41942857D01*
X73365714Y-41942857D01*
X73480000Y-41885714D01*
X73537142Y-41828571D01*
X73594285Y-41714285D01*
X73594285Y-41600000D01*
X73537142Y-41485714D01*
X73480000Y-41428571D01*
X73365714Y-41371428D01*
X73137142Y-41314285D01*
X73022857Y-41257142D01*
X72965714Y-41200000D01*
X72908571Y-41085714D01*
X72908571Y-40971428D01*
X72965714Y-40857142D01*
X73022857Y-40800000D01*
X73137142Y-40742857D01*
X73422857Y-40742857D01*
X73594285Y-40800000D01*
X74108571Y-41942857D02*
X74108571Y-40742857D01*
X74565714Y-40742857D01*
X74680000Y-40800000D01*
X74737142Y-40857142D01*
X74794285Y-40971428D01*
X74794285Y-41142857D01*
X74737142Y-41257142D01*
X74680000Y-41314285D01*
X74565714Y-41371428D01*
X74108571Y-41371428D01*
X75308571Y-41942857D02*
X75308571Y-40742857D01*
X76794285Y-41942857D02*
X76794285Y-40742857D01*
X76794285Y-41314285D02*
X77480000Y-41314285D01*
X77480000Y-41942857D02*
X77480000Y-40742857D01*
X77994285Y-41600000D02*
X78565714Y-41600000D01*
X77880000Y-41942857D02*
X78280000Y-40742857D01*
X78680000Y-41942857D01*
X78908571Y-40742857D02*
X79594285Y-40742857D01*
X79251428Y-41942857D02*
X79251428Y-40742857D01*
D11*
X91061904Y-50297619D02*
X91061904Y-49802380D01*
X91366666Y-50069047D01*
X91366666Y-49954761D01*
X91404761Y-49878571D01*
X91442857Y-49840476D01*
X91519047Y-49802380D01*
X91709523Y-49802380D01*
X91785714Y-49840476D01*
X91823809Y-49878571D01*
X91861904Y-49954761D01*
X91861904Y-50183333D01*
X91823809Y-50259523D01*
X91785714Y-50297619D01*
X91138095Y-49497619D02*
X91100000Y-49459523D01*
X91061904Y-49383333D01*
X91061904Y-49192857D01*
X91100000Y-49116666D01*
X91138095Y-49078571D01*
X91214285Y-49040476D01*
X91290476Y-49040476D01*
X91404761Y-49078571D01*
X91861904Y-49535714D01*
X91861904Y-49040476D01*
X81711904Y-49802380D02*
X81711904Y-50259523D01*
X81711904Y-50030952D02*
X80911904Y-50030952D01*
X81026190Y-50107142D01*
X81102380Y-50183333D01*
X81140476Y-50259523D01*
X81254761Y-49345238D02*
X81216666Y-49421428D01*
X81178571Y-49459523D01*
X81102380Y-49497619D01*
X81064285Y-49497619D01*
X80988095Y-49459523D01*
X80950000Y-49421428D01*
X80911904Y-49345238D01*
X80911904Y-49192857D01*
X80950000Y-49116666D01*
X80988095Y-49078571D01*
X81064285Y-49040476D01*
X81102380Y-49040476D01*
X81178571Y-49078571D01*
X81216666Y-49116666D01*
X81254761Y-49192857D01*
X81254761Y-49345238D01*
X81292857Y-49421428D01*
X81330952Y-49459523D01*
X81407142Y-49497619D01*
X81559523Y-49497619D01*
X81635714Y-49459523D01*
X81673809Y-49421428D01*
X81711904Y-49345238D01*
X81711904Y-49192857D01*
X81673809Y-49116666D01*
X81635714Y-49078571D01*
X81559523Y-49040476D01*
X81407142Y-49040476D01*
X81330952Y-49078571D01*
X81292857Y-49116666D01*
X81254761Y-49192857D01*
X75938095Y-50259523D02*
X75900000Y-50221428D01*
X75861904Y-50145238D01*
X75861904Y-49954761D01*
X75900000Y-49878571D01*
X75938095Y-49840476D01*
X76014285Y-49802380D01*
X76090476Y-49802380D01*
X76204761Y-49840476D01*
X76661904Y-50297619D01*
X76661904Y-49802380D01*
X75861904Y-49535714D02*
X75861904Y-49040476D01*
X76166666Y-49307142D01*
X76166666Y-49192857D01*
X76204761Y-49116666D01*
X76242857Y-49078571D01*
X76319047Y-49040476D01*
X76509523Y-49040476D01*
X76585714Y-49078571D01*
X76623809Y-49116666D01*
X76661904Y-49192857D01*
X76661904Y-49421428D01*
X76623809Y-49497619D01*
X76585714Y-49535714D01*
X93661904Y-50297619D02*
X93661904Y-49802380D01*
X93966666Y-50069047D01*
X93966666Y-49954761D01*
X94004761Y-49878571D01*
X94042857Y-49840476D01*
X94119047Y-49802380D01*
X94309523Y-49802380D01*
X94385714Y-49840476D01*
X94423809Y-49878571D01*
X94461904Y-49954761D01*
X94461904Y-50183333D01*
X94423809Y-50259523D01*
X94385714Y-50297619D01*
X93661904Y-49535714D02*
X93661904Y-49040476D01*
X93966666Y-49307142D01*
X93966666Y-49192857D01*
X94004761Y-49116666D01*
X94042857Y-49078571D01*
X94119047Y-49040476D01*
X94309523Y-49040476D01*
X94385714Y-49078571D01*
X94423809Y-49116666D01*
X94461904Y-49192857D01*
X94461904Y-49421428D01*
X94423809Y-49497619D01*
X94385714Y-49535714D01*
X79186904Y-49802380D02*
X79186904Y-50259523D01*
X79186904Y-50030952D02*
X78386904Y-50030952D01*
X78501190Y-50107142D01*
X78577380Y-50183333D01*
X78615476Y-50259523D01*
X79186904Y-49421428D02*
X79186904Y-49269047D01*
X79148809Y-49192857D01*
X79110714Y-49154761D01*
X78996428Y-49078571D01*
X78844047Y-49040476D01*
X78539285Y-49040476D01*
X78463095Y-49078571D01*
X78425000Y-49116666D01*
X78386904Y-49192857D01*
X78386904Y-49345238D01*
X78425000Y-49421428D01*
X78463095Y-49459523D01*
X78539285Y-49497619D01*
X78729761Y-49497619D01*
X78805952Y-49459523D01*
X78844047Y-49421428D01*
X78882142Y-49345238D01*
X78882142Y-49192857D01*
X78844047Y-49116666D01*
X78805952Y-49078571D01*
X78729761Y-49040476D01*
X86038095Y-50259523D02*
X86000000Y-50221428D01*
X85961904Y-50145238D01*
X85961904Y-49954761D01*
X86000000Y-49878571D01*
X86038095Y-49840476D01*
X86114285Y-49802380D01*
X86190476Y-49802380D01*
X86304761Y-49840476D01*
X86761904Y-50297619D01*
X86761904Y-49802380D01*
X86038095Y-49497619D02*
X86000000Y-49459523D01*
X85961904Y-49383333D01*
X85961904Y-49192857D01*
X86000000Y-49116666D01*
X86038095Y-49078571D01*
X86114285Y-49040476D01*
X86190476Y-49040476D01*
X86304761Y-49078571D01*
X86761904Y-49535714D01*
X86761904Y-49040476D01*
X83436904Y-49284524D02*
X83436904Y-49665477D01*
X83817857Y-49703572D01*
X83779761Y-49665477D01*
X83741666Y-49589286D01*
X83741666Y-49398810D01*
X83779761Y-49322620D01*
X83817857Y-49284524D01*
X83894047Y-49246429D01*
X84084523Y-49246429D01*
X84160714Y-49284524D01*
X84198809Y-49322620D01*
X84236904Y-49398810D01*
X84236904Y-49589286D01*
X84198809Y-49665477D01*
X84160714Y-49703572D01*
X88563095Y-50259523D02*
X88525000Y-50221428D01*
X88486904Y-50145238D01*
X88486904Y-49954761D01*
X88525000Y-49878571D01*
X88563095Y-49840476D01*
X88639285Y-49802380D01*
X88715476Y-49802380D01*
X88829761Y-49840476D01*
X89286904Y-50297619D01*
X89286904Y-49802380D01*
X89286904Y-49040476D02*
X89286904Y-49497619D01*
X89286904Y-49269047D02*
X88486904Y-49269047D01*
X88601190Y-49345238D01*
X88677380Y-49421428D01*
X88715476Y-49497619D01*
D13*
X117983333Y-48066666D02*
X118416666Y-48066666D01*
X118183333Y-48333333D01*
X118283333Y-48333333D01*
X118350000Y-48366666D01*
X118383333Y-48400000D01*
X118416666Y-48466666D01*
X118416666Y-48633333D01*
X118383333Y-48700000D01*
X118350000Y-48733333D01*
X118283333Y-48766666D01*
X118083333Y-48766666D01*
X118016666Y-48733333D01*
X117983333Y-48700000D01*
X118683333Y-48133333D02*
X118716666Y-48100000D01*
X118783333Y-48066666D01*
X118950000Y-48066666D01*
X119016666Y-48100000D01*
X119050000Y-48133333D01*
X119083333Y-48200000D01*
X119083333Y-48266666D01*
X119050000Y-48366666D01*
X118650000Y-48766666D01*
X119083333Y-48766666D01*
X119383333Y-48766666D02*
X119383333Y-48066666D01*
X119783333Y-48766666D02*
X119483333Y-48366666D01*
X119783333Y-48066666D02*
X119383333Y-48466666D01*
X120083333Y-48766666D02*
X120083333Y-48066666D01*
X120383333Y-48766666D02*
X120383333Y-48400000D01*
X120350000Y-48333333D01*
X120283333Y-48300000D01*
X120183333Y-48300000D01*
X120116666Y-48333333D01*
X120083333Y-48366666D01*
X120650000Y-48300000D02*
X121016666Y-48300000D01*
X120650000Y-48766666D01*
X121016666Y-48766666D01*
D11*
X81147619Y-37261904D02*
X80766666Y-37261904D01*
X80728571Y-37642857D01*
X80766666Y-37604761D01*
X80842857Y-37566666D01*
X81033333Y-37566666D01*
X81109523Y-37604761D01*
X81147619Y-37642857D01*
X81185714Y-37719047D01*
X81185714Y-37909523D01*
X81147619Y-37985714D01*
X81109523Y-38023809D01*
X81033333Y-38061904D01*
X80842857Y-38061904D01*
X80766666Y-38023809D01*
X80728571Y-37985714D01*
X81414285Y-37261904D02*
X81680952Y-38061904D01*
X81947619Y-37261904D01*
X72630952Y-50961904D02*
X72897619Y-51761904D01*
X73164285Y-50961904D01*
X73850000Y-51761904D02*
X73392857Y-51761904D01*
X73621428Y-51761904D02*
X73621428Y-50961904D01*
X73545238Y-51076190D01*
X73469047Y-51152380D01*
X73392857Y-51190476D01*
X74192857Y-51685714D02*
X74230952Y-51723809D01*
X74192857Y-51761904D01*
X74154761Y-51723809D01*
X74192857Y-51685714D01*
X74192857Y-51761904D01*
X74992857Y-51761904D02*
X74535714Y-51761904D01*
X74764285Y-51761904D02*
X74764285Y-50961904D01*
X74688095Y-51076190D01*
X74611904Y-51152380D01*
X74535714Y-51190476D01*
X111156666Y-50386666D02*
X111590000Y-50386666D01*
X111356666Y-50653333D01*
X111456666Y-50653333D01*
X111523333Y-50686666D01*
X111556666Y-50720000D01*
X111590000Y-50786666D01*
X111590000Y-50953333D01*
X111556666Y-51020000D01*
X111523333Y-51053333D01*
X111456666Y-51086666D01*
X111256666Y-51086666D01*
X111190000Y-51053333D01*
X111156666Y-51020000D01*
X101583333Y-50416666D02*
X101650000Y-50416666D01*
X101716666Y-50450000D01*
X101750000Y-50483333D01*
X101783333Y-50550000D01*
X101816666Y-50683333D01*
X101816666Y-50850000D01*
X101783333Y-50983333D01*
X101750000Y-51050000D01*
X101716666Y-51083333D01*
X101650000Y-51116666D01*
X101583333Y-51116666D01*
X101516666Y-51083333D01*
X101483333Y-51050000D01*
X101450000Y-50983333D01*
X101416666Y-50850000D01*
X101416666Y-50683333D01*
X101450000Y-50550000D01*
X101483333Y-50483333D01*
X101516666Y-50450000D01*
X101583333Y-50416666D01*
X102116666Y-51050000D02*
X102150000Y-51083333D01*
X102116666Y-51116666D01*
X102083333Y-51083333D01*
X102116666Y-51050000D01*
X102116666Y-51116666D01*
X102750000Y-50650000D02*
X102750000Y-51116666D01*
X102583333Y-50383333D02*
X102416666Y-50883333D01*
X102850000Y-50883333D01*
X103050000Y-50416666D02*
X103516666Y-50416666D01*
X103216666Y-51116666D01*
X78140476Y-37300000D02*
X78064285Y-37261904D01*
X77950000Y-37261904D01*
X77835714Y-37300000D01*
X77759523Y-37376190D01*
X77721428Y-37452380D01*
X77683333Y-37604761D01*
X77683333Y-37719047D01*
X77721428Y-37871428D01*
X77759523Y-37947619D01*
X77835714Y-38023809D01*
X77950000Y-38061904D01*
X78026190Y-38061904D01*
X78140476Y-38023809D01*
X78178571Y-37985714D01*
X78178571Y-37719047D01*
X78026190Y-37719047D01*
X78521428Y-38061904D02*
X78521428Y-37261904D01*
X78978571Y-38061904D01*
X78978571Y-37261904D01*
X79359523Y-38061904D02*
X79359523Y-37261904D01*
X79550000Y-37261904D01*
X79664285Y-37300000D01*
X79740476Y-37376190D01*
X79778571Y-37452380D01*
X79816666Y-37604761D01*
X79816666Y-37719047D01*
X79778571Y-37871428D01*
X79740476Y-37947619D01*
X79664285Y-38023809D01*
X79550000Y-38061904D01*
X79359523Y-38061904D01*
X107583333Y-38402380D02*
X107583333Y-37640476D01*
X107535714Y-38354761D02*
X107535714Y-37688095D01*
X107488095Y-38354761D02*
X107488095Y-37688095D01*
X107440476Y-38307142D02*
X107440476Y-37735714D01*
X107392857Y-38307142D02*
X107392857Y-37735714D01*
X107345238Y-38259523D02*
X107345238Y-37783333D01*
X107297619Y-38259523D02*
X107297619Y-37783333D01*
X107250000Y-38211904D02*
X107250000Y-37830952D01*
X107202380Y-38164285D02*
X107202380Y-37878571D01*
X107154761Y-38164285D02*
X107154761Y-37878571D01*
X107107142Y-38116666D02*
X107107142Y-37926190D01*
X107059523Y-38116666D02*
X107059523Y-37926190D01*
X107011904Y-38021428D02*
X106964285Y-38021428D01*
X107011904Y-38069047D02*
X107011904Y-37973809D01*
X107630952Y-38402380D02*
X106916666Y-38021428D01*
X107630952Y-37640476D01*
X106869047Y-38021428D02*
X107630952Y-37592857D01*
X107630952Y-38450000D01*
X106869047Y-38021428D01*
X123516666Y-43961904D02*
X123516666Y-43352380D01*
X123478571Y-43923809D02*
X123478571Y-43390476D01*
X123440476Y-43923809D02*
X123440476Y-43390476D01*
X123402380Y-43885714D02*
X123402380Y-43428571D01*
X123364285Y-43885714D02*
X123364285Y-43428571D01*
X123326190Y-43847619D02*
X123326190Y-43466666D01*
X123288095Y-43847619D02*
X123288095Y-43466666D01*
X123250000Y-43809523D02*
X123250000Y-43504761D01*
X123211904Y-43771428D02*
X123211904Y-43542857D01*
X123173809Y-43771428D02*
X123173809Y-43542857D01*
X123135714Y-43733333D02*
X123135714Y-43580952D01*
X123097619Y-43733333D02*
X123097619Y-43580952D01*
X123059523Y-43657142D02*
X123021428Y-43657142D01*
X123059523Y-43695238D02*
X123059523Y-43619047D01*
X123554761Y-43961904D02*
X122983333Y-43657142D01*
X123554761Y-43352380D01*
X122945238Y-43657142D02*
X123554761Y-43314285D01*
X123554761Y-44000000D01*
X122945238Y-43657142D01*
X96716666Y-49833333D02*
X96383333Y-50066666D01*
X96716666Y-50233333D02*
X96016666Y-50233333D01*
X96016666Y-49966666D01*
X96050000Y-49900000D01*
X96083333Y-49866666D01*
X96150000Y-49833333D01*
X96250000Y-49833333D01*
X96316666Y-49866666D01*
X96350000Y-49900000D01*
X96383333Y-49966666D01*
X96383333Y-50233333D01*
X96683333Y-49566666D02*
X96716666Y-49466666D01*
X96716666Y-49300000D01*
X96683333Y-49233333D01*
X96650000Y-49200000D01*
X96583333Y-49166666D01*
X96516666Y-49166666D01*
X96450000Y-49200000D01*
X96416666Y-49233333D01*
X96383333Y-49300000D01*
X96350000Y-49433333D01*
X96316666Y-49500000D01*
X96283333Y-49533333D01*
X96216666Y-49566666D01*
X96150000Y-49566666D01*
X96083333Y-49533333D01*
X96050000Y-49500000D01*
X96016666Y-49433333D01*
X96016666Y-49266666D01*
X96050000Y-49166666D01*
X96016666Y-48966666D02*
X96016666Y-48566666D01*
X96716666Y-48766666D02*
X96016666Y-48766666D01*
X85850000Y-38016666D02*
X85850000Y-37316666D01*
X86316666Y-37316666D02*
X86450000Y-37316666D01*
X86516666Y-37350000D01*
X86583333Y-37416666D01*
X86616666Y-37550000D01*
X86616666Y-37783333D01*
X86583333Y-37916666D01*
X86516666Y-37983333D01*
X86450000Y-38016666D01*
X86316666Y-38016666D01*
X86250000Y-37983333D01*
X86183333Y-37916666D01*
X86150000Y-37783333D01*
X86150000Y-37550000D01*
X86183333Y-37416666D01*
X86250000Y-37350000D01*
X86316666Y-37316666D01*
X87216666Y-37550000D02*
X87216666Y-38016666D01*
X87050000Y-37283333D02*
X86883333Y-37783333D01*
X87316666Y-37783333D01*
X108061214Y-40906571D02*
X108061214Y-41206571D01*
X108532642Y-41206571D02*
X107632642Y-41206571D01*
X107632642Y-40778000D01*
X108532642Y-40435142D02*
X107632642Y-40435142D01*
X107632642Y-40092285D01*
X107675500Y-40006571D01*
X107718357Y-39963714D01*
X107804071Y-39920857D01*
X107932642Y-39920857D01*
X108018357Y-39963714D01*
X108061214Y-40006571D01*
X108104071Y-40092285D01*
X108104071Y-40435142D01*
X108446928Y-39020857D02*
X108489785Y-39063714D01*
X108532642Y-39192285D01*
X108532642Y-39278000D01*
X108489785Y-39406571D01*
X108404071Y-39492285D01*
X108318357Y-39535142D01*
X108146928Y-39578000D01*
X108018357Y-39578000D01*
X107846928Y-39535142D01*
X107761214Y-39492285D01*
X107675500Y-39406571D01*
X107632642Y-39278000D01*
X107632642Y-39192285D01*
X107675500Y-39063714D01*
X107718357Y-39020857D01*
X107932642Y-37949428D02*
X108832642Y-37949428D01*
X107975500Y-37949428D02*
X107932642Y-37863714D01*
X107932642Y-37692285D01*
X107975500Y-37606571D01*
X108018357Y-37563714D01*
X108104071Y-37520857D01*
X108361214Y-37520857D01*
X108446928Y-37563714D01*
X108489785Y-37606571D01*
X108532642Y-37692285D01*
X108532642Y-37863714D01*
X108489785Y-37949428D01*
X108532642Y-37135142D02*
X107932642Y-37135142D01*
X107632642Y-37135142D02*
X107675500Y-37178000D01*
X107718357Y-37135142D01*
X107675500Y-37092285D01*
X107632642Y-37135142D01*
X107718357Y-37135142D01*
X107932642Y-36706571D02*
X108532642Y-36706571D01*
X108018357Y-36706571D02*
X107975500Y-36663714D01*
X107932642Y-36578000D01*
X107932642Y-36449428D01*
X107975500Y-36363714D01*
X108061214Y-36320857D01*
X108532642Y-36320857D01*
X108489785Y-35935142D02*
X108532642Y-35849428D01*
X108532642Y-35678000D01*
X108489785Y-35592285D01*
X108404071Y-35549428D01*
X108361214Y-35549428D01*
X108275500Y-35592285D01*
X108232642Y-35678000D01*
X108232642Y-35806571D01*
X108189785Y-35892285D01*
X108104071Y-35935142D01*
X108061214Y-35935142D01*
X107975500Y-35892285D01*
X107932642Y-35806571D01*
X107932642Y-35678000D01*
X107975500Y-35592285D01*
X109981642Y-39878000D02*
X109938785Y-39963714D01*
X109895928Y-40006571D01*
X109810214Y-40049428D01*
X109553071Y-40049428D01*
X109467357Y-40006571D01*
X109424500Y-39963714D01*
X109381642Y-39878000D01*
X109381642Y-39749428D01*
X109424500Y-39663714D01*
X109467357Y-39620857D01*
X109553071Y-39578000D01*
X109810214Y-39578000D01*
X109895928Y-39620857D01*
X109938785Y-39663714D01*
X109981642Y-39749428D01*
X109981642Y-39878000D01*
X109381642Y-39192285D02*
X109981642Y-39192285D01*
X109467357Y-39192285D02*
X109424500Y-39149428D01*
X109381642Y-39063714D01*
X109381642Y-38935142D01*
X109424500Y-38849428D01*
X109510214Y-38806571D01*
X109981642Y-38806571D01*
X109081642Y-37820857D02*
X109081642Y-37306571D01*
X109981642Y-37563714D02*
X109081642Y-37563714D01*
X109081642Y-36835142D02*
X109081642Y-36663714D01*
X109124500Y-36578000D01*
X109210214Y-36492285D01*
X109381642Y-36449428D01*
X109681642Y-36449428D01*
X109853071Y-36492285D01*
X109938785Y-36578000D01*
X109981642Y-36663714D01*
X109981642Y-36835142D01*
X109938785Y-36920857D01*
X109853071Y-37006571D01*
X109681642Y-37049428D01*
X109381642Y-37049428D01*
X109210214Y-37006571D01*
X109124500Y-36920857D01*
X109081642Y-36835142D01*
X109981642Y-36063714D02*
X109081642Y-36063714D01*
X109081642Y-35720857D01*
X109124500Y-35635142D01*
X109167357Y-35592285D01*
X109253071Y-35549428D01*
X109381642Y-35549428D01*
X109467357Y-35592285D01*
X109510214Y-35635142D01*
X109553071Y-35720857D01*
X109553071Y-36063714D01*
D13*
X117223809Y-39561904D02*
X117223809Y-38761904D01*
X117528571Y-38761904D01*
X117604761Y-38800000D01*
X117642857Y-38838095D01*
X117680952Y-38914285D01*
X117680952Y-39028571D01*
X117642857Y-39104761D01*
X117604761Y-39142857D01*
X117528571Y-39180952D01*
X117223809Y-39180952D01*
X118480952Y-39485714D02*
X118442857Y-39523809D01*
X118328571Y-39561904D01*
X118252380Y-39561904D01*
X118138095Y-39523809D01*
X118061904Y-39447619D01*
X118023809Y-39371428D01*
X117985714Y-39219047D01*
X117985714Y-39104761D01*
X118023809Y-38952380D01*
X118061904Y-38876190D01*
X118138095Y-38800000D01*
X118252380Y-38761904D01*
X118328571Y-38761904D01*
X118442857Y-38800000D01*
X118480952Y-38838095D01*
X119090476Y-39142857D02*
X118823809Y-39142857D01*
X118823809Y-39561904D02*
X118823809Y-38761904D01*
X119204761Y-38761904D01*
X119623809Y-39104761D02*
X119547619Y-39066666D01*
X119509523Y-39028571D01*
X119471428Y-38952380D01*
X119471428Y-38914285D01*
X119509523Y-38838095D01*
X119547619Y-38800000D01*
X119623809Y-38761904D01*
X119776190Y-38761904D01*
X119852380Y-38800000D01*
X119890476Y-38838095D01*
X119928571Y-38914285D01*
X119928571Y-38952380D01*
X119890476Y-39028571D01*
X119852380Y-39066666D01*
X119776190Y-39104761D01*
X119623809Y-39104761D01*
X119547619Y-39142857D01*
X119509523Y-39180952D01*
X119471428Y-39257142D01*
X119471428Y-39409523D01*
X119509523Y-39485714D01*
X119547619Y-39523809D01*
X119623809Y-39561904D01*
X119776190Y-39561904D01*
X119852380Y-39523809D01*
X119890476Y-39485714D01*
X119928571Y-39409523D01*
X119928571Y-39257142D01*
X119890476Y-39180952D01*
X119852380Y-39142857D01*
X119776190Y-39104761D01*
X120652380Y-38761904D02*
X120271428Y-38761904D01*
X120233333Y-39142857D01*
X120271428Y-39104761D01*
X120347619Y-39066666D01*
X120538095Y-39066666D01*
X120614285Y-39104761D01*
X120652380Y-39142857D01*
X120690476Y-39219047D01*
X120690476Y-39409523D01*
X120652380Y-39485714D01*
X120614285Y-39523809D01*
X120538095Y-39561904D01*
X120347619Y-39561904D01*
X120271428Y-39523809D01*
X120233333Y-39485714D01*
X121376190Y-38761904D02*
X121223809Y-38761904D01*
X121147619Y-38800000D01*
X121109523Y-38838095D01*
X121033333Y-38952380D01*
X120995238Y-39104761D01*
X120995238Y-39409523D01*
X121033333Y-39485714D01*
X121071428Y-39523809D01*
X121147619Y-39561904D01*
X121300000Y-39561904D01*
X121376190Y-39523809D01*
X121414285Y-39485714D01*
X121452380Y-39409523D01*
X121452380Y-39219047D01*
X121414285Y-39142857D01*
X121376190Y-39104761D01*
X121300000Y-39066666D01*
X121147619Y-39066666D01*
X121071428Y-39104761D01*
X121033333Y-39142857D01*
X120995238Y-39219047D01*
X121719047Y-38761904D02*
X122214285Y-38761904D01*
X121947619Y-39066666D01*
X122061904Y-39066666D01*
X122138095Y-39104761D01*
X122176190Y-39142857D01*
X122214285Y-39219047D01*
X122214285Y-39409523D01*
X122176190Y-39485714D01*
X122138095Y-39523809D01*
X122061904Y-39561904D01*
X121833333Y-39561904D01*
X121757142Y-39523809D01*
X121719047Y-39485714D01*
D10*
X73511785Y-38900000D02*
X73397500Y-38842857D01*
X73226071Y-38842857D01*
X73054642Y-38900000D01*
X72940357Y-39014285D01*
X72883214Y-39128571D01*
X72826071Y-39357142D01*
X72826071Y-39528571D01*
X72883214Y-39757142D01*
X72940357Y-39871428D01*
X73054642Y-39985714D01*
X73226071Y-40042857D01*
X73340357Y-40042857D01*
X73511785Y-39985714D01*
X73568928Y-39928571D01*
X73568928Y-39528571D01*
X73340357Y-39528571D01*
X74311785Y-38842857D02*
X74540357Y-38842857D01*
X74654642Y-38900000D01*
X74768928Y-39014285D01*
X74826071Y-39242857D01*
X74826071Y-39642857D01*
X74768928Y-39871428D01*
X74654642Y-39985714D01*
X74540357Y-40042857D01*
X74311785Y-40042857D01*
X74197500Y-39985714D01*
X74083214Y-39871428D01*
X74026071Y-39642857D01*
X74026071Y-39242857D01*
X74083214Y-39014285D01*
X74197500Y-38900000D01*
X74311785Y-38842857D01*
X75568928Y-38842857D02*
X75797500Y-38842857D01*
X75911785Y-38900000D01*
X76026071Y-39014285D01*
X76083214Y-39242857D01*
X76083214Y-39642857D01*
X76026071Y-39871428D01*
X75911785Y-39985714D01*
X75797500Y-40042857D01*
X75568928Y-40042857D01*
X75454642Y-39985714D01*
X75340357Y-39871428D01*
X75283214Y-39642857D01*
X75283214Y-39242857D01*
X75340357Y-39014285D01*
X75454642Y-38900000D01*
X75568928Y-38842857D01*
X76597500Y-40042857D02*
X76597500Y-38842857D01*
X76883214Y-38842857D01*
X77054642Y-38900000D01*
X77168928Y-39014285D01*
X77226071Y-39128571D01*
X77283214Y-39357142D01*
X77283214Y-39528571D01*
X77226071Y-39757142D01*
X77168928Y-39871428D01*
X77054642Y-39985714D01*
X76883214Y-40042857D01*
X76597500Y-40042857D01*
X77797500Y-40042857D02*
X77797500Y-38842857D01*
X78311785Y-39985714D02*
X78483214Y-40042857D01*
X78768928Y-40042857D01*
X78883214Y-39985714D01*
X78940357Y-39928571D01*
X78997500Y-39814285D01*
X78997500Y-39700000D01*
X78940357Y-39585714D01*
X78883214Y-39528571D01*
X78768928Y-39471428D01*
X78540357Y-39414285D01*
X78426071Y-39357142D01*
X78368928Y-39300000D01*
X78311785Y-39185714D01*
X78311785Y-39071428D01*
X78368928Y-38957142D01*
X78426071Y-38900000D01*
X78540357Y-38842857D01*
X78826071Y-38842857D01*
X78997500Y-38900000D01*
X79511785Y-40042857D02*
X79511785Y-38842857D01*
X79968928Y-38842857D01*
X80083214Y-38900000D01*
X80140357Y-38957142D01*
X80197500Y-39071428D01*
X80197500Y-39242857D01*
X80140357Y-39357142D01*
X80083214Y-39414285D01*
X79968928Y-39471428D01*
X79511785Y-39471428D01*
X81283214Y-40042857D02*
X80711785Y-40042857D01*
X80711785Y-38842857D01*
X81626071Y-39700000D02*
X82197500Y-39700000D01*
X81511785Y-40042857D02*
X81911785Y-38842857D01*
X82311785Y-40042857D01*
X82940357Y-39471428D02*
X82940357Y-40042857D01*
X82540357Y-38842857D02*
X82940357Y-39471428D01*
X83340357Y-38842857D01*
D13*
X124300000Y-44016666D02*
X124066666Y-43683333D01*
X123900000Y-44016666D02*
X123900000Y-43316666D01*
X124166666Y-43316666D01*
X124233333Y-43350000D01*
X124266666Y-43383333D01*
X124300000Y-43450000D01*
X124300000Y-43550000D01*
X124266666Y-43616666D01*
X124233333Y-43650000D01*
X124166666Y-43683333D01*
X123900000Y-43683333D01*
X124500000Y-43316666D02*
X124900000Y-43316666D01*
X124700000Y-44016666D02*
X124700000Y-43316666D01*
X125533333Y-43950000D02*
X125500000Y-43983333D01*
X125400000Y-44016666D01*
X125333333Y-44016666D01*
X125233333Y-43983333D01*
X125166666Y-43916666D01*
X125133333Y-43850000D01*
X125100000Y-43716666D01*
X125100000Y-43616666D01*
X125133333Y-43483333D01*
X125166666Y-43416666D01*
X125233333Y-43350000D01*
X125333333Y-43316666D01*
X125400000Y-43316666D01*
X125500000Y-43350000D01*
X125533333Y-43383333D01*
D11*
X74510714Y-37261904D02*
X74777380Y-38061904D01*
X75044047Y-37261904D01*
X75577380Y-37642857D02*
X75691666Y-37680952D01*
X75729761Y-37719047D01*
X75767857Y-37795238D01*
X75767857Y-37909523D01*
X75729761Y-37985714D01*
X75691666Y-38023809D01*
X75615476Y-38061904D01*
X75310714Y-38061904D01*
X75310714Y-37261904D01*
X75577380Y-37261904D01*
X75653571Y-37300000D01*
X75691666Y-37338095D01*
X75729761Y-37414285D01*
X75729761Y-37490476D01*
X75691666Y-37566666D01*
X75653571Y-37604761D01*
X75577380Y-37642857D01*
X75310714Y-37642857D01*
X76072619Y-37833333D02*
X76453571Y-37833333D01*
X75996428Y-38061904D02*
X76263095Y-37261904D01*
X76529761Y-38061904D01*
X76682142Y-37261904D02*
X77139285Y-37261904D01*
X76910714Y-38061904D02*
X76910714Y-37261904D01*
X87850000Y-35703166D02*
X87616666Y-35369833D01*
X87450000Y-35703166D02*
X87450000Y-35003166D01*
X87716666Y-35003166D01*
X87783333Y-35036500D01*
X87816666Y-35069833D01*
X87850000Y-35136500D01*
X87850000Y-35236500D01*
X87816666Y-35303166D01*
X87783333Y-35336500D01*
X87716666Y-35369833D01*
X87450000Y-35369833D01*
X88050000Y-35003166D02*
X88450000Y-35003166D01*
X88250000Y-35703166D02*
X88250000Y-35003166D01*
X89083333Y-35636500D02*
X89050000Y-35669833D01*
X88950000Y-35703166D01*
X88883333Y-35703166D01*
X88783333Y-35669833D01*
X88716666Y-35603166D01*
X88683333Y-35536500D01*
X88650000Y-35403166D01*
X88650000Y-35303166D01*
X88683333Y-35169833D01*
X88716666Y-35103166D01*
X88783333Y-35036500D01*
X88883333Y-35003166D01*
X88950000Y-35003166D01*
X89050000Y-35036500D01*
X89083333Y-35069833D01*
X87616666Y-36830166D02*
X87616666Y-36130166D01*
X87950000Y-36830166D02*
X87950000Y-36130166D01*
X88350000Y-36830166D01*
X88350000Y-36130166D01*
X88583333Y-36130166D02*
X88983333Y-36130166D01*
X88783333Y-36830166D02*
X88783333Y-36130166D01*
D13*
X98733333Y-46450000D02*
X98700000Y-46483333D01*
X98600000Y-46516666D01*
X98533333Y-46516666D01*
X98433333Y-46483333D01*
X98366666Y-46416666D01*
X98333333Y-46350000D01*
X98300000Y-46216666D01*
X98300000Y-46116666D01*
X98333333Y-45983333D01*
X98366666Y-45916666D01*
X98433333Y-45850000D01*
X98533333Y-45816666D01*
X98600000Y-45816666D01*
X98700000Y-45850000D01*
X98733333Y-45883333D01*
X99366666Y-45816666D02*
X99033333Y-45816666D01*
X99000000Y-46150000D01*
X99033333Y-46116666D01*
X99100000Y-46083333D01*
X99266666Y-46083333D01*
X99333333Y-46116666D01*
X99366666Y-46150000D01*
X99400000Y-46216666D01*
X99400000Y-46383333D01*
X99366666Y-46450000D01*
X99333333Y-46483333D01*
X99266666Y-46516666D01*
X99100000Y-46516666D01*
X99033333Y-46483333D01*
X99000000Y-46450000D01*
X113533333Y-41700000D02*
X113500000Y-41733333D01*
X113400000Y-41766666D01*
X113333333Y-41766666D01*
X113233333Y-41733333D01*
X113166666Y-41666666D01*
X113133333Y-41600000D01*
X113100000Y-41466666D01*
X113100000Y-41366666D01*
X113133333Y-41233333D01*
X113166666Y-41166666D01*
X113233333Y-41100000D01*
X113333333Y-41066666D01*
X113400000Y-41066666D01*
X113500000Y-41100000D01*
X113533333Y-41133333D01*
X113933333Y-41366666D02*
X113866666Y-41333333D01*
X113833333Y-41300000D01*
X113800000Y-41233333D01*
X113800000Y-41200000D01*
X113833333Y-41133333D01*
X113866666Y-41100000D01*
X113933333Y-41066666D01*
X114066666Y-41066666D01*
X114133333Y-41100000D01*
X114166666Y-41133333D01*
X114200000Y-41200000D01*
X114200000Y-41233333D01*
X114166666Y-41300000D01*
X114133333Y-41333333D01*
X114066666Y-41366666D01*
X113933333Y-41366666D01*
X113866666Y-41400000D01*
X113833333Y-41433333D01*
X113800000Y-41500000D01*
X113800000Y-41633333D01*
X113833333Y-41700000D01*
X113866666Y-41733333D01*
X113933333Y-41766666D01*
X114066666Y-41766666D01*
X114133333Y-41733333D01*
X114166666Y-41700000D01*
X114200000Y-41633333D01*
X114200000Y-41500000D01*
X114166666Y-41433333D01*
X114133333Y-41400000D01*
X114066666Y-41366666D01*
X87783333Y-43650000D02*
X87750000Y-43683333D01*
X87650000Y-43716666D01*
X87583333Y-43716666D01*
X87483333Y-43683333D01*
X87416666Y-43616666D01*
X87383333Y-43550000D01*
X87350000Y-43416666D01*
X87350000Y-43316666D01*
X87383333Y-43183333D01*
X87416666Y-43116666D01*
X87483333Y-43050000D01*
X87583333Y-43016666D01*
X87650000Y-43016666D01*
X87750000Y-43050000D01*
X87783333Y-43083333D01*
X88450000Y-43716666D02*
X88050000Y-43716666D01*
X88250000Y-43716666D02*
X88250000Y-43016666D01*
X88183333Y-43116666D01*
X88116666Y-43183333D01*
X88050000Y-43216666D01*
X116433333Y-35711666D02*
X116433333Y-35011666D01*
X116600000Y-35011666D01*
X116700000Y-35045000D01*
X116766666Y-35111666D01*
X116800000Y-35178333D01*
X116833333Y-35311666D01*
X116833333Y-35411666D01*
X116800000Y-35545000D01*
X116766666Y-35611666D01*
X116700000Y-35678333D01*
X116600000Y-35711666D01*
X116433333Y-35711666D01*
X117433333Y-35245000D02*
X117433333Y-35711666D01*
X117266666Y-34978333D02*
X117100000Y-35478333D01*
X117533333Y-35478333D01*
X91123809Y-45288095D02*
X91047619Y-45250000D01*
X90971428Y-45173809D01*
X90857142Y-45059523D01*
X90780952Y-45021428D01*
X90704761Y-45021428D01*
X90742857Y-45211904D02*
X90666666Y-45173809D01*
X90590476Y-45097619D01*
X90552380Y-44945238D01*
X90552380Y-44678571D01*
X90590476Y-44526190D01*
X90666666Y-44450000D01*
X90742857Y-44411904D01*
X90895238Y-44411904D01*
X90971428Y-44450000D01*
X91047619Y-44526190D01*
X91085714Y-44678571D01*
X91085714Y-44945238D01*
X91047619Y-45097619D01*
X90971428Y-45173809D01*
X90895238Y-45211904D01*
X90742857Y-45211904D01*
X91847619Y-45211904D02*
X91390476Y-45211904D01*
X91619047Y-45211904D02*
X91619047Y-44411904D01*
X91542857Y-44526190D01*
X91466666Y-44602380D01*
X91390476Y-44640476D01*
X113033333Y-49666666D02*
X112800000Y-49333333D01*
X112633333Y-49666666D02*
X112633333Y-48966666D01*
X112900000Y-48966666D01*
X112966666Y-49000000D01*
X113000000Y-49033333D01*
X113033333Y-49100000D01*
X113033333Y-49200000D01*
X113000000Y-49266666D01*
X112966666Y-49300000D01*
X112900000Y-49333333D01*
X112633333Y-49333333D01*
X113266666Y-48966666D02*
X113700000Y-48966666D01*
X113466666Y-49233333D01*
X113566666Y-49233333D01*
X113633333Y-49266666D01*
X113666666Y-49300000D01*
X113700000Y-49366666D01*
X113700000Y-49533333D01*
X113666666Y-49600000D01*
X113633333Y-49633333D01*
X113566666Y-49666666D01*
X113366666Y-49666666D01*
X113300000Y-49633333D01*
X113266666Y-49600000D01*
X107233333Y-43650000D02*
X107200000Y-43683333D01*
X107100000Y-43716666D01*
X107033333Y-43716666D01*
X106933333Y-43683333D01*
X106866666Y-43616666D01*
X106833333Y-43550000D01*
X106800000Y-43416666D01*
X106800000Y-43316666D01*
X106833333Y-43183333D01*
X106866666Y-43116666D01*
X106933333Y-43050000D01*
X107033333Y-43016666D01*
X107100000Y-43016666D01*
X107200000Y-43050000D01*
X107233333Y-43083333D01*
X107466666Y-43016666D02*
X107933333Y-43016666D01*
X107633333Y-43716666D01*
X119116666Y-49483333D02*
X119116666Y-49816666D01*
X118883333Y-49116666D02*
X119116666Y-49483333D01*
X119350000Y-49116666D01*
X119950000Y-49816666D02*
X119550000Y-49816666D01*
X119750000Y-49816666D02*
X119750000Y-49116666D01*
X119683333Y-49216666D01*
X119616666Y-49283333D01*
X119550000Y-49316666D01*
D10*
X119500000Y-50402380D02*
X119500000Y-50640476D01*
X119261904Y-50545238D02*
X119500000Y-50640476D01*
X119738095Y-50545238D01*
X119357142Y-50830952D02*
X119500000Y-50640476D01*
X119642857Y-50830952D01*
D11*
X96700000Y-44825000D02*
X96666666Y-44858333D01*
X96566666Y-44891666D01*
X96500000Y-44891666D01*
X96400000Y-44858333D01*
X96333333Y-44791666D01*
X96300000Y-44725000D01*
X96266666Y-44591666D01*
X96266666Y-44491666D01*
X96300000Y-44358333D01*
X96333333Y-44291666D01*
X96400000Y-44225000D01*
X96500000Y-44191666D01*
X96566666Y-44191666D01*
X96666666Y-44225000D01*
X96700000Y-44258333D01*
X97366666Y-44891666D02*
X96966666Y-44891666D01*
X97166666Y-44891666D02*
X97166666Y-44191666D01*
X97100000Y-44291666D01*
X97033333Y-44358333D01*
X96966666Y-44391666D01*
X97633333Y-44258333D02*
X97666666Y-44225000D01*
X97733333Y-44191666D01*
X97900000Y-44191666D01*
X97966666Y-44225000D01*
X98000000Y-44258333D01*
X98033333Y-44325000D01*
X98033333Y-44391666D01*
X98000000Y-44491666D01*
X97600000Y-44891666D01*
X98033333Y-44891666D01*
D13*
X112133333Y-51511904D02*
X112133333Y-52083333D01*
X112095238Y-52197619D01*
X112019047Y-52273809D01*
X111904761Y-52311904D01*
X111828571Y-52311904D01*
X112514285Y-52311904D02*
X112514285Y-51511904D01*
X112819047Y-51511904D01*
X112895238Y-51550000D01*
X112933333Y-51588095D01*
X112971428Y-51664285D01*
X112971428Y-51778571D01*
X112933333Y-51854761D01*
X112895238Y-51892857D01*
X112819047Y-51930952D01*
X112514285Y-51930952D01*
X113733333Y-52311904D02*
X113276190Y-52311904D01*
X113504761Y-52311904D02*
X113504761Y-51511904D01*
X113428571Y-51626190D01*
X113352380Y-51702380D01*
X113276190Y-51740476D01*
D10*
X107190000Y-50192380D02*
X107190000Y-50430476D01*
X106951904Y-50335238D02*
X107190000Y-50430476D01*
X107428095Y-50335238D01*
X107047142Y-50620952D02*
X107190000Y-50430476D01*
X107332857Y-50620952D01*
D13*
X123233333Y-35711666D02*
X123000000Y-35378333D01*
X122833333Y-35711666D02*
X122833333Y-35011666D01*
X123100000Y-35011666D01*
X123166666Y-35045000D01*
X123200000Y-35078333D01*
X123233333Y-35145000D01*
X123233333Y-35245000D01*
X123200000Y-35311666D01*
X123166666Y-35345000D01*
X123100000Y-35378333D01*
X122833333Y-35378333D01*
X123466666Y-35011666D02*
X123933333Y-35011666D01*
X123633333Y-35711666D01*
X85183333Y-43666666D02*
X85183333Y-42966666D01*
X85350000Y-42966666D01*
X85450000Y-43000000D01*
X85516666Y-43066666D01*
X85550000Y-43133333D01*
X85583333Y-43266666D01*
X85583333Y-43366666D01*
X85550000Y-43500000D01*
X85516666Y-43566666D01*
X85450000Y-43633333D01*
X85350000Y-43666666D01*
X85183333Y-43666666D01*
X86250000Y-43666666D02*
X85850000Y-43666666D01*
X86050000Y-43666666D02*
X86050000Y-42966666D01*
X85983333Y-43066666D01*
X85916666Y-43133333D01*
X85850000Y-43166666D01*
X115833333Y-43666666D02*
X115600000Y-43333333D01*
X115433333Y-43666666D02*
X115433333Y-42966666D01*
X115700000Y-42966666D01*
X115766666Y-43000000D01*
X115800000Y-43033333D01*
X115833333Y-43100000D01*
X115833333Y-43200000D01*
X115800000Y-43266666D01*
X115766666Y-43300000D01*
X115700000Y-43333333D01*
X115433333Y-43333333D01*
X116466666Y-42966666D02*
X116133333Y-42966666D01*
X116100000Y-43300000D01*
X116133333Y-43266666D01*
X116200000Y-43233333D01*
X116366666Y-43233333D01*
X116433333Y-43266666D01*
X116466666Y-43300000D01*
X116500000Y-43366666D01*
X116500000Y-43533333D01*
X116466666Y-43600000D01*
X116433333Y-43633333D01*
X116366666Y-43666666D01*
X116200000Y-43666666D01*
X116133333Y-43633333D01*
X116100000Y-43600000D01*
X105133333Y-43650000D02*
X105100000Y-43683333D01*
X105000000Y-43716666D01*
X104933333Y-43716666D01*
X104833333Y-43683333D01*
X104766666Y-43616666D01*
X104733333Y-43550000D01*
X104700000Y-43416666D01*
X104700000Y-43316666D01*
X104733333Y-43183333D01*
X104766666Y-43116666D01*
X104833333Y-43050000D01*
X104933333Y-43016666D01*
X105000000Y-43016666D01*
X105100000Y-43050000D01*
X105133333Y-43083333D01*
X105466666Y-43716666D02*
X105600000Y-43716666D01*
X105666666Y-43683333D01*
X105700000Y-43650000D01*
X105766666Y-43550000D01*
X105800000Y-43416666D01*
X105800000Y-43150000D01*
X105766666Y-43083333D01*
X105733333Y-43050000D01*
X105666666Y-43016666D01*
X105533333Y-43016666D01*
X105466666Y-43050000D01*
X105433333Y-43083333D01*
X105400000Y-43150000D01*
X105400000Y-43316666D01*
X105433333Y-43383333D01*
X105466666Y-43416666D01*
X105533333Y-43450000D01*
X105666666Y-43450000D01*
X105733333Y-43416666D01*
X105766666Y-43383333D01*
X105800000Y-43316666D01*
X93883333Y-44712500D02*
X93850000Y-44745833D01*
X93750000Y-44779166D01*
X93683333Y-44779166D01*
X93583333Y-44745833D01*
X93516666Y-44679166D01*
X93483333Y-44612500D01*
X93450000Y-44479166D01*
X93450000Y-44379166D01*
X93483333Y-44245833D01*
X93516666Y-44179166D01*
X93583333Y-44112500D01*
X93683333Y-44079166D01*
X93750000Y-44079166D01*
X93850000Y-44112500D01*
X93883333Y-44145833D01*
X94150000Y-44145833D02*
X94183333Y-44112500D01*
X94250000Y-44079166D01*
X94416666Y-44079166D01*
X94483333Y-44112500D01*
X94516666Y-44145833D01*
X94550000Y-44212500D01*
X94550000Y-44279166D01*
X94516666Y-44379166D01*
X94116666Y-44779166D01*
X94550000Y-44779166D01*
X85183333Y-41216666D02*
X85183333Y-40516666D01*
X85350000Y-40516666D01*
X85450000Y-40550000D01*
X85516666Y-40616666D01*
X85550000Y-40683333D01*
X85583333Y-40816666D01*
X85583333Y-40916666D01*
X85550000Y-41050000D01*
X85516666Y-41116666D01*
X85450000Y-41183333D01*
X85350000Y-41216666D01*
X85183333Y-41216666D01*
X85816666Y-40516666D02*
X86250000Y-40516666D01*
X86016666Y-40783333D01*
X86116666Y-40783333D01*
X86183333Y-40816666D01*
X86216666Y-40850000D01*
X86250000Y-40916666D01*
X86250000Y-41083333D01*
X86216666Y-41150000D01*
X86183333Y-41183333D01*
X86116666Y-41216666D01*
X85916666Y-41216666D01*
X85850000Y-41183333D01*
X85816666Y-41150000D01*
X119733333Y-35711666D02*
X119733333Y-35011666D01*
X119900000Y-35011666D01*
X120000000Y-35045000D01*
X120066666Y-35111666D01*
X120100000Y-35178333D01*
X120133333Y-35311666D01*
X120133333Y-35411666D01*
X120100000Y-35545000D01*
X120066666Y-35611666D01*
X120000000Y-35678333D01*
X119900000Y-35711666D01*
X119733333Y-35711666D01*
X120766666Y-35011666D02*
X120433333Y-35011666D01*
X120400000Y-35345000D01*
X120433333Y-35311666D01*
X120500000Y-35278333D01*
X120666666Y-35278333D01*
X120733333Y-35311666D01*
X120766666Y-35345000D01*
X120800000Y-35411666D01*
X120800000Y-35578333D01*
X120766666Y-35645000D01*
X120733333Y-35678333D01*
X120666666Y-35711666D01*
X120500000Y-35711666D01*
X120433333Y-35678333D01*
X120400000Y-35645000D01*
X113533333Y-43700000D02*
X113500000Y-43733333D01*
X113400000Y-43766666D01*
X113333333Y-43766666D01*
X113233333Y-43733333D01*
X113166666Y-43666666D01*
X113133333Y-43600000D01*
X113100000Y-43466666D01*
X113100000Y-43366666D01*
X113133333Y-43233333D01*
X113166666Y-43166666D01*
X113233333Y-43100000D01*
X113333333Y-43066666D01*
X113400000Y-43066666D01*
X113500000Y-43100000D01*
X113533333Y-43133333D01*
X114133333Y-43300000D02*
X114133333Y-43766666D01*
X113966666Y-43033333D02*
X113800000Y-43533333D01*
X114233333Y-43533333D01*
X78933333Y-48266666D02*
X78600000Y-48266666D01*
X78600000Y-47566666D01*
X79533333Y-48266666D02*
X79133333Y-48266666D01*
X79333333Y-48266666D02*
X79333333Y-47566666D01*
X79266666Y-47666666D01*
X79200000Y-47733333D01*
X79133333Y-47766666D01*
X87883333Y-46616666D02*
X87650000Y-46283333D01*
X87483333Y-46616666D02*
X87483333Y-45916666D01*
X87750000Y-45916666D01*
X87816666Y-45950000D01*
X87850000Y-45983333D01*
X87883333Y-46050000D01*
X87883333Y-46150000D01*
X87850000Y-46216666D01*
X87816666Y-46250000D01*
X87750000Y-46283333D01*
X87483333Y-46283333D01*
X88550000Y-46616666D02*
X88150000Y-46616666D01*
X88350000Y-46616666D02*
X88350000Y-45916666D01*
X88283333Y-46016666D01*
X88216666Y-46083333D01*
X88150000Y-46116666D01*
X110133333Y-45450000D02*
X110100000Y-45483333D01*
X110000000Y-45516666D01*
X109933333Y-45516666D01*
X109833333Y-45483333D01*
X109766666Y-45416666D01*
X109733333Y-45350000D01*
X109700000Y-45216666D01*
X109700000Y-45116666D01*
X109733333Y-44983333D01*
X109766666Y-44916666D01*
X109833333Y-44850000D01*
X109933333Y-44816666D01*
X110000000Y-44816666D01*
X110100000Y-44850000D01*
X110133333Y-44883333D01*
X110733333Y-44816666D02*
X110600000Y-44816666D01*
X110533333Y-44850000D01*
X110500000Y-44883333D01*
X110433333Y-44983333D01*
X110400000Y-45116666D01*
X110400000Y-45383333D01*
X110433333Y-45450000D01*
X110466666Y-45483333D01*
X110533333Y-45516666D01*
X110666666Y-45516666D01*
X110733333Y-45483333D01*
X110766666Y-45450000D01*
X110800000Y-45383333D01*
X110800000Y-45216666D01*
X110766666Y-45150000D01*
X110733333Y-45116666D01*
X110666666Y-45083333D01*
X110533333Y-45083333D01*
X110466666Y-45116666D01*
X110433333Y-45150000D01*
X110400000Y-45216666D01*
X88633333Y-41211904D02*
X88633333Y-41783333D01*
X88595238Y-41897619D01*
X88519047Y-41973809D01*
X88404761Y-42011904D01*
X88328571Y-42011904D01*
X89433333Y-42011904D02*
X88976190Y-42011904D01*
X89204761Y-42011904D02*
X89204761Y-41211904D01*
X89128571Y-41326190D01*
X89052380Y-41402380D01*
X88976190Y-41440476D01*
X123583333Y-39761666D02*
X123350000Y-39428333D01*
X123183333Y-39761666D02*
X123183333Y-39061666D01*
X123450000Y-39061666D01*
X123516666Y-39095000D01*
X123550000Y-39128333D01*
X123583333Y-39195000D01*
X123583333Y-39295000D01*
X123550000Y-39361666D01*
X123516666Y-39395000D01*
X123450000Y-39428333D01*
X123183333Y-39428333D01*
X124183333Y-39061666D02*
X124050000Y-39061666D01*
X123983333Y-39095000D01*
X123950000Y-39128333D01*
X123883333Y-39228333D01*
X123850000Y-39361666D01*
X123850000Y-39628333D01*
X123883333Y-39695000D01*
X123916666Y-39728333D01*
X123983333Y-39761666D01*
X124116666Y-39761666D01*
X124183333Y-39728333D01*
X124216666Y-39695000D01*
X124250000Y-39628333D01*
X124250000Y-39461666D01*
X124216666Y-39395000D01*
X124183333Y-39361666D01*
X124116666Y-39328333D01*
X123983333Y-39328333D01*
X123916666Y-39361666D01*
X123883333Y-39395000D01*
X123850000Y-39461666D01*
X102650000Y-44200000D02*
X102616666Y-44233333D01*
X102516666Y-44266666D01*
X102450000Y-44266666D01*
X102350000Y-44233333D01*
X102283333Y-44166666D01*
X102250000Y-44100000D01*
X102216666Y-43966666D01*
X102216666Y-43866666D01*
X102250000Y-43733333D01*
X102283333Y-43666666D01*
X102350000Y-43600000D01*
X102450000Y-43566666D01*
X102516666Y-43566666D01*
X102616666Y-43600000D01*
X102650000Y-43633333D01*
X103316666Y-44266666D02*
X102916666Y-44266666D01*
X103116666Y-44266666D02*
X103116666Y-43566666D01*
X103050000Y-43666666D01*
X102983333Y-43733333D01*
X102916666Y-43766666D01*
X103750000Y-43566666D02*
X103816666Y-43566666D01*
X103883333Y-43600000D01*
X103916666Y-43633333D01*
X103950000Y-43700000D01*
X103983333Y-43833333D01*
X103983333Y-44000000D01*
X103950000Y-44133333D01*
X103916666Y-44200000D01*
X103883333Y-44233333D01*
X103816666Y-44266666D01*
X103750000Y-44266666D01*
X103683333Y-44233333D01*
X103650000Y-44200000D01*
X103616666Y-44133333D01*
X103583333Y-44000000D01*
X103583333Y-43833333D01*
X103616666Y-43700000D01*
X103650000Y-43633333D01*
X103683333Y-43600000D01*
X103750000Y-43566666D01*
X115850000Y-48700000D02*
X115816666Y-48733333D01*
X115716666Y-48766666D01*
X115650000Y-48766666D01*
X115550000Y-48733333D01*
X115483333Y-48666666D01*
X115450000Y-48600000D01*
X115416666Y-48466666D01*
X115416666Y-48366666D01*
X115450000Y-48233333D01*
X115483333Y-48166666D01*
X115550000Y-48100000D01*
X115650000Y-48066666D01*
X115716666Y-48066666D01*
X115816666Y-48100000D01*
X115850000Y-48133333D01*
X116516666Y-48766666D02*
X116116666Y-48766666D01*
X116316666Y-48766666D02*
X116316666Y-48066666D01*
X116250000Y-48166666D01*
X116183333Y-48233333D01*
X116116666Y-48266666D01*
X116750000Y-48066666D02*
X117183333Y-48066666D01*
X116950000Y-48333333D01*
X117050000Y-48333333D01*
X117116666Y-48366666D01*
X117150000Y-48400000D01*
X117183333Y-48466666D01*
X117183333Y-48633333D01*
X117150000Y-48700000D01*
X117116666Y-48733333D01*
X117050000Y-48766666D01*
X116850000Y-48766666D01*
X116783333Y-48733333D01*
X116750000Y-48700000D01*
X85183333Y-46066666D02*
X85183333Y-45366666D01*
X85350000Y-45366666D01*
X85450000Y-45400000D01*
X85516666Y-45466666D01*
X85550000Y-45533333D01*
X85583333Y-45666666D01*
X85583333Y-45766666D01*
X85550000Y-45900000D01*
X85516666Y-45966666D01*
X85450000Y-46033333D01*
X85350000Y-46066666D01*
X85183333Y-46066666D01*
X85850000Y-45433333D02*
X85883333Y-45400000D01*
X85950000Y-45366666D01*
X86116666Y-45366666D01*
X86183333Y-45400000D01*
X86216666Y-45433333D01*
X86250000Y-45500000D01*
X86250000Y-45566666D01*
X86216666Y-45666666D01*
X85816666Y-46066666D01*
X86250000Y-46066666D01*
X122300000Y-48700000D02*
X122266666Y-48733333D01*
X122166666Y-48766666D01*
X122100000Y-48766666D01*
X122000000Y-48733333D01*
X121933333Y-48666666D01*
X121900000Y-48600000D01*
X121866666Y-48466666D01*
X121866666Y-48366666D01*
X121900000Y-48233333D01*
X121933333Y-48166666D01*
X122000000Y-48100000D01*
X122100000Y-48066666D01*
X122166666Y-48066666D01*
X122266666Y-48100000D01*
X122300000Y-48133333D01*
X122966666Y-48766666D02*
X122566666Y-48766666D01*
X122766666Y-48766666D02*
X122766666Y-48066666D01*
X122700000Y-48166666D01*
X122633333Y-48233333D01*
X122566666Y-48266666D01*
X123566666Y-48300000D02*
X123566666Y-48766666D01*
X123400000Y-48033333D02*
X123233333Y-48533333D01*
X123666666Y-48533333D01*
X73150000Y-44100000D02*
X73116666Y-44133333D01*
X73016666Y-44166666D01*
X72950000Y-44166666D01*
X72850000Y-44133333D01*
X72783333Y-44066666D01*
X72750000Y-44000000D01*
X72716666Y-43866666D01*
X72716666Y-43766666D01*
X72750000Y-43633333D01*
X72783333Y-43566666D01*
X72850000Y-43500000D01*
X72950000Y-43466666D01*
X73016666Y-43466666D01*
X73116666Y-43500000D01*
X73150000Y-43533333D01*
X73816666Y-44166666D02*
X73416666Y-44166666D01*
X73616666Y-44166666D02*
X73616666Y-43466666D01*
X73550000Y-43566666D01*
X73483333Y-43633333D01*
X73416666Y-43666666D01*
X74483333Y-44166666D02*
X74083333Y-44166666D01*
X74283333Y-44166666D02*
X74283333Y-43466666D01*
X74216666Y-43566666D01*
X74150000Y-43633333D01*
X74083333Y-43666666D01*
X114690476Y-38761904D02*
X114690476Y-39409523D01*
X114728571Y-39485714D01*
X114766666Y-39523809D01*
X114842857Y-39561904D01*
X114995238Y-39561904D01*
X115071428Y-39523809D01*
X115109523Y-39485714D01*
X115147619Y-39409523D01*
X115147619Y-38761904D01*
X115490476Y-38838095D02*
X115528571Y-38800000D01*
X115604761Y-38761904D01*
X115795238Y-38761904D01*
X115871428Y-38800000D01*
X115909523Y-38838095D01*
X115947619Y-38914285D01*
X115947619Y-38990476D01*
X115909523Y-39104761D01*
X115452380Y-39561904D01*
X115947619Y-39561904D01*
X100633333Y-45100000D02*
X100600000Y-45133333D01*
X100500000Y-45166666D01*
X100433333Y-45166666D01*
X100333333Y-45133333D01*
X100266666Y-45066666D01*
X100233333Y-45000000D01*
X100200000Y-44866666D01*
X100200000Y-44766666D01*
X100233333Y-44633333D01*
X100266666Y-44566666D01*
X100333333Y-44500000D01*
X100433333Y-44466666D01*
X100500000Y-44466666D01*
X100600000Y-44500000D01*
X100633333Y-44533333D01*
X100866666Y-44466666D02*
X101300000Y-44466666D01*
X101066666Y-44733333D01*
X101166666Y-44733333D01*
X101233333Y-44766666D01*
X101266666Y-44800000D01*
X101300000Y-44866666D01*
X101300000Y-45033333D01*
X101266666Y-45100000D01*
X101233333Y-45133333D01*
X101166666Y-45166666D01*
X100966666Y-45166666D01*
X100900000Y-45133333D01*
X100866666Y-45100000D01*
D11*
X99685000Y-48761252D02*
X99685000Y-48238748D01*
X98215000Y-48761252D02*
X98215000Y-48238748D01*
X111311252Y-40615000D02*
X110788748Y-40615000D01*
X111311252Y-42085000D02*
X110788748Y-42085000D01*
X87985000Y-41211252D02*
X87985000Y-40688748D01*
X86515000Y-41211252D02*
X86515000Y-40688748D01*
X118300000Y-36145000D02*
X115750000Y-36145000D01*
X118300000Y-37845000D02*
X115750000Y-37845000D01*
X118300000Y-37845000D02*
X118300000Y-36145000D01*
X90700000Y-47930000D02*
X90040000Y-47930000D01*
X90040000Y-46520000D02*
X90040000Y-47930000D01*
X92360000Y-47930000D02*
X91700000Y-47930000D01*
X92360000Y-47930000D02*
X92360000Y-45900000D01*
X113012742Y-51122500D02*
X113487258Y-51122500D01*
X113012742Y-50077500D02*
X113487258Y-50077500D01*
X108085000Y-46061252D02*
X108085000Y-45538748D01*
X106615000Y-46061252D02*
X106615000Y-45538748D01*
X119700303Y-50022900D02*
X119299697Y-50022900D01*
X119299697Y-51877100D02*
X119700303Y-51877100D01*
X97710000Y-46740580D02*
X97710000Y-46459420D01*
X96690000Y-46740580D02*
X96690000Y-46459420D01*
X107162060Y-49266800D02*
X105719340Y-49266800D01*
X110619000Y-51067660D02*
X110619000Y-50412340D01*
X104129300Y-52213200D02*
X110250700Y-52213200D01*
X103761000Y-50412340D02*
X103761000Y-51067660D01*
X123822500Y-37662258D02*
X123822500Y-37187742D01*
X122777500Y-37662258D02*
X122777500Y-37187742D01*
X80450000Y-44950000D02*
X84350000Y-44950000D01*
X80450000Y-42950000D02*
X84350000Y-42950000D01*
X80450000Y-42950000D02*
X80450000Y-44950000D01*
X115427500Y-45587258D02*
X115427500Y-45112742D01*
X116472500Y-45587258D02*
X116472500Y-45112742D01*
X104515000Y-46061252D02*
X104515000Y-45538748D01*
X105985000Y-46061252D02*
X105985000Y-45538748D01*
X93315000Y-47261252D02*
X93315000Y-46738748D01*
X94785000Y-47261252D02*
X94785000Y-46738748D01*
X84950000Y-40550000D02*
X81050000Y-40550000D01*
X84950000Y-42550000D02*
X81050000Y-42550000D01*
X84950000Y-42550000D02*
X84950000Y-40550000D01*
X118850000Y-36200000D02*
X118850000Y-37900000D01*
X118850000Y-36200000D02*
X121400000Y-36200000D01*
X118850000Y-37900000D02*
X121400000Y-37900000D01*
X101222500Y-50987258D02*
X101222500Y-50512742D01*
X100177500Y-50987258D02*
X100177500Y-50512742D01*
X111311252Y-42715000D02*
X110788748Y-42715000D01*
X111311252Y-44185000D02*
X110788748Y-44185000D01*
X79772500Y-46224750D02*
X79772500Y-43875250D01*
X75327500Y-43875250D02*
X75327500Y-46224750D01*
X88237258Y-47027500D02*
X87762742Y-47027500D01*
X88237258Y-48072500D02*
X87762742Y-48072500D01*
X112685000Y-46811252D02*
X112685000Y-46288748D01*
X111215000Y-46811252D02*
X111215000Y-46288748D01*
X105524800Y-36713960D02*
X105524800Y-35981800D01*
X89675200Y-42026999D02*
X91457248Y-42026999D01*
X105524800Y-42026999D02*
X105524800Y-39386040D01*
X105524800Y-35981800D02*
X89675200Y-35981800D01*
X89675200Y-35981800D02*
X89675200Y-36713960D01*
X89675200Y-39386040D02*
X89675200Y-42026999D01*
X103742755Y-42026999D02*
X105524800Y-42026999D01*
X124172500Y-41712258D02*
X124172500Y-41237742D01*
X123127500Y-41712258D02*
X123127500Y-41237742D01*
X103885000Y-47061252D02*
X103885000Y-46538748D01*
X102415000Y-47061252D02*
X102415000Y-46538748D01*
X116710000Y-50409420D02*
X116710000Y-50690580D01*
X115690000Y-50409420D02*
X115690000Y-50690580D01*
X84950000Y-47350000D02*
X84950000Y-45350000D01*
X84950000Y-45350000D02*
X81050000Y-45350000D01*
X84950000Y-47350000D02*
X81050000Y-47350000D01*
X122290000Y-50409420D02*
X122290000Y-50690580D01*
X123310000Y-50409420D02*
X123310000Y-50690580D01*
X73065000Y-45876248D02*
X73065000Y-46398752D01*
X74535000Y-45876248D02*
X74535000Y-46398752D01*
X122510000Y-43650000D02*
X122510000Y-41700000D01*
X122510000Y-43650000D02*
X122510000Y-45600000D01*
X117390000Y-43650000D02*
X117390000Y-41700000D01*
X117390000Y-43650000D02*
X117390000Y-47100000D01*
X100265000Y-47561252D02*
X100265000Y-47038748D01*
X101735000Y-47561252D02*
X101735000Y-47038748D01*
%LPC*%
D14*
X98950000Y-49537500D03*
X98950000Y-47462500D03*
D15*
X112087500Y-41350000D03*
X110012500Y-41350000D03*
D14*
X87250000Y-41987500D03*
X87250000Y-39912500D03*
D16*
X117850000Y-36995000D03*
X115750000Y-36995000D03*
D17*
X91850000Y-46200000D03*
X90550000Y-46200000D03*
X91200000Y-48200000D03*
D18*
X112425000Y-50600000D03*
X114075000Y-50600000D03*
D14*
X107350000Y-46837500D03*
X107350000Y-44762500D03*
D19*
X120592200Y-50950000D03*
X118407800Y-50950000D03*
D20*
X97200000Y-47375000D03*
X97200000Y-45825000D03*
D21*
X108688600Y-50740000D03*
X105691400Y-50740000D03*
D22*
X104942100Y-48664820D03*
X107939300Y-48664820D03*
X109437900Y-48664820D03*
D23*
X103390160Y-49609700D03*
X110989840Y-49609700D03*
X103390160Y-51870300D03*
X110989840Y-51870300D03*
D24*
X123300000Y-38250000D03*
X123300000Y-36600000D03*
D25*
X81050000Y-43950000D03*
X84350000Y-43950000D03*
D24*
X115950000Y-46175000D03*
X115950000Y-44525000D03*
D14*
X105250000Y-46837500D03*
X105250000Y-44762500D03*
X94050000Y-48037500D03*
X94050000Y-45962500D03*
D25*
X84350000Y-41550000D03*
X81050000Y-41550000D03*
D16*
X119300000Y-37050000D03*
X121400000Y-37050000D03*
D24*
X100700000Y-51575000D03*
X100700000Y-49925000D03*
D15*
X112087500Y-43450000D03*
X110012500Y-43450000D03*
D26*
X77550000Y-46548600D03*
X77550000Y-43551400D03*
D27*
X88825000Y-47550000D03*
X87175000Y-47550000D03*
D28*
X76254000Y-36080000D03*
D29*
X78794000Y-36080000D03*
D28*
X81334000Y-36080000D03*
X83874000Y-36080000D03*
X86414000Y-36080000D03*
D29*
X99114000Y-51320000D03*
D28*
X96574000Y-51320000D03*
X94034000Y-51320000D03*
X91494000Y-51320000D03*
X88954000Y-51320000D03*
X86414000Y-51320000D03*
X83874000Y-51320000D03*
X81334000Y-51320000D03*
X78794000Y-51320000D03*
X76254000Y-51320000D03*
D14*
X111950000Y-47587500D03*
X111950000Y-45512500D03*
D30*
X103350001Y-41199999D03*
X102850000Y-41199999D03*
X102350001Y-41199999D03*
X101849999Y-41199999D03*
X101350000Y-41199999D03*
X100850001Y-41199999D03*
X100350000Y-41199999D03*
X99850001Y-41199999D03*
X99349999Y-41199999D03*
X98850000Y-41199999D03*
X98350001Y-41199999D03*
X97850000Y-41199999D03*
X97350000Y-41199999D03*
X96849999Y-41199999D03*
X96350000Y-41199999D03*
X95850001Y-41199999D03*
X95349999Y-41199999D03*
X94850000Y-41199999D03*
X94349999Y-41199999D03*
X93850000Y-41199999D03*
X93350001Y-41199999D03*
X92849999Y-41199999D03*
X92350000Y-41199999D03*
X91850001Y-41199999D03*
D31*
X105000000Y-38050000D03*
X90200000Y-38050000D03*
D24*
X123650000Y-42300000D03*
X123650000Y-40650000D03*
D14*
X103150000Y-47837500D03*
X103150000Y-45762500D03*
D32*
X116200000Y-49775000D03*
X116200000Y-51325000D03*
D25*
X84350000Y-46350000D03*
X81050000Y-46350000D03*
D32*
X122800000Y-49775000D03*
X122800000Y-51325000D03*
D33*
X73800000Y-45100000D03*
X73800000Y-47175000D03*
D34*
X118045000Y-46125000D03*
X119315000Y-46125000D03*
X120585000Y-46125000D03*
X121855000Y-46125000D03*
X121855000Y-41175000D03*
X120585000Y-41175000D03*
X119315000Y-41175000D03*
X118045000Y-41175000D03*
D14*
X101000000Y-48337500D03*
X101000000Y-46262500D03*
M02*
