G04 #@! TF.GenerationSoftware,KiCad,Pcbnew,6.0.9-8da3e8f707~117~ubuntu20.04.1*
G04 #@! TF.CreationDate,2022-12-28T17:02:08+01:00*
G04 #@! TF.ProjectId,tinypico-goodisplay,74696e79-7069-4636-9f2d-676f6f646973,rev?*
G04 #@! TF.SameCoordinates,Original*
G04 #@! TF.FileFunction,Copper,L1,Top*
G04 #@! TF.FilePolarity,Positive*
%FSLAX46Y46*%
G04 Gerber Fmt 4.6, Leading zero omitted, Abs format (unit mm)*
G04 Created by KiCad (PCBNEW 6.0.9-8da3e8f707~117~ubuntu20.04.1) date 2022-12-28 17:02:08*
%MOMM*%
%LPD*%
G01*
G04 APERTURE LIST*
G04 Aperture macros list*
%AMRoundRect*
0 Rectangle with rounded corners*
0 $1 Rounding radius*
0 $2 $3 $4 $5 $6 $7 $8 $9 X,Y pos of 4 corners*
0 Add a 4 corners polygon primitive as box body*
4,1,4,$2,$3,$4,$5,$6,$7,$8,$9,$2,$3,0*
0 Add four circle primitives for the rounded corners*
1,1,$1+$1,$2,$3*
1,1,$1+$1,$4,$5*
1,1,$1+$1,$6,$7*
1,1,$1+$1,$8,$9*
0 Add four rect primitives between the rounded corners*
20,1,$1+$1,$2,$3,$4,$5,0*
20,1,$1+$1,$4,$5,$6,$7,0*
20,1,$1+$1,$6,$7,$8,$9,0*
20,1,$1+$1,$8,$9,$2,$3,0*%
G04 Aperture macros list end*
G04 #@! TA.AperFunction,SMDPad,CuDef*
%ADD10RoundRect,0.250000X0.475000X-0.337500X0.475000X0.337500X-0.475000X0.337500X-0.475000X-0.337500X0*%
G04 #@! TD*
G04 #@! TA.AperFunction,SMDPad,CuDef*
%ADD11RoundRect,0.250000X0.337500X0.475000X-0.337500X0.475000X-0.337500X-0.475000X0.337500X-0.475000X0*%
G04 #@! TD*
G04 #@! TA.AperFunction,SMDPad,CuDef*
%ADD12R,0.600000X0.450000*%
G04 #@! TD*
G04 #@! TA.AperFunction,SMDPad,CuDef*
%ADD13R,0.450000X0.700000*%
G04 #@! TD*
G04 #@! TA.AperFunction,SMDPad,CuDef*
%ADD14RoundRect,0.200000X-0.200000X-0.275000X0.200000X-0.275000X0.200000X0.275000X-0.200000X0.275000X0*%
G04 #@! TD*
G04 #@! TA.AperFunction,SMDPad,CuDef*
%ADD15R,1.422400X1.295400*%
G04 #@! TD*
G04 #@! TA.AperFunction,SMDPad,CuDef*
%ADD16RoundRect,0.225000X0.250000X-0.225000X0.250000X0.225000X-0.250000X0.225000X-0.250000X-0.225000X0*%
G04 #@! TD*
G04 #@! TA.AperFunction,SMDPad,CuDef*
%ADD17R,0.889000X1.244600*%
G04 #@! TD*
G04 #@! TA.AperFunction,SMDPad,CuDef*
%ADD18R,0.812800X0.939800*%
G04 #@! TD*
G04 #@! TA.AperFunction,SMDPad,CuDef*
%ADD19RoundRect,0.200000X0.275000X-0.200000X0.275000X0.200000X-0.275000X0.200000X-0.275000X-0.200000X0*%
G04 #@! TD*
G04 #@! TA.AperFunction,SMDPad,CuDef*
%ADD20R,0.900000X1.200000*%
G04 #@! TD*
G04 #@! TA.AperFunction,SMDPad,CuDef*
%ADD21R,3.708400X1.092200*%
G04 #@! TD*
G04 #@! TA.AperFunction,SMDPad,CuDef*
%ADD22RoundRect,0.200000X0.200000X0.275000X-0.200000X0.275000X-0.200000X-0.275000X0.200000X-0.275000X0*%
G04 #@! TD*
G04 #@! TA.AperFunction,ComponentPad*
%ADD23C,1.422400*%
G04 #@! TD*
G04 #@! TA.AperFunction,ComponentPad*
%ADD24R,1.270000X1.270000*%
G04 #@! TD*
G04 #@! TA.AperFunction,SMDPad,CuDef*
%ADD25R,0.304800X1.193800*%
G04 #@! TD*
G04 #@! TA.AperFunction,SMDPad,CuDef*
%ADD26R,1.803400X2.006600*%
G04 #@! TD*
G04 #@! TA.AperFunction,SMDPad,CuDef*
%ADD27RoundRect,0.225000X-0.250000X0.225000X-0.250000X-0.225000X0.250000X-0.225000X0.250000X0.225000X0*%
G04 #@! TD*
G04 #@! TA.AperFunction,SMDPad,CuDef*
%ADD28RoundRect,0.250000X-0.475000X0.337500X-0.475000X-0.337500X0.475000X-0.337500X0.475000X0.337500X0*%
G04 #@! TD*
G04 #@! TA.AperFunction,SMDPad,CuDef*
%ADD29RoundRect,0.150000X0.150000X-0.825000X0.150000X0.825000X-0.150000X0.825000X-0.150000X-0.825000X0*%
G04 #@! TD*
G04 #@! TA.AperFunction,ViaPad*
%ADD30C,0.500000*%
G04 #@! TD*
G04 #@! TA.AperFunction,Conductor*
%ADD31C,0.250000*%
G04 #@! TD*
G04 #@! TA.AperFunction,Conductor*
%ADD32C,0.500000*%
G04 #@! TD*
G04 #@! TA.AperFunction,Conductor*
%ADD33C,0.350000*%
G04 #@! TD*
G04 #@! TA.AperFunction,Conductor*
%ADD34C,0.300000*%
G04 #@! TD*
G04 #@! TA.AperFunction,Conductor*
%ADD35C,0.200000*%
G04 #@! TD*
G04 APERTURE END LIST*
D10*
X98950000Y-49537500D03*
X98950000Y-47462500D03*
D11*
X112087500Y-41350000D03*
X110012500Y-41350000D03*
D10*
X87250000Y-41987500D03*
X87250000Y-39912500D03*
D12*
X117850000Y-36995000D03*
X115750000Y-36995000D03*
D13*
X91800000Y-45350000D03*
X90500000Y-45350000D03*
X91150000Y-47350000D03*
D14*
X112425000Y-50600000D03*
X114075000Y-50600000D03*
D10*
X107350000Y-46837500D03*
X107350000Y-44762500D03*
D15*
X120592200Y-50950000D03*
X118407800Y-50950000D03*
D16*
X97200000Y-47375000D03*
X97200000Y-45825000D03*
D17*
X104942100Y-48664820D03*
X107939300Y-48664820D03*
X109437900Y-48664820D03*
D18*
X103390160Y-49609700D03*
X110989840Y-49609700D03*
X103390160Y-51870300D03*
X110989840Y-51870300D03*
D19*
X123300000Y-38250000D03*
X123300000Y-36600000D03*
D20*
X81050000Y-43950000D03*
X84350000Y-43950000D03*
D19*
X115950000Y-46175000D03*
X115950000Y-44525000D03*
D10*
X105250000Y-46837500D03*
X105250000Y-44762500D03*
X94050000Y-48037500D03*
X94050000Y-45962500D03*
D20*
X84350000Y-41550000D03*
X81050000Y-41550000D03*
D12*
X119300000Y-37050000D03*
X121400000Y-37050000D03*
D19*
X100700000Y-51575000D03*
X100700000Y-49925000D03*
D11*
X112087500Y-43450000D03*
X110012500Y-43450000D03*
D21*
X77550000Y-46548600D03*
X77550000Y-43551400D03*
D22*
X88825000Y-47050000D03*
X87175000Y-47050000D03*
D23*
X76254000Y-36080000D03*
D24*
X78794000Y-36080000D03*
D23*
X81334000Y-36080000D03*
X83874000Y-36080000D03*
X86414000Y-36080000D03*
D24*
X99114000Y-51320000D03*
D23*
X96574000Y-51320000D03*
X94034000Y-51320000D03*
X91494000Y-51320000D03*
X88954000Y-51320000D03*
X86414000Y-51320000D03*
X83874000Y-51320000D03*
X81334000Y-51320000D03*
X78794000Y-51320000D03*
X76254000Y-51320000D03*
D10*
X111950000Y-47587500D03*
X111950000Y-45512500D03*
D25*
X103350001Y-41199999D03*
X102850000Y-41199999D03*
X102350001Y-41199999D03*
X101849999Y-41199999D03*
X101350000Y-41199999D03*
X100850001Y-41199999D03*
X100350000Y-41199999D03*
X99850001Y-41199999D03*
X99349999Y-41199999D03*
X98850000Y-41199999D03*
X98350001Y-41199999D03*
X97850000Y-41199999D03*
X97350000Y-41199999D03*
X96849999Y-41199999D03*
X96350000Y-41199999D03*
X95850001Y-41199999D03*
X95349999Y-41199999D03*
X94850000Y-41199999D03*
X94349999Y-41199999D03*
X93850000Y-41199999D03*
X93350001Y-41199999D03*
X92849999Y-41199999D03*
X92350000Y-41199999D03*
X91850001Y-41199999D03*
D26*
X105000000Y-38050000D03*
X90200000Y-38050000D03*
D19*
X123650000Y-42300000D03*
X123650000Y-40650000D03*
D10*
X103150000Y-47837500D03*
X103150000Y-45762500D03*
D27*
X116200000Y-49775000D03*
X116200000Y-51325000D03*
D20*
X84350000Y-46350000D03*
X81050000Y-46350000D03*
D27*
X122800000Y-49775000D03*
X122800000Y-51325000D03*
D28*
X73800000Y-45100000D03*
X73800000Y-47175000D03*
D29*
X118045000Y-46125000D03*
X119315000Y-46125000D03*
X120585000Y-46125000D03*
X121855000Y-46125000D03*
X121855000Y-41175000D03*
X120585000Y-41175000D03*
X119315000Y-41175000D03*
X118045000Y-41175000D03*
D10*
X101000000Y-48337500D03*
X101000000Y-46262500D03*
D30*
X100100000Y-42500000D03*
X95250000Y-44900000D03*
X124250000Y-50150000D03*
X109450000Y-47450000D03*
X114350000Y-51750000D03*
X75050000Y-41550000D03*
X87250000Y-43150000D03*
X85750000Y-47450000D03*
X123100000Y-45550000D03*
X112550000Y-40050000D03*
X99950000Y-37850000D03*
X95700000Y-39750000D03*
X85100000Y-38400000D03*
X95950000Y-38250000D03*
X121400000Y-38700000D03*
X97500000Y-44400000D03*
X99550000Y-45100000D03*
X98950000Y-45550000D03*
X98700000Y-43850000D03*
X88000000Y-38250000D03*
X93100000Y-37650000D03*
X113950000Y-37750000D03*
X100900000Y-37750000D03*
X110500000Y-46750000D03*
X100050000Y-43300000D03*
X101250000Y-38500000D03*
X110000000Y-37350000D03*
X101350000Y-37050000D03*
X104100000Y-43400000D03*
X85500000Y-46400000D03*
X101850000Y-39900000D03*
X102850000Y-36850000D03*
X96950000Y-36450000D03*
X122500000Y-39500000D03*
X76150000Y-48500000D03*
X120550000Y-38650000D03*
D31*
X99850001Y-41199999D02*
X99850001Y-42250001D01*
D32*
X122800000Y-49725000D02*
X123825000Y-49725000D01*
X114125000Y-49775000D02*
X114075000Y-49725000D01*
X97200000Y-47375000D02*
X97200000Y-48650000D01*
X112087500Y-43450000D02*
X112087500Y-41350000D01*
D31*
X87175000Y-47050000D02*
X87175000Y-47175000D01*
D32*
X112087500Y-40512500D02*
X112550000Y-40050000D01*
X101000000Y-48050000D02*
X101212500Y-47837500D01*
X109400000Y-47450000D02*
X109450000Y-47450000D01*
D33*
X94050000Y-48037500D02*
X94912500Y-48037500D01*
D34*
X114075000Y-51475000D02*
X114350000Y-51750000D01*
D32*
X104062500Y-46837500D02*
X105250000Y-46837500D01*
D31*
X95349999Y-41199999D02*
X95349999Y-40100001D01*
D32*
X105250000Y-46837500D02*
X107350000Y-46837500D01*
X114075000Y-49725000D02*
X114075000Y-50600000D01*
D33*
X95250000Y-47700000D02*
X95250000Y-44900000D01*
D31*
X99850001Y-41199999D02*
X99850001Y-37949999D01*
D32*
X76200000Y-37850000D02*
X75400000Y-37850000D01*
D34*
X114075000Y-50600000D02*
X114075000Y-51475000D01*
D31*
X99850001Y-37949999D02*
X99950000Y-37850000D01*
D32*
X108787500Y-46837500D02*
X109400000Y-47450000D01*
X107350000Y-46837500D02*
X108787500Y-46837500D01*
X101212500Y-47837500D02*
X103150000Y-47837500D01*
X103150000Y-47750000D02*
X104062500Y-46837500D01*
D31*
X86900000Y-47450000D02*
X85750000Y-47450000D01*
D32*
X99114000Y-51320000D02*
X99114000Y-49701500D01*
X100700000Y-49925000D02*
X99337500Y-49925000D01*
X75400000Y-37850000D02*
X75050000Y-38200000D01*
X77970000Y-36080000D02*
X76200000Y-37850000D01*
X97200000Y-48650000D02*
X98087500Y-49537500D01*
X122525000Y-46125000D02*
X123100000Y-45550000D01*
X111800000Y-47450000D02*
X111950000Y-47600000D01*
D31*
X99850001Y-42250001D02*
X100100000Y-42500000D01*
D32*
X109450000Y-47450000D02*
X111800000Y-47450000D01*
X98950000Y-49537500D02*
X98087500Y-49537500D01*
X78794000Y-36080000D02*
X77970000Y-36080000D01*
X100700000Y-48637500D02*
X101000000Y-48337500D01*
X75050000Y-38200000D02*
X75050000Y-41550000D01*
D31*
X95349999Y-40100001D02*
X95700000Y-39750000D01*
D32*
X123825000Y-49725000D02*
X124250000Y-50150000D01*
X112087500Y-41350000D02*
X112087500Y-40512500D01*
X84350000Y-41550000D02*
X86812500Y-41550000D01*
D33*
X94912500Y-48037500D02*
X95250000Y-47700000D01*
D32*
X100700000Y-49925000D02*
X100700000Y-48637500D01*
X103150000Y-47837500D02*
X103150000Y-47750000D01*
X121855000Y-46125000D02*
X122525000Y-46125000D01*
D31*
X87175000Y-47175000D02*
X86900000Y-47450000D01*
D32*
X101000000Y-48337500D02*
X101000000Y-48050000D01*
X111950000Y-47600000D02*
X114075000Y-49725000D01*
X86812500Y-41550000D02*
X87250000Y-41987500D01*
X116200000Y-49775000D02*
X114125000Y-49775000D01*
X99337500Y-49925000D02*
X98950000Y-49537500D01*
D34*
X87250000Y-41987500D02*
X87250000Y-43150000D01*
D31*
X98975000Y-37025000D02*
X98850000Y-36900000D01*
D32*
X100000000Y-36000000D02*
X98975000Y-37025000D01*
D33*
X97200000Y-45825000D02*
X98175000Y-45825000D01*
D32*
X113200000Y-36000000D02*
X100000000Y-36000000D01*
D33*
X83874000Y-36624000D02*
X84750000Y-37500000D01*
D31*
X100150000Y-45400000D02*
X98950000Y-46600000D01*
D33*
X89350000Y-35700000D02*
X97650000Y-35700000D01*
D34*
X98850000Y-36900000D02*
X98850000Y-41650000D01*
D33*
X83874000Y-36326000D02*
X82650000Y-37550000D01*
D32*
X114650000Y-37150000D02*
X114650000Y-45800000D01*
D33*
X84750000Y-37500000D02*
X85100000Y-37850000D01*
X97650000Y-35700000D02*
X98850000Y-36900000D01*
X98175000Y-45825000D02*
X98950000Y-46600000D01*
X115750000Y-36600000D02*
X115150000Y-36000000D01*
X76800000Y-38550000D02*
X76800000Y-43450000D01*
D32*
X115150000Y-36000000D02*
X123100000Y-36000000D01*
D31*
X99350000Y-37400000D02*
X98975000Y-37025000D01*
D33*
X82550000Y-37404000D02*
X83874000Y-36080000D01*
D34*
X124150000Y-40150000D02*
X124150000Y-36800000D01*
D31*
X98850000Y-43050000D02*
X99350000Y-43550000D01*
D32*
X115025000Y-46175000D02*
X115950000Y-46175000D01*
X115150000Y-36000000D02*
X113200000Y-36000000D01*
D33*
X115750000Y-36995000D02*
X115750000Y-36600000D01*
D32*
X123100000Y-36000000D02*
X123300000Y-36200000D01*
D31*
X99350000Y-41650000D02*
X99350000Y-43550000D01*
D34*
X123650000Y-40650000D02*
X124150000Y-40150000D01*
D33*
X84750000Y-37500000D02*
X87550000Y-37500000D01*
D32*
X123300000Y-36200000D02*
X123300000Y-36600000D01*
D33*
X85100000Y-37850000D02*
X85100000Y-38400000D01*
X87550000Y-37500000D02*
X89350000Y-35700000D01*
D32*
X113500000Y-36000000D02*
X114650000Y-37150000D01*
X113200000Y-36000000D02*
X113500000Y-36000000D01*
D31*
X98850000Y-41650000D02*
X98850000Y-43050000D01*
D32*
X114650000Y-45800000D02*
X115025000Y-46175000D01*
D33*
X77800000Y-37550000D02*
X76800000Y-38550000D01*
X82650000Y-37550000D02*
X77800000Y-37550000D01*
D31*
X100150000Y-44350000D02*
X100150000Y-45400000D01*
D34*
X123950000Y-36600000D02*
X123300000Y-36600000D01*
D31*
X99350000Y-41650000D02*
X99350000Y-37400000D01*
D33*
X83874000Y-36080000D02*
X83874000Y-36326000D01*
D31*
X98950000Y-46600000D02*
X98950000Y-47462500D01*
D34*
X124150000Y-36800000D02*
X123950000Y-36600000D01*
D31*
X99350000Y-43550000D02*
X100150000Y-44350000D01*
D34*
X94630000Y-51320000D02*
X94034000Y-51320000D01*
D31*
X96350000Y-38650000D02*
X95950000Y-38250000D01*
D34*
X96350000Y-49600000D02*
X94630000Y-51320000D01*
D31*
X96350000Y-41199999D02*
X96350000Y-38650000D01*
D34*
X96350000Y-41650000D02*
X96350000Y-49600000D01*
D31*
X95850000Y-49250000D02*
X94850000Y-50250000D01*
X94850000Y-50250000D02*
X92564000Y-50250000D01*
X92564000Y-50250000D02*
X91494000Y-51320000D01*
X95850000Y-41650000D02*
X95850000Y-49250000D01*
D33*
X121400000Y-38700000D02*
X121400000Y-37050000D01*
X118045000Y-50587200D02*
X118407800Y-50950000D01*
X118045000Y-46125000D02*
X118045000Y-50587200D01*
D32*
X116200000Y-51325000D02*
X118032800Y-51325000D01*
X118032800Y-51325000D02*
X118407800Y-50950000D01*
D31*
X97350000Y-44250000D02*
X97500000Y-44400000D01*
X97350000Y-41650000D02*
X97350000Y-44250000D01*
X98950000Y-44500000D02*
X99550000Y-45100000D01*
X98100000Y-44000000D02*
X98100000Y-44350000D01*
X97850000Y-43750000D02*
X98100000Y-44000000D01*
X98250000Y-44500000D02*
X98100000Y-44350000D01*
X98950000Y-44500000D02*
X98250000Y-44500000D01*
X97850000Y-41650000D02*
X97850000Y-43750000D01*
X98950000Y-45550000D02*
X98950000Y-45300000D01*
X96850000Y-44600000D02*
X96850000Y-41650000D01*
X97300000Y-45050000D02*
X96850000Y-44600000D01*
X98700000Y-45050000D02*
X97300000Y-45050000D01*
X98950000Y-45300000D02*
X98700000Y-45050000D01*
X98350000Y-43600000D02*
X98350000Y-41650000D01*
X98600000Y-43850000D02*
X98350000Y-43600000D01*
X98700000Y-43850000D02*
X98600000Y-43850000D01*
D34*
X112425000Y-49425000D02*
X112425000Y-50600000D01*
X109437900Y-48664820D02*
X111664820Y-48664820D01*
X111664820Y-48664820D02*
X112425000Y-49425000D01*
X88000000Y-38250000D02*
X87250000Y-39000000D01*
X93850000Y-41650000D02*
X93850000Y-38400000D01*
X87250000Y-39000000D02*
X87250000Y-39912500D01*
X93850000Y-38400000D02*
X93100000Y-37650000D01*
D35*
X102200000Y-50880000D02*
X102200000Y-51350000D01*
X102200000Y-50880000D02*
X102540000Y-50540000D01*
X102540000Y-50540000D02*
X104420000Y-50540000D01*
X101925000Y-51625000D02*
X101200000Y-51625000D01*
X102200000Y-51350000D02*
X101925000Y-51625000D01*
X104942100Y-50017900D02*
X104942100Y-48664820D01*
X104420000Y-50540000D02*
X104942100Y-50017900D01*
D31*
X103350001Y-41800001D02*
X105000000Y-43450000D01*
X103350001Y-41199999D02*
X103350001Y-41800001D01*
X105000000Y-43450000D02*
X110012500Y-43450000D01*
X93350001Y-41199999D02*
X93350000Y-43850000D01*
D34*
X94050000Y-44550000D02*
X94050000Y-45962500D01*
X93350000Y-43850000D02*
X94050000Y-44550000D01*
D31*
X102350000Y-44912500D02*
X101000000Y-46262500D01*
X102350001Y-41199999D02*
X102350000Y-44912500D01*
D34*
X113375000Y-45525000D02*
X113950000Y-44950000D01*
X113950000Y-44950000D02*
X113950000Y-37750000D01*
X113362500Y-45512500D02*
X111950000Y-45512500D01*
D31*
X100350000Y-41199999D02*
X100350000Y-38300000D01*
D34*
X113375000Y-45525000D02*
X113362500Y-45512500D01*
D31*
X100350000Y-38300000D02*
X100900000Y-37750000D01*
D34*
X109650000Y-46750000D02*
X110500000Y-46750000D01*
X108850000Y-45500000D02*
X108850000Y-44950000D01*
X101350000Y-42600000D02*
X100650000Y-43300000D01*
X108850000Y-45950000D02*
X109650000Y-46750000D01*
X108850000Y-45500000D02*
X108850000Y-45950000D01*
X101350000Y-41650000D02*
X101350000Y-42600000D01*
X100650000Y-43300000D02*
X100050000Y-43300000D01*
X108850000Y-44950000D02*
X108662500Y-44762500D01*
X108662500Y-44762500D02*
X107350000Y-44762500D01*
D33*
X110012500Y-41350000D02*
X110012500Y-37362500D01*
D31*
X100850001Y-38899999D02*
X101250000Y-38500000D01*
D33*
X110012500Y-37362500D02*
X110000000Y-37350000D01*
D31*
X100850001Y-41199999D02*
X100850001Y-38899999D01*
D34*
X101850000Y-37550000D02*
X101350000Y-37050000D01*
X85500000Y-46400000D02*
X84400000Y-46400000D01*
X104100000Y-43400000D02*
X105250000Y-44550000D01*
D31*
X105250000Y-44600000D02*
X105250000Y-44762500D01*
D34*
X84400000Y-46400000D02*
X84350000Y-46350000D01*
X101850000Y-39900000D02*
X101850000Y-37550000D01*
X101850000Y-41650000D02*
X101850000Y-39900000D01*
X96750000Y-36250000D02*
X96950000Y-36450000D01*
X88250000Y-43950000D02*
X89900000Y-42300000D01*
X92200000Y-38900000D02*
X92200000Y-36300000D01*
X89900000Y-41200000D02*
X92200000Y-38900000D01*
X102850000Y-36850000D02*
X102850000Y-41650000D01*
X84350000Y-43950000D02*
X88250000Y-43950000D01*
X92250000Y-36250000D02*
X96750000Y-36250000D01*
X89900000Y-42300000D02*
X89900000Y-41200000D01*
D31*
X102850000Y-41199999D02*
X102850000Y-45462500D01*
D32*
X81050000Y-43950000D02*
X81050000Y-41550000D01*
X73800000Y-45100000D02*
X79900000Y-45100000D01*
X79900000Y-45100000D02*
X81050000Y-43950000D01*
X90300000Y-49100000D02*
X82200000Y-49100000D01*
X91150000Y-48250000D02*
X91150000Y-47350000D01*
X75875000Y-47175000D02*
X76800000Y-46250000D01*
X80950000Y-46250000D02*
X81050000Y-46350000D01*
X76800000Y-46250000D02*
X80950000Y-46250000D01*
X81050000Y-47950000D02*
X81050000Y-46350000D01*
X73800000Y-47175000D02*
X75875000Y-47175000D01*
X82200000Y-49100000D02*
X81050000Y-47950000D01*
X90300000Y-49100000D02*
X91150000Y-48250000D01*
D35*
X90400000Y-51725000D02*
X91050000Y-52375000D01*
D31*
X91050000Y-46400000D02*
X90500000Y-45850000D01*
X90400000Y-50775000D02*
X90400000Y-51725000D01*
X92050000Y-46400000D02*
X91050000Y-46400000D01*
D35*
X102255000Y-52375000D02*
X102630000Y-52000000D01*
D31*
X92850000Y-48325000D02*
X90400000Y-50775000D01*
D35*
X107800000Y-50990000D02*
X107800000Y-48804120D01*
D31*
X92850000Y-46950000D02*
X92850000Y-48325000D01*
D35*
X105310000Y-51590000D02*
X107200000Y-51590000D01*
X102630000Y-51230000D02*
X102780000Y-51080000D01*
D31*
X90500000Y-45850000D02*
X90500000Y-45350000D01*
X92850000Y-45600000D02*
X92850000Y-46950000D01*
D35*
X102780000Y-51080000D02*
X104800000Y-51080000D01*
D31*
X92850000Y-45600000D02*
X92050000Y-46400000D01*
D35*
X107800000Y-48804120D02*
X107939300Y-48664820D01*
X102630000Y-52000000D02*
X102630000Y-51230000D01*
X91050000Y-52375000D02*
X102255000Y-52375000D01*
D31*
X92849999Y-41199999D02*
X92850000Y-45600000D01*
D35*
X104800000Y-51080000D02*
X105310000Y-51590000D01*
X107200000Y-51590000D02*
X107800000Y-50990000D01*
D31*
X89650000Y-44800000D02*
X90100000Y-44350000D01*
X89650000Y-45400000D02*
X89650000Y-44800000D01*
X88825000Y-46225000D02*
X89650000Y-45400000D01*
X92350000Y-44150000D02*
X91800000Y-44700000D01*
X91450000Y-44350000D02*
X91800000Y-44700000D01*
X92350000Y-41199999D02*
X92350000Y-44150000D01*
X91800000Y-44700000D02*
X91800000Y-45350000D01*
X90100000Y-44350000D02*
X91450000Y-44350000D01*
X88825000Y-47050000D02*
X88825000Y-46225000D01*
D33*
X120592200Y-48942200D02*
X120592200Y-50950000D01*
D32*
X122800000Y-51325000D02*
X120967200Y-51325000D01*
D33*
X119315000Y-46125000D02*
X119315000Y-47665000D01*
D32*
X120967200Y-51325000D02*
X120592200Y-50950000D01*
D33*
X119315000Y-47665000D02*
X120592200Y-48942200D01*
X117905000Y-37050000D02*
X119300000Y-37050000D01*
X117850000Y-36995000D02*
X117905000Y-37050000D01*
X118045000Y-41175000D02*
X118045000Y-37190000D01*
X118045000Y-37190000D02*
X117850000Y-36995000D01*
D31*
X124650000Y-36400000D02*
X124650000Y-42550000D01*
X123300000Y-35050000D02*
X124650000Y-36400000D01*
X122800000Y-35050000D02*
X123300000Y-35050000D01*
D33*
X120125000Y-44525000D02*
X120585000Y-44985000D01*
D31*
X88700000Y-35050000D02*
X122800000Y-35050000D01*
X86414000Y-36080000D02*
X87670000Y-36080000D01*
D33*
X120585000Y-44985000D02*
X120585000Y-46125000D01*
X120125000Y-44525000D02*
X115950000Y-44525000D01*
D31*
X87670000Y-36080000D02*
X88700000Y-35050000D01*
X124650000Y-42550000D02*
X122675000Y-44525000D01*
D33*
X120125000Y-44525000D02*
X122675000Y-44525000D01*
X121855000Y-41175000D02*
X121855000Y-41855000D01*
X121855000Y-40145000D02*
X122500000Y-39500000D01*
X121855000Y-41855000D02*
X122300000Y-42300000D01*
X122300000Y-42300000D02*
X123650000Y-42300000D01*
X121855000Y-41175000D02*
X121855000Y-40145000D01*
X120585000Y-41175000D02*
X120585000Y-39815000D01*
X86070000Y-51320000D02*
X85450000Y-50700000D01*
X77500000Y-49850000D02*
X76150000Y-48500000D01*
X86370000Y-51320000D02*
X86070000Y-51320000D01*
X120550000Y-38650000D02*
X120550000Y-41140000D01*
X79200000Y-49850000D02*
X77500000Y-49850000D01*
X85450000Y-50700000D02*
X84600000Y-49850000D01*
X84600000Y-49850000D02*
X79200000Y-49850000D01*
X122850000Y-38250000D02*
X123300000Y-38250000D01*
X121050000Y-39350000D02*
X121750000Y-39350000D01*
X121750000Y-39350000D02*
X122850000Y-38250000D01*
X120550000Y-41140000D02*
X120585000Y-41175000D01*
X86414000Y-51320000D02*
X86370000Y-51320000D01*
X120585000Y-39815000D02*
X121050000Y-39350000D01*
M02*
