M48
; DRILL file {KiCad 6.0.8-f2edbf62ab~116~ubuntu20.04.1} date Tue 18 Oct 2022 12:22:52 CEST
; FORMAT={-:-/ absolute / metric / decimal}
; #@! TF.CreationDate,2022-10-18T12:22:52+02:00
; #@! TF.GenerationSoftware,Kicad,Pcbnew,6.0.8-f2edbf62ab~116~ubuntu20.04.1
; #@! TF.FileFunction,Plated,1,2,PTH
FMAT,2
METRIC
; #@! TA.AperFunction,Plated,PTH,ViaDrill
T1C0.300
; #@! TA.AperFunction,Plated,PTH,ComponentDrill
T2C0.900
; #@! TA.AperFunction,Plated,PTH,ComponentDrill
T3C0.914
%
G90
G05
T1
X74.6Y-41.65
X74.6Y-43.55
X85.5Y-46.4
X85.75Y-47.45
X87.25Y-43.15
X88.0Y-38.25
X93.1Y-37.65
X95.25Y-44.9
X95.7Y-39.75
X96.95Y-36.45
X97.5Y-44.4
X98.7Y-43.85
X98.95Y-45.55
X99.55Y-45.1
X99.95Y-37.85
X100.05Y-43.3
X100.1Y-42.5
X100.9Y-37.75
X101.25Y-38.5
X101.35Y-37.05
X101.55Y-43.35
X102.85Y-36.85
X103.8Y-44.55
X108.45Y-40.75
X108.85Y-45.5
X109.45Y-47.45
X112.55Y-40.05
X113.4Y-45.55
X114.35Y-51.75
T2
X76.254Y-51.32
X78.794Y-51.32
X81.334Y-51.32
X83.874Y-51.32
X86.414Y-51.32
X88.954Y-51.32
X91.494Y-51.32
X94.034Y-51.32
X96.574Y-51.32
X99.114Y-51.32
T3
X76.254Y-36.08
X78.794Y-36.08
X81.334Y-36.08
X83.874Y-36.08
T0
M30
