G04 #@! TF.GenerationSoftware,KiCad,Pcbnew,6.0.8-f2edbf62ab~116~ubuntu20.04.1*
G04 #@! TF.CreationDate,2022-10-18T12:22:16+02:00*
G04 #@! TF.ProjectId,tinypico-goodisplay,74696e79-7069-4636-9f2d-676f6f646973,rev?*
G04 #@! TF.SameCoordinates,Original*
G04 #@! TF.FileFunction,Legend,Bot*
G04 #@! TF.FilePolarity,Positive*
%FSLAX46Y46*%
G04 Gerber Fmt 4.6, Leading zero omitted, Abs format (unit mm)*
G04 Created by KiCad (PCBNEW 6.0.8-f2edbf62ab~116~ubuntu20.04.1) date 2022-10-18 12:22:16*
%MOMM*%
%LPD*%
G01*
G04 APERTURE LIST*
G04 Aperture macros list*
%AMRoundRect*
0 Rectangle with rounded corners*
0 $1 Rounding radius*
0 $2 $3 $4 $5 $6 $7 $8 $9 X,Y pos of 4 corners*
0 Add a 4 corners polygon primitive as box body*
4,1,4,$2,$3,$4,$5,$6,$7,$8,$9,$2,$3,0*
0 Add four circle primitives for the rounded corners*
1,1,$1+$1,$2,$3*
1,1,$1+$1,$4,$5*
1,1,$1+$1,$6,$7*
1,1,$1+$1,$8,$9*
0 Add four rect primitives between the rounded corners*
20,1,$1+$1,$2,$3,$4,$5,0*
20,1,$1+$1,$4,$5,$6,$7,0*
20,1,$1+$1,$6,$7,$8,$9,0*
20,1,$1+$1,$8,$9,$2,$3,0*%
G04 Aperture macros list end*
%ADD10C,0.150000*%
%ADD11C,0.130000*%
%ADD12C,0.250000*%
%ADD13C,0.300000*%
%ADD14C,0.889000*%
%ADD15C,1.473200*%
%ADD16RoundRect,0.025400X0.635000X-0.635000X0.635000X0.635000X-0.635000X0.635000X-0.635000X-0.635000X0*%
G04 APERTURE END LIST*
D10*
X113425000Y-40900000D02*
X104375000Y-40900000D01*
X113425000Y-45900000D02*
X113425000Y-40900000D01*
X104375000Y-40900000D02*
X104375000Y-44900000D01*
X104375000Y-44900000D02*
X105325000Y-45900000D01*
X105325000Y-45900000D02*
X113425000Y-45900000D01*
D11*
X94478835Y-49707142D02*
X94478835Y-49878571D01*
X94435978Y-49964285D01*
X94393120Y-50007142D01*
X94264549Y-50092856D01*
X94093120Y-50135713D01*
X93750263Y-50135713D01*
X93664549Y-50092856D01*
X93621692Y-50049999D01*
X93578835Y-49964285D01*
X93578835Y-49792856D01*
X93621692Y-49707142D01*
X93664549Y-49664285D01*
X93750263Y-49621428D01*
X93964549Y-49621428D01*
X94050263Y-49664285D01*
X94093120Y-49707142D01*
X94135978Y-49792856D01*
X94135978Y-49964285D01*
X94093120Y-50049999D01*
X94050263Y-50092856D01*
X93964549Y-50135713D01*
X79233711Y-50178571D02*
X79233711Y-49621428D01*
X78890854Y-49921428D01*
X78890854Y-49792857D01*
X78847996Y-49707142D01*
X78805139Y-49664285D01*
X78719425Y-49621428D01*
X78505139Y-49621428D01*
X78419425Y-49664285D01*
X78376568Y-49707142D01*
X78333711Y-49792857D01*
X78333711Y-50050000D01*
X78376568Y-50135714D01*
X78419425Y-50178571D01*
X79233711Y-49321428D02*
X79233711Y-48721428D01*
X78333711Y-49107142D01*
X99517686Y-49621428D02*
X99560543Y-49707142D01*
X99560543Y-49835714D01*
X99517686Y-49964285D01*
X99431971Y-50049999D01*
X99346257Y-50092856D01*
X99174828Y-50135714D01*
X99046257Y-50135714D01*
X98874828Y-50092856D01*
X98789114Y-50049999D01*
X98703400Y-49964285D01*
X98660543Y-49835714D01*
X98660543Y-49749999D01*
X98703400Y-49621428D01*
X98746257Y-49578571D01*
X99046257Y-49578571D01*
X99046257Y-49749999D01*
X98660543Y-49192856D02*
X99560543Y-49192856D01*
X98660543Y-48678571D01*
X99560543Y-48678571D01*
X98660543Y-48249999D02*
X99560543Y-48249999D01*
X99560543Y-48035714D01*
X99517686Y-47907142D01*
X99431971Y-47821428D01*
X99346257Y-47778571D01*
X99174828Y-47735714D01*
X99046257Y-47735714D01*
X98874828Y-47778571D01*
X98789114Y-47821428D01*
X98703400Y-47907142D01*
X98660543Y-48035714D01*
X98660543Y-48249999D01*
X79485714Y-37600000D02*
X79571428Y-37557142D01*
X79700000Y-37557142D01*
X79828571Y-37600000D01*
X79914285Y-37685714D01*
X79957142Y-37771428D01*
X80000000Y-37942857D01*
X80000000Y-38071428D01*
X79957142Y-38242857D01*
X79914285Y-38328571D01*
X79828571Y-38414285D01*
X79700000Y-38457142D01*
X79614285Y-38457142D01*
X79485714Y-38414285D01*
X79442857Y-38371428D01*
X79442857Y-38071428D01*
X79614285Y-38071428D01*
X79057142Y-38457142D02*
X79057142Y-37557142D01*
X78542857Y-38457142D01*
X78542857Y-37557142D01*
X78114285Y-38457142D02*
X78114285Y-37557142D01*
X77900000Y-37557142D01*
X77771428Y-37600000D01*
X77685714Y-37685714D01*
X77642857Y-37771428D01*
X77600000Y-37942857D01*
X77600000Y-38071428D01*
X77642857Y-38242857D01*
X77685714Y-38328571D01*
X77771428Y-38414285D01*
X77900000Y-38457142D01*
X78114285Y-38457142D01*
D12*
X110108333Y-44950000D02*
X110175000Y-45016666D01*
X110375000Y-45083333D01*
X110508333Y-45083333D01*
X110708333Y-45016666D01*
X110841666Y-44883333D01*
X110908333Y-44750000D01*
X110975000Y-44483333D01*
X110975000Y-44283333D01*
X110908333Y-44016666D01*
X110841666Y-43883333D01*
X110708333Y-43750000D01*
X110508333Y-43683333D01*
X110375000Y-43683333D01*
X110175000Y-43750000D01*
X110108333Y-43816666D01*
X109241666Y-43683333D02*
X108975000Y-43683333D01*
X108841666Y-43750000D01*
X108708333Y-43883333D01*
X108641666Y-44150000D01*
X108641666Y-44616666D01*
X108708333Y-44883333D01*
X108841666Y-45016666D01*
X108975000Y-45083333D01*
X109241666Y-45083333D01*
X109375000Y-45016666D01*
X109508333Y-44883333D01*
X109575000Y-44616666D01*
X109575000Y-44150000D01*
X109508333Y-43883333D01*
X109375000Y-43750000D01*
X109241666Y-43683333D01*
X107241666Y-45083333D02*
X107708333Y-44416666D01*
X108041666Y-45083333D02*
X108041666Y-43683333D01*
X107508333Y-43683333D01*
X107375000Y-43750000D01*
X107308333Y-43816666D01*
X107241666Y-43950000D01*
X107241666Y-44150000D01*
X107308333Y-44283333D01*
X107375000Y-44350000D01*
X107508333Y-44416666D01*
X108041666Y-44416666D01*
X106641666Y-45083333D02*
X106641666Y-43683333D01*
X106108333Y-43683333D01*
X105975000Y-43750000D01*
X105908333Y-43816666D01*
X105841666Y-43950000D01*
X105841666Y-44150000D01*
X105908333Y-44283333D01*
X105975000Y-44350000D01*
X106108333Y-44416666D01*
X106641666Y-44416666D01*
X105241666Y-44950000D02*
X105175000Y-45016666D01*
X105241666Y-45083333D01*
X105308333Y-45016666D01*
X105241666Y-44950000D01*
X105241666Y-45083333D01*
D11*
X81774565Y-50178571D02*
X81774565Y-49621428D01*
X81431708Y-49921428D01*
X81431708Y-49792857D01*
X81388850Y-49707142D01*
X81345993Y-49664285D01*
X81260279Y-49621428D01*
X81045993Y-49621428D01*
X80960279Y-49664285D01*
X80917422Y-49707142D01*
X80874565Y-49792857D01*
X80874565Y-50050000D01*
X80917422Y-50135714D01*
X80960279Y-50178571D01*
X81774565Y-48850000D02*
X81774565Y-49021428D01*
X81731708Y-49107142D01*
X81688850Y-49150000D01*
X81560279Y-49235714D01*
X81388850Y-49278571D01*
X81045993Y-49278571D01*
X80960279Y-49235714D01*
X80917422Y-49192857D01*
X80874565Y-49107142D01*
X80874565Y-48935714D01*
X80917422Y-48850000D01*
X80960279Y-48807142D01*
X81045993Y-48764285D01*
X81260279Y-48764285D01*
X81345993Y-48807142D01*
X81388850Y-48850000D01*
X81431708Y-48935714D01*
X81431708Y-49107142D01*
X81388850Y-49192857D01*
X81345993Y-49235714D01*
X81260279Y-49278571D01*
X89011412Y-49964285D02*
X89054270Y-50049999D01*
X89097127Y-50092856D01*
X89182841Y-50135713D01*
X89225698Y-50135713D01*
X89311412Y-50092856D01*
X89354270Y-50049999D01*
X89397127Y-49964285D01*
X89397127Y-49792856D01*
X89354270Y-49707142D01*
X89311412Y-49664285D01*
X89225698Y-49621428D01*
X89182841Y-49621428D01*
X89097127Y-49664285D01*
X89054270Y-49707142D01*
X89011412Y-49792856D01*
X89011412Y-49964285D01*
X88968555Y-50049999D01*
X88925698Y-50092856D01*
X88839984Y-50135713D01*
X88668555Y-50135713D01*
X88582841Y-50092856D01*
X88539984Y-50049999D01*
X88497127Y-49964285D01*
X88497127Y-49792856D01*
X88539984Y-49707142D01*
X88582841Y-49664285D01*
X88668555Y-49621428D01*
X88839984Y-49621428D01*
X88925698Y-49664285D01*
X88968555Y-49707142D01*
X89011412Y-49792856D01*
D13*
X112558333Y-42350000D02*
X113025000Y-42350000D01*
X113025000Y-43083333D02*
X113025000Y-41683333D01*
X112358333Y-41683333D01*
X111891666Y-42683333D02*
X111225000Y-42683333D01*
X112025000Y-43083333D02*
X111558333Y-41683333D01*
X111091666Y-43083333D01*
X110691666Y-43016666D02*
X110491666Y-43083333D01*
X110158333Y-43083333D01*
X110025000Y-43016666D01*
X109958333Y-42950000D01*
X109891666Y-42816666D01*
X109891666Y-42683333D01*
X109958333Y-42550000D01*
X110025000Y-42483333D01*
X110158333Y-42416666D01*
X110425000Y-42350000D01*
X110558333Y-42283333D01*
X110625000Y-42216666D01*
X110691666Y-42083333D01*
X110691666Y-41950000D01*
X110625000Y-41816666D01*
X110558333Y-41750000D01*
X110425000Y-41683333D01*
X110091666Y-41683333D01*
X109891666Y-41750000D01*
X109358333Y-42683333D02*
X108691666Y-42683333D01*
X109491666Y-43083333D02*
X109025000Y-41683333D01*
X108558333Y-43083333D01*
X108091666Y-43083333D02*
X108091666Y-41683333D01*
X107291666Y-43083333D01*
X107291666Y-41683333D01*
X106625000Y-43083333D02*
X106625000Y-41683333D01*
D11*
X91937981Y-50178571D02*
X91937981Y-49578571D01*
X91037981Y-49964285D01*
X81571428Y-37549856D02*
X82000000Y-37549856D01*
X82042857Y-37978428D01*
X82000000Y-37935571D01*
X81914285Y-37892714D01*
X81700000Y-37892714D01*
X81614285Y-37935571D01*
X81571428Y-37978428D01*
X81528571Y-38064142D01*
X81528571Y-38278428D01*
X81571428Y-38364142D01*
X81614285Y-38406999D01*
X81700000Y-38449856D01*
X81914285Y-38449856D01*
X82000000Y-38406999D01*
X82042857Y-38364142D01*
X81271428Y-37549856D02*
X80971428Y-38449856D01*
X80671428Y-37549856D01*
X113457142Y-40111904D02*
X113457142Y-39311904D01*
X113266666Y-39311904D01*
X113152380Y-39350000D01*
X113076190Y-39426190D01*
X113038095Y-39502380D01*
X113000000Y-39654761D01*
X113000000Y-39769047D01*
X113038095Y-39921428D01*
X113076190Y-39997619D01*
X113152380Y-40073809D01*
X113266666Y-40111904D01*
X113457142Y-40111904D01*
X112352380Y-40073809D02*
X112428571Y-40111904D01*
X112580952Y-40111904D01*
X112657142Y-40073809D01*
X112695238Y-39997619D01*
X112695238Y-39692857D01*
X112657142Y-39616666D01*
X112580952Y-39578571D01*
X112428571Y-39578571D01*
X112352380Y-39616666D01*
X112314285Y-39692857D01*
X112314285Y-39769047D01*
X112695238Y-39845238D01*
X112009523Y-40073809D02*
X111933333Y-40111904D01*
X111780952Y-40111904D01*
X111704761Y-40073809D01*
X111666666Y-39997619D01*
X111666666Y-39959523D01*
X111704761Y-39883333D01*
X111780952Y-39845238D01*
X111895238Y-39845238D01*
X111971428Y-39807142D01*
X112009523Y-39730952D01*
X112009523Y-39692857D01*
X111971428Y-39616666D01*
X111895238Y-39578571D01*
X111780952Y-39578571D01*
X111704761Y-39616666D01*
X111323809Y-40111904D02*
X111323809Y-39578571D01*
X111323809Y-39311904D02*
X111361904Y-39350000D01*
X111323809Y-39388095D01*
X111285714Y-39350000D01*
X111323809Y-39311904D01*
X111323809Y-39388095D01*
X110600000Y-39578571D02*
X110600000Y-40226190D01*
X110638095Y-40302380D01*
X110676190Y-40340476D01*
X110752380Y-40378571D01*
X110866666Y-40378571D01*
X110942857Y-40340476D01*
X110600000Y-40073809D02*
X110676190Y-40111904D01*
X110828571Y-40111904D01*
X110904761Y-40073809D01*
X110942857Y-40035714D01*
X110980952Y-39959523D01*
X110980952Y-39730952D01*
X110942857Y-39654761D01*
X110904761Y-39616666D01*
X110828571Y-39578571D01*
X110676190Y-39578571D01*
X110600000Y-39616666D01*
X110219047Y-39578571D02*
X110219047Y-40111904D01*
X110219047Y-39654761D02*
X110180952Y-39616666D01*
X110104761Y-39578571D01*
X109990476Y-39578571D01*
X109914285Y-39616666D01*
X109876190Y-39692857D01*
X109876190Y-40111904D01*
X109190476Y-40073809D02*
X109266666Y-40111904D01*
X109419047Y-40111904D01*
X109495238Y-40073809D01*
X109533333Y-39997619D01*
X109533333Y-39692857D01*
X109495238Y-39616666D01*
X109419047Y-39578571D01*
X109266666Y-39578571D01*
X109190476Y-39616666D01*
X109152380Y-39692857D01*
X109152380Y-39769047D01*
X109533333Y-39845238D01*
X108466666Y-40111904D02*
X108466666Y-39311904D01*
X108466666Y-40073809D02*
X108542857Y-40111904D01*
X108695238Y-40111904D01*
X108771428Y-40073809D01*
X108809523Y-40035714D01*
X108847619Y-39959523D01*
X108847619Y-39730952D01*
X108809523Y-39654761D01*
X108771428Y-39616666D01*
X108695238Y-39578571D01*
X108542857Y-39578571D01*
X108466666Y-39616666D01*
X107476190Y-40111904D02*
X107476190Y-39311904D01*
X107476190Y-39616666D02*
X107400000Y-39578571D01*
X107247619Y-39578571D01*
X107171428Y-39616666D01*
X107133333Y-39654761D01*
X107095238Y-39730952D01*
X107095238Y-39959523D01*
X107133333Y-40035714D01*
X107171428Y-40073809D01*
X107247619Y-40111904D01*
X107400000Y-40111904D01*
X107476190Y-40073809D01*
X106828571Y-39578571D02*
X106638095Y-40111904D01*
X106447619Y-39578571D02*
X106638095Y-40111904D01*
X106714285Y-40302380D01*
X106752380Y-40340476D01*
X106828571Y-40378571D01*
X106142857Y-40035714D02*
X106104761Y-40073809D01*
X106142857Y-40111904D01*
X106180952Y-40073809D01*
X106142857Y-40035714D01*
X106142857Y-40111904D01*
X106142857Y-39616666D02*
X106104761Y-39654761D01*
X106142857Y-39692857D01*
X106180952Y-39654761D01*
X106142857Y-39616666D01*
X106142857Y-39692857D01*
X85956273Y-50049999D02*
X85956273Y-49878571D01*
X85999130Y-49792856D01*
X86041987Y-49749999D01*
X86170558Y-49664285D01*
X86341987Y-49621428D01*
X86684844Y-49621428D01*
X86770558Y-49664285D01*
X86813416Y-49707142D01*
X86856273Y-49792856D01*
X86856273Y-49964285D01*
X86813416Y-50049999D01*
X86770558Y-50092856D01*
X86684844Y-50135713D01*
X86470558Y-50135713D01*
X86384844Y-50092856D01*
X86341987Y-50049999D01*
X86299130Y-49964285D01*
X86299130Y-49792856D01*
X86341987Y-49707142D01*
X86384844Y-49664285D01*
X86470558Y-49621428D01*
X96119689Y-49578571D02*
X96548260Y-49878571D01*
X96119689Y-50092856D02*
X97019689Y-50092856D01*
X97019689Y-49749999D01*
X96976832Y-49664285D01*
X96933974Y-49621428D01*
X96848260Y-49578571D01*
X96719689Y-49578571D01*
X96633974Y-49621428D01*
X96591117Y-49664285D01*
X96548260Y-49749999D01*
X96548260Y-50092856D01*
X96162546Y-49235714D02*
X96119689Y-49107142D01*
X96119689Y-48892856D01*
X96162546Y-48807142D01*
X96205403Y-48764285D01*
X96291117Y-48721428D01*
X96376832Y-48721428D01*
X96462546Y-48764285D01*
X96505403Y-48807142D01*
X96548260Y-48892856D01*
X96591117Y-49064285D01*
X96633974Y-49149999D01*
X96676832Y-49192856D01*
X96762546Y-49235714D01*
X96848260Y-49235714D01*
X96933974Y-49192856D01*
X96976832Y-49149999D01*
X97019689Y-49064285D01*
X97019689Y-48849999D01*
X96976832Y-48721428D01*
X97019689Y-48464285D02*
X97019689Y-47949999D01*
X96119689Y-48207142D02*
X97019689Y-48207142D01*
X84315419Y-50178571D02*
X84315419Y-49621428D01*
X83972562Y-49921428D01*
X83972562Y-49792857D01*
X83929704Y-49707142D01*
X83886847Y-49664285D01*
X83801133Y-49621428D01*
X83586847Y-49621428D01*
X83501133Y-49664285D01*
X83458276Y-49707142D01*
X83415419Y-49792857D01*
X83415419Y-50050000D01*
X83458276Y-50135714D01*
X83501133Y-50178571D01*
X84015419Y-48850000D02*
X83415419Y-48850000D01*
X84358276Y-49064285D02*
X83715419Y-49278571D01*
X83715419Y-48721428D01*
X84914285Y-37549856D02*
X84357142Y-37549856D01*
X84657142Y-37892714D01*
X84528571Y-37892714D01*
X84442857Y-37935571D01*
X84400000Y-37978428D01*
X84357142Y-38064142D01*
X84357142Y-38278428D01*
X84400000Y-38364142D01*
X84442857Y-38406999D01*
X84528571Y-38449856D01*
X84785714Y-38449856D01*
X84871428Y-38406999D01*
X84914285Y-38364142D01*
X84100000Y-37549856D02*
X83800000Y-38449856D01*
X83500000Y-37549856D01*
X83285714Y-37549856D02*
X82728571Y-37549856D01*
X83028571Y-37892714D01*
X82900000Y-37892714D01*
X82814285Y-37935571D01*
X82771428Y-37978428D01*
X82728571Y-38064142D01*
X82728571Y-38278428D01*
X82771428Y-38364142D01*
X82814285Y-38406999D01*
X82900000Y-38449856D01*
X83157142Y-38449856D01*
X83242857Y-38406999D01*
X83285714Y-38364142D01*
X75807142Y-37471428D02*
X76707142Y-37771428D01*
X75807142Y-38071428D01*
X76235714Y-38671428D02*
X76278571Y-38800000D01*
X76321428Y-38842857D01*
X76407142Y-38885714D01*
X76535714Y-38885714D01*
X76621428Y-38842857D01*
X76664285Y-38800000D01*
X76707142Y-38714285D01*
X76707142Y-38371428D01*
X75807142Y-38371428D01*
X75807142Y-38671428D01*
X75850000Y-38757142D01*
X75892857Y-38800000D01*
X75978571Y-38842857D01*
X76064285Y-38842857D01*
X76150000Y-38800000D01*
X76192857Y-38757142D01*
X76235714Y-38671428D01*
X76235714Y-38371428D01*
X76450000Y-39228571D02*
X76450000Y-39657142D01*
X76707142Y-39142857D02*
X75807142Y-39442857D01*
X76707142Y-39742857D01*
X75807142Y-39914285D02*
X75807142Y-40428571D01*
X76707142Y-40171428D02*
X75807142Y-40171428D01*
X114083333Y-49592857D02*
X113816666Y-49592857D01*
X113702380Y-50011904D02*
X114083333Y-50011904D01*
X114083333Y-49211904D01*
X113702380Y-49211904D01*
X113397619Y-49973809D02*
X113283333Y-50011904D01*
X113092857Y-50011904D01*
X113016666Y-49973809D01*
X112978571Y-49935714D01*
X112940476Y-49859523D01*
X112940476Y-49783333D01*
X112978571Y-49707142D01*
X113016666Y-49669047D01*
X113092857Y-49630952D01*
X113245238Y-49592857D01*
X113321428Y-49554761D01*
X113359523Y-49516666D01*
X113397619Y-49440476D01*
X113397619Y-49364285D01*
X113359523Y-49288095D01*
X113321428Y-49250000D01*
X113245238Y-49211904D01*
X113054761Y-49211904D01*
X112940476Y-49250000D01*
X112597619Y-50011904D02*
X112597619Y-49211904D01*
X112292857Y-49211904D01*
X112216666Y-49250000D01*
X112178571Y-49288095D01*
X112140476Y-49364285D01*
X112140476Y-49478571D01*
X112178571Y-49554761D01*
X112216666Y-49592857D01*
X112292857Y-49630952D01*
X112597619Y-49630952D01*
X111873809Y-49211904D02*
X111378571Y-49211904D01*
X111645238Y-49516666D01*
X111530952Y-49516666D01*
X111454761Y-49554761D01*
X111416666Y-49592857D01*
X111378571Y-49669047D01*
X111378571Y-49859523D01*
X111416666Y-49935714D01*
X111454761Y-49973809D01*
X111530952Y-50011904D01*
X111759523Y-50011904D01*
X111835714Y-49973809D01*
X111873809Y-49935714D01*
X111073809Y-49288095D02*
X111035714Y-49250000D01*
X110959523Y-49211904D01*
X110769047Y-49211904D01*
X110692857Y-49250000D01*
X110654761Y-49288095D01*
X110616666Y-49364285D01*
X110616666Y-49440476D01*
X110654761Y-49554761D01*
X111111904Y-50011904D01*
X110616666Y-50011904D01*
X110311904Y-49973809D02*
X110197619Y-50011904D01*
X110007142Y-50011904D01*
X109930952Y-49973809D01*
X109892857Y-49935714D01*
X109854761Y-49859523D01*
X109854761Y-49783333D01*
X109892857Y-49707142D01*
X109930952Y-49669047D01*
X110007142Y-49630952D01*
X110159523Y-49592857D01*
X110235714Y-49554761D01*
X110273809Y-49516666D01*
X110311904Y-49440476D01*
X110311904Y-49364285D01*
X110273809Y-49288095D01*
X110235714Y-49250000D01*
X110159523Y-49211904D01*
X109969047Y-49211904D01*
X109854761Y-49250000D01*
X109588095Y-49211904D02*
X109092857Y-49211904D01*
X109359523Y-49516666D01*
X109245238Y-49516666D01*
X109169047Y-49554761D01*
X109130952Y-49592857D01*
X109092857Y-49669047D01*
X109092857Y-49859523D01*
X109130952Y-49935714D01*
X109169047Y-49973809D01*
X109245238Y-50011904D01*
X109473809Y-50011904D01*
X109550000Y-49973809D01*
X109588095Y-49935714D01*
X108254761Y-49478571D02*
X107950000Y-49478571D01*
X108140476Y-49211904D02*
X108140476Y-49897619D01*
X108102380Y-49973809D01*
X108026190Y-50011904D01*
X107950000Y-50011904D01*
X107683333Y-50011904D02*
X107683333Y-49478571D01*
X107683333Y-49211904D02*
X107721428Y-49250000D01*
X107683333Y-49288095D01*
X107645238Y-49250000D01*
X107683333Y-49211904D01*
X107683333Y-49288095D01*
X107302380Y-49478571D02*
X107302380Y-50011904D01*
X107302380Y-49554761D02*
X107264285Y-49516666D01*
X107188095Y-49478571D01*
X107073809Y-49478571D01*
X106997619Y-49516666D01*
X106959523Y-49592857D01*
X106959523Y-50011904D01*
X106654761Y-49478571D02*
X106464285Y-50011904D01*
X106273809Y-49478571D02*
X106464285Y-50011904D01*
X106540476Y-50202380D01*
X106578571Y-50240476D01*
X106654761Y-50278571D01*
X105969047Y-49478571D02*
X105969047Y-50278571D01*
X105969047Y-49516666D02*
X105892857Y-49478571D01*
X105740476Y-49478571D01*
X105664285Y-49516666D01*
X105626190Y-49554761D01*
X105588095Y-49630952D01*
X105588095Y-49859523D01*
X105626190Y-49935714D01*
X105664285Y-49973809D01*
X105740476Y-50011904D01*
X105892857Y-50011904D01*
X105969047Y-49973809D01*
X105245238Y-50011904D02*
X105245238Y-49478571D01*
X105245238Y-49211904D02*
X105283333Y-49250000D01*
X105245238Y-49288095D01*
X105207142Y-49250000D01*
X105245238Y-49211904D01*
X105245238Y-49288095D01*
X104521428Y-49973809D02*
X104597619Y-50011904D01*
X104750000Y-50011904D01*
X104826190Y-49973809D01*
X104864285Y-49935714D01*
X104902380Y-49859523D01*
X104902380Y-49630952D01*
X104864285Y-49554761D01*
X104826190Y-49516666D01*
X104750000Y-49478571D01*
X104597619Y-49478571D01*
X104521428Y-49516666D01*
X104064285Y-50011904D02*
X104140476Y-49973809D01*
X104178571Y-49935714D01*
X104216666Y-49859523D01*
X104216666Y-49630952D01*
X104178571Y-49554761D01*
X104140476Y-49516666D01*
X104064285Y-49478571D01*
X103950000Y-49478571D01*
X103873809Y-49516666D01*
X103835714Y-49554761D01*
X103797619Y-49630952D01*
X103797619Y-49859523D01*
X103835714Y-49935714D01*
X103873809Y-49973809D01*
X103950000Y-50011904D01*
X104064285Y-50011904D01*
X102845238Y-50011904D02*
X102845238Y-49211904D01*
X102311904Y-49211904D02*
X102159523Y-49211904D01*
X102083333Y-49250000D01*
X102007142Y-49326190D01*
X101969047Y-49478571D01*
X101969047Y-49745238D01*
X102007142Y-49897619D01*
X102083333Y-49973809D01*
X102159523Y-50011904D01*
X102311904Y-50011904D01*
X102388095Y-49973809D01*
X102464285Y-49897619D01*
X102502380Y-49745238D01*
X102502380Y-49478571D01*
X102464285Y-49326190D01*
X102388095Y-49250000D01*
X102311904Y-49211904D01*
X101588095Y-49402380D02*
X101588095Y-50011904D01*
X101550000Y-49440476D02*
X101550000Y-49973809D01*
X101511904Y-49440476D02*
X101511904Y-49973809D01*
X101473809Y-49478571D02*
X101473809Y-49935714D01*
X101435714Y-49478571D02*
X101435714Y-49935714D01*
X101397619Y-49516666D02*
X101397619Y-49897619D01*
X101359523Y-49516666D02*
X101359523Y-49897619D01*
X101321428Y-49554761D02*
X101321428Y-49859523D01*
X101283333Y-49592857D02*
X101283333Y-49821428D01*
X101245238Y-49592857D02*
X101245238Y-49821428D01*
X101207142Y-49630952D02*
X101207142Y-49783333D01*
X101169047Y-49630952D02*
X101169047Y-49783333D01*
X101130952Y-49707142D02*
X101092857Y-49707142D01*
X101130952Y-49669047D02*
X101130952Y-49745238D01*
X101626190Y-49402380D02*
X101054761Y-49707142D01*
X101626190Y-50011904D01*
X101016666Y-49707142D02*
X101626190Y-50050000D01*
X101626190Y-49364285D01*
X101016666Y-49707142D01*
X76692857Y-50178571D02*
X76692857Y-49621428D01*
X76350000Y-49921428D01*
X76350000Y-49792857D01*
X76307142Y-49707142D01*
X76264285Y-49664285D01*
X76178571Y-49621428D01*
X75964285Y-49621428D01*
X75878571Y-49664285D01*
X75835714Y-49707142D01*
X75792857Y-49792857D01*
X75792857Y-50050000D01*
X75835714Y-50135714D01*
X75878571Y-50178571D01*
X76692857Y-48807142D02*
X76692857Y-49235714D01*
X76264285Y-49278571D01*
X76307142Y-49235714D01*
X76350000Y-49150000D01*
X76350000Y-48935714D01*
X76307142Y-48850000D01*
X76264285Y-48807142D01*
X76178571Y-48764285D01*
X75964285Y-48764285D01*
X75878571Y-48807142D01*
X75835714Y-48850000D01*
X75792857Y-48935714D01*
X75792857Y-49150000D01*
X75835714Y-49235714D01*
X75878571Y-49278571D01*
%LPC*%
D14*
X108688600Y-50740000D03*
X105691400Y-50740000D03*
D15*
X76254000Y-36080000D03*
D16*
X78794000Y-36080000D03*
D15*
X81334000Y-36080000D03*
X83874000Y-36080000D03*
D16*
X99114000Y-51320000D03*
D15*
X96574000Y-51320000D03*
X94034000Y-51320000D03*
X91494000Y-51320000D03*
X88954000Y-51320000D03*
X86414000Y-51320000D03*
X83874000Y-51320000D03*
X81334000Y-51320000D03*
X78794000Y-51320000D03*
X76254000Y-51320000D03*
M02*
