G04 #@! TF.GenerationSoftware,KiCad,Pcbnew,6.0.8-f2edbf62ab~116~ubuntu20.04.1*
G04 #@! TF.CreationDate,2022-10-29T07:55:17+02:00*
G04 #@! TF.ProjectId,tinypico-goodisplay,74696e79-7069-4636-9f2d-676f6f646973,rev?*
G04 #@! TF.SameCoordinates,Original*
G04 #@! TF.FileFunction,Legend,Bot*
G04 #@! TF.FilePolarity,Positive*
%FSLAX46Y46*%
G04 Gerber Fmt 4.6, Leading zero omitted, Abs format (unit mm)*
G04 Created by KiCad (PCBNEW 6.0.8-f2edbf62ab~116~ubuntu20.04.1) date 2022-10-29 07:55:17*
%MOMM*%
%LPD*%
G01*
G04 APERTURE LIST*
G04 Aperture macros list*
%AMRoundRect*
0 Rectangle with rounded corners*
0 $1 Rounding radius*
0 $2 $3 $4 $5 $6 $7 $8 $9 X,Y pos of 4 corners*
0 Add a 4 corners polygon primitive as box body*
4,1,4,$2,$3,$4,$5,$6,$7,$8,$9,$2,$3,0*
0 Add four circle primitives for the rounded corners*
1,1,$1+$1,$2,$3*
1,1,$1+$1,$4,$5*
1,1,$1+$1,$6,$7*
1,1,$1+$1,$8,$9*
0 Add four rect primitives between the rounded corners*
20,1,$1+$1,$2,$3,$4,$5,0*
20,1,$1+$1,$4,$5,$6,$7,0*
20,1,$1+$1,$6,$7,$8,$9,0*
20,1,$1+$1,$8,$9,$2,$3,0*%
G04 Aperture macros list end*
%ADD10C,0.150000*%
%ADD11C,0.130000*%
%ADD12C,0.250000*%
%ADD13C,0.300000*%
%ADD14C,0.140000*%
%ADD15C,0.254000*%
%ADD16C,0.200000*%
%ADD17C,0.120000*%
%ADD18C,0.889000*%
%ADD19C,1.473200*%
%ADD20RoundRect,0.025400X0.635000X-0.635000X0.635000X0.635000X-0.635000X0.635000X-0.635000X-0.635000X0*%
%ADD21R,4.350000X2.300000*%
%ADD22R,4.040000X2.300000*%
%ADD23RoundRect,0.200000X0.200000X0.275000X-0.200000X0.275000X-0.200000X-0.275000X0.200000X-0.275000X0*%
G04 APERTURE END LIST*
D10*
X84875000Y-40900000D02*
X75825000Y-40900000D01*
X84875000Y-45900000D02*
X84875000Y-40900000D01*
X75825000Y-40900000D02*
X75825000Y-44900000D01*
X75825000Y-44900000D02*
X76775000Y-45900000D01*
X76775000Y-45900000D02*
X84875000Y-45900000D01*
D11*
X94478835Y-49707142D02*
X94478835Y-49878571D01*
X94435978Y-49964285D01*
X94393120Y-50007142D01*
X94264549Y-50092856D01*
X94093120Y-50135713D01*
X93750263Y-50135713D01*
X93664549Y-50092856D01*
X93621692Y-50049999D01*
X93578835Y-49964285D01*
X93578835Y-49792856D01*
X93621692Y-49707142D01*
X93664549Y-49664285D01*
X93750263Y-49621428D01*
X93964549Y-49621428D01*
X94050263Y-49664285D01*
X94093120Y-49707142D01*
X94135978Y-49792856D01*
X94135978Y-49964285D01*
X94093120Y-50049999D01*
X94050263Y-50092856D01*
X93964549Y-50135713D01*
X79233711Y-50178571D02*
X79233711Y-49621428D01*
X78890854Y-49921428D01*
X78890854Y-49792857D01*
X78847996Y-49707142D01*
X78805139Y-49664285D01*
X78719425Y-49621428D01*
X78505139Y-49621428D01*
X78419425Y-49664285D01*
X78376568Y-49707142D01*
X78333711Y-49792857D01*
X78333711Y-50050000D01*
X78376568Y-50135714D01*
X78419425Y-50178571D01*
X79233711Y-49321428D02*
X79233711Y-48721428D01*
X78333711Y-49107142D01*
X99517686Y-49621428D02*
X99560543Y-49707142D01*
X99560543Y-49835714D01*
X99517686Y-49964285D01*
X99431971Y-50049999D01*
X99346257Y-50092856D01*
X99174828Y-50135714D01*
X99046257Y-50135714D01*
X98874828Y-50092856D01*
X98789114Y-50049999D01*
X98703400Y-49964285D01*
X98660543Y-49835714D01*
X98660543Y-49749999D01*
X98703400Y-49621428D01*
X98746257Y-49578571D01*
X99046257Y-49578571D01*
X99046257Y-49749999D01*
X98660543Y-49192856D02*
X99560543Y-49192856D01*
X98660543Y-48678571D01*
X99560543Y-48678571D01*
X98660543Y-48249999D02*
X99560543Y-48249999D01*
X99560543Y-48035714D01*
X99517686Y-47907142D01*
X99431971Y-47821428D01*
X99346257Y-47778571D01*
X99174828Y-47735714D01*
X99046257Y-47735714D01*
X98874828Y-47778571D01*
X98789114Y-47821428D01*
X98703400Y-47907142D01*
X98660543Y-48035714D01*
X98660543Y-48249999D01*
X99222642Y-39017904D02*
X99070261Y-39017904D01*
X98994071Y-39056000D01*
X98917880Y-39132190D01*
X98879785Y-39284571D01*
X98879785Y-39551238D01*
X98917880Y-39703619D01*
X98994071Y-39779809D01*
X99070261Y-39817904D01*
X99222642Y-39817904D01*
X99298833Y-39779809D01*
X99375023Y-39703619D01*
X99413119Y-39551238D01*
X99413119Y-39284571D01*
X99375023Y-39132190D01*
X99298833Y-39056000D01*
X99222642Y-39017904D01*
X98536928Y-39284571D02*
X98536928Y-40084571D01*
X98536928Y-39322666D02*
X98460738Y-39284571D01*
X98308357Y-39284571D01*
X98232166Y-39322666D01*
X98194071Y-39360761D01*
X98155976Y-39436952D01*
X98155976Y-39665523D01*
X98194071Y-39741714D01*
X98232166Y-39779809D01*
X98308357Y-39817904D01*
X98460738Y-39817904D01*
X98536928Y-39779809D01*
X97927404Y-39284571D02*
X97622642Y-39284571D01*
X97813119Y-39017904D02*
X97813119Y-39703619D01*
X97775023Y-39779809D01*
X97698833Y-39817904D01*
X97622642Y-39817904D01*
X97355976Y-39817904D02*
X97355976Y-39284571D01*
X97355976Y-39017904D02*
X97394071Y-39056000D01*
X97355976Y-39094095D01*
X97317880Y-39056000D01*
X97355976Y-39017904D01*
X97355976Y-39094095D01*
X96860738Y-39817904D02*
X96936928Y-39779809D01*
X96975023Y-39741714D01*
X97013119Y-39665523D01*
X97013119Y-39436952D01*
X96975023Y-39360761D01*
X96936928Y-39322666D01*
X96860738Y-39284571D01*
X96746452Y-39284571D01*
X96670261Y-39322666D01*
X96632166Y-39360761D01*
X96594071Y-39436952D01*
X96594071Y-39665523D01*
X96632166Y-39741714D01*
X96670261Y-39779809D01*
X96746452Y-39817904D01*
X96860738Y-39817904D01*
X96251214Y-39284571D02*
X96251214Y-39817904D01*
X96251214Y-39360761D02*
X96213119Y-39322666D01*
X96136928Y-39284571D01*
X96022642Y-39284571D01*
X95946452Y-39322666D01*
X95908357Y-39398857D01*
X95908357Y-39817904D01*
X95184547Y-39817904D02*
X95184547Y-39398857D01*
X95222642Y-39322666D01*
X95298833Y-39284571D01*
X95451214Y-39284571D01*
X95527404Y-39322666D01*
X95184547Y-39779809D02*
X95260738Y-39817904D01*
X95451214Y-39817904D01*
X95527404Y-39779809D01*
X95565500Y-39703619D01*
X95565500Y-39627428D01*
X95527404Y-39551238D01*
X95451214Y-39513142D01*
X95260738Y-39513142D01*
X95184547Y-39475047D01*
X94689309Y-39817904D02*
X94765500Y-39779809D01*
X94803595Y-39703619D01*
X94803595Y-39017904D01*
X93775023Y-39284571D02*
X93775023Y-40084571D01*
X93775023Y-39322666D02*
X93698833Y-39284571D01*
X93546452Y-39284571D01*
X93470261Y-39322666D01*
X93432166Y-39360761D01*
X93394071Y-39436952D01*
X93394071Y-39665523D01*
X93432166Y-39741714D01*
X93470261Y-39779809D01*
X93546452Y-39817904D01*
X93698833Y-39817904D01*
X93775023Y-39779809D01*
X92708357Y-39284571D02*
X92708357Y-39817904D01*
X93051214Y-39284571D02*
X93051214Y-39703619D01*
X93013119Y-39779809D01*
X92936928Y-39817904D01*
X92822642Y-39817904D01*
X92746452Y-39779809D01*
X92708357Y-39741714D01*
X92213119Y-39817904D02*
X92289309Y-39779809D01*
X92327404Y-39703619D01*
X92327404Y-39017904D01*
X91794071Y-39817904D02*
X91870261Y-39779809D01*
X91908357Y-39703619D01*
X91908357Y-39017904D01*
X91489309Y-39513142D02*
X90879785Y-39513142D01*
X90155976Y-39284571D02*
X90155976Y-39817904D01*
X90498833Y-39284571D02*
X90498833Y-39703619D01*
X90460738Y-39779809D01*
X90384547Y-39817904D01*
X90270261Y-39817904D01*
X90194071Y-39779809D01*
X90155976Y-39741714D01*
X89775023Y-39284571D02*
X89775023Y-40084571D01*
X89775023Y-39322666D02*
X89698833Y-39284571D01*
X89546452Y-39284571D01*
X89470261Y-39322666D01*
X89432166Y-39360761D01*
X89394071Y-39436952D01*
X89394071Y-39665523D01*
X89432166Y-39741714D01*
X89470261Y-39779809D01*
X89546452Y-39817904D01*
X89698833Y-39817904D01*
X89775023Y-39779809D01*
X88403595Y-39208380D02*
X88403595Y-39817904D01*
X88365500Y-39246476D02*
X88365500Y-39779809D01*
X88327404Y-39246476D02*
X88327404Y-39779809D01*
X88289309Y-39284571D02*
X88289309Y-39741714D01*
X88251214Y-39284571D02*
X88251214Y-39741714D01*
X88213119Y-39322666D02*
X88213119Y-39703619D01*
X88175023Y-39322666D02*
X88175023Y-39703619D01*
X88136928Y-39360761D02*
X88136928Y-39665523D01*
X88098833Y-39398857D02*
X88098833Y-39627428D01*
X88060738Y-39398857D02*
X88060738Y-39627428D01*
X88022642Y-39436952D02*
X88022642Y-39589333D01*
X87984547Y-39436952D02*
X87984547Y-39589333D01*
X87946452Y-39513142D02*
X87908357Y-39513142D01*
X87946452Y-39475047D02*
X87946452Y-39551238D01*
X88441690Y-39208380D02*
X87870261Y-39513142D01*
X88441690Y-39817904D01*
X87832166Y-39513142D02*
X88441690Y-39856000D01*
X88441690Y-39170285D01*
X87832166Y-39513142D01*
X99375023Y-40686857D02*
X99108357Y-40686857D01*
X98994071Y-41105904D02*
X99375023Y-41105904D01*
X99375023Y-40305904D01*
X98994071Y-40305904D01*
X98651214Y-41105904D02*
X98651214Y-40305904D01*
X98346452Y-40305904D01*
X98270261Y-40344000D01*
X98232166Y-40382095D01*
X98194071Y-40458285D01*
X98194071Y-40572571D01*
X98232166Y-40648761D01*
X98270261Y-40686857D01*
X98346452Y-40724952D01*
X98651214Y-40724952D01*
X97851214Y-41105904D02*
X97851214Y-40305904D01*
X97660738Y-40305904D01*
X97546452Y-40344000D01*
X97470261Y-40420190D01*
X97432166Y-40496380D01*
X97394071Y-40648761D01*
X97394071Y-40763047D01*
X97432166Y-40915428D01*
X97470261Y-40991619D01*
X97546452Y-41067809D01*
X97660738Y-41105904D01*
X97851214Y-41105904D01*
X97241690Y-41182095D02*
X96632166Y-41182095D01*
X95984547Y-41105904D02*
X96251214Y-40724952D01*
X96441690Y-41105904D02*
X96441690Y-40305904D01*
X96136928Y-40305904D01*
X96060738Y-40344000D01*
X96022642Y-40382095D01*
X95984547Y-40458285D01*
X95984547Y-40572571D01*
X96022642Y-40648761D01*
X96060738Y-40686857D01*
X96136928Y-40724952D01*
X96441690Y-40724952D01*
X95679785Y-41067809D02*
X95565500Y-41105904D01*
X95375023Y-41105904D01*
X95298833Y-41067809D01*
X95260738Y-41029714D01*
X95222642Y-40953523D01*
X95222642Y-40877333D01*
X95260738Y-40801142D01*
X95298833Y-40763047D01*
X95375023Y-40724952D01*
X95527404Y-40686857D01*
X95603595Y-40648761D01*
X95641690Y-40610666D01*
X95679785Y-40534476D01*
X95679785Y-40458285D01*
X95641690Y-40382095D01*
X95603595Y-40344000D01*
X95527404Y-40305904D01*
X95336928Y-40305904D01*
X95222642Y-40344000D01*
X94994071Y-40305904D02*
X94536928Y-40305904D01*
X94765500Y-41105904D02*
X94765500Y-40305904D01*
X93775023Y-40572571D02*
X93470261Y-40572571D01*
X93660738Y-40305904D02*
X93660738Y-40991619D01*
X93622642Y-41067809D01*
X93546452Y-41105904D01*
X93470261Y-41105904D01*
X93089309Y-41105904D02*
X93165500Y-41067809D01*
X93203595Y-41029714D01*
X93241690Y-40953523D01*
X93241690Y-40724952D01*
X93203595Y-40648761D01*
X93165500Y-40610666D01*
X93089309Y-40572571D01*
X92975023Y-40572571D01*
X92898833Y-40610666D01*
X92860738Y-40648761D01*
X92822642Y-40724952D01*
X92822642Y-40953523D01*
X92860738Y-41029714D01*
X92898833Y-41067809D01*
X92975023Y-41105904D01*
X93089309Y-41105904D01*
X91946452Y-40305904D02*
X91451214Y-40305904D01*
X91717880Y-40610666D01*
X91603595Y-40610666D01*
X91527404Y-40648761D01*
X91489309Y-40686857D01*
X91451214Y-40763047D01*
X91451214Y-40953523D01*
X91489309Y-41029714D01*
X91527404Y-41067809D01*
X91603595Y-41105904D01*
X91832166Y-41105904D01*
X91908357Y-41067809D01*
X91946452Y-41029714D01*
X91222642Y-40305904D02*
X90955976Y-41105904D01*
X90689309Y-40305904D01*
X90498833Y-40305904D02*
X90003595Y-40305904D01*
X90270261Y-40610666D01*
X90155976Y-40610666D01*
X90079785Y-40648761D01*
X90041690Y-40686857D01*
X90003595Y-40763047D01*
X90003595Y-40953523D01*
X90041690Y-41029714D01*
X90079785Y-41067809D01*
X90155976Y-41105904D01*
X90384547Y-41105904D01*
X90460738Y-41067809D01*
X90498833Y-41029714D01*
X79485714Y-37600000D02*
X79571428Y-37557142D01*
X79700000Y-37557142D01*
X79828571Y-37600000D01*
X79914285Y-37685714D01*
X79957142Y-37771428D01*
X80000000Y-37942857D01*
X80000000Y-38071428D01*
X79957142Y-38242857D01*
X79914285Y-38328571D01*
X79828571Y-38414285D01*
X79700000Y-38457142D01*
X79614285Y-38457142D01*
X79485714Y-38414285D01*
X79442857Y-38371428D01*
X79442857Y-38071428D01*
X79614285Y-38071428D01*
X79057142Y-38457142D02*
X79057142Y-37557142D01*
X78542857Y-38457142D01*
X78542857Y-37557142D01*
X78114285Y-38457142D02*
X78114285Y-37557142D01*
X77900000Y-37557142D01*
X77771428Y-37600000D01*
X77685714Y-37685714D01*
X77642857Y-37771428D01*
X77600000Y-37942857D01*
X77600000Y-38071428D01*
X77642857Y-38242857D01*
X77685714Y-38328571D01*
X77771428Y-38414285D01*
X77900000Y-38457142D01*
X78114285Y-38457142D01*
D12*
X81558333Y-44950000D02*
X81625000Y-45016666D01*
X81825000Y-45083333D01*
X81958333Y-45083333D01*
X82158333Y-45016666D01*
X82291666Y-44883333D01*
X82358333Y-44750000D01*
X82425000Y-44483333D01*
X82425000Y-44283333D01*
X82358333Y-44016666D01*
X82291666Y-43883333D01*
X82158333Y-43750000D01*
X81958333Y-43683333D01*
X81825000Y-43683333D01*
X81625000Y-43750000D01*
X81558333Y-43816666D01*
X80691666Y-43683333D02*
X80425000Y-43683333D01*
X80291666Y-43750000D01*
X80158333Y-43883333D01*
X80091666Y-44150000D01*
X80091666Y-44616666D01*
X80158333Y-44883333D01*
X80291666Y-45016666D01*
X80425000Y-45083333D01*
X80691666Y-45083333D01*
X80825000Y-45016666D01*
X80958333Y-44883333D01*
X81025000Y-44616666D01*
X81025000Y-44150000D01*
X80958333Y-43883333D01*
X80825000Y-43750000D01*
X80691666Y-43683333D01*
X78691666Y-45083333D02*
X79158333Y-44416666D01*
X79491666Y-45083333D02*
X79491666Y-43683333D01*
X78958333Y-43683333D01*
X78825000Y-43750000D01*
X78758333Y-43816666D01*
X78691666Y-43950000D01*
X78691666Y-44150000D01*
X78758333Y-44283333D01*
X78825000Y-44350000D01*
X78958333Y-44416666D01*
X79491666Y-44416666D01*
X78091666Y-45083333D02*
X78091666Y-43683333D01*
X77558333Y-43683333D01*
X77425000Y-43750000D01*
X77358333Y-43816666D01*
X77291666Y-43950000D01*
X77291666Y-44150000D01*
X77358333Y-44283333D01*
X77425000Y-44350000D01*
X77558333Y-44416666D01*
X78091666Y-44416666D01*
X76691666Y-44950000D02*
X76625000Y-45016666D01*
X76691666Y-45083333D01*
X76758333Y-45016666D01*
X76691666Y-44950000D01*
X76691666Y-45083333D01*
D11*
X81774565Y-50178571D02*
X81774565Y-49621428D01*
X81431708Y-49921428D01*
X81431708Y-49792857D01*
X81388850Y-49707142D01*
X81345993Y-49664285D01*
X81260279Y-49621428D01*
X81045993Y-49621428D01*
X80960279Y-49664285D01*
X80917422Y-49707142D01*
X80874565Y-49792857D01*
X80874565Y-50050000D01*
X80917422Y-50135714D01*
X80960279Y-50178571D01*
X81774565Y-48850000D02*
X81774565Y-49021428D01*
X81731708Y-49107142D01*
X81688850Y-49150000D01*
X81560279Y-49235714D01*
X81388850Y-49278571D01*
X81045993Y-49278571D01*
X80960279Y-49235714D01*
X80917422Y-49192857D01*
X80874565Y-49107142D01*
X80874565Y-48935714D01*
X80917422Y-48850000D01*
X80960279Y-48807142D01*
X81045993Y-48764285D01*
X81260279Y-48764285D01*
X81345993Y-48807142D01*
X81388850Y-48850000D01*
X81431708Y-48935714D01*
X81431708Y-49107142D01*
X81388850Y-49192857D01*
X81345993Y-49235714D01*
X81260279Y-49278571D01*
X87300000Y-38457142D02*
X87300000Y-37557142D01*
X86700000Y-37557142D02*
X86528571Y-37557142D01*
X86442857Y-37600000D01*
X86357142Y-37685714D01*
X86314285Y-37857142D01*
X86314285Y-38157142D01*
X86357142Y-38328571D01*
X86442857Y-38414285D01*
X86528571Y-38457142D01*
X86700000Y-38457142D01*
X86785714Y-38414285D01*
X86871428Y-38328571D01*
X86914285Y-38157142D01*
X86914285Y-37857142D01*
X86871428Y-37685714D01*
X86785714Y-37600000D01*
X86700000Y-37557142D01*
X85457142Y-38457142D02*
X85971428Y-38457142D01*
X85714285Y-38457142D02*
X85714285Y-37557142D01*
X85800000Y-37685714D01*
X85885714Y-37771428D01*
X85971428Y-37814285D01*
X89011412Y-49964285D02*
X89054270Y-50049999D01*
X89097127Y-50092856D01*
X89182841Y-50135713D01*
X89225698Y-50135713D01*
X89311412Y-50092856D01*
X89354270Y-50049999D01*
X89397127Y-49964285D01*
X89397127Y-49792856D01*
X89354270Y-49707142D01*
X89311412Y-49664285D01*
X89225698Y-49621428D01*
X89182841Y-49621428D01*
X89097127Y-49664285D01*
X89054270Y-49707142D01*
X89011412Y-49792856D01*
X89011412Y-49964285D01*
X88968555Y-50049999D01*
X88925698Y-50092856D01*
X88839984Y-50135713D01*
X88668555Y-50135713D01*
X88582841Y-50092856D01*
X88539984Y-50049999D01*
X88497127Y-49964285D01*
X88497127Y-49792856D01*
X88539984Y-49707142D01*
X88582841Y-49664285D01*
X88668555Y-49621428D01*
X88839984Y-49621428D01*
X88925698Y-49664285D01*
X88968555Y-49707142D01*
X89011412Y-49792856D01*
D13*
X84008333Y-42350000D02*
X84475000Y-42350000D01*
X84475000Y-43083333D02*
X84475000Y-41683333D01*
X83808333Y-41683333D01*
X83341666Y-42683333D02*
X82675000Y-42683333D01*
X83475000Y-43083333D02*
X83008333Y-41683333D01*
X82541666Y-43083333D01*
X82141666Y-43016666D02*
X81941666Y-43083333D01*
X81608333Y-43083333D01*
X81475000Y-43016666D01*
X81408333Y-42950000D01*
X81341666Y-42816666D01*
X81341666Y-42683333D01*
X81408333Y-42550000D01*
X81475000Y-42483333D01*
X81608333Y-42416666D01*
X81875000Y-42350000D01*
X82008333Y-42283333D01*
X82075000Y-42216666D01*
X82141666Y-42083333D01*
X82141666Y-41950000D01*
X82075000Y-41816666D01*
X82008333Y-41750000D01*
X81875000Y-41683333D01*
X81541666Y-41683333D01*
X81341666Y-41750000D01*
X80808333Y-42683333D02*
X80141666Y-42683333D01*
X80941666Y-43083333D02*
X80475000Y-41683333D01*
X80008333Y-43083333D01*
X79541666Y-43083333D02*
X79541666Y-41683333D01*
X78741666Y-43083333D01*
X78741666Y-41683333D01*
X78075000Y-43083333D02*
X78075000Y-41683333D01*
D11*
X91937981Y-50178571D02*
X91937981Y-49578571D01*
X91037981Y-49964285D01*
X81571428Y-37557142D02*
X82000000Y-37557142D01*
X82042857Y-37985714D01*
X82000000Y-37942857D01*
X81914285Y-37900000D01*
X81700000Y-37900000D01*
X81614285Y-37942857D01*
X81571428Y-37985714D01*
X81528571Y-38071428D01*
X81528571Y-38285714D01*
X81571428Y-38371428D01*
X81614285Y-38414285D01*
X81700000Y-38457142D01*
X81914285Y-38457142D01*
X82000000Y-38414285D01*
X82042857Y-38371428D01*
X81271428Y-37557142D02*
X80971428Y-38457142D01*
X80671428Y-37557142D01*
D14*
X122538095Y-51311904D02*
X122042857Y-51311904D01*
X122309523Y-51616666D01*
X122195238Y-51616666D01*
X122119047Y-51654761D01*
X122080952Y-51692857D01*
X122042857Y-51769047D01*
X122042857Y-51959523D01*
X122080952Y-52035714D01*
X122119047Y-52073809D01*
X122195238Y-52111904D01*
X122423809Y-52111904D01*
X122500000Y-52073809D01*
X122538095Y-52035714D01*
X121814285Y-51311904D02*
X121547619Y-52111904D01*
X121280952Y-51311904D01*
X119947619Y-52035714D02*
X119985714Y-52073809D01*
X120100000Y-52111904D01*
X120176190Y-52111904D01*
X120290476Y-52073809D01*
X120366666Y-51997619D01*
X120404761Y-51921428D01*
X120442857Y-51769047D01*
X120442857Y-51654761D01*
X120404761Y-51502380D01*
X120366666Y-51426190D01*
X120290476Y-51350000D01*
X120176190Y-51311904D01*
X120100000Y-51311904D01*
X119985714Y-51350000D01*
X119947619Y-51388095D01*
X119147619Y-52111904D02*
X119414285Y-51730952D01*
X119604761Y-52111904D02*
X119604761Y-51311904D01*
X119300000Y-51311904D01*
X119223809Y-51350000D01*
X119185714Y-51388095D01*
X119147619Y-51464285D01*
X119147619Y-51578571D01*
X119185714Y-51654761D01*
X119223809Y-51692857D01*
X119300000Y-51730952D01*
X119604761Y-51730952D01*
X118385714Y-52111904D02*
X118842857Y-52111904D01*
X118614285Y-52111904D02*
X118614285Y-51311904D01*
X118690476Y-51426190D01*
X118766666Y-51502380D01*
X118842857Y-51540476D01*
X118080952Y-51388095D02*
X118042857Y-51350000D01*
X117966666Y-51311904D01*
X117776190Y-51311904D01*
X117700000Y-51350000D01*
X117661904Y-51388095D01*
X117623809Y-51464285D01*
X117623809Y-51540476D01*
X117661904Y-51654761D01*
X118119047Y-52111904D01*
X117623809Y-52111904D01*
X117319047Y-51388095D02*
X117280952Y-51350000D01*
X117204761Y-51311904D01*
X117014285Y-51311904D01*
X116938095Y-51350000D01*
X116900000Y-51388095D01*
X116861904Y-51464285D01*
X116861904Y-51540476D01*
X116900000Y-51654761D01*
X117357142Y-52111904D01*
X116861904Y-52111904D01*
X116366666Y-51311904D02*
X116290476Y-51311904D01*
X116214285Y-51350000D01*
X116176190Y-51388095D01*
X116138095Y-51464285D01*
X116100000Y-51616666D01*
X116100000Y-51807142D01*
X116138095Y-51959523D01*
X116176190Y-52035714D01*
X116214285Y-52073809D01*
X116290476Y-52111904D01*
X116366666Y-52111904D01*
X116442857Y-52073809D01*
X116480952Y-52035714D01*
X116519047Y-51959523D01*
X116557142Y-51807142D01*
X116557142Y-51616666D01*
X116519047Y-51464285D01*
X116480952Y-51388095D01*
X116442857Y-51350000D01*
X116366666Y-51311904D01*
D11*
X85956273Y-50049999D02*
X85956273Y-49878571D01*
X85999130Y-49792856D01*
X86041987Y-49749999D01*
X86170558Y-49664285D01*
X86341987Y-49621428D01*
X86684844Y-49621428D01*
X86770558Y-49664285D01*
X86813416Y-49707142D01*
X86856273Y-49792856D01*
X86856273Y-49964285D01*
X86813416Y-50049999D01*
X86770558Y-50092856D01*
X86684844Y-50135713D01*
X86470558Y-50135713D01*
X86384844Y-50092856D01*
X86341987Y-50049999D01*
X86299130Y-49964285D01*
X86299130Y-49792856D01*
X86341987Y-49707142D01*
X86384844Y-49664285D01*
X86470558Y-49621428D01*
X96119689Y-49578571D02*
X96548260Y-49878571D01*
X96119689Y-50092856D02*
X97019689Y-50092856D01*
X97019689Y-49749999D01*
X96976832Y-49664285D01*
X96933974Y-49621428D01*
X96848260Y-49578571D01*
X96719689Y-49578571D01*
X96633974Y-49621428D01*
X96591117Y-49664285D01*
X96548260Y-49749999D01*
X96548260Y-50092856D01*
X96162546Y-49235714D02*
X96119689Y-49107142D01*
X96119689Y-48892856D01*
X96162546Y-48807142D01*
X96205403Y-48764285D01*
X96291117Y-48721428D01*
X96376832Y-48721428D01*
X96462546Y-48764285D01*
X96505403Y-48807142D01*
X96548260Y-48892856D01*
X96591117Y-49064285D01*
X96633974Y-49149999D01*
X96676832Y-49192856D01*
X96762546Y-49235714D01*
X96848260Y-49235714D01*
X96933974Y-49192856D01*
X96976832Y-49149999D01*
X97019689Y-49064285D01*
X97019689Y-48849999D01*
X96976832Y-48721428D01*
X97019689Y-48464285D02*
X97019689Y-47949999D01*
X96119689Y-48207142D02*
X97019689Y-48207142D01*
X84315419Y-50178571D02*
X84315419Y-49621428D01*
X83972562Y-49921428D01*
X83972562Y-49792857D01*
X83929704Y-49707142D01*
X83886847Y-49664285D01*
X83801133Y-49621428D01*
X83586847Y-49621428D01*
X83501133Y-49664285D01*
X83458276Y-49707142D01*
X83415419Y-49792857D01*
X83415419Y-50050000D01*
X83458276Y-50135714D01*
X83501133Y-50178571D01*
X84015419Y-48850000D02*
X83415419Y-48850000D01*
X84358276Y-49064285D02*
X83715419Y-49278571D01*
X83715419Y-48721428D01*
X84914285Y-37557142D02*
X84357142Y-37557142D01*
X84657142Y-37900000D01*
X84528571Y-37900000D01*
X84442857Y-37942857D01*
X84400000Y-37985714D01*
X84357142Y-38071428D01*
X84357142Y-38285714D01*
X84400000Y-38371428D01*
X84442857Y-38414285D01*
X84528571Y-38457142D01*
X84785714Y-38457142D01*
X84871428Y-38414285D01*
X84914285Y-38371428D01*
X84100000Y-37557142D02*
X83800000Y-38457142D01*
X83500000Y-37557142D01*
X83285714Y-37557142D02*
X82728571Y-37557142D01*
X83028571Y-37900000D01*
X82900000Y-37900000D01*
X82814285Y-37942857D01*
X82771428Y-37985714D01*
X82728571Y-38071428D01*
X82728571Y-38285714D01*
X82771428Y-38371428D01*
X82814285Y-38414285D01*
X82900000Y-38457142D01*
X83157142Y-38457142D01*
X83242857Y-38414285D01*
X83285714Y-38371428D01*
X77078571Y-37557142D02*
X76778571Y-38457142D01*
X76478571Y-37557142D01*
X75878571Y-37985714D02*
X75750000Y-38028571D01*
X75707142Y-38071428D01*
X75664285Y-38157142D01*
X75664285Y-38285714D01*
X75707142Y-38371428D01*
X75750000Y-38414285D01*
X75835714Y-38457142D01*
X76178571Y-38457142D01*
X76178571Y-37557142D01*
X75878571Y-37557142D01*
X75792857Y-37600000D01*
X75750000Y-37642857D01*
X75707142Y-37728571D01*
X75707142Y-37814285D01*
X75750000Y-37900000D01*
X75792857Y-37942857D01*
X75878571Y-37985714D01*
X76178571Y-37985714D01*
X75321428Y-38200000D02*
X74892857Y-38200000D01*
X75407142Y-38457142D02*
X75107142Y-37557142D01*
X74807142Y-38457142D01*
X74635714Y-37557142D02*
X74121428Y-37557142D01*
X74378571Y-38457142D02*
X74378571Y-37557142D01*
D15*
X102538095Y-42957142D02*
X104061904Y-42957142D01*
X103300000Y-42195238D02*
X103300000Y-43719047D01*
D11*
X106075023Y-47898857D02*
X105808357Y-47898857D01*
X105694071Y-48317904D02*
X106075023Y-48317904D01*
X106075023Y-47517904D01*
X105694071Y-47517904D01*
X105389309Y-48279809D02*
X105275023Y-48317904D01*
X105084547Y-48317904D01*
X105008357Y-48279809D01*
X104970261Y-48241714D01*
X104932166Y-48165523D01*
X104932166Y-48089333D01*
X104970261Y-48013142D01*
X105008357Y-47975047D01*
X105084547Y-47936952D01*
X105236928Y-47898857D01*
X105313119Y-47860761D01*
X105351214Y-47822666D01*
X105389309Y-47746476D01*
X105389309Y-47670285D01*
X105351214Y-47594095D01*
X105313119Y-47556000D01*
X105236928Y-47517904D01*
X105046452Y-47517904D01*
X104932166Y-47556000D01*
X104589309Y-48317904D02*
X104589309Y-47517904D01*
X104284547Y-47517904D01*
X104208357Y-47556000D01*
X104170261Y-47594095D01*
X104132166Y-47670285D01*
X104132166Y-47784571D01*
X104170261Y-47860761D01*
X104208357Y-47898857D01*
X104284547Y-47936952D01*
X104589309Y-47936952D01*
X103865500Y-47517904D02*
X103370261Y-47517904D01*
X103636928Y-47822666D01*
X103522642Y-47822666D01*
X103446452Y-47860761D01*
X103408357Y-47898857D01*
X103370261Y-47975047D01*
X103370261Y-48165523D01*
X103408357Y-48241714D01*
X103446452Y-48279809D01*
X103522642Y-48317904D01*
X103751214Y-48317904D01*
X103827404Y-48279809D01*
X103865500Y-48241714D01*
X103065500Y-47594095D02*
X103027404Y-47556000D01*
X102951214Y-47517904D01*
X102760738Y-47517904D01*
X102684547Y-47556000D01*
X102646452Y-47594095D01*
X102608357Y-47670285D01*
X102608357Y-47746476D01*
X102646452Y-47860761D01*
X103103595Y-48317904D01*
X102608357Y-48317904D01*
X102303595Y-48279809D02*
X102189309Y-48317904D01*
X101998833Y-48317904D01*
X101922642Y-48279809D01*
X101884547Y-48241714D01*
X101846452Y-48165523D01*
X101846452Y-48089333D01*
X101884547Y-48013142D01*
X101922642Y-47975047D01*
X101998833Y-47936952D01*
X102151214Y-47898857D01*
X102227404Y-47860761D01*
X102265500Y-47822666D01*
X102303595Y-47746476D01*
X102303595Y-47670285D01*
X102265500Y-47594095D01*
X102227404Y-47556000D01*
X102151214Y-47517904D01*
X101960738Y-47517904D01*
X101846452Y-47556000D01*
X101579785Y-47517904D02*
X101084547Y-47517904D01*
X101351214Y-47822666D01*
X101236928Y-47822666D01*
X101160738Y-47860761D01*
X101122642Y-47898857D01*
X101084547Y-47975047D01*
X101084547Y-48165523D01*
X101122642Y-48241714D01*
X101160738Y-48279809D01*
X101236928Y-48317904D01*
X101465500Y-48317904D01*
X101541690Y-48279809D01*
X101579785Y-48241714D01*
X106189309Y-49072571D02*
X105884547Y-49072571D01*
X106075023Y-48805904D02*
X106075023Y-49491619D01*
X106036928Y-49567809D01*
X105960738Y-49605904D01*
X105884547Y-49605904D01*
X105617880Y-49605904D02*
X105617880Y-49072571D01*
X105617880Y-48805904D02*
X105655976Y-48844000D01*
X105617880Y-48882095D01*
X105579785Y-48844000D01*
X105617880Y-48805904D01*
X105617880Y-48882095D01*
X105236928Y-49072571D02*
X105236928Y-49605904D01*
X105236928Y-49148761D02*
X105198833Y-49110666D01*
X105122642Y-49072571D01*
X105008357Y-49072571D01*
X104932166Y-49110666D01*
X104894071Y-49186857D01*
X104894071Y-49605904D01*
X104589309Y-49072571D02*
X104398833Y-49605904D01*
X104208357Y-49072571D02*
X104398833Y-49605904D01*
X104475023Y-49796380D01*
X104513119Y-49834476D01*
X104589309Y-49872571D01*
X103903595Y-49072571D02*
X103903595Y-49872571D01*
X103903595Y-49110666D02*
X103827404Y-49072571D01*
X103675023Y-49072571D01*
X103598833Y-49110666D01*
X103560738Y-49148761D01*
X103522642Y-49224952D01*
X103522642Y-49453523D01*
X103560738Y-49529714D01*
X103598833Y-49567809D01*
X103675023Y-49605904D01*
X103827404Y-49605904D01*
X103903595Y-49567809D01*
X103179785Y-49605904D02*
X103179785Y-49072571D01*
X103179785Y-48805904D02*
X103217880Y-48844000D01*
X103179785Y-48882095D01*
X103141690Y-48844000D01*
X103179785Y-48805904D01*
X103179785Y-48882095D01*
X102455976Y-49567809D02*
X102532166Y-49605904D01*
X102684547Y-49605904D01*
X102760738Y-49567809D01*
X102798833Y-49529714D01*
X102836928Y-49453523D01*
X102836928Y-49224952D01*
X102798833Y-49148761D01*
X102760738Y-49110666D01*
X102684547Y-49072571D01*
X102532166Y-49072571D01*
X102455976Y-49110666D01*
X101998833Y-49605904D02*
X102075023Y-49567809D01*
X102113119Y-49529714D01*
X102151214Y-49453523D01*
X102151214Y-49224952D01*
X102113119Y-49148761D01*
X102075023Y-49110666D01*
X101998833Y-49072571D01*
X101884547Y-49072571D01*
X101808357Y-49110666D01*
X101770261Y-49148761D01*
X101732166Y-49224952D01*
X101732166Y-49453523D01*
X101770261Y-49529714D01*
X101808357Y-49567809D01*
X101884547Y-49605904D01*
X101998833Y-49605904D01*
X100741690Y-48996380D02*
X100741690Y-49605904D01*
X100703595Y-49034476D02*
X100703595Y-49567809D01*
X100665500Y-49034476D02*
X100665500Y-49567809D01*
X100627404Y-49072571D02*
X100627404Y-49529714D01*
X100589309Y-49072571D02*
X100589309Y-49529714D01*
X100551214Y-49110666D02*
X100551214Y-49491619D01*
X100513119Y-49110666D02*
X100513119Y-49491619D01*
X100475023Y-49148761D02*
X100475023Y-49453523D01*
X100436928Y-49186857D02*
X100436928Y-49415428D01*
X100398833Y-49186857D02*
X100398833Y-49415428D01*
X100360738Y-49224952D02*
X100360738Y-49377333D01*
X100322642Y-49224952D02*
X100322642Y-49377333D01*
X100284547Y-49301142D02*
X100246452Y-49301142D01*
X100284547Y-49263047D02*
X100284547Y-49339238D01*
X100779785Y-48996380D02*
X100208357Y-49301142D01*
X100779785Y-49605904D01*
X100170261Y-49301142D02*
X100779785Y-49644000D01*
X100779785Y-48958285D01*
X100170261Y-49301142D01*
X76692857Y-50178571D02*
X76692857Y-49621428D01*
X76350000Y-49921428D01*
X76350000Y-49792857D01*
X76307142Y-49707142D01*
X76264285Y-49664285D01*
X76178571Y-49621428D01*
X75964285Y-49621428D01*
X75878571Y-49664285D01*
X75835714Y-49707142D01*
X75792857Y-49792857D01*
X75792857Y-50050000D01*
X75835714Y-50135714D01*
X75878571Y-50178571D01*
X76692857Y-48807142D02*
X76692857Y-49235714D01*
X76264285Y-49278571D01*
X76307142Y-49235714D01*
X76350000Y-49150000D01*
X76350000Y-48935714D01*
X76307142Y-48850000D01*
X76264285Y-48807142D01*
X76178571Y-48764285D01*
X75964285Y-48764285D01*
X75878571Y-48807142D01*
X75835714Y-48850000D01*
X75792857Y-48935714D01*
X75792857Y-49150000D01*
X75835714Y-49235714D01*
X75878571Y-49278571D01*
D15*
X115797857Y-42909285D02*
X115616428Y-42969761D01*
X115555952Y-43030238D01*
X115495476Y-43151190D01*
X115495476Y-43332619D01*
X115555952Y-43453571D01*
X115616428Y-43514047D01*
X115737380Y-43574523D01*
X116221190Y-43574523D01*
X116221190Y-42304523D01*
X115797857Y-42304523D01*
X115676904Y-42365000D01*
X115616428Y-42425476D01*
X115555952Y-42546428D01*
X115555952Y-42667380D01*
X115616428Y-42788333D01*
X115676904Y-42848809D01*
X115797857Y-42909285D01*
X116221190Y-42909285D01*
X115132619Y-42304523D02*
X114406904Y-42304523D01*
X114769761Y-43574523D02*
X114769761Y-42304523D01*
X113318333Y-43574523D02*
X114044047Y-43574523D01*
X113681190Y-43574523D02*
X113681190Y-42304523D01*
X113802142Y-42485952D01*
X113923095Y-42606904D01*
X114044047Y-42667380D01*
D11*
X86066666Y-41116666D02*
X86300000Y-40783333D01*
X86466666Y-41116666D02*
X86466666Y-40416666D01*
X86200000Y-40416666D01*
X86133333Y-40450000D01*
X86100000Y-40483333D01*
X86066666Y-40550000D01*
X86066666Y-40650000D01*
X86100000Y-40716666D01*
X86133333Y-40750000D01*
X86200000Y-40783333D01*
X86466666Y-40783333D01*
X85466666Y-40650000D02*
X85466666Y-41116666D01*
X85633333Y-40383333D02*
X85800000Y-40883333D01*
X85366666Y-40883333D01*
D16*
X125310000Y-43100000D02*
X125310000Y-43100000D01*
X125310000Y-42900000D02*
X125310000Y-42900000D01*
X125310000Y-42900000D02*
G75*
G03*
X125310000Y-43100000I0J-100000D01*
G01*
X125310000Y-43100000D02*
G75*
G03*
X125310000Y-42900000I0J100000D01*
G01*
D17*
X86187258Y-38977500D02*
X85712742Y-38977500D01*
X86187258Y-40022500D02*
X85712742Y-40022500D01*
%LPC*%
D18*
X108688600Y-50740000D03*
X105691400Y-50740000D03*
D19*
X76254000Y-36080000D03*
D20*
X78794000Y-36080000D03*
D19*
X81334000Y-36080000D03*
X83874000Y-36080000D03*
X86414000Y-36080000D03*
D20*
X99114000Y-51320000D03*
D19*
X96574000Y-51320000D03*
X94034000Y-51320000D03*
X91494000Y-51320000D03*
X88954000Y-51320000D03*
X86414000Y-51320000D03*
X83874000Y-51320000D03*
X81334000Y-51320000D03*
X78794000Y-51320000D03*
X76254000Y-51320000D03*
D21*
X106895000Y-43000000D03*
D22*
X122860000Y-43000000D03*
D23*
X86775000Y-39500000D03*
X85125000Y-39500000D03*
M02*
