G04 #@! TF.GenerationSoftware,KiCad,Pcbnew,6.0.8-f2edbf62ab~116~ubuntu20.04.1*
G04 #@! TF.CreationDate,2022-10-18T12:22:16+02:00*
G04 #@! TF.ProjectId,tinypico-goodisplay,74696e79-7069-4636-9f2d-676f6f646973,rev?*
G04 #@! TF.SameCoordinates,Original*
G04 #@! TF.FileFunction,Copper,L2,Bot*
G04 #@! TF.FilePolarity,Positive*
%FSLAX46Y46*%
G04 Gerber Fmt 4.6, Leading zero omitted, Abs format (unit mm)*
G04 Created by KiCad (PCBNEW 6.0.8-f2edbf62ab~116~ubuntu20.04.1) date 2022-10-18 12:22:16*
%MOMM*%
%LPD*%
G01*
G04 APERTURE LIST*
G04 #@! TA.AperFunction,ComponentPad*
%ADD10C,1.422400*%
G04 #@! TD*
G04 #@! TA.AperFunction,ComponentPad*
%ADD11R,1.270000X1.270000*%
G04 #@! TD*
G04 #@! TA.AperFunction,ViaPad*
%ADD12C,0.500000*%
G04 #@! TD*
G04 #@! TA.AperFunction,Conductor*
%ADD13C,0.250000*%
G04 #@! TD*
G04 #@! TA.AperFunction,Conductor*
%ADD14C,0.300000*%
G04 #@! TD*
G04 APERTURE END LIST*
D10*
X76254000Y-36080000D03*
D11*
X78794000Y-36080000D03*
D10*
X81334000Y-36080000D03*
X83874000Y-36080000D03*
D11*
X99114000Y-51320000D03*
D10*
X96574000Y-51320000D03*
X94034000Y-51320000D03*
X91494000Y-51320000D03*
X88954000Y-51320000D03*
X86414000Y-51320000D03*
X83874000Y-51320000D03*
X81334000Y-51320000D03*
X78794000Y-51320000D03*
X76254000Y-51320000D03*
D12*
X100100000Y-42500000D03*
X95250000Y-44900000D03*
X74600000Y-43550000D03*
X109450000Y-47450000D03*
X114350000Y-51750000D03*
X74600000Y-41650000D03*
X87250000Y-43150000D03*
X85750000Y-47450000D03*
X112550000Y-40050000D03*
X99950000Y-37850000D03*
X95700000Y-39750000D03*
X97500000Y-44400000D03*
X99550000Y-45100000D03*
X98950000Y-45550000D03*
X98700000Y-43850000D03*
X88000000Y-38250000D03*
X93100000Y-37650000D03*
X100900000Y-37750000D03*
X113400000Y-45550000D03*
X108850000Y-45500000D03*
X100050000Y-43300000D03*
X101250000Y-38500000D03*
X108450000Y-40750000D03*
X101350000Y-37050000D03*
X85500000Y-46400000D03*
X103800000Y-44550000D03*
X101550000Y-43350000D03*
X102850000Y-36850000D03*
X96950000Y-36450000D03*
D13*
X99250000Y-43200000D02*
X98350000Y-43200000D01*
X97500000Y-44050000D02*
X97500000Y-44400000D01*
X93770000Y-49930000D02*
X96520000Y-49930000D01*
X100300000Y-46150000D02*
X100300000Y-44950000D01*
X84170000Y-49930000D02*
X83874000Y-50226000D01*
X98350000Y-43200000D02*
X97500000Y-44050000D01*
X99300000Y-43250000D02*
X99250000Y-43200000D01*
X99650000Y-44300000D02*
X99300000Y-43950000D01*
X99800000Y-44450000D02*
X99650000Y-44300000D01*
X100300000Y-44950000D02*
X99800000Y-44450000D01*
X99300000Y-43950000D02*
X99300000Y-43250000D01*
X93770000Y-49930000D02*
X84170000Y-49930000D01*
X83874000Y-50226000D02*
X83874000Y-51320000D01*
X96520000Y-49930000D02*
X100300000Y-46150000D01*
X99550000Y-46000000D02*
X99550000Y-45100000D01*
X83234000Y-49420000D02*
X93420000Y-49420000D01*
X81350000Y-51304000D02*
X83194000Y-49460000D01*
X81334000Y-51320000D02*
X81350000Y-51304000D01*
X83194000Y-49460000D02*
X83234000Y-49420000D01*
X93420000Y-49420000D02*
X96130000Y-49420000D01*
X96130000Y-49420000D02*
X99550000Y-46000000D01*
X79175000Y-50125000D02*
X78794000Y-50506000D01*
X78794000Y-50506000D02*
X78794000Y-51320000D01*
X95875000Y-48925000D02*
X98950000Y-45850000D01*
X82825000Y-48925000D02*
X81625000Y-50125000D01*
X98950000Y-45850000D02*
X98950000Y-45550000D01*
X93375000Y-48925000D02*
X82825000Y-48925000D01*
X81625000Y-50125000D02*
X79175000Y-50125000D01*
X93375000Y-48925000D02*
X95875000Y-48925000D01*
X78450000Y-50075000D02*
X76575000Y-50075000D01*
X92750000Y-48450000D02*
X95650000Y-48450000D01*
X76254000Y-50396000D02*
X76254000Y-51320000D01*
X82525000Y-48450000D02*
X81300000Y-49675000D01*
X78850000Y-49675000D02*
X78450000Y-50075000D01*
X92750000Y-48450000D02*
X82525000Y-48450000D01*
X98350000Y-44200000D02*
X98700000Y-43850000D01*
X81300000Y-49675000D02*
X78850000Y-49675000D01*
X95650000Y-48450000D02*
X98350000Y-45750000D01*
X98350000Y-45750000D02*
X98350000Y-44200000D01*
X76575000Y-50075000D02*
X76254000Y-50396000D01*
D14*
X88600000Y-37650000D02*
X88000000Y-38250000D01*
X93100000Y-37650000D02*
X88600000Y-37650000D01*
X102400000Y-37450000D02*
X103400000Y-37450000D01*
X102100000Y-37750000D02*
X102300000Y-37550000D01*
X102300000Y-37550000D02*
X102400000Y-37450000D01*
X112000000Y-35750000D02*
X113850000Y-37600000D01*
X104050000Y-36800000D02*
X105100000Y-35750000D01*
X113850000Y-44750000D02*
X113850000Y-45100000D01*
X105100000Y-35750000D02*
X112000000Y-35750000D01*
X113850000Y-45100000D02*
X113400000Y-45550000D01*
X100900000Y-37750000D02*
X102100000Y-37750000D01*
X113850000Y-37600000D02*
X113850000Y-44750000D01*
X103400000Y-37450000D02*
X104050000Y-36800000D01*
X108850000Y-48000000D02*
X108850000Y-45500000D01*
X107950000Y-48900000D02*
X108850000Y-48000000D01*
X100950000Y-48650000D02*
X101200000Y-48900000D01*
X100000000Y-43350000D02*
X100000000Y-43850000D01*
X100950000Y-44800000D02*
X100950000Y-48650000D01*
X100050000Y-43300000D02*
X100000000Y-43350000D01*
X101200000Y-48900000D02*
X107950000Y-48900000D01*
X100000000Y-43850000D02*
X100950000Y-44800000D01*
X108450000Y-39150000D02*
X108450000Y-40750000D01*
X104400000Y-38300000D02*
X107600000Y-38300000D01*
X101450000Y-38300000D02*
X104400000Y-38300000D01*
X107600000Y-38300000D02*
X108450000Y-39150000D01*
X101250000Y-38500000D02*
X101450000Y-38300000D01*
X81900000Y-48350000D02*
X82550000Y-47700000D01*
X101350000Y-37050000D02*
X96650000Y-37050000D01*
X73600000Y-39500000D02*
X73600000Y-47050000D01*
X85150000Y-37050000D02*
X84800000Y-37400000D01*
X101550000Y-43700000D02*
X102400000Y-44550000D01*
X101550000Y-43350000D02*
X101550000Y-43700000D01*
X82550000Y-47700000D02*
X84500000Y-47700000D01*
X75450000Y-37650000D02*
X73600000Y-39500000D01*
X85500000Y-46700000D02*
X85500000Y-46400000D01*
X75650000Y-49100000D02*
X81150000Y-49100000D01*
X85350000Y-37050000D02*
X85150000Y-37050000D01*
X84500000Y-47700000D02*
X85500000Y-46700000D01*
X102400000Y-44550000D02*
X103800000Y-44550000D01*
X84800000Y-37400000D02*
X84550000Y-37650000D01*
X81150000Y-49100000D02*
X81900000Y-48350000D01*
X73600000Y-47050000D02*
X75650000Y-49100000D01*
X96450000Y-37050000D02*
X85350000Y-37050000D01*
X84550000Y-37650000D02*
X75450000Y-37650000D01*
X96650000Y-37050000D02*
X96450000Y-37050000D01*
X96950000Y-36450000D02*
X102450000Y-36450000D01*
X102450000Y-36450000D02*
X102850000Y-36850000D01*
G04 #@! TA.AperFunction,Conductor*
G36*
X111743171Y-36428502D02*
G01*
X111764145Y-36445405D01*
X113154595Y-37835855D01*
X113188621Y-37898167D01*
X113191500Y-37924950D01*
X113191500Y-44729480D01*
X113171498Y-44797601D01*
X113117842Y-44844094D01*
X113106108Y-44848757D01*
X113075003Y-44859346D01*
X113069005Y-44863036D01*
X113069003Y-44863037D01*
X112936065Y-44944821D01*
X112936063Y-44944823D01*
X112930066Y-44948512D01*
X112894783Y-44983064D01*
X112820965Y-45055353D01*
X112808486Y-45067573D01*
X112804675Y-45073487D01*
X112804673Y-45073489D01*
X112736765Y-45178861D01*
X112716304Y-45210610D01*
X112703742Y-45245124D01*
X112669978Y-45337891D01*
X112658103Y-45370516D01*
X112636775Y-45539343D01*
X112653381Y-45708699D01*
X112707094Y-45870167D01*
X112710741Y-45876189D01*
X112710742Y-45876191D01*
X112786790Y-46001760D01*
X112795246Y-46015723D01*
X112913455Y-46138132D01*
X113055846Y-46231310D01*
X113062450Y-46233766D01*
X113062452Y-46233767D01*
X113098844Y-46247301D01*
X113215341Y-46290626D01*
X113384015Y-46313132D01*
X113391026Y-46312494D01*
X113391030Y-46312494D01*
X113546462Y-46298348D01*
X113553483Y-46297709D01*
X113560185Y-46295531D01*
X113560187Y-46295531D01*
X113708623Y-46247301D01*
X113708626Y-46247300D01*
X113715322Y-46245124D01*
X113861490Y-46157990D01*
X113866584Y-46153139D01*
X113866588Y-46153136D01*
X113953690Y-46070189D01*
X113984721Y-46040639D01*
X114010552Y-46001760D01*
X114064909Y-45956090D01*
X114135329Y-45947057D01*
X114199453Y-45977530D01*
X114236923Y-46037834D01*
X114241500Y-46071487D01*
X114241500Y-51985500D01*
X114221498Y-52053621D01*
X114167842Y-52100114D01*
X114115500Y-52111500D01*
X100383000Y-52111500D01*
X100314879Y-52091498D01*
X100268386Y-52037842D01*
X100257000Y-51985500D01*
X100257000Y-51592115D01*
X100252525Y-51576876D01*
X100251135Y-51575671D01*
X100243452Y-51574000D01*
X98986000Y-51574000D01*
X98917879Y-51553998D01*
X98871386Y-51500342D01*
X98860000Y-51448000D01*
X98860000Y-51047885D01*
X99368000Y-51047885D01*
X99372475Y-51063124D01*
X99373865Y-51064329D01*
X99381548Y-51066000D01*
X100238884Y-51066000D01*
X100254123Y-51061525D01*
X100255328Y-51060135D01*
X100256999Y-51052452D01*
X100256999Y-50640331D01*
X100256629Y-50633510D01*
X100251105Y-50582648D01*
X100247479Y-50567396D01*
X100202324Y-50446946D01*
X100193786Y-50431351D01*
X100117285Y-50329276D01*
X100104724Y-50316715D01*
X100002649Y-50240214D01*
X99987054Y-50231676D01*
X99866606Y-50186522D01*
X99851351Y-50182895D01*
X99800486Y-50177369D01*
X99793672Y-50177000D01*
X99386115Y-50177000D01*
X99370876Y-50181475D01*
X99369671Y-50182865D01*
X99368000Y-50190548D01*
X99368000Y-51047885D01*
X98860000Y-51047885D01*
X98860000Y-50195116D01*
X98855525Y-50179877D01*
X98854135Y-50178672D01*
X98846452Y-50177001D01*
X98434331Y-50177001D01*
X98427510Y-50177371D01*
X98376648Y-50182895D01*
X98361396Y-50186521D01*
X98240946Y-50231676D01*
X98225351Y-50240214D01*
X98123276Y-50316715D01*
X98110715Y-50329276D01*
X98034214Y-50431351D01*
X98025676Y-50446946D01*
X97980522Y-50567394D01*
X97976895Y-50582649D01*
X97971369Y-50633514D01*
X97971000Y-50640328D01*
X97971000Y-50865261D01*
X97950998Y-50933382D01*
X97897342Y-50979875D01*
X97827068Y-50989979D01*
X97762488Y-50960485D01*
X97726598Y-50908354D01*
X97725945Y-50906561D01*
X97724521Y-50901245D01*
X97668176Y-50780412D01*
X97636652Y-50712808D01*
X97636649Y-50712803D01*
X97634326Y-50707821D01*
X97628561Y-50699588D01*
X97515072Y-50537508D01*
X97515070Y-50537505D01*
X97511913Y-50532997D01*
X97361003Y-50382087D01*
X97356492Y-50378928D01*
X97250397Y-50304639D01*
X97206069Y-50249181D01*
X97198760Y-50178562D01*
X97233573Y-50112331D01*
X100076405Y-47269499D01*
X100138717Y-47235473D01*
X100209532Y-47240538D01*
X100266368Y-47283085D01*
X100291179Y-47349605D01*
X100291500Y-47358594D01*
X100291500Y-48567944D01*
X100290941Y-48579800D01*
X100289212Y-48587537D01*
X100289461Y-48595459D01*
X100291438Y-48658369D01*
X100291500Y-48662327D01*
X100291500Y-48691432D01*
X100292056Y-48695832D01*
X100292988Y-48707664D01*
X100294438Y-48753831D01*
X100296650Y-48761444D01*
X100296650Y-48761445D01*
X100300419Y-48774416D01*
X100304430Y-48793782D01*
X100307118Y-48815064D01*
X100310034Y-48822429D01*
X100310035Y-48822433D01*
X100324126Y-48858021D01*
X100327965Y-48869231D01*
X100340855Y-48913600D01*
X100351775Y-48932065D01*
X100360466Y-48949805D01*
X100368365Y-48969756D01*
X100395516Y-49007126D01*
X100402033Y-49017048D01*
X100421507Y-49049977D01*
X100421510Y-49049981D01*
X100425547Y-49056807D01*
X100440711Y-49071971D01*
X100453551Y-49087004D01*
X100466159Y-49104357D01*
X100472265Y-49109408D01*
X100501759Y-49133808D01*
X100510538Y-49141798D01*
X100676341Y-49307601D01*
X100684329Y-49316379D01*
X100684338Y-49316389D01*
X100688584Y-49323080D01*
X100694360Y-49328504D01*
X100740273Y-49371619D01*
X100743115Y-49374374D01*
X100763667Y-49394926D01*
X100766801Y-49397357D01*
X100767163Y-49397638D01*
X100776191Y-49405348D01*
X100809867Y-49436972D01*
X100816818Y-49440793D01*
X100816819Y-49440794D01*
X100828655Y-49447301D01*
X100845184Y-49458158D01*
X100855869Y-49466447D01*
X100855871Y-49466448D01*
X100862131Y-49471304D01*
X100904544Y-49489657D01*
X100915181Y-49494868D01*
X100955663Y-49517124D01*
X100963342Y-49519096D01*
X100963343Y-49519096D01*
X100976434Y-49522457D01*
X100995136Y-49528859D01*
X101014823Y-49537379D01*
X101022652Y-49538619D01*
X101060448Y-49544605D01*
X101072074Y-49547013D01*
X101109135Y-49556529D01*
X101109136Y-49556529D01*
X101116812Y-49558500D01*
X101138258Y-49558500D01*
X101157968Y-49560051D01*
X101179151Y-49563406D01*
X101225135Y-49559059D01*
X101236994Y-49558500D01*
X105451264Y-49558500D01*
X105519385Y-49578502D01*
X105565878Y-49632158D01*
X105575982Y-49702432D01*
X105546488Y-49767012D01*
X105488943Y-49804734D01*
X105314037Y-49859546D01*
X105144705Y-49953409D01*
X105139857Y-49957565D01*
X105139856Y-49957565D01*
X105007557Y-50070959D01*
X104997705Y-50079403D01*
X104993788Y-50084453D01*
X104907949Y-50195116D01*
X104879042Y-50232382D01*
X104793564Y-50406098D01*
X104791956Y-50412272D01*
X104791955Y-50412274D01*
X104747575Y-50582649D01*
X104744761Y-50593453D01*
X104744427Y-50599832D01*
X104736112Y-50758500D01*
X104734629Y-50786794D01*
X104763580Y-50978224D01*
X104765783Y-50984210D01*
X104765784Y-50984216D01*
X104795875Y-51066000D01*
X104830432Y-51159922D01*
X104833790Y-51165338D01*
X104833792Y-51165342D01*
X104929091Y-51319044D01*
X104929094Y-51319048D01*
X104932454Y-51324467D01*
X104936840Y-51329105D01*
X105008380Y-51404756D01*
X105065479Y-51465137D01*
X105224072Y-51576185D01*
X105401755Y-51653076D01*
X105591271Y-51692667D01*
X105597624Y-51693000D01*
X105739788Y-51693000D01*
X105808074Y-51686064D01*
X105877667Y-51678995D01*
X105877668Y-51678995D01*
X105884016Y-51678350D01*
X106068763Y-51620454D01*
X106238095Y-51526591D01*
X106385095Y-51400597D01*
X106448354Y-51319044D01*
X106499842Y-51252667D01*
X106499844Y-51252664D01*
X106503758Y-51247618D01*
X106589236Y-51073902D01*
X106591295Y-51066000D01*
X106636429Y-50892728D01*
X106638039Y-50886547D01*
X106642097Y-50809115D01*
X106643267Y-50786794D01*
X107731829Y-50786794D01*
X107760780Y-50978224D01*
X107762983Y-50984210D01*
X107762984Y-50984216D01*
X107793075Y-51066000D01*
X107827632Y-51159922D01*
X107830990Y-51165338D01*
X107830992Y-51165342D01*
X107926291Y-51319044D01*
X107926294Y-51319048D01*
X107929654Y-51324467D01*
X107934040Y-51329105D01*
X108005580Y-51404756D01*
X108062679Y-51465137D01*
X108221272Y-51576185D01*
X108398955Y-51653076D01*
X108588471Y-51692667D01*
X108594824Y-51693000D01*
X108736988Y-51693000D01*
X108805274Y-51686064D01*
X108874867Y-51678995D01*
X108874868Y-51678995D01*
X108881216Y-51678350D01*
X109065963Y-51620454D01*
X109235295Y-51526591D01*
X109382295Y-51400597D01*
X109445554Y-51319044D01*
X109497042Y-51252667D01*
X109497044Y-51252664D01*
X109500958Y-51247618D01*
X109586436Y-51073902D01*
X109588495Y-51066000D01*
X109633629Y-50892728D01*
X109635239Y-50886547D01*
X109639297Y-50809115D01*
X109645037Y-50699588D01*
X109645037Y-50699584D01*
X109645371Y-50693206D01*
X109616420Y-50501776D01*
X109614217Y-50495790D01*
X109614216Y-50495784D01*
X109551770Y-50326064D01*
X109549568Y-50320078D01*
X109546210Y-50314662D01*
X109546208Y-50314658D01*
X109450909Y-50160956D01*
X109450906Y-50160952D01*
X109447546Y-50155533D01*
X109380329Y-50084453D01*
X109318910Y-50019504D01*
X109318909Y-50019503D01*
X109314521Y-50014863D01*
X109155928Y-49903815D01*
X108978245Y-49826924D01*
X108788729Y-49787333D01*
X108782376Y-49787000D01*
X108640212Y-49787000D01*
X108571926Y-49793936D01*
X108502333Y-49801005D01*
X108502332Y-49801005D01*
X108495984Y-49801650D01*
X108311237Y-49859546D01*
X108141905Y-49953409D01*
X108137057Y-49957565D01*
X108137056Y-49957565D01*
X108004757Y-50070959D01*
X107994905Y-50079403D01*
X107990988Y-50084453D01*
X107905149Y-50195116D01*
X107876242Y-50232382D01*
X107790764Y-50406098D01*
X107789156Y-50412272D01*
X107789155Y-50412274D01*
X107744775Y-50582649D01*
X107741961Y-50593453D01*
X107741627Y-50599832D01*
X107733312Y-50758500D01*
X107731829Y-50786794D01*
X106643267Y-50786794D01*
X106647837Y-50699588D01*
X106647837Y-50699584D01*
X106648171Y-50693206D01*
X106619220Y-50501776D01*
X106617017Y-50495790D01*
X106617016Y-50495784D01*
X106554570Y-50326064D01*
X106552368Y-50320078D01*
X106549010Y-50314662D01*
X106549008Y-50314658D01*
X106453709Y-50160956D01*
X106453706Y-50160952D01*
X106450346Y-50155533D01*
X106383129Y-50084453D01*
X106321710Y-50019504D01*
X106321709Y-50019503D01*
X106317321Y-50014863D01*
X106158728Y-49903815D01*
X105981045Y-49826924D01*
X105889678Y-49807837D01*
X105827087Y-49774328D01*
X105792549Y-49712299D01*
X105797029Y-49641444D01*
X105839105Y-49584259D01*
X105905418Y-49558900D01*
X105915444Y-49558500D01*
X107867944Y-49558500D01*
X107879800Y-49559059D01*
X107879803Y-49559059D01*
X107887537Y-49560788D01*
X107958369Y-49558562D01*
X107962327Y-49558500D01*
X107991432Y-49558500D01*
X107995832Y-49557944D01*
X108007664Y-49557012D01*
X108053831Y-49555562D01*
X108074421Y-49549580D01*
X108093782Y-49545570D01*
X108101424Y-49544605D01*
X108107204Y-49543875D01*
X108107205Y-49543875D01*
X108115064Y-49542882D01*
X108122429Y-49539966D01*
X108122433Y-49539965D01*
X108158021Y-49525874D01*
X108169231Y-49522035D01*
X108213600Y-49509145D01*
X108232065Y-49498225D01*
X108249805Y-49489534D01*
X108269756Y-49481635D01*
X108307129Y-49454482D01*
X108317048Y-49447967D01*
X108349977Y-49428493D01*
X108349981Y-49428490D01*
X108356807Y-49424453D01*
X108371971Y-49409289D01*
X108387005Y-49396448D01*
X108397943Y-49388501D01*
X108404357Y-49383841D01*
X108433803Y-49348247D01*
X108441792Y-49339468D01*
X109257605Y-48523655D01*
X109266385Y-48515665D01*
X109266387Y-48515663D01*
X109273080Y-48511416D01*
X109321605Y-48459742D01*
X109324359Y-48456901D01*
X109344927Y-48436333D01*
X109347647Y-48432826D01*
X109355353Y-48423804D01*
X109386972Y-48390133D01*
X109390794Y-48383181D01*
X109397303Y-48371342D01*
X109408157Y-48354818D01*
X109416443Y-48344135D01*
X109416444Y-48344134D01*
X109421304Y-48337868D01*
X109439654Y-48295464D01*
X109444869Y-48284819D01*
X109467124Y-48244337D01*
X109469094Y-48236663D01*
X109469097Y-48236656D01*
X109472455Y-48223574D01*
X109478861Y-48204862D01*
X109484233Y-48192448D01*
X109487380Y-48185177D01*
X109490126Y-48167842D01*
X109494607Y-48139544D01*
X109497012Y-48127930D01*
X109508500Y-48083188D01*
X109508500Y-48061742D01*
X109510051Y-48042032D01*
X109512166Y-48028678D01*
X109512166Y-48028677D01*
X109513406Y-48020848D01*
X109509059Y-47974859D01*
X109508500Y-47963004D01*
X109508500Y-45917343D01*
X109522434Y-45859747D01*
X109524990Y-45854773D01*
X109528891Y-45848902D01*
X109589319Y-45689825D01*
X109613001Y-45521313D01*
X109613299Y-45500000D01*
X109594331Y-45330892D01*
X109582776Y-45297709D01*
X109564463Y-45245124D01*
X109538368Y-45170189D01*
X109534067Y-45163305D01*
X109488756Y-45090794D01*
X109448192Y-45025879D01*
X109328286Y-44905132D01*
X109318470Y-44898902D01*
X109261955Y-44863037D01*
X109184608Y-44813951D01*
X109024300Y-44756868D01*
X108855329Y-44736720D01*
X108848326Y-44737456D01*
X108848325Y-44737456D01*
X108693101Y-44753770D01*
X108693097Y-44753771D01*
X108686093Y-44754507D01*
X108679422Y-44756778D01*
X108531673Y-44807075D01*
X108531670Y-44807076D01*
X108525003Y-44809346D01*
X108519005Y-44813036D01*
X108519003Y-44813037D01*
X108386065Y-44894821D01*
X108386063Y-44894823D01*
X108380066Y-44898512D01*
X108375033Y-44903441D01*
X108298379Y-44978507D01*
X108258486Y-45017573D01*
X108254675Y-45023487D01*
X108254673Y-45023489D01*
X108170121Y-45154687D01*
X108166304Y-45160610D01*
X108142441Y-45226172D01*
X108110791Y-45313132D01*
X108108103Y-45320516D01*
X108086775Y-45489343D01*
X108103381Y-45658699D01*
X108157094Y-45820167D01*
X108160741Y-45826189D01*
X108160742Y-45826191D01*
X108173276Y-45846887D01*
X108191500Y-45912158D01*
X108191500Y-47675050D01*
X108171498Y-47743171D01*
X108154595Y-47764146D01*
X107714144Y-48204596D01*
X107651832Y-48238621D01*
X107625049Y-48241500D01*
X101734500Y-48241500D01*
X101666379Y-48221498D01*
X101619886Y-48167842D01*
X101608500Y-48115500D01*
X101608500Y-44993950D01*
X101628502Y-44925829D01*
X101682158Y-44879336D01*
X101752432Y-44869232D01*
X101817012Y-44898726D01*
X101823595Y-44904855D01*
X101876345Y-44957605D01*
X101884335Y-44966385D01*
X101888584Y-44973080D01*
X101894362Y-44978506D01*
X101894363Y-44978507D01*
X101940257Y-45021604D01*
X101943099Y-45024359D01*
X101963667Y-45044927D01*
X101967170Y-45047644D01*
X101976195Y-45055352D01*
X102009867Y-45086972D01*
X102016818Y-45090793D01*
X102016819Y-45090794D01*
X102028658Y-45097303D01*
X102045182Y-45108157D01*
X102055271Y-45115982D01*
X102062132Y-45121304D01*
X102069404Y-45124451D01*
X102069406Y-45124452D01*
X102104535Y-45139654D01*
X102115195Y-45144876D01*
X102148402Y-45163132D01*
X102155663Y-45167124D01*
X102176441Y-45172459D01*
X102195131Y-45178858D01*
X102214824Y-45187380D01*
X102222647Y-45188619D01*
X102222650Y-45188620D01*
X102260457Y-45194608D01*
X102272079Y-45197015D01*
X102309133Y-45206529D01*
X102309137Y-45206530D01*
X102316812Y-45208500D01*
X102338253Y-45208500D01*
X102357962Y-45210051D01*
X102379152Y-45213407D01*
X102387044Y-45212661D01*
X102425148Y-45209059D01*
X102437006Y-45208500D01*
X103383427Y-45208500D01*
X103442705Y-45226172D01*
X103443663Y-45224276D01*
X103449950Y-45227452D01*
X103455846Y-45231310D01*
X103462450Y-45233766D01*
X103462452Y-45233767D01*
X103498844Y-45247301D01*
X103615341Y-45290626D01*
X103784015Y-45313132D01*
X103791026Y-45312494D01*
X103791030Y-45312494D01*
X103946462Y-45298348D01*
X103953483Y-45297709D01*
X103960185Y-45295531D01*
X103960187Y-45295531D01*
X104108623Y-45247301D01*
X104108626Y-45247300D01*
X104115322Y-45245124D01*
X104261490Y-45157990D01*
X104266584Y-45153139D01*
X104266588Y-45153136D01*
X104361609Y-45062648D01*
X104384721Y-45040639D01*
X104395538Y-45024359D01*
X104471432Y-44910129D01*
X104478891Y-44898902D01*
X104539319Y-44739825D01*
X104563001Y-44571313D01*
X104563137Y-44561574D01*
X104563244Y-44553961D01*
X104563244Y-44553955D01*
X104563299Y-44550000D01*
X104544331Y-44380892D01*
X104488368Y-44220189D01*
X104484437Y-44213897D01*
X104460420Y-44175464D01*
X104398192Y-44075879D01*
X104278286Y-43955132D01*
X104134608Y-43863951D01*
X103974300Y-43806868D01*
X103805329Y-43786720D01*
X103798326Y-43787456D01*
X103798325Y-43787456D01*
X103643101Y-43803770D01*
X103643097Y-43803771D01*
X103636093Y-43804507D01*
X103629422Y-43806778D01*
X103481673Y-43857075D01*
X103481670Y-43857076D01*
X103475003Y-43859346D01*
X103454670Y-43871855D01*
X103453105Y-43872818D01*
X103387083Y-43891500D01*
X102724950Y-43891500D01*
X102656829Y-43871498D01*
X102635855Y-43854595D01*
X102337655Y-43556395D01*
X102303629Y-43494083D01*
X102301976Y-43449765D01*
X102312451Y-43375224D01*
X102313001Y-43371313D01*
X102313299Y-43350000D01*
X102294331Y-43180892D01*
X102238368Y-43020189D01*
X102232383Y-43010610D01*
X102178645Y-42924614D01*
X102148192Y-42875879D01*
X102028286Y-42755132D01*
X102012039Y-42744821D01*
X101973406Y-42720304D01*
X101884608Y-42663951D01*
X101724300Y-42606868D01*
X101555329Y-42586720D01*
X101548326Y-42587456D01*
X101548325Y-42587456D01*
X101393101Y-42603770D01*
X101393097Y-42603771D01*
X101386093Y-42604507D01*
X101372210Y-42609233D01*
X101231673Y-42657075D01*
X101231670Y-42657076D01*
X101225003Y-42659346D01*
X101219005Y-42663036D01*
X101219003Y-42663037D01*
X101086065Y-42744821D01*
X101086063Y-42744823D01*
X101080066Y-42748512D01*
X100958486Y-42867573D01*
X100954675Y-42873487D01*
X100954673Y-42873489D01*
X100921725Y-42924614D01*
X100868010Y-42971038D01*
X100797723Y-42981053D01*
X100733180Y-42951477D01*
X100708962Y-42923131D01*
X100648192Y-42825879D01*
X100528286Y-42705132D01*
X100513043Y-42695458D01*
X100472810Y-42669926D01*
X100384608Y-42613951D01*
X100224300Y-42556868D01*
X100055329Y-42536720D01*
X100048326Y-42537456D01*
X100048325Y-42537456D01*
X99893101Y-42553770D01*
X99893097Y-42553771D01*
X99886093Y-42554507D01*
X99879422Y-42556778D01*
X99731673Y-42607075D01*
X99731670Y-42607076D01*
X99725003Y-42609346D01*
X99719004Y-42613036D01*
X99719003Y-42613037D01*
X99679780Y-42637167D01*
X99611278Y-42655825D01*
X99563719Y-42645486D01*
X99534460Y-42632825D01*
X99523813Y-42627609D01*
X99485060Y-42606305D01*
X99465437Y-42601267D01*
X99446734Y-42594863D01*
X99435420Y-42589967D01*
X99435419Y-42589967D01*
X99428145Y-42586819D01*
X99420322Y-42585580D01*
X99420312Y-42585577D01*
X99384476Y-42579901D01*
X99372856Y-42577495D01*
X99337711Y-42568472D01*
X99337710Y-42568472D01*
X99330030Y-42566500D01*
X99309776Y-42566500D01*
X99290065Y-42564949D01*
X99277886Y-42563020D01*
X99270057Y-42561780D01*
X99240786Y-42564547D01*
X99226039Y-42565941D01*
X99214181Y-42566500D01*
X98428768Y-42566500D01*
X98417585Y-42565973D01*
X98410092Y-42564298D01*
X98402166Y-42564547D01*
X98402165Y-42564547D01*
X98342002Y-42566438D01*
X98338044Y-42566500D01*
X98310144Y-42566500D01*
X98306154Y-42567004D01*
X98294320Y-42567936D01*
X98250111Y-42569326D01*
X98242495Y-42571539D01*
X98242493Y-42571539D01*
X98230652Y-42574979D01*
X98211293Y-42578988D01*
X98209983Y-42579154D01*
X98191203Y-42581526D01*
X98183837Y-42584442D01*
X98183831Y-42584444D01*
X98150098Y-42597800D01*
X98138868Y-42601645D01*
X98104017Y-42611770D01*
X98096407Y-42613981D01*
X98089584Y-42618016D01*
X98078966Y-42624295D01*
X98061213Y-42632992D01*
X98053568Y-42636019D01*
X98042383Y-42640448D01*
X98035968Y-42645109D01*
X98006612Y-42666437D01*
X97996695Y-42672951D01*
X97958638Y-42695458D01*
X97944317Y-42709779D01*
X97929284Y-42722619D01*
X97912893Y-42734528D01*
X97907842Y-42740633D01*
X97907837Y-42740638D01*
X97884701Y-42768604D01*
X97876713Y-42777382D01*
X97107747Y-43546348D01*
X97099461Y-43553888D01*
X97092982Y-43558000D01*
X97087557Y-43563777D01*
X97046357Y-43607651D01*
X97043602Y-43610493D01*
X97023865Y-43630230D01*
X97021385Y-43633427D01*
X97013682Y-43642447D01*
X96983414Y-43674679D01*
X96979595Y-43681625D01*
X96979593Y-43681628D01*
X96973652Y-43692434D01*
X96962801Y-43708953D01*
X96950386Y-43724959D01*
X96947241Y-43732228D01*
X96947238Y-43732232D01*
X96932826Y-43765537D01*
X96927609Y-43776187D01*
X96906305Y-43814940D01*
X96904334Y-43822615D01*
X96904334Y-43822616D01*
X96901267Y-43834562D01*
X96894863Y-43853266D01*
X96886819Y-43871855D01*
X96885580Y-43879678D01*
X96885577Y-43879688D01*
X96879901Y-43915524D01*
X96877495Y-43927144D01*
X96866647Y-43969396D01*
X96866500Y-43969969D01*
X96864268Y-43969396D01*
X96850234Y-44007961D01*
X96816304Y-44060610D01*
X96758103Y-44220516D01*
X96736775Y-44389343D01*
X96753381Y-44558699D01*
X96807094Y-44720167D01*
X96810741Y-44726189D01*
X96810742Y-44726191D01*
X96890010Y-44857077D01*
X96895246Y-44865723D01*
X97013455Y-44988132D01*
X97080269Y-45031854D01*
X97134854Y-45067573D01*
X97155846Y-45081310D01*
X97162450Y-45083766D01*
X97162452Y-45083767D01*
X97228035Y-45108157D01*
X97315341Y-45140626D01*
X97484015Y-45163132D01*
X97491026Y-45162494D01*
X97491030Y-45162494D01*
X97543077Y-45157757D01*
X97579081Y-45154480D01*
X97648733Y-45168225D01*
X97699898Y-45217446D01*
X97716500Y-45279961D01*
X97716500Y-45435406D01*
X97696498Y-45503527D01*
X97679595Y-45524501D01*
X95424500Y-47779595D01*
X95362188Y-47813621D01*
X95335405Y-47816500D01*
X85618950Y-47816500D01*
X85550829Y-47796498D01*
X85504336Y-47742842D01*
X85494232Y-47672568D01*
X85523726Y-47607988D01*
X85529855Y-47601405D01*
X85907605Y-47223655D01*
X85916385Y-47215665D01*
X85916387Y-47215663D01*
X85923080Y-47211416D01*
X85971605Y-47159742D01*
X85974359Y-47156901D01*
X85994927Y-47136333D01*
X85997647Y-47132826D01*
X86005353Y-47123804D01*
X86006083Y-47123027D01*
X86036972Y-47090133D01*
X86043657Y-47077973D01*
X86047303Y-47071342D01*
X86058157Y-47054818D01*
X86066445Y-47044132D01*
X86071304Y-47037868D01*
X86074452Y-47030594D01*
X86089654Y-46995465D01*
X86094876Y-46984805D01*
X86113305Y-46951284D01*
X86113306Y-46951282D01*
X86117124Y-46944337D01*
X86122459Y-46923559D01*
X86128858Y-46904869D01*
X86137380Y-46885176D01*
X86144606Y-46839552D01*
X86147013Y-46827930D01*
X86154705Y-46797970D01*
X86171799Y-46759577D01*
X86178891Y-46748902D01*
X86239319Y-46589825D01*
X86263001Y-46421313D01*
X86263299Y-46400000D01*
X86244331Y-46230892D01*
X86188368Y-46070189D01*
X86182383Y-46060610D01*
X86145608Y-46001760D01*
X86098192Y-45925879D01*
X86089716Y-45917343D01*
X85983248Y-45810129D01*
X85978286Y-45805132D01*
X85962039Y-45794821D01*
X85880755Y-45743237D01*
X85834608Y-45713951D01*
X85674300Y-45656868D01*
X85505329Y-45636720D01*
X85498326Y-45637456D01*
X85498325Y-45637456D01*
X85343101Y-45653770D01*
X85343097Y-45653771D01*
X85336093Y-45654507D01*
X85329422Y-45656778D01*
X85181673Y-45707075D01*
X85181670Y-45707076D01*
X85175003Y-45709346D01*
X85169005Y-45713036D01*
X85169003Y-45713037D01*
X85036065Y-45794821D01*
X85036063Y-45794823D01*
X85030066Y-45798512D01*
X84985336Y-45842315D01*
X84914016Y-45912158D01*
X84908486Y-45917573D01*
X84904675Y-45923487D01*
X84904673Y-45923489D01*
X84826043Y-46045498D01*
X84816304Y-46060610D01*
X84758103Y-46220516D01*
X84736775Y-46389343D01*
X84743699Y-46459954D01*
X84730440Y-46529701D01*
X84707395Y-46561345D01*
X84264145Y-47004595D01*
X84201833Y-47038621D01*
X84175050Y-47041500D01*
X82632059Y-47041500D01*
X82620203Y-47040941D01*
X82612463Y-47039211D01*
X82604537Y-47039460D01*
X82604536Y-47039460D01*
X82541611Y-47041438D01*
X82537653Y-47041500D01*
X82508568Y-47041500D01*
X82504637Y-47041997D01*
X82504630Y-47041997D01*
X82504179Y-47042054D01*
X82492343Y-47042986D01*
X82446169Y-47044438D01*
X82425579Y-47050420D01*
X82406218Y-47054430D01*
X82403144Y-47054818D01*
X82392796Y-47056125D01*
X82392795Y-47056125D01*
X82384936Y-47057118D01*
X82377571Y-47060034D01*
X82377567Y-47060035D01*
X82341979Y-47074126D01*
X82330769Y-47077965D01*
X82286400Y-47090855D01*
X82267935Y-47101775D01*
X82250195Y-47110466D01*
X82230244Y-47118365D01*
X82192874Y-47145516D01*
X82182952Y-47152033D01*
X82150023Y-47171507D01*
X82150019Y-47171510D01*
X82143193Y-47175547D01*
X82128029Y-47190711D01*
X82112996Y-47203551D01*
X82095643Y-47216159D01*
X82075475Y-47240538D01*
X82066198Y-47251752D01*
X82058208Y-47260532D01*
X80914144Y-48404596D01*
X80851832Y-48438621D01*
X80825049Y-48441500D01*
X75974950Y-48441500D01*
X75906829Y-48421498D01*
X75885855Y-48404595D01*
X74295405Y-46814145D01*
X74261379Y-46751833D01*
X74258500Y-46725050D01*
X74258500Y-39824950D01*
X74278502Y-39756829D01*
X74295405Y-39735855D01*
X75685855Y-38345405D01*
X75748167Y-38311379D01*
X75774950Y-38308500D01*
X84467944Y-38308500D01*
X84479800Y-38309059D01*
X84479803Y-38309059D01*
X84487537Y-38310788D01*
X84558369Y-38308562D01*
X84562327Y-38308500D01*
X84591432Y-38308500D01*
X84595832Y-38307944D01*
X84607664Y-38307012D01*
X84653831Y-38305562D01*
X84674421Y-38299580D01*
X84693782Y-38295570D01*
X84700770Y-38294688D01*
X84707204Y-38293875D01*
X84707205Y-38293875D01*
X84715064Y-38292882D01*
X84722429Y-38289966D01*
X84722433Y-38289965D01*
X84758021Y-38275874D01*
X84769231Y-38272035D01*
X84813600Y-38259145D01*
X84832065Y-38248225D01*
X84849805Y-38239534D01*
X84869756Y-38231635D01*
X84907129Y-38204482D01*
X84917048Y-38197967D01*
X84949977Y-38178493D01*
X84949981Y-38178490D01*
X84956807Y-38174453D01*
X84971971Y-38159289D01*
X84987005Y-38146448D01*
X84997944Y-38138500D01*
X85004357Y-38133841D01*
X85033803Y-38098246D01*
X85041792Y-38089468D01*
X85206805Y-37924454D01*
X85206807Y-37924453D01*
X85385856Y-37745404D01*
X85448166Y-37711380D01*
X85474950Y-37708500D01*
X87215455Y-37708500D01*
X87283576Y-37728502D01*
X87330069Y-37782158D01*
X87340173Y-37852432D01*
X87323041Y-37898273D01*
X87323253Y-37898378D01*
X87322235Y-37900430D01*
X87321364Y-37902758D01*
X87316304Y-37910610D01*
X87258103Y-38070516D01*
X87236775Y-38239343D01*
X87253381Y-38408699D01*
X87307094Y-38570167D01*
X87310741Y-38576189D01*
X87310742Y-38576191D01*
X87386970Y-38702057D01*
X87395246Y-38715723D01*
X87513455Y-38838132D01*
X87655846Y-38931310D01*
X87662450Y-38933766D01*
X87662452Y-38933767D01*
X87698844Y-38947301D01*
X87815341Y-38990626D01*
X87984015Y-39013132D01*
X87991026Y-39012494D01*
X87991030Y-39012494D01*
X88146462Y-38998348D01*
X88153483Y-38997709D01*
X88160185Y-38995531D01*
X88160187Y-38995531D01*
X88308623Y-38947301D01*
X88308626Y-38947300D01*
X88315322Y-38945124D01*
X88461490Y-38857990D01*
X88466584Y-38853139D01*
X88466588Y-38853136D01*
X88540288Y-38782952D01*
X88584721Y-38740639D01*
X88678891Y-38598902D01*
X88728432Y-38468486D01*
X88757125Y-38424135D01*
X88835855Y-38345405D01*
X88898167Y-38311379D01*
X88924950Y-38308500D01*
X92683427Y-38308500D01*
X92742705Y-38326172D01*
X92743663Y-38324276D01*
X92749950Y-38327452D01*
X92755846Y-38331310D01*
X92762450Y-38333766D01*
X92762452Y-38333767D01*
X92793746Y-38345405D01*
X92915341Y-38390626D01*
X93084015Y-38413132D01*
X93091026Y-38412494D01*
X93091030Y-38412494D01*
X93246462Y-38398348D01*
X93253483Y-38397709D01*
X93260185Y-38395531D01*
X93260187Y-38395531D01*
X93408623Y-38347301D01*
X93408626Y-38347300D01*
X93415322Y-38345124D01*
X93561490Y-38257990D01*
X93566584Y-38253139D01*
X93566588Y-38253136D01*
X93655105Y-38168842D01*
X93684721Y-38140639D01*
X93693295Y-38127735D01*
X93774990Y-38004773D01*
X93778891Y-37998902D01*
X93839319Y-37839825D01*
X93841313Y-37825641D01*
X93842532Y-37816963D01*
X93871821Y-37752289D01*
X93931425Y-37713717D01*
X93967306Y-37708500D01*
X100019501Y-37708500D01*
X100087622Y-37728502D01*
X100134115Y-37782158D01*
X100144900Y-37822203D01*
X100153381Y-37908699D01*
X100155605Y-37915384D01*
X100155605Y-37915385D01*
X100158622Y-37924453D01*
X100207094Y-38070167D01*
X100210741Y-38076189D01*
X100210742Y-38076191D01*
X100284493Y-38197967D01*
X100295246Y-38215723D01*
X100413455Y-38338132D01*
X100419347Y-38341987D01*
X100419351Y-38341991D01*
X100432939Y-38350882D01*
X100478988Y-38404919D01*
X100488953Y-38472103D01*
X100486775Y-38489343D01*
X100503381Y-38658699D01*
X100505605Y-38665384D01*
X100505605Y-38665385D01*
X100513990Y-38690590D01*
X100557094Y-38820167D01*
X100560741Y-38826189D01*
X100560742Y-38826191D01*
X100640872Y-38958500D01*
X100645246Y-38965723D01*
X100763455Y-39088132D01*
X100825385Y-39128658D01*
X100887655Y-39169406D01*
X100905846Y-39181310D01*
X100912450Y-39183766D01*
X100912452Y-39183767D01*
X100948844Y-39197301D01*
X101065341Y-39240626D01*
X101234015Y-39263132D01*
X101241026Y-39262494D01*
X101241030Y-39262494D01*
X101396462Y-39248348D01*
X101403483Y-39247709D01*
X101410185Y-39245531D01*
X101410187Y-39245531D01*
X101558623Y-39197301D01*
X101558626Y-39197300D01*
X101565322Y-39195124D01*
X101711490Y-39107990D01*
X101716584Y-39103139D01*
X101716588Y-39103136D01*
X101831975Y-38993254D01*
X101895100Y-38960762D01*
X101918867Y-38958500D01*
X107275050Y-38958500D01*
X107343171Y-38978502D01*
X107364145Y-38995405D01*
X107754595Y-39385855D01*
X107788621Y-39448167D01*
X107791500Y-39474950D01*
X107791500Y-40334430D01*
X107772751Y-40398129D01*
X107773253Y-40398378D01*
X107771839Y-40401226D01*
X107771409Y-40402688D01*
X107770123Y-40404683D01*
X107770121Y-40404688D01*
X107766304Y-40410610D01*
X107708103Y-40570516D01*
X107686775Y-40739343D01*
X107703381Y-40908699D01*
X107757094Y-41070167D01*
X107760741Y-41076189D01*
X107760742Y-41076191D01*
X107774497Y-41098902D01*
X107845246Y-41215723D01*
X107963455Y-41338132D01*
X108105846Y-41431310D01*
X108112450Y-41433766D01*
X108112452Y-41433767D01*
X108148844Y-41447301D01*
X108265341Y-41490626D01*
X108434015Y-41513132D01*
X108441026Y-41512494D01*
X108441030Y-41512494D01*
X108596462Y-41498348D01*
X108603483Y-41497709D01*
X108610185Y-41495531D01*
X108610187Y-41495531D01*
X108758623Y-41447301D01*
X108758626Y-41447300D01*
X108765322Y-41445124D01*
X108911490Y-41357990D01*
X108916584Y-41353139D01*
X108916588Y-41353136D01*
X108983833Y-41289099D01*
X109034721Y-41240639D01*
X109128891Y-41098902D01*
X109189319Y-40939825D01*
X109213001Y-40771313D01*
X109213299Y-40750000D01*
X109194331Y-40580892D01*
X109138368Y-40420189D01*
X109134636Y-40414217D01*
X109134631Y-40414206D01*
X109127646Y-40403028D01*
X109108500Y-40336259D01*
X109108500Y-39232060D01*
X109109059Y-39220203D01*
X109110789Y-39212463D01*
X109108562Y-39141599D01*
X109108500Y-39137641D01*
X109108500Y-39108568D01*
X109107947Y-39104189D01*
X109107014Y-39092346D01*
X109106723Y-39083064D01*
X109105563Y-39046169D01*
X109099579Y-39025571D01*
X109095571Y-39006218D01*
X109094576Y-38998348D01*
X109092882Y-38984936D01*
X109075875Y-38941982D01*
X109072029Y-38930747D01*
X109061358Y-38894016D01*
X109061357Y-38894013D01*
X109059145Y-38886400D01*
X109048225Y-38867935D01*
X109039534Y-38850195D01*
X109031635Y-38830244D01*
X109004482Y-38792871D01*
X108997967Y-38782952D01*
X108978493Y-38750023D01*
X108978490Y-38750019D01*
X108974453Y-38743193D01*
X108959289Y-38728029D01*
X108946448Y-38712995D01*
X108938501Y-38702057D01*
X108933841Y-38695643D01*
X108898247Y-38666197D01*
X108889468Y-38658208D01*
X108123655Y-37892395D01*
X108115665Y-37883615D01*
X108115663Y-37883613D01*
X108111416Y-37876920D01*
X108059742Y-37828395D01*
X108056901Y-37825641D01*
X108036333Y-37805073D01*
X108032826Y-37802353D01*
X108023804Y-37794647D01*
X107990133Y-37763028D01*
X107983181Y-37759206D01*
X107971342Y-37752697D01*
X107954818Y-37741843D01*
X107944132Y-37733555D01*
X107937868Y-37728696D01*
X107930596Y-37725549D01*
X107930594Y-37725548D01*
X107895465Y-37710346D01*
X107884805Y-37705124D01*
X107851284Y-37686695D01*
X107851282Y-37686694D01*
X107844337Y-37682876D01*
X107823559Y-37677541D01*
X107804869Y-37671142D01*
X107785176Y-37662620D01*
X107739552Y-37655394D01*
X107727929Y-37652987D01*
X107699928Y-37645798D01*
X107683188Y-37641500D01*
X107661741Y-37641500D01*
X107642031Y-37639949D01*
X107628677Y-37637834D01*
X107620848Y-37636594D01*
X107574859Y-37640941D01*
X107563004Y-37641500D01*
X104443950Y-37641500D01*
X104375829Y-37621498D01*
X104329336Y-37567842D01*
X104319232Y-37497568D01*
X104348726Y-37432988D01*
X104354855Y-37426405D01*
X104936115Y-36845145D01*
X105335854Y-36445405D01*
X105398166Y-36411379D01*
X105424949Y-36408500D01*
X111675050Y-36408500D01*
X111743171Y-36428502D01*
G37*
G04 #@! TD.AperFunction*
M02*
