M48
; DRILL file {KiCad 6.0.9-8da3e8f707~117~ubuntu20.04.1} date Wed 28 Dec 2022 17:02:03 CET
; FORMAT={-:-/ absolute / metric / decimal}
; #@! TF.CreationDate,2022-12-28T17:02:03+01:00
; #@! TF.GenerationSoftware,Kicad,Pcbnew,6.0.9-8da3e8f707~117~ubuntu20.04.1
; #@! TF.FileFunction,Plated,1,2,PTH
FMAT,2
METRIC
; #@! TA.AperFunction,Plated,PTH,ViaDrill
T1C0.300
; #@! TA.AperFunction,Plated,PTH,ComponentDrill
T2C0.900
; #@! TA.AperFunction,Plated,PTH,ComponentDrill
T3C0.914
%
G90
G05
T1
X75.05Y-41.55
X76.15Y-48.5
X85.1Y-38.4
X85.5Y-46.4
X85.75Y-47.45
X87.25Y-43.15
X88.0Y-38.25
X93.1Y-37.65
X95.25Y-44.9
X95.7Y-39.75
X95.95Y-38.25
X96.95Y-36.45
X97.5Y-44.4
X98.7Y-43.85
X98.95Y-45.55
X99.55Y-45.1
X99.95Y-37.85
X100.05Y-43.3
X100.1Y-42.5
X100.9Y-37.75
X101.25Y-38.5
X101.35Y-37.05
X101.85Y-39.9
X102.85Y-36.85
X104.1Y-43.4
X109.45Y-47.45
X110.0Y-37.35
X110.5Y-46.75
X112.55Y-40.05
X113.95Y-37.75
X114.35Y-51.75
X120.55Y-38.65
X121.4Y-38.7
X122.5Y-39.5
X123.1Y-45.55
X124.25Y-50.15
T2
X76.254Y-51.32
X78.794Y-51.32
X81.334Y-51.32
X83.874Y-51.32
X86.414Y-51.32
X88.954Y-51.32
X91.494Y-51.32
X94.034Y-51.32
X96.574Y-51.32
X99.114Y-51.32
T3
X76.254Y-36.08
X78.794Y-36.08
X81.334Y-36.08
X83.874Y-36.08
X86.414Y-36.08
T0
M30
