M48
; DRILL file {KiCad 7.0.1-3b83917a11~172~ubuntu22.04.1} date Tue 18 Apr 2023 13:12:16 CEST
; FORMAT={-:-/ absolute / metric / decimal}
; #@! TF.CreationDate,2023-04-18T13:12:16+02:00
; #@! TF.GenerationSoftware,Kicad,Pcbnew,7.0.1-3b83917a11~172~ubuntu22.04.1
; #@! TF.FileFunction,Plated,1,4,PTH
FMAT,2
METRIC
; #@! TA.AperFunction,Plated,PTH,ViaDrill
T1C0.250
; #@! TA.AperFunction,Plated,PTH,ViaDrill
T2C0.300
; #@! TA.AperFunction,Plated,PTH,ViaDrill
T3C0.400
; #@! TA.AperFunction,Plated,PTH,ComponentDrill
T4C0.600
; #@! TA.AperFunction,Plated,PTH,ComponentDrill
T5C0.650
%
G90
G05
T1
X73.34Y-34.71
X76.8Y-37.6
X76.914Y-35.469
X79.82Y-36.68
X79.925Y-44.975
X82.59Y-41.0
X83.125Y-51.875
X84.65Y-51.875
X84.9Y-49.3
X85.7Y-36.675
X86.875Y-48.4
X87.35Y-59.75
X88.275Y-52.075
X88.6Y-59.75
X89.025Y-52.05
X89.45Y-50.8
X89.825Y-52.3
X90.125Y-40.4
X90.2Y-43.6
X90.2Y-45.1
X90.225Y-48.975
X90.25Y-46.0
X90.275Y-41.2
X90.35Y-42.8
X90.375Y-42.0
X94.95Y-55.65
X95.812Y-31.92
X96.1Y-54.625
X98.2Y-54.13
X103.0Y-43.45
X103.71Y-33.41
X104.025Y-44.55
X104.6Y-42.85
X104.63Y-43.99
X104.85Y-44.65
X105.025Y-43.4
X105.693Y-55.432
X106.86Y-41.12
X109.39Y-58.0
T2
X82.09Y-32.43
X82.09Y-31.16
X82.5Y-39.4
X90.09Y-31.73
X90.57Y-35.35
X91.48Y-35.405
X94.775Y-44.225
X98.025Y-41.225
X99.175Y-54.525
X99.9Y-44.625
X100.58Y-60.46
X102.44Y-33.58
X103.17Y-31.592
X103.2Y-54.525
X104.275Y-50.325
X104.325Y-41.1
X104.65Y-36.675
X105.37Y-38.275
X105.647Y-56.425
X105.659Y-30.772
X110.11Y-61.14
X110.67Y-48.26
X110.7Y-43.71
X111.95Y-57.57
X115.53Y-43.24
X118.6Y-52.44
X119.36Y-48.33
T3
X79.3Y-55.475
X79.3Y-58.825
X81.33Y-42.425
X81.33Y-46.375
X82.425Y-61.375
X83.9Y-52.75
X85.28Y-46.375
X85.875Y-57.6
X89.575Y-38.425
T5
X87.35Y-60.95
X88.62Y-60.95
T4
X76.05Y-52.805G85X75.45Y-52.805
G05
X76.05Y-61.445G85X75.45Y-61.445
G05
X80.48Y-52.805G85X79.38Y-52.805
G05
X80.48Y-61.445G85X79.38Y-61.445
G05
T0
M30
