G04 #@! TF.GenerationSoftware,KiCad,Pcbnew,7.0.1-3b83917a11~172~ubuntu22.04.1*
G04 #@! TF.CreationDate,2023-04-18T13:12:10+02:00*
G04 #@! TF.ProjectId,154-watch,3135342d-7761-4746-9368-2e6b69636164,rev?*
G04 #@! TF.SameCoordinates,Original*
G04 #@! TF.FileFunction,Legend,Top*
G04 #@! TF.FilePolarity,Positive*
%FSLAX46Y46*%
G04 Gerber Fmt 4.6, Leading zero omitted, Abs format (unit mm)*
G04 Created by KiCad (PCBNEW 7.0.1-3b83917a11~172~ubuntu22.04.1) date 2023-04-18 13:12:10*
%MOMM*%
%LPD*%
G01*
G04 APERTURE LIST*
G04 Aperture macros list*
%AMRoundRect*
0 Rectangle with rounded corners*
0 $1 Rounding radius*
0 $2 $3 $4 $5 $6 $7 $8 $9 X,Y pos of 4 corners*
0 Add a 4 corners polygon primitive as box body*
4,1,4,$2,$3,$4,$5,$6,$7,$8,$9,$2,$3,0*
0 Add four circle primitives for the rounded corners*
1,1,$1+$1,$2,$3*
1,1,$1+$1,$4,$5*
1,1,$1+$1,$6,$7*
1,1,$1+$1,$8,$9*
0 Add four rect primitives between the rounded corners*
20,1,$1+$1,$2,$3,$4,$5,0*
20,1,$1+$1,$4,$5,$6,$7,0*
20,1,$1+$1,$6,$7,$8,$9,0*
20,1,$1+$1,$8,$9,$2,$3,0*%
%AMFreePoly0*
4,1,19,0.500000,-0.750000,0.000000,-0.750000,0.000000,-0.744911,-0.071157,-0.744911,-0.207708,-0.704816,-0.327430,-0.627875,-0.420627,-0.520320,-0.479746,-0.390866,-0.500000,-0.250000,-0.500000,0.250000,-0.479746,0.390866,-0.420627,0.520320,-0.327430,0.627875,-0.207708,0.704816,-0.071157,0.744911,0.000000,0.744911,0.000000,0.750000,0.500000,0.750000,0.500000,-0.750000,0.500000,-0.750000,
$1*%
%AMFreePoly1*
4,1,19,0.000000,0.744911,0.071157,0.744911,0.207708,0.704816,0.327430,0.627875,0.420627,0.520320,0.479746,0.390866,0.500000,0.250000,0.500000,-0.250000,0.479746,-0.390866,0.420627,-0.520320,0.327430,-0.627875,0.207708,-0.704816,0.071157,-0.744911,0.000000,-0.744911,0.000000,-0.750000,-0.500000,-0.750000,-0.500000,0.750000,0.000000,0.750000,0.000000,0.744911,0.000000,0.744911,
$1*%
G04 Aperture macros list end*
%ADD10C,0.150000*%
%ADD11C,0.140000*%
%ADD12C,0.130000*%
%ADD13C,0.170000*%
%ADD14C,0.280000*%
%ADD15C,0.160000*%
%ADD16C,0.120000*%
%ADD17C,0.100000*%
%ADD18RoundRect,0.250000X-0.337500X-0.475000X0.337500X-0.475000X0.337500X0.475000X-0.337500X0.475000X0*%
%ADD19RoundRect,0.150000X-0.587500X-0.150000X0.587500X-0.150000X0.587500X0.150000X-0.587500X0.150000X0*%
%ADD20RoundRect,0.200000X-0.200000X-0.275000X0.200000X-0.275000X0.200000X0.275000X-0.200000X0.275000X0*%
%ADD21RoundRect,0.250000X0.475000X-0.250000X0.475000X0.250000X-0.475000X0.250000X-0.475000X-0.250000X0*%
%ADD22R,1.000000X1.000000*%
%ADD23RoundRect,0.225000X0.225000X0.250000X-0.225000X0.250000X-0.225000X-0.250000X0.225000X-0.250000X0*%
%ADD24R,1.193800X0.304800*%
%ADD25R,2.006600X1.803400*%
%ADD26R,1.092200X3.708400*%
%ADD27C,2.100000*%
%ADD28R,0.406400X0.812800*%
%ADD29R,0.812800X0.406400*%
%ADD30R,1.447800X1.447800*%
%ADD31R,0.711200X0.711200*%
%ADD32RoundRect,0.225000X0.225000X0.375000X-0.225000X0.375000X-0.225000X-0.375000X0.225000X-0.375000X0*%
%ADD33O,1.000000X1.000000*%
%ADD34RoundRect,0.243750X0.243750X0.456250X-0.243750X0.456250X-0.243750X-0.456250X0.243750X-0.456250X0*%
%ADD35RoundRect,0.250000X0.475000X-0.337500X0.475000X0.337500X-0.475000X0.337500X-0.475000X-0.337500X0*%
%ADD36RoundRect,0.150000X0.825000X0.150000X-0.825000X0.150000X-0.825000X-0.150000X0.825000X-0.150000X0*%
%ADD37C,0.650000*%
%ADD38R,1.450000X0.600000*%
%ADD39R,1.450000X0.300000*%
%ADD40O,2.100000X1.000000*%
%ADD41O,1.600000X1.000000*%
%ADD42RoundRect,0.112500X-0.187500X-0.112500X0.187500X-0.112500X0.187500X0.112500X-0.187500X0.112500X0*%
%ADD43R,1.422400X1.295400*%
%ADD44RoundRect,0.200000X0.200000X0.275000X-0.200000X0.275000X-0.200000X-0.275000X0.200000X-0.275000X0*%
%ADD45RoundRect,0.250000X-0.475000X0.337500X-0.475000X-0.337500X0.475000X-0.337500X0.475000X0.337500X0*%
%ADD46RoundRect,0.225000X-0.225000X-0.375000X0.225000X-0.375000X0.225000X0.375000X-0.225000X0.375000X0*%
%ADD47RoundRect,0.250000X-0.250000X-0.475000X0.250000X-0.475000X0.250000X0.475000X-0.250000X0.475000X0*%
%ADD48RoundRect,0.200000X-0.275000X0.200000X-0.275000X-0.200000X0.275000X-0.200000X0.275000X0.200000X0*%
%ADD49R,0.700000X0.450000*%
%ADD50RoundRect,0.250000X-0.412500X-0.925000X0.412500X-0.925000X0.412500X0.925000X-0.412500X0.925000X0*%
%ADD51RoundRect,0.225000X-0.250000X0.225000X-0.250000X-0.225000X0.250000X-0.225000X0.250000X0.225000X0*%
%ADD52RoundRect,0.250000X0.337500X0.475000X-0.337500X0.475000X-0.337500X-0.475000X0.337500X-0.475000X0*%
%ADD53RoundRect,0.225000X0.375000X-0.225000X0.375000X0.225000X-0.375000X0.225000X-0.375000X-0.225000X0*%
%ADD54R,0.812800X0.304800*%
%ADD55RoundRect,0.250000X0.262500X0.450000X-0.262500X0.450000X-0.262500X-0.450000X0.262500X-0.450000X0*%
%ADD56RoundRect,0.250000X-0.925000X0.412500X-0.925000X-0.412500X0.925000X-0.412500X0.925000X0.412500X0*%
%ADD57RoundRect,0.150000X0.275000X-0.150000X0.275000X0.150000X-0.275000X0.150000X-0.275000X-0.150000X0*%
%ADD58RoundRect,0.175000X0.225000X-0.175000X0.225000X0.175000X-0.225000X0.175000X-0.225000X-0.175000X0*%
%ADD59R,0.300000X0.300000*%
%ADD60R,0.900000X0.300000*%
%ADD61R,0.300000X0.900000*%
%ADD62R,1.800000X1.800000*%
%ADD63R,0.990600X0.558800*%
%ADD64FreePoly0,0.000000*%
%ADD65FreePoly1,0.000000*%
G04 APERTURE END LIST*
D10*
X111000000Y-33890000D02*
X117600000Y-33890000D01*
X111000000Y-30620000D02*
X117600000Y-30620000D01*
X114560000Y-40120000D02*
X121400000Y-40120000D01*
X88000000Y-59350000D02*
X88000000Y-58100000D01*
D11*
X105353333Y-33372095D02*
X105200952Y-33372095D01*
X105200952Y-33372095D02*
X105124761Y-33410190D01*
X105124761Y-33410190D02*
X105086666Y-33448285D01*
X105086666Y-33448285D02*
X105010476Y-33562571D01*
X105010476Y-33562571D02*
X104972380Y-33714952D01*
X104972380Y-33714952D02*
X104972380Y-34019714D01*
X104972380Y-34019714D02*
X105010476Y-34095904D01*
X105010476Y-34095904D02*
X105048571Y-34134000D01*
X105048571Y-34134000D02*
X105124761Y-34172095D01*
X105124761Y-34172095D02*
X105277142Y-34172095D01*
X105277142Y-34172095D02*
X105353333Y-34134000D01*
X105353333Y-34134000D02*
X105391428Y-34095904D01*
X105391428Y-34095904D02*
X105429523Y-34019714D01*
X105429523Y-34019714D02*
X105429523Y-33829238D01*
X105429523Y-33829238D02*
X105391428Y-33753047D01*
X105391428Y-33753047D02*
X105353333Y-33714952D01*
X105353333Y-33714952D02*
X105277142Y-33676857D01*
X105277142Y-33676857D02*
X105124761Y-33676857D01*
X105124761Y-33676857D02*
X105048571Y-33714952D01*
X105048571Y-33714952D02*
X105010476Y-33753047D01*
X105010476Y-33753047D02*
X104972380Y-33829238D01*
X117980000Y-44645000D02*
X117980000Y-44573571D01*
X117908571Y-44787857D02*
X117908571Y-44573571D01*
X117837142Y-44930714D02*
X117837142Y-44573571D01*
X117765714Y-45073571D02*
X117765714Y-44573571D01*
X117694285Y-45145000D02*
X117694285Y-44573571D01*
X117622857Y-45287857D02*
X117622857Y-44573571D01*
X117551428Y-45430714D02*
X117551428Y-44573571D01*
X117480000Y-45573571D02*
X117480000Y-44573571D01*
X117408571Y-45716428D02*
X117408571Y-44573571D01*
X117337142Y-45573571D02*
X117337142Y-44573571D01*
X117265714Y-45430714D02*
X117265714Y-44573571D01*
X117194285Y-45287857D02*
X117194285Y-44573571D01*
X117122857Y-45145000D02*
X117122857Y-44573571D01*
X117051428Y-45073571D02*
X117051428Y-44573571D01*
X116980000Y-44930714D02*
X116980000Y-44573571D01*
X116908571Y-44787857D02*
X116908571Y-44573571D01*
X116837142Y-44573571D02*
X117408571Y-45645000D01*
X117408571Y-45645000D02*
X117980000Y-44573571D01*
X116837142Y-44645000D02*
X116837142Y-44573571D01*
X117408571Y-45716428D02*
X116765714Y-44573571D01*
X116765714Y-44573571D02*
X118051428Y-44573571D01*
X118051428Y-44573571D02*
X117408571Y-45716428D01*
D12*
X89701047Y-47760476D02*
X89701047Y-47493810D01*
X90120095Y-47379524D02*
X90120095Y-47760476D01*
X90120095Y-47760476D02*
X89320095Y-47760476D01*
X89320095Y-47760476D02*
X89320095Y-47379524D01*
X90082000Y-47074762D02*
X90120095Y-46960476D01*
X90120095Y-46960476D02*
X90120095Y-46770000D01*
X90120095Y-46770000D02*
X90082000Y-46693809D01*
X90082000Y-46693809D02*
X90043904Y-46655714D01*
X90043904Y-46655714D02*
X89967714Y-46617619D01*
X89967714Y-46617619D02*
X89891523Y-46617619D01*
X89891523Y-46617619D02*
X89815333Y-46655714D01*
X89815333Y-46655714D02*
X89777238Y-46693809D01*
X89777238Y-46693809D02*
X89739142Y-46770000D01*
X89739142Y-46770000D02*
X89701047Y-46922381D01*
X89701047Y-46922381D02*
X89662952Y-46998571D01*
X89662952Y-46998571D02*
X89624857Y-47036666D01*
X89624857Y-47036666D02*
X89548666Y-47074762D01*
X89548666Y-47074762D02*
X89472476Y-47074762D01*
X89472476Y-47074762D02*
X89396285Y-47036666D01*
X89396285Y-47036666D02*
X89358190Y-46998571D01*
X89358190Y-46998571D02*
X89320095Y-46922381D01*
X89320095Y-46922381D02*
X89320095Y-46731904D01*
X89320095Y-46731904D02*
X89358190Y-46617619D01*
X90120095Y-46274761D02*
X89320095Y-46274761D01*
X89320095Y-46274761D02*
X89320095Y-45969999D01*
X89320095Y-45969999D02*
X89358190Y-45893809D01*
X89358190Y-45893809D02*
X89396285Y-45855714D01*
X89396285Y-45855714D02*
X89472476Y-45817618D01*
X89472476Y-45817618D02*
X89586761Y-45817618D01*
X89586761Y-45817618D02*
X89662952Y-45855714D01*
X89662952Y-45855714D02*
X89701047Y-45893809D01*
X89701047Y-45893809D02*
X89739142Y-45969999D01*
X89739142Y-45969999D02*
X89739142Y-46274761D01*
X89320095Y-45550952D02*
X89320095Y-45055714D01*
X89320095Y-45055714D02*
X89624857Y-45322380D01*
X89624857Y-45322380D02*
X89624857Y-45208095D01*
X89624857Y-45208095D02*
X89662952Y-45131904D01*
X89662952Y-45131904D02*
X89701047Y-45093809D01*
X89701047Y-45093809D02*
X89777238Y-45055714D01*
X89777238Y-45055714D02*
X89967714Y-45055714D01*
X89967714Y-45055714D02*
X90043904Y-45093809D01*
X90043904Y-45093809D02*
X90082000Y-45131904D01*
X90082000Y-45131904D02*
X90120095Y-45208095D01*
X90120095Y-45208095D02*
X90120095Y-45436666D01*
X90120095Y-45436666D02*
X90082000Y-45512857D01*
X90082000Y-45512857D02*
X90043904Y-45550952D01*
X89396285Y-44750952D02*
X89358190Y-44712856D01*
X89358190Y-44712856D02*
X89320095Y-44636666D01*
X89320095Y-44636666D02*
X89320095Y-44446190D01*
X89320095Y-44446190D02*
X89358190Y-44369999D01*
X89358190Y-44369999D02*
X89396285Y-44331904D01*
X89396285Y-44331904D02*
X89472476Y-44293809D01*
X89472476Y-44293809D02*
X89548666Y-44293809D01*
X89548666Y-44293809D02*
X89662952Y-44331904D01*
X89662952Y-44331904D02*
X90120095Y-44789047D01*
X90120095Y-44789047D02*
X90120095Y-44293809D01*
X89815333Y-43950951D02*
X89815333Y-43341428D01*
X90043904Y-42503332D02*
X90082000Y-42541428D01*
X90082000Y-42541428D02*
X90120095Y-42655713D01*
X90120095Y-42655713D02*
X90120095Y-42731904D01*
X90120095Y-42731904D02*
X90082000Y-42846190D01*
X90082000Y-42846190D02*
X90005809Y-42922380D01*
X90005809Y-42922380D02*
X89929619Y-42960475D01*
X89929619Y-42960475D02*
X89777238Y-42998571D01*
X89777238Y-42998571D02*
X89662952Y-42998571D01*
X89662952Y-42998571D02*
X89510571Y-42960475D01*
X89510571Y-42960475D02*
X89434380Y-42922380D01*
X89434380Y-42922380D02*
X89358190Y-42846190D01*
X89358190Y-42846190D02*
X89320095Y-42731904D01*
X89320095Y-42731904D02*
X89320095Y-42655713D01*
X89320095Y-42655713D02*
X89358190Y-42541428D01*
X89358190Y-42541428D02*
X89396285Y-42503332D01*
X89320095Y-42236666D02*
X89320095Y-41741428D01*
X89320095Y-41741428D02*
X89624857Y-42008094D01*
X89624857Y-42008094D02*
X89624857Y-41893809D01*
X89624857Y-41893809D02*
X89662952Y-41817618D01*
X89662952Y-41817618D02*
X89701047Y-41779523D01*
X89701047Y-41779523D02*
X89777238Y-41741428D01*
X89777238Y-41741428D02*
X89967714Y-41741428D01*
X89967714Y-41741428D02*
X90043904Y-41779523D01*
X90043904Y-41779523D02*
X90082000Y-41817618D01*
X90082000Y-41817618D02*
X90120095Y-41893809D01*
X90120095Y-41893809D02*
X90120095Y-42122380D01*
X90120095Y-42122380D02*
X90082000Y-42198571D01*
X90082000Y-42198571D02*
X90043904Y-42236666D01*
D13*
X101763809Y-35421047D02*
X102030475Y-35421047D01*
X102144761Y-35840095D02*
X101763809Y-35840095D01*
X101763809Y-35840095D02*
X101763809Y-35040095D01*
X101763809Y-35040095D02*
X102144761Y-35040095D01*
X102487619Y-35840095D02*
X102487619Y-35040095D01*
X102487619Y-35040095D02*
X102792381Y-35040095D01*
X102792381Y-35040095D02*
X102868571Y-35078190D01*
X102868571Y-35078190D02*
X102906666Y-35116285D01*
X102906666Y-35116285D02*
X102944762Y-35192476D01*
X102944762Y-35192476D02*
X102944762Y-35306761D01*
X102944762Y-35306761D02*
X102906666Y-35382952D01*
X102906666Y-35382952D02*
X102868571Y-35421047D01*
X102868571Y-35421047D02*
X102792381Y-35459142D01*
X102792381Y-35459142D02*
X102487619Y-35459142D01*
X103249523Y-35611523D02*
X103630476Y-35611523D01*
X103173333Y-35840095D02*
X103440000Y-35040095D01*
X103440000Y-35040095D02*
X103706666Y-35840095D01*
X103973333Y-35840095D02*
X103973333Y-35040095D01*
X103973333Y-35040095D02*
X104278095Y-35040095D01*
X104278095Y-35040095D02*
X104354285Y-35078190D01*
X104354285Y-35078190D02*
X104392380Y-35116285D01*
X104392380Y-35116285D02*
X104430476Y-35192476D01*
X104430476Y-35192476D02*
X104430476Y-35306761D01*
X104430476Y-35306761D02*
X104392380Y-35382952D01*
X104392380Y-35382952D02*
X104354285Y-35421047D01*
X104354285Y-35421047D02*
X104278095Y-35459142D01*
X104278095Y-35459142D02*
X103973333Y-35459142D01*
X104773333Y-35421047D02*
X105039999Y-35421047D01*
X105154285Y-35840095D02*
X104773333Y-35840095D01*
X104773333Y-35840095D02*
X104773333Y-35040095D01*
X104773333Y-35040095D02*
X105154285Y-35040095D01*
X105954286Y-35840095D02*
X105687619Y-35459142D01*
X105497143Y-35840095D02*
X105497143Y-35040095D01*
X105497143Y-35040095D02*
X105801905Y-35040095D01*
X105801905Y-35040095D02*
X105878095Y-35078190D01*
X105878095Y-35078190D02*
X105916190Y-35116285D01*
X105916190Y-35116285D02*
X105954286Y-35192476D01*
X105954286Y-35192476D02*
X105954286Y-35306761D01*
X105954286Y-35306761D02*
X105916190Y-35382952D01*
X105916190Y-35382952D02*
X105878095Y-35421047D01*
X105878095Y-35421047D02*
X105801905Y-35459142D01*
X105801905Y-35459142D02*
X105497143Y-35459142D01*
D14*
X97910000Y-35757666D02*
X97110000Y-35757666D01*
X97510000Y-35757666D02*
X97510000Y-34357666D01*
X97510000Y-34357666D02*
X97376667Y-34557666D01*
X97376667Y-34557666D02*
X97243334Y-34691000D01*
X97243334Y-34691000D02*
X97110000Y-34757666D01*
X98510000Y-35624333D02*
X98576667Y-35691000D01*
X98576667Y-35691000D02*
X98510000Y-35757666D01*
X98510000Y-35757666D02*
X98443333Y-35691000D01*
X98443333Y-35691000D02*
X98510000Y-35624333D01*
X98510000Y-35624333D02*
X98510000Y-35757666D01*
X99843334Y-34357666D02*
X99176667Y-34357666D01*
X99176667Y-34357666D02*
X99110000Y-35024333D01*
X99110000Y-35024333D02*
X99176667Y-34957666D01*
X99176667Y-34957666D02*
X99310000Y-34891000D01*
X99310000Y-34891000D02*
X99643334Y-34891000D01*
X99643334Y-34891000D02*
X99776667Y-34957666D01*
X99776667Y-34957666D02*
X99843334Y-35024333D01*
X99843334Y-35024333D02*
X99910000Y-35157666D01*
X99910000Y-35157666D02*
X99910000Y-35491000D01*
X99910000Y-35491000D02*
X99843334Y-35624333D01*
X99843334Y-35624333D02*
X99776667Y-35691000D01*
X99776667Y-35691000D02*
X99643334Y-35757666D01*
X99643334Y-35757666D02*
X99310000Y-35757666D01*
X99310000Y-35757666D02*
X99176667Y-35691000D01*
X99176667Y-35691000D02*
X99110000Y-35624333D01*
X101110000Y-34824333D02*
X101110000Y-35757666D01*
X100776667Y-34291000D02*
X100443333Y-35291000D01*
X100443333Y-35291000D02*
X101310000Y-35291000D01*
X101776666Y-34357666D02*
X101776666Y-34624333D01*
X102310000Y-34357666D02*
X102310000Y-34624333D01*
D10*
X100289048Y-59231666D02*
X101050953Y-59231666D01*
X100670000Y-59612619D02*
X100670000Y-58850714D01*
D12*
X116406666Y-44010500D02*
X116340000Y-44043833D01*
X116340000Y-44043833D02*
X116206666Y-44043833D01*
X116206666Y-44043833D02*
X116140000Y-44010500D01*
X116140000Y-44010500D02*
X116106666Y-43977166D01*
X116106666Y-43977166D02*
X116073333Y-43910500D01*
X116073333Y-43910500D02*
X116073333Y-43710500D01*
X116073333Y-43710500D02*
X116106666Y-43643833D01*
X116106666Y-43643833D02*
X116140000Y-43610500D01*
X116140000Y-43610500D02*
X116206666Y-43577166D01*
X116206666Y-43577166D02*
X116340000Y-43577166D01*
X116340000Y-43577166D02*
X116406666Y-43610500D01*
X116806666Y-44043833D02*
X116740000Y-44010500D01*
X116740000Y-44010500D02*
X116706666Y-43943833D01*
X116706666Y-43943833D02*
X116706666Y-43343833D01*
X117173333Y-44043833D02*
X117106667Y-44010500D01*
X117106667Y-44010500D02*
X117073333Y-43977166D01*
X117073333Y-43977166D02*
X117040000Y-43910500D01*
X117040000Y-43910500D02*
X117040000Y-43710500D01*
X117040000Y-43710500D02*
X117073333Y-43643833D01*
X117073333Y-43643833D02*
X117106667Y-43610500D01*
X117106667Y-43610500D02*
X117173333Y-43577166D01*
X117173333Y-43577166D02*
X117273333Y-43577166D01*
X117273333Y-43577166D02*
X117340000Y-43610500D01*
X117340000Y-43610500D02*
X117373333Y-43643833D01*
X117373333Y-43643833D02*
X117406667Y-43710500D01*
X117406667Y-43710500D02*
X117406667Y-43910500D01*
X117406667Y-43910500D02*
X117373333Y-43977166D01*
X117373333Y-43977166D02*
X117340000Y-44010500D01*
X117340000Y-44010500D02*
X117273333Y-44043833D01*
X117273333Y-44043833D02*
X117173333Y-44043833D01*
X117673333Y-44010500D02*
X117740000Y-44043833D01*
X117740000Y-44043833D02*
X117873333Y-44043833D01*
X117873333Y-44043833D02*
X117940000Y-44010500D01*
X117940000Y-44010500D02*
X117973333Y-43943833D01*
X117973333Y-43943833D02*
X117973333Y-43910500D01*
X117973333Y-43910500D02*
X117940000Y-43843833D01*
X117940000Y-43843833D02*
X117873333Y-43810500D01*
X117873333Y-43810500D02*
X117773333Y-43810500D01*
X117773333Y-43810500D02*
X117706666Y-43777166D01*
X117706666Y-43777166D02*
X117673333Y-43710500D01*
X117673333Y-43710500D02*
X117673333Y-43677166D01*
X117673333Y-43677166D02*
X117706666Y-43610500D01*
X117706666Y-43610500D02*
X117773333Y-43577166D01*
X117773333Y-43577166D02*
X117873333Y-43577166D01*
X117873333Y-43577166D02*
X117940000Y-43610500D01*
X118540000Y-44010500D02*
X118473333Y-44043833D01*
X118473333Y-44043833D02*
X118340000Y-44043833D01*
X118340000Y-44043833D02*
X118273333Y-44010500D01*
X118273333Y-44010500D02*
X118240000Y-43943833D01*
X118240000Y-43943833D02*
X118240000Y-43677166D01*
X118240000Y-43677166D02*
X118273333Y-43610500D01*
X118273333Y-43610500D02*
X118340000Y-43577166D01*
X118340000Y-43577166D02*
X118473333Y-43577166D01*
X118473333Y-43577166D02*
X118540000Y-43610500D01*
X118540000Y-43610500D02*
X118573333Y-43677166D01*
X118573333Y-43677166D02*
X118573333Y-43743833D01*
X118573333Y-43743833D02*
X118240000Y-43810500D01*
X119173333Y-44043833D02*
X119173333Y-43343833D01*
X119173333Y-44010500D02*
X119106667Y-44043833D01*
X119106667Y-44043833D02*
X118973333Y-44043833D01*
X118973333Y-44043833D02*
X118906667Y-44010500D01*
X118906667Y-44010500D02*
X118873333Y-43977166D01*
X118873333Y-43977166D02*
X118840000Y-43910500D01*
X118840000Y-43910500D02*
X118840000Y-43710500D01*
X118840000Y-43710500D02*
X118873333Y-43643833D01*
X118873333Y-43643833D02*
X118906667Y-43610500D01*
X118906667Y-43610500D02*
X118973333Y-43577166D01*
X118973333Y-43577166D02*
X119106667Y-43577166D01*
X119106667Y-43577166D02*
X119173333Y-43610500D01*
X119506666Y-43977166D02*
X119540000Y-44010500D01*
X119540000Y-44010500D02*
X119506666Y-44043833D01*
X119506666Y-44043833D02*
X119473333Y-44010500D01*
X119473333Y-44010500D02*
X119506666Y-43977166D01*
X119506666Y-43977166D02*
X119506666Y-44043833D01*
X119506666Y-43610500D02*
X119540000Y-43643833D01*
X119540000Y-43643833D02*
X119506666Y-43677166D01*
X119506666Y-43677166D02*
X119473333Y-43643833D01*
X119473333Y-43643833D02*
X119506666Y-43610500D01*
X119506666Y-43610500D02*
X119506666Y-43677166D01*
X119773333Y-43343833D02*
X120206666Y-43343833D01*
X120206666Y-43343833D02*
X119973333Y-43610500D01*
X119973333Y-43610500D02*
X120073333Y-43610500D01*
X120073333Y-43610500D02*
X120139999Y-43643833D01*
X120139999Y-43643833D02*
X120173333Y-43677166D01*
X120173333Y-43677166D02*
X120206666Y-43743833D01*
X120206666Y-43743833D02*
X120206666Y-43910500D01*
X120206666Y-43910500D02*
X120173333Y-43977166D01*
X120173333Y-43977166D02*
X120139999Y-44010500D01*
X120139999Y-44010500D02*
X120073333Y-44043833D01*
X120073333Y-44043833D02*
X119873333Y-44043833D01*
X119873333Y-44043833D02*
X119806666Y-44010500D01*
X119806666Y-44010500D02*
X119773333Y-43977166D01*
X120473333Y-44043833D02*
X120640000Y-44043833D01*
X120640000Y-44043833D02*
X120640000Y-43910500D01*
X120640000Y-43910500D02*
X120573333Y-43877166D01*
X120573333Y-43877166D02*
X120506666Y-43810500D01*
X120506666Y-43810500D02*
X120473333Y-43710500D01*
X120473333Y-43710500D02*
X120473333Y-43543833D01*
X120473333Y-43543833D02*
X120506666Y-43443833D01*
X120506666Y-43443833D02*
X120573333Y-43377166D01*
X120573333Y-43377166D02*
X120673333Y-43343833D01*
X120673333Y-43343833D02*
X120806666Y-43343833D01*
X120806666Y-43343833D02*
X120906666Y-43377166D01*
X120906666Y-43377166D02*
X120973333Y-43443833D01*
X120973333Y-43443833D02*
X121006666Y-43543833D01*
X121006666Y-43543833D02*
X121006666Y-43710500D01*
X121006666Y-43710500D02*
X120973333Y-43810500D01*
X120973333Y-43810500D02*
X120906666Y-43877166D01*
X120906666Y-43877166D02*
X120840000Y-43910500D01*
X120840000Y-43910500D02*
X120840000Y-44043833D01*
X120840000Y-44043833D02*
X121006666Y-44043833D01*
X60383833Y-55026666D02*
X60050500Y-55259999D01*
X60383833Y-55426666D02*
X59683833Y-55426666D01*
X59683833Y-55426666D02*
X59683833Y-55159999D01*
X59683833Y-55159999D02*
X59717166Y-55093333D01*
X59717166Y-55093333D02*
X59750500Y-55059999D01*
X59750500Y-55059999D02*
X59817166Y-55026666D01*
X59817166Y-55026666D02*
X59917166Y-55026666D01*
X59917166Y-55026666D02*
X59983833Y-55059999D01*
X59983833Y-55059999D02*
X60017166Y-55093333D01*
X60017166Y-55093333D02*
X60050500Y-55159999D01*
X60050500Y-55159999D02*
X60050500Y-55426666D01*
X59683833Y-54393333D02*
X59683833Y-54726666D01*
X59683833Y-54726666D02*
X60017166Y-54759999D01*
X60017166Y-54759999D02*
X59983833Y-54726666D01*
X59983833Y-54726666D02*
X59950500Y-54659999D01*
X59950500Y-54659999D02*
X59950500Y-54493333D01*
X59950500Y-54493333D02*
X59983833Y-54426666D01*
X59983833Y-54426666D02*
X60017166Y-54393333D01*
X60017166Y-54393333D02*
X60083833Y-54359999D01*
X60083833Y-54359999D02*
X60250500Y-54359999D01*
X60250500Y-54359999D02*
X60317166Y-54393333D01*
X60317166Y-54393333D02*
X60350500Y-54426666D01*
X60350500Y-54426666D02*
X60383833Y-54493333D01*
X60383833Y-54493333D02*
X60383833Y-54659999D01*
X60383833Y-54659999D02*
X60350500Y-54726666D01*
X60350500Y-54726666D02*
X60317166Y-54759999D01*
D10*
X87014286Y-58407857D02*
X87061905Y-58360238D01*
X87061905Y-58360238D02*
X87157143Y-58312619D01*
X87157143Y-58312619D02*
X87395238Y-58312619D01*
X87395238Y-58312619D02*
X87490476Y-58360238D01*
X87490476Y-58360238D02*
X87538095Y-58407857D01*
X87538095Y-58407857D02*
X87585714Y-58503095D01*
X87585714Y-58503095D02*
X87585714Y-58598333D01*
X87585714Y-58598333D02*
X87538095Y-58741190D01*
X87538095Y-58741190D02*
X86966667Y-59312619D01*
X86966667Y-59312619D02*
X87585714Y-59312619D01*
D13*
X111824762Y-32710095D02*
X111824762Y-32100571D01*
X111786667Y-32672000D02*
X111786667Y-32138666D01*
X111748572Y-32672000D02*
X111748572Y-32138666D01*
X111710477Y-32633904D02*
X111710477Y-32176761D01*
X111672381Y-32633904D02*
X111672381Y-32176761D01*
X111634286Y-32595809D02*
X111634286Y-32214857D01*
X111596191Y-32595809D02*
X111596191Y-32214857D01*
X111558096Y-32557714D02*
X111558096Y-32252952D01*
X111520000Y-32519619D02*
X111520000Y-32291047D01*
X111481905Y-32519619D02*
X111481905Y-32291047D01*
X111443810Y-32481523D02*
X111443810Y-32329142D01*
X111405715Y-32481523D02*
X111405715Y-32329142D01*
X111367619Y-32405333D02*
X111329524Y-32405333D01*
X111367619Y-32443428D02*
X111367619Y-32367238D01*
X111862858Y-32710095D02*
X111291429Y-32405333D01*
X111291429Y-32405333D02*
X111862858Y-32100571D01*
X111253334Y-32405333D02*
X111862858Y-32062476D01*
X111862858Y-32062476D02*
X111862858Y-32748190D01*
X111862858Y-32748190D02*
X111253334Y-32405333D01*
X112129524Y-31910095D02*
X112586667Y-31910095D01*
X112358095Y-32710095D02*
X112358095Y-31910095D01*
X113005715Y-31910095D02*
X113158096Y-31910095D01*
X113158096Y-31910095D02*
X113234286Y-31948190D01*
X113234286Y-31948190D02*
X113310477Y-32024380D01*
X113310477Y-32024380D02*
X113348572Y-32176761D01*
X113348572Y-32176761D02*
X113348572Y-32443428D01*
X113348572Y-32443428D02*
X113310477Y-32595809D01*
X113310477Y-32595809D02*
X113234286Y-32672000D01*
X113234286Y-32672000D02*
X113158096Y-32710095D01*
X113158096Y-32710095D02*
X113005715Y-32710095D01*
X113005715Y-32710095D02*
X112929524Y-32672000D01*
X112929524Y-32672000D02*
X112853334Y-32595809D01*
X112853334Y-32595809D02*
X112815238Y-32443428D01*
X112815238Y-32443428D02*
X112815238Y-32176761D01*
X112815238Y-32176761D02*
X112853334Y-32024380D01*
X112853334Y-32024380D02*
X112929524Y-31948190D01*
X112929524Y-31948190D02*
X113005715Y-31910095D01*
X113691429Y-31910095D02*
X113691429Y-32557714D01*
X113691429Y-32557714D02*
X113729524Y-32633904D01*
X113729524Y-32633904D02*
X113767619Y-32672000D01*
X113767619Y-32672000D02*
X113843810Y-32710095D01*
X113843810Y-32710095D02*
X113996191Y-32710095D01*
X113996191Y-32710095D02*
X114072381Y-32672000D01*
X114072381Y-32672000D02*
X114110476Y-32633904D01*
X114110476Y-32633904D02*
X114148572Y-32557714D01*
X114148572Y-32557714D02*
X114148572Y-31910095D01*
X114986667Y-32633904D02*
X114948571Y-32672000D01*
X114948571Y-32672000D02*
X114834286Y-32710095D01*
X114834286Y-32710095D02*
X114758095Y-32710095D01*
X114758095Y-32710095D02*
X114643809Y-32672000D01*
X114643809Y-32672000D02*
X114567619Y-32595809D01*
X114567619Y-32595809D02*
X114529524Y-32519619D01*
X114529524Y-32519619D02*
X114491428Y-32367238D01*
X114491428Y-32367238D02*
X114491428Y-32252952D01*
X114491428Y-32252952D02*
X114529524Y-32100571D01*
X114529524Y-32100571D02*
X114567619Y-32024380D01*
X114567619Y-32024380D02*
X114643809Y-31948190D01*
X114643809Y-31948190D02*
X114758095Y-31910095D01*
X114758095Y-31910095D02*
X114834286Y-31910095D01*
X114834286Y-31910095D02*
X114948571Y-31948190D01*
X114948571Y-31948190D02*
X114986667Y-31986285D01*
X115329524Y-32710095D02*
X115329524Y-31910095D01*
X115329524Y-32291047D02*
X115786667Y-32291047D01*
X115786667Y-32710095D02*
X115786667Y-31910095D01*
D11*
X99410476Y-53322095D02*
X99410476Y-52522095D01*
X99410476Y-52522095D02*
X99600952Y-52522095D01*
X99600952Y-52522095D02*
X99715238Y-52560190D01*
X99715238Y-52560190D02*
X99791428Y-52636380D01*
X99791428Y-52636380D02*
X99829523Y-52712571D01*
X99829523Y-52712571D02*
X99867619Y-52864952D01*
X99867619Y-52864952D02*
X99867619Y-52979238D01*
X99867619Y-52979238D02*
X99829523Y-53131619D01*
X99829523Y-53131619D02*
X99791428Y-53207809D01*
X99791428Y-53207809D02*
X99715238Y-53284000D01*
X99715238Y-53284000D02*
X99600952Y-53322095D01*
X99600952Y-53322095D02*
X99410476Y-53322095D01*
X100096190Y-52522095D02*
X100553333Y-52522095D01*
X100324761Y-53322095D02*
X100324761Y-52522095D01*
X101277143Y-53322095D02*
X101010476Y-52941142D01*
X100820000Y-53322095D02*
X100820000Y-52522095D01*
X100820000Y-52522095D02*
X101124762Y-52522095D01*
X101124762Y-52522095D02*
X101200952Y-52560190D01*
X101200952Y-52560190D02*
X101239047Y-52598285D01*
X101239047Y-52598285D02*
X101277143Y-52674476D01*
X101277143Y-52674476D02*
X101277143Y-52788761D01*
X101277143Y-52788761D02*
X101239047Y-52864952D01*
X101239047Y-52864952D02*
X101200952Y-52903047D01*
X101200952Y-52903047D02*
X101124762Y-52941142D01*
X101124762Y-52941142D02*
X100820000Y-52941142D01*
D12*
X116486666Y-41706833D02*
X116253333Y-41373500D01*
X116086666Y-41706833D02*
X116086666Y-41006833D01*
X116086666Y-41006833D02*
X116353333Y-41006833D01*
X116353333Y-41006833D02*
X116420000Y-41040166D01*
X116420000Y-41040166D02*
X116453333Y-41073500D01*
X116453333Y-41073500D02*
X116486666Y-41140166D01*
X116486666Y-41140166D02*
X116486666Y-41240166D01*
X116486666Y-41240166D02*
X116453333Y-41306833D01*
X116453333Y-41306833D02*
X116420000Y-41340166D01*
X116420000Y-41340166D02*
X116353333Y-41373500D01*
X116353333Y-41373500D02*
X116086666Y-41373500D01*
X116786666Y-41340166D02*
X117020000Y-41340166D01*
X117120000Y-41706833D02*
X116786666Y-41706833D01*
X116786666Y-41706833D02*
X116786666Y-41006833D01*
X116786666Y-41006833D02*
X117120000Y-41006833D01*
X117386666Y-41673500D02*
X117486666Y-41706833D01*
X117486666Y-41706833D02*
X117653333Y-41706833D01*
X117653333Y-41706833D02*
X117719999Y-41673500D01*
X117719999Y-41673500D02*
X117753333Y-41640166D01*
X117753333Y-41640166D02*
X117786666Y-41573500D01*
X117786666Y-41573500D02*
X117786666Y-41506833D01*
X117786666Y-41506833D02*
X117753333Y-41440166D01*
X117753333Y-41440166D02*
X117719999Y-41406833D01*
X117719999Y-41406833D02*
X117653333Y-41373500D01*
X117653333Y-41373500D02*
X117519999Y-41340166D01*
X117519999Y-41340166D02*
X117453333Y-41306833D01*
X117453333Y-41306833D02*
X117419999Y-41273500D01*
X117419999Y-41273500D02*
X117386666Y-41206833D01*
X117386666Y-41206833D02*
X117386666Y-41140166D01*
X117386666Y-41140166D02*
X117419999Y-41073500D01*
X117419999Y-41073500D02*
X117453333Y-41040166D01*
X117453333Y-41040166D02*
X117519999Y-41006833D01*
X117519999Y-41006833D02*
X117686666Y-41006833D01*
X117686666Y-41006833D02*
X117786666Y-41040166D01*
X118086666Y-41340166D02*
X118320000Y-41340166D01*
X118420000Y-41706833D02*
X118086666Y-41706833D01*
X118086666Y-41706833D02*
X118086666Y-41006833D01*
X118086666Y-41006833D02*
X118420000Y-41006833D01*
X116186666Y-42840833D02*
X116120000Y-42807500D01*
X116120000Y-42807500D02*
X116086666Y-42774166D01*
X116086666Y-42774166D02*
X116053333Y-42707500D01*
X116053333Y-42707500D02*
X116053333Y-42507500D01*
X116053333Y-42507500D02*
X116086666Y-42440833D01*
X116086666Y-42440833D02*
X116120000Y-42407500D01*
X116120000Y-42407500D02*
X116186666Y-42374166D01*
X116186666Y-42374166D02*
X116286666Y-42374166D01*
X116286666Y-42374166D02*
X116353333Y-42407500D01*
X116353333Y-42407500D02*
X116386666Y-42440833D01*
X116386666Y-42440833D02*
X116420000Y-42507500D01*
X116420000Y-42507500D02*
X116420000Y-42707500D01*
X116420000Y-42707500D02*
X116386666Y-42774166D01*
X116386666Y-42774166D02*
X116353333Y-42807500D01*
X116353333Y-42807500D02*
X116286666Y-42840833D01*
X116286666Y-42840833D02*
X116186666Y-42840833D01*
X116719999Y-42374166D02*
X116719999Y-43074166D01*
X116719999Y-42407500D02*
X116786666Y-42374166D01*
X116786666Y-42374166D02*
X116919999Y-42374166D01*
X116919999Y-42374166D02*
X116986666Y-42407500D01*
X116986666Y-42407500D02*
X117019999Y-42440833D01*
X117019999Y-42440833D02*
X117053333Y-42507500D01*
X117053333Y-42507500D02*
X117053333Y-42707500D01*
X117053333Y-42707500D02*
X117019999Y-42774166D01*
X117019999Y-42774166D02*
X116986666Y-42807500D01*
X116986666Y-42807500D02*
X116919999Y-42840833D01*
X116919999Y-42840833D02*
X116786666Y-42840833D01*
X116786666Y-42840833D02*
X116719999Y-42807500D01*
X117619999Y-42807500D02*
X117553332Y-42840833D01*
X117553332Y-42840833D02*
X117419999Y-42840833D01*
X117419999Y-42840833D02*
X117353332Y-42807500D01*
X117353332Y-42807500D02*
X117319999Y-42740833D01*
X117319999Y-42740833D02*
X117319999Y-42474166D01*
X117319999Y-42474166D02*
X117353332Y-42407500D01*
X117353332Y-42407500D02*
X117419999Y-42374166D01*
X117419999Y-42374166D02*
X117553332Y-42374166D01*
X117553332Y-42374166D02*
X117619999Y-42407500D01*
X117619999Y-42407500D02*
X117653332Y-42474166D01*
X117653332Y-42474166D02*
X117653332Y-42540833D01*
X117653332Y-42540833D02*
X117319999Y-42607500D01*
X117953332Y-42374166D02*
X117953332Y-42840833D01*
X117953332Y-42440833D02*
X117986666Y-42407500D01*
X117986666Y-42407500D02*
X118053332Y-42374166D01*
X118053332Y-42374166D02*
X118153332Y-42374166D01*
X118153332Y-42374166D02*
X118219999Y-42407500D01*
X118219999Y-42407500D02*
X118253332Y-42474166D01*
X118253332Y-42474166D02*
X118253332Y-42840833D01*
X118586665Y-42774166D02*
X118619999Y-42807500D01*
X118619999Y-42807500D02*
X118586665Y-42840833D01*
X118586665Y-42840833D02*
X118553332Y-42807500D01*
X118553332Y-42807500D02*
X118586665Y-42774166D01*
X118586665Y-42774166D02*
X118586665Y-42840833D01*
X118586665Y-42407500D02*
X118619999Y-42440833D01*
X118619999Y-42440833D02*
X118586665Y-42474166D01*
X118586665Y-42474166D02*
X118553332Y-42440833D01*
X118553332Y-42440833D02*
X118586665Y-42407500D01*
X118586665Y-42407500D02*
X118586665Y-42474166D01*
X119219998Y-42374166D02*
X119219998Y-42840833D01*
X119053332Y-42107500D02*
X118886665Y-42607500D01*
X118886665Y-42607500D02*
X119319998Y-42607500D01*
X119586665Y-42774166D02*
X119619999Y-42807500D01*
X119619999Y-42807500D02*
X119586665Y-42840833D01*
X119586665Y-42840833D02*
X119553332Y-42807500D01*
X119553332Y-42807500D02*
X119586665Y-42774166D01*
X119586665Y-42774166D02*
X119586665Y-42840833D01*
X119853332Y-42140833D02*
X120319998Y-42140833D01*
X120319998Y-42140833D02*
X120019998Y-42840833D01*
X120553332Y-42840833D02*
X120719999Y-42840833D01*
X120719999Y-42840833D02*
X120719999Y-42707500D01*
X120719999Y-42707500D02*
X120653332Y-42674166D01*
X120653332Y-42674166D02*
X120586665Y-42607500D01*
X120586665Y-42607500D02*
X120553332Y-42507500D01*
X120553332Y-42507500D02*
X120553332Y-42340833D01*
X120553332Y-42340833D02*
X120586665Y-42240833D01*
X120586665Y-42240833D02*
X120653332Y-42174166D01*
X120653332Y-42174166D02*
X120753332Y-42140833D01*
X120753332Y-42140833D02*
X120886665Y-42140833D01*
X120886665Y-42140833D02*
X120986665Y-42174166D01*
X120986665Y-42174166D02*
X121053332Y-42240833D01*
X121053332Y-42240833D02*
X121086665Y-42340833D01*
X121086665Y-42340833D02*
X121086665Y-42507500D01*
X121086665Y-42507500D02*
X121053332Y-42607500D01*
X121053332Y-42607500D02*
X120986665Y-42674166D01*
X120986665Y-42674166D02*
X120919999Y-42707500D01*
X120919999Y-42707500D02*
X120919999Y-42840833D01*
X120919999Y-42840833D02*
X121086665Y-42840833D01*
D11*
X106602380Y-37658285D02*
X106640476Y-37620190D01*
X106640476Y-37620190D02*
X106716666Y-37582095D01*
X106716666Y-37582095D02*
X106907142Y-37582095D01*
X106907142Y-37582095D02*
X106983333Y-37620190D01*
X106983333Y-37620190D02*
X107021428Y-37658285D01*
X107021428Y-37658285D02*
X107059523Y-37734476D01*
X107059523Y-37734476D02*
X107059523Y-37810666D01*
X107059523Y-37810666D02*
X107021428Y-37924952D01*
X107021428Y-37924952D02*
X106564285Y-38382095D01*
X106564285Y-38382095D02*
X107059523Y-38382095D01*
X107745238Y-37848761D02*
X107745238Y-38382095D01*
X107554762Y-37544000D02*
X107364285Y-38115428D01*
X107364285Y-38115428D02*
X107859524Y-38115428D01*
D12*
X82857143Y-59193904D02*
X82819047Y-59232000D01*
X82819047Y-59232000D02*
X82704762Y-59270095D01*
X82704762Y-59270095D02*
X82628571Y-59270095D01*
X82628571Y-59270095D02*
X82514285Y-59232000D01*
X82514285Y-59232000D02*
X82438095Y-59155809D01*
X82438095Y-59155809D02*
X82400000Y-59079619D01*
X82400000Y-59079619D02*
X82361904Y-58927238D01*
X82361904Y-58927238D02*
X82361904Y-58812952D01*
X82361904Y-58812952D02*
X82400000Y-58660571D01*
X82400000Y-58660571D02*
X82438095Y-58584380D01*
X82438095Y-58584380D02*
X82514285Y-58508190D01*
X82514285Y-58508190D02*
X82628571Y-58470095D01*
X82628571Y-58470095D02*
X82704762Y-58470095D01*
X82704762Y-58470095D02*
X82819047Y-58508190D01*
X82819047Y-58508190D02*
X82857143Y-58546285D01*
X83123809Y-58470095D02*
X83619047Y-58470095D01*
X83619047Y-58470095D02*
X83352381Y-58774857D01*
X83352381Y-58774857D02*
X83466666Y-58774857D01*
X83466666Y-58774857D02*
X83542857Y-58812952D01*
X83542857Y-58812952D02*
X83580952Y-58851047D01*
X83580952Y-58851047D02*
X83619047Y-58927238D01*
X83619047Y-58927238D02*
X83619047Y-59117714D01*
X83619047Y-59117714D02*
X83580952Y-59193904D01*
X83580952Y-59193904D02*
X83542857Y-59232000D01*
X83542857Y-59232000D02*
X83466666Y-59270095D01*
X83466666Y-59270095D02*
X83238095Y-59270095D01*
X83238095Y-59270095D02*
X83161904Y-59232000D01*
X83161904Y-59232000D02*
X83123809Y-59193904D01*
X84571429Y-59270095D02*
X84571429Y-58470095D01*
X85104762Y-58470095D02*
X85257143Y-58470095D01*
X85257143Y-58470095D02*
X85333333Y-58508190D01*
X85333333Y-58508190D02*
X85409524Y-58584380D01*
X85409524Y-58584380D02*
X85447619Y-58736761D01*
X85447619Y-58736761D02*
X85447619Y-59003428D01*
X85447619Y-59003428D02*
X85409524Y-59155809D01*
X85409524Y-59155809D02*
X85333333Y-59232000D01*
X85333333Y-59232000D02*
X85257143Y-59270095D01*
X85257143Y-59270095D02*
X85104762Y-59270095D01*
X85104762Y-59270095D02*
X85028571Y-59232000D01*
X85028571Y-59232000D02*
X84952381Y-59155809D01*
X84952381Y-59155809D02*
X84914285Y-59003428D01*
X84914285Y-59003428D02*
X84914285Y-58736761D01*
X84914285Y-58736761D02*
X84952381Y-58584380D01*
X84952381Y-58584380D02*
X85028571Y-58508190D01*
X85028571Y-58508190D02*
X85104762Y-58470095D01*
X85790476Y-58965333D02*
X86400000Y-58965333D01*
X86247619Y-59117714D02*
X86400000Y-58965333D01*
X86400000Y-58965333D02*
X86247619Y-58812952D01*
D11*
X99867619Y-51152095D02*
X99600952Y-50771142D01*
X99410476Y-51152095D02*
X99410476Y-50352095D01*
X99410476Y-50352095D02*
X99715238Y-50352095D01*
X99715238Y-50352095D02*
X99791428Y-50390190D01*
X99791428Y-50390190D02*
X99829523Y-50428285D01*
X99829523Y-50428285D02*
X99867619Y-50504476D01*
X99867619Y-50504476D02*
X99867619Y-50618761D01*
X99867619Y-50618761D02*
X99829523Y-50694952D01*
X99829523Y-50694952D02*
X99791428Y-50733047D01*
X99791428Y-50733047D02*
X99715238Y-50771142D01*
X99715238Y-50771142D02*
X99410476Y-50771142D01*
X100096190Y-50352095D02*
X100553333Y-50352095D01*
X100324761Y-51152095D02*
X100324761Y-50352095D01*
X100781904Y-51114000D02*
X100896190Y-51152095D01*
X100896190Y-51152095D02*
X101086666Y-51152095D01*
X101086666Y-51152095D02*
X101162857Y-51114000D01*
X101162857Y-51114000D02*
X101200952Y-51075904D01*
X101200952Y-51075904D02*
X101239047Y-50999714D01*
X101239047Y-50999714D02*
X101239047Y-50923523D01*
X101239047Y-50923523D02*
X101200952Y-50847333D01*
X101200952Y-50847333D02*
X101162857Y-50809238D01*
X101162857Y-50809238D02*
X101086666Y-50771142D01*
X101086666Y-50771142D02*
X100934285Y-50733047D01*
X100934285Y-50733047D02*
X100858095Y-50694952D01*
X100858095Y-50694952D02*
X100820000Y-50656857D01*
X100820000Y-50656857D02*
X100781904Y-50580666D01*
X100781904Y-50580666D02*
X100781904Y-50504476D01*
X100781904Y-50504476D02*
X100820000Y-50428285D01*
X100820000Y-50428285D02*
X100858095Y-50390190D01*
X100858095Y-50390190D02*
X100934285Y-50352095D01*
X100934285Y-50352095D02*
X101124762Y-50352095D01*
X101124762Y-50352095D02*
X101239047Y-50390190D01*
X105429523Y-31072095D02*
X104972380Y-31072095D01*
X105200952Y-31072095D02*
X105200952Y-30272095D01*
X105200952Y-30272095D02*
X105124761Y-30386380D01*
X105124761Y-30386380D02*
X105048571Y-30462571D01*
X105048571Y-30462571D02*
X104972380Y-30500666D01*
X107821428Y-49822095D02*
X107364285Y-49822095D01*
X107592857Y-49822095D02*
X107592857Y-49022095D01*
X107592857Y-49022095D02*
X107516666Y-49136380D01*
X107516666Y-49136380D02*
X107440476Y-49212571D01*
X107440476Y-49212571D02*
X107364285Y-49250666D01*
D12*
X72630476Y-33340095D02*
X73087619Y-33340095D01*
X72859047Y-34140095D02*
X72859047Y-33340095D01*
X73278095Y-33340095D02*
X73811429Y-34140095D01*
X73811429Y-33340095D02*
X73278095Y-34140095D01*
X77350095Y-32327142D02*
X76969142Y-32593809D01*
X77350095Y-32784285D02*
X76550095Y-32784285D01*
X76550095Y-32784285D02*
X76550095Y-32479523D01*
X76550095Y-32479523D02*
X76588190Y-32403333D01*
X76588190Y-32403333D02*
X76626285Y-32365238D01*
X76626285Y-32365238D02*
X76702476Y-32327142D01*
X76702476Y-32327142D02*
X76816761Y-32327142D01*
X76816761Y-32327142D02*
X76892952Y-32365238D01*
X76892952Y-32365238D02*
X76931047Y-32403333D01*
X76931047Y-32403333D02*
X76969142Y-32479523D01*
X76969142Y-32479523D02*
X76969142Y-32784285D01*
X76550095Y-32098571D02*
X76550095Y-31641428D01*
X77350095Y-31870000D02*
X76550095Y-31870000D01*
X77273904Y-30917618D02*
X77312000Y-30955714D01*
X77312000Y-30955714D02*
X77350095Y-31069999D01*
X77350095Y-31069999D02*
X77350095Y-31146190D01*
X77350095Y-31146190D02*
X77312000Y-31260476D01*
X77312000Y-31260476D02*
X77235809Y-31336666D01*
X77235809Y-31336666D02*
X77159619Y-31374761D01*
X77159619Y-31374761D02*
X77007238Y-31412857D01*
X77007238Y-31412857D02*
X76892952Y-31412857D01*
X76892952Y-31412857D02*
X76740571Y-31374761D01*
X76740571Y-31374761D02*
X76664380Y-31336666D01*
X76664380Y-31336666D02*
X76588190Y-31260476D01*
X76588190Y-31260476D02*
X76550095Y-31146190D01*
X76550095Y-31146190D02*
X76550095Y-31069999D01*
X76550095Y-31069999D02*
X76588190Y-30955714D01*
X76588190Y-30955714D02*
X76626285Y-30917618D01*
D10*
X88366667Y-58312619D02*
X88985714Y-58312619D01*
X88985714Y-58312619D02*
X88652381Y-58693571D01*
X88652381Y-58693571D02*
X88795238Y-58693571D01*
X88795238Y-58693571D02*
X88890476Y-58741190D01*
X88890476Y-58741190D02*
X88938095Y-58788809D01*
X88938095Y-58788809D02*
X88985714Y-58884047D01*
X88985714Y-58884047D02*
X88985714Y-59122142D01*
X88985714Y-59122142D02*
X88938095Y-59217380D01*
X88938095Y-59217380D02*
X88890476Y-59265000D01*
X88890476Y-59265000D02*
X88795238Y-59312619D01*
X88795238Y-59312619D02*
X88509524Y-59312619D01*
X88509524Y-59312619D02*
X88414286Y-59265000D01*
X88414286Y-59265000D02*
X88366667Y-59217380D01*
D15*
X86597618Y-37352619D02*
X86264285Y-36876428D01*
X86026190Y-37352619D02*
X86026190Y-36352619D01*
X86026190Y-36352619D02*
X86407142Y-36352619D01*
X86407142Y-36352619D02*
X86502380Y-36400238D01*
X86502380Y-36400238D02*
X86549999Y-36447857D01*
X86549999Y-36447857D02*
X86597618Y-36543095D01*
X86597618Y-36543095D02*
X86597618Y-36685952D01*
X86597618Y-36685952D02*
X86549999Y-36781190D01*
X86549999Y-36781190D02*
X86502380Y-36828809D01*
X86502380Y-36828809D02*
X86407142Y-36876428D01*
X86407142Y-36876428D02*
X86026190Y-36876428D01*
X87407142Y-37305000D02*
X87311904Y-37352619D01*
X87311904Y-37352619D02*
X87121428Y-37352619D01*
X87121428Y-37352619D02*
X87026190Y-37305000D01*
X87026190Y-37305000D02*
X86978571Y-37209761D01*
X86978571Y-37209761D02*
X86978571Y-36828809D01*
X86978571Y-36828809D02*
X87026190Y-36733571D01*
X87026190Y-36733571D02*
X87121428Y-36685952D01*
X87121428Y-36685952D02*
X87311904Y-36685952D01*
X87311904Y-36685952D02*
X87407142Y-36733571D01*
X87407142Y-36733571D02*
X87454761Y-36828809D01*
X87454761Y-36828809D02*
X87454761Y-36924047D01*
X87454761Y-36924047D02*
X86978571Y-37019285D01*
X88026190Y-37352619D02*
X87930952Y-37305000D01*
X87930952Y-37305000D02*
X87883333Y-37209761D01*
X87883333Y-37209761D02*
X87883333Y-36352619D01*
X89692857Y-37352619D02*
X89121429Y-37352619D01*
X89407143Y-37352619D02*
X89407143Y-36352619D01*
X89407143Y-36352619D02*
X89311905Y-36495476D01*
X89311905Y-36495476D02*
X89216667Y-36590714D01*
X89216667Y-36590714D02*
X89121429Y-36638333D01*
X90121429Y-37257380D02*
X90169048Y-37305000D01*
X90169048Y-37305000D02*
X90121429Y-37352619D01*
X90121429Y-37352619D02*
X90073810Y-37305000D01*
X90073810Y-37305000D02*
X90121429Y-37257380D01*
X90121429Y-37257380D02*
X90121429Y-37352619D01*
X90788095Y-36352619D02*
X90883333Y-36352619D01*
X90883333Y-36352619D02*
X90978571Y-36400238D01*
X90978571Y-36400238D02*
X91026190Y-36447857D01*
X91026190Y-36447857D02*
X91073809Y-36543095D01*
X91073809Y-36543095D02*
X91121428Y-36733571D01*
X91121428Y-36733571D02*
X91121428Y-36971666D01*
X91121428Y-36971666D02*
X91073809Y-37162142D01*
X91073809Y-37162142D02*
X91026190Y-37257380D01*
X91026190Y-37257380D02*
X90978571Y-37305000D01*
X90978571Y-37305000D02*
X90883333Y-37352619D01*
X90883333Y-37352619D02*
X90788095Y-37352619D01*
X90788095Y-37352619D02*
X90692857Y-37305000D01*
X90692857Y-37305000D02*
X90645238Y-37257380D01*
X90645238Y-37257380D02*
X90597619Y-37162142D01*
X90597619Y-37162142D02*
X90550000Y-36971666D01*
X90550000Y-36971666D02*
X90550000Y-36733571D01*
X90550000Y-36733571D02*
X90597619Y-36543095D01*
X90597619Y-36543095D02*
X90645238Y-36447857D01*
X90645238Y-36447857D02*
X90692857Y-36400238D01*
X90692857Y-36400238D02*
X90788095Y-36352619D01*
D12*
X75336667Y-34140095D02*
X75070000Y-33759142D01*
X74879524Y-34140095D02*
X74879524Y-33340095D01*
X74879524Y-33340095D02*
X75184286Y-33340095D01*
X75184286Y-33340095D02*
X75260476Y-33378190D01*
X75260476Y-33378190D02*
X75298571Y-33416285D01*
X75298571Y-33416285D02*
X75336667Y-33492476D01*
X75336667Y-33492476D02*
X75336667Y-33606761D01*
X75336667Y-33606761D02*
X75298571Y-33682952D01*
X75298571Y-33682952D02*
X75260476Y-33721047D01*
X75260476Y-33721047D02*
X75184286Y-33759142D01*
X75184286Y-33759142D02*
X74879524Y-33759142D01*
X75603333Y-33340095D02*
X76136667Y-34140095D01*
X76136667Y-33340095D02*
X75603333Y-34140095D01*
X105778333Y-52342166D02*
X105745000Y-52375500D01*
X105745000Y-52375500D02*
X105645000Y-52408833D01*
X105645000Y-52408833D02*
X105578333Y-52408833D01*
X105578333Y-52408833D02*
X105478333Y-52375500D01*
X105478333Y-52375500D02*
X105411667Y-52308833D01*
X105411667Y-52308833D02*
X105378333Y-52242166D01*
X105378333Y-52242166D02*
X105345000Y-52108833D01*
X105345000Y-52108833D02*
X105345000Y-52008833D01*
X105345000Y-52008833D02*
X105378333Y-51875500D01*
X105378333Y-51875500D02*
X105411667Y-51808833D01*
X105411667Y-51808833D02*
X105478333Y-51742166D01*
X105478333Y-51742166D02*
X105578333Y-51708833D01*
X105578333Y-51708833D02*
X105645000Y-51708833D01*
X105645000Y-51708833D02*
X105745000Y-51742166D01*
X105745000Y-51742166D02*
X105778333Y-51775500D01*
X106378333Y-51942166D02*
X106378333Y-52408833D01*
X106211667Y-51675500D02*
X106045000Y-52175500D01*
X106045000Y-52175500D02*
X106478333Y-52175500D01*
X111383809Y-60786285D02*
X111307619Y-60748190D01*
X111307619Y-60748190D02*
X111231428Y-60672000D01*
X111231428Y-60672000D02*
X111117142Y-60557714D01*
X111117142Y-60557714D02*
X111040952Y-60519619D01*
X111040952Y-60519619D02*
X110964761Y-60519619D01*
X111002857Y-60710095D02*
X110926666Y-60672000D01*
X110926666Y-60672000D02*
X110850476Y-60595809D01*
X110850476Y-60595809D02*
X110812380Y-60443428D01*
X110812380Y-60443428D02*
X110812380Y-60176761D01*
X110812380Y-60176761D02*
X110850476Y-60024380D01*
X110850476Y-60024380D02*
X110926666Y-59948190D01*
X110926666Y-59948190D02*
X111002857Y-59910095D01*
X111002857Y-59910095D02*
X111155238Y-59910095D01*
X111155238Y-59910095D02*
X111231428Y-59948190D01*
X111231428Y-59948190D02*
X111307619Y-60024380D01*
X111307619Y-60024380D02*
X111345714Y-60176761D01*
X111345714Y-60176761D02*
X111345714Y-60443428D01*
X111345714Y-60443428D02*
X111307619Y-60595809D01*
X111307619Y-60595809D02*
X111231428Y-60672000D01*
X111231428Y-60672000D02*
X111155238Y-60710095D01*
X111155238Y-60710095D02*
X111002857Y-60710095D01*
X112031428Y-60176761D02*
X112031428Y-60710095D01*
X111840952Y-59872000D02*
X111650475Y-60443428D01*
X111650475Y-60443428D02*
X112145714Y-60443428D01*
X115053333Y-49393833D02*
X114820000Y-49060500D01*
X114653333Y-49393833D02*
X114653333Y-48693833D01*
X114653333Y-48693833D02*
X114920000Y-48693833D01*
X114920000Y-48693833D02*
X114986667Y-48727166D01*
X114986667Y-48727166D02*
X115020000Y-48760500D01*
X115020000Y-48760500D02*
X115053333Y-48827166D01*
X115053333Y-48827166D02*
X115053333Y-48927166D01*
X115053333Y-48927166D02*
X115020000Y-48993833D01*
X115020000Y-48993833D02*
X114986667Y-49027166D01*
X114986667Y-49027166D02*
X114920000Y-49060500D01*
X114920000Y-49060500D02*
X114653333Y-49060500D01*
X115320000Y-48760500D02*
X115353333Y-48727166D01*
X115353333Y-48727166D02*
X115420000Y-48693833D01*
X115420000Y-48693833D02*
X115586667Y-48693833D01*
X115586667Y-48693833D02*
X115653333Y-48727166D01*
X115653333Y-48727166D02*
X115686667Y-48760500D01*
X115686667Y-48760500D02*
X115720000Y-48827166D01*
X115720000Y-48827166D02*
X115720000Y-48893833D01*
X115720000Y-48893833D02*
X115686667Y-48993833D01*
X115686667Y-48993833D02*
X115286667Y-49393833D01*
X115286667Y-49393833D02*
X115720000Y-49393833D01*
X99137166Y-56690000D02*
X99170500Y-56723333D01*
X99170500Y-56723333D02*
X99203833Y-56823333D01*
X99203833Y-56823333D02*
X99203833Y-56890000D01*
X99203833Y-56890000D02*
X99170500Y-56990000D01*
X99170500Y-56990000D02*
X99103833Y-57056667D01*
X99103833Y-57056667D02*
X99037166Y-57090000D01*
X99037166Y-57090000D02*
X98903833Y-57123333D01*
X98903833Y-57123333D02*
X98803833Y-57123333D01*
X98803833Y-57123333D02*
X98670500Y-57090000D01*
X98670500Y-57090000D02*
X98603833Y-57056667D01*
X98603833Y-57056667D02*
X98537166Y-56990000D01*
X98537166Y-56990000D02*
X98503833Y-56890000D01*
X98503833Y-56890000D02*
X98503833Y-56823333D01*
X98503833Y-56823333D02*
X98537166Y-56723333D01*
X98537166Y-56723333D02*
X98570500Y-56690000D01*
X99203833Y-56023333D02*
X99203833Y-56423333D01*
X99203833Y-56223333D02*
X98503833Y-56223333D01*
X98503833Y-56223333D02*
X98603833Y-56290000D01*
X98603833Y-56290000D02*
X98670500Y-56356667D01*
X98670500Y-56356667D02*
X98703833Y-56423333D01*
X98803833Y-55623333D02*
X98770500Y-55690000D01*
X98770500Y-55690000D02*
X98737166Y-55723333D01*
X98737166Y-55723333D02*
X98670500Y-55756666D01*
X98670500Y-55756666D02*
X98637166Y-55756666D01*
X98637166Y-55756666D02*
X98570500Y-55723333D01*
X98570500Y-55723333D02*
X98537166Y-55690000D01*
X98537166Y-55690000D02*
X98503833Y-55623333D01*
X98503833Y-55623333D02*
X98503833Y-55490000D01*
X98503833Y-55490000D02*
X98537166Y-55423333D01*
X98537166Y-55423333D02*
X98570500Y-55390000D01*
X98570500Y-55390000D02*
X98637166Y-55356666D01*
X98637166Y-55356666D02*
X98670500Y-55356666D01*
X98670500Y-55356666D02*
X98737166Y-55390000D01*
X98737166Y-55390000D02*
X98770500Y-55423333D01*
X98770500Y-55423333D02*
X98803833Y-55490000D01*
X98803833Y-55490000D02*
X98803833Y-55623333D01*
X98803833Y-55623333D02*
X98837166Y-55690000D01*
X98837166Y-55690000D02*
X98870500Y-55723333D01*
X98870500Y-55723333D02*
X98937166Y-55756666D01*
X98937166Y-55756666D02*
X99070500Y-55756666D01*
X99070500Y-55756666D02*
X99137166Y-55723333D01*
X99137166Y-55723333D02*
X99170500Y-55690000D01*
X99170500Y-55690000D02*
X99203833Y-55623333D01*
X99203833Y-55623333D02*
X99203833Y-55490000D01*
X99203833Y-55490000D02*
X99170500Y-55423333D01*
X99170500Y-55423333D02*
X99137166Y-55390000D01*
X99137166Y-55390000D02*
X99070500Y-55356666D01*
X99070500Y-55356666D02*
X98937166Y-55356666D01*
X98937166Y-55356666D02*
X98870500Y-55390000D01*
X98870500Y-55390000D02*
X98837166Y-55423333D01*
X98837166Y-55423333D02*
X98803833Y-55490000D01*
X91843333Y-48833833D02*
X91610000Y-48500500D01*
X91443333Y-48833833D02*
X91443333Y-48133833D01*
X91443333Y-48133833D02*
X91710000Y-48133833D01*
X91710000Y-48133833D02*
X91776667Y-48167166D01*
X91776667Y-48167166D02*
X91810000Y-48200500D01*
X91810000Y-48200500D02*
X91843333Y-48267166D01*
X91843333Y-48267166D02*
X91843333Y-48367166D01*
X91843333Y-48367166D02*
X91810000Y-48433833D01*
X91810000Y-48433833D02*
X91776667Y-48467166D01*
X91776667Y-48467166D02*
X91710000Y-48500500D01*
X91710000Y-48500500D02*
X91443333Y-48500500D01*
X92176667Y-48833833D02*
X92310000Y-48833833D01*
X92310000Y-48833833D02*
X92376667Y-48800500D01*
X92376667Y-48800500D02*
X92410000Y-48767166D01*
X92410000Y-48767166D02*
X92476667Y-48667166D01*
X92476667Y-48667166D02*
X92510000Y-48533833D01*
X92510000Y-48533833D02*
X92510000Y-48267166D01*
X92510000Y-48267166D02*
X92476667Y-48200500D01*
X92476667Y-48200500D02*
X92443333Y-48167166D01*
X92443333Y-48167166D02*
X92376667Y-48133833D01*
X92376667Y-48133833D02*
X92243333Y-48133833D01*
X92243333Y-48133833D02*
X92176667Y-48167166D01*
X92176667Y-48167166D02*
X92143333Y-48200500D01*
X92143333Y-48200500D02*
X92110000Y-48267166D01*
X92110000Y-48267166D02*
X92110000Y-48433833D01*
X92110000Y-48433833D02*
X92143333Y-48500500D01*
X92143333Y-48500500D02*
X92176667Y-48533833D01*
X92176667Y-48533833D02*
X92243333Y-48567166D01*
X92243333Y-48567166D02*
X92376667Y-48567166D01*
X92376667Y-48567166D02*
X92443333Y-48533833D01*
X92443333Y-48533833D02*
X92476667Y-48500500D01*
X92476667Y-48500500D02*
X92510000Y-48433833D01*
X90367166Y-35800000D02*
X90400500Y-35833333D01*
X90400500Y-35833333D02*
X90433833Y-35933333D01*
X90433833Y-35933333D02*
X90433833Y-36000000D01*
X90433833Y-36000000D02*
X90400500Y-36100000D01*
X90400500Y-36100000D02*
X90333833Y-36166667D01*
X90333833Y-36166667D02*
X90267166Y-36200000D01*
X90267166Y-36200000D02*
X90133833Y-36233333D01*
X90133833Y-36233333D02*
X90033833Y-36233333D01*
X90033833Y-36233333D02*
X89900500Y-36200000D01*
X89900500Y-36200000D02*
X89833833Y-36166667D01*
X89833833Y-36166667D02*
X89767166Y-36100000D01*
X89767166Y-36100000D02*
X89733833Y-36000000D01*
X89733833Y-36000000D02*
X89733833Y-35933333D01*
X89733833Y-35933333D02*
X89767166Y-35833333D01*
X89767166Y-35833333D02*
X89800500Y-35800000D01*
X90433833Y-35133333D02*
X90433833Y-35533333D01*
X90433833Y-35333333D02*
X89733833Y-35333333D01*
X89733833Y-35333333D02*
X89833833Y-35400000D01*
X89833833Y-35400000D02*
X89900500Y-35466667D01*
X89900500Y-35466667D02*
X89933833Y-35533333D01*
X89733833Y-34900000D02*
X89733833Y-34466666D01*
X89733833Y-34466666D02*
X90000500Y-34700000D01*
X90000500Y-34700000D02*
X90000500Y-34600000D01*
X90000500Y-34600000D02*
X90033833Y-34533333D01*
X90033833Y-34533333D02*
X90067166Y-34500000D01*
X90067166Y-34500000D02*
X90133833Y-34466666D01*
X90133833Y-34466666D02*
X90300500Y-34466666D01*
X90300500Y-34466666D02*
X90367166Y-34500000D01*
X90367166Y-34500000D02*
X90400500Y-34533333D01*
X90400500Y-34533333D02*
X90433833Y-34600000D01*
X90433833Y-34600000D02*
X90433833Y-34800000D01*
X90433833Y-34800000D02*
X90400500Y-34866666D01*
X90400500Y-34866666D02*
X90367166Y-34900000D01*
D10*
X114772619Y-39031333D02*
X115486904Y-39031333D01*
X115486904Y-39031333D02*
X115629761Y-39078952D01*
X115629761Y-39078952D02*
X115725000Y-39174190D01*
X115725000Y-39174190D02*
X115772619Y-39317047D01*
X115772619Y-39317047D02*
X115772619Y-39412285D01*
X115772619Y-38031333D02*
X115772619Y-38602761D01*
X115772619Y-38317047D02*
X114772619Y-38317047D01*
X114772619Y-38317047D02*
X114915476Y-38412285D01*
X114915476Y-38412285D02*
X115010714Y-38507523D01*
X115010714Y-38507523D02*
X115058333Y-38602761D01*
D12*
X90696666Y-38920095D02*
X90315714Y-38920095D01*
X90315714Y-38920095D02*
X90315714Y-38120095D01*
X91382380Y-38920095D02*
X90925237Y-38920095D01*
X91153809Y-38920095D02*
X91153809Y-38120095D01*
X91153809Y-38120095D02*
X91077618Y-38234380D01*
X91077618Y-38234380D02*
X91001428Y-38310571D01*
X91001428Y-38310571D02*
X90925237Y-38348666D01*
D10*
X94376400Y-37412619D02*
X94376400Y-37650714D01*
X94138305Y-37555476D02*
X94376400Y-37650714D01*
X94376400Y-37650714D02*
X94614495Y-37555476D01*
X94233543Y-37841190D02*
X94376400Y-37650714D01*
X94376400Y-37650714D02*
X94519257Y-37841190D01*
X96987900Y-37712619D02*
X96987900Y-37950714D01*
X96749805Y-37855476D02*
X96987900Y-37950714D01*
X96987900Y-37950714D02*
X97225995Y-37855476D01*
X96845043Y-38141190D02*
X96987900Y-37950714D01*
X96987900Y-37950714D02*
X97130757Y-38141190D01*
D12*
X105719999Y-53607166D02*
X105686666Y-53640500D01*
X105686666Y-53640500D02*
X105586666Y-53673833D01*
X105586666Y-53673833D02*
X105519999Y-53673833D01*
X105519999Y-53673833D02*
X105419999Y-53640500D01*
X105419999Y-53640500D02*
X105353333Y-53573833D01*
X105353333Y-53573833D02*
X105319999Y-53507166D01*
X105319999Y-53507166D02*
X105286666Y-53373833D01*
X105286666Y-53373833D02*
X105286666Y-53273833D01*
X105286666Y-53273833D02*
X105319999Y-53140500D01*
X105319999Y-53140500D02*
X105353333Y-53073833D01*
X105353333Y-53073833D02*
X105419999Y-53007166D01*
X105419999Y-53007166D02*
X105519999Y-52973833D01*
X105519999Y-52973833D02*
X105586666Y-52973833D01*
X105586666Y-52973833D02*
X105686666Y-53007166D01*
X105686666Y-53007166D02*
X105719999Y-53040500D01*
X106386666Y-53673833D02*
X105986666Y-53673833D01*
X106186666Y-53673833D02*
X106186666Y-52973833D01*
X106186666Y-52973833D02*
X106119999Y-53073833D01*
X106119999Y-53073833D02*
X106053333Y-53140500D01*
X106053333Y-53140500D02*
X105986666Y-53173833D01*
X106720000Y-53673833D02*
X106853333Y-53673833D01*
X106853333Y-53673833D02*
X106920000Y-53640500D01*
X106920000Y-53640500D02*
X106953333Y-53607166D01*
X106953333Y-53607166D02*
X107020000Y-53507166D01*
X107020000Y-53507166D02*
X107053333Y-53373833D01*
X107053333Y-53373833D02*
X107053333Y-53107166D01*
X107053333Y-53107166D02*
X107020000Y-53040500D01*
X107020000Y-53040500D02*
X106986666Y-53007166D01*
X106986666Y-53007166D02*
X106920000Y-52973833D01*
X106920000Y-52973833D02*
X106786666Y-52973833D01*
X106786666Y-52973833D02*
X106720000Y-53007166D01*
X106720000Y-53007166D02*
X106686666Y-53040500D01*
X106686666Y-53040500D02*
X106653333Y-53107166D01*
X106653333Y-53107166D02*
X106653333Y-53273833D01*
X106653333Y-53273833D02*
X106686666Y-53340500D01*
X106686666Y-53340500D02*
X106720000Y-53373833D01*
X106720000Y-53373833D02*
X106786666Y-53407166D01*
X106786666Y-53407166D02*
X106920000Y-53407166D01*
X106920000Y-53407166D02*
X106986666Y-53373833D01*
X106986666Y-53373833D02*
X107020000Y-53340500D01*
X107020000Y-53340500D02*
X107053333Y-53273833D01*
X94208333Y-43923833D02*
X93975000Y-43590500D01*
X93808333Y-43923833D02*
X93808333Y-43223833D01*
X93808333Y-43223833D02*
X94075000Y-43223833D01*
X94075000Y-43223833D02*
X94141667Y-43257166D01*
X94141667Y-43257166D02*
X94175000Y-43290500D01*
X94175000Y-43290500D02*
X94208333Y-43357166D01*
X94208333Y-43357166D02*
X94208333Y-43457166D01*
X94208333Y-43457166D02*
X94175000Y-43523833D01*
X94175000Y-43523833D02*
X94141667Y-43557166D01*
X94141667Y-43557166D02*
X94075000Y-43590500D01*
X94075000Y-43590500D02*
X93808333Y-43590500D01*
X94808333Y-43223833D02*
X94675000Y-43223833D01*
X94675000Y-43223833D02*
X94608333Y-43257166D01*
X94608333Y-43257166D02*
X94575000Y-43290500D01*
X94575000Y-43290500D02*
X94508333Y-43390500D01*
X94508333Y-43390500D02*
X94475000Y-43523833D01*
X94475000Y-43523833D02*
X94475000Y-43790500D01*
X94475000Y-43790500D02*
X94508333Y-43857166D01*
X94508333Y-43857166D02*
X94541667Y-43890500D01*
X94541667Y-43890500D02*
X94608333Y-43923833D01*
X94608333Y-43923833D02*
X94741667Y-43923833D01*
X94741667Y-43923833D02*
X94808333Y-43890500D01*
X94808333Y-43890500D02*
X94841667Y-43857166D01*
X94841667Y-43857166D02*
X94875000Y-43790500D01*
X94875000Y-43790500D02*
X94875000Y-43623833D01*
X94875000Y-43623833D02*
X94841667Y-43557166D01*
X94841667Y-43557166D02*
X94808333Y-43523833D01*
X94808333Y-43523833D02*
X94741667Y-43490500D01*
X94741667Y-43490500D02*
X94608333Y-43490500D01*
X94608333Y-43490500D02*
X94541667Y-43523833D01*
X94541667Y-43523833D02*
X94508333Y-43557166D01*
X94508333Y-43557166D02*
X94475000Y-43623833D01*
D11*
X86164285Y-51566357D02*
X86164285Y-52294928D01*
X86164285Y-52294928D02*
X86207142Y-52380642D01*
X86207142Y-52380642D02*
X86250000Y-52423500D01*
X86250000Y-52423500D02*
X86335714Y-52466357D01*
X86335714Y-52466357D02*
X86507142Y-52466357D01*
X86507142Y-52466357D02*
X86592857Y-52423500D01*
X86592857Y-52423500D02*
X86635714Y-52380642D01*
X86635714Y-52380642D02*
X86678571Y-52294928D01*
X86678571Y-52294928D02*
X86678571Y-51566357D01*
X87578571Y-52466357D02*
X87064285Y-52466357D01*
X87321428Y-52466357D02*
X87321428Y-51566357D01*
X87321428Y-51566357D02*
X87235714Y-51694928D01*
X87235714Y-51694928D02*
X87149999Y-51780642D01*
X87149999Y-51780642D02*
X87064285Y-51823500D01*
D12*
X96733333Y-43207166D02*
X96700000Y-43240500D01*
X96700000Y-43240500D02*
X96600000Y-43273833D01*
X96600000Y-43273833D02*
X96533333Y-43273833D01*
X96533333Y-43273833D02*
X96433333Y-43240500D01*
X96433333Y-43240500D02*
X96366667Y-43173833D01*
X96366667Y-43173833D02*
X96333333Y-43107166D01*
X96333333Y-43107166D02*
X96300000Y-42973833D01*
X96300000Y-42973833D02*
X96300000Y-42873833D01*
X96300000Y-42873833D02*
X96333333Y-42740500D01*
X96333333Y-42740500D02*
X96366667Y-42673833D01*
X96366667Y-42673833D02*
X96433333Y-42607166D01*
X96433333Y-42607166D02*
X96533333Y-42573833D01*
X96533333Y-42573833D02*
X96600000Y-42573833D01*
X96600000Y-42573833D02*
X96700000Y-42607166D01*
X96700000Y-42607166D02*
X96733333Y-42640500D01*
X97333333Y-42573833D02*
X97200000Y-42573833D01*
X97200000Y-42573833D02*
X97133333Y-42607166D01*
X97133333Y-42607166D02*
X97100000Y-42640500D01*
X97100000Y-42640500D02*
X97033333Y-42740500D01*
X97033333Y-42740500D02*
X97000000Y-42873833D01*
X97000000Y-42873833D02*
X97000000Y-43140500D01*
X97000000Y-43140500D02*
X97033333Y-43207166D01*
X97033333Y-43207166D02*
X97066667Y-43240500D01*
X97066667Y-43240500D02*
X97133333Y-43273833D01*
X97133333Y-43273833D02*
X97266667Y-43273833D01*
X97266667Y-43273833D02*
X97333333Y-43240500D01*
X97333333Y-43240500D02*
X97366667Y-43207166D01*
X97366667Y-43207166D02*
X97400000Y-43140500D01*
X97400000Y-43140500D02*
X97400000Y-42973833D01*
X97400000Y-42973833D02*
X97366667Y-42907166D01*
X97366667Y-42907166D02*
X97333333Y-42873833D01*
X97333333Y-42873833D02*
X97266667Y-42840500D01*
X97266667Y-42840500D02*
X97133333Y-42840500D01*
X97133333Y-42840500D02*
X97066667Y-42873833D01*
X97066667Y-42873833D02*
X97033333Y-42907166D01*
X97033333Y-42907166D02*
X97000000Y-42973833D01*
D11*
X109949524Y-62250095D02*
X109949524Y-61450095D01*
X109949524Y-61450095D02*
X110140000Y-61450095D01*
X110140000Y-61450095D02*
X110254286Y-61488190D01*
X110254286Y-61488190D02*
X110330476Y-61564380D01*
X110330476Y-61564380D02*
X110368571Y-61640571D01*
X110368571Y-61640571D02*
X110406667Y-61792952D01*
X110406667Y-61792952D02*
X110406667Y-61907238D01*
X110406667Y-61907238D02*
X110368571Y-62059619D01*
X110368571Y-62059619D02*
X110330476Y-62135809D01*
X110330476Y-62135809D02*
X110254286Y-62212000D01*
X110254286Y-62212000D02*
X110140000Y-62250095D01*
X110140000Y-62250095D02*
X109949524Y-62250095D01*
X111130476Y-61450095D02*
X110749524Y-61450095D01*
X110749524Y-61450095D02*
X110711428Y-61831047D01*
X110711428Y-61831047D02*
X110749524Y-61792952D01*
X110749524Y-61792952D02*
X110825714Y-61754857D01*
X110825714Y-61754857D02*
X111016190Y-61754857D01*
X111016190Y-61754857D02*
X111092381Y-61792952D01*
X111092381Y-61792952D02*
X111130476Y-61831047D01*
X111130476Y-61831047D02*
X111168571Y-61907238D01*
X111168571Y-61907238D02*
X111168571Y-62097714D01*
X111168571Y-62097714D02*
X111130476Y-62173904D01*
X111130476Y-62173904D02*
X111092381Y-62212000D01*
X111092381Y-62212000D02*
X111016190Y-62250095D01*
X111016190Y-62250095D02*
X110825714Y-62250095D01*
X110825714Y-62250095D02*
X110749524Y-62212000D01*
X110749524Y-62212000D02*
X110711428Y-62173904D01*
D10*
X85117619Y-61283333D02*
X85831904Y-61283333D01*
X85831904Y-61283333D02*
X85974761Y-61330952D01*
X85974761Y-61330952D02*
X86070000Y-61426190D01*
X86070000Y-61426190D02*
X86117619Y-61569047D01*
X86117619Y-61569047D02*
X86117619Y-61664285D01*
X85117619Y-60330952D02*
X85117619Y-60807142D01*
X85117619Y-60807142D02*
X85593809Y-60854761D01*
X85593809Y-60854761D02*
X85546190Y-60807142D01*
X85546190Y-60807142D02*
X85498571Y-60711904D01*
X85498571Y-60711904D02*
X85498571Y-60473809D01*
X85498571Y-60473809D02*
X85546190Y-60378571D01*
X85546190Y-60378571D02*
X85593809Y-60330952D01*
X85593809Y-60330952D02*
X85689047Y-60283333D01*
X85689047Y-60283333D02*
X85927142Y-60283333D01*
X85927142Y-60283333D02*
X86022380Y-60330952D01*
X86022380Y-60330952D02*
X86070000Y-60378571D01*
X86070000Y-60378571D02*
X86117619Y-60473809D01*
X86117619Y-60473809D02*
X86117619Y-60711904D01*
X86117619Y-60711904D02*
X86070000Y-60807142D01*
X86070000Y-60807142D02*
X86022380Y-60854761D01*
D12*
X94183333Y-45523833D02*
X93950000Y-45190500D01*
X93783333Y-45523833D02*
X93783333Y-44823833D01*
X93783333Y-44823833D02*
X94050000Y-44823833D01*
X94050000Y-44823833D02*
X94116667Y-44857166D01*
X94116667Y-44857166D02*
X94150000Y-44890500D01*
X94150000Y-44890500D02*
X94183333Y-44957166D01*
X94183333Y-44957166D02*
X94183333Y-45057166D01*
X94183333Y-45057166D02*
X94150000Y-45123833D01*
X94150000Y-45123833D02*
X94116667Y-45157166D01*
X94116667Y-45157166D02*
X94050000Y-45190500D01*
X94050000Y-45190500D02*
X93783333Y-45190500D01*
X94583333Y-45123833D02*
X94516667Y-45090500D01*
X94516667Y-45090500D02*
X94483333Y-45057166D01*
X94483333Y-45057166D02*
X94450000Y-44990500D01*
X94450000Y-44990500D02*
X94450000Y-44957166D01*
X94450000Y-44957166D02*
X94483333Y-44890500D01*
X94483333Y-44890500D02*
X94516667Y-44857166D01*
X94516667Y-44857166D02*
X94583333Y-44823833D01*
X94583333Y-44823833D02*
X94716667Y-44823833D01*
X94716667Y-44823833D02*
X94783333Y-44857166D01*
X94783333Y-44857166D02*
X94816667Y-44890500D01*
X94816667Y-44890500D02*
X94850000Y-44957166D01*
X94850000Y-44957166D02*
X94850000Y-44990500D01*
X94850000Y-44990500D02*
X94816667Y-45057166D01*
X94816667Y-45057166D02*
X94783333Y-45090500D01*
X94783333Y-45090500D02*
X94716667Y-45123833D01*
X94716667Y-45123833D02*
X94583333Y-45123833D01*
X94583333Y-45123833D02*
X94516667Y-45157166D01*
X94516667Y-45157166D02*
X94483333Y-45190500D01*
X94483333Y-45190500D02*
X94450000Y-45257166D01*
X94450000Y-45257166D02*
X94450000Y-45390500D01*
X94450000Y-45390500D02*
X94483333Y-45457166D01*
X94483333Y-45457166D02*
X94516667Y-45490500D01*
X94516667Y-45490500D02*
X94583333Y-45523833D01*
X94583333Y-45523833D02*
X94716667Y-45523833D01*
X94716667Y-45523833D02*
X94783333Y-45490500D01*
X94783333Y-45490500D02*
X94816667Y-45457166D01*
X94816667Y-45457166D02*
X94850000Y-45390500D01*
X94850000Y-45390500D02*
X94850000Y-45257166D01*
X94850000Y-45257166D02*
X94816667Y-45190500D01*
X94816667Y-45190500D02*
X94783333Y-45157166D01*
X94783333Y-45157166D02*
X94716667Y-45123833D01*
X101758333Y-44057166D02*
X101725000Y-44090500D01*
X101725000Y-44090500D02*
X101625000Y-44123833D01*
X101625000Y-44123833D02*
X101558333Y-44123833D01*
X101558333Y-44123833D02*
X101458333Y-44090500D01*
X101458333Y-44090500D02*
X101391667Y-44023833D01*
X101391667Y-44023833D02*
X101358333Y-43957166D01*
X101358333Y-43957166D02*
X101325000Y-43823833D01*
X101325000Y-43823833D02*
X101325000Y-43723833D01*
X101325000Y-43723833D02*
X101358333Y-43590500D01*
X101358333Y-43590500D02*
X101391667Y-43523833D01*
X101391667Y-43523833D02*
X101458333Y-43457166D01*
X101458333Y-43457166D02*
X101558333Y-43423833D01*
X101558333Y-43423833D02*
X101625000Y-43423833D01*
X101625000Y-43423833D02*
X101725000Y-43457166D01*
X101725000Y-43457166D02*
X101758333Y-43490500D01*
X102391667Y-43423833D02*
X102058333Y-43423833D01*
X102058333Y-43423833D02*
X102025000Y-43757166D01*
X102025000Y-43757166D02*
X102058333Y-43723833D01*
X102058333Y-43723833D02*
X102125000Y-43690500D01*
X102125000Y-43690500D02*
X102291667Y-43690500D01*
X102291667Y-43690500D02*
X102358333Y-43723833D01*
X102358333Y-43723833D02*
X102391667Y-43757166D01*
X102391667Y-43757166D02*
X102425000Y-43823833D01*
X102425000Y-43823833D02*
X102425000Y-43990500D01*
X102425000Y-43990500D02*
X102391667Y-44057166D01*
X102391667Y-44057166D02*
X102358333Y-44090500D01*
X102358333Y-44090500D02*
X102291667Y-44123833D01*
X102291667Y-44123833D02*
X102125000Y-44123833D01*
X102125000Y-44123833D02*
X102058333Y-44090500D01*
X102058333Y-44090500D02*
X102025000Y-44057166D01*
X100458333Y-36998833D02*
X100225000Y-36665500D01*
X100058333Y-36998833D02*
X100058333Y-36298833D01*
X100058333Y-36298833D02*
X100325000Y-36298833D01*
X100325000Y-36298833D02*
X100391667Y-36332166D01*
X100391667Y-36332166D02*
X100425000Y-36365500D01*
X100425000Y-36365500D02*
X100458333Y-36432166D01*
X100458333Y-36432166D02*
X100458333Y-36532166D01*
X100458333Y-36532166D02*
X100425000Y-36598833D01*
X100425000Y-36598833D02*
X100391667Y-36632166D01*
X100391667Y-36632166D02*
X100325000Y-36665500D01*
X100325000Y-36665500D02*
X100058333Y-36665500D01*
X101125000Y-36998833D02*
X100725000Y-36998833D01*
X100925000Y-36998833D02*
X100925000Y-36298833D01*
X100925000Y-36298833D02*
X100858333Y-36398833D01*
X100858333Y-36398833D02*
X100791667Y-36465500D01*
X100791667Y-36465500D02*
X100725000Y-36498833D01*
X101233333Y-49232166D02*
X101200000Y-49265500D01*
X101200000Y-49265500D02*
X101100000Y-49298833D01*
X101100000Y-49298833D02*
X101033333Y-49298833D01*
X101033333Y-49298833D02*
X100933333Y-49265500D01*
X100933333Y-49265500D02*
X100866667Y-49198833D01*
X100866667Y-49198833D02*
X100833333Y-49132166D01*
X100833333Y-49132166D02*
X100800000Y-48998833D01*
X100800000Y-48998833D02*
X100800000Y-48898833D01*
X100800000Y-48898833D02*
X100833333Y-48765500D01*
X100833333Y-48765500D02*
X100866667Y-48698833D01*
X100866667Y-48698833D02*
X100933333Y-48632166D01*
X100933333Y-48632166D02*
X101033333Y-48598833D01*
X101033333Y-48598833D02*
X101100000Y-48598833D01*
X101100000Y-48598833D02*
X101200000Y-48632166D01*
X101200000Y-48632166D02*
X101233333Y-48665500D01*
X101466667Y-48598833D02*
X101933333Y-48598833D01*
X101933333Y-48598833D02*
X101633333Y-49298833D01*
D10*
X81358095Y-35932619D02*
X81358095Y-36742142D01*
X81358095Y-36742142D02*
X81405714Y-36837380D01*
X81405714Y-36837380D02*
X81453333Y-36885000D01*
X81453333Y-36885000D02*
X81548571Y-36932619D01*
X81548571Y-36932619D02*
X81739047Y-36932619D01*
X81739047Y-36932619D02*
X81834285Y-36885000D01*
X81834285Y-36885000D02*
X81881904Y-36837380D01*
X81881904Y-36837380D02*
X81929523Y-36742142D01*
X81929523Y-36742142D02*
X81929523Y-35932619D01*
X82358095Y-36027857D02*
X82405714Y-35980238D01*
X82405714Y-35980238D02*
X82500952Y-35932619D01*
X82500952Y-35932619D02*
X82739047Y-35932619D01*
X82739047Y-35932619D02*
X82834285Y-35980238D01*
X82834285Y-35980238D02*
X82881904Y-36027857D01*
X82881904Y-36027857D02*
X82929523Y-36123095D01*
X82929523Y-36123095D02*
X82929523Y-36218333D01*
X82929523Y-36218333D02*
X82881904Y-36361190D01*
X82881904Y-36361190D02*
X82310476Y-36932619D01*
X82310476Y-36932619D02*
X82929523Y-36932619D01*
D12*
X92283333Y-57240500D02*
X92216666Y-57207166D01*
X92216666Y-57207166D02*
X92150000Y-57140500D01*
X92150000Y-57140500D02*
X92050000Y-57040500D01*
X92050000Y-57040500D02*
X91983333Y-57007166D01*
X91983333Y-57007166D02*
X91916666Y-57007166D01*
X91950000Y-57173833D02*
X91883333Y-57140500D01*
X91883333Y-57140500D02*
X91816666Y-57073833D01*
X91816666Y-57073833D02*
X91783333Y-56940500D01*
X91783333Y-56940500D02*
X91783333Y-56707166D01*
X91783333Y-56707166D02*
X91816666Y-56573833D01*
X91816666Y-56573833D02*
X91883333Y-56507166D01*
X91883333Y-56507166D02*
X91950000Y-56473833D01*
X91950000Y-56473833D02*
X92083333Y-56473833D01*
X92083333Y-56473833D02*
X92150000Y-56507166D01*
X92150000Y-56507166D02*
X92216666Y-56573833D01*
X92216666Y-56573833D02*
X92250000Y-56707166D01*
X92250000Y-56707166D02*
X92250000Y-56940500D01*
X92250000Y-56940500D02*
X92216666Y-57073833D01*
X92216666Y-57073833D02*
X92150000Y-57140500D01*
X92150000Y-57140500D02*
X92083333Y-57173833D01*
X92083333Y-57173833D02*
X91950000Y-57173833D01*
X92483333Y-56473833D02*
X92916666Y-56473833D01*
X92916666Y-56473833D02*
X92683333Y-56740500D01*
X92683333Y-56740500D02*
X92783333Y-56740500D01*
X92783333Y-56740500D02*
X92849999Y-56773833D01*
X92849999Y-56773833D02*
X92883333Y-56807166D01*
X92883333Y-56807166D02*
X92916666Y-56873833D01*
X92916666Y-56873833D02*
X92916666Y-57040500D01*
X92916666Y-57040500D02*
X92883333Y-57107166D01*
X92883333Y-57107166D02*
X92849999Y-57140500D01*
X92849999Y-57140500D02*
X92783333Y-57173833D01*
X92783333Y-57173833D02*
X92583333Y-57173833D01*
X92583333Y-57173833D02*
X92516666Y-57140500D01*
X92516666Y-57140500D02*
X92483333Y-57107166D01*
X82295095Y-53091666D02*
X82866523Y-53091666D01*
X82866523Y-53091666D02*
X82980809Y-53129761D01*
X82980809Y-53129761D02*
X83057000Y-53205952D01*
X83057000Y-53205952D02*
X83095095Y-53320237D01*
X83095095Y-53320237D02*
X83095095Y-53396428D01*
X82295095Y-52786904D02*
X82295095Y-52291666D01*
X82295095Y-52291666D02*
X82599857Y-52558332D01*
X82599857Y-52558332D02*
X82599857Y-52444047D01*
X82599857Y-52444047D02*
X82637952Y-52367856D01*
X82637952Y-52367856D02*
X82676047Y-52329761D01*
X82676047Y-52329761D02*
X82752238Y-52291666D01*
X82752238Y-52291666D02*
X82942714Y-52291666D01*
X82942714Y-52291666D02*
X83018904Y-52329761D01*
X83018904Y-52329761D02*
X83057000Y-52367856D01*
X83057000Y-52367856D02*
X83095095Y-52444047D01*
X83095095Y-52444047D02*
X83095095Y-52672618D01*
X83095095Y-52672618D02*
X83057000Y-52748809D01*
X83057000Y-52748809D02*
X83018904Y-52786904D01*
D10*
X92618155Y-32900119D02*
X92618155Y-31900119D01*
X92618155Y-31900119D02*
X92856250Y-31900119D01*
X92856250Y-31900119D02*
X92999107Y-31947738D01*
X92999107Y-31947738D02*
X93094345Y-32042976D01*
X93094345Y-32042976D02*
X93141964Y-32138214D01*
X93141964Y-32138214D02*
X93189583Y-32328690D01*
X93189583Y-32328690D02*
X93189583Y-32471547D01*
X93189583Y-32471547D02*
X93141964Y-32662023D01*
X93141964Y-32662023D02*
X93094345Y-32757261D01*
X93094345Y-32757261D02*
X92999107Y-32852500D01*
X92999107Y-32852500D02*
X92856250Y-32900119D01*
X92856250Y-32900119D02*
X92618155Y-32900119D01*
X94046726Y-32233452D02*
X94046726Y-32900119D01*
X93808631Y-31852500D02*
X93570536Y-32566785D01*
X93570536Y-32566785D02*
X94189583Y-32566785D01*
D12*
X90616667Y-33750500D02*
X90616667Y-34083833D01*
X90383333Y-33383833D02*
X90616667Y-33750500D01*
X90616667Y-33750500D02*
X90850000Y-33383833D01*
X91450000Y-34083833D02*
X91050000Y-34083833D01*
X91250000Y-34083833D02*
X91250000Y-33383833D01*
X91250000Y-33383833D02*
X91183333Y-33483833D01*
X91183333Y-33483833D02*
X91116667Y-33550500D01*
X91116667Y-33550500D02*
X91050000Y-33583833D01*
D10*
X88120000Y-32877619D02*
X88120000Y-33115714D01*
X87881905Y-33020476D02*
X88120000Y-33115714D01*
X88120000Y-33115714D02*
X88358095Y-33020476D01*
X87977143Y-33306190D02*
X88120000Y-33115714D01*
X88120000Y-33115714D02*
X88262857Y-33306190D01*
D12*
X119743333Y-49393833D02*
X119510000Y-49060500D01*
X119343333Y-49393833D02*
X119343333Y-48693833D01*
X119343333Y-48693833D02*
X119610000Y-48693833D01*
X119610000Y-48693833D02*
X119676667Y-48727166D01*
X119676667Y-48727166D02*
X119710000Y-48760500D01*
X119710000Y-48760500D02*
X119743333Y-48827166D01*
X119743333Y-48827166D02*
X119743333Y-48927166D01*
X119743333Y-48927166D02*
X119710000Y-48993833D01*
X119710000Y-48993833D02*
X119676667Y-49027166D01*
X119676667Y-49027166D02*
X119610000Y-49060500D01*
X119610000Y-49060500D02*
X119343333Y-49060500D01*
X119976667Y-48693833D02*
X120410000Y-48693833D01*
X120410000Y-48693833D02*
X120176667Y-48960500D01*
X120176667Y-48960500D02*
X120276667Y-48960500D01*
X120276667Y-48960500D02*
X120343333Y-48993833D01*
X120343333Y-48993833D02*
X120376667Y-49027166D01*
X120376667Y-49027166D02*
X120410000Y-49093833D01*
X120410000Y-49093833D02*
X120410000Y-49260500D01*
X120410000Y-49260500D02*
X120376667Y-49327166D01*
X120376667Y-49327166D02*
X120343333Y-49360500D01*
X120343333Y-49360500D02*
X120276667Y-49393833D01*
X120276667Y-49393833D02*
X120076667Y-49393833D01*
X120076667Y-49393833D02*
X120010000Y-49360500D01*
X120010000Y-49360500D02*
X119976667Y-49327166D01*
X112337166Y-58490000D02*
X112370500Y-58523333D01*
X112370500Y-58523333D02*
X112403833Y-58623333D01*
X112403833Y-58623333D02*
X112403833Y-58690000D01*
X112403833Y-58690000D02*
X112370500Y-58790000D01*
X112370500Y-58790000D02*
X112303833Y-58856667D01*
X112303833Y-58856667D02*
X112237166Y-58890000D01*
X112237166Y-58890000D02*
X112103833Y-58923333D01*
X112103833Y-58923333D02*
X112003833Y-58923333D01*
X112003833Y-58923333D02*
X111870500Y-58890000D01*
X111870500Y-58890000D02*
X111803833Y-58856667D01*
X111803833Y-58856667D02*
X111737166Y-58790000D01*
X111737166Y-58790000D02*
X111703833Y-58690000D01*
X111703833Y-58690000D02*
X111703833Y-58623333D01*
X111703833Y-58623333D02*
X111737166Y-58523333D01*
X111737166Y-58523333D02*
X111770500Y-58490000D01*
X112403833Y-57823333D02*
X112403833Y-58223333D01*
X112403833Y-58023333D02*
X111703833Y-58023333D01*
X111703833Y-58023333D02*
X111803833Y-58090000D01*
X111803833Y-58090000D02*
X111870500Y-58156667D01*
X111870500Y-58156667D02*
X111903833Y-58223333D01*
X111703833Y-57390000D02*
X111703833Y-57323333D01*
X111703833Y-57323333D02*
X111737166Y-57256666D01*
X111737166Y-57256666D02*
X111770500Y-57223333D01*
X111770500Y-57223333D02*
X111837166Y-57190000D01*
X111837166Y-57190000D02*
X111970500Y-57156666D01*
X111970500Y-57156666D02*
X112137166Y-57156666D01*
X112137166Y-57156666D02*
X112270500Y-57190000D01*
X112270500Y-57190000D02*
X112337166Y-57223333D01*
X112337166Y-57223333D02*
X112370500Y-57256666D01*
X112370500Y-57256666D02*
X112403833Y-57323333D01*
X112403833Y-57323333D02*
X112403833Y-57390000D01*
X112403833Y-57390000D02*
X112370500Y-57456666D01*
X112370500Y-57456666D02*
X112337166Y-57490000D01*
X112337166Y-57490000D02*
X112270500Y-57523333D01*
X112270500Y-57523333D02*
X112137166Y-57556666D01*
X112137166Y-57556666D02*
X111970500Y-57556666D01*
X111970500Y-57556666D02*
X111837166Y-57523333D01*
X111837166Y-57523333D02*
X111770500Y-57490000D01*
X111770500Y-57490000D02*
X111737166Y-57456666D01*
X111737166Y-57456666D02*
X111703833Y-57390000D01*
X96883333Y-50032166D02*
X96850000Y-50065500D01*
X96850000Y-50065500D02*
X96750000Y-50098833D01*
X96750000Y-50098833D02*
X96683333Y-50098833D01*
X96683333Y-50098833D02*
X96583333Y-50065500D01*
X96583333Y-50065500D02*
X96516667Y-49998833D01*
X96516667Y-49998833D02*
X96483333Y-49932166D01*
X96483333Y-49932166D02*
X96450000Y-49798833D01*
X96450000Y-49798833D02*
X96450000Y-49698833D01*
X96450000Y-49698833D02*
X96483333Y-49565500D01*
X96483333Y-49565500D02*
X96516667Y-49498833D01*
X96516667Y-49498833D02*
X96583333Y-49432166D01*
X96583333Y-49432166D02*
X96683333Y-49398833D01*
X96683333Y-49398833D02*
X96750000Y-49398833D01*
X96750000Y-49398833D02*
X96850000Y-49432166D01*
X96850000Y-49432166D02*
X96883333Y-49465500D01*
X97283333Y-49698833D02*
X97216667Y-49665500D01*
X97216667Y-49665500D02*
X97183333Y-49632166D01*
X97183333Y-49632166D02*
X97150000Y-49565500D01*
X97150000Y-49565500D02*
X97150000Y-49532166D01*
X97150000Y-49532166D02*
X97183333Y-49465500D01*
X97183333Y-49465500D02*
X97216667Y-49432166D01*
X97216667Y-49432166D02*
X97283333Y-49398833D01*
X97283333Y-49398833D02*
X97416667Y-49398833D01*
X97416667Y-49398833D02*
X97483333Y-49432166D01*
X97483333Y-49432166D02*
X97516667Y-49465500D01*
X97516667Y-49465500D02*
X97550000Y-49532166D01*
X97550000Y-49532166D02*
X97550000Y-49565500D01*
X97550000Y-49565500D02*
X97516667Y-49632166D01*
X97516667Y-49632166D02*
X97483333Y-49665500D01*
X97483333Y-49665500D02*
X97416667Y-49698833D01*
X97416667Y-49698833D02*
X97283333Y-49698833D01*
X97283333Y-49698833D02*
X97216667Y-49732166D01*
X97216667Y-49732166D02*
X97183333Y-49765500D01*
X97183333Y-49765500D02*
X97150000Y-49832166D01*
X97150000Y-49832166D02*
X97150000Y-49965500D01*
X97150000Y-49965500D02*
X97183333Y-50032166D01*
X97183333Y-50032166D02*
X97216667Y-50065500D01*
X97216667Y-50065500D02*
X97283333Y-50098833D01*
X97283333Y-50098833D02*
X97416667Y-50098833D01*
X97416667Y-50098833D02*
X97483333Y-50065500D01*
X97483333Y-50065500D02*
X97516667Y-50032166D01*
X97516667Y-50032166D02*
X97550000Y-49965500D01*
X97550000Y-49965500D02*
X97550000Y-49832166D01*
X97550000Y-49832166D02*
X97516667Y-49765500D01*
X97516667Y-49765500D02*
X97483333Y-49732166D01*
X97483333Y-49732166D02*
X97416667Y-49698833D01*
D11*
X107580095Y-56370475D02*
X106780095Y-56370475D01*
X106780095Y-56370475D02*
X106780095Y-56179999D01*
X106780095Y-56179999D02*
X106818190Y-56065713D01*
X106818190Y-56065713D02*
X106894380Y-55989523D01*
X106894380Y-55989523D02*
X106970571Y-55951428D01*
X106970571Y-55951428D02*
X107122952Y-55913332D01*
X107122952Y-55913332D02*
X107237238Y-55913332D01*
X107237238Y-55913332D02*
X107389619Y-55951428D01*
X107389619Y-55951428D02*
X107465809Y-55989523D01*
X107465809Y-55989523D02*
X107542000Y-56065713D01*
X107542000Y-56065713D02*
X107580095Y-56179999D01*
X107580095Y-56179999D02*
X107580095Y-56370475D01*
X106780095Y-55646666D02*
X106780095Y-55151428D01*
X106780095Y-55151428D02*
X107084857Y-55418094D01*
X107084857Y-55418094D02*
X107084857Y-55303809D01*
X107084857Y-55303809D02*
X107122952Y-55227618D01*
X107122952Y-55227618D02*
X107161047Y-55189523D01*
X107161047Y-55189523D02*
X107237238Y-55151428D01*
X107237238Y-55151428D02*
X107427714Y-55151428D01*
X107427714Y-55151428D02*
X107503904Y-55189523D01*
X107503904Y-55189523D02*
X107542000Y-55227618D01*
X107542000Y-55227618D02*
X107580095Y-55303809D01*
X107580095Y-55303809D02*
X107580095Y-55532380D01*
X107580095Y-55532380D02*
X107542000Y-55608571D01*
X107542000Y-55608571D02*
X107503904Y-55646666D01*
D12*
X83899999Y-62307166D02*
X83866666Y-62340500D01*
X83866666Y-62340500D02*
X83766666Y-62373833D01*
X83766666Y-62373833D02*
X83699999Y-62373833D01*
X83699999Y-62373833D02*
X83599999Y-62340500D01*
X83599999Y-62340500D02*
X83533333Y-62273833D01*
X83533333Y-62273833D02*
X83499999Y-62207166D01*
X83499999Y-62207166D02*
X83466666Y-62073833D01*
X83466666Y-62073833D02*
X83466666Y-61973833D01*
X83466666Y-61973833D02*
X83499999Y-61840500D01*
X83499999Y-61840500D02*
X83533333Y-61773833D01*
X83533333Y-61773833D02*
X83599999Y-61707166D01*
X83599999Y-61707166D02*
X83699999Y-61673833D01*
X83699999Y-61673833D02*
X83766666Y-61673833D01*
X83766666Y-61673833D02*
X83866666Y-61707166D01*
X83866666Y-61707166D02*
X83899999Y-61740500D01*
X84566666Y-62373833D02*
X84166666Y-62373833D01*
X84366666Y-62373833D02*
X84366666Y-61673833D01*
X84366666Y-61673833D02*
X84299999Y-61773833D01*
X84299999Y-61773833D02*
X84233333Y-61840500D01*
X84233333Y-61840500D02*
X84166666Y-61873833D01*
X84800000Y-61673833D02*
X85266666Y-61673833D01*
X85266666Y-61673833D02*
X84966666Y-62373833D01*
X91008333Y-49848833D02*
X90775000Y-49515500D01*
X90608333Y-49848833D02*
X90608333Y-49148833D01*
X90608333Y-49148833D02*
X90875000Y-49148833D01*
X90875000Y-49148833D02*
X90941667Y-49182166D01*
X90941667Y-49182166D02*
X90975000Y-49215500D01*
X90975000Y-49215500D02*
X91008333Y-49282166D01*
X91008333Y-49282166D02*
X91008333Y-49382166D01*
X91008333Y-49382166D02*
X90975000Y-49448833D01*
X90975000Y-49448833D02*
X90941667Y-49482166D01*
X90941667Y-49482166D02*
X90875000Y-49515500D01*
X90875000Y-49515500D02*
X90608333Y-49515500D01*
X91241667Y-49148833D02*
X91708333Y-49148833D01*
X91708333Y-49148833D02*
X91408333Y-49848833D01*
X100233333Y-39065500D02*
X100166666Y-39032166D01*
X100166666Y-39032166D02*
X100100000Y-38965500D01*
X100100000Y-38965500D02*
X100000000Y-38865500D01*
X100000000Y-38865500D02*
X99933333Y-38832166D01*
X99933333Y-38832166D02*
X99866666Y-38832166D01*
X99900000Y-38998833D02*
X99833333Y-38965500D01*
X99833333Y-38965500D02*
X99766666Y-38898833D01*
X99766666Y-38898833D02*
X99733333Y-38765500D01*
X99733333Y-38765500D02*
X99733333Y-38532166D01*
X99733333Y-38532166D02*
X99766666Y-38398833D01*
X99766666Y-38398833D02*
X99833333Y-38332166D01*
X99833333Y-38332166D02*
X99900000Y-38298833D01*
X99900000Y-38298833D02*
X100033333Y-38298833D01*
X100033333Y-38298833D02*
X100100000Y-38332166D01*
X100100000Y-38332166D02*
X100166666Y-38398833D01*
X100166666Y-38398833D02*
X100200000Y-38532166D01*
X100200000Y-38532166D02*
X100200000Y-38765500D01*
X100200000Y-38765500D02*
X100166666Y-38898833D01*
X100166666Y-38898833D02*
X100100000Y-38965500D01*
X100100000Y-38965500D02*
X100033333Y-38998833D01*
X100033333Y-38998833D02*
X99900000Y-38998833D01*
X100866666Y-38998833D02*
X100466666Y-38998833D01*
X100666666Y-38998833D02*
X100666666Y-38298833D01*
X100666666Y-38298833D02*
X100599999Y-38398833D01*
X100599999Y-38398833D02*
X100533333Y-38465500D01*
X100533333Y-38465500D02*
X100466666Y-38498833D01*
D11*
X96011428Y-30590642D02*
X95968571Y-30633500D01*
X95968571Y-30633500D02*
X95839999Y-30676357D01*
X95839999Y-30676357D02*
X95754285Y-30676357D01*
X95754285Y-30676357D02*
X95625714Y-30633500D01*
X95625714Y-30633500D02*
X95539999Y-30547785D01*
X95539999Y-30547785D02*
X95497142Y-30462071D01*
X95497142Y-30462071D02*
X95454285Y-30290642D01*
X95454285Y-30290642D02*
X95454285Y-30162071D01*
X95454285Y-30162071D02*
X95497142Y-29990642D01*
X95497142Y-29990642D02*
X95539999Y-29904928D01*
X95539999Y-29904928D02*
X95625714Y-29819214D01*
X95625714Y-29819214D02*
X95754285Y-29776357D01*
X95754285Y-29776357D02*
X95839999Y-29776357D01*
X95839999Y-29776357D02*
X95968571Y-29819214D01*
X95968571Y-29819214D02*
X96011428Y-29862071D01*
X96868571Y-30676357D02*
X96354285Y-30676357D01*
X96611428Y-30676357D02*
X96611428Y-29776357D01*
X96611428Y-29776357D02*
X96525714Y-29904928D01*
X96525714Y-29904928D02*
X96439999Y-29990642D01*
X96439999Y-29990642D02*
X96354285Y-30033500D01*
X97682857Y-29776357D02*
X97254285Y-29776357D01*
X97254285Y-29776357D02*
X97211428Y-30204928D01*
X97211428Y-30204928D02*
X97254285Y-30162071D01*
X97254285Y-30162071D02*
X97340000Y-30119214D01*
X97340000Y-30119214D02*
X97554285Y-30119214D01*
X97554285Y-30119214D02*
X97640000Y-30162071D01*
X97640000Y-30162071D02*
X97682857Y-30204928D01*
X97682857Y-30204928D02*
X97725714Y-30290642D01*
X97725714Y-30290642D02*
X97725714Y-30504928D01*
X97725714Y-30504928D02*
X97682857Y-30590642D01*
X97682857Y-30590642D02*
X97640000Y-30633500D01*
X97640000Y-30633500D02*
X97554285Y-30676357D01*
X97554285Y-30676357D02*
X97340000Y-30676357D01*
X97340000Y-30676357D02*
X97254285Y-30633500D01*
X97254285Y-30633500D02*
X97211428Y-30590642D01*
D12*
X96159999Y-32087166D02*
X96126666Y-32120500D01*
X96126666Y-32120500D02*
X96026666Y-32153833D01*
X96026666Y-32153833D02*
X95959999Y-32153833D01*
X95959999Y-32153833D02*
X95859999Y-32120500D01*
X95859999Y-32120500D02*
X95793333Y-32053833D01*
X95793333Y-32053833D02*
X95759999Y-31987166D01*
X95759999Y-31987166D02*
X95726666Y-31853833D01*
X95726666Y-31853833D02*
X95726666Y-31753833D01*
X95726666Y-31753833D02*
X95759999Y-31620500D01*
X95759999Y-31620500D02*
X95793333Y-31553833D01*
X95793333Y-31553833D02*
X95859999Y-31487166D01*
X95859999Y-31487166D02*
X95959999Y-31453833D01*
X95959999Y-31453833D02*
X96026666Y-31453833D01*
X96026666Y-31453833D02*
X96126666Y-31487166D01*
X96126666Y-31487166D02*
X96159999Y-31520500D01*
X96826666Y-32153833D02*
X96426666Y-32153833D01*
X96626666Y-32153833D02*
X96626666Y-31453833D01*
X96626666Y-31453833D02*
X96559999Y-31553833D01*
X96559999Y-31553833D02*
X96493333Y-31620500D01*
X96493333Y-31620500D02*
X96426666Y-31653833D01*
X97093333Y-31520500D02*
X97126666Y-31487166D01*
X97126666Y-31487166D02*
X97193333Y-31453833D01*
X97193333Y-31453833D02*
X97360000Y-31453833D01*
X97360000Y-31453833D02*
X97426666Y-31487166D01*
X97426666Y-31487166D02*
X97460000Y-31520500D01*
X97460000Y-31520500D02*
X97493333Y-31587166D01*
X97493333Y-31587166D02*
X97493333Y-31653833D01*
X97493333Y-31653833D02*
X97460000Y-31753833D01*
X97460000Y-31753833D02*
X97060000Y-32153833D01*
X97060000Y-32153833D02*
X97493333Y-32153833D01*
X121597166Y-54716666D02*
X121630500Y-54749999D01*
X121630500Y-54749999D02*
X121663833Y-54849999D01*
X121663833Y-54849999D02*
X121663833Y-54916666D01*
X121663833Y-54916666D02*
X121630500Y-55016666D01*
X121630500Y-55016666D02*
X121563833Y-55083333D01*
X121563833Y-55083333D02*
X121497166Y-55116666D01*
X121497166Y-55116666D02*
X121363833Y-55149999D01*
X121363833Y-55149999D02*
X121263833Y-55149999D01*
X121263833Y-55149999D02*
X121130500Y-55116666D01*
X121130500Y-55116666D02*
X121063833Y-55083333D01*
X121063833Y-55083333D02*
X120997166Y-55016666D01*
X120997166Y-55016666D02*
X120963833Y-54916666D01*
X120963833Y-54916666D02*
X120963833Y-54849999D01*
X120963833Y-54849999D02*
X120997166Y-54749999D01*
X120997166Y-54749999D02*
X121030500Y-54716666D01*
X121663833Y-54383333D02*
X121663833Y-54249999D01*
X121663833Y-54249999D02*
X121630500Y-54183333D01*
X121630500Y-54183333D02*
X121597166Y-54149999D01*
X121597166Y-54149999D02*
X121497166Y-54083333D01*
X121497166Y-54083333D02*
X121363833Y-54049999D01*
X121363833Y-54049999D02*
X121097166Y-54049999D01*
X121097166Y-54049999D02*
X121030500Y-54083333D01*
X121030500Y-54083333D02*
X120997166Y-54116666D01*
X120997166Y-54116666D02*
X120963833Y-54183333D01*
X120963833Y-54183333D02*
X120963833Y-54316666D01*
X120963833Y-54316666D02*
X120997166Y-54383333D01*
X120997166Y-54383333D02*
X121030500Y-54416666D01*
X121030500Y-54416666D02*
X121097166Y-54449999D01*
X121097166Y-54449999D02*
X121263833Y-54449999D01*
X121263833Y-54449999D02*
X121330500Y-54416666D01*
X121330500Y-54416666D02*
X121363833Y-54383333D01*
X121363833Y-54383333D02*
X121397166Y-54316666D01*
X121397166Y-54316666D02*
X121397166Y-54183333D01*
X121397166Y-54183333D02*
X121363833Y-54116666D01*
X121363833Y-54116666D02*
X121330500Y-54083333D01*
X121330500Y-54083333D02*
X121263833Y-54049999D01*
D11*
X116409524Y-59520095D02*
X116409524Y-58720095D01*
X116409524Y-58720095D02*
X116600000Y-58720095D01*
X116600000Y-58720095D02*
X116714286Y-58758190D01*
X116714286Y-58758190D02*
X116790476Y-58834380D01*
X116790476Y-58834380D02*
X116828571Y-58910571D01*
X116828571Y-58910571D02*
X116866667Y-59062952D01*
X116866667Y-59062952D02*
X116866667Y-59177238D01*
X116866667Y-59177238D02*
X116828571Y-59329619D01*
X116828571Y-59329619D02*
X116790476Y-59405809D01*
X116790476Y-59405809D02*
X116714286Y-59482000D01*
X116714286Y-59482000D02*
X116600000Y-59520095D01*
X116600000Y-59520095D02*
X116409524Y-59520095D01*
X117628571Y-59520095D02*
X117171428Y-59520095D01*
X117400000Y-59520095D02*
X117400000Y-58720095D01*
X117400000Y-58720095D02*
X117323809Y-58834380D01*
X117323809Y-58834380D02*
X117247619Y-58910571D01*
X117247619Y-58910571D02*
X117171428Y-58948666D01*
D12*
X94108333Y-41923833D02*
X93875000Y-41590500D01*
X93708333Y-41923833D02*
X93708333Y-41223833D01*
X93708333Y-41223833D02*
X93975000Y-41223833D01*
X93975000Y-41223833D02*
X94041667Y-41257166D01*
X94041667Y-41257166D02*
X94075000Y-41290500D01*
X94075000Y-41290500D02*
X94108333Y-41357166D01*
X94108333Y-41357166D02*
X94108333Y-41457166D01*
X94108333Y-41457166D02*
X94075000Y-41523833D01*
X94075000Y-41523833D02*
X94041667Y-41557166D01*
X94041667Y-41557166D02*
X93975000Y-41590500D01*
X93975000Y-41590500D02*
X93708333Y-41590500D01*
X94708333Y-41457166D02*
X94708333Y-41923833D01*
X94541667Y-41190500D02*
X94375000Y-41690500D01*
X94375000Y-41690500D02*
X94808333Y-41690500D01*
D11*
X103410095Y-32436666D02*
X103981523Y-32436666D01*
X103981523Y-32436666D02*
X104095809Y-32474761D01*
X104095809Y-32474761D02*
X104172000Y-32550952D01*
X104172000Y-32550952D02*
X104210095Y-32665237D01*
X104210095Y-32665237D02*
X104210095Y-32741428D01*
X103486285Y-32093809D02*
X103448190Y-32055713D01*
X103448190Y-32055713D02*
X103410095Y-31979523D01*
X103410095Y-31979523D02*
X103410095Y-31789047D01*
X103410095Y-31789047D02*
X103448190Y-31712856D01*
X103448190Y-31712856D02*
X103486285Y-31674761D01*
X103486285Y-31674761D02*
X103562476Y-31636666D01*
X103562476Y-31636666D02*
X103638666Y-31636666D01*
X103638666Y-31636666D02*
X103752952Y-31674761D01*
X103752952Y-31674761D02*
X104210095Y-32131904D01*
X104210095Y-32131904D02*
X104210095Y-31636666D01*
D10*
X107802619Y-32329999D02*
X108040714Y-32329999D01*
X107945476Y-32568094D02*
X108040714Y-32329999D01*
X108040714Y-32329999D02*
X107945476Y-32091904D01*
X108231190Y-32472856D02*
X108040714Y-32329999D01*
X108040714Y-32329999D02*
X108231190Y-32187142D01*
D12*
X95023333Y-46833833D02*
X94790000Y-46500500D01*
X94623333Y-46833833D02*
X94623333Y-46133833D01*
X94623333Y-46133833D02*
X94890000Y-46133833D01*
X94890000Y-46133833D02*
X94956667Y-46167166D01*
X94956667Y-46167166D02*
X94990000Y-46200500D01*
X94990000Y-46200500D02*
X95023333Y-46267166D01*
X95023333Y-46267166D02*
X95023333Y-46367166D01*
X95023333Y-46367166D02*
X94990000Y-46433833D01*
X94990000Y-46433833D02*
X94956667Y-46467166D01*
X94956667Y-46467166D02*
X94890000Y-46500500D01*
X94890000Y-46500500D02*
X94623333Y-46500500D01*
X95656667Y-46133833D02*
X95323333Y-46133833D01*
X95323333Y-46133833D02*
X95290000Y-46467166D01*
X95290000Y-46467166D02*
X95323333Y-46433833D01*
X95323333Y-46433833D02*
X95390000Y-46400500D01*
X95390000Y-46400500D02*
X95556667Y-46400500D01*
X95556667Y-46400500D02*
X95623333Y-46433833D01*
X95623333Y-46433833D02*
X95656667Y-46467166D01*
X95656667Y-46467166D02*
X95690000Y-46533833D01*
X95690000Y-46533833D02*
X95690000Y-46700500D01*
X95690000Y-46700500D02*
X95656667Y-46767166D01*
X95656667Y-46767166D02*
X95623333Y-46800500D01*
X95623333Y-46800500D02*
X95556667Y-46833833D01*
X95556667Y-46833833D02*
X95390000Y-46833833D01*
X95390000Y-46833833D02*
X95323333Y-46800500D01*
X95323333Y-46800500D02*
X95290000Y-46767166D01*
X104849999Y-61443833D02*
X104616666Y-61110500D01*
X104449999Y-61443833D02*
X104449999Y-60743833D01*
X104449999Y-60743833D02*
X104716666Y-60743833D01*
X104716666Y-60743833D02*
X104783333Y-60777166D01*
X104783333Y-60777166D02*
X104816666Y-60810500D01*
X104816666Y-60810500D02*
X104849999Y-60877166D01*
X104849999Y-60877166D02*
X104849999Y-60977166D01*
X104849999Y-60977166D02*
X104816666Y-61043833D01*
X104816666Y-61043833D02*
X104783333Y-61077166D01*
X104783333Y-61077166D02*
X104716666Y-61110500D01*
X104716666Y-61110500D02*
X104449999Y-61110500D01*
X105516666Y-61443833D02*
X105116666Y-61443833D01*
X105316666Y-61443833D02*
X105316666Y-60743833D01*
X105316666Y-60743833D02*
X105249999Y-60843833D01*
X105249999Y-60843833D02*
X105183333Y-60910500D01*
X105183333Y-60910500D02*
X105116666Y-60943833D01*
X106183333Y-61443833D02*
X105783333Y-61443833D01*
X105983333Y-61443833D02*
X105983333Y-60743833D01*
X105983333Y-60743833D02*
X105916666Y-60843833D01*
X105916666Y-60843833D02*
X105850000Y-60910500D01*
X105850000Y-60910500D02*
X105783333Y-60943833D01*
X84299999Y-53307166D02*
X84266666Y-53340500D01*
X84266666Y-53340500D02*
X84166666Y-53373833D01*
X84166666Y-53373833D02*
X84099999Y-53373833D01*
X84099999Y-53373833D02*
X83999999Y-53340500D01*
X83999999Y-53340500D02*
X83933333Y-53273833D01*
X83933333Y-53273833D02*
X83899999Y-53207166D01*
X83899999Y-53207166D02*
X83866666Y-53073833D01*
X83866666Y-53073833D02*
X83866666Y-52973833D01*
X83866666Y-52973833D02*
X83899999Y-52840500D01*
X83899999Y-52840500D02*
X83933333Y-52773833D01*
X83933333Y-52773833D02*
X83999999Y-52707166D01*
X83999999Y-52707166D02*
X84099999Y-52673833D01*
X84099999Y-52673833D02*
X84166666Y-52673833D01*
X84166666Y-52673833D02*
X84266666Y-52707166D01*
X84266666Y-52707166D02*
X84299999Y-52740500D01*
X84966666Y-53373833D02*
X84566666Y-53373833D01*
X84766666Y-53373833D02*
X84766666Y-52673833D01*
X84766666Y-52673833D02*
X84699999Y-52773833D01*
X84699999Y-52773833D02*
X84633333Y-52840500D01*
X84633333Y-52840500D02*
X84566666Y-52873833D01*
X85566666Y-52673833D02*
X85433333Y-52673833D01*
X85433333Y-52673833D02*
X85366666Y-52707166D01*
X85366666Y-52707166D02*
X85333333Y-52740500D01*
X85333333Y-52740500D02*
X85266666Y-52840500D01*
X85266666Y-52840500D02*
X85233333Y-52973833D01*
X85233333Y-52973833D02*
X85233333Y-53240500D01*
X85233333Y-53240500D02*
X85266666Y-53307166D01*
X85266666Y-53307166D02*
X85300000Y-53340500D01*
X85300000Y-53340500D02*
X85366666Y-53373833D01*
X85366666Y-53373833D02*
X85500000Y-53373833D01*
X85500000Y-53373833D02*
X85566666Y-53340500D01*
X85566666Y-53340500D02*
X85600000Y-53307166D01*
X85600000Y-53307166D02*
X85633333Y-53240500D01*
X85633333Y-53240500D02*
X85633333Y-53073833D01*
X85633333Y-53073833D02*
X85600000Y-53007166D01*
X85600000Y-53007166D02*
X85566666Y-52973833D01*
X85566666Y-52973833D02*
X85500000Y-52940500D01*
X85500000Y-52940500D02*
X85366666Y-52940500D01*
X85366666Y-52940500D02*
X85300000Y-52973833D01*
X85300000Y-52973833D02*
X85266666Y-53007166D01*
X85266666Y-53007166D02*
X85233333Y-53073833D01*
D10*
X104780000Y-59086357D02*
X104780000Y-59729214D01*
X104780000Y-59729214D02*
X104737143Y-59857785D01*
X104737143Y-59857785D02*
X104651429Y-59943500D01*
X104651429Y-59943500D02*
X104522857Y-59986357D01*
X104522857Y-59986357D02*
X104437143Y-59986357D01*
X105594286Y-59386357D02*
X105594286Y-59986357D01*
X105380000Y-59043500D02*
X105165714Y-59686357D01*
X105165714Y-59686357D02*
X105722857Y-59686357D01*
D12*
X91533833Y-59830000D02*
X91200500Y-60063333D01*
X91533833Y-60230000D02*
X90833833Y-60230000D01*
X90833833Y-60230000D02*
X90833833Y-59963333D01*
X90833833Y-59963333D02*
X90867166Y-59896667D01*
X90867166Y-59896667D02*
X90900500Y-59863333D01*
X90900500Y-59863333D02*
X90967166Y-59830000D01*
X90967166Y-59830000D02*
X91067166Y-59830000D01*
X91067166Y-59830000D02*
X91133833Y-59863333D01*
X91133833Y-59863333D02*
X91167166Y-59896667D01*
X91167166Y-59896667D02*
X91200500Y-59963333D01*
X91200500Y-59963333D02*
X91200500Y-60230000D01*
X91533833Y-59163333D02*
X91533833Y-59563333D01*
X91533833Y-59363333D02*
X90833833Y-59363333D01*
X90833833Y-59363333D02*
X90933833Y-59430000D01*
X90933833Y-59430000D02*
X91000500Y-59496667D01*
X91000500Y-59496667D02*
X91033833Y-59563333D01*
X90900500Y-58896666D02*
X90867166Y-58863333D01*
X90867166Y-58863333D02*
X90833833Y-58796666D01*
X90833833Y-58796666D02*
X90833833Y-58630000D01*
X90833833Y-58630000D02*
X90867166Y-58563333D01*
X90867166Y-58563333D02*
X90900500Y-58530000D01*
X90900500Y-58530000D02*
X90967166Y-58496666D01*
X90967166Y-58496666D02*
X91033833Y-58496666D01*
X91033833Y-58496666D02*
X91133833Y-58530000D01*
X91133833Y-58530000D02*
X91533833Y-58930000D01*
X91533833Y-58930000D02*
X91533833Y-58496666D01*
X96233333Y-51200500D02*
X96166666Y-51167166D01*
X96166666Y-51167166D02*
X96100000Y-51100500D01*
X96100000Y-51100500D02*
X96000000Y-51000500D01*
X96000000Y-51000500D02*
X95933333Y-50967166D01*
X95933333Y-50967166D02*
X95866666Y-50967166D01*
X95900000Y-51133833D02*
X95833333Y-51100500D01*
X95833333Y-51100500D02*
X95766666Y-51033833D01*
X95766666Y-51033833D02*
X95733333Y-50900500D01*
X95733333Y-50900500D02*
X95733333Y-50667166D01*
X95733333Y-50667166D02*
X95766666Y-50533833D01*
X95766666Y-50533833D02*
X95833333Y-50467166D01*
X95833333Y-50467166D02*
X95900000Y-50433833D01*
X95900000Y-50433833D02*
X96033333Y-50433833D01*
X96033333Y-50433833D02*
X96100000Y-50467166D01*
X96100000Y-50467166D02*
X96166666Y-50533833D01*
X96166666Y-50533833D02*
X96200000Y-50667166D01*
X96200000Y-50667166D02*
X96200000Y-50900500D01*
X96200000Y-50900500D02*
X96166666Y-51033833D01*
X96166666Y-51033833D02*
X96100000Y-51100500D01*
X96100000Y-51100500D02*
X96033333Y-51133833D01*
X96033333Y-51133833D02*
X95900000Y-51133833D01*
X96466666Y-50500500D02*
X96499999Y-50467166D01*
X96499999Y-50467166D02*
X96566666Y-50433833D01*
X96566666Y-50433833D02*
X96733333Y-50433833D01*
X96733333Y-50433833D02*
X96799999Y-50467166D01*
X96799999Y-50467166D02*
X96833333Y-50500500D01*
X96833333Y-50500500D02*
X96866666Y-50567166D01*
X96866666Y-50567166D02*
X96866666Y-50633833D01*
X96866666Y-50633833D02*
X96833333Y-50733833D01*
X96833333Y-50733833D02*
X96433333Y-51133833D01*
X96433333Y-51133833D02*
X96866666Y-51133833D01*
X88191666Y-52223833D02*
X88191666Y-52790500D01*
X88191666Y-52790500D02*
X88225000Y-52857166D01*
X88225000Y-52857166D02*
X88258333Y-52890500D01*
X88258333Y-52890500D02*
X88325000Y-52923833D01*
X88325000Y-52923833D02*
X88458333Y-52923833D01*
X88458333Y-52923833D02*
X88525000Y-52890500D01*
X88525000Y-52890500D02*
X88558333Y-52857166D01*
X88558333Y-52857166D02*
X88591666Y-52790500D01*
X88591666Y-52790500D02*
X88591666Y-52223833D01*
X88858333Y-52223833D02*
X89291666Y-52223833D01*
X89291666Y-52223833D02*
X89058333Y-52490500D01*
X89058333Y-52490500D02*
X89158333Y-52490500D01*
X89158333Y-52490500D02*
X89224999Y-52523833D01*
X89224999Y-52523833D02*
X89258333Y-52557166D01*
X89258333Y-52557166D02*
X89291666Y-52623833D01*
X89291666Y-52623833D02*
X89291666Y-52790500D01*
X89291666Y-52790500D02*
X89258333Y-52857166D01*
X89258333Y-52857166D02*
X89224999Y-52890500D01*
X89224999Y-52890500D02*
X89158333Y-52923833D01*
X89158333Y-52923833D02*
X88958333Y-52923833D01*
X88958333Y-52923833D02*
X88891666Y-52890500D01*
X88891666Y-52890500D02*
X88858333Y-52857166D01*
X99158333Y-46019666D02*
X99125000Y-46053000D01*
X99125000Y-46053000D02*
X99025000Y-46086333D01*
X99025000Y-46086333D02*
X98958333Y-46086333D01*
X98958333Y-46086333D02*
X98858333Y-46053000D01*
X98858333Y-46053000D02*
X98791667Y-45986333D01*
X98791667Y-45986333D02*
X98758333Y-45919666D01*
X98758333Y-45919666D02*
X98725000Y-45786333D01*
X98725000Y-45786333D02*
X98725000Y-45686333D01*
X98725000Y-45686333D02*
X98758333Y-45553000D01*
X98758333Y-45553000D02*
X98791667Y-45486333D01*
X98791667Y-45486333D02*
X98858333Y-45419666D01*
X98858333Y-45419666D02*
X98958333Y-45386333D01*
X98958333Y-45386333D02*
X99025000Y-45386333D01*
X99025000Y-45386333D02*
X99125000Y-45419666D01*
X99125000Y-45419666D02*
X99158333Y-45453000D01*
X99391667Y-45386333D02*
X99825000Y-45386333D01*
X99825000Y-45386333D02*
X99591667Y-45653000D01*
X99591667Y-45653000D02*
X99691667Y-45653000D01*
X99691667Y-45653000D02*
X99758333Y-45686333D01*
X99758333Y-45686333D02*
X99791667Y-45719666D01*
X99791667Y-45719666D02*
X99825000Y-45786333D01*
X99825000Y-45786333D02*
X99825000Y-45953000D01*
X99825000Y-45953000D02*
X99791667Y-46019666D01*
X99791667Y-46019666D02*
X99758333Y-46053000D01*
X99758333Y-46053000D02*
X99691667Y-46086333D01*
X99691667Y-46086333D02*
X99491667Y-46086333D01*
X99491667Y-46086333D02*
X99425000Y-46053000D01*
X99425000Y-46053000D02*
X99391667Y-46019666D01*
X104757166Y-41141666D02*
X104790500Y-41174999D01*
X104790500Y-41174999D02*
X104823833Y-41274999D01*
X104823833Y-41274999D02*
X104823833Y-41341666D01*
X104823833Y-41341666D02*
X104790500Y-41441666D01*
X104790500Y-41441666D02*
X104723833Y-41508333D01*
X104723833Y-41508333D02*
X104657166Y-41541666D01*
X104657166Y-41541666D02*
X104523833Y-41574999D01*
X104523833Y-41574999D02*
X104423833Y-41574999D01*
X104423833Y-41574999D02*
X104290500Y-41541666D01*
X104290500Y-41541666D02*
X104223833Y-41508333D01*
X104223833Y-41508333D02*
X104157166Y-41441666D01*
X104157166Y-41441666D02*
X104123833Y-41341666D01*
X104123833Y-41341666D02*
X104123833Y-41274999D01*
X104123833Y-41274999D02*
X104157166Y-41174999D01*
X104157166Y-41174999D02*
X104190500Y-41141666D01*
X104190500Y-40874999D02*
X104157166Y-40841666D01*
X104157166Y-40841666D02*
X104123833Y-40774999D01*
X104123833Y-40774999D02*
X104123833Y-40608333D01*
X104123833Y-40608333D02*
X104157166Y-40541666D01*
X104157166Y-40541666D02*
X104190500Y-40508333D01*
X104190500Y-40508333D02*
X104257166Y-40474999D01*
X104257166Y-40474999D02*
X104323833Y-40474999D01*
X104323833Y-40474999D02*
X104423833Y-40508333D01*
X104423833Y-40508333D02*
X104823833Y-40908333D01*
X104823833Y-40908333D02*
X104823833Y-40474999D01*
X121597166Y-57075000D02*
X121630500Y-57108333D01*
X121630500Y-57108333D02*
X121663833Y-57208333D01*
X121663833Y-57208333D02*
X121663833Y-57275000D01*
X121663833Y-57275000D02*
X121630500Y-57375000D01*
X121630500Y-57375000D02*
X121563833Y-57441667D01*
X121563833Y-57441667D02*
X121497166Y-57475000D01*
X121497166Y-57475000D02*
X121363833Y-57508333D01*
X121363833Y-57508333D02*
X121263833Y-57508333D01*
X121263833Y-57508333D02*
X121130500Y-57475000D01*
X121130500Y-57475000D02*
X121063833Y-57441667D01*
X121063833Y-57441667D02*
X120997166Y-57375000D01*
X120997166Y-57375000D02*
X120963833Y-57275000D01*
X120963833Y-57275000D02*
X120963833Y-57208333D01*
X120963833Y-57208333D02*
X120997166Y-57108333D01*
X120997166Y-57108333D02*
X121030500Y-57075000D01*
X121663833Y-56408333D02*
X121663833Y-56808333D01*
X121663833Y-56608333D02*
X120963833Y-56608333D01*
X120963833Y-56608333D02*
X121063833Y-56675000D01*
X121063833Y-56675000D02*
X121130500Y-56741667D01*
X121130500Y-56741667D02*
X121163833Y-56808333D01*
X121663833Y-55741666D02*
X121663833Y-56141666D01*
X121663833Y-55941666D02*
X120963833Y-55941666D01*
X120963833Y-55941666D02*
X121063833Y-56008333D01*
X121063833Y-56008333D02*
X121130500Y-56075000D01*
X121130500Y-56075000D02*
X121163833Y-56141666D01*
X98108333Y-38577166D02*
X98075000Y-38610500D01*
X98075000Y-38610500D02*
X97975000Y-38643833D01*
X97975000Y-38643833D02*
X97908333Y-38643833D01*
X97908333Y-38643833D02*
X97808333Y-38610500D01*
X97808333Y-38610500D02*
X97741667Y-38543833D01*
X97741667Y-38543833D02*
X97708333Y-38477166D01*
X97708333Y-38477166D02*
X97675000Y-38343833D01*
X97675000Y-38343833D02*
X97675000Y-38243833D01*
X97675000Y-38243833D02*
X97708333Y-38110500D01*
X97708333Y-38110500D02*
X97741667Y-38043833D01*
X97741667Y-38043833D02*
X97808333Y-37977166D01*
X97808333Y-37977166D02*
X97908333Y-37943833D01*
X97908333Y-37943833D02*
X97975000Y-37943833D01*
X97975000Y-37943833D02*
X98075000Y-37977166D01*
X98075000Y-37977166D02*
X98108333Y-38010500D01*
X98775000Y-38643833D02*
X98375000Y-38643833D01*
X98575000Y-38643833D02*
X98575000Y-37943833D01*
X98575000Y-37943833D02*
X98508333Y-38043833D01*
X98508333Y-38043833D02*
X98441667Y-38110500D01*
X98441667Y-38110500D02*
X98375000Y-38143833D01*
D11*
X114799524Y-52740095D02*
X114799524Y-51940095D01*
X114799524Y-51940095D02*
X114990000Y-51940095D01*
X114990000Y-51940095D02*
X115104286Y-51978190D01*
X115104286Y-51978190D02*
X115180476Y-52054380D01*
X115180476Y-52054380D02*
X115218571Y-52130571D01*
X115218571Y-52130571D02*
X115256667Y-52282952D01*
X115256667Y-52282952D02*
X115256667Y-52397238D01*
X115256667Y-52397238D02*
X115218571Y-52549619D01*
X115218571Y-52549619D02*
X115180476Y-52625809D01*
X115180476Y-52625809D02*
X115104286Y-52702000D01*
X115104286Y-52702000D02*
X114990000Y-52740095D01*
X114990000Y-52740095D02*
X114799524Y-52740095D01*
X115561428Y-52016285D02*
X115599524Y-51978190D01*
X115599524Y-51978190D02*
X115675714Y-51940095D01*
X115675714Y-51940095D02*
X115866190Y-51940095D01*
X115866190Y-51940095D02*
X115942381Y-51978190D01*
X115942381Y-51978190D02*
X115980476Y-52016285D01*
X115980476Y-52016285D02*
X116018571Y-52092476D01*
X116018571Y-52092476D02*
X116018571Y-52168666D01*
X116018571Y-52168666D02*
X115980476Y-52282952D01*
X115980476Y-52282952D02*
X115523333Y-52740095D01*
X115523333Y-52740095D02*
X116018571Y-52740095D01*
D12*
X90367166Y-31660000D02*
X90400500Y-31693333D01*
X90400500Y-31693333D02*
X90433833Y-31793333D01*
X90433833Y-31793333D02*
X90433833Y-31860000D01*
X90433833Y-31860000D02*
X90400500Y-31960000D01*
X90400500Y-31960000D02*
X90333833Y-32026667D01*
X90333833Y-32026667D02*
X90267166Y-32060000D01*
X90267166Y-32060000D02*
X90133833Y-32093333D01*
X90133833Y-32093333D02*
X90033833Y-32093333D01*
X90033833Y-32093333D02*
X89900500Y-32060000D01*
X89900500Y-32060000D02*
X89833833Y-32026667D01*
X89833833Y-32026667D02*
X89767166Y-31960000D01*
X89767166Y-31960000D02*
X89733833Y-31860000D01*
X89733833Y-31860000D02*
X89733833Y-31793333D01*
X89733833Y-31793333D02*
X89767166Y-31693333D01*
X89767166Y-31693333D02*
X89800500Y-31660000D01*
X90433833Y-30993333D02*
X90433833Y-31393333D01*
X90433833Y-31193333D02*
X89733833Y-31193333D01*
X89733833Y-31193333D02*
X89833833Y-31260000D01*
X89833833Y-31260000D02*
X89900500Y-31326667D01*
X89900500Y-31326667D02*
X89933833Y-31393333D01*
X89967166Y-30393333D02*
X90433833Y-30393333D01*
X89700500Y-30560000D02*
X90200500Y-30726666D01*
X90200500Y-30726666D02*
X90200500Y-30293333D01*
D11*
X95130476Y-58710095D02*
X95130476Y-59357714D01*
X95130476Y-59357714D02*
X95168571Y-59433904D01*
X95168571Y-59433904D02*
X95206666Y-59472000D01*
X95206666Y-59472000D02*
X95282857Y-59510095D01*
X95282857Y-59510095D02*
X95435238Y-59510095D01*
X95435238Y-59510095D02*
X95511428Y-59472000D01*
X95511428Y-59472000D02*
X95549523Y-59433904D01*
X95549523Y-59433904D02*
X95587619Y-59357714D01*
X95587619Y-59357714D02*
X95587619Y-58710095D01*
X96311428Y-58976761D02*
X96311428Y-59510095D01*
X96120952Y-58672000D02*
X95930475Y-59243428D01*
X95930475Y-59243428D02*
X96425714Y-59243428D01*
D10*
X98160000Y-61054619D02*
X98160000Y-61292714D01*
X97921905Y-61197476D02*
X98160000Y-61292714D01*
X98160000Y-61292714D02*
X98398095Y-61197476D01*
X98017143Y-61483190D02*
X98160000Y-61292714D01*
X98160000Y-61292714D02*
X98302857Y-61483190D01*
D12*
X116926666Y-46113833D02*
X116926666Y-46613833D01*
X116926666Y-46613833D02*
X116893333Y-46713833D01*
X116893333Y-46713833D02*
X116826666Y-46780500D01*
X116826666Y-46780500D02*
X116726666Y-46813833D01*
X116726666Y-46813833D02*
X116660000Y-46813833D01*
X117259999Y-46813833D02*
X117259999Y-46113833D01*
X117259999Y-46113833D02*
X117526666Y-46113833D01*
X117526666Y-46113833D02*
X117593333Y-46147166D01*
X117593333Y-46147166D02*
X117626666Y-46180500D01*
X117626666Y-46180500D02*
X117659999Y-46247166D01*
X117659999Y-46247166D02*
X117659999Y-46347166D01*
X117659999Y-46347166D02*
X117626666Y-46413833D01*
X117626666Y-46413833D02*
X117593333Y-46447166D01*
X117593333Y-46447166D02*
X117526666Y-46480500D01*
X117526666Y-46480500D02*
X117259999Y-46480500D01*
X118326666Y-46813833D02*
X117926666Y-46813833D01*
X118126666Y-46813833D02*
X118126666Y-46113833D01*
X118126666Y-46113833D02*
X118059999Y-46213833D01*
X118059999Y-46213833D02*
X117993333Y-46280500D01*
X117993333Y-46280500D02*
X117926666Y-46313833D01*
D16*
X103008748Y-51375000D02*
X103531252Y-51375000D01*
X103008748Y-52845000D02*
X103531252Y-52845000D01*
X114300000Y-58800000D02*
X112625000Y-58800000D01*
X114300000Y-58800000D02*
X114950000Y-58800000D01*
X114300000Y-61920000D02*
X113650000Y-61920000D01*
X114300000Y-61920000D02*
X114950000Y-61920000D01*
X116007742Y-49797500D02*
X116482258Y-49797500D01*
X116007742Y-50842500D02*
X116482258Y-50842500D01*
X96735000Y-56301252D02*
X96735000Y-55778748D01*
X98205000Y-56301252D02*
X98205000Y-55778748D01*
X74850000Y-34690000D02*
X76250000Y-34690000D01*
X74850000Y-36090000D02*
X74850000Y-34690000D01*
X76250000Y-34690000D02*
X76250000Y-36090000D01*
X76250000Y-36090000D02*
X74850000Y-36090000D01*
X93912742Y-47977500D02*
X94387258Y-47977500D01*
X93912742Y-49022500D02*
X94387258Y-49022500D01*
X88260580Y-36120000D02*
X87979420Y-36120000D01*
X88260580Y-35100000D02*
X87979420Y-35100000D01*
X108377400Y-53924800D02*
X111018359Y-53924800D01*
X113690439Y-53924800D02*
X114422599Y-53924800D01*
X114422599Y-53924800D02*
X114422599Y-38075200D01*
X108377400Y-52142755D02*
X108377400Y-53924800D01*
X108377400Y-38075200D02*
X108377400Y-39857248D01*
X111018359Y-38075200D02*
X108377400Y-38075200D01*
X114422599Y-38075200D02*
X113690439Y-38075200D01*
X95051150Y-36027500D02*
X92701650Y-36027500D01*
X92701650Y-40472500D02*
X95051150Y-40472500D01*
X103590000Y-55736252D02*
X103590000Y-55213748D01*
X105060000Y-55736252D02*
X105060000Y-55213748D01*
X91787742Y-43052500D02*
X92262258Y-43052500D01*
X91787742Y-44097500D02*
X92262258Y-44097500D01*
X72167200Y-51131000D02*
X72167200Y-37669000D01*
X89032800Y-51131000D02*
X72167200Y-51131000D01*
X72167200Y-37669000D02*
X89032800Y-37669000D01*
X89032800Y-37669000D02*
X89032800Y-51131000D01*
X96663748Y-43640000D02*
X97186252Y-43640000D01*
X96663748Y-45110000D02*
X97186252Y-45110000D01*
X111510000Y-59180000D02*
X111510000Y-57180000D01*
X111510000Y-59180000D02*
X107500000Y-59180000D01*
X111510000Y-57180000D02*
X107500000Y-57180000D01*
X86590000Y-62060000D02*
X86590000Y-60950000D01*
X87350000Y-62060000D02*
X86590000Y-62060000D01*
X88110000Y-62060000D02*
X89315000Y-62060000D01*
X88110000Y-62060000D02*
X88110000Y-61513471D01*
X89315000Y-62060000D02*
X89315000Y-61257530D01*
X89315000Y-60642470D02*
X89315000Y-59840000D01*
X88110000Y-60386529D02*
X88110000Y-59840000D01*
X88110000Y-59840000D02*
X89315000Y-59840000D01*
X93295000Y-62350000D02*
X93295000Y-60430000D01*
X93295000Y-60430000D02*
X90610000Y-60430000D01*
X90610000Y-62350000D02*
X93295000Y-62350000D01*
X91787742Y-44577500D02*
X92262258Y-44577500D01*
X91787742Y-45622500D02*
X92262258Y-45622500D01*
X101713748Y-44390000D02*
X102236252Y-44390000D01*
X101713748Y-45860000D02*
X102236252Y-45860000D01*
X102537742Y-36152500D02*
X103012258Y-36152500D01*
X102537742Y-37197500D02*
X103012258Y-37197500D01*
X102315000Y-49336252D02*
X102315000Y-48813748D01*
X103785000Y-49336252D02*
X103785000Y-48813748D01*
X81495000Y-35635000D02*
X84945000Y-35635000D01*
X81495000Y-35635000D02*
X79545000Y-35635000D01*
X81495000Y-30515000D02*
X83445000Y-30515000D01*
X81495000Y-30515000D02*
X79545000Y-30515000D01*
X93700000Y-52990000D02*
X92025000Y-52990000D01*
X93700000Y-52990000D02*
X94350000Y-52990000D01*
X93700000Y-56110000D02*
X93050000Y-56110000D01*
X93700000Y-56110000D02*
X94350000Y-56110000D01*
X78700000Y-52425000D02*
X76700000Y-52425000D01*
X74800000Y-52425000D02*
X72900000Y-52425000D01*
X72900000Y-52425000D02*
X72900000Y-61825000D01*
X78700000Y-61825000D02*
X76700000Y-61825000D01*
X74800000Y-61825000D02*
X72900000Y-61825000D01*
X91746250Y-33437500D02*
X91746250Y-35137500D01*
X91746250Y-33437500D02*
X94406250Y-33437500D01*
X91746250Y-35137500D02*
X94406250Y-35137500D01*
X88320303Y-32487900D02*
X87919697Y-32487900D01*
X87919697Y-34342100D02*
X88320303Y-34342100D01*
X119327742Y-49797500D02*
X119802258Y-49797500D01*
X119327742Y-50842500D02*
X119802258Y-50842500D01*
X112895000Y-56801252D02*
X112895000Y-56278748D01*
X114365000Y-56801252D02*
X114365000Y-56278748D01*
X94937258Y-57582500D02*
X94462742Y-57582500D01*
X94937258Y-56537500D02*
X94462742Y-56537500D01*
X97500000Y-50260000D02*
X98900000Y-50260000D01*
X97500000Y-51660000D02*
X97500000Y-50260000D01*
X98900000Y-50260000D02*
X98900000Y-51660000D01*
X98900000Y-51660000D02*
X97500000Y-51660000D01*
X97735000Y-47063748D02*
X97735000Y-47586252D01*
X96265000Y-47063748D02*
X96265000Y-47586252D01*
X107800000Y-54790000D02*
X107800000Y-56790000D01*
X107800000Y-54790000D02*
X111810000Y-54790000D01*
X107800000Y-56790000D02*
X111810000Y-56790000D01*
X84138748Y-59815000D02*
X84661252Y-59815000D01*
X84138748Y-61285000D02*
X84661252Y-61285000D01*
X91247500Y-51237742D02*
X91247500Y-51712258D01*
X90202500Y-51237742D02*
X90202500Y-51712258D01*
X102070000Y-39960000D02*
X103480000Y-39960000D01*
X103480000Y-37640000D02*
X101450000Y-37640000D01*
X103480000Y-37640000D02*
X103480000Y-38300000D01*
X103480000Y-39300000D02*
X103480000Y-39960000D01*
X90652500Y-30160000D02*
X90652500Y-33180000D01*
X90652500Y-33180000D02*
X94862500Y-33180000D01*
X94862500Y-30160000D02*
X90652500Y-30160000D01*
X96870000Y-33919420D02*
X96870000Y-34200580D01*
X95850000Y-33919420D02*
X95850000Y-34200580D01*
X119241252Y-55345000D02*
X118718748Y-55345000D01*
X119241252Y-53875000D02*
X118718748Y-53875000D01*
X114850000Y-58430000D02*
X116850000Y-58430000D01*
X114850000Y-58430000D02*
X114850000Y-54420000D01*
X116850000Y-58430000D02*
X116850000Y-54420000D01*
X101225000Y-53915000D02*
X99550000Y-53915000D01*
X101225000Y-53915000D02*
X101875000Y-53915000D01*
X101225000Y-57035000D02*
X100575000Y-57035000D01*
X101225000Y-57035000D02*
X101875000Y-57035000D01*
X92287258Y-42047500D02*
X91812742Y-42047500D01*
X92287258Y-41002500D02*
X91812742Y-41002500D01*
X106308000Y-34958900D02*
X106308000Y-29701100D01*
X109025152Y-34958900D02*
X106308000Y-34958900D01*
X110372000Y-30501086D02*
X110372000Y-34158914D01*
X106308000Y-29701100D02*
X109025152Y-29701100D01*
X96897500Y-52562742D02*
X96897500Y-53037258D01*
X95852500Y-52562742D02*
X95852500Y-53037258D01*
X97500000Y-52300000D02*
X98900000Y-52300000D01*
X97500000Y-53700000D02*
X97500000Y-52300000D01*
X98900000Y-52300000D02*
X98900000Y-53700000D01*
X98900000Y-53700000D02*
X97500000Y-53700000D01*
X93262258Y-47447500D02*
X92787742Y-47447500D01*
X93262258Y-46402500D02*
X92787742Y-46402500D01*
X108274564Y-61865000D02*
X107820436Y-61865000D01*
X108274564Y-60395000D02*
X107820436Y-60395000D01*
X85610000Y-53615000D02*
X82590000Y-53615000D01*
X82590000Y-53615000D02*
X82590000Y-57825000D01*
X85610000Y-57825000D02*
X85610000Y-53615000D01*
X99275000Y-62050000D02*
X99275000Y-61000000D01*
X102625000Y-62050000D02*
X99275000Y-62050000D01*
X99275000Y-61000000D02*
X99085000Y-61000000D01*
X103795000Y-60980000D02*
X103795000Y-60630000D01*
X98231447Y-60690000D02*
X98585000Y-60440000D01*
X103795000Y-60630000D02*
X103295000Y-60230000D01*
X98585000Y-60440000D02*
X98231447Y-60190000D01*
X103295000Y-60230000D02*
X103295000Y-59450000D01*
X98231447Y-60190000D02*
X98231447Y-60690000D01*
X103295000Y-59450000D02*
X103795000Y-59050000D01*
X103795000Y-59050000D02*
X103795000Y-58700000D01*
X99275000Y-57630000D02*
X99275000Y-58680000D01*
X102625000Y-57630000D02*
X99275000Y-57630000D01*
X92892500Y-58717742D02*
X92892500Y-59192258D01*
X91847500Y-58717742D02*
X91847500Y-59192258D01*
X93700000Y-49490000D02*
X92025000Y-49490000D01*
X93700000Y-49490000D02*
X94350000Y-49490000D01*
X93700000Y-52610000D02*
X93050000Y-52610000D01*
X93700000Y-52610000D02*
X94350000Y-52610000D01*
D17*
X86750000Y-54350000D02*
X86750000Y-54350000D01*
X86850000Y-54350000D02*
X86850000Y-54350000D01*
X86850000Y-54350000D02*
G75*
G03*
X86750000Y-54350000I-50000J0D01*
G01*
X86750000Y-54350000D02*
G75*
G03*
X86850000Y-54350000I50000J0D01*
G01*
D16*
X99985000Y-47763748D02*
X99985000Y-48286252D01*
X98515000Y-47763748D02*
X98515000Y-48286252D01*
X101863748Y-40365000D02*
X102386252Y-40365000D01*
X101863748Y-41835000D02*
X102386252Y-41835000D01*
X72630000Y-34690000D02*
X74030000Y-34690000D01*
X72630000Y-36090000D02*
X72630000Y-34690000D01*
X74030000Y-34690000D02*
X74030000Y-36090000D01*
X74030000Y-36090000D02*
X72630000Y-36090000D01*
X118708748Y-55965000D02*
X119231252Y-55965000D01*
X118708748Y-57435000D02*
X119231252Y-57435000D01*
X97963748Y-39265000D02*
X98486252Y-39265000D01*
X97963748Y-40735000D02*
X98486252Y-40735000D01*
X116300000Y-51340000D02*
X116300000Y-53340000D01*
X116300000Y-51340000D02*
X120310000Y-51340000D01*
X116300000Y-53340000D02*
X120310000Y-53340000D01*
X88260580Y-31730000D02*
X87979420Y-31730000D01*
X88260580Y-30710000D02*
X87979420Y-30710000D01*
X96711700Y-58401701D02*
X94730500Y-58401701D01*
X94730500Y-61678301D02*
X96711700Y-61678301D01*
X116090000Y-48500000D02*
X116090000Y-47900000D01*
X116790000Y-47200000D02*
X118190000Y-47200000D01*
X118190000Y-49200000D02*
X116790000Y-49200000D01*
X118890000Y-47900000D02*
X118890000Y-48500000D01*
X116790000Y-47200000D02*
G75*
G03*
X116090000Y-47900000I-1J-699999D01*
G01*
X116090000Y-48500000D02*
G75*
G03*
X116790000Y-49200000I699999J-1D01*
G01*
X118890000Y-47900000D02*
G75*
G03*
X118190000Y-47200000I-700000J0D01*
G01*
X118190000Y-49200000D02*
G75*
G03*
X118890000Y-48500000I0J700000D01*
G01*
%LPC*%
D18*
X102232500Y-52110000D03*
X104307500Y-52110000D03*
D19*
X113362500Y-59410000D03*
X113362500Y-61310000D03*
X115237500Y-60360000D03*
D20*
X115420000Y-50320000D03*
X117070000Y-50320000D03*
D21*
X97470000Y-56990000D03*
X97470000Y-55090000D03*
D22*
X75550000Y-35390000D03*
D20*
X93325000Y-48500000D03*
X94975000Y-48500000D03*
D23*
X88895000Y-35610000D03*
X87345000Y-35610000D03*
D24*
X109204400Y-51750001D03*
X109204400Y-51250000D03*
X109204400Y-50750001D03*
X109204400Y-50249999D03*
X109204400Y-49750000D03*
X109204400Y-49250001D03*
X109204400Y-48750000D03*
X109204400Y-48250001D03*
X109204400Y-47749999D03*
X109204400Y-47250000D03*
X109204400Y-46750001D03*
X109204400Y-46250000D03*
X109204400Y-45750000D03*
X109204400Y-45249999D03*
X109204400Y-44750000D03*
X109204400Y-44250001D03*
X109204400Y-43749999D03*
X109204400Y-43250000D03*
X109204400Y-42749999D03*
X109204400Y-42250000D03*
X109204400Y-41750001D03*
X109204400Y-41249999D03*
X109204400Y-40750000D03*
X109204400Y-40250001D03*
D25*
X112354399Y-53400000D03*
X112354399Y-38600000D03*
D26*
X95375000Y-38250000D03*
X92377800Y-38250000D03*
D27*
X119120000Y-60140000D03*
D21*
X104325000Y-56425000D03*
X104325000Y-54525000D03*
D20*
X91200000Y-43575000D03*
X92850000Y-43575000D03*
D28*
X79305100Y-50299998D03*
X80105101Y-50299998D03*
X80905100Y-50299998D03*
X81705101Y-50299998D03*
X82505099Y-50299998D03*
X83305100Y-50299998D03*
X84105101Y-50299998D03*
X84905099Y-50299998D03*
X85705100Y-50299998D03*
X86505099Y-50299998D03*
X87305100Y-50299998D03*
D29*
X88205100Y-49200001D03*
X88205100Y-48400000D03*
X88205100Y-47599999D03*
X88205100Y-46800000D03*
X88205100Y-45999999D03*
X88205100Y-45200001D03*
X88205100Y-44400000D03*
X88205100Y-43599999D03*
X88205100Y-42800001D03*
X88205100Y-42000000D03*
X88205100Y-41200001D03*
X88205100Y-40400000D03*
X88205100Y-39600002D03*
D28*
X87305100Y-38500002D03*
X86505099Y-38500002D03*
X85705100Y-38500002D03*
X84905099Y-38500002D03*
X84105101Y-38500002D03*
X83305100Y-38500002D03*
X82505099Y-38500002D03*
X81705101Y-38500002D03*
X80905100Y-38500002D03*
X80105101Y-38500002D03*
X79305100Y-38500002D03*
D29*
X78405100Y-39599999D03*
X78405100Y-40400000D03*
X78405100Y-41200001D03*
X78405100Y-42000000D03*
X78405100Y-42800001D03*
X78405100Y-43599999D03*
X78405100Y-44400000D03*
X78405100Y-45200001D03*
X78405100Y-45999999D03*
X78405100Y-46800000D03*
X78405100Y-47599999D03*
X78405100Y-48400000D03*
X78405100Y-49199998D03*
D30*
X83305100Y-44400000D03*
D31*
X78355100Y-38450000D03*
X88255100Y-38450000D03*
X88255100Y-50350000D03*
X78355100Y-50350000D03*
D30*
X81330100Y-42425000D03*
X83305100Y-42425000D03*
X85280100Y-42425000D03*
X85280100Y-44400000D03*
X85280100Y-46375000D03*
X83305100Y-46375000D03*
X81330100Y-46375000D03*
X81330100Y-44400000D03*
D18*
X95887500Y-44375000D03*
X97962500Y-44375000D03*
D32*
X110800000Y-58180000D03*
X107500000Y-58180000D03*
D22*
X87350000Y-60950000D03*
D33*
X88620000Y-60950000D03*
D34*
X92547500Y-61390000D03*
X90672500Y-61390000D03*
D20*
X91200000Y-45100000D03*
X92850000Y-45100000D03*
D18*
X100937500Y-45125000D03*
X103012500Y-45125000D03*
D20*
X101950000Y-36675000D03*
X103600000Y-36675000D03*
D35*
X103050000Y-50112500D03*
X103050000Y-48037500D03*
D36*
X83970000Y-34980000D03*
X83970000Y-33710000D03*
X83970000Y-32440000D03*
X83970000Y-31170000D03*
X79020000Y-31170000D03*
X79020000Y-32440000D03*
X79020000Y-33710000D03*
X79020000Y-34980000D03*
D19*
X92762500Y-53600000D03*
X92762500Y-55500000D03*
X94637500Y-54550000D03*
D37*
X79400000Y-54235000D03*
X79400000Y-60015000D03*
D38*
X80845000Y-53875000D03*
X80845000Y-54675000D03*
D39*
X80845000Y-55875000D03*
X80845000Y-56875000D03*
X80845000Y-57375000D03*
X80845000Y-58375000D03*
D38*
X80845000Y-59575000D03*
X80845000Y-60375000D03*
X80845000Y-60375000D03*
X80845000Y-59575000D03*
D39*
X80845000Y-58875000D03*
X80845000Y-57875000D03*
X80845000Y-56375000D03*
X80845000Y-55375000D03*
D38*
X80845000Y-54675000D03*
X80845000Y-53875000D03*
D40*
X79930000Y-52805000D03*
D41*
X75750000Y-52805000D03*
D40*
X79930000Y-61445000D03*
D41*
X75750000Y-61445000D03*
D42*
X92306250Y-34287500D03*
X94406250Y-34287500D03*
D43*
X89212200Y-33415000D03*
X87027800Y-33415000D03*
D20*
X118740000Y-50320000D03*
X120390000Y-50320000D03*
D35*
X113630000Y-57577500D03*
X113630000Y-55502500D03*
D44*
X95525000Y-57060000D03*
X93875000Y-57060000D03*
D22*
X98200000Y-50960000D03*
D45*
X97000000Y-46287500D03*
X97000000Y-48362500D03*
D27*
X74400000Y-32000000D03*
D46*
X108510000Y-55790000D03*
X111810000Y-55790000D03*
D47*
X83450000Y-60550000D03*
X85350000Y-60550000D03*
D48*
X90725000Y-50650000D03*
X90725000Y-52300000D03*
D49*
X101750000Y-38150000D03*
X101750000Y-39450000D03*
X103750000Y-38800000D03*
D50*
X91575000Y-31670000D03*
X94650000Y-31670000D03*
D51*
X96360000Y-33285000D03*
X96360000Y-34835000D03*
D52*
X120017500Y-54610000D03*
X117942500Y-54610000D03*
D53*
X115850000Y-57720000D03*
X115850000Y-54420000D03*
D19*
X100287500Y-54525000D03*
X100287500Y-56425000D03*
X102162500Y-55475000D03*
D44*
X92875000Y-41525000D03*
X91225000Y-41525000D03*
D54*
X107201000Y-31080000D03*
X107201000Y-31579999D03*
X107201000Y-32080001D03*
X107201000Y-32580000D03*
X107201000Y-33080001D03*
X107201000Y-33580000D03*
D29*
X109714122Y-34580001D03*
X109714122Y-30079999D03*
D48*
X96375000Y-51975000D03*
X96375000Y-53625000D03*
D22*
X98200000Y-53000000D03*
D44*
X93850000Y-46925000D03*
X92200000Y-46925000D03*
D55*
X108960000Y-61130000D03*
X107135000Y-61130000D03*
D56*
X84100000Y-54537500D03*
X84100000Y-57612500D03*
D57*
X99510000Y-60440000D03*
X99510000Y-59240000D03*
D58*
X103285000Y-61590000D03*
X103285000Y-58090000D03*
D48*
X92370000Y-58130000D03*
X92370000Y-59780000D03*
D19*
X92762500Y-50100000D03*
X92762500Y-52000000D03*
X94637500Y-51050000D03*
D59*
X87500000Y-54400000D03*
D60*
X87200000Y-54900000D03*
X87200000Y-55400000D03*
X87200000Y-55900000D03*
X87200000Y-56400000D03*
D59*
X87500000Y-56900000D03*
D61*
X88000000Y-57200000D03*
X88500000Y-57200000D03*
X89000000Y-57200000D03*
X89500000Y-57200000D03*
D59*
X90000000Y-56900000D03*
D60*
X90300000Y-56400000D03*
X90300000Y-55900000D03*
X90300000Y-55400000D03*
X90300000Y-54900000D03*
D59*
X90000000Y-54400000D03*
D61*
X89500000Y-54100000D03*
X89000000Y-54100000D03*
X88500000Y-54100000D03*
X88000000Y-54100000D03*
D62*
X88750000Y-55650000D03*
D45*
X99250000Y-46987500D03*
X99250000Y-49062500D03*
D18*
X101087500Y-41100000D03*
X103162500Y-41100000D03*
D22*
X73330000Y-35390000D03*
D18*
X117932500Y-56700000D03*
X120007500Y-56700000D03*
X97187500Y-40000000D03*
X99262500Y-40000000D03*
D46*
X117010000Y-52340000D03*
X120310000Y-52340000D03*
D23*
X88895000Y-31220000D03*
X87345000Y-31220000D03*
D27*
X99400000Y-32000000D03*
D63*
X97080000Y-60990002D03*
X97080000Y-60040001D03*
X97080000Y-59090000D03*
X94362200Y-59090000D03*
X94362200Y-60040001D03*
X94362200Y-60990002D03*
D64*
X116840000Y-48200000D03*
D65*
X118140000Y-48200000D03*
M02*
