G04 #@! TF.GenerationSoftware,KiCad,Pcbnew,7.0.1-3b83917a11~172~ubuntu22.04.1*
G04 #@! TF.CreationDate,2023-04-18T13:12:10+02:00*
G04 #@! TF.ProjectId,154-watch,3135342d-7761-4746-9368-2e6b69636164,rev?*
G04 #@! TF.SameCoordinates,Original*
G04 #@! TF.FileFunction,Soldermask,Top*
G04 #@! TF.FilePolarity,Negative*
%FSLAX46Y46*%
G04 Gerber Fmt 4.6, Leading zero omitted, Abs format (unit mm)*
G04 Created by KiCad (PCBNEW 7.0.1-3b83917a11~172~ubuntu22.04.1) date 2023-04-18 13:12:10*
%MOMM*%
%LPD*%
G01*
G04 APERTURE LIST*
G04 Aperture macros list*
%AMRoundRect*
0 Rectangle with rounded corners*
0 $1 Rounding radius*
0 $2 $3 $4 $5 $6 $7 $8 $9 X,Y pos of 4 corners*
0 Add a 4 corners polygon primitive as box body*
4,1,4,$2,$3,$4,$5,$6,$7,$8,$9,$2,$3,0*
0 Add four circle primitives for the rounded corners*
1,1,$1+$1,$2,$3*
1,1,$1+$1,$4,$5*
1,1,$1+$1,$6,$7*
1,1,$1+$1,$8,$9*
0 Add four rect primitives between the rounded corners*
20,1,$1+$1,$2,$3,$4,$5,0*
20,1,$1+$1,$4,$5,$6,$7,0*
20,1,$1+$1,$6,$7,$8,$9,0*
20,1,$1+$1,$8,$9,$2,$3,0*%
%AMFreePoly0*
4,1,19,0.500000,-0.750000,0.000000,-0.750000,0.000000,-0.744911,-0.071157,-0.744911,-0.207708,-0.704816,-0.327430,-0.627875,-0.420627,-0.520320,-0.479746,-0.390866,-0.500000,-0.250000,-0.500000,0.250000,-0.479746,0.390866,-0.420627,0.520320,-0.327430,0.627875,-0.207708,0.704816,-0.071157,0.744911,0.000000,0.744911,0.000000,0.750000,0.500000,0.750000,0.500000,-0.750000,0.500000,-0.750000,
$1*%
%AMFreePoly1*
4,1,19,0.000000,0.744911,0.071157,0.744911,0.207708,0.704816,0.327430,0.627875,0.420627,0.520320,0.479746,0.390866,0.500000,0.250000,0.500000,-0.250000,0.479746,-0.390866,0.420627,-0.520320,0.327430,-0.627875,0.207708,-0.704816,0.071157,-0.744911,0.000000,-0.744911,0.000000,-0.750000,-0.500000,-0.750000,-0.500000,0.750000,0.000000,0.750000,0.000000,0.744911,0.000000,0.744911,
$1*%
G04 Aperture macros list end*
%ADD10RoundRect,0.250000X-0.337500X-0.475000X0.337500X-0.475000X0.337500X0.475000X-0.337500X0.475000X0*%
%ADD11RoundRect,0.150000X-0.587500X-0.150000X0.587500X-0.150000X0.587500X0.150000X-0.587500X0.150000X0*%
%ADD12RoundRect,0.200000X-0.200000X-0.275000X0.200000X-0.275000X0.200000X0.275000X-0.200000X0.275000X0*%
%ADD13RoundRect,0.250000X0.475000X-0.250000X0.475000X0.250000X-0.475000X0.250000X-0.475000X-0.250000X0*%
%ADD14R,1.000000X1.000000*%
%ADD15RoundRect,0.225000X0.225000X0.250000X-0.225000X0.250000X-0.225000X-0.250000X0.225000X-0.250000X0*%
%ADD16R,1.193800X0.304800*%
%ADD17R,2.006600X1.803400*%
%ADD18R,1.092200X3.708400*%
%ADD19C,2.100000*%
%ADD20R,0.406400X0.812800*%
%ADD21R,0.812800X0.406400*%
%ADD22R,1.447800X1.447800*%
%ADD23R,0.711200X0.711200*%
%ADD24RoundRect,0.225000X0.225000X0.375000X-0.225000X0.375000X-0.225000X-0.375000X0.225000X-0.375000X0*%
%ADD25O,1.000000X1.000000*%
%ADD26RoundRect,0.243750X0.243750X0.456250X-0.243750X0.456250X-0.243750X-0.456250X0.243750X-0.456250X0*%
%ADD27RoundRect,0.250000X0.475000X-0.337500X0.475000X0.337500X-0.475000X0.337500X-0.475000X-0.337500X0*%
%ADD28RoundRect,0.150000X0.825000X0.150000X-0.825000X0.150000X-0.825000X-0.150000X0.825000X-0.150000X0*%
%ADD29C,0.650000*%
%ADD30R,1.450000X0.600000*%
%ADD31R,1.450000X0.300000*%
%ADD32O,2.100000X1.000000*%
%ADD33O,1.600000X1.000000*%
%ADD34RoundRect,0.112500X-0.187500X-0.112500X0.187500X-0.112500X0.187500X0.112500X-0.187500X0.112500X0*%
%ADD35R,1.422400X1.295400*%
%ADD36RoundRect,0.200000X0.200000X0.275000X-0.200000X0.275000X-0.200000X-0.275000X0.200000X-0.275000X0*%
%ADD37RoundRect,0.250000X-0.475000X0.337500X-0.475000X-0.337500X0.475000X-0.337500X0.475000X0.337500X0*%
%ADD38RoundRect,0.225000X-0.225000X-0.375000X0.225000X-0.375000X0.225000X0.375000X-0.225000X0.375000X0*%
%ADD39RoundRect,0.250000X-0.250000X-0.475000X0.250000X-0.475000X0.250000X0.475000X-0.250000X0.475000X0*%
%ADD40RoundRect,0.200000X-0.275000X0.200000X-0.275000X-0.200000X0.275000X-0.200000X0.275000X0.200000X0*%
%ADD41R,0.700000X0.450000*%
%ADD42RoundRect,0.250000X-0.412500X-0.925000X0.412500X-0.925000X0.412500X0.925000X-0.412500X0.925000X0*%
%ADD43RoundRect,0.225000X-0.250000X0.225000X-0.250000X-0.225000X0.250000X-0.225000X0.250000X0.225000X0*%
%ADD44RoundRect,0.250000X0.337500X0.475000X-0.337500X0.475000X-0.337500X-0.475000X0.337500X-0.475000X0*%
%ADD45RoundRect,0.225000X0.375000X-0.225000X0.375000X0.225000X-0.375000X0.225000X-0.375000X-0.225000X0*%
%ADD46R,0.812800X0.304800*%
%ADD47RoundRect,0.250000X0.262500X0.450000X-0.262500X0.450000X-0.262500X-0.450000X0.262500X-0.450000X0*%
%ADD48RoundRect,0.250000X-0.925000X0.412500X-0.925000X-0.412500X0.925000X-0.412500X0.925000X0.412500X0*%
%ADD49RoundRect,0.150000X0.275000X-0.150000X0.275000X0.150000X-0.275000X0.150000X-0.275000X-0.150000X0*%
%ADD50RoundRect,0.175000X0.225000X-0.175000X0.225000X0.175000X-0.225000X0.175000X-0.225000X-0.175000X0*%
%ADD51R,0.300000X0.300000*%
%ADD52R,0.900000X0.300000*%
%ADD53R,0.300000X0.900000*%
%ADD54R,1.800000X1.800000*%
%ADD55R,0.990600X0.558800*%
%ADD56FreePoly0,0.000000*%
%ADD57FreePoly1,0.000000*%
G04 APERTURE END LIST*
D10*
X102232500Y-52110000D03*
X104307500Y-52110000D03*
D11*
X113362500Y-59410000D03*
X113362500Y-61310000D03*
X115237500Y-60360000D03*
D12*
X115420000Y-50320000D03*
X117070000Y-50320000D03*
D13*
X97470000Y-56990000D03*
X97470000Y-55090000D03*
D14*
X75550000Y-35390000D03*
D12*
X93325000Y-48500000D03*
X94975000Y-48500000D03*
D15*
X88895000Y-35610000D03*
X87345000Y-35610000D03*
D16*
X109204400Y-51750001D03*
X109204400Y-51250000D03*
X109204400Y-50750001D03*
X109204400Y-50249999D03*
X109204400Y-49750000D03*
X109204400Y-49250001D03*
X109204400Y-48750000D03*
X109204400Y-48250001D03*
X109204400Y-47749999D03*
X109204400Y-47250000D03*
X109204400Y-46750001D03*
X109204400Y-46250000D03*
X109204400Y-45750000D03*
X109204400Y-45249999D03*
X109204400Y-44750000D03*
X109204400Y-44250001D03*
X109204400Y-43749999D03*
X109204400Y-43250000D03*
X109204400Y-42749999D03*
X109204400Y-42250000D03*
X109204400Y-41750001D03*
X109204400Y-41249999D03*
X109204400Y-40750000D03*
X109204400Y-40250001D03*
D17*
X112354399Y-53400000D03*
X112354399Y-38600000D03*
D18*
X95375000Y-38250000D03*
X92377800Y-38250000D03*
D19*
X119120000Y-60140000D03*
D13*
X104325000Y-56425000D03*
X104325000Y-54525000D03*
D12*
X91200000Y-43575000D03*
X92850000Y-43575000D03*
D20*
X79305100Y-50299998D03*
X80105101Y-50299998D03*
X80905100Y-50299998D03*
X81705101Y-50299998D03*
X82505099Y-50299998D03*
X83305100Y-50299998D03*
X84105101Y-50299998D03*
X84905099Y-50299998D03*
X85705100Y-50299998D03*
X86505099Y-50299998D03*
X87305100Y-50299998D03*
D21*
X88205100Y-49200001D03*
X88205100Y-48400000D03*
X88205100Y-47599999D03*
X88205100Y-46800000D03*
X88205100Y-45999999D03*
X88205100Y-45200001D03*
X88205100Y-44400000D03*
X88205100Y-43599999D03*
X88205100Y-42800001D03*
X88205100Y-42000000D03*
X88205100Y-41200001D03*
X88205100Y-40400000D03*
X88205100Y-39600002D03*
D20*
X87305100Y-38500002D03*
X86505099Y-38500002D03*
X85705100Y-38500002D03*
X84905099Y-38500002D03*
X84105101Y-38500002D03*
X83305100Y-38500002D03*
X82505099Y-38500002D03*
X81705101Y-38500002D03*
X80905100Y-38500002D03*
X80105101Y-38500002D03*
X79305100Y-38500002D03*
D21*
X78405100Y-39599999D03*
X78405100Y-40400000D03*
X78405100Y-41200001D03*
X78405100Y-42000000D03*
X78405100Y-42800001D03*
X78405100Y-43599999D03*
X78405100Y-44400000D03*
X78405100Y-45200001D03*
X78405100Y-45999999D03*
X78405100Y-46800000D03*
X78405100Y-47599999D03*
X78405100Y-48400000D03*
X78405100Y-49199998D03*
D22*
X83305100Y-44400000D03*
D23*
X78355100Y-38450000D03*
X88255100Y-38450000D03*
X88255100Y-50350000D03*
X78355100Y-50350000D03*
D22*
X81330100Y-42425000D03*
X83305100Y-42425000D03*
X85280100Y-42425000D03*
X85280100Y-44400000D03*
X85280100Y-46375000D03*
X83305100Y-46375000D03*
X81330100Y-46375000D03*
X81330100Y-44400000D03*
D10*
X95887500Y-44375000D03*
X97962500Y-44375000D03*
D24*
X110800000Y-58180000D03*
X107500000Y-58180000D03*
D14*
X87350000Y-60950000D03*
D25*
X88620000Y-60950000D03*
D26*
X92547500Y-61390000D03*
X90672500Y-61390000D03*
D12*
X91200000Y-45100000D03*
X92850000Y-45100000D03*
D10*
X100937500Y-45125000D03*
X103012500Y-45125000D03*
D12*
X101950000Y-36675000D03*
X103600000Y-36675000D03*
D27*
X103050000Y-50112500D03*
X103050000Y-48037500D03*
D28*
X83970000Y-34980000D03*
X83970000Y-33710000D03*
X83970000Y-32440000D03*
X83970000Y-31170000D03*
X79020000Y-31170000D03*
X79020000Y-32440000D03*
X79020000Y-33710000D03*
X79020000Y-34980000D03*
D11*
X92762500Y-53600000D03*
X92762500Y-55500000D03*
X94637500Y-54550000D03*
D29*
X79400000Y-54235000D03*
X79400000Y-60015000D03*
D30*
X80845000Y-53875000D03*
X80845000Y-54675000D03*
D31*
X80845000Y-55875000D03*
X80845000Y-56875000D03*
X80845000Y-57375000D03*
X80845000Y-58375000D03*
D30*
X80845000Y-59575000D03*
X80845000Y-60375000D03*
X80845000Y-60375000D03*
X80845000Y-59575000D03*
D31*
X80845000Y-58875000D03*
X80845000Y-57875000D03*
X80845000Y-56375000D03*
X80845000Y-55375000D03*
D30*
X80845000Y-54675000D03*
X80845000Y-53875000D03*
D32*
X79930000Y-52805000D03*
D33*
X75750000Y-52805000D03*
D32*
X79930000Y-61445000D03*
D33*
X75750000Y-61445000D03*
D34*
X92306250Y-34287500D03*
X94406250Y-34287500D03*
D35*
X89212200Y-33415000D03*
X87027800Y-33415000D03*
D12*
X118740000Y-50320000D03*
X120390000Y-50320000D03*
D27*
X113630000Y-57577500D03*
X113630000Y-55502500D03*
D36*
X95525000Y-57060000D03*
X93875000Y-57060000D03*
D14*
X98200000Y-50960000D03*
D37*
X97000000Y-46287500D03*
X97000000Y-48362500D03*
D19*
X74400000Y-32000000D03*
D38*
X108510000Y-55790000D03*
X111810000Y-55790000D03*
D39*
X83450000Y-60550000D03*
X85350000Y-60550000D03*
D40*
X90725000Y-50650000D03*
X90725000Y-52300000D03*
D41*
X101750000Y-38150000D03*
X101750000Y-39450000D03*
X103750000Y-38800000D03*
D42*
X91575000Y-31670000D03*
X94650000Y-31670000D03*
D43*
X96360000Y-33285000D03*
X96360000Y-34835000D03*
D44*
X120017500Y-54610000D03*
X117942500Y-54610000D03*
D45*
X115850000Y-57720000D03*
X115850000Y-54420000D03*
D11*
X100287500Y-54525000D03*
X100287500Y-56425000D03*
X102162500Y-55475000D03*
D36*
X92875000Y-41525000D03*
X91225000Y-41525000D03*
D46*
X107201000Y-31080000D03*
X107201000Y-31579999D03*
X107201000Y-32080001D03*
X107201000Y-32580000D03*
X107201000Y-33080001D03*
X107201000Y-33580000D03*
D21*
X109714122Y-34580001D03*
X109714122Y-30079999D03*
D40*
X96375000Y-51975000D03*
X96375000Y-53625000D03*
D14*
X98200000Y-53000000D03*
D36*
X93850000Y-46925000D03*
X92200000Y-46925000D03*
D47*
X108960000Y-61130000D03*
X107135000Y-61130000D03*
D48*
X84100000Y-54537500D03*
X84100000Y-57612500D03*
D49*
X99510000Y-60440000D03*
X99510000Y-59240000D03*
D50*
X103285000Y-61590000D03*
X103285000Y-58090000D03*
D40*
X92370000Y-58130000D03*
X92370000Y-59780000D03*
D11*
X92762500Y-50100000D03*
X92762500Y-52000000D03*
X94637500Y-51050000D03*
D51*
X87500000Y-54400000D03*
D52*
X87200000Y-54900000D03*
X87200000Y-55400000D03*
X87200000Y-55900000D03*
X87200000Y-56400000D03*
D51*
X87500000Y-56900000D03*
D53*
X88000000Y-57200000D03*
X88500000Y-57200000D03*
X89000000Y-57200000D03*
X89500000Y-57200000D03*
D51*
X90000000Y-56900000D03*
D52*
X90300000Y-56400000D03*
X90300000Y-55900000D03*
X90300000Y-55400000D03*
X90300000Y-54900000D03*
D51*
X90000000Y-54400000D03*
D53*
X89500000Y-54100000D03*
X89000000Y-54100000D03*
X88500000Y-54100000D03*
X88000000Y-54100000D03*
D54*
X88750000Y-55650000D03*
D37*
X99250000Y-46987500D03*
X99250000Y-49062500D03*
D10*
X101087500Y-41100000D03*
X103162500Y-41100000D03*
D14*
X73330000Y-35390000D03*
D10*
X117932500Y-56700000D03*
X120007500Y-56700000D03*
X97187500Y-40000000D03*
X99262500Y-40000000D03*
D38*
X117010000Y-52340000D03*
X120310000Y-52340000D03*
D15*
X88895000Y-31220000D03*
X87345000Y-31220000D03*
D19*
X99400000Y-32000000D03*
D55*
X97080000Y-60990002D03*
X97080000Y-60040001D03*
X97080000Y-59090000D03*
X94362200Y-59090000D03*
X94362200Y-60040001D03*
X94362200Y-60990002D03*
D56*
X116840000Y-48200000D03*
D57*
X118140000Y-48200000D03*
M02*
