G04 #@! TF.GenerationSoftware,KiCad,Pcbnew,7.0.1-3b83917a11~172~ubuntu22.04.1*
G04 #@! TF.CreationDate,2023-04-18T13:12:10+02:00*
G04 #@! TF.ProjectId,154-watch,3135342d-7761-4746-9368-2e6b69636164,rev?*
G04 #@! TF.SameCoordinates,Original*
G04 #@! TF.FileFunction,Copper,L3,Inr*
G04 #@! TF.FilePolarity,Positive*
%FSLAX46Y46*%
G04 Gerber Fmt 4.6, Leading zero omitted, Abs format (unit mm)*
G04 Created by KiCad (PCBNEW 7.0.1-3b83917a11~172~ubuntu22.04.1) date 2023-04-18 13:12:10*
%MOMM*%
%LPD*%
G01*
G04 APERTURE LIST*
G04 #@! TA.AperFunction,ComponentPad*
%ADD10R,1.000000X1.000000*%
G04 #@! TD*
G04 #@! TA.AperFunction,ComponentPad*
%ADD11O,1.000000X1.000000*%
G04 #@! TD*
G04 #@! TA.AperFunction,ComponentPad*
%ADD12O,2.100000X1.000000*%
G04 #@! TD*
G04 #@! TA.AperFunction,ComponentPad*
%ADD13O,1.600000X1.000000*%
G04 #@! TD*
G04 #@! TA.AperFunction,ViaPad*
%ADD14C,0.500000*%
G04 #@! TD*
G04 #@! TA.AperFunction,ViaPad*
%ADD15C,0.600000*%
G04 #@! TD*
G04 #@! TA.AperFunction,ViaPad*
%ADD16C,0.450000*%
G04 #@! TD*
G04 #@! TA.AperFunction,Conductor*
%ADD17C,0.250000*%
G04 #@! TD*
G04 #@! TA.AperFunction,Conductor*
%ADD18C,0.300000*%
G04 #@! TD*
G04 APERTURE END LIST*
D10*
X87350000Y-60950000D03*
D11*
X88620000Y-60950000D03*
D12*
X79930000Y-52805000D03*
D13*
X75750000Y-52805000D03*
D12*
X79930000Y-61445000D03*
D13*
X75750000Y-61445000D03*
D14*
X110110000Y-61140000D03*
D15*
X81330100Y-46375000D03*
X85875000Y-57600000D03*
X89575000Y-38425000D03*
X82425000Y-61375000D03*
D14*
X111950000Y-57570000D03*
X103200000Y-54525000D03*
X104650000Y-36675000D03*
D15*
X85280100Y-46375000D03*
D14*
X90090000Y-31730000D03*
X82090000Y-31160000D03*
X118600000Y-52440000D03*
X100580000Y-60460000D03*
X99900000Y-44625000D03*
X104275000Y-50325000D03*
X110700000Y-43710000D03*
X110670000Y-48260000D03*
X98025000Y-41225000D03*
D16*
X95812500Y-31920000D03*
D14*
X119360000Y-48330000D03*
X94775000Y-44225000D03*
X99175000Y-54525000D03*
X105658781Y-30772500D03*
D15*
X81330100Y-42425000D03*
D16*
X89450000Y-50800000D03*
D14*
X90570000Y-35350000D03*
D15*
X79300000Y-58825000D03*
X79300000Y-55475000D03*
D14*
X105647122Y-56425000D03*
D15*
X83900000Y-52750000D03*
D16*
X90250000Y-46000000D03*
X104025000Y-44550000D03*
X103000000Y-43450000D03*
X90375000Y-42000000D03*
D14*
X105370500Y-38275000D03*
X115530000Y-43240000D03*
D16*
X105025000Y-43400000D03*
X85700000Y-36675000D03*
X90350000Y-42800000D03*
X104630000Y-43990000D03*
X104600000Y-42850000D03*
D14*
X91480000Y-35405500D03*
D16*
X104850000Y-44650000D03*
X90225000Y-48975000D03*
D14*
X104325000Y-41100000D03*
D16*
X106860000Y-41120000D03*
X105692967Y-55432338D03*
X109390000Y-58000000D03*
D14*
X82089500Y-32430000D03*
D16*
X86875000Y-48400000D03*
X90200000Y-43600000D03*
X76914500Y-35469001D03*
D14*
X102440000Y-33580000D03*
D16*
X76800000Y-37600000D03*
X90200000Y-45100000D03*
X103710000Y-33410000D03*
D14*
X103170000Y-31592000D03*
D16*
X90274999Y-41200001D03*
X79925000Y-44975000D03*
X84900000Y-49300000D03*
X98200000Y-54130000D03*
X94950000Y-55650000D03*
X89825000Y-52300000D03*
X90125000Y-40400000D03*
X96100000Y-54625000D03*
X87350000Y-59750000D03*
X83125000Y-51875000D03*
X88600000Y-59750000D03*
X84650000Y-51875000D03*
X73340000Y-34710000D03*
X82590000Y-41000000D03*
X88275000Y-52075000D03*
X79820000Y-36680000D03*
D14*
X82500000Y-39400000D03*
D16*
X89025000Y-52050000D03*
D17*
X92420000Y-43600000D02*
X102440000Y-33580000D01*
X90200000Y-43600000D02*
X92410000Y-43600000D01*
X92410000Y-43600000D02*
X92420000Y-43600000D01*
D18*
X90200000Y-45100000D02*
X92020000Y-45100000D01*
X92020000Y-45100000D02*
X103710000Y-33410000D01*
X103170000Y-31592000D02*
X93569999Y-41192001D01*
X93569999Y-41192001D02*
X93569999Y-41200001D01*
D17*
X93569999Y-41200001D02*
X90274999Y-41200001D01*
D18*
X83125000Y-53175000D02*
X85850000Y-55900000D01*
X85850000Y-55900000D02*
X87350000Y-57400000D01*
X87350000Y-57400000D02*
X87350000Y-59750000D01*
X83125000Y-51875000D02*
X83125000Y-53175000D01*
X84650000Y-51875000D02*
X88600000Y-55825000D01*
X88600000Y-55825000D02*
X88600000Y-59750000D01*
M02*
