%TF.GenerationSoftware,KiCad,Pcbnew,6.0.9-8da3e8f707~117~ubuntu20.04.1*%
%TF.CreationDate,2022-12-20T10:53:49+01:00*%
%TF.ProjectId,220AC-mini-C3-board,32323041-432d-46d6-996e-692d43332d62,rev?*%
%TF.SameCoordinates,Original*%
%TF.FileFunction,Copper,L1,Top*%
%TF.FilePolarity,Positive*%
%FSLAX46Y46*%
G04 Gerber Fmt 4.6, Leading zero omitted, Abs format (unit mm)*
G04 Created by KiCad (PCBNEW 6.0.9-8da3e8f707~117~ubuntu20.04.1) date 2022-12-20 10:53:49*
%MOMM*%
%LPD*%
G01*
G04 APERTURE LIST*
G04 Aperture macros list*
%AMRoundRect*
0 Rectangle with rounded corners*
0 $1 Rounding radius*
0 $2 $3 $4 $5 $6 $7 $8 $9 X,Y pos of 4 corners*
0 Add a 4 corners polygon primitive as box body*
4,1,4,$2,$3,$4,$5,$6,$7,$8,$9,$2,$3,0*
0 Add four circle primitives for the rounded corners*
1,1,$1+$1,$2,$3*
1,1,$1+$1,$4,$5*
1,1,$1+$1,$6,$7*
1,1,$1+$1,$8,$9*
0 Add four rect primitives between the rounded corners*
20,1,$1+$1,$2,$3,$4,$5,0*
20,1,$1+$1,$4,$5,$6,$7,0*
20,1,$1+$1,$6,$7,$8,$9,0*
20,1,$1+$1,$8,$9,$2,$3,0*%
G04 Aperture macros list end*
%TA.AperFunction,SMDPad,CuDef*%
%ADD10R,2.603500X2.895600*%
%TD*%
%TA.AperFunction,ComponentPad*%
%ADD11C,2.600000*%
%TD*%
%TA.AperFunction,SMDPad,CuDef*%
%ADD12RoundRect,0.249998X3.650002X4.550002X-3.650002X4.550002X-3.650002X-4.550002X3.650002X-4.550002X0*%
%TD*%
%TA.AperFunction,SMDPad,CuDef*%
%ADD13R,1.117600X2.311400*%
%TD*%
%TA.AperFunction,ComponentPad*%
%ADD14O,2.514600X1.905000*%
%TD*%
%TA.AperFunction,ComponentPad*%
%ADD15R,2.514600X1.905000*%
%TD*%
%TA.AperFunction,ComponentPad*%
%ADD16R,1.350000X1.350000*%
%TD*%
%TA.AperFunction,ComponentPad*%
%ADD17O,1.350000X1.350000*%
%TD*%
%TA.AperFunction,SMDPad,CuDef*%
%ADD18R,3.124200X2.057400*%
%TD*%
%TA.AperFunction,SMDPad,CuDef*%
%ADD19RoundRect,0.250000X-1.750000X-1.000000X1.750000X-1.000000X1.750000X1.000000X-1.750000X1.000000X0*%
%TD*%
%TA.AperFunction,SMDPad,CuDef*%
%ADD20RoundRect,0.250000X1.000000X-1.750000X1.000000X1.750000X-1.000000X1.750000X-1.000000X-1.750000X0*%
%TD*%
%TA.AperFunction,SMDPad,CuDef*%
%ADD21R,4.305300X7.594600*%
%TD*%
%TA.AperFunction,ViaPad*%
%ADD22C,1.000000*%
%TD*%
%TA.AperFunction,Conductor*%
%ADD23C,1.000000*%
%TD*%
G04 APERTURE END LIST*
D10*
%TO.P,R1,1*%
%TO.N,Net-(F1-Pad2)*%
X121748750Y-79800000D03*
%TO.P,R1,2*%
%TO.N,Net-(R1-Pad2)*%
X116351250Y-79800000D03*
%TD*%
D11*
%TO.P,J1,1,Pin_1*%
%TO.N,AC*%
X131150000Y-60050000D03*
%TD*%
D12*
%TO.P,C1,1*%
%TO.N,Net-(C1-Pad1)*%
X154007500Y-88350000D03*
%TO.P,C1,2*%
%TO.N,Net-(C1-Pad2)*%
X141507500Y-88350000D03*
%TD*%
D13*
%TO.P,CY1,1*%
%TO.N,GND*%
X133202100Y-81100000D03*
%TO.P,CY1,2*%
%TO.N,Net-(C1-Pad2)*%
X137697900Y-81100000D03*
%TD*%
D14*
%TO.P,U1,6,+VO*%
%TO.N,Net-(C2-Pad1)*%
X127500002Y-71550000D03*
%TO.P,U1,5,-VO*%
%TO.N,GND*%
X131500001Y-71550000D03*
%TO.P,U1,4,-VCAP*%
%TO.N,Net-(C1-Pad2)*%
X139500000Y-71550000D03*
%TO.P,U1,3,+VCAP*%
%TO.N,Net-(C1-Pad1)*%
X143500000Y-71550000D03*
%TO.P,U1,2,ACN*%
%TO.N,/AC (N)*%
X147500000Y-71550000D03*
D15*
%TO.P,U1,1,ACL*%
%TO.N,Net-(R1-Pad2)*%
X151499999Y-71550000D03*
%TD*%
D16*
%TO.P,J3,1,Pin_1*%
%TO.N,GND*%
X156200000Y-103350000D03*
D17*
%TO.P,J3,2,Pin_2*%
%TO.N,+3V3*%
X156200000Y-105350000D03*
%TD*%
D18*
%TO.P,F1,1*%
%TO.N,AC*%
X119050000Y-64731200D03*
%TO.P,F1,2*%
%TO.N,Net-(F1-Pad2)*%
X119050000Y-73468800D03*
%TD*%
D11*
%TO.P,J2,1,Pin_1*%
%TO.N,/AC (N)*%
X139950000Y-60050000D03*
%TD*%
D19*
%TO.P,C2,1*%
%TO.N,Net-(C2-Pad1)*%
X120750000Y-89100000D03*
%TO.P,C2,2*%
%TO.N,GND*%
X128750000Y-89100000D03*
%TD*%
D20*
%TO.P,C3,1*%
%TO.N,+3V3*%
X137100000Y-106850000D03*
%TO.P,C3,2*%
%TO.N,GND*%
X137100000Y-98850000D03*
%TD*%
D21*
%TO.P,L1,1,1*%
%TO.N,Net-(C2-Pad1)*%
X119553450Y-101850000D03*
%TO.P,L1,2,2*%
%TO.N,+3V3*%
X127846550Y-101850000D03*
%TD*%
D22*
%TO.N,Net-(R1-Pad2)*%
X151500000Y-76050000D03*
X117350000Y-85250000D03*
%TD*%
D23*
%TO.N,+3V3*%
X156200000Y-105350000D02*
X155400000Y-105350000D01*
X155400000Y-105350000D02*
X153900000Y-106850000D01*
X153900000Y-106850000D02*
X137100000Y-106850000D01*
%TO.N,GND*%
X140350000Y-98850000D02*
X144850000Y-103350000D01*
X144850000Y-103350000D02*
X156200000Y-103350000D01*
%TO.N,Net-(R1-Pad2)*%
X151500000Y-76050000D02*
X151499999Y-71550000D01*
%TO.N,/AC (N)*%
X139950000Y-60050000D02*
X143050000Y-60050000D01*
X143050000Y-60050000D02*
X147500000Y-64500000D01*
X147500000Y-64500000D02*
X147500000Y-71550000D01*
%TO.N,Net-(C1-Pad1)*%
X146100000Y-79300000D02*
X152000000Y-79300000D01*
X143500000Y-71550000D02*
X143500000Y-76700000D01*
X143500000Y-76700000D02*
X146100000Y-79300000D01*
X154007500Y-81307500D02*
X154007500Y-88350000D01*
X152000000Y-79300000D02*
X154007500Y-81307500D01*
%TO.N,Net-(C1-Pad2)*%
X137697900Y-81100000D02*
X139050000Y-81100000D01*
X139050000Y-81100000D02*
X141507500Y-83557500D01*
X141507500Y-83557500D02*
X141507500Y-88350000D01*
X139500000Y-71550000D02*
X140300000Y-72350000D01*
X140300000Y-72350000D02*
X140300000Y-78497900D01*
X140300000Y-78497900D02*
X137697900Y-81100000D01*
%TO.N,GND*%
X129450000Y-83250000D02*
X131650000Y-81050000D01*
X128750000Y-83250000D02*
X128750000Y-80750000D01*
X128750000Y-89100000D02*
X128750000Y-83250000D01*
X128750000Y-83250000D02*
X129450000Y-83250000D01*
X131650000Y-81050000D02*
X133152100Y-81050000D01*
X133152100Y-81050000D02*
X133202100Y-81100000D01*
X137100000Y-98850000D02*
X128750000Y-90500000D01*
X128750000Y-90500000D02*
X128750000Y-89100000D01*
X128750000Y-80750000D02*
X130300000Y-79200000D01*
X130300000Y-79200000D02*
X130300000Y-72750001D01*
X130300000Y-72750001D02*
X131500001Y-71550000D01*
%TO.N,Net-(C2-Pad1)*%
X127500002Y-71550000D02*
X127500002Y-78849998D01*
X127500002Y-78849998D02*
X120900000Y-85450000D01*
X120900000Y-85450000D02*
X120900000Y-93600000D01*
X120900000Y-93600000D02*
X119553450Y-94946550D01*
X119553450Y-94946550D02*
X119553450Y-101850000D01*
%TO.N,GND*%
X137100000Y-98850000D02*
X140350000Y-98850000D01*
%TO.N,+3V3*%
X127846550Y-101850000D02*
X127846550Y-103396550D01*
X127846550Y-103396550D02*
X131300000Y-106850000D01*
X131300000Y-106850000D02*
X137100000Y-106850000D01*
%TO.N,AC*%
X131150000Y-60050000D02*
X122000000Y-60050000D01*
X122000000Y-60050000D02*
X119050000Y-63000000D01*
X119050000Y-63000000D02*
X119050000Y-64731200D01*
%TO.N,Net-(F1-Pad2)*%
X119050000Y-73468800D02*
X121118800Y-73468800D01*
X121118800Y-73468800D02*
X121748750Y-74098750D01*
X121748750Y-74098750D02*
X121748750Y-79800000D01*
%TO.N,Net-(R1-Pad2)*%
X116351250Y-84251250D02*
X117350000Y-85250000D01*
X116351250Y-79800000D02*
X116351250Y-84251250D01*
%TD*%
M02*
