G04 #@! TF.GenerationSoftware,KiCad,Pcbnew,6.0.10-86aedd382b~118~ubuntu20.04.1*
G04 #@! TF.CreationDate,2023-01-02T08:46:21+01:00*
G04 #@! TF.ProjectId,C3-27-epaper-touch,43332d32-372d-4657-9061-7065722d746f,rev?*
G04 #@! TF.SameCoordinates,Original*
G04 #@! TF.FileFunction,Copper,L1,Top*
G04 #@! TF.FilePolarity,Positive*
%FSLAX46Y46*%
G04 Gerber Fmt 4.6, Leading zero omitted, Abs format (unit mm)*
G04 Created by KiCad (PCBNEW 6.0.10-86aedd382b~118~ubuntu20.04.1) date 2023-01-02 08:46:21*
%MOMM*%
%LPD*%
G01*
G04 APERTURE LIST*
G04 Aperture macros list*
%AMRoundRect*
0 Rectangle with rounded corners*
0 $1 Rounding radius*
0 $2 $3 $4 $5 $6 $7 $8 $9 X,Y pos of 4 corners*
0 Add a 4 corners polygon primitive as box body*
4,1,4,$2,$3,$4,$5,$6,$7,$8,$9,$2,$3,0*
0 Add four circle primitives for the rounded corners*
1,1,$1+$1,$2,$3*
1,1,$1+$1,$4,$5*
1,1,$1+$1,$6,$7*
1,1,$1+$1,$8,$9*
0 Add four rect primitives between the rounded corners*
20,1,$1+$1,$2,$3,$4,$5,0*
20,1,$1+$1,$4,$5,$6,$7,0*
20,1,$1+$1,$6,$7,$8,$9,0*
20,1,$1+$1,$8,$9,$2,$3,0*%
G04 Aperture macros list end*
G04 #@! TA.AperFunction,SMDPad,CuDef*
%ADD10C,1.000000*%
G04 #@! TD*
G04 #@! TA.AperFunction,SMDPad,CuDef*
%ADD11C,1.500000*%
G04 #@! TD*
G04 #@! TA.AperFunction,SMDPad,CuDef*
%ADD12RoundRect,0.250000X-0.337500X-0.475000X0.337500X-0.475000X0.337500X0.475000X-0.337500X0.475000X0*%
G04 #@! TD*
G04 #@! TA.AperFunction,SMDPad,CuDef*
%ADD13R,1.498600X0.889000*%
G04 #@! TD*
G04 #@! TA.AperFunction,SMDPad,CuDef*
%ADD14R,0.711200X0.711200*%
G04 #@! TD*
G04 #@! TA.AperFunction,SMDPad,CuDef*
%ADD15RoundRect,0.150000X0.587500X0.150000X-0.587500X0.150000X-0.587500X-0.150000X0.587500X-0.150000X0*%
G04 #@! TD*
G04 #@! TA.AperFunction,SMDPad,CuDef*
%ADD16RoundRect,0.250000X0.475000X-0.337500X0.475000X0.337500X-0.475000X0.337500X-0.475000X-0.337500X0*%
G04 #@! TD*
G04 #@! TA.AperFunction,SMDPad,CuDef*
%ADD17RoundRect,0.250000X0.337500X0.475000X-0.337500X0.475000X-0.337500X-0.475000X0.337500X-0.475000X0*%
G04 #@! TD*
G04 #@! TA.AperFunction,SMDPad,CuDef*
%ADD18R,0.600000X1.450000*%
G04 #@! TD*
G04 #@! TA.AperFunction,SMDPad,CuDef*
%ADD19R,0.300000X1.450000*%
G04 #@! TD*
G04 #@! TA.AperFunction,ComponentPad*
%ADD20O,1.000000X2.100000*%
G04 #@! TD*
G04 #@! TA.AperFunction,ComponentPad*
%ADD21O,1.000000X1.600000*%
G04 #@! TD*
G04 #@! TA.AperFunction,SMDPad,CuDef*
%ADD22RoundRect,0.150000X-0.150000X0.587500X-0.150000X-0.587500X0.150000X-0.587500X0.150000X0.587500X0*%
G04 #@! TD*
G04 #@! TA.AperFunction,SMDPad,CuDef*
%ADD23RoundRect,0.200000X-0.200000X-0.275000X0.200000X-0.275000X0.200000X0.275000X-0.200000X0.275000X0*%
G04 #@! TD*
G04 #@! TA.AperFunction,SMDPad,CuDef*
%ADD24RoundRect,0.200000X-0.275000X0.200000X-0.275000X-0.200000X0.275000X-0.200000X0.275000X0.200000X0*%
G04 #@! TD*
G04 #@! TA.AperFunction,SMDPad,CuDef*
%ADD25RoundRect,0.200000X0.275000X-0.200000X0.275000X0.200000X-0.275000X0.200000X-0.275000X-0.200000X0*%
G04 #@! TD*
G04 #@! TA.AperFunction,SMDPad,CuDef*
%ADD26RoundRect,0.250000X-0.475000X0.250000X-0.475000X-0.250000X0.475000X-0.250000X0.475000X0.250000X0*%
G04 #@! TD*
G04 #@! TA.AperFunction,SMDPad,CuDef*
%ADD27R,0.304800X1.193800*%
G04 #@! TD*
G04 #@! TA.AperFunction,SMDPad,CuDef*
%ADD28R,1.803400X2.006600*%
G04 #@! TD*
G04 #@! TA.AperFunction,SMDPad,CuDef*
%ADD29R,0.900000X1.200000*%
G04 #@! TD*
G04 #@! TA.AperFunction,SMDPad,CuDef*
%ADD30RoundRect,0.250000X0.250000X0.475000X-0.250000X0.475000X-0.250000X-0.475000X0.250000X-0.475000X0*%
G04 #@! TD*
G04 #@! TA.AperFunction,SMDPad,CuDef*
%ADD31RoundRect,0.200000X0.200000X0.275000X-0.200000X0.275000X-0.200000X-0.275000X0.200000X-0.275000X0*%
G04 #@! TD*
G04 #@! TA.AperFunction,SMDPad,CuDef*
%ADD32RoundRect,0.250000X0.412500X0.925000X-0.412500X0.925000X-0.412500X-0.925000X0.412500X-0.925000X0*%
G04 #@! TD*
G04 #@! TA.AperFunction,SMDPad,CuDef*
%ADD33R,0.304800X0.812800*%
G04 #@! TD*
G04 #@! TA.AperFunction,SMDPad,CuDef*
%ADD34R,0.406400X0.812800*%
G04 #@! TD*
G04 #@! TA.AperFunction,SMDPad,CuDef*
%ADD35RoundRect,0.250000X-0.475000X0.337500X-0.475000X-0.337500X0.475000X-0.337500X0.475000X0.337500X0*%
G04 #@! TD*
G04 #@! TA.AperFunction,ComponentPad*
%ADD36R,1.700000X1.700000*%
G04 #@! TD*
G04 #@! TA.AperFunction,ComponentPad*
%ADD37O,1.700000X1.700000*%
G04 #@! TD*
G04 #@! TA.AperFunction,SMDPad,CuDef*
%ADD38RoundRect,0.062500X0.062500X-0.350000X0.062500X0.350000X-0.062500X0.350000X-0.062500X-0.350000X0*%
G04 #@! TD*
G04 #@! TA.AperFunction,SMDPad,CuDef*
%ADD39RoundRect,0.062500X0.350000X-0.062500X0.350000X0.062500X-0.350000X0.062500X-0.350000X-0.062500X0*%
G04 #@! TD*
G04 #@! TA.AperFunction,SMDPad,CuDef*
%ADD40R,2.600000X2.600000*%
G04 #@! TD*
G04 #@! TA.AperFunction,SMDPad,CuDef*
%ADD41R,0.700000X0.450000*%
G04 #@! TD*
G04 #@! TA.AperFunction,SMDPad,CuDef*
%ADD42RoundRect,0.225000X-0.225000X-0.250000X0.225000X-0.250000X0.225000X0.250000X-0.225000X0.250000X0*%
G04 #@! TD*
G04 #@! TA.AperFunction,SMDPad,CuDef*
%ADD43R,3.708400X1.092200*%
G04 #@! TD*
G04 #@! TA.AperFunction,ViaPad*
%ADD44C,0.500000*%
G04 #@! TD*
G04 #@! TA.AperFunction,ViaPad*
%ADD45C,0.800000*%
G04 #@! TD*
G04 #@! TA.AperFunction,ViaPad*
%ADD46C,1.000000*%
G04 #@! TD*
G04 #@! TA.AperFunction,Conductor*
%ADD47C,0.250000*%
G04 #@! TD*
G04 #@! TA.AperFunction,Conductor*
%ADD48C,0.400000*%
G04 #@! TD*
G04 #@! TA.AperFunction,Conductor*
%ADD49C,1.000000*%
G04 #@! TD*
G04 #@! TA.AperFunction,Conductor*
%ADD50C,0.500000*%
G04 #@! TD*
G04 APERTURE END LIST*
D10*
X128700000Y-105950000D03*
D11*
X156550000Y-82300000D03*
D12*
X133475000Y-83050000D03*
X135550000Y-83050000D03*
D13*
X151264000Y-117655087D03*
X151264000Y-116155087D03*
X151264000Y-114655085D03*
X151264000Y-113155086D03*
X151264000Y-111655086D03*
X151264000Y-110155087D03*
X151264000Y-108655087D03*
X151264000Y-107155085D03*
X151264000Y-105655085D03*
X133764000Y-105655085D03*
X133764000Y-107155085D03*
X133764000Y-108655087D03*
X133764000Y-110155087D03*
X133764000Y-111655086D03*
X133764000Y-113155086D03*
X133764000Y-114655085D03*
X133764000Y-116155087D03*
X133764000Y-117655087D03*
D14*
X142658198Y-112555110D03*
X141558198Y-112555110D03*
X140458198Y-112555110D03*
X142658300Y-111455112D03*
X141558300Y-111455112D03*
X140458299Y-111455112D03*
X142658198Y-110355114D03*
X141558198Y-110355114D03*
X140458198Y-110355114D03*
D15*
X155587500Y-120800000D03*
X155587500Y-118900000D03*
X153712500Y-119850000D03*
D16*
X149300000Y-87137500D03*
X149300000Y-85062500D03*
D17*
X152137500Y-96000000D03*
X150062500Y-96000000D03*
D18*
X121550000Y-116705000D03*
X122350000Y-116705000D03*
D19*
X123550000Y-116705000D03*
X124550000Y-116705000D03*
X125050000Y-116705000D03*
X126050000Y-116705000D03*
D18*
X127250000Y-116705000D03*
X128050000Y-116705000D03*
X128050000Y-116705000D03*
X127250000Y-116705000D03*
D19*
X126550000Y-116705000D03*
X125550000Y-116705000D03*
X124050000Y-116705000D03*
X123050000Y-116705000D03*
D18*
X122350000Y-116705000D03*
X121550000Y-116705000D03*
D20*
X129120000Y-117620000D03*
D21*
X129120000Y-121800000D03*
X120480000Y-121800000D03*
D20*
X120480000Y-117620000D03*
D22*
X122650000Y-112125000D03*
X120750000Y-112125000D03*
X121700000Y-114000000D03*
D12*
X155550000Y-88500000D03*
X157625000Y-88500000D03*
D17*
X155787500Y-85650000D03*
X153712500Y-85650000D03*
D12*
X140775000Y-91750000D03*
X142850000Y-91750000D03*
D23*
X137675000Y-89550000D03*
X139325000Y-89550000D03*
D24*
X157800000Y-119075000D03*
X157800000Y-120725000D03*
D12*
X133750000Y-78550000D03*
X135825000Y-78550000D03*
D25*
X131700000Y-115400000D03*
X131700000Y-113750000D03*
D26*
X131400000Y-119450000D03*
X131400000Y-121350000D03*
D27*
X152100001Y-80195600D03*
X151600000Y-80195600D03*
X151100001Y-80195600D03*
X150599999Y-80195600D03*
X150100000Y-80195600D03*
X149600001Y-80195600D03*
X149100000Y-80195600D03*
X148600001Y-80195600D03*
X148099999Y-80195600D03*
X147600000Y-80195600D03*
X147100001Y-80195600D03*
X146600000Y-80195600D03*
X146100000Y-80195600D03*
X145599999Y-80195600D03*
X145100000Y-80195600D03*
X144600001Y-80195600D03*
X144099999Y-80195600D03*
X143600000Y-80195600D03*
X143099999Y-80195600D03*
X142600000Y-80195600D03*
X142100001Y-80195600D03*
X141599999Y-80195600D03*
X141100000Y-80195600D03*
X140600001Y-80195600D03*
D28*
X153750000Y-77045601D03*
X138950000Y-77045601D03*
D11*
X128750000Y-101400000D03*
D17*
X153737500Y-88500000D03*
X151662500Y-88500000D03*
D23*
X126675000Y-114100000D03*
X128325000Y-114100000D03*
D22*
X131700000Y-110025000D03*
X129800000Y-110025000D03*
X130750000Y-111900000D03*
D29*
X154850000Y-90850000D03*
X151550000Y-90850000D03*
D26*
X117850000Y-115950000D03*
X117850000Y-117850000D03*
D30*
X119750000Y-96900000D03*
X117850000Y-96900000D03*
D31*
X119650000Y-94200000D03*
X118000000Y-94200000D03*
D32*
X118737500Y-113550000D03*
X115662500Y-113550000D03*
D31*
X135725000Y-85850000D03*
X134075000Y-85850000D03*
D33*
X118150000Y-90439000D03*
X118649999Y-90439000D03*
X119150001Y-90439000D03*
X119650000Y-90439000D03*
X120150001Y-90439000D03*
X120650000Y-90439000D03*
D34*
X121650001Y-87925878D03*
X117149999Y-87925878D03*
D25*
X153450000Y-115525000D03*
X153450000Y-113875000D03*
D24*
X117650000Y-119925000D03*
X117650000Y-121575000D03*
D16*
X142600000Y-86237500D03*
X142600000Y-84162500D03*
D29*
X150000000Y-93450000D03*
X153300000Y-93450000D03*
D35*
X116800000Y-103862500D03*
X116800000Y-105937500D03*
D36*
X157650000Y-102350000D03*
D37*
X157650000Y-104890000D03*
X157650000Y-107430000D03*
X157650000Y-109970000D03*
X157650000Y-112510000D03*
X157650000Y-115050000D03*
D38*
X123650000Y-110037500D03*
X124150000Y-110037500D03*
X124650000Y-110037500D03*
X125150000Y-110037500D03*
X125650000Y-110037500D03*
X126150000Y-110037500D03*
D39*
X126837500Y-109350000D03*
X126837500Y-108850000D03*
X126837500Y-108350000D03*
X126837500Y-107850000D03*
X126837500Y-107350000D03*
X126837500Y-106850000D03*
D38*
X126150000Y-106162500D03*
X125650000Y-106162500D03*
X125150000Y-106162500D03*
X124650000Y-106162500D03*
X124150000Y-106162500D03*
X123650000Y-106162500D03*
D39*
X122962500Y-106850000D03*
X122962500Y-107350000D03*
X122962500Y-107850000D03*
X122962500Y-108350000D03*
X122962500Y-108850000D03*
X122962500Y-109350000D03*
D40*
X124900000Y-108100000D03*
D41*
X137650000Y-85850000D03*
X137650000Y-87150000D03*
X139650000Y-86500000D03*
D42*
X151850000Y-99050000D03*
X153400000Y-99050000D03*
D25*
X155000000Y-116675000D03*
X155000000Y-115025000D03*
D43*
X156650000Y-96551400D03*
X156650000Y-99548600D03*
D29*
X158200000Y-93950000D03*
X154900000Y-93950000D03*
D16*
X151550000Y-86037500D03*
X151550000Y-83962500D03*
D24*
X158950000Y-122355000D03*
X158950000Y-124005000D03*
D44*
X143250000Y-109150000D03*
X123900000Y-112100000D03*
X149150000Y-92100000D03*
X149300000Y-88300000D03*
X148250000Y-78850000D03*
X151000000Y-87150000D03*
D45*
X148600000Y-103900000D03*
D44*
X132350000Y-83050000D03*
X124050000Y-108100000D03*
X133000000Y-86350000D03*
X117900000Y-92100000D03*
X132350000Y-79000000D03*
X155000000Y-87050000D03*
X117500000Y-98350000D03*
X118350000Y-104700000D03*
X127300000Y-101400000D03*
X142600000Y-87250000D03*
X115300000Y-111650000D03*
X115350000Y-115450000D03*
X144400000Y-78850000D03*
X152150000Y-97400000D03*
X139350000Y-90750000D03*
D46*
X117500000Y-123800000D03*
D44*
X155100000Y-117950000D03*
X123900000Y-114750000D03*
X129050000Y-113100000D03*
X148000000Y-99600000D03*
X144000000Y-96700000D03*
X148150000Y-117300000D03*
X121050000Y-102300000D03*
X125900000Y-115200000D03*
X124500000Y-114050000D03*
D45*
X137800000Y-116250000D03*
X155400000Y-113750000D03*
X136250000Y-116150000D03*
X154650000Y-112200000D03*
X153200000Y-111700000D03*
X136300000Y-114650000D03*
X136250000Y-113150000D03*
X153200000Y-110100000D03*
D44*
X143650000Y-94400000D03*
X153800000Y-96650000D03*
X143550000Y-98500000D03*
X147475000Y-109075000D03*
X123450000Y-117850000D03*
X119150000Y-118900000D03*
X121250000Y-106700000D03*
X132200000Y-116700000D03*
X153325000Y-118925000D03*
X129000000Y-108950000D03*
X121800000Y-108850000D03*
X157250000Y-117600000D03*
X121800000Y-102450000D03*
X147350000Y-116900000D03*
D47*
X124150000Y-108850000D02*
X124900000Y-108100000D01*
X133500000Y-85850000D02*
X133000000Y-86350000D01*
X139325000Y-89550000D02*
X139325000Y-90725000D01*
D48*
X155787500Y-86262500D02*
X155787500Y-85650000D01*
D49*
X130950000Y-121800000D02*
X129120000Y-121800000D01*
D47*
X116800000Y-103862500D02*
X117512500Y-103862500D01*
D48*
X151850000Y-99050000D02*
X151850000Y-97700000D01*
D50*
X128050000Y-116705000D02*
X128945000Y-116705000D01*
X128750000Y-101400000D02*
X127300000Y-101400000D01*
D47*
X148600000Y-105050000D02*
X148600000Y-103900000D01*
D50*
X128325000Y-115175000D02*
X128325000Y-114100000D01*
D47*
X133475000Y-83050000D02*
X132350000Y-83050000D01*
X118150000Y-90439000D02*
X118150000Y-91850000D01*
X142600000Y-86237500D02*
X142600000Y-87250000D01*
D50*
X115662500Y-112012500D02*
X115300000Y-111650000D01*
D48*
X152150000Y-96012500D02*
X152137500Y-96000000D01*
D47*
X117512500Y-103862500D02*
X118350000Y-104700000D01*
X142658198Y-109741802D02*
X143250000Y-109150000D01*
X139325000Y-90725000D02*
X139350000Y-90750000D01*
D50*
X129120000Y-116880000D02*
X129120000Y-117620000D01*
D47*
X123900000Y-112100000D02*
X122675000Y-112100000D01*
X140500000Y-110350000D02*
X140500000Y-112550000D01*
X148600001Y-79200001D02*
X148250000Y-78850000D01*
D48*
X150000000Y-93450000D02*
X149150000Y-92600000D01*
D50*
X128945000Y-116705000D02*
X129120000Y-116880000D01*
D47*
X151550000Y-86037500D02*
X151550000Y-86600000D01*
X122675000Y-112100000D02*
X122650000Y-112125000D01*
X149205085Y-105655085D02*
X148600000Y-105050000D01*
X140500000Y-112550000D02*
X142653088Y-112550000D01*
D50*
X115662500Y-113550000D02*
X115662500Y-112012500D01*
D47*
X117850000Y-96900000D02*
X117850000Y-98000000D01*
X124150000Y-110037500D02*
X124150000Y-111850000D01*
D48*
X153737500Y-88312500D02*
X154850000Y-87200000D01*
X154850000Y-87200000D02*
X155787500Y-86262500D01*
D47*
X124150000Y-110037500D02*
X124150000Y-108850000D01*
D48*
X152137500Y-96000000D02*
X152137500Y-94887500D01*
X152150000Y-97400000D02*
X152150000Y-96012500D01*
D50*
X128050000Y-115450000D02*
X128325000Y-115175000D01*
D47*
X140350000Y-91750000D02*
X139350000Y-90750000D01*
D50*
X121550000Y-116705000D02*
X120655000Y-116705000D01*
X120655000Y-116705000D02*
X120480000Y-116880000D01*
D49*
X131400000Y-121350000D02*
X130950000Y-121800000D01*
D47*
X151550000Y-86600000D02*
X151000000Y-87150000D01*
D50*
X115662500Y-115137500D02*
X115350000Y-115450000D01*
X120480000Y-117620000D02*
X118080000Y-117620000D01*
D47*
X134075000Y-85850000D02*
X133500000Y-85850000D01*
X142653084Y-112550000D02*
X140458198Y-110355114D01*
D50*
X115662500Y-113550000D02*
X115662500Y-115137500D01*
D47*
X117850000Y-98000000D02*
X117500000Y-98350000D01*
X142653088Y-112550000D02*
X142658198Y-112555110D01*
D48*
X153737500Y-88500000D02*
X153737500Y-88312500D01*
D47*
X140775000Y-91750000D02*
X140350000Y-91750000D01*
X142658198Y-110355114D02*
X142658198Y-109741802D01*
D50*
X120480000Y-116880000D02*
X120480000Y-117620000D01*
D47*
X142700000Y-110350000D02*
X140500000Y-110350000D01*
X118150000Y-91850000D02*
X117900000Y-92100000D01*
X148600001Y-80195600D02*
X148600001Y-79200001D01*
D49*
X117875000Y-121800000D02*
X117650000Y-121575000D01*
D47*
X144099999Y-79150001D02*
X144400000Y-78850000D01*
X149300000Y-87137500D02*
X149300000Y-88300000D01*
D48*
X151850000Y-97700000D02*
X152150000Y-97400000D01*
D50*
X118080000Y-117620000D02*
X117850000Y-117850000D01*
D47*
X151264000Y-105655085D02*
X149205085Y-105655085D01*
D48*
X152137500Y-94887500D02*
X150700000Y-93450000D01*
X149150000Y-92600000D02*
X149150000Y-92100000D01*
D50*
X128050000Y-116705000D02*
X128050000Y-115450000D01*
D47*
X142658300Y-111455112D02*
X140458299Y-111455112D01*
D48*
X150700000Y-93450000D02*
X150000000Y-93450000D01*
D47*
X132800000Y-78550000D02*
X132350000Y-79000000D01*
X124150000Y-111850000D02*
X123900000Y-112100000D01*
X133750000Y-78550000D02*
X132800000Y-78550000D01*
X144099999Y-80195600D02*
X144099999Y-79150001D01*
X142658198Y-112555110D02*
X142658198Y-110355114D01*
D49*
X120480000Y-121800000D02*
X117875000Y-121800000D01*
D50*
X153101400Y-99548600D02*
X156650000Y-99548600D01*
X120750000Y-113050000D02*
X120750000Y-112125000D01*
X116400000Y-122700000D02*
X116400000Y-115350000D01*
D48*
X154019913Y-117655087D02*
X155000000Y-116675000D01*
X159550000Y-121755000D02*
X158950000Y-122355000D01*
X153450000Y-116450000D02*
X153450000Y-115525000D01*
D50*
X155100000Y-117950000D02*
X155000000Y-117850000D01*
X116400000Y-115350000D02*
X118200000Y-113550000D01*
X155000000Y-117850000D02*
X155000000Y-116675000D01*
X147850000Y-96900000D02*
X147850000Y-82000000D01*
D47*
X119650000Y-89750000D02*
X119650000Y-90439000D01*
D50*
X118300000Y-113450000D02*
X118737500Y-113450000D01*
D47*
X116450000Y-89400000D02*
X116050000Y-89800000D01*
X119650000Y-90439000D02*
X119650000Y-94200000D01*
X119750000Y-94300000D02*
X119650000Y-94200000D01*
X116050000Y-101200000D02*
X119500000Y-104650000D01*
X120750000Y-108500000D02*
X120750000Y-112125000D01*
X118187500Y-105937500D02*
X116800000Y-105937500D01*
D48*
X157575000Y-116675000D02*
X158900000Y-118000000D01*
D50*
X147850000Y-82000000D02*
X147874999Y-81975001D01*
X120250000Y-113550000D02*
X120750000Y-113050000D01*
D48*
X152244913Y-117655087D02*
X153450000Y-116450000D01*
D47*
X119650000Y-89750000D02*
X119300000Y-89400000D01*
D50*
X158000000Y-105350000D02*
X159300000Y-106650000D01*
X151800000Y-100850000D02*
X147850000Y-96900000D01*
X159300000Y-117600000D02*
X159300000Y-114750000D01*
X151800000Y-100850000D02*
X153101400Y-99548600D01*
D47*
X119500000Y-104650000D02*
X119500000Y-107250000D01*
D48*
X158900000Y-118000000D02*
X158900000Y-119250000D01*
D50*
X158000000Y-104700000D02*
X155650000Y-104700000D01*
D47*
X119750000Y-96900000D02*
X119750000Y-94300000D01*
D50*
X158900000Y-118000000D02*
X159300000Y-117600000D01*
X155650000Y-104700000D02*
X151800000Y-100850000D01*
D47*
X147600000Y-81700002D02*
X147874999Y-81975001D01*
X119300000Y-89400000D02*
X116450000Y-89400000D01*
D50*
X158000000Y-104700000D02*
X158000000Y-105350000D01*
D47*
X148099999Y-82200001D02*
X147874999Y-81975001D01*
X119500000Y-107250000D02*
X120750000Y-108500000D01*
D50*
X117500000Y-123800000D02*
X116400000Y-122700000D01*
X118737500Y-113550000D02*
X120250000Y-113550000D01*
X159300000Y-106650000D02*
X159300000Y-114750000D01*
D47*
X119500000Y-107250000D02*
X118187500Y-105937500D01*
X147600000Y-80195600D02*
X147600000Y-81700002D01*
D50*
X118200000Y-113550000D02*
X118737500Y-113550000D01*
D48*
X159550000Y-119900000D02*
X159550000Y-121755000D01*
X151264000Y-117655087D02*
X152244913Y-117655087D01*
D47*
X148099999Y-80195600D02*
X148099999Y-82200001D01*
D48*
X158900000Y-119250000D02*
X159550000Y-119900000D01*
X155000000Y-116675000D02*
X157575000Y-116675000D01*
D47*
X116050000Y-89800000D02*
X116050000Y-101200000D01*
D48*
X152244913Y-117655087D02*
X154019913Y-117655087D01*
D47*
X125775000Y-119025000D02*
X125700000Y-119100000D01*
D48*
X123450000Y-119250000D02*
X122700000Y-118500000D01*
D50*
X123550000Y-114400000D02*
X123900000Y-114750000D01*
D47*
X127250000Y-117550000D02*
X126025000Y-118775000D01*
D50*
X119100000Y-115950000D02*
X117850000Y-115950000D01*
D47*
X126837500Y-108850000D02*
X127700000Y-108850000D01*
D50*
X122350000Y-116705000D02*
X122350000Y-114400000D01*
X122350000Y-114400000D02*
X121950000Y-114000000D01*
X128750000Y-106100000D02*
X128750000Y-107950000D01*
X131400000Y-119450000D02*
X126150000Y-119450000D01*
D47*
X122350000Y-117600000D02*
X122700000Y-117950000D01*
X122350000Y-116705000D02*
X122350000Y-117600000D01*
D50*
X121700000Y-114000000D02*
X120500000Y-115200000D01*
X126150000Y-119450000D02*
X125775000Y-119075000D01*
D47*
X122700000Y-117950000D02*
X122700000Y-118050000D01*
X128200000Y-109350000D02*
X129050000Y-110200000D01*
D48*
X122700000Y-118500000D02*
X122700000Y-118050000D01*
D50*
X128750000Y-107950000D02*
X127950000Y-108750000D01*
D48*
X126025000Y-118775000D02*
X125775000Y-119025000D01*
D50*
X119850000Y-115200000D02*
X119100000Y-115950000D01*
D47*
X127700000Y-108850000D02*
X128200000Y-109350000D01*
D50*
X121950000Y-114000000D02*
X121700000Y-114000000D01*
D48*
X125550000Y-119250000D02*
X123450000Y-119250000D01*
D47*
X127250000Y-116705000D02*
X127250000Y-117550000D01*
D50*
X125775000Y-119075000D02*
X125775000Y-119025000D01*
D48*
X126025000Y-118775000D02*
X125550000Y-119250000D01*
D47*
X126837500Y-109350000D02*
X128200000Y-109350000D01*
D50*
X120500000Y-115200000D02*
X119850000Y-115200000D01*
X122350000Y-114400000D02*
X123550000Y-114400000D01*
D47*
X129050000Y-110200000D02*
X129050000Y-113100000D01*
X151264000Y-108655087D02*
X152844913Y-108655087D01*
X128850000Y-103050000D02*
X118900000Y-103050000D01*
X152844913Y-104594913D02*
X152844913Y-104444913D01*
X118649999Y-93550001D02*
X118000000Y-94200000D01*
X144000000Y-96700000D02*
X136850000Y-103850000D01*
X152844913Y-108655087D02*
X152844913Y-104594913D01*
X129650000Y-103850000D02*
X128850000Y-103050000D01*
X118649999Y-90439000D02*
X118649999Y-93550001D01*
X116700000Y-100850000D02*
X116700000Y-94850000D01*
X116700000Y-94850000D02*
X117350000Y-94200000D01*
X136850000Y-103850000D02*
X129650000Y-103850000D01*
X152844913Y-104444913D02*
X148000000Y-99600000D01*
X118900000Y-103050000D02*
X116700000Y-100850000D01*
X117350000Y-94200000D02*
X118000000Y-94200000D01*
X142600000Y-80195600D02*
X142600000Y-84162500D01*
X139250000Y-79000000D02*
X137750000Y-80500000D01*
X142100001Y-80195600D02*
X142100001Y-79200001D01*
X141900000Y-79000000D02*
X139250000Y-79000000D01*
X137750000Y-82200000D02*
X136900000Y-83050000D01*
X136900000Y-83050000D02*
X135550000Y-83050000D01*
X142100001Y-79200001D02*
X141900000Y-79000000D01*
X137750000Y-80500000D02*
X137750000Y-82200000D01*
X120150001Y-90439000D02*
X120150001Y-93150001D01*
X151264000Y-114655085D02*
X154630085Y-114655085D01*
X149694915Y-114655085D02*
X148150000Y-116200000D01*
X151264000Y-114655085D02*
X149694915Y-114655085D01*
X121050000Y-102300000D02*
X121050000Y-94050000D01*
X154630085Y-114655085D02*
X155000000Y-115025000D01*
X148150000Y-116200000D02*
X148150000Y-117300000D01*
X121050000Y-94050000D02*
X120150001Y-93150001D01*
X151100001Y-83512501D02*
X151550000Y-83962500D01*
X151100001Y-80195600D02*
X151100001Y-83512501D01*
D50*
X154450000Y-82300000D02*
X153712500Y-83037500D01*
X153712500Y-81212500D02*
X152550000Y-80050000D01*
X152550000Y-80050000D02*
X152300000Y-80050000D01*
X153712500Y-83037500D02*
X153712500Y-81212500D01*
X153712500Y-85650000D02*
X153712500Y-83037500D01*
X156550000Y-82300000D02*
X154450000Y-82300000D01*
D47*
X124500000Y-113750000D02*
X124650000Y-113600000D01*
X124650000Y-115300000D02*
X124550000Y-115400000D01*
X125900000Y-115500000D02*
X125900000Y-115200000D01*
X125850000Y-115550000D02*
X125900000Y-115500000D01*
X124550000Y-115400000D02*
X124550000Y-116705000D01*
X125550000Y-115850000D02*
X125850000Y-115550000D01*
X124650000Y-113600000D02*
X124650000Y-115300000D01*
X124650000Y-110037500D02*
X124650000Y-113600000D01*
X125550000Y-116705000D02*
X125550000Y-115850000D01*
X124500000Y-114050000D02*
X124500000Y-113750000D01*
X126550000Y-116705000D02*
X126550000Y-114225000D01*
X126550000Y-114225000D02*
X126675000Y-114100000D01*
X149100000Y-76200000D02*
X148400000Y-75500000D01*
X136800000Y-75500000D02*
X135825000Y-76475000D01*
X148400000Y-75500000D02*
X136800000Y-75500000D01*
X149100000Y-80195600D02*
X149100000Y-76200000D01*
X135825000Y-76475000D02*
X135825000Y-78550000D01*
X148500000Y-94437500D02*
X150062500Y-96000000D01*
X148500000Y-90200000D02*
X148500000Y-94437500D01*
X150400000Y-88300000D02*
X148500000Y-90200000D01*
X150400000Y-84050000D02*
X150400000Y-88300000D01*
X150100000Y-83750000D02*
X150400000Y-84050000D01*
X150100000Y-80195600D02*
X150100000Y-83750000D01*
X132255087Y-117655087D02*
X130750000Y-116150000D01*
X130750000Y-116150000D02*
X130750000Y-111900000D01*
X133764000Y-117655087D02*
X132255087Y-117655087D01*
X136394913Y-117655087D02*
X137800000Y-116250000D01*
X133764000Y-117655087D02*
X136394913Y-117655087D01*
X156350000Y-113750000D02*
X157650000Y-115050000D01*
X155400000Y-113750000D02*
X156350000Y-113750000D01*
X157650000Y-112510000D02*
X154960000Y-112510000D01*
X154960000Y-112510000D02*
X154650000Y-112200000D01*
X136250000Y-116150000D02*
X133769087Y-116150000D01*
X133769087Y-116150000D02*
X133764000Y-116155087D01*
X136300000Y-114650000D02*
X136294915Y-114655085D01*
X154930000Y-109970000D02*
X153200000Y-111700000D01*
X136294915Y-114655085D02*
X133764000Y-114655085D01*
X157650000Y-109970000D02*
X154930000Y-109970000D01*
X157650000Y-107430000D02*
X155870000Y-107430000D01*
X155870000Y-107430000D02*
X153200000Y-110100000D01*
X133769086Y-113150000D02*
X133764000Y-113155086D01*
X136250000Y-113150000D02*
X133769086Y-113150000D01*
X149300000Y-83600000D02*
X149300000Y-85062500D01*
X149600001Y-83299999D02*
X149300000Y-83600000D01*
X149600001Y-80195600D02*
X149600001Y-83299999D01*
D48*
X142400000Y-93300000D02*
X136400000Y-93300000D01*
D47*
X150599999Y-80195600D02*
X150599999Y-79050001D01*
D48*
X135700000Y-73400000D02*
X147950000Y-73400000D01*
D47*
X150900000Y-78750000D02*
X156450000Y-78750000D01*
D48*
X150599999Y-76049999D02*
X150599999Y-79050001D01*
X136400000Y-93300000D02*
X131500000Y-88400000D01*
D47*
X150599999Y-79050001D02*
X150900000Y-78750000D01*
X156450000Y-78750000D02*
X157100000Y-79400000D01*
D48*
X147950000Y-73400000D02*
X150599999Y-76049999D01*
X131500000Y-88400000D02*
X131500000Y-77600000D01*
X142850000Y-92850000D02*
X142400000Y-93300000D01*
X158800000Y-93350000D02*
X158200000Y-93950000D01*
X157100000Y-79400000D02*
X158800000Y-81100000D01*
X142850000Y-91750000D02*
X142850000Y-92850000D01*
X158800000Y-81100000D02*
X158800000Y-93350000D01*
X131500000Y-77600000D02*
X135700000Y-73400000D01*
D47*
X152300000Y-87400000D02*
X151950000Y-87400000D01*
X151600000Y-80195600D02*
X151600000Y-82050000D01*
X151600000Y-82050000D02*
X152700000Y-83150000D01*
X151950000Y-87400000D02*
X151662500Y-87687500D01*
X151662500Y-87687500D02*
X151662500Y-88500000D01*
X152700000Y-87000000D02*
X152300000Y-87400000D01*
D48*
X151550000Y-88612500D02*
X151662500Y-88500000D01*
X151550000Y-90850000D02*
X151550000Y-88612500D01*
D47*
X152700000Y-83150000D02*
X152700000Y-87000000D01*
D48*
X154850000Y-91900000D02*
X154850000Y-90850000D01*
X153300000Y-93450000D02*
X154850000Y-91900000D01*
X155550000Y-90150000D02*
X155550000Y-88500000D01*
X154850000Y-90850000D02*
X155550000Y-90150000D01*
X154900000Y-93950000D02*
X155650000Y-93950000D01*
D47*
X144050000Y-94000000D02*
X144050000Y-89500000D01*
X140050000Y-86500000D02*
X139650000Y-86500000D01*
X141450000Y-87900000D02*
X140050000Y-86500000D01*
X142450000Y-87900000D02*
X141450000Y-87900000D01*
D48*
X154900000Y-95800000D02*
X154900000Y-93950000D01*
X155651400Y-96551400D02*
X154900000Y-95800000D01*
X156650000Y-96551400D02*
X153898600Y-96551400D01*
X153898600Y-96551400D02*
X153800000Y-96650000D01*
X156650000Y-96551400D02*
X155651400Y-96551400D01*
D47*
X144050000Y-89500000D02*
X142450000Y-87900000D01*
D48*
X157625000Y-91975000D02*
X157625000Y-88500000D01*
D47*
X143650000Y-94400000D02*
X144050000Y-94000000D01*
D48*
X155650000Y-93950000D02*
X157625000Y-91975000D01*
D47*
X147100001Y-105300001D02*
X148955085Y-107155085D01*
X147100001Y-80195600D02*
X147100001Y-105300001D01*
X148955085Y-107155085D02*
X151264000Y-107155085D01*
X146600000Y-80195600D02*
X146600000Y-109400000D01*
X148855086Y-111655086D02*
X151264000Y-111655086D01*
X146600000Y-109400000D02*
X148855086Y-111655086D01*
X146100000Y-99350000D02*
X137350000Y-108100000D01*
X137350000Y-110100000D02*
X135794914Y-111655086D01*
X137350000Y-108100000D02*
X137350000Y-110100000D01*
X146100000Y-80195600D02*
X146100000Y-99350000D01*
X135794914Y-111655086D02*
X133764000Y-111655086D01*
X136500000Y-107600000D02*
X136500000Y-108850000D01*
X136500000Y-108850000D02*
X135194913Y-110155087D01*
X145599999Y-98500001D02*
X136500000Y-107600000D01*
X145599999Y-80195600D02*
X145599999Y-98500001D01*
X135194913Y-110155087D02*
X133764000Y-110155087D01*
X145100000Y-98050000D02*
X137494915Y-105655085D01*
X145100000Y-80195600D02*
X145100000Y-98050000D01*
X137494915Y-105655085D02*
X133764000Y-105655085D01*
X144600001Y-80195600D02*
X144600001Y-97449999D01*
X144600001Y-97449999D02*
X143550000Y-98500000D01*
X148555087Y-110155087D02*
X147475000Y-109075000D01*
X151264000Y-110155087D02*
X148555087Y-110155087D01*
X137650000Y-89525000D02*
X137675000Y-89550000D01*
D48*
X137650000Y-87150000D02*
X137650000Y-89525000D01*
D47*
X141599999Y-80195600D02*
X141599999Y-83200001D01*
X141599999Y-83200001D02*
X137650000Y-87150000D01*
X141100000Y-82400000D02*
X137650000Y-85850000D01*
X141100000Y-80195600D02*
X141100000Y-82400000D01*
D48*
X137650000Y-85850000D02*
X135725000Y-85850000D01*
D47*
X124800000Y-118600000D02*
X125050000Y-118350000D01*
X124050000Y-116705000D02*
X124050000Y-118350000D01*
X124050000Y-118350000D02*
X124300000Y-118600000D01*
X124300000Y-118600000D02*
X124800000Y-118600000D01*
X125050000Y-118350000D02*
X125050000Y-116705000D01*
X125050000Y-116705000D02*
X125050000Y-115700000D01*
X125150000Y-110037500D02*
X125150000Y-115550000D01*
X125050000Y-115700000D02*
X125150000Y-115600000D01*
X125150000Y-115550000D02*
X125150000Y-115600000D01*
D50*
X119150000Y-118900000D02*
X117950000Y-118900000D01*
D47*
X123550000Y-117750000D02*
X123450000Y-117850000D01*
X123550000Y-116705000D02*
X123550000Y-117750000D01*
D50*
X117650000Y-119200000D02*
X117650000Y-119925000D01*
X117950000Y-118900000D02*
X117650000Y-119200000D01*
X155587500Y-120800000D02*
X157725000Y-120800000D01*
X157725000Y-120800000D02*
X157800000Y-120725000D01*
D48*
X153350000Y-118900000D02*
X153325000Y-118925000D01*
D47*
X121400000Y-106850000D02*
X121250000Y-106700000D01*
D48*
X131700000Y-115400000D02*
X131700000Y-116200000D01*
X131700000Y-116200000D02*
X132200000Y-116700000D01*
X155587500Y-118900000D02*
X153350000Y-118900000D01*
D47*
X122962500Y-106850000D02*
X121400000Y-106850000D01*
D50*
X151264000Y-116155087D02*
X149544913Y-116155087D01*
D48*
X158450000Y-119900000D02*
X153762500Y-119900000D01*
X157950000Y-123550000D02*
X157950000Y-121950000D01*
X158405000Y-124005000D02*
X157950000Y-123550000D01*
X153762500Y-119900000D02*
X153712500Y-119850000D01*
X158850000Y-121050000D02*
X158850000Y-120300000D01*
D50*
X149050000Y-116650000D02*
X149050000Y-118950000D01*
X149950000Y-119850000D02*
X153712500Y-119850000D01*
D48*
X158850000Y-120300000D02*
X158450000Y-119900000D01*
D50*
X149544913Y-116155087D02*
X149050000Y-116650000D01*
D48*
X158950000Y-124005000D02*
X158405000Y-124005000D01*
D50*
X149050000Y-118950000D02*
X149950000Y-119850000D01*
D48*
X157950000Y-121950000D02*
X158850000Y-121050000D01*
X131700000Y-110025000D02*
X131700000Y-113750000D01*
D47*
X129450000Y-108950000D02*
X129000000Y-108950000D01*
X121800000Y-108850000D02*
X122962500Y-108850000D01*
D48*
X157800000Y-118150000D02*
X157800000Y-119075000D01*
X157250000Y-117600000D02*
X157800000Y-118150000D01*
D47*
X129800000Y-109300000D02*
X129450000Y-108950000D01*
X129800000Y-110025000D02*
X129800000Y-109300000D01*
X130905085Y-107155085D02*
X130350000Y-106600000D01*
X120850000Y-107850000D02*
X122962500Y-107850000D01*
X133764000Y-107155085D02*
X130905085Y-107155085D01*
X130350000Y-106600000D02*
X130350000Y-105450000D01*
X120050000Y-107050000D02*
X120850000Y-107850000D01*
X128650000Y-103750000D02*
X121150000Y-103750000D01*
X120050000Y-104850000D02*
X120050000Y-107050000D01*
X130350000Y-105450000D02*
X128650000Y-103750000D01*
X121150000Y-103750000D02*
X120050000Y-104850000D01*
X122962500Y-107350000D02*
X121050000Y-107350000D01*
X121300000Y-104300000D02*
X128550000Y-104300000D01*
X120550000Y-105050000D02*
X121300000Y-104300000D01*
X121050000Y-107350000D02*
X120550000Y-106850000D01*
X120550000Y-106850000D02*
X120550000Y-105050000D01*
X128550000Y-104300000D02*
X129850000Y-105600000D01*
X130305087Y-108655087D02*
X133764000Y-108655087D01*
X129850000Y-108200000D02*
X130305087Y-108655087D01*
X129850000Y-105600000D02*
X129850000Y-108200000D01*
X126150000Y-110037500D02*
X126150000Y-110400000D01*
X125650000Y-110450000D02*
X125650000Y-110037500D01*
X126000000Y-110550000D02*
X125750000Y-110550000D01*
X126150000Y-110400000D02*
X126000000Y-110550000D01*
X125750000Y-110550000D02*
X125650000Y-110450000D01*
X120650000Y-90439000D02*
X120650000Y-92700000D01*
X120650000Y-92700000D02*
X121800000Y-93850000D01*
X147350000Y-115400000D02*
X149594914Y-113155086D01*
X153155086Y-113155086D02*
X153450000Y-113450000D01*
X153450000Y-113450000D02*
X153450000Y-113875000D01*
X121800000Y-93850000D02*
X121800000Y-102450000D01*
X147350000Y-116900000D02*
X147350000Y-115400000D01*
X149594914Y-113155086D02*
X151264000Y-113155086D01*
X151264000Y-113155086D02*
X153155086Y-113155086D01*
M02*
