M48
; DRILL file {KiCad 6.0.10-86aedd382b~118~ubuntu20.04.1} date Mon 02 Jan 2023 08:40:46 CET
; FORMAT={-:-/ absolute / metric / decimal}
; #@! TF.CreationDate,2023-01-02T08:40:46+01:00
; #@! TF.GenerationSoftware,Kicad,Pcbnew,6.0.10-86aedd382b~118~ubuntu20.04.1
; #@! TF.FileFunction,Plated,1,2,PTH
FMAT,2
METRIC
; #@! TA.AperFunction,Plated,PTH,ViaDrill
T1C0.400
; #@! TA.AperFunction,Plated,PTH,ComponentDrill
T2C0.600
; #@! TA.AperFunction,Plated,PTH,ComponentDrill
T3C1.000
%
G90
G05
T1
X115.3Y-111.65
X115.35Y-115.45
X117.5Y-98.35
X117.5Y-123.8
X117.9Y-92.1
X118.35Y-104.7
X119.15Y-118.9
X121.05Y-102.3
X121.25Y-106.7
X121.8Y-102.45
X121.8Y-108.85
X123.45Y-117.85
X123.9Y-112.1
X123.9Y-114.75
X124.05Y-108.1
X124.5Y-114.05
X125.9Y-115.2
X127.3Y-101.4
X129.0Y-108.95
X129.05Y-113.1
X132.2Y-116.7
X132.35Y-79.0
X132.35Y-83.05
X133.0Y-86.35
X136.25Y-113.15
X136.25Y-116.15
X136.3Y-114.65
X137.8Y-116.25
X139.35Y-90.75
X142.6Y-87.25
X143.25Y-109.15
X143.55Y-98.5
X143.65Y-94.4
X144.0Y-96.7
X144.4Y-78.85
X147.35Y-116.9
X147.475Y-109.075
X148.0Y-99.6
X148.15Y-117.3
X148.25Y-78.85
X148.6Y-103.9
X149.15Y-92.1
X149.3Y-88.3
X151.0Y-87.15
X152.15Y-97.4
X153.2Y-110.1
X153.2Y-111.7
X153.325Y-118.925
X153.8Y-96.65
X154.65Y-112.2
X155.0Y-87.05
X155.1Y-117.95
X155.4Y-113.75
X157.25Y-117.6
T3
X157.65Y-102.35
X157.65Y-104.89
X157.65Y-107.43
X157.65Y-109.97
X157.65Y-112.51
X157.65Y-115.05
T2
X120.48Y-117.07G85X120.48Y-118.17
G05
X120.48Y-121.5G85X120.48Y-122.1
G05
X129.12Y-117.07G85X129.12Y-118.17
G05
X129.12Y-121.5G85X129.12Y-122.1
G05
T0
M30
