G04 #@! TF.GenerationSoftware,KiCad,Pcbnew,6.0.10-86aedd382b~118~ubuntu20.04.1*
G04 #@! TF.CreationDate,2023-01-02T08:46:21+01:00*
G04 #@! TF.ProjectId,C3-27-epaper-touch,43332d32-372d-4657-9061-7065722d746f,rev?*
G04 #@! TF.SameCoordinates,Original*
G04 #@! TF.FileFunction,Legend,Bot*
G04 #@! TF.FilePolarity,Positive*
%FSLAX46Y46*%
G04 Gerber Fmt 4.6, Leading zero omitted, Abs format (unit mm)*
G04 Created by KiCad (PCBNEW 6.0.10-86aedd382b~118~ubuntu20.04.1) date 2023-01-02 08:46:21*
%MOMM*%
%LPD*%
G01*
G04 APERTURE LIST*
%ADD10C,0.150000*%
%ADD11C,0.120000*%
%ADD12C,2.200000*%
%ADD13C,0.650000*%
%ADD14O,1.000000X2.100000*%
%ADD15O,1.000000X1.600000*%
%ADD16C,3.200000*%
%ADD17R,1.700000X1.700000*%
%ADD18O,1.700000X1.700000*%
G04 APERTURE END LIST*
D10*
X115000000Y-54925000D02*
X115000000Y-124800000D01*
X160000000Y-54925000D02*
X160000000Y-124800000D01*
X152583333Y-56800000D02*
X153650000Y-56800000D01*
X153383333Y-57066666D02*
X153650000Y-56800000D01*
X153383333Y-56533333D01*
X150850000Y-56600000D02*
X150383333Y-56600000D01*
X150183333Y-57333333D02*
X150850000Y-57333333D01*
X150850000Y-55933333D01*
X150183333Y-55933333D01*
X149583333Y-57333333D02*
X149583333Y-55933333D01*
X149050000Y-55933333D01*
X148916666Y-56000000D01*
X148850000Y-56066666D01*
X148783333Y-56200000D01*
X148783333Y-56400000D01*
X148850000Y-56533333D01*
X148916666Y-56600000D01*
X149050000Y-56666666D01*
X149583333Y-56666666D01*
X148250000Y-56933333D02*
X147583333Y-56933333D01*
X148383333Y-57333333D02*
X147916666Y-55933333D01*
X147450000Y-57333333D01*
X146983333Y-57333333D02*
X146983333Y-55933333D01*
X146450000Y-55933333D01*
X146316666Y-56000000D01*
X146250000Y-56066666D01*
X146183333Y-56200000D01*
X146183333Y-56400000D01*
X146250000Y-56533333D01*
X146316666Y-56600000D01*
X146450000Y-56666666D01*
X146983333Y-56666666D01*
X145583333Y-56600000D02*
X145116666Y-56600000D01*
X144916666Y-57333333D02*
X145583333Y-57333333D01*
X145583333Y-55933333D01*
X144916666Y-55933333D01*
X143516666Y-57333333D02*
X143983333Y-56666666D01*
X144316666Y-57333333D02*
X144316666Y-55933333D01*
X143783333Y-55933333D01*
X143650000Y-56000000D01*
X143583333Y-56066666D01*
X143516666Y-56200000D01*
X143516666Y-56400000D01*
X143583333Y-56533333D01*
X143650000Y-56600000D01*
X143783333Y-56666666D01*
X144316666Y-56666666D01*
X141916666Y-56066666D02*
X141850000Y-56000000D01*
X141716666Y-55933333D01*
X141383333Y-55933333D01*
X141250000Y-56000000D01*
X141183333Y-56066666D01*
X141116666Y-56200000D01*
X141116666Y-56333333D01*
X141183333Y-56533333D01*
X141983333Y-57333333D01*
X141116666Y-57333333D01*
X140516666Y-57200000D02*
X140450000Y-57266666D01*
X140516666Y-57333333D01*
X140583333Y-57266666D01*
X140516666Y-57200000D01*
X140516666Y-57333333D01*
X139983333Y-55933333D02*
X139050000Y-55933333D01*
X139650000Y-57333333D01*
X138583333Y-55933333D02*
X138583333Y-56200000D01*
X138050000Y-55933333D02*
X138050000Y-56200000D01*
X135650000Y-56000000D02*
X135783333Y-55933333D01*
X135983333Y-55933333D01*
X136183333Y-56000000D01*
X136316666Y-56133333D01*
X136383333Y-56266666D01*
X136450000Y-56533333D01*
X136450000Y-56733333D01*
X136383333Y-57000000D01*
X136316666Y-57133333D01*
X136183333Y-57266666D01*
X135983333Y-57333333D01*
X135850000Y-57333333D01*
X135650000Y-57266666D01*
X135583333Y-57200000D01*
X135583333Y-56733333D01*
X135850000Y-56733333D01*
X134983333Y-57333333D02*
X134983333Y-55933333D01*
X134650000Y-55933333D01*
X134450000Y-56000000D01*
X134316666Y-56133333D01*
X134250000Y-56266666D01*
X134183333Y-56533333D01*
X134183333Y-56733333D01*
X134250000Y-57000000D01*
X134316666Y-57133333D01*
X134450000Y-57266666D01*
X134650000Y-57333333D01*
X134983333Y-57333333D01*
X133583333Y-56600000D02*
X133116666Y-56600000D01*
X132916666Y-57333333D02*
X133583333Y-57333333D01*
X133583333Y-55933333D01*
X132916666Y-55933333D01*
X132450000Y-55933333D02*
X132116666Y-57333333D01*
X131850000Y-56333333D01*
X131583333Y-57333333D01*
X131250000Y-55933333D01*
X130450000Y-55933333D02*
X130316666Y-55933333D01*
X130183333Y-56000000D01*
X130116666Y-56066666D01*
X130050000Y-56200000D01*
X129983333Y-56466666D01*
X129983333Y-56800000D01*
X130050000Y-57066666D01*
X130116666Y-57200000D01*
X130183333Y-57266666D01*
X130316666Y-57333333D01*
X130450000Y-57333333D01*
X130583333Y-57266666D01*
X130650000Y-57200000D01*
X130716666Y-57066666D01*
X130783333Y-56800000D01*
X130783333Y-56466666D01*
X130716666Y-56200000D01*
X130650000Y-56066666D01*
X130583333Y-56000000D01*
X130450000Y-55933333D01*
X129450000Y-56066666D02*
X129383333Y-56000000D01*
X129250000Y-55933333D01*
X128916666Y-55933333D01*
X128783333Y-56000000D01*
X128716666Y-56066666D01*
X128650000Y-56200000D01*
X128650000Y-56333333D01*
X128716666Y-56533333D01*
X129516666Y-57333333D01*
X128650000Y-57333333D01*
X128183333Y-55933333D02*
X127250000Y-55933333D01*
X127850000Y-57333333D01*
X126850000Y-55933333D02*
X126516666Y-57333333D01*
X126250000Y-56333333D01*
X125983333Y-57333333D01*
X125650000Y-55933333D01*
X125250000Y-55933333D02*
X124383333Y-55933333D01*
X124850000Y-56466666D01*
X124650000Y-56466666D01*
X124516666Y-56533333D01*
X124450000Y-56600000D01*
X124383333Y-56733333D01*
X124383333Y-57066666D01*
X124450000Y-57200000D01*
X124516666Y-57266666D01*
X124650000Y-57333333D01*
X125050000Y-57333333D01*
X125183333Y-57266666D01*
X125250000Y-57200000D01*
X122716666Y-56800000D02*
X121650000Y-56800000D01*
X121916666Y-57066666D02*
X121650000Y-56800000D01*
X121916666Y-56533333D01*
D11*
X153804300Y-117655087D02*
G75*
G03*
X153804300Y-117655087I-381000J0D01*
G01*
X123044900Y-89305000D02*
G75*
G03*
X123044900Y-89305000I-381000J0D01*
G01*
%LPC*%
D12*
X157500000Y-57400000D03*
D13*
X127690000Y-118150000D03*
X121910000Y-118150000D03*
D14*
X129120000Y-117620000D03*
D15*
X129120000Y-121800000D03*
X120480000Y-121800000D03*
D14*
X120480000Y-117620000D03*
D16*
X107450000Y-89750000D03*
D12*
X123500000Y-70500000D03*
X137500000Y-96000000D03*
D17*
X157650000Y-102350000D03*
D18*
X157650000Y-104890000D03*
X157650000Y-107430000D03*
X157650000Y-109970000D03*
X157650000Y-112510000D03*
X157650000Y-115050000D03*
D16*
X167500000Y-89450000D03*
D12*
X117750000Y-109400000D03*
M02*
