G04 #@! TF.GenerationSoftware,KiCad,Pcbnew,6.0.11-2627ca5db0~126~ubuntu20.04.1*
G04 #@! TF.CreationDate,2023-02-17T07:43:56+01:00*
G04 #@! TF.ProjectId,C3-27-epaper-touch,43332d32-372d-4657-9061-7065722d746f,rev?*
G04 #@! TF.SameCoordinates,Original*
G04 #@! TF.FileFunction,Copper,L3,Inr*
G04 #@! TF.FilePolarity,Positive*
%FSLAX46Y46*%
G04 Gerber Fmt 4.6, Leading zero omitted, Abs format (unit mm)*
G04 Created by KiCad (PCBNEW 6.0.11-2627ca5db0~126~ubuntu20.04.1) date 2023-02-17 07:43:56*
%MOMM*%
%LPD*%
G01*
G04 APERTURE LIST*
G04 #@! TA.AperFunction,ComponentPad*
%ADD10O,1.000000X2.100000*%
G04 #@! TD*
G04 #@! TA.AperFunction,ComponentPad*
%ADD11O,1.000000X1.600000*%
G04 #@! TD*
G04 #@! TA.AperFunction,ComponentPad*
%ADD12R,1.150000X1.150000*%
G04 #@! TD*
G04 #@! TA.AperFunction,ComponentPad*
%ADD13C,1.150000*%
G04 #@! TD*
G04 #@! TA.AperFunction,ComponentPad*
%ADD14R,1.700000X1.700000*%
G04 #@! TD*
G04 #@! TA.AperFunction,ComponentPad*
%ADD15O,1.700000X1.700000*%
G04 #@! TD*
G04 #@! TA.AperFunction,ViaPad*
%ADD16C,0.500000*%
G04 #@! TD*
G04 #@! TA.AperFunction,ViaPad*
%ADD17C,1.000000*%
G04 #@! TD*
G04 #@! TA.AperFunction,ViaPad*
%ADD18C,0.800000*%
G04 #@! TD*
G04 #@! TA.AperFunction,Conductor*
%ADD19C,0.250000*%
G04 #@! TD*
G04 #@! TA.AperFunction,Conductor*
%ADD20C,0.400000*%
G04 #@! TD*
G04 APERTURE END LIST*
D10*
X129120000Y-117620000D03*
D11*
X129120000Y-121800000D03*
X120480000Y-121800000D03*
D10*
X120480000Y-117620000D03*
D12*
X126971501Y-72200000D03*
D13*
X128971502Y-72200000D03*
X130971501Y-72200000D03*
X132971502Y-72200000D03*
D14*
X157650000Y-102350000D03*
D15*
X157650000Y-104890000D03*
X157650000Y-107430000D03*
X157650000Y-109970000D03*
X157650000Y-112510000D03*
X157650000Y-115050000D03*
D16*
X142740000Y-98030000D03*
X144100000Y-98010000D03*
X151350000Y-92025000D03*
D17*
X160270000Y-123250000D03*
D18*
X159750000Y-69950000D03*
D16*
X148050000Y-78275000D03*
X123900000Y-112100000D03*
D17*
X153810000Y-106130000D03*
D16*
X130030000Y-104150000D03*
D17*
X131930000Y-87340000D03*
D16*
X149300000Y-88300000D03*
X151000000Y-87150000D03*
X129330000Y-108990000D03*
X117900000Y-92100000D03*
X155000000Y-87050000D03*
D17*
X140490000Y-110380000D03*
X142650000Y-110320000D03*
X134090000Y-84520000D03*
D16*
X142600000Y-87250000D03*
D17*
X136360000Y-88140000D03*
D16*
X124575000Y-109300000D03*
D17*
X115450000Y-110220000D03*
D16*
X126850000Y-78800000D03*
X152150000Y-97400000D03*
X126275000Y-105275000D03*
D17*
X116100000Y-117800000D03*
D16*
X144725000Y-78250000D03*
D17*
X118800000Y-115075000D03*
D16*
X125525000Y-104325000D03*
X119350000Y-84900000D03*
X121350000Y-84500000D03*
D17*
X117500000Y-123800000D03*
X153800000Y-122410000D03*
D16*
X155100000Y-117950000D03*
X131600000Y-110830000D03*
X123900000Y-114750000D03*
X128550000Y-108970000D03*
D17*
X130200000Y-112950000D03*
D16*
X131000000Y-106960000D03*
X148080000Y-97990000D03*
X146590000Y-112910000D03*
X121040000Y-100060000D03*
X125900000Y-115200000D03*
X125000000Y-114225000D03*
X154770000Y-113720000D03*
X139090000Y-115780000D03*
X131080000Y-113950000D03*
X122650000Y-98750000D03*
X154770000Y-112100000D03*
X139080000Y-114900000D03*
X154630000Y-111030000D03*
X139130000Y-113880000D03*
X143650000Y-94400000D03*
X153800000Y-96650000D03*
X148270000Y-108960000D03*
X146520000Y-110740000D03*
X147440000Y-106650000D03*
X123450000Y-117850000D03*
X119150000Y-118900000D03*
X153730000Y-104360000D03*
X153325000Y-118925000D03*
X121200000Y-105200000D03*
X153030000Y-101310000D03*
X119800000Y-101425000D03*
X148040000Y-99110000D03*
X121900000Y-108500000D03*
X142050000Y-99180000D03*
D18*
X159170000Y-100680000D03*
D16*
X121925000Y-99875000D03*
X147380000Y-112210000D03*
D19*
X153325000Y-118925000D02*
X152820000Y-118420000D01*
X152820000Y-118420000D02*
X152820000Y-105270000D01*
X152820000Y-105270000D02*
X153730000Y-104360000D01*
X129220000Y-112550000D02*
X129220000Y-114350000D01*
X121200000Y-105200000D02*
X121870000Y-105200000D01*
X121870000Y-105200000D02*
X129220000Y-112550000D01*
X129220000Y-114350000D02*
X133795000Y-118925000D01*
X133795000Y-118925000D02*
X153325000Y-118925000D01*
X141870000Y-98030000D02*
X142740000Y-98030000D01*
X141130000Y-99530000D02*
X141130000Y-98770000D01*
X147440000Y-106650000D02*
X147440000Y-105980000D01*
X147440000Y-105840000D02*
X141450000Y-99850000D01*
X147440000Y-105980000D02*
X147440000Y-105840000D01*
X141450000Y-99850000D02*
X141130000Y-99530000D01*
X141130000Y-98770000D02*
X141870000Y-98030000D01*
X144100000Y-98010000D02*
X148060000Y-98010000D01*
X148060000Y-98010000D02*
X148080000Y-97990000D01*
X121040000Y-100060000D02*
X121040000Y-102520000D01*
X131260000Y-112740000D02*
X146420000Y-112740000D01*
X121040000Y-102520000D02*
X131260000Y-112740000D01*
X146420000Y-112740000D02*
X146590000Y-112910000D01*
D20*
X146520000Y-110740000D02*
X146520000Y-110710000D01*
X146520000Y-110710000D02*
X148270000Y-108960000D01*
D19*
X148040000Y-99110000D02*
X142120000Y-99110000D01*
X142120000Y-99110000D02*
X142050000Y-99180000D01*
X121925000Y-99875000D02*
X121925000Y-102485000D01*
X133880000Y-112220000D02*
X147370000Y-112220000D01*
X129940000Y-108280000D02*
X133880000Y-112220000D01*
X127720000Y-108280000D02*
X129940000Y-108280000D01*
X121925000Y-102485000D02*
X127720000Y-108280000D01*
X147370000Y-112220000D02*
X147380000Y-112210000D01*
M02*
