G04 #@! TF.GenerationSoftware,KiCad,Pcbnew,7.0.1-3b83917a11~172~ubuntu22.04.1*
G04 #@! TF.CreationDate,2023-04-18T13:12:10+02:00*
G04 #@! TF.ProjectId,154-watch,3135342d-7761-4746-9368-2e6b69636164,rev?*
G04 #@! TF.SameCoordinates,Original*
G04 #@! TF.FileFunction,Copper,L1,Top*
G04 #@! TF.FilePolarity,Positive*
%FSLAX46Y46*%
G04 Gerber Fmt 4.6, Leading zero omitted, Abs format (unit mm)*
G04 Created by KiCad (PCBNEW 7.0.1-3b83917a11~172~ubuntu22.04.1) date 2023-04-18 13:12:10*
%MOMM*%
%LPD*%
G01*
G04 APERTURE LIST*
G04 Aperture macros list*
%AMRoundRect*
0 Rectangle with rounded corners*
0 $1 Rounding radius*
0 $2 $3 $4 $5 $6 $7 $8 $9 X,Y pos of 4 corners*
0 Add a 4 corners polygon primitive as box body*
4,1,4,$2,$3,$4,$5,$6,$7,$8,$9,$2,$3,0*
0 Add four circle primitives for the rounded corners*
1,1,$1+$1,$2,$3*
1,1,$1+$1,$4,$5*
1,1,$1+$1,$6,$7*
1,1,$1+$1,$8,$9*
0 Add four rect primitives between the rounded corners*
20,1,$1+$1,$2,$3,$4,$5,0*
20,1,$1+$1,$4,$5,$6,$7,0*
20,1,$1+$1,$6,$7,$8,$9,0*
20,1,$1+$1,$8,$9,$2,$3,0*%
%AMFreePoly0*
4,1,19,0.500000,-0.750000,0.000000,-0.750000,0.000000,-0.744911,-0.071157,-0.744911,-0.207708,-0.704816,-0.327430,-0.627875,-0.420627,-0.520320,-0.479746,-0.390866,-0.500000,-0.250000,-0.500000,0.250000,-0.479746,0.390866,-0.420627,0.520320,-0.327430,0.627875,-0.207708,0.704816,-0.071157,0.744911,0.000000,0.744911,0.000000,0.750000,0.500000,0.750000,0.500000,-0.750000,0.500000,-0.750000,
$1*%
%AMFreePoly1*
4,1,19,0.000000,0.744911,0.071157,0.744911,0.207708,0.704816,0.327430,0.627875,0.420627,0.520320,0.479746,0.390866,0.500000,0.250000,0.500000,-0.250000,0.479746,-0.390866,0.420627,-0.520320,0.327430,-0.627875,0.207708,-0.704816,0.071157,-0.744911,0.000000,-0.744911,0.000000,-0.750000,-0.500000,-0.750000,-0.500000,0.750000,0.000000,0.750000,0.000000,0.744911,0.000000,0.744911,
$1*%
G04 Aperture macros list end*
G04 #@! TA.AperFunction,SMDPad,CuDef*
%ADD10RoundRect,0.250000X-0.337500X-0.475000X0.337500X-0.475000X0.337500X0.475000X-0.337500X0.475000X0*%
G04 #@! TD*
G04 #@! TA.AperFunction,SMDPad,CuDef*
%ADD11RoundRect,0.150000X-0.587500X-0.150000X0.587500X-0.150000X0.587500X0.150000X-0.587500X0.150000X0*%
G04 #@! TD*
G04 #@! TA.AperFunction,SMDPad,CuDef*
%ADD12RoundRect,0.200000X-0.200000X-0.275000X0.200000X-0.275000X0.200000X0.275000X-0.200000X0.275000X0*%
G04 #@! TD*
G04 #@! TA.AperFunction,SMDPad,CuDef*
%ADD13RoundRect,0.250000X0.475000X-0.250000X0.475000X0.250000X-0.475000X0.250000X-0.475000X-0.250000X0*%
G04 #@! TD*
G04 #@! TA.AperFunction,SMDPad,CuDef*
%ADD14R,1.000000X1.000000*%
G04 #@! TD*
G04 #@! TA.AperFunction,SMDPad,CuDef*
%ADD15RoundRect,0.225000X0.225000X0.250000X-0.225000X0.250000X-0.225000X-0.250000X0.225000X-0.250000X0*%
G04 #@! TD*
G04 #@! TA.AperFunction,SMDPad,CuDef*
%ADD16R,1.193800X0.304800*%
G04 #@! TD*
G04 #@! TA.AperFunction,SMDPad,CuDef*
%ADD17R,2.006600X1.803400*%
G04 #@! TD*
G04 #@! TA.AperFunction,SMDPad,CuDef*
%ADD18R,1.092200X3.708400*%
G04 #@! TD*
G04 #@! TA.AperFunction,SMDPad,CuDef*
%ADD19R,0.406400X0.812800*%
G04 #@! TD*
G04 #@! TA.AperFunction,SMDPad,CuDef*
%ADD20R,0.812800X0.406400*%
G04 #@! TD*
G04 #@! TA.AperFunction,SMDPad,CuDef*
%ADD21R,1.447800X1.447800*%
G04 #@! TD*
G04 #@! TA.AperFunction,SMDPad,CuDef*
%ADD22R,0.711200X0.711200*%
G04 #@! TD*
G04 #@! TA.AperFunction,SMDPad,CuDef*
%ADD23RoundRect,0.225000X0.225000X0.375000X-0.225000X0.375000X-0.225000X-0.375000X0.225000X-0.375000X0*%
G04 #@! TD*
G04 #@! TA.AperFunction,ComponentPad*
%ADD24R,1.000000X1.000000*%
G04 #@! TD*
G04 #@! TA.AperFunction,ComponentPad*
%ADD25O,1.000000X1.000000*%
G04 #@! TD*
G04 #@! TA.AperFunction,SMDPad,CuDef*
%ADD26RoundRect,0.243750X0.243750X0.456250X-0.243750X0.456250X-0.243750X-0.456250X0.243750X-0.456250X0*%
G04 #@! TD*
G04 #@! TA.AperFunction,SMDPad,CuDef*
%ADD27RoundRect,0.250000X0.475000X-0.337500X0.475000X0.337500X-0.475000X0.337500X-0.475000X-0.337500X0*%
G04 #@! TD*
G04 #@! TA.AperFunction,SMDPad,CuDef*
%ADD28RoundRect,0.150000X0.825000X0.150000X-0.825000X0.150000X-0.825000X-0.150000X0.825000X-0.150000X0*%
G04 #@! TD*
G04 #@! TA.AperFunction,SMDPad,CuDef*
%ADD29R,1.450000X0.600000*%
G04 #@! TD*
G04 #@! TA.AperFunction,SMDPad,CuDef*
%ADD30R,1.450000X0.300000*%
G04 #@! TD*
G04 #@! TA.AperFunction,ComponentPad*
%ADD31O,2.100000X1.000000*%
G04 #@! TD*
G04 #@! TA.AperFunction,ComponentPad*
%ADD32O,1.600000X1.000000*%
G04 #@! TD*
G04 #@! TA.AperFunction,SMDPad,CuDef*
%ADD33RoundRect,0.112500X-0.187500X-0.112500X0.187500X-0.112500X0.187500X0.112500X-0.187500X0.112500X0*%
G04 #@! TD*
G04 #@! TA.AperFunction,SMDPad,CuDef*
%ADD34R,1.422400X1.295400*%
G04 #@! TD*
G04 #@! TA.AperFunction,SMDPad,CuDef*
%ADD35RoundRect,0.200000X0.200000X0.275000X-0.200000X0.275000X-0.200000X-0.275000X0.200000X-0.275000X0*%
G04 #@! TD*
G04 #@! TA.AperFunction,SMDPad,CuDef*
%ADD36RoundRect,0.250000X-0.475000X0.337500X-0.475000X-0.337500X0.475000X-0.337500X0.475000X0.337500X0*%
G04 #@! TD*
G04 #@! TA.AperFunction,SMDPad,CuDef*
%ADD37RoundRect,0.225000X-0.225000X-0.375000X0.225000X-0.375000X0.225000X0.375000X-0.225000X0.375000X0*%
G04 #@! TD*
G04 #@! TA.AperFunction,SMDPad,CuDef*
%ADD38RoundRect,0.250000X-0.250000X-0.475000X0.250000X-0.475000X0.250000X0.475000X-0.250000X0.475000X0*%
G04 #@! TD*
G04 #@! TA.AperFunction,SMDPad,CuDef*
%ADD39RoundRect,0.200000X-0.275000X0.200000X-0.275000X-0.200000X0.275000X-0.200000X0.275000X0.200000X0*%
G04 #@! TD*
G04 #@! TA.AperFunction,SMDPad,CuDef*
%ADD40R,0.700000X0.450000*%
G04 #@! TD*
G04 #@! TA.AperFunction,SMDPad,CuDef*
%ADD41RoundRect,0.250000X-0.412500X-0.925000X0.412500X-0.925000X0.412500X0.925000X-0.412500X0.925000X0*%
G04 #@! TD*
G04 #@! TA.AperFunction,SMDPad,CuDef*
%ADD42RoundRect,0.225000X-0.250000X0.225000X-0.250000X-0.225000X0.250000X-0.225000X0.250000X0.225000X0*%
G04 #@! TD*
G04 #@! TA.AperFunction,SMDPad,CuDef*
%ADD43RoundRect,0.250000X0.337500X0.475000X-0.337500X0.475000X-0.337500X-0.475000X0.337500X-0.475000X0*%
G04 #@! TD*
G04 #@! TA.AperFunction,SMDPad,CuDef*
%ADD44RoundRect,0.225000X0.375000X-0.225000X0.375000X0.225000X-0.375000X0.225000X-0.375000X-0.225000X0*%
G04 #@! TD*
G04 #@! TA.AperFunction,SMDPad,CuDef*
%ADD45R,0.812800X0.304800*%
G04 #@! TD*
G04 #@! TA.AperFunction,SMDPad,CuDef*
%ADD46RoundRect,0.250000X0.262500X0.450000X-0.262500X0.450000X-0.262500X-0.450000X0.262500X-0.450000X0*%
G04 #@! TD*
G04 #@! TA.AperFunction,SMDPad,CuDef*
%ADD47RoundRect,0.250000X-0.925000X0.412500X-0.925000X-0.412500X0.925000X-0.412500X0.925000X0.412500X0*%
G04 #@! TD*
G04 #@! TA.AperFunction,SMDPad,CuDef*
%ADD48RoundRect,0.150000X0.275000X-0.150000X0.275000X0.150000X-0.275000X0.150000X-0.275000X-0.150000X0*%
G04 #@! TD*
G04 #@! TA.AperFunction,SMDPad,CuDef*
%ADD49RoundRect,0.175000X0.225000X-0.175000X0.225000X0.175000X-0.225000X0.175000X-0.225000X-0.175000X0*%
G04 #@! TD*
G04 #@! TA.AperFunction,SMDPad,CuDef*
%ADD50R,0.300000X0.300000*%
G04 #@! TD*
G04 #@! TA.AperFunction,SMDPad,CuDef*
%ADD51R,0.900000X0.300000*%
G04 #@! TD*
G04 #@! TA.AperFunction,SMDPad,CuDef*
%ADD52R,0.300000X0.900000*%
G04 #@! TD*
G04 #@! TA.AperFunction,SMDPad,CuDef*
%ADD53R,1.800000X1.800000*%
G04 #@! TD*
G04 #@! TA.AperFunction,SMDPad,CuDef*
%ADD54R,0.990600X0.558800*%
G04 #@! TD*
G04 #@! TA.AperFunction,SMDPad,CuDef*
%ADD55FreePoly0,0.000000*%
G04 #@! TD*
G04 #@! TA.AperFunction,SMDPad,CuDef*
%ADD56FreePoly1,0.000000*%
G04 #@! TD*
G04 #@! TA.AperFunction,ViaPad*
%ADD57C,0.500000*%
G04 #@! TD*
G04 #@! TA.AperFunction,ViaPad*
%ADD58C,0.600000*%
G04 #@! TD*
G04 #@! TA.AperFunction,ViaPad*
%ADD59C,0.450000*%
G04 #@! TD*
G04 #@! TA.AperFunction,Conductor*
%ADD60C,0.250000*%
G04 #@! TD*
G04 #@! TA.AperFunction,Conductor*
%ADD61C,0.300000*%
G04 #@! TD*
G04 #@! TA.AperFunction,Conductor*
%ADD62C,0.500000*%
G04 #@! TD*
G04 #@! TA.AperFunction,Conductor*
%ADD63C,0.350000*%
G04 #@! TD*
G04 #@! TA.AperFunction,Conductor*
%ADD64C,0.400000*%
G04 #@! TD*
G04 APERTURE END LIST*
G04 #@! TA.AperFunction,EtchedComponent*
G36*
X117740000Y-48500000D02*
G01*
X117240000Y-48500000D01*
X117240000Y-47900000D01*
X117740000Y-47900000D01*
X117740000Y-48500000D01*
G37*
G04 #@! TD.AperFunction*
D10*
X102232500Y-52110000D03*
X104307500Y-52110000D03*
D11*
X113362500Y-59410000D03*
X113362500Y-61310000D03*
X115237500Y-60360000D03*
D12*
X115420000Y-50320000D03*
X117070000Y-50320000D03*
D13*
X97470000Y-56990000D03*
X97470000Y-55090000D03*
D14*
X75550000Y-35390000D03*
D12*
X93325000Y-48500000D03*
X94975000Y-48500000D03*
D15*
X88895000Y-35610000D03*
X87345000Y-35610000D03*
D16*
X109204400Y-51750001D03*
X109204400Y-51250000D03*
X109204400Y-50750001D03*
X109204400Y-50249999D03*
X109204400Y-49750000D03*
X109204400Y-49250001D03*
X109204400Y-48750000D03*
X109204400Y-48250001D03*
X109204400Y-47749999D03*
X109204400Y-47250000D03*
X109204400Y-46750001D03*
X109204400Y-46250000D03*
X109204400Y-45750000D03*
X109204400Y-45249999D03*
X109204400Y-44750000D03*
X109204400Y-44250001D03*
X109204400Y-43749999D03*
X109204400Y-43250000D03*
X109204400Y-42749999D03*
X109204400Y-42250000D03*
X109204400Y-41750001D03*
X109204400Y-41249999D03*
X109204400Y-40750000D03*
X109204400Y-40250001D03*
D17*
X112354399Y-53400000D03*
X112354399Y-38600000D03*
D18*
X95375000Y-38250000D03*
X92377800Y-38250000D03*
D13*
X104325000Y-56425000D03*
X104325000Y-54525000D03*
D12*
X91200000Y-43575000D03*
X92850000Y-43575000D03*
D19*
X79305100Y-50299998D03*
X80105101Y-50299998D03*
X80905100Y-50299998D03*
X81705101Y-50299998D03*
X82505099Y-50299998D03*
X83305100Y-50299998D03*
X84105101Y-50299998D03*
X84905099Y-50299998D03*
X85705100Y-50299998D03*
X86505099Y-50299998D03*
X87305100Y-50299998D03*
D20*
X88205100Y-49200001D03*
X88205100Y-48400000D03*
X88205100Y-47599999D03*
X88205100Y-46800000D03*
X88205100Y-45999999D03*
X88205100Y-45200001D03*
X88205100Y-44400000D03*
X88205100Y-43599999D03*
X88205100Y-42800001D03*
X88205100Y-42000000D03*
X88205100Y-41200001D03*
X88205100Y-40400000D03*
X88205100Y-39600002D03*
D19*
X87305100Y-38500002D03*
X86505099Y-38500002D03*
X85705100Y-38500002D03*
X84905099Y-38500002D03*
X84105101Y-38500002D03*
X83305100Y-38500002D03*
X82505099Y-38500002D03*
X81705101Y-38500002D03*
X80905100Y-38500002D03*
X80105101Y-38500002D03*
X79305100Y-38500002D03*
D20*
X78405100Y-39599999D03*
X78405100Y-40400000D03*
X78405100Y-41200001D03*
X78405100Y-42000000D03*
X78405100Y-42800001D03*
X78405100Y-43599999D03*
X78405100Y-44400000D03*
X78405100Y-45200001D03*
X78405100Y-45999999D03*
X78405100Y-46800000D03*
X78405100Y-47599999D03*
X78405100Y-48400000D03*
X78405100Y-49199998D03*
D21*
X83305100Y-44400000D03*
D22*
X78355100Y-38450000D03*
X88255100Y-38450000D03*
X88255100Y-50350000D03*
X78355100Y-50350000D03*
D21*
X81330100Y-42425000D03*
X83305100Y-42425000D03*
X85280100Y-42425000D03*
X85280100Y-44400000D03*
X85280100Y-46375000D03*
X83305100Y-46375000D03*
X81330100Y-46375000D03*
X81330100Y-44400000D03*
D10*
X95887500Y-44375000D03*
X97962500Y-44375000D03*
D23*
X110800000Y-58180000D03*
X107500000Y-58180000D03*
D24*
X87350000Y-60950000D03*
D25*
X88620000Y-60950000D03*
D26*
X92547500Y-61390000D03*
X90672500Y-61390000D03*
D12*
X91200000Y-45100000D03*
X92850000Y-45100000D03*
D10*
X100937500Y-45125000D03*
X103012500Y-45125000D03*
D12*
X101950000Y-36675000D03*
X103600000Y-36675000D03*
D27*
X103050000Y-50112500D03*
X103050000Y-48037500D03*
D28*
X83970000Y-34980000D03*
X83970000Y-33710000D03*
X83970000Y-32440000D03*
X83970000Y-31170000D03*
X79020000Y-31170000D03*
X79020000Y-32440000D03*
X79020000Y-33710000D03*
X79020000Y-34980000D03*
D11*
X92762500Y-53600000D03*
X92762500Y-55500000D03*
X94637500Y-54550000D03*
D29*
X80845000Y-53875000D03*
X80845000Y-54675000D03*
D30*
X80845000Y-55875000D03*
X80845000Y-56875000D03*
X80845000Y-57375000D03*
X80845000Y-58375000D03*
D29*
X80845000Y-59575000D03*
X80845000Y-60375000D03*
X80845000Y-60375000D03*
X80845000Y-59575000D03*
D30*
X80845000Y-58875000D03*
X80845000Y-57875000D03*
X80845000Y-56375000D03*
X80845000Y-55375000D03*
D29*
X80845000Y-54675000D03*
X80845000Y-53875000D03*
D31*
X79930000Y-52805000D03*
D32*
X75750000Y-52805000D03*
D31*
X79930000Y-61445000D03*
D32*
X75750000Y-61445000D03*
D33*
X92306250Y-34287500D03*
X94406250Y-34287500D03*
D34*
X89212200Y-33415000D03*
X87027800Y-33415000D03*
D12*
X118740000Y-50320000D03*
X120390000Y-50320000D03*
D27*
X113630000Y-57577500D03*
X113630000Y-55502500D03*
D35*
X95525000Y-57060000D03*
X93875000Y-57060000D03*
D14*
X98200000Y-50960000D03*
D36*
X97000000Y-46287500D03*
X97000000Y-48362500D03*
D37*
X108510000Y-55790000D03*
X111810000Y-55790000D03*
D38*
X83450000Y-60550000D03*
X85350000Y-60550000D03*
D39*
X90725000Y-50650000D03*
X90725000Y-52300000D03*
D40*
X101750000Y-38150000D03*
X101750000Y-39450000D03*
X103750000Y-38800000D03*
D41*
X91575000Y-31670000D03*
X94650000Y-31670000D03*
D42*
X96360000Y-33285000D03*
X96360000Y-34835000D03*
D43*
X120017500Y-54610000D03*
X117942500Y-54610000D03*
D44*
X115850000Y-57720000D03*
X115850000Y-54420000D03*
D11*
X100287500Y-54525000D03*
X100287500Y-56425000D03*
X102162500Y-55475000D03*
D35*
X92875000Y-41525000D03*
X91225000Y-41525000D03*
D45*
X107201000Y-31080000D03*
X107201000Y-31579999D03*
X107201000Y-32080001D03*
X107201000Y-32580000D03*
X107201000Y-33080001D03*
X107201000Y-33580000D03*
D20*
X109714122Y-34580001D03*
X109714122Y-30079999D03*
D39*
X96375000Y-51975000D03*
X96375000Y-53625000D03*
D14*
X98200000Y-53000000D03*
D35*
X93850000Y-46925000D03*
X92200000Y-46925000D03*
D46*
X108960000Y-61130000D03*
X107135000Y-61130000D03*
D47*
X84100000Y-54537500D03*
X84100000Y-57612500D03*
D48*
X99510000Y-60440000D03*
X99510000Y-59240000D03*
D49*
X103285000Y-61590000D03*
X103285000Y-58090000D03*
D39*
X92370000Y-58130000D03*
X92370000Y-59780000D03*
D11*
X92762500Y-50100000D03*
X92762500Y-52000000D03*
X94637500Y-51050000D03*
D50*
X87500000Y-54400000D03*
D51*
X87200000Y-54900000D03*
X87200000Y-55400000D03*
X87200000Y-55900000D03*
X87200000Y-56400000D03*
D50*
X87500000Y-56900000D03*
D52*
X88000000Y-57200000D03*
X88500000Y-57200000D03*
X89000000Y-57200000D03*
X89500000Y-57200000D03*
D50*
X90000000Y-56900000D03*
D51*
X90300000Y-56400000D03*
X90300000Y-55900000D03*
X90300000Y-55400000D03*
X90300000Y-54900000D03*
D50*
X90000000Y-54400000D03*
D52*
X89500000Y-54100000D03*
X89000000Y-54100000D03*
X88500000Y-54100000D03*
X88000000Y-54100000D03*
D53*
X88750000Y-55650000D03*
D36*
X99250000Y-46987500D03*
X99250000Y-49062500D03*
D10*
X101087500Y-41100000D03*
X103162500Y-41100000D03*
D14*
X73330000Y-35390000D03*
D10*
X117932500Y-56700000D03*
X120007500Y-56700000D03*
X97187500Y-40000000D03*
X99262500Y-40000000D03*
D37*
X117010000Y-52340000D03*
X120310000Y-52340000D03*
D15*
X88895000Y-31220000D03*
X87345000Y-31220000D03*
D54*
X97080000Y-60990002D03*
X97080000Y-60040001D03*
X97080000Y-59090000D03*
X94362200Y-59090000D03*
X94362200Y-60040001D03*
X94362200Y-60990002D03*
D55*
X116840000Y-48200000D03*
D56*
X118140000Y-48200000D03*
D57*
X110110000Y-61140000D03*
D58*
X81330100Y-46375000D03*
X85875000Y-57600000D03*
X89575000Y-38425000D03*
X82425000Y-61375000D03*
D57*
X111950000Y-57570000D03*
X103200000Y-54525000D03*
X104650000Y-36675000D03*
D58*
X85280100Y-46375000D03*
D57*
X90090000Y-31730000D03*
X82090000Y-31160000D03*
X118600000Y-52440000D03*
X100580000Y-60460000D03*
X99900000Y-44625000D03*
X104275000Y-50325000D03*
X110700000Y-43710000D03*
X110670000Y-48260000D03*
X98025000Y-41225000D03*
D59*
X95812500Y-31920000D03*
D57*
X119360000Y-48330000D03*
X94775000Y-44225000D03*
X99175000Y-54525000D03*
X105658781Y-30772500D03*
D58*
X81330100Y-42425000D03*
D59*
X89450000Y-50800000D03*
D57*
X90570000Y-35350000D03*
D58*
X79300000Y-58825000D03*
X79300000Y-55475000D03*
D57*
X105647122Y-56425000D03*
D58*
X83900000Y-52750000D03*
D59*
X90250000Y-46000000D03*
X104025000Y-44550000D03*
X103000000Y-43450000D03*
X90375000Y-42000000D03*
D57*
X105370500Y-38275000D03*
X115530000Y-43240000D03*
D59*
X105025000Y-43400000D03*
X85700000Y-36675000D03*
X90350000Y-42800000D03*
X104630000Y-43990000D03*
X104600000Y-42850000D03*
D57*
X91480000Y-35405500D03*
D59*
X104850000Y-44650000D03*
X90225000Y-48975000D03*
D57*
X104325000Y-41100000D03*
D59*
X106860000Y-41120000D03*
X105692967Y-55432338D03*
X109390000Y-58000000D03*
D57*
X82089500Y-32430000D03*
D59*
X86875000Y-48400000D03*
X90200000Y-43600000D03*
X76914500Y-35469001D03*
D57*
X102440000Y-33580000D03*
D59*
X76800000Y-37600000D03*
X90200000Y-45100000D03*
X103710000Y-33410000D03*
D57*
X103170000Y-31592000D03*
D59*
X90274999Y-41200001D03*
X79925000Y-44975000D03*
X84900000Y-49300000D03*
X98200000Y-54130000D03*
X94950000Y-55650000D03*
X89825000Y-52300000D03*
X90125000Y-40400000D03*
X96100000Y-54625000D03*
X87350000Y-59750000D03*
X83125000Y-51875000D03*
X88600000Y-59750000D03*
X84650000Y-51875000D03*
X73340000Y-34710000D03*
X82590000Y-41000000D03*
X88275000Y-52075000D03*
X79820000Y-36680000D03*
D57*
X82500000Y-39400000D03*
D59*
X89025000Y-52050000D03*
D60*
X113677699Y-55454801D02*
X113630000Y-55502500D01*
X112749399Y-51250000D02*
X113677699Y-52178300D01*
X113677699Y-52178300D02*
X113677699Y-55454801D01*
X113630000Y-55502500D02*
X114712500Y-54420000D01*
X109204400Y-51250000D02*
X112749399Y-51250000D01*
X114712500Y-54420000D02*
X115850000Y-54420000D01*
D61*
X78405100Y-44400000D02*
X83275000Y-44400000D01*
D60*
X120017500Y-54610000D02*
X120017500Y-53857500D01*
D62*
X84125000Y-61775000D02*
X82825000Y-61775000D01*
X94925000Y-44375000D02*
X94775000Y-44225000D01*
D63*
X95812500Y-31920000D02*
X94900000Y-31920000D01*
D60*
X80845000Y-53875000D02*
X80845000Y-53720000D01*
D61*
X89580000Y-31220000D02*
X90090000Y-31730000D01*
D63*
X89550000Y-38450000D02*
X89575000Y-38425000D01*
X104062500Y-50112500D02*
X104275000Y-50325000D01*
D61*
X96360000Y-33285000D02*
X96360000Y-32467500D01*
D62*
X99510000Y-60440000D02*
X100560000Y-60440000D01*
D63*
X99175000Y-54525000D02*
X103200000Y-54525000D01*
D62*
X82425000Y-61175000D02*
X81625000Y-60375000D01*
X108960000Y-61130000D02*
X110100000Y-61130000D01*
D61*
X85280100Y-42425000D02*
X85280100Y-46375000D01*
D63*
X110020000Y-55790000D02*
X108510000Y-55790000D01*
D62*
X100400000Y-45125000D02*
X99900000Y-44625000D01*
D61*
X100250000Y-41225000D02*
X100350000Y-41125000D01*
D62*
X96762500Y-46287500D02*
X95887500Y-45412500D01*
D63*
X111957500Y-57577500D02*
X111950000Y-57570000D01*
D60*
X110660001Y-48250001D02*
X110670000Y-48260000D01*
X120017500Y-53857500D02*
X118600000Y-52440000D01*
D61*
X81330100Y-46375000D02*
X81330100Y-42425000D01*
D63*
X98775000Y-54525000D02*
X99175000Y-54525000D01*
X99115000Y-54525000D02*
X98935000Y-54525000D01*
D62*
X82425000Y-61375000D02*
X82425000Y-61175000D01*
D61*
X88255100Y-50350000D02*
X89000000Y-50350000D01*
D62*
X85350000Y-60550000D02*
X84125000Y-61775000D01*
D61*
X96360000Y-32467500D02*
X95812500Y-31920000D01*
D63*
X82100000Y-31170000D02*
X82090000Y-31160000D01*
D61*
X89000000Y-50350000D02*
X89450000Y-50800000D01*
D62*
X97080000Y-60040001D02*
X99110001Y-60040001D01*
X97000000Y-46287500D02*
X96762500Y-46287500D01*
D63*
X102232500Y-52110000D02*
X102232500Y-50930000D01*
D62*
X110100000Y-61130000D02*
X110110000Y-61140000D01*
X84100000Y-57612500D02*
X85862500Y-57612500D01*
D63*
X111807500Y-57577500D02*
X110020000Y-55790000D01*
D61*
X100350000Y-41125000D02*
X101062500Y-41125000D01*
D63*
X113630000Y-57577500D02*
X111957500Y-57577500D01*
X119360000Y-49290000D02*
X120390000Y-50320000D01*
D61*
X79255098Y-50350000D02*
X79305100Y-50299998D01*
X97187500Y-40387500D02*
X98025000Y-41225000D01*
D62*
X99110001Y-60040001D02*
X99510000Y-60440000D01*
X97000000Y-46287500D02*
X98550000Y-46287500D01*
D63*
X102232500Y-50930000D02*
X103050000Y-50112500D01*
D60*
X109204400Y-43749999D02*
X110660001Y-43749999D01*
X109204400Y-48250001D02*
X110660001Y-48250001D01*
D61*
X83275000Y-44400000D02*
X85280100Y-44400000D01*
D62*
X81625000Y-60375000D02*
X80845000Y-60375000D01*
D61*
X86505099Y-47599999D02*
X85280100Y-46375000D01*
D63*
X103050000Y-50112500D02*
X104062500Y-50112500D01*
X111950000Y-57570000D02*
X111942500Y-57577500D01*
D61*
X88895000Y-31220000D02*
X89580000Y-31220000D01*
D60*
X80845000Y-53720000D02*
X79930000Y-52805000D01*
D61*
X90310000Y-35610000D02*
X90570000Y-35350000D01*
X81330100Y-42425000D02*
X85280100Y-42425000D01*
D63*
X111942500Y-57577500D02*
X111807500Y-57577500D01*
D60*
X110660001Y-43749999D02*
X110700000Y-43710000D01*
D62*
X82825000Y-61775000D02*
X82425000Y-61375000D01*
X95887500Y-45412500D02*
X95887500Y-44375000D01*
D63*
X88255100Y-38450000D02*
X89550000Y-38450000D01*
D61*
X87355102Y-50350000D02*
X87305100Y-50299998D01*
D63*
X83970000Y-31170000D02*
X82100000Y-31170000D01*
D62*
X95887500Y-44375000D02*
X94925000Y-44375000D01*
X85862500Y-57612500D02*
X85875000Y-57600000D01*
D61*
X98025000Y-41225000D02*
X100250000Y-41225000D01*
D63*
X97470000Y-55115000D02*
X95525000Y-57060000D01*
D61*
X88895000Y-35610000D02*
X90310000Y-35610000D01*
D63*
X99175000Y-54525000D02*
X99115000Y-54525000D01*
X97470000Y-55090000D02*
X97470000Y-55115000D01*
X103200000Y-54525000D02*
X104325000Y-54525000D01*
D61*
X106893500Y-30772500D02*
X105658781Y-30772500D01*
D62*
X98550000Y-46287500D02*
X99250000Y-46987500D01*
D61*
X79305100Y-50299998D02*
X80105101Y-50299998D01*
X88255100Y-50350000D02*
X87355102Y-50350000D01*
D63*
X97470000Y-55090000D02*
X98210000Y-55090000D01*
D61*
X97187500Y-40000000D02*
X97187500Y-40387500D01*
X88205100Y-47599999D02*
X86505099Y-47599999D01*
D60*
X103600000Y-36675000D02*
X104650000Y-36675000D01*
D61*
X107201000Y-31080000D02*
X106893500Y-30772500D01*
D62*
X100937500Y-45125000D02*
X100400000Y-45125000D01*
D61*
X85280100Y-46375000D02*
X81330100Y-46375000D01*
X78355100Y-38450000D02*
X78355100Y-50350000D01*
X78355100Y-50350000D02*
X79255098Y-50350000D01*
D63*
X98210000Y-55090000D02*
X98775000Y-54525000D01*
D62*
X100560000Y-60440000D02*
X100580000Y-60460000D01*
D63*
X119360000Y-48330000D02*
X119360000Y-49290000D01*
D62*
X101807800Y-57992200D02*
X94402200Y-57992200D01*
X90672500Y-59692500D02*
X90672500Y-61390000D01*
X110261771Y-59410000D02*
X109837270Y-58985499D01*
X89920000Y-59050000D02*
X87700000Y-59050000D01*
X87700000Y-59050000D02*
X84900000Y-59050000D01*
X89975000Y-58995000D02*
X89920000Y-59050000D01*
D60*
X79300000Y-58825000D02*
X80050000Y-59575000D01*
D62*
X88000000Y-57850000D02*
X88000000Y-57200000D01*
D60*
X80100000Y-54675000D02*
X79300000Y-55475000D01*
D62*
X88000000Y-58750000D02*
X88000000Y-57850000D01*
X83450000Y-60500000D02*
X83450000Y-60550000D01*
X83450000Y-60550000D02*
X82475000Y-59575000D01*
X94362200Y-58032200D02*
X94402200Y-57992200D01*
X104721812Y-57930000D02*
X107030000Y-57930000D01*
X87700000Y-59050000D02*
X88000000Y-58750000D01*
D60*
X88500000Y-57200000D02*
X88000000Y-57700000D01*
D62*
X84900000Y-59050000D02*
X83450000Y-60500000D01*
X82475000Y-59575000D02*
X80845000Y-59575000D01*
D60*
X87500000Y-57350000D02*
X88000000Y-57850000D01*
X80050000Y-59575000D02*
X80845000Y-59575000D01*
X88000000Y-57700000D02*
X88000000Y-57850000D01*
D62*
X91790000Y-57180000D02*
X89975000Y-58995000D01*
D60*
X80845000Y-54675000D02*
X80100000Y-54675000D01*
X87500000Y-56900000D02*
X87500000Y-57350000D01*
D62*
X108085499Y-58985499D02*
X107100000Y-58000000D01*
X93590000Y-57180000D02*
X91790000Y-57180000D01*
X94362200Y-59090000D02*
X94362200Y-58032200D01*
X103766812Y-58885000D02*
X102700600Y-58885000D01*
X113362500Y-59410000D02*
X110261771Y-59410000D01*
X104721812Y-57930000D02*
X103766812Y-58885000D01*
X107030000Y-57930000D02*
X107100000Y-58000000D01*
X94402200Y-57992200D02*
X93590000Y-57180000D01*
X89975000Y-58995000D02*
X90672500Y-59692500D01*
X102700600Y-58885000D02*
X101807800Y-57992200D01*
X109837270Y-58985499D02*
X108085499Y-58985499D01*
X100870000Y-52542878D02*
X100870000Y-50870000D01*
D63*
X100287500Y-56425000D02*
X104325000Y-56425000D01*
D62*
X92850000Y-40700000D02*
X92475000Y-40325000D01*
D63*
X95970000Y-50020000D02*
X100020000Y-50020000D01*
D62*
X100770000Y-42740000D02*
X93685000Y-42740000D01*
X80905100Y-50299998D02*
X80905100Y-50855100D01*
D64*
X103183637Y-45296137D02*
X104250823Y-45296137D01*
D62*
X103012500Y-45125000D02*
X103012500Y-44982500D01*
X103012500Y-44982500D02*
X100770000Y-42740000D01*
D63*
X93325000Y-48500000D02*
X93650000Y-48500000D01*
D62*
X100870000Y-50870000D02*
X100095000Y-50095000D01*
X105647122Y-56425000D02*
X104325000Y-56425000D01*
D60*
X103578000Y-32580000D02*
X103570000Y-32572000D01*
D62*
X93850000Y-46100000D02*
X93850000Y-46925000D01*
D64*
X106404686Y-47450000D02*
X109270000Y-47450000D01*
D60*
X107201000Y-32580000D02*
X103578000Y-32580000D01*
D62*
X80905100Y-50855100D02*
X82825000Y-52775000D01*
X106790000Y-55282122D02*
X104932878Y-53425000D01*
X100100000Y-34740000D02*
X102268000Y-32572000D01*
D63*
X92377800Y-40227800D02*
X92475000Y-40325000D01*
D62*
X84100000Y-54050000D02*
X84100000Y-54537500D01*
D63*
X92377800Y-38250000D02*
X92377800Y-40227800D01*
D62*
X92377800Y-36162200D02*
X92377800Y-38250000D01*
D63*
X95300000Y-47425000D02*
X95775000Y-47900000D01*
X95775000Y-47900000D02*
X95775000Y-49825000D01*
D62*
X104932878Y-53425000D02*
X101752122Y-53425000D01*
X101752122Y-53425000D02*
X100870000Y-52542878D01*
X94800000Y-46925000D02*
X95300000Y-47425000D01*
D63*
X94725000Y-47425000D02*
X95300000Y-47425000D01*
D62*
X102268000Y-32572000D02*
X103570000Y-32572000D01*
X82825000Y-52775000D02*
X83875000Y-52775000D01*
D63*
X93650000Y-48500000D02*
X94725000Y-47425000D01*
D62*
X92850000Y-45100000D02*
X93850000Y-46100000D01*
X94406250Y-34287500D02*
X95217500Y-34287500D01*
X105647122Y-56425000D02*
X106790000Y-55282122D01*
X95670000Y-34740000D02*
X100100000Y-34740000D01*
X94406250Y-34287500D02*
X94252500Y-34287500D01*
X82825000Y-52775000D02*
X84100000Y-54050000D01*
X83875000Y-52775000D02*
X83900000Y-52750000D01*
X92850000Y-45100000D02*
X92850000Y-40700000D01*
D63*
X95775000Y-49825000D02*
X95970000Y-50020000D01*
D64*
X104250823Y-45296137D02*
X106404686Y-47450000D01*
D62*
X95217500Y-34287500D02*
X95670000Y-34740000D01*
X93850000Y-46925000D02*
X94800000Y-46925000D01*
X94252500Y-34287500D02*
X92377800Y-36162200D01*
X93685000Y-42740000D02*
X92850000Y-43575000D01*
D63*
X100020000Y-50020000D02*
X100095000Y-50095000D01*
X117132500Y-57500000D02*
X117932500Y-56700000D01*
X115850000Y-57500000D02*
X117132500Y-57500000D01*
X115400000Y-56460000D02*
X115850000Y-56910000D01*
X115850000Y-56910000D02*
X115850000Y-57720000D01*
X111810000Y-55850000D02*
X112420000Y-56460000D01*
X112420000Y-56460000D02*
X115400000Y-56460000D01*
D60*
X108236534Y-44750000D02*
X109204400Y-44750000D01*
X105997532Y-42510998D02*
X108236534Y-44750000D01*
X104025000Y-44550000D02*
X104025000Y-42575000D01*
X90250000Y-46000000D02*
X88205100Y-45999999D01*
X105497239Y-42300000D02*
X105708237Y-42510998D01*
X104025000Y-42575000D02*
X104300000Y-42300000D01*
X104300000Y-42300000D02*
X105497239Y-42300000D01*
X105708237Y-42510998D02*
X105997532Y-42510998D01*
X103550000Y-42350000D02*
X104100000Y-41800000D01*
X103550000Y-43275000D02*
X103550000Y-42350000D01*
X105915154Y-41800000D02*
X108365155Y-44250001D01*
X103000000Y-43450000D02*
X103375000Y-43450000D01*
X108365155Y-44250001D02*
X109204400Y-44250001D01*
X104100000Y-41800000D02*
X105915154Y-41800000D01*
X103375000Y-43450000D02*
X103550000Y-43275000D01*
X90375000Y-42000000D02*
X88205100Y-42000000D01*
D61*
X121040000Y-53070000D02*
X121040000Y-55667500D01*
X114560000Y-50705746D02*
X115214254Y-51360000D01*
X115520000Y-47650000D02*
X115520000Y-43250000D01*
X103750000Y-38800000D02*
X97350000Y-38800000D01*
X115520000Y-43250000D02*
X115530000Y-43240000D01*
X97350000Y-38800000D02*
X96800000Y-38250000D01*
X115520000Y-47650000D02*
X114560000Y-48610000D01*
X115214254Y-51360000D02*
X119330000Y-51360000D01*
X121040000Y-55667500D02*
X120007500Y-56700000D01*
X120310000Y-52340000D02*
X121040000Y-53070000D01*
X104275000Y-38275000D02*
X103750000Y-38800000D01*
X119330000Y-51360000D02*
X120310000Y-52340000D01*
X114560000Y-48610000D02*
X114560000Y-50705746D01*
X96800000Y-38250000D02*
X95375000Y-38250000D01*
X105370500Y-38275000D02*
X104275000Y-38275000D01*
X84600000Y-35610000D02*
X83970000Y-34980000D01*
X87027800Y-33415000D02*
X87027800Y-35292800D01*
X87345000Y-35610000D02*
X84600000Y-35610000D01*
X87027800Y-35292800D02*
X87345000Y-35610000D01*
D60*
X85700000Y-36675000D02*
X85700000Y-38494902D01*
X85700000Y-38494902D02*
X85705100Y-38500002D01*
X107979294Y-45750000D02*
X109204400Y-45750000D01*
X105629294Y-43400000D02*
X107979294Y-45750000D01*
X105025000Y-43400000D02*
X105629294Y-43400000D01*
X104630000Y-43990000D02*
X105589968Y-43990000D01*
X105589968Y-43990000D02*
X107849968Y-46250000D01*
X90350000Y-42800000D02*
X88205100Y-42800001D01*
X107849968Y-46250000D02*
X109204400Y-46250000D01*
X91480000Y-35405500D02*
X90295500Y-36590000D01*
X105813413Y-42955499D02*
X108107913Y-45249999D01*
X108107913Y-45249999D02*
X109204400Y-45249999D01*
X90295500Y-36590000D02*
X86990000Y-36590000D01*
X105418620Y-42850000D02*
X105524119Y-42955499D01*
X104600000Y-42850000D02*
X105418620Y-42850000D01*
X86505099Y-37074901D02*
X86505099Y-38500002D01*
X105524119Y-42955499D02*
X105813413Y-42955499D01*
X86990000Y-36590000D02*
X86505099Y-37074901D01*
X89999999Y-49200001D02*
X88205100Y-49200001D01*
X104850000Y-44650000D02*
X106950001Y-46750001D01*
X90225000Y-48975000D02*
X89999999Y-49200001D01*
X106950001Y-46750001D02*
X109204400Y-46750001D01*
X109204400Y-42250000D02*
X106993774Y-42250000D01*
X106993774Y-42250000D02*
X104743774Y-40000000D01*
X104743774Y-40000000D02*
X99262500Y-40000000D01*
X104667499Y-51750001D02*
X109204400Y-51750001D01*
X104307500Y-52110000D02*
X104667499Y-51750001D01*
D61*
X103162500Y-41100000D02*
X104325000Y-41100000D01*
X107490001Y-41750001D02*
X109204400Y-41750001D01*
X106860000Y-41120000D02*
X107490001Y-41750001D01*
D60*
X99250000Y-49062500D02*
X104752500Y-49062500D01*
X104752500Y-49062500D02*
X106440001Y-50750001D01*
X106440001Y-50750001D02*
X109204400Y-50750001D01*
X104081359Y-46505499D02*
X100605499Y-46505499D01*
X100605499Y-46505499D02*
X98475000Y-44375000D01*
X109204400Y-48750000D02*
X106325860Y-48750000D01*
X106325860Y-48750000D02*
X104081359Y-46505499D01*
X98475000Y-44375000D02*
X97962500Y-44375000D01*
X104767999Y-48617999D02*
X104936619Y-48617999D01*
X103050000Y-48037500D02*
X104187500Y-48037500D01*
X104187500Y-48037500D02*
X104767999Y-48617999D01*
X104936619Y-48617999D02*
X106068620Y-49750000D01*
X106068620Y-49750000D02*
X109204400Y-49750000D01*
X106197241Y-49250001D02*
X109204400Y-49250001D01*
X98275000Y-48000000D02*
X101225000Y-48000000D01*
X97912500Y-48362500D02*
X98275000Y-48000000D01*
X103959241Y-47012001D02*
X106197241Y-49250001D01*
X101225000Y-48000000D02*
X102212999Y-47012001D01*
X102212999Y-47012001D02*
X103959241Y-47012001D01*
X97000000Y-48362500D02*
X97912500Y-48362500D01*
D61*
X114850000Y-52340000D02*
X117010000Y-52340000D01*
X112759999Y-50249999D02*
X114850000Y-52340000D01*
X109204400Y-50249999D02*
X112759999Y-50249999D01*
X117010000Y-52340000D02*
X117010000Y-53677500D01*
X117010000Y-53677500D02*
X117942500Y-54610000D01*
X85640000Y-32753900D02*
X87173900Y-31220000D01*
X87345000Y-31220000D02*
X87345000Y-31547800D01*
X83970000Y-33710000D02*
X85260000Y-33710000D01*
X87173900Y-31220000D02*
X87345000Y-31220000D01*
X85640000Y-33330000D02*
X85640000Y-32753900D01*
X85260000Y-33710000D02*
X85640000Y-33330000D01*
X87345000Y-31547800D02*
X89212200Y-33415000D01*
D63*
X91610000Y-30490000D02*
X91575000Y-30525000D01*
X92306250Y-34287500D02*
X92306250Y-32401250D01*
X81470000Y-32970391D02*
X81470000Y-30890000D01*
X91575000Y-30525000D02*
X91575000Y-31670000D01*
X91300000Y-30180000D02*
X91610000Y-30490000D01*
X79460391Y-34980000D02*
X81470000Y-32970391D01*
X79020000Y-34980000D02*
X79460391Y-34980000D01*
X92306250Y-32401250D02*
X91575000Y-31670000D01*
X82180000Y-30180000D02*
X91300000Y-30180000D01*
X81470000Y-30890000D02*
X82180000Y-30180000D01*
D62*
X113362500Y-61310000D02*
X115866457Y-61310000D01*
D63*
X102162500Y-55475000D02*
X98985000Y-55475000D01*
X109390000Y-58000000D02*
X110620000Y-58000000D01*
D62*
X111285000Y-58665000D02*
X110800000Y-58180000D01*
D63*
X110620000Y-58000000D02*
X110800000Y-58180000D01*
X102162500Y-55475000D02*
X105650305Y-55475000D01*
D62*
X116420000Y-59930000D02*
X115155000Y-58665000D01*
X115155000Y-58665000D02*
X111285000Y-58665000D01*
D63*
X105650305Y-55475000D02*
X105692967Y-55432338D01*
X98985000Y-55475000D02*
X97470000Y-56990000D01*
D62*
X115866457Y-61310000D02*
X116420000Y-60756457D01*
X116420000Y-60756457D02*
X116420000Y-59930000D01*
X92370000Y-59780000D02*
X92370000Y-61212500D01*
X92370000Y-61212500D02*
X92547500Y-61390000D01*
D60*
X106386479Y-39450000D02*
X101750000Y-39450000D01*
X114719999Y-41249999D02*
X116840000Y-43370000D01*
X109204400Y-41249999D02*
X114719999Y-41249999D01*
D61*
X116290000Y-48200000D02*
X115420000Y-49070000D01*
D60*
X116840000Y-43370000D02*
X116840000Y-48200000D01*
D61*
X116840000Y-48200000D02*
X116290000Y-48200000D01*
X115420000Y-49070000D02*
X115420000Y-50320000D01*
D60*
X109204400Y-41249999D02*
X108186478Y-41249999D01*
X108186478Y-41249999D02*
X106386479Y-39450000D01*
X109204400Y-40750000D02*
X108315099Y-40750000D01*
X106810000Y-37006901D02*
X105683099Y-35880000D01*
X101300000Y-37850000D02*
X101300000Y-36875000D01*
X102745000Y-35880000D02*
X101950000Y-36675000D01*
X105683099Y-35880000D02*
X102745000Y-35880000D01*
X101500000Y-36675000D02*
X101950000Y-36675000D01*
X101300000Y-36875000D02*
X101500000Y-36675000D01*
X101750000Y-38150000D02*
X101600000Y-38150000D01*
X108315099Y-40750000D02*
X106810000Y-39244901D01*
X106810000Y-39244901D02*
X106810000Y-37006901D01*
X101600000Y-38150000D02*
X101300000Y-37850000D01*
D61*
X92200000Y-47700000D02*
X92200000Y-46925000D01*
X83960000Y-32430000D02*
X83970000Y-32440000D01*
X82089500Y-32430000D02*
X83960000Y-32430000D01*
X91500000Y-48400000D02*
X92200000Y-47700000D01*
X86875000Y-48400000D02*
X88205100Y-48400000D01*
X90100000Y-48400000D02*
X91500000Y-48400000D01*
X90100000Y-48400000D02*
X88205100Y-48400000D01*
X91175000Y-43600000D02*
X91200000Y-43575000D01*
D60*
X90200000Y-43600000D02*
X88205100Y-43599999D01*
D61*
X106010000Y-33580000D02*
X105540000Y-34050000D01*
X102910000Y-34050000D02*
X102440000Y-33580000D01*
X77910000Y-31330000D02*
X76914500Y-32325500D01*
X76914500Y-32325500D02*
X76914500Y-35469001D01*
X90200000Y-43600000D02*
X91175000Y-43600000D01*
X78860000Y-31330000D02*
X77910000Y-31330000D01*
X105540000Y-34050000D02*
X102910000Y-34050000D01*
X107201000Y-33580000D02*
X106010000Y-33580000D01*
D60*
X77800000Y-30140000D02*
X76370000Y-31570000D01*
X76370000Y-37170000D02*
X76800000Y-37600000D01*
D61*
X105060000Y-33080000D02*
X104730000Y-33410000D01*
X90200000Y-45250000D02*
X90000000Y-45450000D01*
D60*
X80160000Y-32440000D02*
X80730000Y-31870000D01*
X80310000Y-30140000D02*
X77800000Y-30140000D01*
X76370000Y-31570000D02*
X76370000Y-37170000D01*
X80730000Y-31870000D02*
X80730000Y-30560000D01*
D61*
X90200000Y-45100000D02*
X91200000Y-45100000D01*
X90000000Y-45450000D02*
X89800000Y-45450000D01*
X89800000Y-45450000D02*
X88750000Y-44400000D01*
D60*
X80730000Y-30560000D02*
X80310000Y-30140000D01*
D61*
X90200000Y-45100000D02*
X90200000Y-45250000D01*
X104730000Y-33410000D02*
X103710000Y-33410000D01*
D60*
X79020000Y-32440000D02*
X80160000Y-32440000D01*
D61*
X88750000Y-44400000D02*
X88205100Y-44400000D01*
X107201000Y-33080001D02*
X105060000Y-33080000D01*
D60*
X90900001Y-41200001D02*
X91225000Y-41525000D01*
D61*
X107201000Y-31579999D02*
X103182001Y-31579999D01*
D60*
X88205100Y-41200001D02*
X90274999Y-41200001D01*
X90274999Y-41200001D02*
X90900001Y-41200001D01*
D61*
X103182001Y-31579999D02*
X103170000Y-31592000D01*
D60*
X78750000Y-51975000D02*
X81000000Y-51975000D01*
X80845000Y-56875000D02*
X81700000Y-56875000D01*
X78350000Y-56475000D02*
X78350000Y-52375000D01*
X82000000Y-57175000D02*
X82000000Y-57675000D01*
X82000000Y-55375000D02*
X82525000Y-55900000D01*
X79750000Y-57875000D02*
X78350000Y-56475000D01*
X81800000Y-57875000D02*
X80845000Y-57875000D01*
X78350000Y-52375000D02*
X78750000Y-51975000D01*
X80845000Y-57875000D02*
X79750000Y-57875000D01*
X82000000Y-52975000D02*
X82000000Y-55375000D01*
X82000000Y-57675000D02*
X81800000Y-57875000D01*
X81700000Y-56875000D02*
X82000000Y-57175000D01*
X82525000Y-55900000D02*
X87200000Y-55900000D01*
X81000000Y-51975000D02*
X82000000Y-52975000D01*
X80845000Y-56375000D02*
X79950000Y-56375000D01*
X79650000Y-56675000D02*
X79650000Y-57125000D01*
X79900000Y-57375000D02*
X80845000Y-57375000D01*
X79950000Y-56375000D02*
X79650000Y-56675000D01*
X87200000Y-56400000D02*
X80870000Y-56400000D01*
X79650000Y-57125000D02*
X79900000Y-57375000D01*
X80870000Y-56400000D02*
X80845000Y-56375000D01*
D61*
X118140000Y-48320000D02*
X118370000Y-48320000D01*
X118370000Y-48320000D02*
X118740000Y-48690000D01*
X118140000Y-48200000D02*
X118140000Y-48320000D01*
X118740000Y-48690000D02*
X118740000Y-50320000D01*
X118740000Y-50320000D02*
X117070000Y-50320000D01*
D63*
X90875000Y-50100000D02*
X90725000Y-50250000D01*
X92762500Y-50100000D02*
X90875000Y-50100000D01*
X90725000Y-50250000D02*
X90725000Y-50650000D01*
D60*
X98230000Y-50960000D02*
X97390000Y-50960000D01*
X92400000Y-52000000D02*
X92762500Y-52000000D01*
X90000000Y-54400000D02*
X92400000Y-52000000D01*
X92762500Y-52000000D02*
X96350000Y-52000000D01*
X96350000Y-52000000D02*
X96375000Y-51975000D01*
X97390000Y-50960000D02*
X96375000Y-51975000D01*
X84905099Y-50299998D02*
X84905099Y-49305099D01*
X91200000Y-51450000D02*
X91537500Y-51112500D01*
X85150000Y-51450000D02*
X91200000Y-51450000D01*
X84905099Y-51205099D02*
X85150000Y-51450000D01*
X91600000Y-51050000D02*
X91537500Y-51112500D01*
X94637500Y-51050000D02*
X91600000Y-51050000D01*
X84905099Y-50299998D02*
X84905099Y-51205099D01*
X84905099Y-49305099D02*
X84900000Y-49300000D01*
D63*
X94975000Y-48500000D02*
X94975000Y-50712500D01*
X94975000Y-50712500D02*
X94637500Y-51050000D01*
X96250000Y-53750000D02*
X96375000Y-53625000D01*
X92762500Y-53750000D02*
X96250000Y-53750000D01*
X98200000Y-54130000D02*
X98200000Y-53000000D01*
D60*
X90300000Y-54900000D02*
X92012500Y-54900000D01*
X92012500Y-54900000D02*
X92762500Y-55650000D01*
D63*
X90725000Y-52300000D02*
X89825000Y-52300000D01*
X94950000Y-55650000D02*
X92762500Y-55650000D01*
X90125000Y-40400000D02*
X88205100Y-40400000D01*
X96025000Y-54700000D02*
X96100000Y-54625000D01*
X94637500Y-54700000D02*
X96025000Y-54700000D01*
D62*
X99360000Y-59090000D02*
X99510000Y-59240000D01*
X99960000Y-59690000D02*
X109559599Y-59690000D01*
X97080000Y-59090000D02*
X99360000Y-59090000D01*
X109559599Y-59690000D02*
X110229599Y-60360000D01*
X99510000Y-59240000D02*
X99960000Y-59690000D01*
X110229599Y-60360000D02*
X115237500Y-60360000D01*
X106465000Y-60460000D02*
X107135000Y-61130000D01*
X101465598Y-61714402D02*
X102720000Y-60460000D01*
X102720000Y-60460000D02*
X106465000Y-60460000D01*
X95086600Y-61714402D02*
X101465598Y-61714402D01*
X94362200Y-60990002D02*
X95086600Y-61714402D01*
X93421900Y-59181900D02*
X93421900Y-59814400D01*
X93421900Y-59814400D02*
X93647501Y-60040001D01*
X93647501Y-60040001D02*
X94362200Y-60040001D01*
X92370000Y-58130000D02*
X93421900Y-59181900D01*
D61*
X82505099Y-51255099D02*
X83125000Y-51875000D01*
X87350000Y-59750000D02*
X87350000Y-60950000D01*
X82505099Y-50299998D02*
X82505099Y-51255099D01*
X83305100Y-51005100D02*
X84175000Y-51875000D01*
X88600000Y-59750000D02*
X88600000Y-60930000D01*
X83305100Y-50299998D02*
X83305100Y-51005100D01*
X84175000Y-51875000D02*
X84650000Y-51875000D01*
X88600000Y-60930000D02*
X88620000Y-60950000D01*
X88275000Y-52775000D02*
X88275000Y-52075000D01*
D60*
X83300000Y-39450000D02*
X83300000Y-38505102D01*
D61*
X89000000Y-54100000D02*
X89000000Y-53500000D01*
D60*
X82410000Y-36680000D02*
X79820000Y-36680000D01*
D61*
X89000000Y-53500000D02*
X88275000Y-52775000D01*
D60*
X83305100Y-37575100D02*
X82410000Y-36680000D01*
X73340000Y-35380000D02*
X73330000Y-35390000D01*
X73340000Y-34710000D02*
X73340000Y-35380000D01*
X83305100Y-37735100D02*
X83305100Y-37575100D01*
X83305100Y-38500002D02*
X83305100Y-37735100D01*
X83300000Y-40290000D02*
X82590000Y-41000000D01*
X83300000Y-39450000D02*
X83300000Y-40290000D01*
X83300000Y-38505102D02*
X83305100Y-38500002D01*
X82505099Y-38500002D02*
X82505099Y-37785099D01*
X75550000Y-37240000D02*
X75550000Y-35390000D01*
X89025000Y-52050000D02*
X89025000Y-52750000D01*
X78060000Y-37380000D02*
X77140000Y-38300000D01*
X89500000Y-53225000D02*
X89500000Y-54100000D01*
X89025000Y-52750000D02*
X89500000Y-53225000D01*
X82505099Y-38500002D02*
X82505099Y-39394901D01*
X77140000Y-38300000D02*
X76610000Y-38300000D01*
X82100000Y-37380000D02*
X78060000Y-37380000D01*
X82505099Y-37785099D02*
X82100000Y-37380000D01*
X82505099Y-39394901D02*
X82500000Y-39400000D01*
X76610000Y-38300000D02*
X75550000Y-37240000D01*
X87200000Y-55400000D02*
X88500000Y-55400000D01*
X88500000Y-55400000D02*
X88750000Y-55650000D01*
X89500000Y-56400000D02*
X88750000Y-55650000D01*
X90300000Y-56400000D02*
X89500000Y-56400000D01*
M02*
