G04 #@! TF.GenerationSoftware,KiCad,Pcbnew,7.0.1-3b83917a11~172~ubuntu22.04.1*
G04 #@! TF.CreationDate,2023-04-18T13:12:10+02:00*
G04 #@! TF.ProjectId,154-watch,3135342d-7761-4746-9368-2e6b69636164,rev?*
G04 #@! TF.SameCoordinates,Original*
G04 #@! TF.FileFunction,Copper,L2,Inr*
G04 #@! TF.FilePolarity,Positive*
%FSLAX46Y46*%
G04 Gerber Fmt 4.6, Leading zero omitted, Abs format (unit mm)*
G04 Created by KiCad (PCBNEW 7.0.1-3b83917a11~172~ubuntu22.04.1) date 2023-04-18 13:12:10*
%MOMM*%
%LPD*%
G01*
G04 APERTURE LIST*
G04 #@! TA.AperFunction,ComponentPad*
%ADD10R,1.000000X1.000000*%
G04 #@! TD*
G04 #@! TA.AperFunction,ComponentPad*
%ADD11O,1.000000X1.000000*%
G04 #@! TD*
G04 #@! TA.AperFunction,ComponentPad*
%ADD12O,2.100000X1.000000*%
G04 #@! TD*
G04 #@! TA.AperFunction,ComponentPad*
%ADD13O,1.600000X1.000000*%
G04 #@! TD*
G04 #@! TA.AperFunction,ViaPad*
%ADD14C,0.500000*%
G04 #@! TD*
G04 #@! TA.AperFunction,ViaPad*
%ADD15C,0.600000*%
G04 #@! TD*
G04 #@! TA.AperFunction,ViaPad*
%ADD16C,0.450000*%
G04 #@! TD*
G04 #@! TA.AperFunction,Conductor*
%ADD17C,0.250000*%
G04 #@! TD*
G04 #@! TA.AperFunction,Conductor*
%ADD18C,0.300000*%
G04 #@! TD*
G04 #@! TA.AperFunction,Conductor*
%ADD19C,0.350000*%
G04 #@! TD*
G04 APERTURE END LIST*
D10*
X87350000Y-60950000D03*
D11*
X88620000Y-60950000D03*
D12*
X79930000Y-52805000D03*
D13*
X75750000Y-52805000D03*
D12*
X79930000Y-61445000D03*
D13*
X75750000Y-61445000D03*
D14*
X110110000Y-61140000D03*
D15*
X81330100Y-46375000D03*
X85875000Y-57600000D03*
X89575000Y-38425000D03*
X82425000Y-61375000D03*
D14*
X111950000Y-57570000D03*
X103200000Y-54525000D03*
X104650000Y-36675000D03*
D15*
X85280100Y-46375000D03*
D14*
X90090000Y-31730000D03*
X82090000Y-31160000D03*
X118600000Y-52440000D03*
X100580000Y-60460000D03*
X99900000Y-44625000D03*
X104275000Y-50325000D03*
X110700000Y-43710000D03*
X110670000Y-48260000D03*
X98025000Y-41225000D03*
D16*
X95812500Y-31920000D03*
D14*
X119360000Y-48330000D03*
X94775000Y-44225000D03*
X99175000Y-54525000D03*
X105658781Y-30772500D03*
D15*
X81330100Y-42425000D03*
D16*
X89450000Y-50800000D03*
D14*
X90570000Y-35350000D03*
D15*
X79300000Y-58825000D03*
X79300000Y-55475000D03*
D14*
X105647122Y-56425000D03*
D15*
X83900000Y-52750000D03*
D16*
X90250000Y-46000000D03*
X104025000Y-44550000D03*
X103000000Y-43450000D03*
X90375000Y-42000000D03*
D14*
X105370500Y-38275000D03*
X115530000Y-43240000D03*
D16*
X105025000Y-43400000D03*
X85700000Y-36675000D03*
X90350000Y-42800000D03*
X104630000Y-43990000D03*
X104600000Y-42850000D03*
D14*
X91480000Y-35405500D03*
D16*
X104850000Y-44650000D03*
X90225000Y-48975000D03*
D14*
X104325000Y-41100000D03*
D16*
X106860000Y-41120000D03*
X105692967Y-55432338D03*
X109390000Y-58000000D03*
D14*
X82089500Y-32430000D03*
D16*
X86875000Y-48400000D03*
X90200000Y-43600000D03*
X76914500Y-35469001D03*
D14*
X102440000Y-33580000D03*
D16*
X76800000Y-37600000D03*
X90200000Y-45100000D03*
X103710000Y-33410000D03*
D14*
X103170000Y-31592000D03*
D16*
X90274999Y-41200001D03*
X79925000Y-44975000D03*
X84900000Y-49300000D03*
X98200000Y-54130000D03*
X94950000Y-55650000D03*
X89825000Y-52300000D03*
X90125000Y-40400000D03*
X96100000Y-54625000D03*
X87350000Y-59750000D03*
X83125000Y-51875000D03*
X88600000Y-59750000D03*
X84650000Y-51875000D03*
X73340000Y-34710000D03*
X82590000Y-41000000D03*
X88275000Y-52075000D03*
X79820000Y-36680000D03*
D14*
X82500000Y-39400000D03*
D16*
X89025000Y-52050000D03*
D17*
X104025000Y-44550000D02*
X102575000Y-46000000D01*
X102575000Y-46000000D02*
X90250000Y-46000000D01*
X99850000Y-42000000D02*
X90375000Y-42000000D01*
X101300000Y-43450000D02*
X99850000Y-42000000D01*
X101475000Y-43450000D02*
X101300000Y-43450000D01*
X103000000Y-43450000D02*
X101475000Y-43450000D01*
X103725000Y-43400000D02*
X96625000Y-36300000D01*
X96300000Y-35975000D02*
X86400000Y-35975000D01*
X105025000Y-43400000D02*
X103725000Y-43400000D01*
X96625000Y-36300000D02*
X96300000Y-35975000D01*
X86400000Y-35975000D02*
X85700000Y-36675000D01*
X100000000Y-42800000D02*
X90350000Y-42800000D01*
X101200000Y-44000000D02*
X100000000Y-42800000D01*
X104620000Y-44000000D02*
X104630000Y-43990000D01*
X101200000Y-44000000D02*
X104620000Y-44000000D01*
X96450000Y-35425000D02*
X103925000Y-42900000D01*
X103925000Y-42900000D02*
X104550000Y-42900000D01*
X91480000Y-35405500D02*
X91499500Y-35425000D01*
X104550000Y-42900000D02*
X104600000Y-42850000D01*
X91499500Y-35425000D02*
X96450000Y-35425000D01*
D18*
X104325000Y-41100000D02*
X106840000Y-41100000D01*
X106840000Y-41100000D02*
X106860000Y-41120000D01*
D19*
X106712338Y-55432338D02*
X109280000Y-58000000D01*
X106712338Y-55432338D02*
X105692967Y-55432338D01*
X109280000Y-58000000D02*
X109390000Y-58000000D01*
D18*
X90200000Y-43600000D02*
X80200000Y-43600000D01*
X76914500Y-36644500D02*
X76914500Y-35469001D01*
X80200000Y-43600000D02*
X79750000Y-43150000D01*
X79750000Y-43150000D02*
X79750000Y-39480000D01*
X79750000Y-39480000D02*
X76914500Y-36644500D01*
X90200000Y-45100000D02*
X89500000Y-44400000D01*
X89500000Y-44400000D02*
X79900000Y-44400000D01*
X79200000Y-43700000D02*
X79200000Y-40000000D01*
X79200000Y-40000000D02*
X76800000Y-37600000D01*
X79900000Y-44400000D02*
X79200000Y-43700000D01*
D17*
X84900000Y-49300000D02*
X84900000Y-46900000D01*
X82975000Y-44975000D02*
X79925000Y-44975000D01*
X84900000Y-46900000D02*
X82975000Y-44975000D01*
D19*
X76000000Y-35289250D02*
X76000000Y-42375000D01*
X90200000Y-49800000D02*
X95800000Y-49800000D01*
X76000000Y-42375000D02*
X79250000Y-45625000D01*
X82550000Y-45625000D02*
X83950000Y-47025000D01*
X85950000Y-49425000D02*
X89825000Y-49425000D01*
X85275000Y-50100000D02*
X85950000Y-49425000D01*
X79250000Y-45625000D02*
X82550000Y-45625000D01*
X84350000Y-50100000D02*
X85275000Y-50100000D01*
X83950000Y-49700000D02*
X84350000Y-50100000D01*
X83950000Y-47025000D02*
X83950000Y-49700000D01*
X77525499Y-35084829D02*
X77315171Y-34874501D01*
X77315171Y-34874501D02*
X76414749Y-34874501D01*
X90125000Y-40400000D02*
X82620750Y-40400000D01*
X97000000Y-51000000D02*
X97000000Y-53725000D01*
X77525499Y-35304749D02*
X77525499Y-35084829D01*
X76414749Y-34874501D02*
X76000000Y-35289250D01*
X89825000Y-49425000D02*
X90200000Y-49800000D01*
X95800000Y-49800000D02*
X97000000Y-51000000D01*
X97000000Y-53725000D02*
X96100000Y-54625000D01*
X82620750Y-40400000D02*
X77525499Y-35304749D01*
D17*
X79820000Y-36680000D02*
X77520000Y-34380000D01*
X77520000Y-34380000D02*
X73670000Y-34380000D01*
X73670000Y-34380000D02*
X73340000Y-34710000D01*
G04 #@! TA.AperFunction,Conductor*
G36*
X117936500Y-29517381D02*
G01*
X117982619Y-29563500D01*
X117999500Y-29626500D01*
X117999500Y-36974842D01*
X117999459Y-36975048D01*
X117999459Y-37000000D01*
X117999500Y-37000099D01*
X117999617Y-37000383D01*
X118000000Y-37000541D01*
X118000002Y-37000539D01*
X118025014Y-37000524D01*
X118025014Y-37000528D01*
X118025158Y-37000500D01*
X121373500Y-37000500D01*
X121436500Y-37017381D01*
X121482619Y-37063500D01*
X121499500Y-37126500D01*
X121499500Y-51774842D01*
X121499459Y-51775048D01*
X121499459Y-51800000D01*
X121499500Y-51800099D01*
X121499617Y-51800383D01*
X121500000Y-51800541D01*
X121500002Y-51800539D01*
X121525014Y-51800524D01*
X121525014Y-51800528D01*
X121525158Y-51800500D01*
X122163500Y-51800500D01*
X122226500Y-51817381D01*
X122272619Y-51863500D01*
X122289500Y-51926500D01*
X122289500Y-62143045D01*
X122287368Y-62153763D01*
X122287368Y-62187960D01*
X122285818Y-62207657D01*
X122284694Y-62214760D01*
X122280198Y-62243161D01*
X122278766Y-62250711D01*
X122271324Y-62284305D01*
X122260574Y-62314254D01*
X122252990Y-62329139D01*
X122245489Y-62341937D01*
X122218825Y-62381845D01*
X122203153Y-62400941D01*
X122190941Y-62413153D01*
X122171845Y-62428825D01*
X122131934Y-62455491D01*
X122119134Y-62462993D01*
X122106423Y-62469469D01*
X122073797Y-62480781D01*
X122002630Y-62494932D01*
X121998010Y-62495761D01*
X121997904Y-62495778D01*
X121977951Y-62497368D01*
X121937206Y-62497368D01*
X121934679Y-62497870D01*
X83952877Y-62499500D01*
X81136153Y-62499500D01*
X81076757Y-62484622D01*
X81031388Y-62443502D01*
X81010760Y-62385850D01*
X81019744Y-62325281D01*
X81056220Y-62276100D01*
X81196212Y-62161212D01*
X81322176Y-62007723D01*
X81415776Y-61832609D01*
X81456307Y-61699000D01*
X78403693Y-61699000D01*
X78444223Y-61832609D01*
X78537823Y-62007723D01*
X78663787Y-62161212D01*
X78803780Y-62276100D01*
X78840256Y-62325281D01*
X78849240Y-62385850D01*
X78828612Y-62443502D01*
X78783243Y-62484622D01*
X78723847Y-62499500D01*
X76706153Y-62499500D01*
X76646757Y-62484622D01*
X76601388Y-62443502D01*
X76580760Y-62385850D01*
X76589744Y-62325281D01*
X76626220Y-62276100D01*
X76766212Y-62161212D01*
X76892176Y-62007723D01*
X76985776Y-61832609D01*
X77026307Y-61699000D01*
X74473693Y-61699000D01*
X74514223Y-61832609D01*
X74607823Y-62007723D01*
X74733787Y-62161212D01*
X74873780Y-62276100D01*
X74910256Y-62325281D01*
X74919240Y-62385850D01*
X74898612Y-62443502D01*
X74853243Y-62484622D01*
X74793847Y-62499500D01*
X72309923Y-62499500D01*
X72289575Y-62497846D01*
X72289465Y-62497828D01*
X72285232Y-62497061D01*
X72214074Y-62482907D01*
X72181453Y-62471595D01*
X72168737Y-62465116D01*
X72155937Y-62457614D01*
X72116027Y-62430947D01*
X72096934Y-62415277D01*
X72084721Y-62403064D01*
X72069051Y-62383971D01*
X72067630Y-62381845D01*
X72042381Y-62344057D01*
X72034882Y-62331261D01*
X72028403Y-62318545D01*
X72017091Y-62285924D01*
X72002936Y-62214760D01*
X72002057Y-62209830D01*
X72002042Y-62209735D01*
X72000500Y-62190084D01*
X72000500Y-61498638D01*
X86341500Y-61498638D01*
X86348011Y-61559200D01*
X86399111Y-61696205D01*
X86486738Y-61813261D01*
X86603794Y-61900888D01*
X86603795Y-61900888D01*
X86603796Y-61900889D01*
X86740799Y-61951989D01*
X86801362Y-61958500D01*
X87898638Y-61958500D01*
X87959201Y-61951989D01*
X88096204Y-61900889D01*
X88100079Y-61897987D01*
X88166043Y-61873216D01*
X88219747Y-61884524D01*
X88220320Y-61882638D01*
X88232193Y-61886239D01*
X88232196Y-61886241D01*
X88422299Y-61943908D01*
X88620000Y-61963380D01*
X88817701Y-61943908D01*
X88817700Y-61943908D01*
X89007804Y-61886241D01*
X89183004Y-61792595D01*
X89183005Y-61792593D01*
X89183007Y-61792593D01*
X89336568Y-61666568D01*
X89462593Y-61513007D01*
X89462595Y-61513004D01*
X89556241Y-61337804D01*
X89613908Y-61147701D01*
X89633380Y-60950000D01*
X89613908Y-60752299D01*
X89556241Y-60562196D01*
X89462595Y-60386996D01*
X89462593Y-60386992D01*
X89336571Y-60233434D01*
X89304730Y-60207303D01*
X89272719Y-60167735D01*
X89264939Y-60140000D01*
X117814532Y-60140000D01*
X117834365Y-60366692D01*
X117893260Y-60586495D01*
X117959613Y-60728787D01*
X117989432Y-60792734D01*
X118119953Y-60979139D01*
X118280861Y-61140047D01*
X118467266Y-61270568D01*
X118673504Y-61366739D01*
X118893308Y-61425635D01*
X119063216Y-61440500D01*
X119176779Y-61440500D01*
X119176784Y-61440500D01*
X119346692Y-61425635D01*
X119566496Y-61366739D01*
X119772734Y-61270568D01*
X119959139Y-61140047D01*
X120120047Y-60979139D01*
X120250568Y-60792734D01*
X120346739Y-60586496D01*
X120405635Y-60366692D01*
X120425468Y-60140000D01*
X120405635Y-59913308D01*
X120346739Y-59693504D01*
X120250568Y-59487266D01*
X120120047Y-59300861D01*
X119959139Y-59139953D01*
X119772734Y-59009432D01*
X119765475Y-59006047D01*
X119566495Y-58913260D01*
X119346692Y-58854365D01*
X119176784Y-58839500D01*
X119063216Y-58839500D01*
X118921625Y-58851887D01*
X118893307Y-58854365D01*
X118673504Y-58913260D01*
X118467265Y-59009432D01*
X118280858Y-59139955D01*
X118119955Y-59300858D01*
X117989432Y-59487265D01*
X117893260Y-59693504D01*
X117834365Y-59913307D01*
X117814532Y-60140000D01*
X89264939Y-60140000D01*
X89258973Y-60118731D01*
X89265733Y-60068290D01*
X89319634Y-59914252D01*
X89338141Y-59750000D01*
X89319634Y-59585748D01*
X89265042Y-59429733D01*
X89177102Y-59289777D01*
X89177101Y-59289776D01*
X89177100Y-59289774D01*
X89060225Y-59172899D01*
X88920266Y-59084957D01*
X88764254Y-59030366D01*
X88600000Y-59011859D01*
X88435745Y-59030366D01*
X88279733Y-59084957D01*
X88139774Y-59172899D01*
X88064095Y-59248579D01*
X88007611Y-59281191D01*
X87942389Y-59281191D01*
X87885905Y-59248579D01*
X87810225Y-59172899D01*
X87670266Y-59084957D01*
X87514254Y-59030366D01*
X87350000Y-59011859D01*
X87185745Y-59030366D01*
X87029733Y-59084957D01*
X86889774Y-59172899D01*
X86772899Y-59289774D01*
X86684957Y-59429733D01*
X86630366Y-59585745D01*
X86611859Y-59750000D01*
X86629036Y-59902444D01*
X86619486Y-59966545D01*
X86579337Y-60017420D01*
X86486738Y-60086738D01*
X86399111Y-60203794D01*
X86348011Y-60340799D01*
X86341500Y-60401362D01*
X86341500Y-61498638D01*
X72000500Y-61498638D01*
X72000500Y-61190999D01*
X74473692Y-61190999D01*
X74473693Y-61191000D01*
X75496000Y-61191000D01*
X75496000Y-60437000D01*
X76004000Y-60437000D01*
X76004000Y-61191000D01*
X77026307Y-61191000D01*
X77026307Y-61190999D01*
X78403692Y-61190999D01*
X78403693Y-61191000D01*
X81456307Y-61191000D01*
X81456307Y-61190999D01*
X81415776Y-61057390D01*
X81322176Y-60882276D01*
X81196212Y-60728787D01*
X81042723Y-60602823D01*
X80867609Y-60509223D01*
X80677603Y-60451584D01*
X80529521Y-60437000D01*
X80036691Y-60437000D01*
X79977295Y-60422122D01*
X79931926Y-60381002D01*
X79911298Y-60323350D01*
X79920282Y-60262782D01*
X79944715Y-60203796D01*
X79960687Y-60165236D01*
X79980466Y-60015000D01*
X79960687Y-59864764D01*
X79902698Y-59724767D01*
X79902697Y-59724766D01*
X79902697Y-59724765D01*
X79814065Y-59609258D01*
X79789941Y-59554434D01*
X79793859Y-59494665D01*
X79824928Y-59443463D01*
X79936111Y-59332281D01*
X80033043Y-59178015D01*
X80093217Y-59006047D01*
X80113616Y-58825000D01*
X80093217Y-58643953D01*
X80033043Y-58471985D01*
X79937712Y-58320267D01*
X79936110Y-58317717D01*
X79807282Y-58188889D01*
X79653014Y-58091956D01*
X79481049Y-58031783D01*
X79300000Y-58011384D01*
X79118950Y-58031783D01*
X78946985Y-58091956D01*
X78792717Y-58188889D01*
X78663889Y-58317717D01*
X78566956Y-58471985D01*
X78506783Y-58643950D01*
X78486384Y-58824999D01*
X78506783Y-59006049D01*
X78566956Y-59178014D01*
X78663889Y-59332282D01*
X78792717Y-59461110D01*
X78882619Y-59517599D01*
X78928762Y-59568909D01*
X78940957Y-59636830D01*
X78915547Y-59700989D01*
X78897301Y-59724767D01*
X78839312Y-59864764D01*
X78819534Y-60014999D01*
X78839312Y-60165235D01*
X78897301Y-60305232D01*
X78945553Y-60368115D01*
X78968528Y-60417212D01*
X78968750Y-60471419D01*
X78946177Y-60520702D01*
X78904987Y-60555941D01*
X78817274Y-60602824D01*
X78663787Y-60728787D01*
X78537823Y-60882276D01*
X78444223Y-61057390D01*
X78403692Y-61190999D01*
X77026307Y-61190999D01*
X76985776Y-61057390D01*
X76892176Y-60882276D01*
X76766212Y-60728787D01*
X76612723Y-60602823D01*
X76437609Y-60509223D01*
X76247603Y-60451584D01*
X76099521Y-60437000D01*
X76004000Y-60437000D01*
X75496000Y-60437000D01*
X75400479Y-60437000D01*
X75252396Y-60451584D01*
X75062390Y-60509223D01*
X74887276Y-60602823D01*
X74733787Y-60728787D01*
X74607823Y-60882276D01*
X74514223Y-61057390D01*
X74473692Y-61190999D01*
X72000500Y-61190999D01*
X72000500Y-56424999D01*
X104883823Y-56424999D01*
X104902960Y-56594852D01*
X104959412Y-56756183D01*
X105050351Y-56900910D01*
X105171211Y-57021770D01*
X105315938Y-57112709D01*
X105477269Y-57169161D01*
X105477272Y-57169162D01*
X105647122Y-57188299D01*
X105816972Y-57169162D01*
X105978305Y-57112709D01*
X106123031Y-57021771D01*
X106243893Y-56900909D01*
X106334831Y-56756183D01*
X106391284Y-56594850D01*
X106410421Y-56425000D01*
X106409092Y-56413209D01*
X106417357Y-56352197D01*
X106453549Y-56302382D01*
X106509025Y-56275666D01*
X106570537Y-56278428D01*
X106623395Y-56310010D01*
X108779387Y-58466002D01*
X108784604Y-58471543D01*
X108823427Y-58515365D01*
X108871609Y-58548622D01*
X108877710Y-58553111D01*
X108923802Y-58589223D01*
X108932407Y-58593095D01*
X108952268Y-58604297D01*
X108960027Y-58609653D01*
X108960028Y-58609653D01*
X108960029Y-58609654D01*
X109002671Y-58625825D01*
X109025020Y-58636946D01*
X109069733Y-58665042D01*
X109225748Y-58719634D01*
X109390000Y-58738141D01*
X109554252Y-58719634D01*
X109710267Y-58665042D01*
X109850223Y-58577102D01*
X109967102Y-58460223D01*
X110055042Y-58320267D01*
X110109634Y-58164252D01*
X110128141Y-58000000D01*
X110109634Y-57835748D01*
X110055042Y-57679733D01*
X109967102Y-57539777D01*
X109967101Y-57539776D01*
X109967100Y-57539774D01*
X109850225Y-57422899D01*
X109710266Y-57334957D01*
X109540852Y-57275677D01*
X109541317Y-57274345D01*
X109526721Y-57270131D01*
X109492341Y-57245726D01*
X107212942Y-54966327D01*
X107207741Y-54960803D01*
X107168911Y-54916973D01*
X107120736Y-54883720D01*
X107114619Y-54879219D01*
X107068535Y-54843115D01*
X107068534Y-54843114D01*
X107059934Y-54839244D01*
X107040076Y-54828044D01*
X107032311Y-54822685D01*
X107032309Y-54822684D01*
X106977576Y-54801926D01*
X106970555Y-54799018D01*
X106948855Y-54789252D01*
X106917172Y-54774992D01*
X106907894Y-54773292D01*
X106885937Y-54767171D01*
X106877113Y-54763825D01*
X106819000Y-54756768D01*
X106811477Y-54755623D01*
X106753910Y-54745073D01*
X106695487Y-54748608D01*
X106687879Y-54748838D01*
X105981891Y-54748838D01*
X105940276Y-54741767D01*
X105857221Y-54712704D01*
X105692967Y-54694197D01*
X105528712Y-54712704D01*
X105372700Y-54767295D01*
X105232741Y-54855237D01*
X105115866Y-54972112D01*
X105027924Y-55112071D01*
X104973333Y-55268083D01*
X104954826Y-55432338D01*
X104973333Y-55596592D01*
X105027924Y-55752603D01*
X105058939Y-55801964D01*
X105077457Y-55854872D01*
X105071194Y-55910576D01*
X105055507Y-55935563D01*
X105057904Y-55937070D01*
X104959412Y-56093816D01*
X104902960Y-56255147D01*
X104883823Y-56424999D01*
X72000500Y-56424999D01*
X72000500Y-53059000D01*
X74473693Y-53059000D01*
X74514223Y-53192609D01*
X74607823Y-53367723D01*
X74733787Y-53521212D01*
X74887276Y-53647176D01*
X75062390Y-53740776D01*
X75252396Y-53798415D01*
X75400479Y-53813000D01*
X75496000Y-53813000D01*
X75496000Y-53059000D01*
X76004000Y-53059000D01*
X76004000Y-53813000D01*
X76099521Y-53813000D01*
X76247603Y-53798415D01*
X76437609Y-53740776D01*
X76612723Y-53647176D01*
X76766212Y-53521212D01*
X76892176Y-53367723D01*
X76985776Y-53192609D01*
X77026307Y-53059000D01*
X78403693Y-53059000D01*
X78444223Y-53192609D01*
X78537823Y-53367723D01*
X78663787Y-53521212D01*
X78817278Y-53647177D01*
X78904986Y-53694058D01*
X78946177Y-53729296D01*
X78968751Y-53778580D01*
X78968529Y-53832787D01*
X78945553Y-53881884D01*
X78897302Y-53944765D01*
X78839312Y-54084764D01*
X78819534Y-54235000D01*
X78839312Y-54385235D01*
X78897302Y-54525234D01*
X78941431Y-54582744D01*
X78966843Y-54646902D01*
X78954648Y-54714824D01*
X78908505Y-54766135D01*
X78792717Y-54838889D01*
X78663889Y-54967717D01*
X78566956Y-55121985D01*
X78506783Y-55293950D01*
X78486384Y-55475000D01*
X78506783Y-55656049D01*
X78566956Y-55828014D01*
X78663889Y-55982282D01*
X78792717Y-56111110D01*
X78946985Y-56208043D01*
X79081609Y-56255150D01*
X79118953Y-56268217D01*
X79300000Y-56288616D01*
X79481047Y-56268217D01*
X79653015Y-56208043D01*
X79807281Y-56111111D01*
X79936111Y-55982281D01*
X80033043Y-55828015D01*
X80093217Y-55656047D01*
X80113616Y-55475000D01*
X80093217Y-55293953D01*
X80091848Y-55290042D01*
X80033043Y-55121985D01*
X79936110Y-54967717D01*
X79800799Y-54832406D01*
X79766881Y-54770582D01*
X79771493Y-54700215D01*
X79801407Y-54659418D01*
X79800353Y-54658610D01*
X79810449Y-54645452D01*
X79810451Y-54645451D01*
X79902698Y-54525233D01*
X79960687Y-54385236D01*
X79980466Y-54235000D01*
X79960687Y-54084764D01*
X79920282Y-53987218D01*
X79911298Y-53926650D01*
X79931926Y-53868998D01*
X79977295Y-53827878D01*
X80036691Y-53813000D01*
X80529521Y-53813000D01*
X80677603Y-53798415D01*
X80867609Y-53740776D01*
X81042723Y-53647176D01*
X81196212Y-53521212D01*
X81322176Y-53367723D01*
X81415776Y-53192609D01*
X81456307Y-53059000D01*
X78403693Y-53059000D01*
X77026307Y-53059000D01*
X76004000Y-53059000D01*
X75496000Y-53059000D01*
X74473693Y-53059000D01*
X72000500Y-53059000D01*
X72000500Y-51908079D01*
X72017448Y-51844962D01*
X72063734Y-51798825D01*
X72126904Y-51782080D01*
X74745511Y-51790500D01*
X74804788Y-51805530D01*
X74850006Y-51846699D01*
X74870515Y-51904310D01*
X74861484Y-51964792D01*
X74825040Y-52013898D01*
X74733788Y-52088786D01*
X74607823Y-52242276D01*
X74514223Y-52417390D01*
X74473692Y-52550999D01*
X74473693Y-52551000D01*
X77026307Y-52551000D01*
X77026307Y-52550999D01*
X78403692Y-52550999D01*
X78403693Y-52551000D01*
X79676000Y-52551000D01*
X79676000Y-51797000D01*
X80184000Y-51797000D01*
X80184000Y-52551000D01*
X81456307Y-52551000D01*
X81456307Y-52550999D01*
X81415776Y-52417390D01*
X81322176Y-52242276D01*
X81196212Y-52088787D01*
X81042723Y-51962823D01*
X80878417Y-51875000D01*
X82386859Y-51875000D01*
X82405366Y-52039254D01*
X82459957Y-52195266D01*
X82547899Y-52335225D01*
X82664774Y-52452100D01*
X82664776Y-52452101D01*
X82664777Y-52452102D01*
X82804733Y-52540042D01*
X82960748Y-52594634D01*
X82976888Y-52596452D01*
X83037601Y-52620281D01*
X83078267Y-52671273D01*
X83087988Y-52735767D01*
X83086384Y-52749999D01*
X83106783Y-52931049D01*
X83166956Y-53103014D01*
X83263889Y-53257282D01*
X83392717Y-53386110D01*
X83518200Y-53464956D01*
X83546985Y-53483043D01*
X83718953Y-53543217D01*
X83900000Y-53563616D01*
X84081047Y-53543217D01*
X84253015Y-53483043D01*
X84407281Y-53386111D01*
X84536111Y-53257281D01*
X84633043Y-53103015D01*
X84693217Y-52931047D01*
X84713616Y-52750000D01*
X84711698Y-52732983D01*
X84721420Y-52668489D01*
X84762091Y-52617494D01*
X84801763Y-52601927D01*
X84800852Y-52599323D01*
X84848776Y-52582553D01*
X84970267Y-52540042D01*
X85110223Y-52452102D01*
X85227102Y-52335223D01*
X85315042Y-52195267D01*
X85357125Y-52075000D01*
X87536859Y-52075000D01*
X87555366Y-52239254D01*
X87609957Y-52395266D01*
X87697899Y-52535225D01*
X87814774Y-52652100D01*
X87954733Y-52740042D01*
X88056963Y-52775814D01*
X88110748Y-52794634D01*
X88275000Y-52813141D01*
X88439252Y-52794634D01*
X88595267Y-52740042D01*
X88608601Y-52731663D01*
X88661524Y-52713144D01*
X88717249Y-52719422D01*
X88860465Y-52769535D01*
X88860748Y-52769634D01*
X89025000Y-52788141D01*
X89189252Y-52769634D01*
X89189257Y-52769632D01*
X89190119Y-52769535D01*
X89245842Y-52775814D01*
X89293322Y-52805648D01*
X89364774Y-52877100D01*
X89364776Y-52877101D01*
X89364777Y-52877102D01*
X89504733Y-52965042D01*
X89660748Y-53019634D01*
X89825000Y-53038141D01*
X89989252Y-53019634D01*
X90145267Y-52965042D01*
X90285223Y-52877102D01*
X90402102Y-52760223D01*
X90490042Y-52620267D01*
X90544634Y-52464252D01*
X90563141Y-52300000D01*
X90544634Y-52135748D01*
X90490042Y-51979733D01*
X90402102Y-51839777D01*
X90402101Y-51839776D01*
X90402100Y-51839774D01*
X90285225Y-51722899D01*
X90145266Y-51634957D01*
X89989254Y-51580366D01*
X89879750Y-51568027D01*
X89825000Y-51561859D01*
X89824999Y-51561859D01*
X89731317Y-51572414D01*
X89660748Y-51580366D01*
X89660747Y-51580366D01*
X89659879Y-51580464D01*
X89604157Y-51574185D01*
X89556677Y-51544351D01*
X89485225Y-51472899D01*
X89345266Y-51384957D01*
X89189254Y-51330366D01*
X89025000Y-51311859D01*
X88860745Y-51330366D01*
X88704731Y-51384957D01*
X88691397Y-51393336D01*
X88638470Y-51411856D01*
X88582748Y-51405577D01*
X88439254Y-51355366D01*
X88275000Y-51336859D01*
X88110745Y-51355366D01*
X87954733Y-51409957D01*
X87814774Y-51497899D01*
X87697899Y-51614774D01*
X87609957Y-51754733D01*
X87555366Y-51910745D01*
X87536859Y-52075000D01*
X85357125Y-52075000D01*
X85369634Y-52039252D01*
X85388141Y-51875000D01*
X85369634Y-51710748D01*
X85315042Y-51554733D01*
X85227102Y-51414777D01*
X85227101Y-51414776D01*
X85227100Y-51414774D01*
X85110225Y-51297899D01*
X84970266Y-51209957D01*
X84814254Y-51155366D01*
X84650000Y-51136859D01*
X84485745Y-51155366D01*
X84329733Y-51209957D01*
X84189774Y-51297899D01*
X84072898Y-51414775D01*
X83994187Y-51540045D01*
X83948449Y-51583287D01*
X83887500Y-51599009D01*
X83826551Y-51583287D01*
X83780813Y-51540045D01*
X83702101Y-51414775D01*
X83585225Y-51297899D01*
X83445266Y-51209957D01*
X83289254Y-51155366D01*
X83125000Y-51136859D01*
X82960745Y-51155366D01*
X82804733Y-51209957D01*
X82664774Y-51297899D01*
X82547899Y-51414774D01*
X82459957Y-51554733D01*
X82405366Y-51710745D01*
X82386859Y-51875000D01*
X80878417Y-51875000D01*
X80867609Y-51869223D01*
X80677603Y-51811584D01*
X80529521Y-51797000D01*
X80184000Y-51797000D01*
X79676000Y-51797000D01*
X79330479Y-51797000D01*
X79182396Y-51811584D01*
X78992390Y-51869223D01*
X78817276Y-51962823D01*
X78663787Y-52088787D01*
X78537823Y-52242276D01*
X78444223Y-52417390D01*
X78403692Y-52550999D01*
X77026307Y-52550999D01*
X76985776Y-52417390D01*
X76892176Y-52242276D01*
X76766212Y-52088787D01*
X76682865Y-52020387D01*
X76646358Y-51971131D01*
X76637421Y-51910476D01*
X76658168Y-51852783D01*
X76703688Y-51811713D01*
X76763203Y-51796988D01*
X77699999Y-51800000D01*
X77700000Y-51800000D01*
X77700000Y-45345805D01*
X77713733Y-45288602D01*
X77751939Y-45243869D01*
X77806289Y-45221356D01*
X77864936Y-45225972D01*
X77915095Y-45256710D01*
X78749387Y-46091002D01*
X78754604Y-46096543D01*
X78793427Y-46140365D01*
X78841613Y-46173625D01*
X78847723Y-46178122D01*
X78893803Y-46214223D01*
X78902400Y-46218092D01*
X78922269Y-46229298D01*
X78930028Y-46234654D01*
X78984760Y-46255410D01*
X78991773Y-46258314D01*
X79045163Y-46282344D01*
X79054433Y-46284042D01*
X79076406Y-46290168D01*
X79085225Y-46293513D01*
X79121477Y-46297914D01*
X79143326Y-46300567D01*
X79150848Y-46301711D01*
X79208428Y-46312264D01*
X79266851Y-46308730D01*
X79274459Y-46308500D01*
X82214695Y-46308500D01*
X82262913Y-46318091D01*
X82303790Y-46345405D01*
X83229595Y-47271210D01*
X83256909Y-47312087D01*
X83266500Y-47360305D01*
X83266500Y-49675541D01*
X83266270Y-49683149D01*
X83262735Y-49741572D01*
X83273285Y-49799139D01*
X83274430Y-49806662D01*
X83281487Y-49864775D01*
X83284833Y-49873599D01*
X83290954Y-49895556D01*
X83292654Y-49904834D01*
X83316676Y-49958206D01*
X83319589Y-49965239D01*
X83340347Y-50019973D01*
X83345706Y-50027738D01*
X83356906Y-50047596D01*
X83360776Y-50056196D01*
X83360777Y-50056197D01*
X83396881Y-50102281D01*
X83401382Y-50108398D01*
X83408073Y-50118091D01*
X83434635Y-50156573D01*
X83478465Y-50195403D01*
X83483989Y-50200604D01*
X83849387Y-50566002D01*
X83854604Y-50571543D01*
X83893427Y-50615365D01*
X83941609Y-50648622D01*
X83947710Y-50653111D01*
X83947730Y-50653127D01*
X83993802Y-50689223D01*
X84002399Y-50693092D01*
X84022267Y-50704297D01*
X84030028Y-50709654D01*
X84064434Y-50722702D01*
X84084761Y-50730411D01*
X84091758Y-50733309D01*
X84145163Y-50757344D01*
X84154436Y-50759043D01*
X84176406Y-50765168D01*
X84185225Y-50768512D01*
X84185226Y-50768513D01*
X84243325Y-50775567D01*
X84250847Y-50776711D01*
X84308427Y-50787264D01*
X84366851Y-50783730D01*
X84374459Y-50783500D01*
X85250541Y-50783500D01*
X85258149Y-50783730D01*
X85316570Y-50787264D01*
X85316570Y-50787263D01*
X85316572Y-50787264D01*
X85374160Y-50776709D01*
X85381639Y-50775571D01*
X85439774Y-50768513D01*
X85448590Y-50765169D01*
X85470567Y-50759042D01*
X85479837Y-50757344D01*
X85533234Y-50733310D01*
X85540224Y-50730415D01*
X85594971Y-50709654D01*
X85602732Y-50704296D01*
X85622594Y-50693094D01*
X85631197Y-50689223D01*
X85677288Y-50653112D01*
X85683391Y-50648621D01*
X85731573Y-50615365D01*
X85770396Y-50571541D01*
X85775580Y-50566033D01*
X86196210Y-50145404D01*
X86237088Y-50118091D01*
X86285306Y-50108500D01*
X89489695Y-50108500D01*
X89537913Y-50118091D01*
X89578790Y-50145405D01*
X89699387Y-50266002D01*
X89704604Y-50271543D01*
X89743427Y-50315365D01*
X89791613Y-50348625D01*
X89797723Y-50353122D01*
X89843803Y-50389223D01*
X89852400Y-50393092D01*
X89872269Y-50404298D01*
X89880028Y-50409654D01*
X89934760Y-50430410D01*
X89941773Y-50433314D01*
X89995163Y-50457344D01*
X90004433Y-50459042D01*
X90026406Y-50465168D01*
X90035225Y-50468513D01*
X90071477Y-50472914D01*
X90093326Y-50475567D01*
X90100848Y-50476711D01*
X90158428Y-50487264D01*
X90216851Y-50483730D01*
X90224459Y-50483500D01*
X95464695Y-50483500D01*
X95512913Y-50493091D01*
X95553790Y-50520405D01*
X96279595Y-51246210D01*
X96306909Y-51287087D01*
X96316500Y-51335305D01*
X96316500Y-53389694D01*
X96306909Y-53437912D01*
X96279595Y-53478790D01*
X95828823Y-53929560D01*
X95781351Y-53959391D01*
X95779732Y-53959957D01*
X95639775Y-54047898D01*
X95522899Y-54164774D01*
X95434957Y-54304733D01*
X95380366Y-54460745D01*
X95361859Y-54624999D01*
X95380366Y-54789252D01*
X95387348Y-54809204D01*
X95391260Y-54878857D01*
X95357515Y-54939915D01*
X95296457Y-54973661D01*
X95226804Y-54969749D01*
X95114254Y-54930366D01*
X94950000Y-54911859D01*
X94785745Y-54930366D01*
X94629733Y-54984957D01*
X94489774Y-55072899D01*
X94372899Y-55189774D01*
X94284957Y-55329733D01*
X94230366Y-55485745D01*
X94211859Y-55649999D01*
X94230366Y-55814254D01*
X94284957Y-55970266D01*
X94372899Y-56110225D01*
X94489774Y-56227100D01*
X94489776Y-56227101D01*
X94489777Y-56227102D01*
X94629733Y-56315042D01*
X94785748Y-56369634D01*
X94950000Y-56388141D01*
X95114252Y-56369634D01*
X95270267Y-56315042D01*
X95410223Y-56227102D01*
X95527102Y-56110223D01*
X95615042Y-55970267D01*
X95669634Y-55814252D01*
X95688141Y-55650000D01*
X95669634Y-55485748D01*
X95662651Y-55465794D01*
X95658739Y-55396144D01*
X95692483Y-55335085D01*
X95753542Y-55301338D01*
X95823195Y-55305250D01*
X95908458Y-55335085D01*
X95935748Y-55344634D01*
X96100000Y-55363141D01*
X96264252Y-55344634D01*
X96420267Y-55290042D01*
X96560223Y-55202102D01*
X96677102Y-55085223D01*
X96765042Y-54945267D01*
X96765606Y-54943653D01*
X96795439Y-54896174D01*
X97317058Y-54374555D01*
X97371270Y-54342576D01*
X97434189Y-54340811D01*
X97490111Y-54369701D01*
X97525080Y-54422037D01*
X97534957Y-54450266D01*
X97622899Y-54590225D01*
X97739774Y-54707100D01*
X97739776Y-54707101D01*
X97739777Y-54707102D01*
X97835574Y-54767295D01*
X97879733Y-54795042D01*
X98005040Y-54838889D01*
X98035748Y-54849634D01*
X98200000Y-54868141D01*
X98364252Y-54849634D01*
X98520267Y-54795042D01*
X98660223Y-54707102D01*
X98777102Y-54590223D01*
X98865042Y-54450267D01*
X98919634Y-54294252D01*
X98938141Y-54130000D01*
X98919634Y-53965748D01*
X98865042Y-53809733D01*
X98777102Y-53669777D01*
X98777101Y-53669776D01*
X98777100Y-53669774D01*
X98660225Y-53552899D01*
X98520266Y-53464957D01*
X98364254Y-53410366D01*
X98254750Y-53398028D01*
X98200000Y-53391859D01*
X98199999Y-53391859D01*
X98035745Y-53410366D01*
X97879736Y-53464956D01*
X97879732Y-53464958D01*
X97879733Y-53464958D01*
X97876532Y-53466969D01*
X97813033Y-53486230D01*
X97748551Y-53470558D01*
X97700975Y-53424297D01*
X97683500Y-53360280D01*
X97683500Y-51024459D01*
X97683730Y-51016851D01*
X97687264Y-50958428D01*
X97676712Y-50900850D01*
X97675567Y-50893324D01*
X97668513Y-50835225D01*
X97665168Y-50826406D01*
X97659042Y-50804431D01*
X97657344Y-50795164D01*
X97657344Y-50795163D01*
X97633314Y-50741773D01*
X97630410Y-50734760D01*
X97609654Y-50680028D01*
X97604298Y-50672269D01*
X97593092Y-50652400D01*
X97592360Y-50650773D01*
X97589223Y-50643803D01*
X97589221Y-50643800D01*
X97553122Y-50597723D01*
X97548625Y-50591613D01*
X97515365Y-50543427D01*
X97471543Y-50504604D01*
X97466002Y-50499387D01*
X96300604Y-49333989D01*
X96295403Y-49328465D01*
X96256573Y-49284635D01*
X96208398Y-49251382D01*
X96202281Y-49246881D01*
X96156197Y-49210777D01*
X96156196Y-49210776D01*
X96147596Y-49206906D01*
X96127738Y-49195706D01*
X96119973Y-49190347D01*
X96119971Y-49190346D01*
X96065238Y-49169588D01*
X96058217Y-49166680D01*
X96036972Y-49157119D01*
X96004834Y-49142654D01*
X95995556Y-49140954D01*
X95973599Y-49134833D01*
X95964775Y-49131487D01*
X95906662Y-49124430D01*
X95899139Y-49123285D01*
X95841572Y-49112735D01*
X95783149Y-49116270D01*
X95775541Y-49116500D01*
X91088192Y-49116500D01*
X91021157Y-49097188D01*
X90974671Y-49045171D01*
X90965136Y-48989062D01*
X90964730Y-48989108D01*
X90963914Y-48981874D01*
X90962984Y-48976396D01*
X90963031Y-48975972D01*
X90963141Y-48975000D01*
X90944634Y-48810748D01*
X90890042Y-48654733D01*
X90802102Y-48514777D01*
X90802101Y-48514776D01*
X90802100Y-48514774D01*
X90685225Y-48397899D01*
X90545266Y-48309957D01*
X90389254Y-48255366D01*
X90225000Y-48236859D01*
X90060745Y-48255366D01*
X89904733Y-48309957D01*
X89764774Y-48397899D01*
X89647899Y-48514774D01*
X89610759Y-48573883D01*
X89559958Y-48654733D01*
X89559124Y-48657116D01*
X89532562Y-48701201D01*
X89490583Y-48730987D01*
X89440196Y-48741500D01*
X87710192Y-48741500D01*
X87652360Y-48727444D01*
X87607431Y-48688412D01*
X87585429Y-48633112D01*
X87591262Y-48573886D01*
X87594634Y-48564252D01*
X87613141Y-48400000D01*
X87594634Y-48235748D01*
X87540042Y-48079733D01*
X87452102Y-47939777D01*
X87452101Y-47939776D01*
X87452100Y-47939774D01*
X87335225Y-47822899D01*
X87195266Y-47734957D01*
X87039254Y-47680366D01*
X86875000Y-47661859D01*
X86710745Y-47680366D01*
X86554733Y-47734957D01*
X86414774Y-47822899D01*
X86297899Y-47939774D01*
X86209957Y-48079733D01*
X86155366Y-48235745D01*
X86147004Y-48309958D01*
X86136859Y-48400000D01*
X86155366Y-48564252D01*
X86158737Y-48573886D01*
X86164571Y-48633112D01*
X86142569Y-48688412D01*
X86097640Y-48727444D01*
X86039808Y-48741500D01*
X85974459Y-48741500D01*
X85966851Y-48741270D01*
X85908426Y-48737735D01*
X85850857Y-48748285D01*
X85843336Y-48749430D01*
X85785223Y-48756487D01*
X85776398Y-48759834D01*
X85754440Y-48765955D01*
X85751401Y-48766512D01*
X85745161Y-48767656D01*
X85711211Y-48782936D01*
X85649993Y-48793677D01*
X85591088Y-48773846D01*
X85548830Y-48728269D01*
X85533500Y-48668036D01*
X85533500Y-46983853D01*
X85535795Y-46963064D01*
X85533562Y-46892014D01*
X85533500Y-46888055D01*
X85533500Y-46860149D01*
X85533500Y-46860144D01*
X85532992Y-46856131D01*
X85532061Y-46844297D01*
X85530673Y-46800110D01*
X85525020Y-46780656D01*
X85521012Y-46761298D01*
X85518474Y-46741203D01*
X85502195Y-46700090D01*
X85498353Y-46688869D01*
X85486018Y-46646407D01*
X85486017Y-46646406D01*
X85486017Y-46646404D01*
X85475707Y-46628971D01*
X85467008Y-46611215D01*
X85459552Y-46592383D01*
X85433565Y-46556616D01*
X85427047Y-46546693D01*
X85419284Y-46533566D01*
X85404542Y-46508638D01*
X85390212Y-46494308D01*
X85377378Y-46479281D01*
X85365472Y-46462893D01*
X85362245Y-46460223D01*
X85331394Y-46434700D01*
X85322616Y-46426712D01*
X84169500Y-45273595D01*
X84138762Y-45223436D01*
X84134146Y-45164789D01*
X84156659Y-45110439D01*
X84201392Y-45072233D01*
X84258595Y-45058500D01*
X89175049Y-45058500D01*
X89223267Y-45068091D01*
X89264144Y-45095404D01*
X89485529Y-45316788D01*
X89515363Y-45364268D01*
X89534958Y-45420267D01*
X89599353Y-45522752D01*
X89618665Y-45589785D01*
X89599354Y-45656819D01*
X89584957Y-45679732D01*
X89530366Y-45835745D01*
X89511859Y-46000000D01*
X89530366Y-46164254D01*
X89584957Y-46320266D01*
X89672899Y-46460225D01*
X89789774Y-46577100D01*
X89789776Y-46577101D01*
X89789777Y-46577102D01*
X89929733Y-46665042D01*
X90085748Y-46719634D01*
X90250000Y-46738141D01*
X90414252Y-46719634D01*
X90570267Y-46665042D01*
X90589729Y-46652812D01*
X90656765Y-46633500D01*
X102491147Y-46633500D01*
X102511935Y-46635795D01*
X102514907Y-46635701D01*
X102514909Y-46635702D01*
X102582985Y-46633562D01*
X102586945Y-46633500D01*
X102614852Y-46633500D01*
X102614856Y-46633500D01*
X102618865Y-46632993D01*
X102630699Y-46632061D01*
X102674889Y-46630673D01*
X102694338Y-46625021D01*
X102713698Y-46621012D01*
X102733797Y-46618474D01*
X102774915Y-46602193D01*
X102786117Y-46598357D01*
X102828593Y-46586018D01*
X102846039Y-46575699D01*
X102863780Y-46567009D01*
X102882617Y-46559552D01*
X102918392Y-46533558D01*
X102928303Y-46527048D01*
X102966362Y-46504542D01*
X102980691Y-46490212D01*
X102995719Y-46477377D01*
X103012107Y-46465472D01*
X103040303Y-46431386D01*
X103048272Y-46422630D01*
X104187403Y-45283499D01*
X104234877Y-45253668D01*
X104304258Y-45229391D01*
X104359976Y-45223113D01*
X104412904Y-45241633D01*
X104479536Y-45283501D01*
X104529733Y-45315042D01*
X104676791Y-45366500D01*
X104685748Y-45369634D01*
X104850000Y-45388141D01*
X105014252Y-45369634D01*
X105170267Y-45315042D01*
X105310223Y-45227102D01*
X105427102Y-45110223D01*
X105515042Y-44970267D01*
X105569634Y-44814252D01*
X105588141Y-44650000D01*
X105569634Y-44485748D01*
X105558874Y-44454999D01*
X105515042Y-44329733D01*
X105419549Y-44177756D01*
X105420492Y-44177163D01*
X105400809Y-44145837D01*
X105394530Y-44090114D01*
X105413052Y-44037185D01*
X105452702Y-43997535D01*
X105485223Y-43977102D01*
X105602102Y-43860223D01*
X105690042Y-43720267D01*
X105744634Y-43564252D01*
X105763141Y-43400000D01*
X105745113Y-43240000D01*
X114766701Y-43240000D01*
X114785838Y-43409852D01*
X114842290Y-43571183D01*
X114933229Y-43715910D01*
X115054089Y-43836770D01*
X115198816Y-43927709D01*
X115360147Y-43984161D01*
X115360150Y-43984162D01*
X115530000Y-44003299D01*
X115699850Y-43984162D01*
X115861183Y-43927709D01*
X116005909Y-43836771D01*
X116126771Y-43715909D01*
X116217709Y-43571183D01*
X116274162Y-43409850D01*
X116293299Y-43240000D01*
X116274162Y-43070150D01*
X116269279Y-43056195D01*
X116217709Y-42908816D01*
X116126770Y-42764089D01*
X116005910Y-42643229D01*
X115861183Y-42552290D01*
X115699852Y-42495838D01*
X115530000Y-42476701D01*
X115360147Y-42495838D01*
X115198816Y-42552290D01*
X115054089Y-42643229D01*
X114933229Y-42764089D01*
X114842290Y-42908816D01*
X114785838Y-43070147D01*
X114766701Y-43240000D01*
X105745113Y-43240000D01*
X105744634Y-43235748D01*
X105690042Y-43079733D01*
X105602102Y-42939777D01*
X105602101Y-42939776D01*
X105602100Y-42939774D01*
X105485224Y-42822898D01*
X105371813Y-42751637D01*
X105340338Y-42723510D01*
X105319920Y-42686565D01*
X105265042Y-42529733D01*
X105177100Y-42389774D01*
X105060225Y-42272899D01*
X104920266Y-42184957D01*
X104764254Y-42130366D01*
X104600000Y-42111859D01*
X104435745Y-42130366D01*
X104279732Y-42184957D01*
X104258030Y-42198593D01*
X104205103Y-42217111D01*
X104149381Y-42210832D01*
X104101903Y-42180998D01*
X103945452Y-42024547D01*
X103912366Y-41966239D01*
X103913870Y-41899214D01*
X103949539Y-41842449D01*
X104009273Y-41812013D01*
X104076162Y-41816523D01*
X104155147Y-41844161D01*
X104155150Y-41844162D01*
X104325000Y-41863299D01*
X104494850Y-41844162D01*
X104656183Y-41787709D01*
X104671932Y-41777812D01*
X104738968Y-41758500D01*
X106461193Y-41758500D01*
X106528226Y-41777812D01*
X106539733Y-41785042D01*
X106539736Y-41785043D01*
X106684639Y-41835747D01*
X106695748Y-41839634D01*
X106860000Y-41858141D01*
X107024252Y-41839634D01*
X107180267Y-41785042D01*
X107320223Y-41697102D01*
X107437102Y-41580223D01*
X107525042Y-41440267D01*
X107579634Y-41284252D01*
X107598141Y-41120000D01*
X107579634Y-40955748D01*
X107525042Y-40799733D01*
X107437102Y-40659777D01*
X107437101Y-40659776D01*
X107437100Y-40659774D01*
X107320225Y-40542899D01*
X107180266Y-40454957D01*
X107024254Y-40400366D01*
X106860000Y-40381859D01*
X106695745Y-40400366D01*
X106598402Y-40434429D01*
X106556787Y-40441500D01*
X104738968Y-40441500D01*
X104671932Y-40422187D01*
X104656182Y-40412290D01*
X104494852Y-40355838D01*
X104325000Y-40336701D01*
X104155147Y-40355838D01*
X103993816Y-40412290D01*
X103849089Y-40503229D01*
X103728229Y-40624089D01*
X103637290Y-40768816D01*
X103580838Y-40930147D01*
X103561701Y-41100000D01*
X103580838Y-41269850D01*
X103608477Y-41348838D01*
X103612986Y-41415727D01*
X103582550Y-41475461D01*
X103525784Y-41511129D01*
X103458760Y-41512633D01*
X103400452Y-41479547D01*
X100195904Y-38274999D01*
X104607201Y-38274999D01*
X104626338Y-38444852D01*
X104682790Y-38606183D01*
X104773729Y-38750910D01*
X104894589Y-38871770D01*
X105039316Y-38962709D01*
X105200647Y-39019161D01*
X105200650Y-39019162D01*
X105370500Y-39038299D01*
X105540350Y-39019162D01*
X105701683Y-38962709D01*
X105846409Y-38871771D01*
X105967271Y-38750909D01*
X106058209Y-38606183D01*
X106114662Y-38444850D01*
X106133799Y-38275000D01*
X106114662Y-38105150D01*
X106058209Y-37943817D01*
X106058209Y-37943816D01*
X105967270Y-37799089D01*
X105846410Y-37678229D01*
X105701683Y-37587290D01*
X105540352Y-37530838D01*
X105370500Y-37511701D01*
X105200647Y-37530838D01*
X105039316Y-37587290D01*
X104894589Y-37678229D01*
X104773729Y-37799089D01*
X104682790Y-37943816D01*
X104626338Y-38105147D01*
X104607201Y-38274999D01*
X100195904Y-38274999D01*
X96957244Y-35036339D01*
X96944171Y-35020021D01*
X96892349Y-34971357D01*
X96889537Y-34968632D01*
X96869770Y-34948865D01*
X96866575Y-34946386D01*
X96857553Y-34938681D01*
X96825320Y-34908413D01*
X96807567Y-34898653D01*
X96791041Y-34887797D01*
X96775041Y-34875386D01*
X96734466Y-34857828D01*
X96723804Y-34852604D01*
X96685063Y-34831305D01*
X96671313Y-34827775D01*
X96665437Y-34826266D01*
X96646731Y-34819862D01*
X96628145Y-34811819D01*
X96584474Y-34804901D01*
X96572853Y-34802495D01*
X96530030Y-34791500D01*
X96530029Y-34791500D01*
X96509776Y-34791500D01*
X96490066Y-34789949D01*
X96470057Y-34786779D01*
X96426039Y-34790941D01*
X96414181Y-34791500D01*
X91964790Y-34791500D01*
X91897754Y-34772187D01*
X91811183Y-34717790D01*
X91649852Y-34661338D01*
X91480000Y-34642201D01*
X91310147Y-34661338D01*
X91148816Y-34717790D01*
X91004089Y-34808729D01*
X90883229Y-34929589D01*
X90792290Y-35074316D01*
X90731149Y-35249050D01*
X90729516Y-35248478D01*
X90715415Y-35286481D01*
X90670186Y-35326899D01*
X90611311Y-35341500D01*
X86483849Y-35341500D01*
X86463064Y-35339205D01*
X86392033Y-35341438D01*
X86388075Y-35341500D01*
X86360140Y-35341500D01*
X86356114Y-35342008D01*
X86344302Y-35342937D01*
X86300110Y-35344326D01*
X86280657Y-35349978D01*
X86261303Y-35353986D01*
X86241201Y-35356526D01*
X86200084Y-35372804D01*
X86188859Y-35376647D01*
X86146408Y-35388980D01*
X86128967Y-35399295D01*
X86111219Y-35407989D01*
X86092383Y-35415447D01*
X86056614Y-35441434D01*
X86046697Y-35447948D01*
X86008637Y-35470457D01*
X85994305Y-35484788D01*
X85979281Y-35497619D01*
X85962896Y-35509524D01*
X85934711Y-35543593D01*
X85926723Y-35552370D01*
X85537595Y-35941498D01*
X85490117Y-35971332D01*
X85420663Y-35995635D01*
X85379733Y-36009958D01*
X85379731Y-36009958D01*
X85379731Y-36009959D01*
X85239774Y-36097899D01*
X85122899Y-36214774D01*
X85034957Y-36354733D01*
X84980366Y-36510745D01*
X84961859Y-36675000D01*
X84980366Y-36839254D01*
X85034957Y-36995266D01*
X85122899Y-37135225D01*
X85239774Y-37252100D01*
X85239776Y-37252101D01*
X85239777Y-37252102D01*
X85379733Y-37340042D01*
X85535748Y-37394634D01*
X85700000Y-37413141D01*
X85864252Y-37394634D01*
X86020267Y-37340042D01*
X86160223Y-37252102D01*
X86277102Y-37135223D01*
X86361729Y-37000540D01*
X86365041Y-36995269D01*
X86365042Y-36995266D01*
X86403667Y-36884879D01*
X86433498Y-36837404D01*
X86625499Y-36645404D01*
X86666377Y-36618091D01*
X86714595Y-36608500D01*
X95985406Y-36608500D01*
X96033624Y-36618091D01*
X96074501Y-36645405D01*
X102030501Y-42601405D01*
X102061239Y-42651564D01*
X102065855Y-42710211D01*
X102043342Y-42764561D01*
X101998609Y-42802767D01*
X101941406Y-42816500D01*
X101614594Y-42816500D01*
X101566376Y-42806909D01*
X101525499Y-42779595D01*
X100944497Y-42198593D01*
X100357244Y-41611339D01*
X100344171Y-41595021D01*
X100292348Y-41546356D01*
X100289536Y-41543631D01*
X100269770Y-41523865D01*
X100266575Y-41521386D01*
X100257553Y-41513681D01*
X100225320Y-41483413D01*
X100207567Y-41473653D01*
X100191041Y-41462797D01*
X100175041Y-41450386D01*
X100134466Y-41432828D01*
X100123804Y-41427604D01*
X100085063Y-41406305D01*
X100071313Y-41402775D01*
X100065437Y-41401266D01*
X100046731Y-41394862D01*
X100028145Y-41386819D01*
X99984475Y-41379902D01*
X99972853Y-41377495D01*
X99930030Y-41366500D01*
X99930029Y-41366500D01*
X99909776Y-41366500D01*
X99890066Y-41364949D01*
X99870057Y-41361779D01*
X99826039Y-41365941D01*
X99814181Y-41366500D01*
X91135374Y-41366500D01*
X91068338Y-41347187D01*
X91021852Y-41295170D01*
X91010166Y-41226393D01*
X91013140Y-41200001D01*
X90994633Y-41035749D01*
X90940041Y-40879734D01*
X90889773Y-40799733D01*
X90844548Y-40727757D01*
X90846867Y-40726299D01*
X90823307Y-40683671D01*
X90827218Y-40614020D01*
X90844634Y-40564252D01*
X90863141Y-40400000D01*
X90844634Y-40235748D01*
X90790042Y-40079733D01*
X90702102Y-39939777D01*
X90702101Y-39939776D01*
X90702100Y-39939774D01*
X90585225Y-39822899D01*
X90445266Y-39734957D01*
X90289254Y-39680366D01*
X90125000Y-39661859D01*
X89960745Y-39680366D01*
X89877691Y-39709429D01*
X89836076Y-39716500D01*
X83368632Y-39716500D01*
X83301596Y-39697187D01*
X83255110Y-39645169D01*
X83243424Y-39576393D01*
X83244160Y-39569853D01*
X83244162Y-39569850D01*
X83263299Y-39400000D01*
X83244162Y-39230150D01*
X83204942Y-39118066D01*
X83187709Y-39068816D01*
X83096770Y-38924089D01*
X82975910Y-38803229D01*
X82831183Y-38712290D01*
X82669852Y-38655838D01*
X82500000Y-38636701D01*
X82330147Y-38655838D01*
X82168816Y-38712290D01*
X82088599Y-38762695D01*
X82035671Y-38781216D01*
X81979948Y-38774937D01*
X81932468Y-38745103D01*
X80441329Y-37253964D01*
X80411495Y-37206484D01*
X80405216Y-37150762D01*
X80423737Y-37097833D01*
X80445310Y-37063500D01*
X80485042Y-37000267D01*
X80539634Y-36844252D01*
X80558141Y-36680000D01*
X80539634Y-36515748D01*
X80485042Y-36359733D01*
X80397102Y-36219777D01*
X80397101Y-36219776D01*
X80397100Y-36219774D01*
X80280225Y-36102899D01*
X80140267Y-36014958D01*
X80125978Y-36009958D01*
X80029882Y-35976332D01*
X79982404Y-35946499D01*
X78027244Y-33991339D01*
X78014171Y-33975021D01*
X77962349Y-33926357D01*
X77959537Y-33923632D01*
X77939770Y-33903865D01*
X77936575Y-33901386D01*
X77927553Y-33893681D01*
X77895320Y-33863413D01*
X77877567Y-33853653D01*
X77861041Y-33842797D01*
X77845041Y-33830386D01*
X77804466Y-33812828D01*
X77793804Y-33807604D01*
X77755063Y-33786305D01*
X77741313Y-33782775D01*
X77735437Y-33781266D01*
X77716731Y-33774862D01*
X77698145Y-33766819D01*
X77654475Y-33759902D01*
X77642853Y-33757495D01*
X77613085Y-33749852D01*
X77600030Y-33746500D01*
X77600029Y-33746500D01*
X77579776Y-33746500D01*
X77560066Y-33744949D01*
X77540057Y-33741779D01*
X77496039Y-33745941D01*
X77484181Y-33746500D01*
X73753849Y-33746500D01*
X73733064Y-33744205D01*
X73662033Y-33746438D01*
X73658075Y-33746500D01*
X73630140Y-33746500D01*
X73626114Y-33747008D01*
X73614302Y-33747937D01*
X73570110Y-33749326D01*
X73550657Y-33754978D01*
X73531303Y-33758986D01*
X73511201Y-33761526D01*
X73470084Y-33777804D01*
X73458859Y-33781647D01*
X73416408Y-33793980D01*
X73398967Y-33804295D01*
X73381219Y-33812989D01*
X73362383Y-33820447D01*
X73326614Y-33846434D01*
X73316697Y-33852948D01*
X73278637Y-33875457D01*
X73264305Y-33889788D01*
X73249281Y-33902619D01*
X73232896Y-33914524D01*
X73204711Y-33948593D01*
X73196723Y-33957370D01*
X73177595Y-33976498D01*
X73130117Y-34006332D01*
X73060663Y-34030635D01*
X73019733Y-34044958D01*
X73019731Y-34044958D01*
X73019731Y-34044959D01*
X72879774Y-34132899D01*
X72762899Y-34249774D01*
X72674957Y-34389733D01*
X72620366Y-34545745D01*
X72601859Y-34709999D01*
X72620366Y-34874254D01*
X72674957Y-35030266D01*
X72762899Y-35170225D01*
X72879774Y-35287100D01*
X72879776Y-35287101D01*
X72879777Y-35287102D01*
X72990265Y-35356526D01*
X73019733Y-35375042D01*
X73059565Y-35388980D01*
X73175748Y-35429634D01*
X73340000Y-35448141D01*
X73504252Y-35429634D01*
X73660267Y-35375042D01*
X73800223Y-35287102D01*
X73917102Y-35170223D01*
X73978527Y-35072464D01*
X74024266Y-35029222D01*
X74085215Y-35013500D01*
X75202737Y-35013500D01*
X75270081Y-35033007D01*
X75316573Y-35085487D01*
X75327818Y-35154691D01*
X75324430Y-35182587D01*
X75323285Y-35190107D01*
X75312735Y-35247676D01*
X75316270Y-35306101D01*
X75316500Y-35313709D01*
X75316500Y-38678061D01*
X75299653Y-38741002D01*
X75253618Y-38787112D01*
X75190706Y-38804060D01*
X72126703Y-38809017D01*
X72063618Y-38792205D01*
X72017415Y-38746077D01*
X72000500Y-38683018D01*
X72000500Y-33580000D01*
X101676701Y-33580000D01*
X101695838Y-33749852D01*
X101752290Y-33911183D01*
X101843229Y-34055910D01*
X101964089Y-34176770D01*
X102108816Y-34267709D01*
X102270147Y-34324161D01*
X102270150Y-34324162D01*
X102440000Y-34343299D01*
X102609850Y-34324162D01*
X102771183Y-34267709D01*
X102915909Y-34176771D01*
X103036771Y-34055909D01*
X103061458Y-34016619D01*
X103101107Y-33976972D01*
X103154035Y-33958451D01*
X103209758Y-33964730D01*
X103236506Y-33981537D01*
X103237756Y-33979549D01*
X103359289Y-34055913D01*
X103389733Y-34075042D01*
X103545748Y-34129634D01*
X103710000Y-34148141D01*
X103874252Y-34129634D01*
X104030267Y-34075042D01*
X104170223Y-33987102D01*
X104287102Y-33870223D01*
X104375042Y-33730267D01*
X104429634Y-33574252D01*
X104448141Y-33410000D01*
X104429634Y-33245748D01*
X104422982Y-33226739D01*
X104375042Y-33089733D01*
X104287100Y-32949774D01*
X104170225Y-32832899D01*
X104030266Y-32744957D01*
X103874254Y-32690366D01*
X103710000Y-32671859D01*
X103545745Y-32690366D01*
X103389733Y-32744957D01*
X103249774Y-32832899D01*
X103132898Y-32949775D01*
X103120317Y-32969798D01*
X103080665Y-33009448D01*
X103027737Y-33027968D01*
X102972015Y-33021689D01*
X102924536Y-32991855D01*
X102915910Y-32983229D01*
X102771183Y-32892290D01*
X102609852Y-32835838D01*
X102440000Y-32816701D01*
X102270147Y-32835838D01*
X102108816Y-32892290D01*
X101964089Y-32983229D01*
X101843229Y-33104089D01*
X101752290Y-33248816D01*
X101695838Y-33410147D01*
X101676701Y-33580000D01*
X72000500Y-33580000D01*
X72000500Y-31999999D01*
X73094532Y-31999999D01*
X73114365Y-32226692D01*
X73173260Y-32446495D01*
X73269431Y-32652733D01*
X73269432Y-32652734D01*
X73399953Y-32839139D01*
X73560861Y-33000047D01*
X73747266Y-33130568D01*
X73953504Y-33226739D01*
X74173308Y-33285635D01*
X74343216Y-33300500D01*
X74456779Y-33300500D01*
X74456784Y-33300500D01*
X74626692Y-33285635D01*
X74846496Y-33226739D01*
X75052734Y-33130568D01*
X75239139Y-33000047D01*
X75400047Y-32839139D01*
X75530568Y-32652734D01*
X75626739Y-32446496D01*
X75631159Y-32430000D01*
X81326201Y-32430000D01*
X81345338Y-32599852D01*
X81401790Y-32761183D01*
X81492729Y-32905910D01*
X81613589Y-33026770D01*
X81758316Y-33117709D01*
X81919647Y-33174161D01*
X81919650Y-33174162D01*
X82089500Y-33193299D01*
X82259350Y-33174162D01*
X82420683Y-33117709D01*
X82565409Y-33026771D01*
X82686271Y-32905909D01*
X82777209Y-32761183D01*
X82833662Y-32599850D01*
X82852799Y-32430000D01*
X82833662Y-32260150D01*
X82821955Y-32226692D01*
X82777209Y-32098816D01*
X82715117Y-31999999D01*
X98094532Y-31999999D01*
X98114365Y-32226692D01*
X98173260Y-32446495D01*
X98269432Y-32652734D01*
X98399953Y-32839139D01*
X98560861Y-33000047D01*
X98747266Y-33130568D01*
X98953504Y-33226739D01*
X99173308Y-33285635D01*
X99343216Y-33300500D01*
X99456779Y-33300500D01*
X99456784Y-33300500D01*
X99626692Y-33285635D01*
X99846496Y-33226739D01*
X100052734Y-33130568D01*
X100239139Y-33000047D01*
X100400047Y-32839139D01*
X100530568Y-32652734D01*
X100626739Y-32446496D01*
X100685635Y-32226692D01*
X100705468Y-32000000D01*
X100685635Y-31773308D01*
X100637054Y-31592000D01*
X102406701Y-31592000D01*
X102425838Y-31761852D01*
X102482290Y-31923183D01*
X102573229Y-32067910D01*
X102694089Y-32188770D01*
X102838816Y-32279709D01*
X103000147Y-32336161D01*
X103000150Y-32336162D01*
X103170000Y-32355299D01*
X103339850Y-32336162D01*
X103501183Y-32279709D01*
X103645909Y-32188771D01*
X103766771Y-32067909D01*
X103857709Y-31923183D01*
X103914162Y-31761850D01*
X103933299Y-31592000D01*
X103914162Y-31422150D01*
X103857709Y-31260817D01*
X103857709Y-31260816D01*
X103766770Y-31116089D01*
X103645910Y-30995229D01*
X103501183Y-30904290D01*
X103339852Y-30847838D01*
X103170000Y-30828701D01*
X103000147Y-30847838D01*
X102838816Y-30904290D01*
X102694089Y-30995229D01*
X102573229Y-31116089D01*
X102482290Y-31260816D01*
X102425838Y-31422147D01*
X102406701Y-31592000D01*
X100637054Y-31592000D01*
X100626739Y-31553504D01*
X100530568Y-31347266D01*
X100400047Y-31160861D01*
X100239139Y-30999953D01*
X100052734Y-30869432D01*
X99965387Y-30828701D01*
X99846495Y-30773260D01*
X99626692Y-30714365D01*
X99456784Y-30699500D01*
X99343216Y-30699500D01*
X99201626Y-30711887D01*
X99173307Y-30714365D01*
X98953504Y-30773260D01*
X98747265Y-30869432D01*
X98560858Y-30999955D01*
X98399955Y-31160858D01*
X98269432Y-31347265D01*
X98173260Y-31553504D01*
X98114365Y-31773307D01*
X98094532Y-31999999D01*
X82715117Y-31999999D01*
X82686270Y-31954089D01*
X82565410Y-31833229D01*
X82420683Y-31742290D01*
X82259352Y-31685838D01*
X82089500Y-31666701D01*
X81919647Y-31685838D01*
X81758316Y-31742290D01*
X81613589Y-31833229D01*
X81492729Y-31954089D01*
X81401790Y-32098816D01*
X81345338Y-32260147D01*
X81326201Y-32430000D01*
X75631159Y-32430000D01*
X75685635Y-32226692D01*
X75705468Y-32000000D01*
X75685635Y-31773308D01*
X75626739Y-31553504D01*
X75530568Y-31347266D01*
X75400047Y-31160861D01*
X75239139Y-30999953D01*
X75052734Y-30869432D01*
X74965387Y-30828701D01*
X74846495Y-30773260D01*
X74626692Y-30714365D01*
X74456784Y-30699500D01*
X74343216Y-30699500D01*
X74201626Y-30711887D01*
X74173307Y-30714365D01*
X73953504Y-30773260D01*
X73747265Y-30869432D01*
X73560858Y-30999955D01*
X73399955Y-31160858D01*
X73269432Y-31347265D01*
X73173260Y-31553504D01*
X73114365Y-31773307D01*
X73094532Y-31999999D01*
X72000500Y-31999999D01*
X72000500Y-29908256D01*
X72001576Y-29891824D01*
X72002759Y-29882837D01*
X72003202Y-29879777D01*
X72015445Y-29802476D01*
X72023481Y-29773984D01*
X72033230Y-29750447D01*
X72037345Y-29741520D01*
X72061726Y-29693670D01*
X72074010Y-29674201D01*
X72091869Y-29650927D01*
X72102701Y-29638577D01*
X72138577Y-29602701D01*
X72150927Y-29591869D01*
X72174201Y-29574010D01*
X72193670Y-29561726D01*
X72241520Y-29537345D01*
X72250447Y-29533230D01*
X72273984Y-29523481D01*
X72302476Y-29515445D01*
X72379777Y-29503202D01*
X72382837Y-29502759D01*
X72391830Y-29501575D01*
X72408256Y-29500500D01*
X117873500Y-29500500D01*
X117936500Y-29517381D01*
G37*
G04 #@! TD.AperFunction*
G04 #@! TA.AperFunction,Conductor*
G36*
X99733624Y-43443091D02*
G01*
X99774501Y-43470405D01*
X100692751Y-44388655D01*
X100705834Y-44404985D01*
X100757665Y-44453656D01*
X100760477Y-44456381D01*
X100780230Y-44476134D01*
X100782183Y-44477649D01*
X100783424Y-44478612D01*
X100792444Y-44486316D01*
X100824679Y-44516586D01*
X100842435Y-44526347D01*
X100858951Y-44537196D01*
X100874959Y-44549613D01*
X100915525Y-44567167D01*
X100926188Y-44572391D01*
X100964935Y-44593693D01*
X100964937Y-44593693D01*
X100964940Y-44593695D01*
X100984574Y-44598736D01*
X101003259Y-44605134D01*
X101021855Y-44613181D01*
X101065530Y-44620098D01*
X101077125Y-44622498D01*
X101119970Y-44633500D01*
X101140224Y-44633500D01*
X101159934Y-44635051D01*
X101179942Y-44638220D01*
X101179942Y-44638219D01*
X101179943Y-44638220D01*
X101223961Y-44634058D01*
X101235819Y-44633500D01*
X102741405Y-44633500D01*
X102798608Y-44647233D01*
X102843341Y-44685439D01*
X102865854Y-44739789D01*
X102861238Y-44798436D01*
X102830500Y-44848595D01*
X102583691Y-45095404D01*
X102349499Y-45329596D01*
X102308622Y-45356909D01*
X102260404Y-45366500D01*
X91049107Y-45366500D01*
X90982071Y-45347187D01*
X90935585Y-45295169D01*
X90923899Y-45226395D01*
X90938141Y-45100000D01*
X90919634Y-44935748D01*
X90865042Y-44779733D01*
X90777102Y-44639777D01*
X90777101Y-44639776D01*
X90777100Y-44639774D01*
X90660224Y-44522898D01*
X90554848Y-44456686D01*
X90511606Y-44410947D01*
X90495884Y-44349998D01*
X90511606Y-44289049D01*
X90554844Y-44243315D01*
X90660223Y-44177102D01*
X90777102Y-44060223D01*
X90865042Y-43920267D01*
X90919634Y-43764252D01*
X90938141Y-43600000D01*
X90935167Y-43573606D01*
X90946853Y-43504830D01*
X90993339Y-43452813D01*
X91060375Y-43433500D01*
X99685406Y-43433500D01*
X99733624Y-43443091D01*
G37*
G04 #@! TD.AperFunction*
G04 #@! TA.AperFunction,Conductor*
G36*
X80573436Y-39338722D02*
G01*
X80623595Y-39369460D01*
X81871285Y-40617150D01*
X81905031Y-40678207D01*
X81901119Y-40747860D01*
X81870366Y-40835745D01*
X81851859Y-41000000D01*
X81870366Y-41164254D01*
X81924957Y-41320266D01*
X82012899Y-41460225D01*
X82129774Y-41577100D01*
X82269733Y-41665042D01*
X82361349Y-41697100D01*
X82425748Y-41719634D01*
X82590000Y-41738141D01*
X82754252Y-41719634D01*
X82910267Y-41665042D01*
X83050223Y-41577102D01*
X83167102Y-41460223D01*
X83255042Y-41320267D01*
X83308362Y-41167885D01*
X83334928Y-41123798D01*
X83376906Y-41094013D01*
X83427292Y-41083500D01*
X89411131Y-41083500D01*
X89470007Y-41098101D01*
X89515237Y-41138522D01*
X89536339Y-41195392D01*
X89555365Y-41364255D01*
X89597061Y-41483414D01*
X89609957Y-41520268D01*
X89645667Y-41577100D01*
X89677746Y-41628154D01*
X89696266Y-41681081D01*
X89689988Y-41736803D01*
X89655366Y-41835747D01*
X89636859Y-41999999D01*
X89655366Y-42164254D01*
X89714647Y-42333667D01*
X89711670Y-42334708D01*
X89724748Y-42380108D01*
X89705437Y-42447139D01*
X89684956Y-42479734D01*
X89630366Y-42635745D01*
X89611859Y-42800003D01*
X89612016Y-42801396D01*
X89611085Y-42806874D01*
X89610270Y-42814108D01*
X89609863Y-42814062D01*
X89600329Y-42870171D01*
X89553843Y-42922188D01*
X89486808Y-42941500D01*
X80534500Y-42941500D01*
X80471500Y-42924619D01*
X80425381Y-42878500D01*
X80408500Y-42815500D01*
X80408500Y-39566614D01*
X80410872Y-39545124D01*
X80410788Y-39542465D01*
X80410789Y-39542463D01*
X80408561Y-39471598D01*
X80408500Y-39467641D01*
X80408500Y-39458555D01*
X80422233Y-39401352D01*
X80460439Y-39356619D01*
X80514789Y-39334106D01*
X80573436Y-39338722D01*
G37*
G04 #@! TD.AperFunction*
M02*
