%TF.GenerationSoftware,KiCad,Pcbnew,7.0.2-6a45011f42~172~ubuntu22.04.1*%
%TF.CreationDate,2023-05-15T14:22:39+02:00*%
%TF.ProjectId,sharp-lcd-128x128,73686172-702d-46c6-9364-2d3132387831,rev?*%
%TF.SameCoordinates,Original*%
%TF.FileFunction,Drillmap*%
%TF.FilePolarity,Positive*%
%FSLAX45Y45*%
G04 Gerber Fmt 4.5, Leading zero omitted, Abs format (unit mm)*
G04 Created by KiCad (PCBNEW 7.0.2-6a45011f42~172~ubuntu22.04.1) date 2023-05-15 14:22:39*
%MOMM*%
%LPD*%
G01*
G04 APERTURE LIST*
%ADD10C,0.100000*%
%ADD11C,0.200000*%
%ADD12C,0.030000*%
%ADD13C,0.040000*%
%ADD14C,0.060000*%
G04 APERTURE END LIST*
D10*
X7230000Y-6250000D02*
X12198787Y-6250000D01*
X7240000Y-2950000D02*
G75*
G03*
X7200000Y-2990000I0J-40000D01*
G01*
X12229000Y-2950000D02*
X12229000Y-4250000D01*
X12229000Y-2950000D02*
X11880000Y-2950000D01*
X7200000Y-2990000D02*
X7200000Y-6220000D01*
X12229000Y-4900000D02*
X12229000Y-6220000D01*
X11880000Y-3700000D02*
X11880000Y-2950000D01*
X12150000Y-4250000D02*
X12150000Y-4900000D01*
X11880000Y-3700000D02*
X11800000Y-3700000D01*
X12198787Y-6249787D02*
G75*
G03*
X12228787Y-6219787I3J29997D01*
G01*
X7200000Y-6220000D02*
G75*
G03*
X7230000Y-6250000I30000J0D01*
G01*
X12150000Y-4900000D02*
X12229000Y-4900000D01*
X12150000Y-4250000D02*
X12229000Y-4250000D01*
X11800000Y-2950000D02*
X7240000Y-2950000D01*
X11800000Y-3700000D02*
X11800000Y-2950000D01*
D11*
D12*
X7379000Y-4028000D02*
X7409000Y-4058000D01*
X7409000Y-4028000D02*
X7379000Y-4058000D01*
X7959000Y-4230000D02*
X7989000Y-4260000D01*
X7989000Y-4230000D02*
X7959000Y-4260000D01*
X8296111Y-4270672D02*
X8326111Y-4300672D01*
X8326111Y-4270672D02*
X8296111Y-4300672D01*
X8356000Y-4631000D02*
X8386000Y-4661000D01*
X8386000Y-4631000D02*
X8356000Y-4661000D01*
X8360000Y-4811000D02*
X8390000Y-4841000D01*
X8390000Y-4811000D02*
X8360000Y-4841000D01*
X8536194Y-4298194D02*
X8566194Y-4328194D01*
X8566194Y-4298194D02*
X8536194Y-4328194D01*
X8622000Y-3968000D02*
X8652000Y-3998000D01*
X8652000Y-3968000D02*
X8622000Y-3998000D01*
X8654891Y-4303891D02*
X8684891Y-4333891D01*
X8684891Y-4303891D02*
X8654891Y-4333891D01*
X8733000Y-5936000D02*
X8763000Y-5966000D01*
X8763000Y-5936000D02*
X8733000Y-5966000D01*
X8798000Y-4503000D02*
X8828000Y-4533000D01*
X8828000Y-4503000D02*
X8798000Y-4533000D01*
X8971746Y-4984714D02*
X9001746Y-5014714D01*
X9001746Y-4984714D02*
X8971746Y-5014714D01*
X9064000Y-4973000D02*
X9094000Y-5003000D01*
X9094000Y-4973000D02*
X9064000Y-5003000D01*
X9103000Y-3496000D02*
X9133000Y-3526000D01*
X9133000Y-3496000D02*
X9103000Y-3526000D01*
X9122000Y-4557000D02*
X9152000Y-4587000D01*
X9152000Y-4557000D02*
X9122000Y-4587000D01*
X9186000Y-4375050D02*
X9216000Y-4405050D01*
X9216000Y-4375050D02*
X9186000Y-4405050D01*
X9252000Y-4793000D02*
X9282000Y-4823000D01*
X9282000Y-4793000D02*
X9252000Y-4823000D01*
X9268000Y-3299000D02*
X9298000Y-3329000D01*
X9298000Y-3299000D02*
X9268000Y-3329000D01*
X9496000Y-5033000D02*
X9526000Y-5063000D01*
X9526000Y-5033000D02*
X9496000Y-5063000D01*
X9576000Y-3602000D02*
X9606000Y-3632000D01*
X9606000Y-3602000D02*
X9576000Y-3632000D01*
X9760121Y-3816056D02*
X9790121Y-3846056D01*
X9790121Y-3816056D02*
X9760121Y-3846056D01*
X9901000Y-4400000D02*
X9931000Y-4430000D01*
X9931000Y-4400000D02*
X9901000Y-4430000D01*
X9903000Y-5655000D02*
X9933000Y-5685000D01*
X9933000Y-5655000D02*
X9903000Y-5685000D01*
X9904682Y-3819168D02*
X9934682Y-3849168D01*
X9934682Y-3819168D02*
X9904682Y-3849168D01*
X9986000Y-5309000D02*
X10016000Y-5339000D01*
X10016000Y-5309000D02*
X9986000Y-5339000D01*
X10004000Y-3888000D02*
X10034000Y-3918000D01*
X10034000Y-3888000D02*
X10004000Y-3918000D01*
X10015000Y-5397000D02*
X10045000Y-5427000D01*
X10045000Y-5397000D02*
X10015000Y-5427000D01*
X10048796Y-5158593D02*
X10078796Y-5188593D01*
X10078796Y-5158593D02*
X10048796Y-5188593D01*
X10089000Y-3753000D02*
X10119000Y-3783000D01*
X10119000Y-3753000D02*
X10089000Y-3783000D01*
X10139910Y-3611450D02*
X10169910Y-3641450D01*
X10169910Y-3611450D02*
X10139910Y-3641450D01*
X10245000Y-3909000D02*
X10275000Y-3939000D01*
X10275000Y-3909000D02*
X10245000Y-3939000D01*
X10550878Y-3062250D02*
X10580878Y-3092250D01*
X10580878Y-3062250D02*
X10550878Y-3092250D01*
X10580000Y-5765000D02*
X10610000Y-5795000D01*
X10610000Y-5765000D02*
X10580000Y-5795000D01*
X10601000Y-4695000D02*
X10631000Y-4725000D01*
X10631000Y-4695000D02*
X10601000Y-4725000D01*
X10784000Y-4379000D02*
X10814000Y-4409000D01*
X10814000Y-4379000D02*
X10784000Y-4409000D01*
X10953450Y-4720667D02*
X10983450Y-4750667D01*
X10983450Y-4720667D02*
X10953450Y-4750667D01*
X10985000Y-4633000D02*
X11015000Y-4663000D01*
X11015000Y-4633000D02*
X10985000Y-4663000D01*
X11126000Y-3889000D02*
X11156000Y-3919000D01*
X11156000Y-3889000D02*
X11126000Y-3919000D01*
X11811000Y-5405000D02*
X11841000Y-5435000D01*
X11841000Y-5405000D02*
X11811000Y-5435000D01*
D13*
X7950000Y-5547500D02*
G75*
G03*
X7950000Y-5547500I-20000J0D01*
G01*
X7950000Y-5882500D02*
G75*
G03*
X7950000Y-5882500I-20000J0D01*
G01*
X8102750Y-4681000D02*
G75*
G03*
X8102750Y-4681000I-20000J0D01*
G01*
X8109750Y-4436000D02*
G75*
G03*
X8109750Y-4436000I-20000J0D01*
G01*
X8233000Y-3981000D02*
G75*
G03*
X8233000Y-3981000I-20000J0D01*
G01*
X8262500Y-6137500D02*
G75*
G03*
X8262500Y-6137500I-20000J0D01*
G01*
X8447000Y-3612000D02*
G75*
G03*
X8447000Y-3612000I-20000J0D01*
G01*
X8763000Y-5550000D02*
G75*
G03*
X8763000Y-5550000I-20000J0D01*
G01*
X9020000Y-3176000D02*
G75*
G03*
X9020000Y-3176000I-20000J0D01*
G01*
X9333000Y-5369000D02*
G75*
G03*
X9333000Y-5369000I-20000J0D01*
G01*
X10152000Y-5802000D02*
G75*
G03*
X10152000Y-5802000I-20000J0D01*
G01*
X10177649Y-5379033D02*
G75*
G03*
X10177649Y-5379033I-20000J0D01*
G01*
X10306000Y-4457000D02*
G75*
G03*
X10306000Y-4457000I-20000J0D01*
G01*
X10306000Y-4693000D02*
G75*
G03*
X10306000Y-4693000I-20000J0D01*
G01*
X10654000Y-5607000D02*
G75*
G03*
X10654000Y-5607000I-20000J0D01*
G01*
X10897000Y-4273000D02*
G75*
G03*
X10897000Y-4273000I-20000J0D01*
G01*
X11657000Y-5066000D02*
G75*
G03*
X11657000Y-5066000I-20000J0D01*
G01*
X11739000Y-5643000D02*
G75*
G03*
X11739000Y-5643000I-20000J0D01*
G01*
D14*
X7575000Y-5250500D02*
X7575000Y-5310500D01*
X7545000Y-5280500D02*
X7605000Y-5280500D01*
D11*
X7605000Y-5250500D02*
X7545000Y-5250500D01*
X7545000Y-5250500D02*
G75*
G03*
X7545000Y-5310500I0J-30000D01*
G01*
X7545000Y-5310500D02*
X7605000Y-5310500D01*
X7605000Y-5310500D02*
G75*
G03*
X7605000Y-5250500I0J30000D01*
G01*
D14*
X7575000Y-6114500D02*
X7575000Y-6174500D01*
X7545000Y-6144500D02*
X7605000Y-6144500D01*
D11*
X7605000Y-6114500D02*
X7545000Y-6114500D01*
X7545000Y-6114500D02*
G75*
G03*
X7545000Y-6174500I0J-30000D01*
G01*
X7545000Y-6174500D02*
X7605000Y-6174500D01*
X7605000Y-6174500D02*
G75*
G03*
X7605000Y-6114500I0J30000D01*
G01*
D14*
X7993000Y-5250500D02*
X7993000Y-5310500D01*
X7963000Y-5280500D02*
X8023000Y-5280500D01*
D11*
X8048000Y-5250500D02*
X7938000Y-5250500D01*
X7938000Y-5250500D02*
G75*
G03*
X7938000Y-5310500I0J-30000D01*
G01*
X7938000Y-5310500D02*
X8048000Y-5310500D01*
X8048000Y-5310500D02*
G75*
G03*
X8048000Y-5250500I0J30000D01*
G01*
D14*
X7993000Y-6114500D02*
X7993000Y-6174500D01*
X7963000Y-6144500D02*
X8023000Y-6144500D01*
D11*
X8048000Y-6114500D02*
X7938000Y-6114500D01*
X7938000Y-6114500D02*
G75*
G03*
X7938000Y-6174500I0J-30000D01*
G01*
X7938000Y-6174500D02*
X8048000Y-6174500D01*
X8048000Y-6174500D02*
G75*
G03*
X8048000Y-6114500I0J30000D01*
G01*
D10*
X10738356Y-6060356D02*
X10738356Y-5989644D01*
X10667644Y-5989644D01*
X10667644Y-6060356D01*
X10738356Y-6060356D01*
X10992356Y-6060356D02*
X10992356Y-5989644D01*
X10921644Y-5989644D01*
X10921644Y-6060356D01*
X10992356Y-6060356D01*
X11246356Y-6060356D02*
X11246356Y-5989644D01*
X11175644Y-5989644D01*
X11175644Y-6060356D01*
X11246356Y-6060356D01*
X11500356Y-6060356D02*
X11500356Y-5989644D01*
X11429644Y-5989644D01*
X11429644Y-6060356D01*
X11500356Y-6060356D01*
X11754356Y-6060356D02*
X11754356Y-5989644D01*
X11683644Y-5989644D01*
X11683644Y-6060356D01*
X11754356Y-6060356D01*
X12008356Y-6060356D02*
X12008356Y-5989644D01*
X11937644Y-5989644D01*
X11937644Y-6060356D01*
X12008356Y-6060356D01*
D11*
X7442619Y-6567524D02*
X7442619Y-6367524D01*
X7442619Y-6367524D02*
X7490238Y-6367524D01*
X7490238Y-6367524D02*
X7518809Y-6377048D01*
X7518809Y-6377048D02*
X7537857Y-6396095D01*
X7537857Y-6396095D02*
X7547381Y-6415143D01*
X7547381Y-6415143D02*
X7556905Y-6453238D01*
X7556905Y-6453238D02*
X7556905Y-6481809D01*
X7556905Y-6481809D02*
X7547381Y-6519905D01*
X7547381Y-6519905D02*
X7537857Y-6538952D01*
X7537857Y-6538952D02*
X7518809Y-6558000D01*
X7518809Y-6558000D02*
X7490238Y-6567524D01*
X7490238Y-6567524D02*
X7442619Y-6567524D01*
X7642619Y-6567524D02*
X7642619Y-6434190D01*
X7642619Y-6472286D02*
X7652143Y-6453238D01*
X7652143Y-6453238D02*
X7661667Y-6443714D01*
X7661667Y-6443714D02*
X7680714Y-6434190D01*
X7680714Y-6434190D02*
X7699762Y-6434190D01*
X7766428Y-6567524D02*
X7766428Y-6434190D01*
X7766428Y-6367524D02*
X7756905Y-6377048D01*
X7756905Y-6377048D02*
X7766428Y-6386571D01*
X7766428Y-6386571D02*
X7775952Y-6377048D01*
X7775952Y-6377048D02*
X7766428Y-6367524D01*
X7766428Y-6367524D02*
X7766428Y-6386571D01*
X7890238Y-6567524D02*
X7871190Y-6558000D01*
X7871190Y-6558000D02*
X7861667Y-6538952D01*
X7861667Y-6538952D02*
X7861667Y-6367524D01*
X7995000Y-6567524D02*
X7975952Y-6558000D01*
X7975952Y-6558000D02*
X7966428Y-6538952D01*
X7966428Y-6538952D02*
X7966428Y-6367524D01*
X8223571Y-6567524D02*
X8223571Y-6367524D01*
X8223571Y-6367524D02*
X8290238Y-6510381D01*
X8290238Y-6510381D02*
X8356905Y-6367524D01*
X8356905Y-6367524D02*
X8356905Y-6567524D01*
X8537857Y-6567524D02*
X8537857Y-6462762D01*
X8537857Y-6462762D02*
X8528333Y-6443714D01*
X8528333Y-6443714D02*
X8509286Y-6434190D01*
X8509286Y-6434190D02*
X8471190Y-6434190D01*
X8471190Y-6434190D02*
X8452143Y-6443714D01*
X8537857Y-6558000D02*
X8518810Y-6567524D01*
X8518810Y-6567524D02*
X8471190Y-6567524D01*
X8471190Y-6567524D02*
X8452143Y-6558000D01*
X8452143Y-6558000D02*
X8442619Y-6538952D01*
X8442619Y-6538952D02*
X8442619Y-6519905D01*
X8442619Y-6519905D02*
X8452143Y-6500857D01*
X8452143Y-6500857D02*
X8471190Y-6491333D01*
X8471190Y-6491333D02*
X8518810Y-6491333D01*
X8518810Y-6491333D02*
X8537857Y-6481809D01*
X8633095Y-6434190D02*
X8633095Y-6634190D01*
X8633095Y-6443714D02*
X8652143Y-6434190D01*
X8652143Y-6434190D02*
X8690238Y-6434190D01*
X8690238Y-6434190D02*
X8709286Y-6443714D01*
X8709286Y-6443714D02*
X8718810Y-6453238D01*
X8718810Y-6453238D02*
X8728333Y-6472286D01*
X8728333Y-6472286D02*
X8728333Y-6529428D01*
X8728333Y-6529428D02*
X8718810Y-6548476D01*
X8718810Y-6548476D02*
X8709286Y-6558000D01*
X8709286Y-6558000D02*
X8690238Y-6567524D01*
X8690238Y-6567524D02*
X8652143Y-6567524D01*
X8652143Y-6567524D02*
X8633095Y-6558000D01*
X8814048Y-6548476D02*
X8823571Y-6558000D01*
X8823571Y-6558000D02*
X8814048Y-6567524D01*
X8814048Y-6567524D02*
X8804524Y-6558000D01*
X8804524Y-6558000D02*
X8814048Y-6548476D01*
X8814048Y-6548476D02*
X8814048Y-6567524D01*
X8814048Y-6443714D02*
X8823571Y-6453238D01*
X8823571Y-6453238D02*
X8814048Y-6462762D01*
X8814048Y-6462762D02*
X8804524Y-6453238D01*
X8804524Y-6453238D02*
X8814048Y-6443714D01*
X8814048Y-6443714D02*
X8814048Y-6462762D01*
D12*
X7165000Y-6880000D02*
X7195000Y-6910000D01*
X7195000Y-6880000D02*
X7165000Y-6910000D01*
D11*
X7480714Y-6787524D02*
X7499762Y-6787524D01*
X7499762Y-6787524D02*
X7518809Y-6797048D01*
X7518809Y-6797048D02*
X7528333Y-6806571D01*
X7528333Y-6806571D02*
X7537857Y-6825619D01*
X7537857Y-6825619D02*
X7547381Y-6863714D01*
X7547381Y-6863714D02*
X7547381Y-6911333D01*
X7547381Y-6911333D02*
X7537857Y-6949428D01*
X7537857Y-6949428D02*
X7528333Y-6968476D01*
X7528333Y-6968476D02*
X7518809Y-6978000D01*
X7518809Y-6978000D02*
X7499762Y-6987524D01*
X7499762Y-6987524D02*
X7480714Y-6987524D01*
X7480714Y-6987524D02*
X7461667Y-6978000D01*
X7461667Y-6978000D02*
X7452143Y-6968476D01*
X7452143Y-6968476D02*
X7442619Y-6949428D01*
X7442619Y-6949428D02*
X7433095Y-6911333D01*
X7433095Y-6911333D02*
X7433095Y-6863714D01*
X7433095Y-6863714D02*
X7442619Y-6825619D01*
X7442619Y-6825619D02*
X7452143Y-6806571D01*
X7452143Y-6806571D02*
X7461667Y-6797048D01*
X7461667Y-6797048D02*
X7480714Y-6787524D01*
X7633095Y-6968476D02*
X7642619Y-6978000D01*
X7642619Y-6978000D02*
X7633095Y-6987524D01*
X7633095Y-6987524D02*
X7623571Y-6978000D01*
X7623571Y-6978000D02*
X7633095Y-6968476D01*
X7633095Y-6968476D02*
X7633095Y-6987524D01*
X7709286Y-6787524D02*
X7833095Y-6787524D01*
X7833095Y-6787524D02*
X7766428Y-6863714D01*
X7766428Y-6863714D02*
X7795000Y-6863714D01*
X7795000Y-6863714D02*
X7814048Y-6873238D01*
X7814048Y-6873238D02*
X7823571Y-6882762D01*
X7823571Y-6882762D02*
X7833095Y-6901809D01*
X7833095Y-6901809D02*
X7833095Y-6949428D01*
X7833095Y-6949428D02*
X7823571Y-6968476D01*
X7823571Y-6968476D02*
X7814048Y-6978000D01*
X7814048Y-6978000D02*
X7795000Y-6987524D01*
X7795000Y-6987524D02*
X7737857Y-6987524D01*
X7737857Y-6987524D02*
X7718809Y-6978000D01*
X7718809Y-6978000D02*
X7709286Y-6968476D01*
X7956905Y-6787524D02*
X7975952Y-6787524D01*
X7975952Y-6787524D02*
X7995000Y-6797048D01*
X7995000Y-6797048D02*
X8004524Y-6806571D01*
X8004524Y-6806571D02*
X8014048Y-6825619D01*
X8014048Y-6825619D02*
X8023571Y-6863714D01*
X8023571Y-6863714D02*
X8023571Y-6911333D01*
X8023571Y-6911333D02*
X8014048Y-6949428D01*
X8014048Y-6949428D02*
X8004524Y-6968476D01*
X8004524Y-6968476D02*
X7995000Y-6978000D01*
X7995000Y-6978000D02*
X7975952Y-6987524D01*
X7975952Y-6987524D02*
X7956905Y-6987524D01*
X7956905Y-6987524D02*
X7937857Y-6978000D01*
X7937857Y-6978000D02*
X7928333Y-6968476D01*
X7928333Y-6968476D02*
X7918809Y-6949428D01*
X7918809Y-6949428D02*
X7909286Y-6911333D01*
X7909286Y-6911333D02*
X7909286Y-6863714D01*
X7909286Y-6863714D02*
X7918809Y-6825619D01*
X7918809Y-6825619D02*
X7928333Y-6806571D01*
X7928333Y-6806571D02*
X7937857Y-6797048D01*
X7937857Y-6797048D02*
X7956905Y-6787524D01*
X8147381Y-6787524D02*
X8166429Y-6787524D01*
X8166429Y-6787524D02*
X8185476Y-6797048D01*
X8185476Y-6797048D02*
X8195000Y-6806571D01*
X8195000Y-6806571D02*
X8204524Y-6825619D01*
X8204524Y-6825619D02*
X8214048Y-6863714D01*
X8214048Y-6863714D02*
X8214048Y-6911333D01*
X8214048Y-6911333D02*
X8204524Y-6949428D01*
X8204524Y-6949428D02*
X8195000Y-6968476D01*
X8195000Y-6968476D02*
X8185476Y-6978000D01*
X8185476Y-6978000D02*
X8166429Y-6987524D01*
X8166429Y-6987524D02*
X8147381Y-6987524D01*
X8147381Y-6987524D02*
X8128333Y-6978000D01*
X8128333Y-6978000D02*
X8118809Y-6968476D01*
X8118809Y-6968476D02*
X8109286Y-6949428D01*
X8109286Y-6949428D02*
X8099762Y-6911333D01*
X8099762Y-6911333D02*
X8099762Y-6863714D01*
X8099762Y-6863714D02*
X8109286Y-6825619D01*
X8109286Y-6825619D02*
X8118809Y-6806571D01*
X8118809Y-6806571D02*
X8128333Y-6797048D01*
X8128333Y-6797048D02*
X8147381Y-6787524D01*
X8299762Y-6987524D02*
X8299762Y-6854190D01*
X8299762Y-6873238D02*
X8309286Y-6863714D01*
X8309286Y-6863714D02*
X8328333Y-6854190D01*
X8328333Y-6854190D02*
X8356905Y-6854190D01*
X8356905Y-6854190D02*
X8375952Y-6863714D01*
X8375952Y-6863714D02*
X8385476Y-6882762D01*
X8385476Y-6882762D02*
X8385476Y-6987524D01*
X8385476Y-6882762D02*
X8395000Y-6863714D01*
X8395000Y-6863714D02*
X8414048Y-6854190D01*
X8414048Y-6854190D02*
X8442619Y-6854190D01*
X8442619Y-6854190D02*
X8461667Y-6863714D01*
X8461667Y-6863714D02*
X8471191Y-6882762D01*
X8471191Y-6882762D02*
X8471191Y-6987524D01*
X8566429Y-6987524D02*
X8566429Y-6854190D01*
X8566429Y-6873238D02*
X8575952Y-6863714D01*
X8575952Y-6863714D02*
X8595000Y-6854190D01*
X8595000Y-6854190D02*
X8623572Y-6854190D01*
X8623572Y-6854190D02*
X8642619Y-6863714D01*
X8642619Y-6863714D02*
X8652143Y-6882762D01*
X8652143Y-6882762D02*
X8652143Y-6987524D01*
X8652143Y-6882762D02*
X8661667Y-6863714D01*
X8661667Y-6863714D02*
X8680714Y-6854190D01*
X8680714Y-6854190D02*
X8709286Y-6854190D01*
X8709286Y-6854190D02*
X8728333Y-6863714D01*
X8728333Y-6863714D02*
X8737857Y-6882762D01*
X8737857Y-6882762D02*
X8737857Y-6987524D01*
X9128333Y-6778000D02*
X8956905Y-7035143D01*
X9385476Y-6787524D02*
X9404524Y-6787524D01*
X9404524Y-6787524D02*
X9423572Y-6797048D01*
X9423572Y-6797048D02*
X9433095Y-6806571D01*
X9433095Y-6806571D02*
X9442619Y-6825619D01*
X9442619Y-6825619D02*
X9452143Y-6863714D01*
X9452143Y-6863714D02*
X9452143Y-6911333D01*
X9452143Y-6911333D02*
X9442619Y-6949428D01*
X9442619Y-6949428D02*
X9433095Y-6968476D01*
X9433095Y-6968476D02*
X9423572Y-6978000D01*
X9423572Y-6978000D02*
X9404524Y-6987524D01*
X9404524Y-6987524D02*
X9385476Y-6987524D01*
X9385476Y-6987524D02*
X9366429Y-6978000D01*
X9366429Y-6978000D02*
X9356905Y-6968476D01*
X9356905Y-6968476D02*
X9347381Y-6949428D01*
X9347381Y-6949428D02*
X9337857Y-6911333D01*
X9337857Y-6911333D02*
X9337857Y-6863714D01*
X9337857Y-6863714D02*
X9347381Y-6825619D01*
X9347381Y-6825619D02*
X9356905Y-6806571D01*
X9356905Y-6806571D02*
X9366429Y-6797048D01*
X9366429Y-6797048D02*
X9385476Y-6787524D01*
X9537857Y-6968476D02*
X9547381Y-6978000D01*
X9547381Y-6978000D02*
X9537857Y-6987524D01*
X9537857Y-6987524D02*
X9528334Y-6978000D01*
X9528334Y-6978000D02*
X9537857Y-6968476D01*
X9537857Y-6968476D02*
X9537857Y-6987524D01*
X9671191Y-6787524D02*
X9690238Y-6787524D01*
X9690238Y-6787524D02*
X9709286Y-6797048D01*
X9709286Y-6797048D02*
X9718810Y-6806571D01*
X9718810Y-6806571D02*
X9728334Y-6825619D01*
X9728334Y-6825619D02*
X9737857Y-6863714D01*
X9737857Y-6863714D02*
X9737857Y-6911333D01*
X9737857Y-6911333D02*
X9728334Y-6949428D01*
X9728334Y-6949428D02*
X9718810Y-6968476D01*
X9718810Y-6968476D02*
X9709286Y-6978000D01*
X9709286Y-6978000D02*
X9690238Y-6987524D01*
X9690238Y-6987524D02*
X9671191Y-6987524D01*
X9671191Y-6987524D02*
X9652143Y-6978000D01*
X9652143Y-6978000D02*
X9642619Y-6968476D01*
X9642619Y-6968476D02*
X9633095Y-6949428D01*
X9633095Y-6949428D02*
X9623572Y-6911333D01*
X9623572Y-6911333D02*
X9623572Y-6863714D01*
X9623572Y-6863714D02*
X9633095Y-6825619D01*
X9633095Y-6825619D02*
X9642619Y-6806571D01*
X9642619Y-6806571D02*
X9652143Y-6797048D01*
X9652143Y-6797048D02*
X9671191Y-6787524D01*
X9928334Y-6987524D02*
X9814048Y-6987524D01*
X9871191Y-6987524D02*
X9871191Y-6787524D01*
X9871191Y-6787524D02*
X9852143Y-6816095D01*
X9852143Y-6816095D02*
X9833095Y-6835143D01*
X9833095Y-6835143D02*
X9814048Y-6844667D01*
X10118810Y-6987524D02*
X10004524Y-6987524D01*
X10061667Y-6987524D02*
X10061667Y-6787524D01*
X10061667Y-6787524D02*
X10042619Y-6816095D01*
X10042619Y-6816095D02*
X10023572Y-6835143D01*
X10023572Y-6835143D02*
X10004524Y-6844667D01*
X10233095Y-6873238D02*
X10214048Y-6863714D01*
X10214048Y-6863714D02*
X10204524Y-6854190D01*
X10204524Y-6854190D02*
X10195000Y-6835143D01*
X10195000Y-6835143D02*
X10195000Y-6825619D01*
X10195000Y-6825619D02*
X10204524Y-6806571D01*
X10204524Y-6806571D02*
X10214048Y-6797048D01*
X10214048Y-6797048D02*
X10233095Y-6787524D01*
X10233095Y-6787524D02*
X10271191Y-6787524D01*
X10271191Y-6787524D02*
X10290238Y-6797048D01*
X10290238Y-6797048D02*
X10299762Y-6806571D01*
X10299762Y-6806571D02*
X10309286Y-6825619D01*
X10309286Y-6825619D02*
X10309286Y-6835143D01*
X10309286Y-6835143D02*
X10299762Y-6854190D01*
X10299762Y-6854190D02*
X10290238Y-6863714D01*
X10290238Y-6863714D02*
X10271191Y-6873238D01*
X10271191Y-6873238D02*
X10233095Y-6873238D01*
X10233095Y-6873238D02*
X10214048Y-6882762D01*
X10214048Y-6882762D02*
X10204524Y-6892286D01*
X10204524Y-6892286D02*
X10195000Y-6911333D01*
X10195000Y-6911333D02*
X10195000Y-6949428D01*
X10195000Y-6949428D02*
X10204524Y-6968476D01*
X10204524Y-6968476D02*
X10214048Y-6978000D01*
X10214048Y-6978000D02*
X10233095Y-6987524D01*
X10233095Y-6987524D02*
X10271191Y-6987524D01*
X10271191Y-6987524D02*
X10290238Y-6978000D01*
X10290238Y-6978000D02*
X10299762Y-6968476D01*
X10299762Y-6968476D02*
X10309286Y-6949428D01*
X10309286Y-6949428D02*
X10309286Y-6911333D01*
X10309286Y-6911333D02*
X10299762Y-6892286D01*
X10299762Y-6892286D02*
X10290238Y-6882762D01*
X10290238Y-6882762D02*
X10271191Y-6873238D01*
X10385476Y-6787524D02*
X10385476Y-6825619D01*
X10461667Y-6787524D02*
X10461667Y-6825619D01*
X10756905Y-7063714D02*
X10747381Y-7054190D01*
X10747381Y-7054190D02*
X10728334Y-7025619D01*
X10728334Y-7025619D02*
X10718810Y-7006571D01*
X10718810Y-7006571D02*
X10709286Y-6978000D01*
X10709286Y-6978000D02*
X10699762Y-6930381D01*
X10699762Y-6930381D02*
X10699762Y-6892286D01*
X10699762Y-6892286D02*
X10709286Y-6844667D01*
X10709286Y-6844667D02*
X10718810Y-6816095D01*
X10718810Y-6816095D02*
X10728334Y-6797048D01*
X10728334Y-6797048D02*
X10747381Y-6768476D01*
X10747381Y-6768476D02*
X10756905Y-6758952D01*
X10814048Y-6787524D02*
X10937857Y-6787524D01*
X10937857Y-6787524D02*
X10871191Y-6863714D01*
X10871191Y-6863714D02*
X10899762Y-6863714D01*
X10899762Y-6863714D02*
X10918810Y-6873238D01*
X10918810Y-6873238D02*
X10928334Y-6882762D01*
X10928334Y-6882762D02*
X10937857Y-6901809D01*
X10937857Y-6901809D02*
X10937857Y-6949428D01*
X10937857Y-6949428D02*
X10928334Y-6968476D01*
X10928334Y-6968476D02*
X10918810Y-6978000D01*
X10918810Y-6978000D02*
X10899762Y-6987524D01*
X10899762Y-6987524D02*
X10842619Y-6987524D01*
X10842619Y-6987524D02*
X10823572Y-6978000D01*
X10823572Y-6978000D02*
X10814048Y-6968476D01*
X11052143Y-6873238D02*
X11033096Y-6863714D01*
X11033096Y-6863714D02*
X11023572Y-6854190D01*
X11023572Y-6854190D02*
X11014048Y-6835143D01*
X11014048Y-6835143D02*
X11014048Y-6825619D01*
X11014048Y-6825619D02*
X11023572Y-6806571D01*
X11023572Y-6806571D02*
X11033096Y-6797048D01*
X11033096Y-6797048D02*
X11052143Y-6787524D01*
X11052143Y-6787524D02*
X11090238Y-6787524D01*
X11090238Y-6787524D02*
X11109286Y-6797048D01*
X11109286Y-6797048D02*
X11118810Y-6806571D01*
X11118810Y-6806571D02*
X11128334Y-6825619D01*
X11128334Y-6825619D02*
X11128334Y-6835143D01*
X11128334Y-6835143D02*
X11118810Y-6854190D01*
X11118810Y-6854190D02*
X11109286Y-6863714D01*
X11109286Y-6863714D02*
X11090238Y-6873238D01*
X11090238Y-6873238D02*
X11052143Y-6873238D01*
X11052143Y-6873238D02*
X11033096Y-6882762D01*
X11033096Y-6882762D02*
X11023572Y-6892286D01*
X11023572Y-6892286D02*
X11014048Y-6911333D01*
X11014048Y-6911333D02*
X11014048Y-6949428D01*
X11014048Y-6949428D02*
X11023572Y-6968476D01*
X11023572Y-6968476D02*
X11033096Y-6978000D01*
X11033096Y-6978000D02*
X11052143Y-6987524D01*
X11052143Y-6987524D02*
X11090238Y-6987524D01*
X11090238Y-6987524D02*
X11109286Y-6978000D01*
X11109286Y-6978000D02*
X11118810Y-6968476D01*
X11118810Y-6968476D02*
X11128334Y-6949428D01*
X11128334Y-6949428D02*
X11128334Y-6911333D01*
X11128334Y-6911333D02*
X11118810Y-6892286D01*
X11118810Y-6892286D02*
X11109286Y-6882762D01*
X11109286Y-6882762D02*
X11090238Y-6873238D01*
X11366429Y-6987524D02*
X11366429Y-6787524D01*
X11452143Y-6987524D02*
X11452143Y-6882762D01*
X11452143Y-6882762D02*
X11442619Y-6863714D01*
X11442619Y-6863714D02*
X11423572Y-6854190D01*
X11423572Y-6854190D02*
X11395000Y-6854190D01*
X11395000Y-6854190D02*
X11375953Y-6863714D01*
X11375953Y-6863714D02*
X11366429Y-6873238D01*
X11575953Y-6987524D02*
X11556905Y-6978000D01*
X11556905Y-6978000D02*
X11547381Y-6968476D01*
X11547381Y-6968476D02*
X11537857Y-6949428D01*
X11537857Y-6949428D02*
X11537857Y-6892286D01*
X11537857Y-6892286D02*
X11547381Y-6873238D01*
X11547381Y-6873238D02*
X11556905Y-6863714D01*
X11556905Y-6863714D02*
X11575953Y-6854190D01*
X11575953Y-6854190D02*
X11604524Y-6854190D01*
X11604524Y-6854190D02*
X11623572Y-6863714D01*
X11623572Y-6863714D02*
X11633096Y-6873238D01*
X11633096Y-6873238D02*
X11642619Y-6892286D01*
X11642619Y-6892286D02*
X11642619Y-6949428D01*
X11642619Y-6949428D02*
X11633096Y-6968476D01*
X11633096Y-6968476D02*
X11623572Y-6978000D01*
X11623572Y-6978000D02*
X11604524Y-6987524D01*
X11604524Y-6987524D02*
X11575953Y-6987524D01*
X11756905Y-6987524D02*
X11737857Y-6978000D01*
X11737857Y-6978000D02*
X11728334Y-6958952D01*
X11728334Y-6958952D02*
X11728334Y-6787524D01*
X11909286Y-6978000D02*
X11890238Y-6987524D01*
X11890238Y-6987524D02*
X11852143Y-6987524D01*
X11852143Y-6987524D02*
X11833096Y-6978000D01*
X11833096Y-6978000D02*
X11823572Y-6958952D01*
X11823572Y-6958952D02*
X11823572Y-6882762D01*
X11823572Y-6882762D02*
X11833096Y-6863714D01*
X11833096Y-6863714D02*
X11852143Y-6854190D01*
X11852143Y-6854190D02*
X11890238Y-6854190D01*
X11890238Y-6854190D02*
X11909286Y-6863714D01*
X11909286Y-6863714D02*
X11918810Y-6882762D01*
X11918810Y-6882762D02*
X11918810Y-6901809D01*
X11918810Y-6901809D02*
X11823572Y-6920857D01*
X11995000Y-6978000D02*
X12014048Y-6987524D01*
X12014048Y-6987524D02*
X12052143Y-6987524D01*
X12052143Y-6987524D02*
X12071191Y-6978000D01*
X12071191Y-6978000D02*
X12080715Y-6958952D01*
X12080715Y-6958952D02*
X12080715Y-6949428D01*
X12080715Y-6949428D02*
X12071191Y-6930381D01*
X12071191Y-6930381D02*
X12052143Y-6920857D01*
X12052143Y-6920857D02*
X12023572Y-6920857D01*
X12023572Y-6920857D02*
X12004524Y-6911333D01*
X12004524Y-6911333D02*
X11995000Y-6892286D01*
X11995000Y-6892286D02*
X11995000Y-6882762D01*
X11995000Y-6882762D02*
X12004524Y-6863714D01*
X12004524Y-6863714D02*
X12023572Y-6854190D01*
X12023572Y-6854190D02*
X12052143Y-6854190D01*
X12052143Y-6854190D02*
X12071191Y-6863714D01*
X12147381Y-7063714D02*
X12156905Y-7054190D01*
X12156905Y-7054190D02*
X12175953Y-7025619D01*
X12175953Y-7025619D02*
X12185477Y-7006571D01*
X12185477Y-7006571D02*
X12195000Y-6978000D01*
X12195000Y-6978000D02*
X12204524Y-6930381D01*
X12204524Y-6930381D02*
X12204524Y-6892286D01*
X12204524Y-6892286D02*
X12195000Y-6844667D01*
X12195000Y-6844667D02*
X12185477Y-6816095D01*
X12185477Y-6816095D02*
X12175953Y-6797048D01*
X12175953Y-6797048D02*
X12156905Y-6768476D01*
X12156905Y-6768476D02*
X12147381Y-6758952D01*
D13*
X7195000Y-7159000D02*
G75*
G03*
X7195000Y-7159000I-20000J0D01*
G01*
D11*
X7480714Y-7051524D02*
X7499762Y-7051524D01*
X7499762Y-7051524D02*
X7518809Y-7061048D01*
X7518809Y-7061048D02*
X7528333Y-7070571D01*
X7528333Y-7070571D02*
X7537857Y-7089619D01*
X7537857Y-7089619D02*
X7547381Y-7127714D01*
X7547381Y-7127714D02*
X7547381Y-7175333D01*
X7547381Y-7175333D02*
X7537857Y-7213428D01*
X7537857Y-7213428D02*
X7528333Y-7232476D01*
X7528333Y-7232476D02*
X7518809Y-7242000D01*
X7518809Y-7242000D02*
X7499762Y-7251524D01*
X7499762Y-7251524D02*
X7480714Y-7251524D01*
X7480714Y-7251524D02*
X7461667Y-7242000D01*
X7461667Y-7242000D02*
X7452143Y-7232476D01*
X7452143Y-7232476D02*
X7442619Y-7213428D01*
X7442619Y-7213428D02*
X7433095Y-7175333D01*
X7433095Y-7175333D02*
X7433095Y-7127714D01*
X7433095Y-7127714D02*
X7442619Y-7089619D01*
X7442619Y-7089619D02*
X7452143Y-7070571D01*
X7452143Y-7070571D02*
X7461667Y-7061048D01*
X7461667Y-7061048D02*
X7480714Y-7051524D01*
X7633095Y-7232476D02*
X7642619Y-7242000D01*
X7642619Y-7242000D02*
X7633095Y-7251524D01*
X7633095Y-7251524D02*
X7623571Y-7242000D01*
X7623571Y-7242000D02*
X7633095Y-7232476D01*
X7633095Y-7232476D02*
X7633095Y-7251524D01*
X7814048Y-7118190D02*
X7814048Y-7251524D01*
X7766428Y-7042000D02*
X7718809Y-7184857D01*
X7718809Y-7184857D02*
X7842619Y-7184857D01*
X7956905Y-7051524D02*
X7975952Y-7051524D01*
X7975952Y-7051524D02*
X7995000Y-7061048D01*
X7995000Y-7061048D02*
X8004524Y-7070571D01*
X8004524Y-7070571D02*
X8014048Y-7089619D01*
X8014048Y-7089619D02*
X8023571Y-7127714D01*
X8023571Y-7127714D02*
X8023571Y-7175333D01*
X8023571Y-7175333D02*
X8014048Y-7213428D01*
X8014048Y-7213428D02*
X8004524Y-7232476D01*
X8004524Y-7232476D02*
X7995000Y-7242000D01*
X7995000Y-7242000D02*
X7975952Y-7251524D01*
X7975952Y-7251524D02*
X7956905Y-7251524D01*
X7956905Y-7251524D02*
X7937857Y-7242000D01*
X7937857Y-7242000D02*
X7928333Y-7232476D01*
X7928333Y-7232476D02*
X7918809Y-7213428D01*
X7918809Y-7213428D02*
X7909286Y-7175333D01*
X7909286Y-7175333D02*
X7909286Y-7127714D01*
X7909286Y-7127714D02*
X7918809Y-7089619D01*
X7918809Y-7089619D02*
X7928333Y-7070571D01*
X7928333Y-7070571D02*
X7937857Y-7061048D01*
X7937857Y-7061048D02*
X7956905Y-7051524D01*
X8147381Y-7051524D02*
X8166429Y-7051524D01*
X8166429Y-7051524D02*
X8185476Y-7061048D01*
X8185476Y-7061048D02*
X8195000Y-7070571D01*
X8195000Y-7070571D02*
X8204524Y-7089619D01*
X8204524Y-7089619D02*
X8214048Y-7127714D01*
X8214048Y-7127714D02*
X8214048Y-7175333D01*
X8214048Y-7175333D02*
X8204524Y-7213428D01*
X8204524Y-7213428D02*
X8195000Y-7232476D01*
X8195000Y-7232476D02*
X8185476Y-7242000D01*
X8185476Y-7242000D02*
X8166429Y-7251524D01*
X8166429Y-7251524D02*
X8147381Y-7251524D01*
X8147381Y-7251524D02*
X8128333Y-7242000D01*
X8128333Y-7242000D02*
X8118809Y-7232476D01*
X8118809Y-7232476D02*
X8109286Y-7213428D01*
X8109286Y-7213428D02*
X8099762Y-7175333D01*
X8099762Y-7175333D02*
X8099762Y-7127714D01*
X8099762Y-7127714D02*
X8109286Y-7089619D01*
X8109286Y-7089619D02*
X8118809Y-7070571D01*
X8118809Y-7070571D02*
X8128333Y-7061048D01*
X8128333Y-7061048D02*
X8147381Y-7051524D01*
X8299762Y-7251524D02*
X8299762Y-7118190D01*
X8299762Y-7137238D02*
X8309286Y-7127714D01*
X8309286Y-7127714D02*
X8328333Y-7118190D01*
X8328333Y-7118190D02*
X8356905Y-7118190D01*
X8356905Y-7118190D02*
X8375952Y-7127714D01*
X8375952Y-7127714D02*
X8385476Y-7146762D01*
X8385476Y-7146762D02*
X8385476Y-7251524D01*
X8385476Y-7146762D02*
X8395000Y-7127714D01*
X8395000Y-7127714D02*
X8414048Y-7118190D01*
X8414048Y-7118190D02*
X8442619Y-7118190D01*
X8442619Y-7118190D02*
X8461667Y-7127714D01*
X8461667Y-7127714D02*
X8471191Y-7146762D01*
X8471191Y-7146762D02*
X8471191Y-7251524D01*
X8566429Y-7251524D02*
X8566429Y-7118190D01*
X8566429Y-7137238D02*
X8575952Y-7127714D01*
X8575952Y-7127714D02*
X8595000Y-7118190D01*
X8595000Y-7118190D02*
X8623572Y-7118190D01*
X8623572Y-7118190D02*
X8642619Y-7127714D01*
X8642619Y-7127714D02*
X8652143Y-7146762D01*
X8652143Y-7146762D02*
X8652143Y-7251524D01*
X8652143Y-7146762D02*
X8661667Y-7127714D01*
X8661667Y-7127714D02*
X8680714Y-7118190D01*
X8680714Y-7118190D02*
X8709286Y-7118190D01*
X8709286Y-7118190D02*
X8728333Y-7127714D01*
X8728333Y-7127714D02*
X8737857Y-7146762D01*
X8737857Y-7146762D02*
X8737857Y-7251524D01*
X9128333Y-7042000D02*
X8956905Y-7299143D01*
X9385476Y-7051524D02*
X9404524Y-7051524D01*
X9404524Y-7051524D02*
X9423572Y-7061048D01*
X9423572Y-7061048D02*
X9433095Y-7070571D01*
X9433095Y-7070571D02*
X9442619Y-7089619D01*
X9442619Y-7089619D02*
X9452143Y-7127714D01*
X9452143Y-7127714D02*
X9452143Y-7175333D01*
X9452143Y-7175333D02*
X9442619Y-7213428D01*
X9442619Y-7213428D02*
X9433095Y-7232476D01*
X9433095Y-7232476D02*
X9423572Y-7242000D01*
X9423572Y-7242000D02*
X9404524Y-7251524D01*
X9404524Y-7251524D02*
X9385476Y-7251524D01*
X9385476Y-7251524D02*
X9366429Y-7242000D01*
X9366429Y-7242000D02*
X9356905Y-7232476D01*
X9356905Y-7232476D02*
X9347381Y-7213428D01*
X9347381Y-7213428D02*
X9337857Y-7175333D01*
X9337857Y-7175333D02*
X9337857Y-7127714D01*
X9337857Y-7127714D02*
X9347381Y-7089619D01*
X9347381Y-7089619D02*
X9356905Y-7070571D01*
X9356905Y-7070571D02*
X9366429Y-7061048D01*
X9366429Y-7061048D02*
X9385476Y-7051524D01*
X9537857Y-7232476D02*
X9547381Y-7242000D01*
X9547381Y-7242000D02*
X9537857Y-7251524D01*
X9537857Y-7251524D02*
X9528334Y-7242000D01*
X9528334Y-7242000D02*
X9537857Y-7232476D01*
X9537857Y-7232476D02*
X9537857Y-7251524D01*
X9671191Y-7051524D02*
X9690238Y-7051524D01*
X9690238Y-7051524D02*
X9709286Y-7061048D01*
X9709286Y-7061048D02*
X9718810Y-7070571D01*
X9718810Y-7070571D02*
X9728334Y-7089619D01*
X9728334Y-7089619D02*
X9737857Y-7127714D01*
X9737857Y-7127714D02*
X9737857Y-7175333D01*
X9737857Y-7175333D02*
X9728334Y-7213428D01*
X9728334Y-7213428D02*
X9718810Y-7232476D01*
X9718810Y-7232476D02*
X9709286Y-7242000D01*
X9709286Y-7242000D02*
X9690238Y-7251524D01*
X9690238Y-7251524D02*
X9671191Y-7251524D01*
X9671191Y-7251524D02*
X9652143Y-7242000D01*
X9652143Y-7242000D02*
X9642619Y-7232476D01*
X9642619Y-7232476D02*
X9633095Y-7213428D01*
X9633095Y-7213428D02*
X9623572Y-7175333D01*
X9623572Y-7175333D02*
X9623572Y-7127714D01*
X9623572Y-7127714D02*
X9633095Y-7089619D01*
X9633095Y-7089619D02*
X9642619Y-7070571D01*
X9642619Y-7070571D02*
X9652143Y-7061048D01*
X9652143Y-7061048D02*
X9671191Y-7051524D01*
X9928334Y-7251524D02*
X9814048Y-7251524D01*
X9871191Y-7251524D02*
X9871191Y-7051524D01*
X9871191Y-7051524D02*
X9852143Y-7080095D01*
X9852143Y-7080095D02*
X9833095Y-7099143D01*
X9833095Y-7099143D02*
X9814048Y-7108667D01*
X10109286Y-7051524D02*
X10014048Y-7051524D01*
X10014048Y-7051524D02*
X10004524Y-7146762D01*
X10004524Y-7146762D02*
X10014048Y-7137238D01*
X10014048Y-7137238D02*
X10033095Y-7127714D01*
X10033095Y-7127714D02*
X10080715Y-7127714D01*
X10080715Y-7127714D02*
X10099762Y-7137238D01*
X10099762Y-7137238D02*
X10109286Y-7146762D01*
X10109286Y-7146762D02*
X10118810Y-7165809D01*
X10118810Y-7165809D02*
X10118810Y-7213428D01*
X10118810Y-7213428D02*
X10109286Y-7232476D01*
X10109286Y-7232476D02*
X10099762Y-7242000D01*
X10099762Y-7242000D02*
X10080715Y-7251524D01*
X10080715Y-7251524D02*
X10033095Y-7251524D01*
X10033095Y-7251524D02*
X10014048Y-7242000D01*
X10014048Y-7242000D02*
X10004524Y-7232476D01*
X10185476Y-7051524D02*
X10318810Y-7051524D01*
X10318810Y-7051524D02*
X10233095Y-7251524D01*
X10385476Y-7051524D02*
X10385476Y-7089619D01*
X10461667Y-7051524D02*
X10461667Y-7089619D01*
X10756905Y-7327714D02*
X10747381Y-7318190D01*
X10747381Y-7318190D02*
X10728334Y-7289619D01*
X10728334Y-7289619D02*
X10718810Y-7270571D01*
X10718810Y-7270571D02*
X10709286Y-7242000D01*
X10709286Y-7242000D02*
X10699762Y-7194381D01*
X10699762Y-7194381D02*
X10699762Y-7156286D01*
X10699762Y-7156286D02*
X10709286Y-7108667D01*
X10709286Y-7108667D02*
X10718810Y-7080095D01*
X10718810Y-7080095D02*
X10728334Y-7061048D01*
X10728334Y-7061048D02*
X10747381Y-7032476D01*
X10747381Y-7032476D02*
X10756905Y-7022952D01*
X10937857Y-7251524D02*
X10823572Y-7251524D01*
X10880715Y-7251524D02*
X10880715Y-7051524D01*
X10880715Y-7051524D02*
X10861667Y-7080095D01*
X10861667Y-7080095D02*
X10842619Y-7099143D01*
X10842619Y-7099143D02*
X10823572Y-7108667D01*
X11052143Y-7137238D02*
X11033096Y-7127714D01*
X11033096Y-7127714D02*
X11023572Y-7118190D01*
X11023572Y-7118190D02*
X11014048Y-7099143D01*
X11014048Y-7099143D02*
X11014048Y-7089619D01*
X11014048Y-7089619D02*
X11023572Y-7070571D01*
X11023572Y-7070571D02*
X11033096Y-7061048D01*
X11033096Y-7061048D02*
X11052143Y-7051524D01*
X11052143Y-7051524D02*
X11090238Y-7051524D01*
X11090238Y-7051524D02*
X11109286Y-7061048D01*
X11109286Y-7061048D02*
X11118810Y-7070571D01*
X11118810Y-7070571D02*
X11128334Y-7089619D01*
X11128334Y-7089619D02*
X11128334Y-7099143D01*
X11128334Y-7099143D02*
X11118810Y-7118190D01*
X11118810Y-7118190D02*
X11109286Y-7127714D01*
X11109286Y-7127714D02*
X11090238Y-7137238D01*
X11090238Y-7137238D02*
X11052143Y-7137238D01*
X11052143Y-7137238D02*
X11033096Y-7146762D01*
X11033096Y-7146762D02*
X11023572Y-7156286D01*
X11023572Y-7156286D02*
X11014048Y-7175333D01*
X11014048Y-7175333D02*
X11014048Y-7213428D01*
X11014048Y-7213428D02*
X11023572Y-7232476D01*
X11023572Y-7232476D02*
X11033096Y-7242000D01*
X11033096Y-7242000D02*
X11052143Y-7251524D01*
X11052143Y-7251524D02*
X11090238Y-7251524D01*
X11090238Y-7251524D02*
X11109286Y-7242000D01*
X11109286Y-7242000D02*
X11118810Y-7232476D01*
X11118810Y-7232476D02*
X11128334Y-7213428D01*
X11128334Y-7213428D02*
X11128334Y-7175333D01*
X11128334Y-7175333D02*
X11118810Y-7156286D01*
X11118810Y-7156286D02*
X11109286Y-7146762D01*
X11109286Y-7146762D02*
X11090238Y-7137238D01*
X11366429Y-7251524D02*
X11366429Y-7051524D01*
X11452143Y-7251524D02*
X11452143Y-7146762D01*
X11452143Y-7146762D02*
X11442619Y-7127714D01*
X11442619Y-7127714D02*
X11423572Y-7118190D01*
X11423572Y-7118190D02*
X11395000Y-7118190D01*
X11395000Y-7118190D02*
X11375953Y-7127714D01*
X11375953Y-7127714D02*
X11366429Y-7137238D01*
X11575953Y-7251524D02*
X11556905Y-7242000D01*
X11556905Y-7242000D02*
X11547381Y-7232476D01*
X11547381Y-7232476D02*
X11537857Y-7213428D01*
X11537857Y-7213428D02*
X11537857Y-7156286D01*
X11537857Y-7156286D02*
X11547381Y-7137238D01*
X11547381Y-7137238D02*
X11556905Y-7127714D01*
X11556905Y-7127714D02*
X11575953Y-7118190D01*
X11575953Y-7118190D02*
X11604524Y-7118190D01*
X11604524Y-7118190D02*
X11623572Y-7127714D01*
X11623572Y-7127714D02*
X11633096Y-7137238D01*
X11633096Y-7137238D02*
X11642619Y-7156286D01*
X11642619Y-7156286D02*
X11642619Y-7213428D01*
X11642619Y-7213428D02*
X11633096Y-7232476D01*
X11633096Y-7232476D02*
X11623572Y-7242000D01*
X11623572Y-7242000D02*
X11604524Y-7251524D01*
X11604524Y-7251524D02*
X11575953Y-7251524D01*
X11756905Y-7251524D02*
X11737857Y-7242000D01*
X11737857Y-7242000D02*
X11728334Y-7222952D01*
X11728334Y-7222952D02*
X11728334Y-7051524D01*
X11909286Y-7242000D02*
X11890238Y-7251524D01*
X11890238Y-7251524D02*
X11852143Y-7251524D01*
X11852143Y-7251524D02*
X11833096Y-7242000D01*
X11833096Y-7242000D02*
X11823572Y-7222952D01*
X11823572Y-7222952D02*
X11823572Y-7146762D01*
X11823572Y-7146762D02*
X11833096Y-7127714D01*
X11833096Y-7127714D02*
X11852143Y-7118190D01*
X11852143Y-7118190D02*
X11890238Y-7118190D01*
X11890238Y-7118190D02*
X11909286Y-7127714D01*
X11909286Y-7127714D02*
X11918810Y-7146762D01*
X11918810Y-7146762D02*
X11918810Y-7165809D01*
X11918810Y-7165809D02*
X11823572Y-7184857D01*
X11995000Y-7242000D02*
X12014048Y-7251524D01*
X12014048Y-7251524D02*
X12052143Y-7251524D01*
X12052143Y-7251524D02*
X12071191Y-7242000D01*
X12071191Y-7242000D02*
X12080715Y-7222952D01*
X12080715Y-7222952D02*
X12080715Y-7213428D01*
X12080715Y-7213428D02*
X12071191Y-7194381D01*
X12071191Y-7194381D02*
X12052143Y-7184857D01*
X12052143Y-7184857D02*
X12023572Y-7184857D01*
X12023572Y-7184857D02*
X12004524Y-7175333D01*
X12004524Y-7175333D02*
X11995000Y-7156286D01*
X11995000Y-7156286D02*
X11995000Y-7146762D01*
X11995000Y-7146762D02*
X12004524Y-7127714D01*
X12004524Y-7127714D02*
X12023572Y-7118190D01*
X12023572Y-7118190D02*
X12052143Y-7118190D01*
X12052143Y-7118190D02*
X12071191Y-7127714D01*
X12147381Y-7327714D02*
X12156905Y-7318190D01*
X12156905Y-7318190D02*
X12175953Y-7289619D01*
X12175953Y-7289619D02*
X12185477Y-7270571D01*
X12185477Y-7270571D02*
X12195000Y-7242000D01*
X12195000Y-7242000D02*
X12204524Y-7194381D01*
X12204524Y-7194381D02*
X12204524Y-7156286D01*
X12204524Y-7156286D02*
X12195000Y-7108667D01*
X12195000Y-7108667D02*
X12185477Y-7080095D01*
X12185477Y-7080095D02*
X12175953Y-7061048D01*
X12175953Y-7061048D02*
X12156905Y-7032476D01*
X12156905Y-7032476D02*
X12147381Y-7022952D01*
D14*
X7165000Y-7393000D02*
X7165000Y-7453000D01*
X7135000Y-7423000D02*
X7195000Y-7423000D01*
D11*
X7480714Y-7315524D02*
X7499762Y-7315524D01*
X7499762Y-7315524D02*
X7518809Y-7325048D01*
X7518809Y-7325048D02*
X7528333Y-7334571D01*
X7528333Y-7334571D02*
X7537857Y-7353619D01*
X7537857Y-7353619D02*
X7547381Y-7391714D01*
X7547381Y-7391714D02*
X7547381Y-7439333D01*
X7547381Y-7439333D02*
X7537857Y-7477428D01*
X7537857Y-7477428D02*
X7528333Y-7496476D01*
X7528333Y-7496476D02*
X7518809Y-7506000D01*
X7518809Y-7506000D02*
X7499762Y-7515524D01*
X7499762Y-7515524D02*
X7480714Y-7515524D01*
X7480714Y-7515524D02*
X7461667Y-7506000D01*
X7461667Y-7506000D02*
X7452143Y-7496476D01*
X7452143Y-7496476D02*
X7442619Y-7477428D01*
X7442619Y-7477428D02*
X7433095Y-7439333D01*
X7433095Y-7439333D02*
X7433095Y-7391714D01*
X7433095Y-7391714D02*
X7442619Y-7353619D01*
X7442619Y-7353619D02*
X7452143Y-7334571D01*
X7452143Y-7334571D02*
X7461667Y-7325048D01*
X7461667Y-7325048D02*
X7480714Y-7315524D01*
X7633095Y-7496476D02*
X7642619Y-7506000D01*
X7642619Y-7506000D02*
X7633095Y-7515524D01*
X7633095Y-7515524D02*
X7623571Y-7506000D01*
X7623571Y-7506000D02*
X7633095Y-7496476D01*
X7633095Y-7496476D02*
X7633095Y-7515524D01*
X7814048Y-7315524D02*
X7775952Y-7315524D01*
X7775952Y-7315524D02*
X7756905Y-7325048D01*
X7756905Y-7325048D02*
X7747381Y-7334571D01*
X7747381Y-7334571D02*
X7728333Y-7363143D01*
X7728333Y-7363143D02*
X7718809Y-7401238D01*
X7718809Y-7401238D02*
X7718809Y-7477428D01*
X7718809Y-7477428D02*
X7728333Y-7496476D01*
X7728333Y-7496476D02*
X7737857Y-7506000D01*
X7737857Y-7506000D02*
X7756905Y-7515524D01*
X7756905Y-7515524D02*
X7795000Y-7515524D01*
X7795000Y-7515524D02*
X7814048Y-7506000D01*
X7814048Y-7506000D02*
X7823571Y-7496476D01*
X7823571Y-7496476D02*
X7833095Y-7477428D01*
X7833095Y-7477428D02*
X7833095Y-7429809D01*
X7833095Y-7429809D02*
X7823571Y-7410762D01*
X7823571Y-7410762D02*
X7814048Y-7401238D01*
X7814048Y-7401238D02*
X7795000Y-7391714D01*
X7795000Y-7391714D02*
X7756905Y-7391714D01*
X7756905Y-7391714D02*
X7737857Y-7401238D01*
X7737857Y-7401238D02*
X7728333Y-7410762D01*
X7728333Y-7410762D02*
X7718809Y-7429809D01*
X7956905Y-7315524D02*
X7975952Y-7315524D01*
X7975952Y-7315524D02*
X7995000Y-7325048D01*
X7995000Y-7325048D02*
X8004524Y-7334571D01*
X8004524Y-7334571D02*
X8014048Y-7353619D01*
X8014048Y-7353619D02*
X8023571Y-7391714D01*
X8023571Y-7391714D02*
X8023571Y-7439333D01*
X8023571Y-7439333D02*
X8014048Y-7477428D01*
X8014048Y-7477428D02*
X8004524Y-7496476D01*
X8004524Y-7496476D02*
X7995000Y-7506000D01*
X7995000Y-7506000D02*
X7975952Y-7515524D01*
X7975952Y-7515524D02*
X7956905Y-7515524D01*
X7956905Y-7515524D02*
X7937857Y-7506000D01*
X7937857Y-7506000D02*
X7928333Y-7496476D01*
X7928333Y-7496476D02*
X7918809Y-7477428D01*
X7918809Y-7477428D02*
X7909286Y-7439333D01*
X7909286Y-7439333D02*
X7909286Y-7391714D01*
X7909286Y-7391714D02*
X7918809Y-7353619D01*
X7918809Y-7353619D02*
X7928333Y-7334571D01*
X7928333Y-7334571D02*
X7937857Y-7325048D01*
X7937857Y-7325048D02*
X7956905Y-7315524D01*
X8147381Y-7315524D02*
X8166429Y-7315524D01*
X8166429Y-7315524D02*
X8185476Y-7325048D01*
X8185476Y-7325048D02*
X8195000Y-7334571D01*
X8195000Y-7334571D02*
X8204524Y-7353619D01*
X8204524Y-7353619D02*
X8214048Y-7391714D01*
X8214048Y-7391714D02*
X8214048Y-7439333D01*
X8214048Y-7439333D02*
X8204524Y-7477428D01*
X8204524Y-7477428D02*
X8195000Y-7496476D01*
X8195000Y-7496476D02*
X8185476Y-7506000D01*
X8185476Y-7506000D02*
X8166429Y-7515524D01*
X8166429Y-7515524D02*
X8147381Y-7515524D01*
X8147381Y-7515524D02*
X8128333Y-7506000D01*
X8128333Y-7506000D02*
X8118809Y-7496476D01*
X8118809Y-7496476D02*
X8109286Y-7477428D01*
X8109286Y-7477428D02*
X8099762Y-7439333D01*
X8099762Y-7439333D02*
X8099762Y-7391714D01*
X8099762Y-7391714D02*
X8109286Y-7353619D01*
X8109286Y-7353619D02*
X8118809Y-7334571D01*
X8118809Y-7334571D02*
X8128333Y-7325048D01*
X8128333Y-7325048D02*
X8147381Y-7315524D01*
X8299762Y-7515524D02*
X8299762Y-7382190D01*
X8299762Y-7401238D02*
X8309286Y-7391714D01*
X8309286Y-7391714D02*
X8328333Y-7382190D01*
X8328333Y-7382190D02*
X8356905Y-7382190D01*
X8356905Y-7382190D02*
X8375952Y-7391714D01*
X8375952Y-7391714D02*
X8385476Y-7410762D01*
X8385476Y-7410762D02*
X8385476Y-7515524D01*
X8385476Y-7410762D02*
X8395000Y-7391714D01*
X8395000Y-7391714D02*
X8414048Y-7382190D01*
X8414048Y-7382190D02*
X8442619Y-7382190D01*
X8442619Y-7382190D02*
X8461667Y-7391714D01*
X8461667Y-7391714D02*
X8471191Y-7410762D01*
X8471191Y-7410762D02*
X8471191Y-7515524D01*
X8566429Y-7515524D02*
X8566429Y-7382190D01*
X8566429Y-7401238D02*
X8575952Y-7391714D01*
X8575952Y-7391714D02*
X8595000Y-7382190D01*
X8595000Y-7382190D02*
X8623572Y-7382190D01*
X8623572Y-7382190D02*
X8642619Y-7391714D01*
X8642619Y-7391714D02*
X8652143Y-7410762D01*
X8652143Y-7410762D02*
X8652143Y-7515524D01*
X8652143Y-7410762D02*
X8661667Y-7391714D01*
X8661667Y-7391714D02*
X8680714Y-7382190D01*
X8680714Y-7382190D02*
X8709286Y-7382190D01*
X8709286Y-7382190D02*
X8728333Y-7391714D01*
X8728333Y-7391714D02*
X8737857Y-7410762D01*
X8737857Y-7410762D02*
X8737857Y-7515524D01*
X9128333Y-7306000D02*
X8956905Y-7563143D01*
X9385476Y-7315524D02*
X9404524Y-7315524D01*
X9404524Y-7315524D02*
X9423572Y-7325048D01*
X9423572Y-7325048D02*
X9433095Y-7334571D01*
X9433095Y-7334571D02*
X9442619Y-7353619D01*
X9442619Y-7353619D02*
X9452143Y-7391714D01*
X9452143Y-7391714D02*
X9452143Y-7439333D01*
X9452143Y-7439333D02*
X9442619Y-7477428D01*
X9442619Y-7477428D02*
X9433095Y-7496476D01*
X9433095Y-7496476D02*
X9423572Y-7506000D01*
X9423572Y-7506000D02*
X9404524Y-7515524D01*
X9404524Y-7515524D02*
X9385476Y-7515524D01*
X9385476Y-7515524D02*
X9366429Y-7506000D01*
X9366429Y-7506000D02*
X9356905Y-7496476D01*
X9356905Y-7496476D02*
X9347381Y-7477428D01*
X9347381Y-7477428D02*
X9337857Y-7439333D01*
X9337857Y-7439333D02*
X9337857Y-7391714D01*
X9337857Y-7391714D02*
X9347381Y-7353619D01*
X9347381Y-7353619D02*
X9356905Y-7334571D01*
X9356905Y-7334571D02*
X9366429Y-7325048D01*
X9366429Y-7325048D02*
X9385476Y-7315524D01*
X9537857Y-7496476D02*
X9547381Y-7506000D01*
X9547381Y-7506000D02*
X9537857Y-7515524D01*
X9537857Y-7515524D02*
X9528334Y-7506000D01*
X9528334Y-7506000D02*
X9537857Y-7496476D01*
X9537857Y-7496476D02*
X9537857Y-7515524D01*
X9671191Y-7315524D02*
X9690238Y-7315524D01*
X9690238Y-7315524D02*
X9709286Y-7325048D01*
X9709286Y-7325048D02*
X9718810Y-7334571D01*
X9718810Y-7334571D02*
X9728334Y-7353619D01*
X9728334Y-7353619D02*
X9737857Y-7391714D01*
X9737857Y-7391714D02*
X9737857Y-7439333D01*
X9737857Y-7439333D02*
X9728334Y-7477428D01*
X9728334Y-7477428D02*
X9718810Y-7496476D01*
X9718810Y-7496476D02*
X9709286Y-7506000D01*
X9709286Y-7506000D02*
X9690238Y-7515524D01*
X9690238Y-7515524D02*
X9671191Y-7515524D01*
X9671191Y-7515524D02*
X9652143Y-7506000D01*
X9652143Y-7506000D02*
X9642619Y-7496476D01*
X9642619Y-7496476D02*
X9633095Y-7477428D01*
X9633095Y-7477428D02*
X9623572Y-7439333D01*
X9623572Y-7439333D02*
X9623572Y-7391714D01*
X9623572Y-7391714D02*
X9633095Y-7353619D01*
X9633095Y-7353619D02*
X9642619Y-7334571D01*
X9642619Y-7334571D02*
X9652143Y-7325048D01*
X9652143Y-7325048D02*
X9671191Y-7315524D01*
X9814048Y-7334571D02*
X9823572Y-7325048D01*
X9823572Y-7325048D02*
X9842619Y-7315524D01*
X9842619Y-7315524D02*
X9890238Y-7315524D01*
X9890238Y-7315524D02*
X9909286Y-7325048D01*
X9909286Y-7325048D02*
X9918810Y-7334571D01*
X9918810Y-7334571D02*
X9928334Y-7353619D01*
X9928334Y-7353619D02*
X9928334Y-7372667D01*
X9928334Y-7372667D02*
X9918810Y-7401238D01*
X9918810Y-7401238D02*
X9804524Y-7515524D01*
X9804524Y-7515524D02*
X9928334Y-7515524D01*
X9995000Y-7315524D02*
X10118810Y-7315524D01*
X10118810Y-7315524D02*
X10052143Y-7391714D01*
X10052143Y-7391714D02*
X10080715Y-7391714D01*
X10080715Y-7391714D02*
X10099762Y-7401238D01*
X10099762Y-7401238D02*
X10109286Y-7410762D01*
X10109286Y-7410762D02*
X10118810Y-7429809D01*
X10118810Y-7429809D02*
X10118810Y-7477428D01*
X10118810Y-7477428D02*
X10109286Y-7496476D01*
X10109286Y-7496476D02*
X10099762Y-7506000D01*
X10099762Y-7506000D02*
X10080715Y-7515524D01*
X10080715Y-7515524D02*
X10023572Y-7515524D01*
X10023572Y-7515524D02*
X10004524Y-7506000D01*
X10004524Y-7506000D02*
X9995000Y-7496476D01*
X10290238Y-7315524D02*
X10252143Y-7315524D01*
X10252143Y-7315524D02*
X10233095Y-7325048D01*
X10233095Y-7325048D02*
X10223572Y-7334571D01*
X10223572Y-7334571D02*
X10204524Y-7363143D01*
X10204524Y-7363143D02*
X10195000Y-7401238D01*
X10195000Y-7401238D02*
X10195000Y-7477428D01*
X10195000Y-7477428D02*
X10204524Y-7496476D01*
X10204524Y-7496476D02*
X10214048Y-7506000D01*
X10214048Y-7506000D02*
X10233095Y-7515524D01*
X10233095Y-7515524D02*
X10271191Y-7515524D01*
X10271191Y-7515524D02*
X10290238Y-7506000D01*
X10290238Y-7506000D02*
X10299762Y-7496476D01*
X10299762Y-7496476D02*
X10309286Y-7477428D01*
X10309286Y-7477428D02*
X10309286Y-7429809D01*
X10309286Y-7429809D02*
X10299762Y-7410762D01*
X10299762Y-7410762D02*
X10290238Y-7401238D01*
X10290238Y-7401238D02*
X10271191Y-7391714D01*
X10271191Y-7391714D02*
X10233095Y-7391714D01*
X10233095Y-7391714D02*
X10214048Y-7401238D01*
X10214048Y-7401238D02*
X10204524Y-7410762D01*
X10204524Y-7410762D02*
X10195000Y-7429809D01*
X10385476Y-7315524D02*
X10385476Y-7353619D01*
X10461667Y-7315524D02*
X10461667Y-7353619D01*
X10756905Y-7591714D02*
X10747381Y-7582190D01*
X10747381Y-7582190D02*
X10728334Y-7553619D01*
X10728334Y-7553619D02*
X10718810Y-7534571D01*
X10718810Y-7534571D02*
X10709286Y-7506000D01*
X10709286Y-7506000D02*
X10699762Y-7458381D01*
X10699762Y-7458381D02*
X10699762Y-7420286D01*
X10699762Y-7420286D02*
X10709286Y-7372667D01*
X10709286Y-7372667D02*
X10718810Y-7344095D01*
X10718810Y-7344095D02*
X10728334Y-7325048D01*
X10728334Y-7325048D02*
X10747381Y-7296476D01*
X10747381Y-7296476D02*
X10756905Y-7286952D01*
X10871191Y-7315524D02*
X10890238Y-7315524D01*
X10890238Y-7315524D02*
X10909286Y-7325048D01*
X10909286Y-7325048D02*
X10918810Y-7334571D01*
X10918810Y-7334571D02*
X10928334Y-7353619D01*
X10928334Y-7353619D02*
X10937857Y-7391714D01*
X10937857Y-7391714D02*
X10937857Y-7439333D01*
X10937857Y-7439333D02*
X10928334Y-7477428D01*
X10928334Y-7477428D02*
X10918810Y-7496476D01*
X10918810Y-7496476D02*
X10909286Y-7506000D01*
X10909286Y-7506000D02*
X10890238Y-7515524D01*
X10890238Y-7515524D02*
X10871191Y-7515524D01*
X10871191Y-7515524D02*
X10852143Y-7506000D01*
X10852143Y-7506000D02*
X10842619Y-7496476D01*
X10842619Y-7496476D02*
X10833096Y-7477428D01*
X10833096Y-7477428D02*
X10823572Y-7439333D01*
X10823572Y-7439333D02*
X10823572Y-7391714D01*
X10823572Y-7391714D02*
X10833096Y-7353619D01*
X10833096Y-7353619D02*
X10842619Y-7334571D01*
X10842619Y-7334571D02*
X10852143Y-7325048D01*
X10852143Y-7325048D02*
X10871191Y-7315524D01*
X11175953Y-7515524D02*
X11175953Y-7315524D01*
X11261667Y-7515524D02*
X11261667Y-7410762D01*
X11261667Y-7410762D02*
X11252143Y-7391714D01*
X11252143Y-7391714D02*
X11233096Y-7382190D01*
X11233096Y-7382190D02*
X11204524Y-7382190D01*
X11204524Y-7382190D02*
X11185476Y-7391714D01*
X11185476Y-7391714D02*
X11175953Y-7401238D01*
X11385476Y-7515524D02*
X11366429Y-7506000D01*
X11366429Y-7506000D02*
X11356905Y-7496476D01*
X11356905Y-7496476D02*
X11347381Y-7477428D01*
X11347381Y-7477428D02*
X11347381Y-7420286D01*
X11347381Y-7420286D02*
X11356905Y-7401238D01*
X11356905Y-7401238D02*
X11366429Y-7391714D01*
X11366429Y-7391714D02*
X11385476Y-7382190D01*
X11385476Y-7382190D02*
X11414048Y-7382190D01*
X11414048Y-7382190D02*
X11433096Y-7391714D01*
X11433096Y-7391714D02*
X11442619Y-7401238D01*
X11442619Y-7401238D02*
X11452143Y-7420286D01*
X11452143Y-7420286D02*
X11452143Y-7477428D01*
X11452143Y-7477428D02*
X11442619Y-7496476D01*
X11442619Y-7496476D02*
X11433096Y-7506000D01*
X11433096Y-7506000D02*
X11414048Y-7515524D01*
X11414048Y-7515524D02*
X11385476Y-7515524D01*
X11566429Y-7515524D02*
X11547381Y-7506000D01*
X11547381Y-7506000D02*
X11537857Y-7486952D01*
X11537857Y-7486952D02*
X11537857Y-7315524D01*
X11718810Y-7506000D02*
X11699762Y-7515524D01*
X11699762Y-7515524D02*
X11661667Y-7515524D01*
X11661667Y-7515524D02*
X11642619Y-7506000D01*
X11642619Y-7506000D02*
X11633096Y-7486952D01*
X11633096Y-7486952D02*
X11633096Y-7410762D01*
X11633096Y-7410762D02*
X11642619Y-7391714D01*
X11642619Y-7391714D02*
X11661667Y-7382190D01*
X11661667Y-7382190D02*
X11699762Y-7382190D01*
X11699762Y-7382190D02*
X11718810Y-7391714D01*
X11718810Y-7391714D02*
X11728334Y-7410762D01*
X11728334Y-7410762D02*
X11728334Y-7429809D01*
X11728334Y-7429809D02*
X11633096Y-7448857D01*
X11804524Y-7506000D02*
X11823572Y-7515524D01*
X11823572Y-7515524D02*
X11861667Y-7515524D01*
X11861667Y-7515524D02*
X11880715Y-7506000D01*
X11880715Y-7506000D02*
X11890238Y-7486952D01*
X11890238Y-7486952D02*
X11890238Y-7477428D01*
X11890238Y-7477428D02*
X11880715Y-7458381D01*
X11880715Y-7458381D02*
X11861667Y-7448857D01*
X11861667Y-7448857D02*
X11833096Y-7448857D01*
X11833096Y-7448857D02*
X11814048Y-7439333D01*
X11814048Y-7439333D02*
X11804524Y-7420286D01*
X11804524Y-7420286D02*
X11804524Y-7410762D01*
X11804524Y-7410762D02*
X11814048Y-7391714D01*
X11814048Y-7391714D02*
X11833096Y-7382190D01*
X11833096Y-7382190D02*
X11861667Y-7382190D01*
X11861667Y-7382190D02*
X11880715Y-7391714D01*
X12128334Y-7439333D02*
X12280715Y-7439333D01*
X12204524Y-7515524D02*
X12204524Y-7363143D01*
X12614048Y-7382190D02*
X12614048Y-7515524D01*
X12566429Y-7306000D02*
X12518810Y-7448857D01*
X12518810Y-7448857D02*
X12642619Y-7448857D01*
X12861667Y-7506000D02*
X12880715Y-7515524D01*
X12880715Y-7515524D02*
X12918810Y-7515524D01*
X12918810Y-7515524D02*
X12937858Y-7506000D01*
X12937858Y-7506000D02*
X12947381Y-7486952D01*
X12947381Y-7486952D02*
X12947381Y-7477428D01*
X12947381Y-7477428D02*
X12937858Y-7458381D01*
X12937858Y-7458381D02*
X12918810Y-7448857D01*
X12918810Y-7448857D02*
X12890239Y-7448857D01*
X12890239Y-7448857D02*
X12871191Y-7439333D01*
X12871191Y-7439333D02*
X12861667Y-7420286D01*
X12861667Y-7420286D02*
X12861667Y-7410762D01*
X12861667Y-7410762D02*
X12871191Y-7391714D01*
X12871191Y-7391714D02*
X12890239Y-7382190D01*
X12890239Y-7382190D02*
X12918810Y-7382190D01*
X12918810Y-7382190D02*
X12937858Y-7391714D01*
X13061667Y-7515524D02*
X13042620Y-7506000D01*
X13042620Y-7506000D02*
X13033096Y-7486952D01*
X13033096Y-7486952D02*
X13033096Y-7315524D01*
X13166429Y-7515524D02*
X13147381Y-7506000D01*
X13147381Y-7506000D02*
X13137858Y-7496476D01*
X13137858Y-7496476D02*
X13128334Y-7477428D01*
X13128334Y-7477428D02*
X13128334Y-7420286D01*
X13128334Y-7420286D02*
X13137858Y-7401238D01*
X13137858Y-7401238D02*
X13147381Y-7391714D01*
X13147381Y-7391714D02*
X13166429Y-7382190D01*
X13166429Y-7382190D02*
X13195001Y-7382190D01*
X13195001Y-7382190D02*
X13214048Y-7391714D01*
X13214048Y-7391714D02*
X13223572Y-7401238D01*
X13223572Y-7401238D02*
X13233096Y-7420286D01*
X13233096Y-7420286D02*
X13233096Y-7477428D01*
X13233096Y-7477428D02*
X13223572Y-7496476D01*
X13223572Y-7496476D02*
X13214048Y-7506000D01*
X13214048Y-7506000D02*
X13195001Y-7515524D01*
X13195001Y-7515524D02*
X13166429Y-7515524D01*
X13290239Y-7382190D02*
X13366429Y-7382190D01*
X13318810Y-7315524D02*
X13318810Y-7486952D01*
X13318810Y-7486952D02*
X13328334Y-7506000D01*
X13328334Y-7506000D02*
X13347381Y-7515524D01*
X13347381Y-7515524D02*
X13366429Y-7515524D01*
X13423572Y-7506000D02*
X13442620Y-7515524D01*
X13442620Y-7515524D02*
X13480715Y-7515524D01*
X13480715Y-7515524D02*
X13499762Y-7506000D01*
X13499762Y-7506000D02*
X13509286Y-7486952D01*
X13509286Y-7486952D02*
X13509286Y-7477428D01*
X13509286Y-7477428D02*
X13499762Y-7458381D01*
X13499762Y-7458381D02*
X13480715Y-7448857D01*
X13480715Y-7448857D02*
X13452143Y-7448857D01*
X13452143Y-7448857D02*
X13433096Y-7439333D01*
X13433096Y-7439333D02*
X13423572Y-7420286D01*
X13423572Y-7420286D02*
X13423572Y-7410762D01*
X13423572Y-7410762D02*
X13433096Y-7391714D01*
X13433096Y-7391714D02*
X13452143Y-7382190D01*
X13452143Y-7382190D02*
X13480715Y-7382190D01*
X13480715Y-7382190D02*
X13499762Y-7391714D01*
X13575953Y-7591714D02*
X13585477Y-7582190D01*
X13585477Y-7582190D02*
X13604524Y-7553619D01*
X13604524Y-7553619D02*
X13614048Y-7534571D01*
X13614048Y-7534571D02*
X13623572Y-7506000D01*
X13623572Y-7506000D02*
X13633096Y-7458381D01*
X13633096Y-7458381D02*
X13633096Y-7420286D01*
X13633096Y-7420286D02*
X13623572Y-7372667D01*
X13623572Y-7372667D02*
X13614048Y-7344095D01*
X13614048Y-7344095D02*
X13604524Y-7325048D01*
X13604524Y-7325048D02*
X13585477Y-7296476D01*
X13585477Y-7296476D02*
X13575953Y-7286952D01*
D10*
X7180356Y-7722356D02*
X7180356Y-7651644D01*
X7109644Y-7651644D01*
X7109644Y-7722356D01*
X7180356Y-7722356D01*
D11*
X7547381Y-7779524D02*
X7433095Y-7779524D01*
X7490238Y-7779524D02*
X7490238Y-7579524D01*
X7490238Y-7579524D02*
X7471190Y-7608095D01*
X7471190Y-7608095D02*
X7452143Y-7627143D01*
X7452143Y-7627143D02*
X7433095Y-7636667D01*
X7633095Y-7760476D02*
X7642619Y-7770000D01*
X7642619Y-7770000D02*
X7633095Y-7779524D01*
X7633095Y-7779524D02*
X7623571Y-7770000D01*
X7623571Y-7770000D02*
X7633095Y-7760476D01*
X7633095Y-7760476D02*
X7633095Y-7779524D01*
X7766428Y-7579524D02*
X7785476Y-7579524D01*
X7785476Y-7579524D02*
X7804524Y-7589048D01*
X7804524Y-7589048D02*
X7814048Y-7598571D01*
X7814048Y-7598571D02*
X7823571Y-7617619D01*
X7823571Y-7617619D02*
X7833095Y-7655714D01*
X7833095Y-7655714D02*
X7833095Y-7703333D01*
X7833095Y-7703333D02*
X7823571Y-7741428D01*
X7823571Y-7741428D02*
X7814048Y-7760476D01*
X7814048Y-7760476D02*
X7804524Y-7770000D01*
X7804524Y-7770000D02*
X7785476Y-7779524D01*
X7785476Y-7779524D02*
X7766428Y-7779524D01*
X7766428Y-7779524D02*
X7747381Y-7770000D01*
X7747381Y-7770000D02*
X7737857Y-7760476D01*
X7737857Y-7760476D02*
X7728333Y-7741428D01*
X7728333Y-7741428D02*
X7718809Y-7703333D01*
X7718809Y-7703333D02*
X7718809Y-7655714D01*
X7718809Y-7655714D02*
X7728333Y-7617619D01*
X7728333Y-7617619D02*
X7737857Y-7598571D01*
X7737857Y-7598571D02*
X7747381Y-7589048D01*
X7747381Y-7589048D02*
X7766428Y-7579524D01*
X7956905Y-7579524D02*
X7975952Y-7579524D01*
X7975952Y-7579524D02*
X7995000Y-7589048D01*
X7995000Y-7589048D02*
X8004524Y-7598571D01*
X8004524Y-7598571D02*
X8014048Y-7617619D01*
X8014048Y-7617619D02*
X8023571Y-7655714D01*
X8023571Y-7655714D02*
X8023571Y-7703333D01*
X8023571Y-7703333D02*
X8014048Y-7741428D01*
X8014048Y-7741428D02*
X8004524Y-7760476D01*
X8004524Y-7760476D02*
X7995000Y-7770000D01*
X7995000Y-7770000D02*
X7975952Y-7779524D01*
X7975952Y-7779524D02*
X7956905Y-7779524D01*
X7956905Y-7779524D02*
X7937857Y-7770000D01*
X7937857Y-7770000D02*
X7928333Y-7760476D01*
X7928333Y-7760476D02*
X7918809Y-7741428D01*
X7918809Y-7741428D02*
X7909286Y-7703333D01*
X7909286Y-7703333D02*
X7909286Y-7655714D01*
X7909286Y-7655714D02*
X7918809Y-7617619D01*
X7918809Y-7617619D02*
X7928333Y-7598571D01*
X7928333Y-7598571D02*
X7937857Y-7589048D01*
X7937857Y-7589048D02*
X7956905Y-7579524D01*
X8147381Y-7579524D02*
X8166429Y-7579524D01*
X8166429Y-7579524D02*
X8185476Y-7589048D01*
X8185476Y-7589048D02*
X8195000Y-7598571D01*
X8195000Y-7598571D02*
X8204524Y-7617619D01*
X8204524Y-7617619D02*
X8214048Y-7655714D01*
X8214048Y-7655714D02*
X8214048Y-7703333D01*
X8214048Y-7703333D02*
X8204524Y-7741428D01*
X8204524Y-7741428D02*
X8195000Y-7760476D01*
X8195000Y-7760476D02*
X8185476Y-7770000D01*
X8185476Y-7770000D02*
X8166429Y-7779524D01*
X8166429Y-7779524D02*
X8147381Y-7779524D01*
X8147381Y-7779524D02*
X8128333Y-7770000D01*
X8128333Y-7770000D02*
X8118809Y-7760476D01*
X8118809Y-7760476D02*
X8109286Y-7741428D01*
X8109286Y-7741428D02*
X8099762Y-7703333D01*
X8099762Y-7703333D02*
X8099762Y-7655714D01*
X8099762Y-7655714D02*
X8109286Y-7617619D01*
X8109286Y-7617619D02*
X8118809Y-7598571D01*
X8118809Y-7598571D02*
X8128333Y-7589048D01*
X8128333Y-7589048D02*
X8147381Y-7579524D01*
X8299762Y-7779524D02*
X8299762Y-7646190D01*
X8299762Y-7665238D02*
X8309286Y-7655714D01*
X8309286Y-7655714D02*
X8328333Y-7646190D01*
X8328333Y-7646190D02*
X8356905Y-7646190D01*
X8356905Y-7646190D02*
X8375952Y-7655714D01*
X8375952Y-7655714D02*
X8385476Y-7674762D01*
X8385476Y-7674762D02*
X8385476Y-7779524D01*
X8385476Y-7674762D02*
X8395000Y-7655714D01*
X8395000Y-7655714D02*
X8414048Y-7646190D01*
X8414048Y-7646190D02*
X8442619Y-7646190D01*
X8442619Y-7646190D02*
X8461667Y-7655714D01*
X8461667Y-7655714D02*
X8471191Y-7674762D01*
X8471191Y-7674762D02*
X8471191Y-7779524D01*
X8566429Y-7779524D02*
X8566429Y-7646190D01*
X8566429Y-7665238D02*
X8575952Y-7655714D01*
X8575952Y-7655714D02*
X8595000Y-7646190D01*
X8595000Y-7646190D02*
X8623572Y-7646190D01*
X8623572Y-7646190D02*
X8642619Y-7655714D01*
X8642619Y-7655714D02*
X8652143Y-7674762D01*
X8652143Y-7674762D02*
X8652143Y-7779524D01*
X8652143Y-7674762D02*
X8661667Y-7655714D01*
X8661667Y-7655714D02*
X8680714Y-7646190D01*
X8680714Y-7646190D02*
X8709286Y-7646190D01*
X8709286Y-7646190D02*
X8728333Y-7655714D01*
X8728333Y-7655714D02*
X8737857Y-7674762D01*
X8737857Y-7674762D02*
X8737857Y-7779524D01*
X9128333Y-7570000D02*
X8956905Y-7827143D01*
X9385476Y-7579524D02*
X9404524Y-7579524D01*
X9404524Y-7579524D02*
X9423572Y-7589048D01*
X9423572Y-7589048D02*
X9433095Y-7598571D01*
X9433095Y-7598571D02*
X9442619Y-7617619D01*
X9442619Y-7617619D02*
X9452143Y-7655714D01*
X9452143Y-7655714D02*
X9452143Y-7703333D01*
X9452143Y-7703333D02*
X9442619Y-7741428D01*
X9442619Y-7741428D02*
X9433095Y-7760476D01*
X9433095Y-7760476D02*
X9423572Y-7770000D01*
X9423572Y-7770000D02*
X9404524Y-7779524D01*
X9404524Y-7779524D02*
X9385476Y-7779524D01*
X9385476Y-7779524D02*
X9366429Y-7770000D01*
X9366429Y-7770000D02*
X9356905Y-7760476D01*
X9356905Y-7760476D02*
X9347381Y-7741428D01*
X9347381Y-7741428D02*
X9337857Y-7703333D01*
X9337857Y-7703333D02*
X9337857Y-7655714D01*
X9337857Y-7655714D02*
X9347381Y-7617619D01*
X9347381Y-7617619D02*
X9356905Y-7598571D01*
X9356905Y-7598571D02*
X9366429Y-7589048D01*
X9366429Y-7589048D02*
X9385476Y-7579524D01*
X9537857Y-7760476D02*
X9547381Y-7770000D01*
X9547381Y-7770000D02*
X9537857Y-7779524D01*
X9537857Y-7779524D02*
X9528334Y-7770000D01*
X9528334Y-7770000D02*
X9537857Y-7760476D01*
X9537857Y-7760476D02*
X9537857Y-7779524D01*
X9671191Y-7579524D02*
X9690238Y-7579524D01*
X9690238Y-7579524D02*
X9709286Y-7589048D01*
X9709286Y-7589048D02*
X9718810Y-7598571D01*
X9718810Y-7598571D02*
X9728334Y-7617619D01*
X9728334Y-7617619D02*
X9737857Y-7655714D01*
X9737857Y-7655714D02*
X9737857Y-7703333D01*
X9737857Y-7703333D02*
X9728334Y-7741428D01*
X9728334Y-7741428D02*
X9718810Y-7760476D01*
X9718810Y-7760476D02*
X9709286Y-7770000D01*
X9709286Y-7770000D02*
X9690238Y-7779524D01*
X9690238Y-7779524D02*
X9671191Y-7779524D01*
X9671191Y-7779524D02*
X9652143Y-7770000D01*
X9652143Y-7770000D02*
X9642619Y-7760476D01*
X9642619Y-7760476D02*
X9633095Y-7741428D01*
X9633095Y-7741428D02*
X9623572Y-7703333D01*
X9623572Y-7703333D02*
X9623572Y-7655714D01*
X9623572Y-7655714D02*
X9633095Y-7617619D01*
X9633095Y-7617619D02*
X9642619Y-7598571D01*
X9642619Y-7598571D02*
X9652143Y-7589048D01*
X9652143Y-7589048D02*
X9671191Y-7579524D01*
X9804524Y-7579524D02*
X9928334Y-7579524D01*
X9928334Y-7579524D02*
X9861667Y-7655714D01*
X9861667Y-7655714D02*
X9890238Y-7655714D01*
X9890238Y-7655714D02*
X9909286Y-7665238D01*
X9909286Y-7665238D02*
X9918810Y-7674762D01*
X9918810Y-7674762D02*
X9928334Y-7693809D01*
X9928334Y-7693809D02*
X9928334Y-7741428D01*
X9928334Y-7741428D02*
X9918810Y-7760476D01*
X9918810Y-7760476D02*
X9909286Y-7770000D01*
X9909286Y-7770000D02*
X9890238Y-7779524D01*
X9890238Y-7779524D02*
X9833095Y-7779524D01*
X9833095Y-7779524D02*
X9814048Y-7770000D01*
X9814048Y-7770000D02*
X9804524Y-7760476D01*
X10023572Y-7779524D02*
X10061667Y-7779524D01*
X10061667Y-7779524D02*
X10080715Y-7770000D01*
X10080715Y-7770000D02*
X10090238Y-7760476D01*
X10090238Y-7760476D02*
X10109286Y-7731905D01*
X10109286Y-7731905D02*
X10118810Y-7693809D01*
X10118810Y-7693809D02*
X10118810Y-7617619D01*
X10118810Y-7617619D02*
X10109286Y-7598571D01*
X10109286Y-7598571D02*
X10099762Y-7589048D01*
X10099762Y-7589048D02*
X10080715Y-7579524D01*
X10080715Y-7579524D02*
X10042619Y-7579524D01*
X10042619Y-7579524D02*
X10023572Y-7589048D01*
X10023572Y-7589048D02*
X10014048Y-7598571D01*
X10014048Y-7598571D02*
X10004524Y-7617619D01*
X10004524Y-7617619D02*
X10004524Y-7665238D01*
X10004524Y-7665238D02*
X10014048Y-7684286D01*
X10014048Y-7684286D02*
X10023572Y-7693809D01*
X10023572Y-7693809D02*
X10042619Y-7703333D01*
X10042619Y-7703333D02*
X10080715Y-7703333D01*
X10080715Y-7703333D02*
X10099762Y-7693809D01*
X10099762Y-7693809D02*
X10109286Y-7684286D01*
X10109286Y-7684286D02*
X10118810Y-7665238D01*
X10290238Y-7646190D02*
X10290238Y-7779524D01*
X10242619Y-7570000D02*
X10195000Y-7712857D01*
X10195000Y-7712857D02*
X10318810Y-7712857D01*
X10385476Y-7579524D02*
X10385476Y-7617619D01*
X10461667Y-7579524D02*
X10461667Y-7617619D01*
X10756905Y-7855714D02*
X10747381Y-7846190D01*
X10747381Y-7846190D02*
X10728334Y-7817619D01*
X10728334Y-7817619D02*
X10718810Y-7798571D01*
X10718810Y-7798571D02*
X10709286Y-7770000D01*
X10709286Y-7770000D02*
X10699762Y-7722381D01*
X10699762Y-7722381D02*
X10699762Y-7684286D01*
X10699762Y-7684286D02*
X10709286Y-7636667D01*
X10709286Y-7636667D02*
X10718810Y-7608095D01*
X10718810Y-7608095D02*
X10728334Y-7589048D01*
X10728334Y-7589048D02*
X10747381Y-7560476D01*
X10747381Y-7560476D02*
X10756905Y-7550952D01*
X10918810Y-7579524D02*
X10880715Y-7579524D01*
X10880715Y-7579524D02*
X10861667Y-7589048D01*
X10861667Y-7589048D02*
X10852143Y-7598571D01*
X10852143Y-7598571D02*
X10833096Y-7627143D01*
X10833096Y-7627143D02*
X10823572Y-7665238D01*
X10823572Y-7665238D02*
X10823572Y-7741428D01*
X10823572Y-7741428D02*
X10833096Y-7760476D01*
X10833096Y-7760476D02*
X10842619Y-7770000D01*
X10842619Y-7770000D02*
X10861667Y-7779524D01*
X10861667Y-7779524D02*
X10899762Y-7779524D01*
X10899762Y-7779524D02*
X10918810Y-7770000D01*
X10918810Y-7770000D02*
X10928334Y-7760476D01*
X10928334Y-7760476D02*
X10937857Y-7741428D01*
X10937857Y-7741428D02*
X10937857Y-7693809D01*
X10937857Y-7693809D02*
X10928334Y-7674762D01*
X10928334Y-7674762D02*
X10918810Y-7665238D01*
X10918810Y-7665238D02*
X10899762Y-7655714D01*
X10899762Y-7655714D02*
X10861667Y-7655714D01*
X10861667Y-7655714D02*
X10842619Y-7665238D01*
X10842619Y-7665238D02*
X10833096Y-7674762D01*
X10833096Y-7674762D02*
X10823572Y-7693809D01*
X11175953Y-7779524D02*
X11175953Y-7579524D01*
X11261667Y-7779524D02*
X11261667Y-7674762D01*
X11261667Y-7674762D02*
X11252143Y-7655714D01*
X11252143Y-7655714D02*
X11233096Y-7646190D01*
X11233096Y-7646190D02*
X11204524Y-7646190D01*
X11204524Y-7646190D02*
X11185476Y-7655714D01*
X11185476Y-7655714D02*
X11175953Y-7665238D01*
X11385476Y-7779524D02*
X11366429Y-7770000D01*
X11366429Y-7770000D02*
X11356905Y-7760476D01*
X11356905Y-7760476D02*
X11347381Y-7741428D01*
X11347381Y-7741428D02*
X11347381Y-7684286D01*
X11347381Y-7684286D02*
X11356905Y-7665238D01*
X11356905Y-7665238D02*
X11366429Y-7655714D01*
X11366429Y-7655714D02*
X11385476Y-7646190D01*
X11385476Y-7646190D02*
X11414048Y-7646190D01*
X11414048Y-7646190D02*
X11433096Y-7655714D01*
X11433096Y-7655714D02*
X11442619Y-7665238D01*
X11442619Y-7665238D02*
X11452143Y-7684286D01*
X11452143Y-7684286D02*
X11452143Y-7741428D01*
X11452143Y-7741428D02*
X11442619Y-7760476D01*
X11442619Y-7760476D02*
X11433096Y-7770000D01*
X11433096Y-7770000D02*
X11414048Y-7779524D01*
X11414048Y-7779524D02*
X11385476Y-7779524D01*
X11566429Y-7779524D02*
X11547381Y-7770000D01*
X11547381Y-7770000D02*
X11537857Y-7750952D01*
X11537857Y-7750952D02*
X11537857Y-7579524D01*
X11718810Y-7770000D02*
X11699762Y-7779524D01*
X11699762Y-7779524D02*
X11661667Y-7779524D01*
X11661667Y-7779524D02*
X11642619Y-7770000D01*
X11642619Y-7770000D02*
X11633096Y-7750952D01*
X11633096Y-7750952D02*
X11633096Y-7674762D01*
X11633096Y-7674762D02*
X11642619Y-7655714D01*
X11642619Y-7655714D02*
X11661667Y-7646190D01*
X11661667Y-7646190D02*
X11699762Y-7646190D01*
X11699762Y-7646190D02*
X11718810Y-7655714D01*
X11718810Y-7655714D02*
X11728334Y-7674762D01*
X11728334Y-7674762D02*
X11728334Y-7693809D01*
X11728334Y-7693809D02*
X11633096Y-7712857D01*
X11804524Y-7770000D02*
X11823572Y-7779524D01*
X11823572Y-7779524D02*
X11861667Y-7779524D01*
X11861667Y-7779524D02*
X11880715Y-7770000D01*
X11880715Y-7770000D02*
X11890238Y-7750952D01*
X11890238Y-7750952D02*
X11890238Y-7741428D01*
X11890238Y-7741428D02*
X11880715Y-7722381D01*
X11880715Y-7722381D02*
X11861667Y-7712857D01*
X11861667Y-7712857D02*
X11833096Y-7712857D01*
X11833096Y-7712857D02*
X11814048Y-7703333D01*
X11814048Y-7703333D02*
X11804524Y-7684286D01*
X11804524Y-7684286D02*
X11804524Y-7674762D01*
X11804524Y-7674762D02*
X11814048Y-7655714D01*
X11814048Y-7655714D02*
X11833096Y-7646190D01*
X11833096Y-7646190D02*
X11861667Y-7646190D01*
X11861667Y-7646190D02*
X11880715Y-7655714D01*
X11956905Y-7855714D02*
X11966429Y-7846190D01*
X11966429Y-7846190D02*
X11985477Y-7817619D01*
X11985477Y-7817619D02*
X11995000Y-7798571D01*
X11995000Y-7798571D02*
X12004524Y-7770000D01*
X12004524Y-7770000D02*
X12014048Y-7722381D01*
X12014048Y-7722381D02*
X12014048Y-7684286D01*
X12014048Y-7684286D02*
X12004524Y-7636667D01*
X12004524Y-7636667D02*
X11995000Y-7608095D01*
X11995000Y-7608095D02*
X11985477Y-7589048D01*
X11985477Y-7589048D02*
X11966429Y-7560476D01*
X11966429Y-7560476D02*
X11956905Y-7550952D01*
M02*
