G04 #@! TF.GenerationSoftware,KiCad,Pcbnew,7.0.1-3b83917a11~172~ubuntu22.04.1*
G04 #@! TF.CreationDate,2023-04-25T14:56:48+02:00*
G04 #@! TF.ProjectId,sharp-lcd-128x128,73686172-702d-46c6-9364-2d3132387831,rev?*
G04 #@! TF.SameCoordinates,Original*
G04 #@! TF.FileFunction,Legend,Top*
G04 #@! TF.FilePolarity,Positive*
%FSLAX46Y46*%
G04 Gerber Fmt 4.6, Leading zero omitted, Abs format (unit mm)*
G04 Created by KiCad (PCBNEW 7.0.1-3b83917a11~172~ubuntu22.04.1) date 2023-04-25 14:56:48*
%MOMM*%
%LPD*%
G01*
G04 APERTURE LIST*
G04 Aperture macros list*
%AMRoundRect*
0 Rectangle with rounded corners*
0 $1 Rounding radius*
0 $2 $3 $4 $5 $6 $7 $8 $9 X,Y pos of 4 corners*
0 Add a 4 corners polygon primitive as box body*
4,1,4,$2,$3,$4,$5,$6,$7,$8,$9,$2,$3,0*
0 Add four circle primitives for the rounded corners*
1,1,$1+$1,$2,$3*
1,1,$1+$1,$4,$5*
1,1,$1+$1,$6,$7*
1,1,$1+$1,$8,$9*
0 Add four rect primitives between the rounded corners*
20,1,$1+$1,$2,$3,$4,$5,0*
20,1,$1+$1,$4,$5,$6,$7,0*
20,1,$1+$1,$6,$7,$8,$9,0*
20,1,$1+$1,$8,$9,$2,$3,0*%
%AMFreePoly0*
4,1,19,0.000000,0.744911,0.071157,0.744911,0.207708,0.704816,0.327430,0.627875,0.420627,0.520320,0.479746,0.390866,0.500000,0.250000,0.500000,-0.250000,0.479746,-0.390866,0.420627,-0.520320,0.327430,-0.627875,0.207708,-0.704816,0.071157,-0.744911,0.000000,-0.744911,0.000000,-0.750000,-0.500000,-0.750000,-0.500000,0.750000,0.000000,0.750000,0.000000,0.744911,0.000000,0.744911,
$1*%
%AMFreePoly1*
4,1,19,0.500000,-0.750000,0.000000,-0.750000,0.000000,-0.744911,-0.071157,-0.744911,-0.207708,-0.704816,-0.327430,-0.627875,-0.420627,-0.520320,-0.479746,-0.390866,-0.500000,-0.250000,-0.500000,0.250000,-0.479746,0.390866,-0.420627,0.520320,-0.327430,0.627875,-0.207708,0.704816,-0.071157,0.744911,0.000000,0.744911,0.000000,0.750000,0.500000,0.750000,0.500000,-0.750000,0.500000,-0.750000,
$1*%
G04 Aperture macros list end*
%ADD10C,0.150000*%
%ADD11C,0.200000*%
%ADD12C,0.140000*%
%ADD13C,0.130000*%
%ADD14C,0.170000*%
%ADD15C,0.280000*%
%ADD16C,0.180000*%
%ADD17C,0.160000*%
%ADD18C,0.120000*%
%ADD19C,0.100000*%
%ADD20R,1.498600X0.889000*%
%ADD21R,0.711200X0.711200*%
%ADD22RoundRect,0.200000X-0.200000X-0.275000X0.200000X-0.275000X0.200000X0.275000X-0.200000X0.275000X0*%
%ADD23RoundRect,0.150000X-0.587500X-0.150000X0.587500X-0.150000X0.587500X0.150000X-0.587500X0.150000X0*%
%ADD24RoundRect,0.200000X-0.275000X0.200000X-0.275000X-0.200000X0.275000X-0.200000X0.275000X0.200000X0*%
%ADD25R,1.000000X1.000000*%
%ADD26RoundRect,0.250000X-0.250000X-0.475000X0.250000X-0.475000X0.250000X0.475000X-0.250000X0.475000X0*%
%ADD27RoundRect,0.150000X0.587500X0.150000X-0.587500X0.150000X-0.587500X-0.150000X0.587500X-0.150000X0*%
%ADD28RoundRect,0.243750X-0.456250X0.243750X-0.456250X-0.243750X0.456250X-0.243750X0.456250X0.243750X0*%
%ADD29RoundRect,0.150000X-0.150000X0.825000X-0.150000X-0.825000X0.150000X-0.825000X0.150000X0.825000X0*%
%ADD30R,0.558800X0.990600*%
%ADD31RoundRect,0.200000X0.200000X0.275000X-0.200000X0.275000X-0.200000X-0.275000X0.200000X-0.275000X0*%
%ADD32RoundRect,0.150000X0.150000X-0.587500X0.150000X0.587500X-0.150000X0.587500X-0.150000X-0.587500X0*%
%ADD33O,1.600000X1.000000*%
%ADD34O,2.100000X1.000000*%
%ADD35R,1.450000X0.600000*%
%ADD36R,1.450000X0.300000*%
%ADD37C,0.650000*%
%ADD38O,1.700000X1.700000*%
%ADD39R,1.700000X1.700000*%
%ADD40C,2.100000*%
%ADD41RoundRect,0.250000X-0.412500X-0.925000X0.412500X-0.925000X0.412500X0.925000X-0.412500X0.925000X0*%
%ADD42FreePoly0,0.000000*%
%ADD43FreePoly1,0.000000*%
%ADD44R,0.812800X0.304800*%
%ADD45R,0.812800X0.406400*%
%ADD46R,0.850000X0.300000*%
%ADD47R,2.000000X0.800000*%
%ADD48RoundRect,0.250000X0.262500X0.450000X-0.262500X0.450000X-0.262500X-0.450000X0.262500X-0.450000X0*%
%ADD49RoundRect,0.175000X0.225000X-0.175000X0.225000X0.175000X-0.225000X0.175000X-0.225000X-0.175000X0*%
%ADD50RoundRect,0.150000X0.275000X-0.150000X0.275000X0.150000X-0.275000X0.150000X-0.275000X-0.150000X0*%
%ADD51RoundRect,0.200000X0.275000X-0.200000X0.275000X0.200000X-0.275000X0.200000X-0.275000X-0.200000X0*%
%ADD52RoundRect,0.112500X-0.112500X0.187500X-0.112500X-0.187500X0.112500X-0.187500X0.112500X0.187500X0*%
G04 APERTURE END LIST*
D10*
X114630000Y-48390000D02*
X121230000Y-48390000D01*
X111000000Y-33890000D02*
X117600000Y-33890000D01*
X114630000Y-43240000D02*
X121230000Y-43240000D01*
X121450000Y-37000000D02*
X121950000Y-37000000D01*
X111000000Y-30620000D02*
X117600000Y-30620000D01*
X120340000Y-37000000D02*
X120840000Y-37000000D01*
X119230000Y-37000000D02*
X119730000Y-37000000D01*
D11*
X116391428Y-49988809D02*
X116058095Y-49988809D01*
X116058095Y-50512619D02*
X116058095Y-49512619D01*
X116058095Y-49512619D02*
X116534285Y-49512619D01*
X116867619Y-50226904D02*
X117343809Y-50226904D01*
X116772381Y-50512619D02*
X117105714Y-49512619D01*
X117105714Y-49512619D02*
X117439047Y-50512619D01*
X117724762Y-50465000D02*
X117867619Y-50512619D01*
X117867619Y-50512619D02*
X118105714Y-50512619D01*
X118105714Y-50512619D02*
X118200952Y-50465000D01*
X118200952Y-50465000D02*
X118248571Y-50417380D01*
X118248571Y-50417380D02*
X118296190Y-50322142D01*
X118296190Y-50322142D02*
X118296190Y-50226904D01*
X118296190Y-50226904D02*
X118248571Y-50131666D01*
X118248571Y-50131666D02*
X118200952Y-50084047D01*
X118200952Y-50084047D02*
X118105714Y-50036428D01*
X118105714Y-50036428D02*
X117915238Y-49988809D01*
X117915238Y-49988809D02*
X117820000Y-49941190D01*
X117820000Y-49941190D02*
X117772381Y-49893571D01*
X117772381Y-49893571D02*
X117724762Y-49798333D01*
X117724762Y-49798333D02*
X117724762Y-49703095D01*
X117724762Y-49703095D02*
X117772381Y-49607857D01*
X117772381Y-49607857D02*
X117820000Y-49560238D01*
X117820000Y-49560238D02*
X117915238Y-49512619D01*
X117915238Y-49512619D02*
X118153333Y-49512619D01*
X118153333Y-49512619D02*
X118296190Y-49560238D01*
X118677143Y-50226904D02*
X119153333Y-50226904D01*
X118581905Y-50512619D02*
X118915238Y-49512619D01*
X118915238Y-49512619D02*
X119248571Y-50512619D01*
X119581905Y-50512619D02*
X119581905Y-49512619D01*
X119581905Y-49512619D02*
X120153333Y-50512619D01*
X120153333Y-50512619D02*
X120153333Y-49512619D01*
X120629524Y-50512619D02*
X120629524Y-49512619D01*
X116629523Y-52037380D02*
X116581904Y-52085000D01*
X116581904Y-52085000D02*
X116439047Y-52132619D01*
X116439047Y-52132619D02*
X116343809Y-52132619D01*
X116343809Y-52132619D02*
X116200952Y-52085000D01*
X116200952Y-52085000D02*
X116105714Y-51989761D01*
X116105714Y-51989761D02*
X116058095Y-51894523D01*
X116058095Y-51894523D02*
X116010476Y-51704047D01*
X116010476Y-51704047D02*
X116010476Y-51561190D01*
X116010476Y-51561190D02*
X116058095Y-51370714D01*
X116058095Y-51370714D02*
X116105714Y-51275476D01*
X116105714Y-51275476D02*
X116200952Y-51180238D01*
X116200952Y-51180238D02*
X116343809Y-51132619D01*
X116343809Y-51132619D02*
X116439047Y-51132619D01*
X116439047Y-51132619D02*
X116581904Y-51180238D01*
X116581904Y-51180238D02*
X116629523Y-51227857D01*
X117248571Y-51132619D02*
X117439047Y-51132619D01*
X117439047Y-51132619D02*
X117534285Y-51180238D01*
X117534285Y-51180238D02*
X117629523Y-51275476D01*
X117629523Y-51275476D02*
X117677142Y-51465952D01*
X117677142Y-51465952D02*
X117677142Y-51799285D01*
X117677142Y-51799285D02*
X117629523Y-51989761D01*
X117629523Y-51989761D02*
X117534285Y-52085000D01*
X117534285Y-52085000D02*
X117439047Y-52132619D01*
X117439047Y-52132619D02*
X117248571Y-52132619D01*
X117248571Y-52132619D02*
X117153333Y-52085000D01*
X117153333Y-52085000D02*
X117058095Y-51989761D01*
X117058095Y-51989761D02*
X117010476Y-51799285D01*
X117010476Y-51799285D02*
X117010476Y-51465952D01*
X117010476Y-51465952D02*
X117058095Y-51275476D01*
X117058095Y-51275476D02*
X117153333Y-51180238D01*
X117153333Y-51180238D02*
X117248571Y-51132619D01*
X118677142Y-52132619D02*
X118343809Y-51656428D01*
X118105714Y-52132619D02*
X118105714Y-51132619D01*
X118105714Y-51132619D02*
X118486666Y-51132619D01*
X118486666Y-51132619D02*
X118581904Y-51180238D01*
X118581904Y-51180238D02*
X118629523Y-51227857D01*
X118629523Y-51227857D02*
X118677142Y-51323095D01*
X118677142Y-51323095D02*
X118677142Y-51465952D01*
X118677142Y-51465952D02*
X118629523Y-51561190D01*
X118629523Y-51561190D02*
X118581904Y-51608809D01*
X118581904Y-51608809D02*
X118486666Y-51656428D01*
X118486666Y-51656428D02*
X118105714Y-51656428D01*
X119105714Y-52132619D02*
X119105714Y-51132619D01*
X119105714Y-51132619D02*
X119486666Y-51132619D01*
X119486666Y-51132619D02*
X119581904Y-51180238D01*
X119581904Y-51180238D02*
X119629523Y-51227857D01*
X119629523Y-51227857D02*
X119677142Y-51323095D01*
X119677142Y-51323095D02*
X119677142Y-51465952D01*
X119677142Y-51465952D02*
X119629523Y-51561190D01*
X119629523Y-51561190D02*
X119581904Y-51608809D01*
X119581904Y-51608809D02*
X119486666Y-51656428D01*
X119486666Y-51656428D02*
X119105714Y-51656428D01*
X120105714Y-52037380D02*
X120153333Y-52085000D01*
X120153333Y-52085000D02*
X120105714Y-52132619D01*
X120105714Y-52132619D02*
X120058095Y-52085000D01*
X120058095Y-52085000D02*
X120105714Y-52037380D01*
X120105714Y-52037380D02*
X120105714Y-52132619D01*
D12*
X105353333Y-33372095D02*
X105200952Y-33372095D01*
X105200952Y-33372095D02*
X105124761Y-33410190D01*
X105124761Y-33410190D02*
X105086666Y-33448285D01*
X105086666Y-33448285D02*
X105010476Y-33562571D01*
X105010476Y-33562571D02*
X104972380Y-33714952D01*
X104972380Y-33714952D02*
X104972380Y-34019714D01*
X104972380Y-34019714D02*
X105010476Y-34095904D01*
X105010476Y-34095904D02*
X105048571Y-34134000D01*
X105048571Y-34134000D02*
X105124761Y-34172095D01*
X105124761Y-34172095D02*
X105277142Y-34172095D01*
X105277142Y-34172095D02*
X105353333Y-34134000D01*
X105353333Y-34134000D02*
X105391428Y-34095904D01*
X105391428Y-34095904D02*
X105429523Y-34019714D01*
X105429523Y-34019714D02*
X105429523Y-33829238D01*
X105429523Y-33829238D02*
X105391428Y-33753047D01*
X105391428Y-33753047D02*
X105353333Y-33714952D01*
X105353333Y-33714952D02*
X105277142Y-33676857D01*
X105277142Y-33676857D02*
X105124761Y-33676857D01*
X105124761Y-33676857D02*
X105048571Y-33714952D01*
X105048571Y-33714952D02*
X105010476Y-33753047D01*
X105010476Y-33753047D02*
X104972380Y-33829238D01*
D13*
X95529523Y-46561047D02*
X95796189Y-46561047D01*
X95910475Y-46980095D02*
X95529523Y-46980095D01*
X95529523Y-46980095D02*
X95529523Y-46180095D01*
X95529523Y-46180095D02*
X95910475Y-46180095D01*
X96215237Y-46942000D02*
X96329523Y-46980095D01*
X96329523Y-46980095D02*
X96519999Y-46980095D01*
X96519999Y-46980095D02*
X96596190Y-46942000D01*
X96596190Y-46942000D02*
X96634285Y-46903904D01*
X96634285Y-46903904D02*
X96672380Y-46827714D01*
X96672380Y-46827714D02*
X96672380Y-46751523D01*
X96672380Y-46751523D02*
X96634285Y-46675333D01*
X96634285Y-46675333D02*
X96596190Y-46637238D01*
X96596190Y-46637238D02*
X96519999Y-46599142D01*
X96519999Y-46599142D02*
X96367618Y-46561047D01*
X96367618Y-46561047D02*
X96291428Y-46522952D01*
X96291428Y-46522952D02*
X96253333Y-46484857D01*
X96253333Y-46484857D02*
X96215237Y-46408666D01*
X96215237Y-46408666D02*
X96215237Y-46332476D01*
X96215237Y-46332476D02*
X96253333Y-46256285D01*
X96253333Y-46256285D02*
X96291428Y-46218190D01*
X96291428Y-46218190D02*
X96367618Y-46180095D01*
X96367618Y-46180095D02*
X96558095Y-46180095D01*
X96558095Y-46180095D02*
X96672380Y-46218190D01*
X97015238Y-46980095D02*
X97015238Y-46180095D01*
X97015238Y-46180095D02*
X97320000Y-46180095D01*
X97320000Y-46180095D02*
X97396190Y-46218190D01*
X97396190Y-46218190D02*
X97434285Y-46256285D01*
X97434285Y-46256285D02*
X97472381Y-46332476D01*
X97472381Y-46332476D02*
X97472381Y-46446761D01*
X97472381Y-46446761D02*
X97434285Y-46522952D01*
X97434285Y-46522952D02*
X97396190Y-46561047D01*
X97396190Y-46561047D02*
X97320000Y-46599142D01*
X97320000Y-46599142D02*
X97015238Y-46599142D01*
X97739047Y-46180095D02*
X98234285Y-46180095D01*
X98234285Y-46180095D02*
X97967619Y-46484857D01*
X97967619Y-46484857D02*
X98081904Y-46484857D01*
X98081904Y-46484857D02*
X98158095Y-46522952D01*
X98158095Y-46522952D02*
X98196190Y-46561047D01*
X98196190Y-46561047D02*
X98234285Y-46637238D01*
X98234285Y-46637238D02*
X98234285Y-46827714D01*
X98234285Y-46827714D02*
X98196190Y-46903904D01*
X98196190Y-46903904D02*
X98158095Y-46942000D01*
X98158095Y-46942000D02*
X98081904Y-46980095D01*
X98081904Y-46980095D02*
X97853333Y-46980095D01*
X97853333Y-46980095D02*
X97777142Y-46942000D01*
X97777142Y-46942000D02*
X97739047Y-46903904D01*
X98539047Y-46256285D02*
X98577143Y-46218190D01*
X98577143Y-46218190D02*
X98653333Y-46180095D01*
X98653333Y-46180095D02*
X98843809Y-46180095D01*
X98843809Y-46180095D02*
X98920000Y-46218190D01*
X98920000Y-46218190D02*
X98958095Y-46256285D01*
X98958095Y-46256285D02*
X98996190Y-46332476D01*
X98996190Y-46332476D02*
X98996190Y-46408666D01*
X98996190Y-46408666D02*
X98958095Y-46522952D01*
X98958095Y-46522952D02*
X98500952Y-46980095D01*
X98500952Y-46980095D02*
X98996190Y-46980095D01*
X99339048Y-46675333D02*
X99948572Y-46675333D01*
X100786667Y-46903904D02*
X100748571Y-46942000D01*
X100748571Y-46942000D02*
X100634286Y-46980095D01*
X100634286Y-46980095D02*
X100558095Y-46980095D01*
X100558095Y-46980095D02*
X100443809Y-46942000D01*
X100443809Y-46942000D02*
X100367619Y-46865809D01*
X100367619Y-46865809D02*
X100329524Y-46789619D01*
X100329524Y-46789619D02*
X100291428Y-46637238D01*
X100291428Y-46637238D02*
X100291428Y-46522952D01*
X100291428Y-46522952D02*
X100329524Y-46370571D01*
X100329524Y-46370571D02*
X100367619Y-46294380D01*
X100367619Y-46294380D02*
X100443809Y-46218190D01*
X100443809Y-46218190D02*
X100558095Y-46180095D01*
X100558095Y-46180095D02*
X100634286Y-46180095D01*
X100634286Y-46180095D02*
X100748571Y-46218190D01*
X100748571Y-46218190D02*
X100786667Y-46256285D01*
X101053333Y-46180095D02*
X101548571Y-46180095D01*
X101548571Y-46180095D02*
X101281905Y-46484857D01*
X101281905Y-46484857D02*
X101396190Y-46484857D01*
X101396190Y-46484857D02*
X101472381Y-46522952D01*
X101472381Y-46522952D02*
X101510476Y-46561047D01*
X101510476Y-46561047D02*
X101548571Y-46637238D01*
X101548571Y-46637238D02*
X101548571Y-46827714D01*
X101548571Y-46827714D02*
X101510476Y-46903904D01*
X101510476Y-46903904D02*
X101472381Y-46942000D01*
X101472381Y-46942000D02*
X101396190Y-46980095D01*
X101396190Y-46980095D02*
X101167619Y-46980095D01*
X101167619Y-46980095D02*
X101091428Y-46942000D01*
X101091428Y-46942000D02*
X101053333Y-46903904D01*
X112466095Y-57657142D02*
X112085142Y-57923809D01*
X112466095Y-58114285D02*
X111666095Y-58114285D01*
X111666095Y-58114285D02*
X111666095Y-57809523D01*
X111666095Y-57809523D02*
X111704190Y-57733333D01*
X111704190Y-57733333D02*
X111742285Y-57695238D01*
X111742285Y-57695238D02*
X111818476Y-57657142D01*
X111818476Y-57657142D02*
X111932761Y-57657142D01*
X111932761Y-57657142D02*
X112008952Y-57695238D01*
X112008952Y-57695238D02*
X112047047Y-57733333D01*
X112047047Y-57733333D02*
X112085142Y-57809523D01*
X112085142Y-57809523D02*
X112085142Y-58114285D01*
X111666095Y-57390476D02*
X112466095Y-56857142D01*
X111666095Y-56857142D02*
X112466095Y-57390476D01*
D14*
X102140952Y-36072000D02*
X102255238Y-36110095D01*
X102255238Y-36110095D02*
X102445714Y-36110095D01*
X102445714Y-36110095D02*
X102521905Y-36072000D01*
X102521905Y-36072000D02*
X102560000Y-36033904D01*
X102560000Y-36033904D02*
X102598095Y-35957714D01*
X102598095Y-35957714D02*
X102598095Y-35881523D01*
X102598095Y-35881523D02*
X102560000Y-35805333D01*
X102560000Y-35805333D02*
X102521905Y-35767238D01*
X102521905Y-35767238D02*
X102445714Y-35729142D01*
X102445714Y-35729142D02*
X102293333Y-35691047D01*
X102293333Y-35691047D02*
X102217143Y-35652952D01*
X102217143Y-35652952D02*
X102179048Y-35614857D01*
X102179048Y-35614857D02*
X102140952Y-35538666D01*
X102140952Y-35538666D02*
X102140952Y-35462476D01*
X102140952Y-35462476D02*
X102179048Y-35386285D01*
X102179048Y-35386285D02*
X102217143Y-35348190D01*
X102217143Y-35348190D02*
X102293333Y-35310095D01*
X102293333Y-35310095D02*
X102483810Y-35310095D01*
X102483810Y-35310095D02*
X102598095Y-35348190D01*
X102940953Y-36110095D02*
X102940953Y-35310095D01*
X102940953Y-35691047D02*
X103398096Y-35691047D01*
X103398096Y-36110095D02*
X103398096Y-35310095D01*
X103740952Y-35881523D02*
X104121905Y-35881523D01*
X103664762Y-36110095D02*
X103931429Y-35310095D01*
X103931429Y-35310095D02*
X104198095Y-36110095D01*
X104921905Y-36110095D02*
X104655238Y-35729142D01*
X104464762Y-36110095D02*
X104464762Y-35310095D01*
X104464762Y-35310095D02*
X104769524Y-35310095D01*
X104769524Y-35310095D02*
X104845714Y-35348190D01*
X104845714Y-35348190D02*
X104883809Y-35386285D01*
X104883809Y-35386285D02*
X104921905Y-35462476D01*
X104921905Y-35462476D02*
X104921905Y-35576761D01*
X104921905Y-35576761D02*
X104883809Y-35652952D01*
X104883809Y-35652952D02*
X104845714Y-35691047D01*
X104845714Y-35691047D02*
X104769524Y-35729142D01*
X104769524Y-35729142D02*
X104464762Y-35729142D01*
X105264762Y-36110095D02*
X105264762Y-35310095D01*
X105264762Y-35310095D02*
X105569524Y-35310095D01*
X105569524Y-35310095D02*
X105645714Y-35348190D01*
X105645714Y-35348190D02*
X105683809Y-35386285D01*
X105683809Y-35386285D02*
X105721905Y-35462476D01*
X105721905Y-35462476D02*
X105721905Y-35576761D01*
X105721905Y-35576761D02*
X105683809Y-35652952D01*
X105683809Y-35652952D02*
X105645714Y-35691047D01*
X105645714Y-35691047D02*
X105569524Y-35729142D01*
X105569524Y-35729142D02*
X105264762Y-35729142D01*
X107055238Y-36110095D02*
X106674286Y-36110095D01*
X106674286Y-36110095D02*
X106674286Y-35310095D01*
X107779048Y-36033904D02*
X107740952Y-36072000D01*
X107740952Y-36072000D02*
X107626667Y-36110095D01*
X107626667Y-36110095D02*
X107550476Y-36110095D01*
X107550476Y-36110095D02*
X107436190Y-36072000D01*
X107436190Y-36072000D02*
X107360000Y-35995809D01*
X107360000Y-35995809D02*
X107321905Y-35919619D01*
X107321905Y-35919619D02*
X107283809Y-35767238D01*
X107283809Y-35767238D02*
X107283809Y-35652952D01*
X107283809Y-35652952D02*
X107321905Y-35500571D01*
X107321905Y-35500571D02*
X107360000Y-35424380D01*
X107360000Y-35424380D02*
X107436190Y-35348190D01*
X107436190Y-35348190D02*
X107550476Y-35310095D01*
X107550476Y-35310095D02*
X107626667Y-35310095D01*
X107626667Y-35310095D02*
X107740952Y-35348190D01*
X107740952Y-35348190D02*
X107779048Y-35386285D01*
X108121905Y-36110095D02*
X108121905Y-35310095D01*
X108121905Y-35310095D02*
X108312381Y-35310095D01*
X108312381Y-35310095D02*
X108426667Y-35348190D01*
X108426667Y-35348190D02*
X108502857Y-35424380D01*
X108502857Y-35424380D02*
X108540952Y-35500571D01*
X108540952Y-35500571D02*
X108579048Y-35652952D01*
X108579048Y-35652952D02*
X108579048Y-35767238D01*
X108579048Y-35767238D02*
X108540952Y-35919619D01*
X108540952Y-35919619D02*
X108502857Y-35995809D01*
X108502857Y-35995809D02*
X108426667Y-36072000D01*
X108426667Y-36072000D02*
X108312381Y-36110095D01*
X108312381Y-36110095D02*
X108121905Y-36110095D01*
D15*
X102896667Y-34764333D02*
X102830000Y-34831000D01*
X102830000Y-34831000D02*
X102630000Y-34897666D01*
X102630000Y-34897666D02*
X102496667Y-34897666D01*
X102496667Y-34897666D02*
X102296667Y-34831000D01*
X102296667Y-34831000D02*
X102163334Y-34697666D01*
X102163334Y-34697666D02*
X102096667Y-34564333D01*
X102096667Y-34564333D02*
X102030000Y-34297666D01*
X102030000Y-34297666D02*
X102030000Y-34097666D01*
X102030000Y-34097666D02*
X102096667Y-33831000D01*
X102096667Y-33831000D02*
X102163334Y-33697666D01*
X102163334Y-33697666D02*
X102296667Y-33564333D01*
X102296667Y-33564333D02*
X102496667Y-33497666D01*
X102496667Y-33497666D02*
X102630000Y-33497666D01*
X102630000Y-33497666D02*
X102830000Y-33564333D01*
X102830000Y-33564333D02*
X102896667Y-33631000D01*
X103363334Y-33497666D02*
X104230000Y-33497666D01*
X104230000Y-33497666D02*
X103763334Y-34031000D01*
X103763334Y-34031000D02*
X103963334Y-34031000D01*
X103963334Y-34031000D02*
X104096667Y-34097666D01*
X104096667Y-34097666D02*
X104163334Y-34164333D01*
X104163334Y-34164333D02*
X104230000Y-34297666D01*
X104230000Y-34297666D02*
X104230000Y-34631000D01*
X104230000Y-34631000D02*
X104163334Y-34764333D01*
X104163334Y-34764333D02*
X104096667Y-34831000D01*
X104096667Y-34831000D02*
X103963334Y-34897666D01*
X103963334Y-34897666D02*
X103563334Y-34897666D01*
X103563334Y-34897666D02*
X103430000Y-34831000D01*
X103430000Y-34831000D02*
X103363334Y-34764333D01*
D13*
X117570095Y-58114285D02*
X116770095Y-58114285D01*
X116770095Y-58114285D02*
X116770095Y-57923809D01*
X116770095Y-57923809D02*
X116808190Y-57809523D01*
X116808190Y-57809523D02*
X116884380Y-57733333D01*
X116884380Y-57733333D02*
X116960571Y-57695238D01*
X116960571Y-57695238D02*
X117112952Y-57657142D01*
X117112952Y-57657142D02*
X117227238Y-57657142D01*
X117227238Y-57657142D02*
X117379619Y-57695238D01*
X117379619Y-57695238D02*
X117455809Y-57733333D01*
X117455809Y-57733333D02*
X117532000Y-57809523D01*
X117532000Y-57809523D02*
X117570095Y-57923809D01*
X117570095Y-57923809D02*
X117570095Y-58114285D01*
X116770095Y-57428571D02*
X116770095Y-56971428D01*
X117570095Y-57200000D02*
X116770095Y-57200000D01*
X117570095Y-56247618D02*
X117189142Y-56514285D01*
X117570095Y-56704761D02*
X116770095Y-56704761D01*
X116770095Y-56704761D02*
X116770095Y-56399999D01*
X116770095Y-56399999D02*
X116808190Y-56323809D01*
X116808190Y-56323809D02*
X116846285Y-56285714D01*
X116846285Y-56285714D02*
X116922476Y-56247618D01*
X116922476Y-56247618D02*
X117036761Y-56247618D01*
X117036761Y-56247618D02*
X117112952Y-56285714D01*
X117112952Y-56285714D02*
X117151047Y-56323809D01*
X117151047Y-56323809D02*
X117189142Y-56399999D01*
X117189142Y-56399999D02*
X117189142Y-56704761D01*
D14*
X111824762Y-32710095D02*
X111824762Y-32100571D01*
X111786667Y-32672000D02*
X111786667Y-32138666D01*
X111748572Y-32672000D02*
X111748572Y-32138666D01*
X111710477Y-32633904D02*
X111710477Y-32176761D01*
X111672381Y-32633904D02*
X111672381Y-32176761D01*
X111634286Y-32595809D02*
X111634286Y-32214857D01*
X111596191Y-32595809D02*
X111596191Y-32214857D01*
X111558096Y-32557714D02*
X111558096Y-32252952D01*
X111520000Y-32519619D02*
X111520000Y-32291047D01*
X111481905Y-32519619D02*
X111481905Y-32291047D01*
X111443810Y-32481523D02*
X111443810Y-32329142D01*
X111405715Y-32481523D02*
X111405715Y-32329142D01*
X111367619Y-32405333D02*
X111329524Y-32405333D01*
X111367619Y-32443428D02*
X111367619Y-32367238D01*
X111862858Y-32710095D02*
X111291429Y-32405333D01*
X111291429Y-32405333D02*
X111862858Y-32100571D01*
X111253334Y-32405333D02*
X111862858Y-32062476D01*
X111862858Y-32062476D02*
X111862858Y-32748190D01*
X111862858Y-32748190D02*
X111253334Y-32405333D01*
X112129524Y-31910095D02*
X112586667Y-31910095D01*
X112358095Y-32710095D02*
X112358095Y-31910095D01*
X113005715Y-31910095D02*
X113158096Y-31910095D01*
X113158096Y-31910095D02*
X113234286Y-31948190D01*
X113234286Y-31948190D02*
X113310477Y-32024380D01*
X113310477Y-32024380D02*
X113348572Y-32176761D01*
X113348572Y-32176761D02*
X113348572Y-32443428D01*
X113348572Y-32443428D02*
X113310477Y-32595809D01*
X113310477Y-32595809D02*
X113234286Y-32672000D01*
X113234286Y-32672000D02*
X113158096Y-32710095D01*
X113158096Y-32710095D02*
X113005715Y-32710095D01*
X113005715Y-32710095D02*
X112929524Y-32672000D01*
X112929524Y-32672000D02*
X112853334Y-32595809D01*
X112853334Y-32595809D02*
X112815238Y-32443428D01*
X112815238Y-32443428D02*
X112815238Y-32176761D01*
X112815238Y-32176761D02*
X112853334Y-32024380D01*
X112853334Y-32024380D02*
X112929524Y-31948190D01*
X112929524Y-31948190D02*
X113005715Y-31910095D01*
X113691429Y-31910095D02*
X113691429Y-32557714D01*
X113691429Y-32557714D02*
X113729524Y-32633904D01*
X113729524Y-32633904D02*
X113767619Y-32672000D01*
X113767619Y-32672000D02*
X113843810Y-32710095D01*
X113843810Y-32710095D02*
X113996191Y-32710095D01*
X113996191Y-32710095D02*
X114072381Y-32672000D01*
X114072381Y-32672000D02*
X114110476Y-32633904D01*
X114110476Y-32633904D02*
X114148572Y-32557714D01*
X114148572Y-32557714D02*
X114148572Y-31910095D01*
X114986667Y-32633904D02*
X114948571Y-32672000D01*
X114948571Y-32672000D02*
X114834286Y-32710095D01*
X114834286Y-32710095D02*
X114758095Y-32710095D01*
X114758095Y-32710095D02*
X114643809Y-32672000D01*
X114643809Y-32672000D02*
X114567619Y-32595809D01*
X114567619Y-32595809D02*
X114529524Y-32519619D01*
X114529524Y-32519619D02*
X114491428Y-32367238D01*
X114491428Y-32367238D02*
X114491428Y-32252952D01*
X114491428Y-32252952D02*
X114529524Y-32100571D01*
X114529524Y-32100571D02*
X114567619Y-32024380D01*
X114567619Y-32024380D02*
X114643809Y-31948190D01*
X114643809Y-31948190D02*
X114758095Y-31910095D01*
X114758095Y-31910095D02*
X114834286Y-31910095D01*
X114834286Y-31910095D02*
X114948571Y-31948190D01*
X114948571Y-31948190D02*
X114986667Y-31986285D01*
X115329524Y-32710095D02*
X115329524Y-31910095D01*
X115329524Y-32291047D02*
X115786667Y-32291047D01*
X115786667Y-32710095D02*
X115786667Y-31910095D01*
D13*
X106662095Y-58190476D02*
X106662095Y-57695238D01*
X106662095Y-57695238D02*
X106966857Y-57961904D01*
X106966857Y-57961904D02*
X106966857Y-57847619D01*
X106966857Y-57847619D02*
X107004952Y-57771428D01*
X107004952Y-57771428D02*
X107043047Y-57733333D01*
X107043047Y-57733333D02*
X107119238Y-57695238D01*
X107119238Y-57695238D02*
X107309714Y-57695238D01*
X107309714Y-57695238D02*
X107385904Y-57733333D01*
X107385904Y-57733333D02*
X107424000Y-57771428D01*
X107424000Y-57771428D02*
X107462095Y-57847619D01*
X107462095Y-57847619D02*
X107462095Y-58076190D01*
X107462095Y-58076190D02*
X107424000Y-58152381D01*
X107424000Y-58152381D02*
X107385904Y-58190476D01*
X106662095Y-57466666D02*
X107462095Y-57199999D01*
X107462095Y-57199999D02*
X106662095Y-56933333D01*
D14*
X115448095Y-46260095D02*
X115448095Y-45650571D01*
X115410000Y-46222000D02*
X115410000Y-45688666D01*
X115371905Y-46222000D02*
X115371905Y-45688666D01*
X115333810Y-46183904D02*
X115333810Y-45726761D01*
X115295714Y-46183904D02*
X115295714Y-45726761D01*
X115257619Y-46145809D02*
X115257619Y-45764857D01*
X115219524Y-46145809D02*
X115219524Y-45764857D01*
X115181429Y-46107714D02*
X115181429Y-45802952D01*
X115143333Y-46069619D02*
X115143333Y-45841047D01*
X115105238Y-46069619D02*
X115105238Y-45841047D01*
X115067143Y-46031523D02*
X115067143Y-45879142D01*
X115029048Y-46031523D02*
X115029048Y-45879142D01*
X114990952Y-45955333D02*
X114952857Y-45955333D01*
X114990952Y-45993428D02*
X114990952Y-45917238D01*
X115486191Y-46260095D02*
X114914762Y-45955333D01*
X114914762Y-45955333D02*
X115486191Y-45650571D01*
X114876667Y-45955333D02*
X115486191Y-45612476D01*
X115486191Y-45612476D02*
X115486191Y-46298190D01*
X115486191Y-46298190D02*
X114876667Y-45955333D01*
X116857619Y-46260095D02*
X116476667Y-46260095D01*
X116476667Y-46260095D02*
X116476667Y-45460095D01*
X117581429Y-46183904D02*
X117543333Y-46222000D01*
X117543333Y-46222000D02*
X117429048Y-46260095D01*
X117429048Y-46260095D02*
X117352857Y-46260095D01*
X117352857Y-46260095D02*
X117238571Y-46222000D01*
X117238571Y-46222000D02*
X117162381Y-46145809D01*
X117162381Y-46145809D02*
X117124286Y-46069619D01*
X117124286Y-46069619D02*
X117086190Y-45917238D01*
X117086190Y-45917238D02*
X117086190Y-45802952D01*
X117086190Y-45802952D02*
X117124286Y-45650571D01*
X117124286Y-45650571D02*
X117162381Y-45574380D01*
X117162381Y-45574380D02*
X117238571Y-45498190D01*
X117238571Y-45498190D02*
X117352857Y-45460095D01*
X117352857Y-45460095D02*
X117429048Y-45460095D01*
X117429048Y-45460095D02*
X117543333Y-45498190D01*
X117543333Y-45498190D02*
X117581429Y-45536285D01*
X117924286Y-46260095D02*
X117924286Y-45460095D01*
X117924286Y-45460095D02*
X118114762Y-45460095D01*
X118114762Y-45460095D02*
X118229048Y-45498190D01*
X118229048Y-45498190D02*
X118305238Y-45574380D01*
X118305238Y-45574380D02*
X118343333Y-45650571D01*
X118343333Y-45650571D02*
X118381429Y-45802952D01*
X118381429Y-45802952D02*
X118381429Y-45917238D01*
X118381429Y-45917238D02*
X118343333Y-46069619D01*
X118343333Y-46069619D02*
X118305238Y-46145809D01*
X118305238Y-46145809D02*
X118229048Y-46222000D01*
X118229048Y-46222000D02*
X118114762Y-46260095D01*
X118114762Y-46260095D02*
X117924286Y-46260095D01*
D13*
X120122095Y-57657142D02*
X119741142Y-57923809D01*
X120122095Y-58114285D02*
X119322095Y-58114285D01*
X119322095Y-58114285D02*
X119322095Y-57809523D01*
X119322095Y-57809523D02*
X119360190Y-57733333D01*
X119360190Y-57733333D02*
X119398285Y-57695238D01*
X119398285Y-57695238D02*
X119474476Y-57657142D01*
X119474476Y-57657142D02*
X119588761Y-57657142D01*
X119588761Y-57657142D02*
X119664952Y-57695238D01*
X119664952Y-57695238D02*
X119703047Y-57733333D01*
X119703047Y-57733333D02*
X119741142Y-57809523D01*
X119741142Y-57809523D02*
X119741142Y-58114285D01*
X119322095Y-57428571D02*
X119322095Y-56971428D01*
X120122095Y-57200000D02*
X119322095Y-57200000D01*
X120084000Y-56742857D02*
X120122095Y-56628571D01*
X120122095Y-56628571D02*
X120122095Y-56438095D01*
X120122095Y-56438095D02*
X120084000Y-56361904D01*
X120084000Y-56361904D02*
X120045904Y-56323809D01*
X120045904Y-56323809D02*
X119969714Y-56285714D01*
X119969714Y-56285714D02*
X119893523Y-56285714D01*
X119893523Y-56285714D02*
X119817333Y-56323809D01*
X119817333Y-56323809D02*
X119779238Y-56361904D01*
X119779238Y-56361904D02*
X119741142Y-56438095D01*
X119741142Y-56438095D02*
X119703047Y-56590476D01*
X119703047Y-56590476D02*
X119664952Y-56666666D01*
X119664952Y-56666666D02*
X119626857Y-56704761D01*
X119626857Y-56704761D02*
X119550666Y-56742857D01*
X119550666Y-56742857D02*
X119474476Y-56742857D01*
X119474476Y-56742857D02*
X119398285Y-56704761D01*
X119398285Y-56704761D02*
X119360190Y-56666666D01*
X119360190Y-56666666D02*
X119322095Y-56590476D01*
X119322095Y-56590476D02*
X119322095Y-56399999D01*
X119322095Y-56399999D02*
X119360190Y-56285714D01*
X83279047Y-43051523D02*
X83660000Y-43051523D01*
X83202857Y-43280095D02*
X83469524Y-42480095D01*
X83469524Y-42480095D02*
X83736190Y-43280095D01*
X84002857Y-43280095D02*
X84002857Y-42480095D01*
X84002857Y-42480095D02*
X84193333Y-42480095D01*
X84193333Y-42480095D02*
X84307619Y-42518190D01*
X84307619Y-42518190D02*
X84383809Y-42594380D01*
X84383809Y-42594380D02*
X84421904Y-42670571D01*
X84421904Y-42670571D02*
X84460000Y-42822952D01*
X84460000Y-42822952D02*
X84460000Y-42937238D01*
X84460000Y-42937238D02*
X84421904Y-43089619D01*
X84421904Y-43089619D02*
X84383809Y-43165809D01*
X84383809Y-43165809D02*
X84307619Y-43242000D01*
X84307619Y-43242000D02*
X84193333Y-43280095D01*
X84193333Y-43280095D02*
X84002857Y-43280095D01*
X85260000Y-43203904D02*
X85221904Y-43242000D01*
X85221904Y-43242000D02*
X85107619Y-43280095D01*
X85107619Y-43280095D02*
X85031428Y-43280095D01*
X85031428Y-43280095D02*
X84917142Y-43242000D01*
X84917142Y-43242000D02*
X84840952Y-43165809D01*
X84840952Y-43165809D02*
X84802857Y-43089619D01*
X84802857Y-43089619D02*
X84764761Y-42937238D01*
X84764761Y-42937238D02*
X84764761Y-42822952D01*
X84764761Y-42822952D02*
X84802857Y-42670571D01*
X84802857Y-42670571D02*
X84840952Y-42594380D01*
X84840952Y-42594380D02*
X84917142Y-42518190D01*
X84917142Y-42518190D02*
X85031428Y-42480095D01*
X85031428Y-42480095D02*
X85107619Y-42480095D01*
X85107619Y-42480095D02*
X85221904Y-42518190D01*
X85221904Y-42518190D02*
X85260000Y-42556285D01*
X85602857Y-43203904D02*
X85640952Y-43242000D01*
X85640952Y-43242000D02*
X85602857Y-43280095D01*
X85602857Y-43280095D02*
X85564761Y-43242000D01*
X85564761Y-43242000D02*
X85602857Y-43203904D01*
X85602857Y-43203904D02*
X85602857Y-43280095D01*
X86440952Y-43203904D02*
X86402856Y-43242000D01*
X86402856Y-43242000D02*
X86288571Y-43280095D01*
X86288571Y-43280095D02*
X86212380Y-43280095D01*
X86212380Y-43280095D02*
X86098094Y-43242000D01*
X86098094Y-43242000D02*
X86021904Y-43165809D01*
X86021904Y-43165809D02*
X85983809Y-43089619D01*
X85983809Y-43089619D02*
X85945713Y-42937238D01*
X85945713Y-42937238D02*
X85945713Y-42822952D01*
X85945713Y-42822952D02*
X85983809Y-42670571D01*
X85983809Y-42670571D02*
X86021904Y-42594380D01*
X86021904Y-42594380D02*
X86098094Y-42518190D01*
X86098094Y-42518190D02*
X86212380Y-42480095D01*
X86212380Y-42480095D02*
X86288571Y-42480095D01*
X86288571Y-42480095D02*
X86402856Y-42518190D01*
X86402856Y-42518190D02*
X86440952Y-42556285D01*
X86783809Y-43280095D02*
X86783809Y-42480095D01*
X86783809Y-42861047D02*
X87240952Y-42861047D01*
X87240952Y-43280095D02*
X87240952Y-42480095D01*
X87964761Y-42746761D02*
X87964761Y-43280095D01*
X87774285Y-42442000D02*
X87583808Y-43013428D01*
X87583808Y-43013428D02*
X88079047Y-43013428D01*
X114218095Y-58228571D02*
X114218095Y-57771428D01*
X115018095Y-58000000D02*
X114218095Y-58000000D01*
X114218095Y-57580952D02*
X115018095Y-57047618D01*
X114218095Y-57047618D02*
X115018095Y-57580952D01*
X109251166Y-57761428D02*
X109217833Y-57828095D01*
X109217833Y-57828095D02*
X109217833Y-57928095D01*
X109217833Y-57928095D02*
X109251166Y-58028095D01*
X109251166Y-58028095D02*
X109317833Y-58094762D01*
X109317833Y-58094762D02*
X109384500Y-58128095D01*
X109384500Y-58128095D02*
X109517833Y-58161428D01*
X109517833Y-58161428D02*
X109617833Y-58161428D01*
X109617833Y-58161428D02*
X109751166Y-58128095D01*
X109751166Y-58128095D02*
X109817833Y-58094762D01*
X109817833Y-58094762D02*
X109884500Y-58028095D01*
X109884500Y-58028095D02*
X109917833Y-57928095D01*
X109917833Y-57928095D02*
X109917833Y-57861428D01*
X109917833Y-57861428D02*
X109884500Y-57761428D01*
X109884500Y-57761428D02*
X109851166Y-57728095D01*
X109851166Y-57728095D02*
X109617833Y-57728095D01*
X109617833Y-57728095D02*
X109617833Y-57861428D01*
X109917833Y-57428095D02*
X109217833Y-57428095D01*
X109217833Y-57428095D02*
X109917833Y-57028095D01*
X109917833Y-57028095D02*
X109217833Y-57028095D01*
X109917833Y-56694762D02*
X109217833Y-56694762D01*
X109217833Y-56694762D02*
X109217833Y-56528095D01*
X109217833Y-56528095D02*
X109251166Y-56428095D01*
X109251166Y-56428095D02*
X109317833Y-56361429D01*
X109317833Y-56361429D02*
X109384500Y-56328095D01*
X109384500Y-56328095D02*
X109517833Y-56294762D01*
X109517833Y-56294762D02*
X109617833Y-56294762D01*
X109617833Y-56294762D02*
X109751166Y-56328095D01*
X109751166Y-56328095D02*
X109817833Y-56361429D01*
X109817833Y-56361429D02*
X109884500Y-56428095D01*
X109884500Y-56428095D02*
X109917833Y-56528095D01*
X109917833Y-56528095D02*
X109917833Y-56694762D01*
D12*
X105429523Y-31072095D02*
X104972380Y-31072095D01*
X105200952Y-31072095D02*
X105200952Y-30272095D01*
X105200952Y-30272095D02*
X105124761Y-30386380D01*
X105124761Y-30386380D02*
X105048571Y-30462571D01*
X105048571Y-30462571D02*
X104972380Y-30500666D01*
X105129523Y-48222095D02*
X104672380Y-48222095D01*
X104900952Y-48222095D02*
X104900952Y-47422095D01*
X104900952Y-47422095D02*
X104824761Y-47536380D01*
X104824761Y-47536380D02*
X104748571Y-47612571D01*
X104748571Y-47612571D02*
X104672380Y-47650666D01*
D14*
G36*
X121431554Y-33042715D02*
G01*
X121450140Y-33061300D01*
X121473095Y-33107209D01*
X121473095Y-33181363D01*
X121450142Y-33227268D01*
X121431553Y-33245856D01*
X121385648Y-33268810D01*
X121197208Y-33268810D01*
X121151302Y-33245856D01*
X121132713Y-33227267D01*
X121109761Y-33181363D01*
X121109761Y-33107209D01*
X121132714Y-33061303D01*
X121151303Y-33042713D01*
X121197207Y-33019762D01*
X121385648Y-33019762D01*
X121431554Y-33042715D01*
G37*
G36*
X122169786Y-36255595D02*
G01*
X118910214Y-36255595D01*
X118910214Y-34966416D01*
X119526790Y-34966416D01*
X119528381Y-34969900D01*
X119528156Y-34973728D01*
X119538644Y-34992375D01*
X119547526Y-35011822D01*
X119550748Y-35013893D01*
X119879743Y-35598771D01*
X119885752Y-35615523D01*
X119901571Y-35627679D01*
X119915860Y-35641612D01*
X119921094Y-35642682D01*
X119925332Y-35645938D01*
X119945214Y-35647611D01*
X119964764Y-35651608D01*
X119969747Y-35649677D01*
X119975073Y-35650126D01*
X119992710Y-35640781D01*
X120011310Y-35633576D01*
X120014457Y-35629259D01*
X120019181Y-35626757D01*
X120028965Y-35609362D01*
X120040719Y-35593243D01*
X120041033Y-35587908D01*
X120224466Y-35261805D01*
X120228391Y-35257276D01*
X120228863Y-35253987D01*
X120251269Y-35214155D01*
X120669733Y-35214155D01*
X120671778Y-35223558D01*
X120670409Y-35233083D01*
X120674406Y-35241836D01*
X120675093Y-35251434D01*
X120678966Y-35256609D01*
X120680342Y-35262931D01*
X120687148Y-35269737D01*
X120691145Y-35278489D01*
X120699240Y-35283691D01*
X120705006Y-35291394D01*
X120711064Y-35293653D01*
X120731789Y-35314378D01*
X120743102Y-35329491D01*
X120760789Y-35336087D01*
X120777358Y-35345135D01*
X120783811Y-35344673D01*
X120789872Y-35346934D01*
X120808316Y-35342921D01*
X120827147Y-35341575D01*
X120832326Y-35337698D01*
X120838647Y-35336323D01*
X120851995Y-35322974D01*
X120867107Y-35311662D01*
X120869367Y-35305601D01*
X120879048Y-35295920D01*
X120882179Y-35295001D01*
X120892538Y-35283044D01*
X120905203Y-35273565D01*
X120908565Y-35264549D01*
X120914867Y-35257277D01*
X120916236Y-35247751D01*
X120920848Y-35239306D01*
X120920402Y-35233083D01*
X120937075Y-35233083D01*
X120957811Y-35278489D01*
X120999803Y-35305476D01*
X121570315Y-35305476D01*
X121605989Y-35295001D01*
X121638677Y-35257277D01*
X121645781Y-35207869D01*
X121625045Y-35162463D01*
X121583053Y-35135476D01*
X121012541Y-35135476D01*
X120976867Y-35145951D01*
X120944179Y-35183675D01*
X120937075Y-35233083D01*
X120920402Y-35233083D01*
X120920386Y-35232855D01*
X120922647Y-35226795D01*
X120920601Y-35217392D01*
X120921971Y-35207869D01*
X120917973Y-35199115D01*
X120917287Y-35189517D01*
X120913411Y-35184340D01*
X120912037Y-35178020D01*
X120905231Y-35171214D01*
X120901235Y-35162463D01*
X120893138Y-35157259D01*
X120887373Y-35149558D01*
X120881315Y-35147298D01*
X120860589Y-35126572D01*
X120849279Y-35111463D01*
X120831591Y-35104866D01*
X120815021Y-35095818D01*
X120808569Y-35096279D01*
X120802509Y-35094019D01*
X120784058Y-35098032D01*
X120765232Y-35099379D01*
X120760055Y-35103253D01*
X120753734Y-35104629D01*
X120740381Y-35117981D01*
X120725272Y-35129292D01*
X120723012Y-35135350D01*
X120713331Y-35145031D01*
X120710201Y-35145951D01*
X120699841Y-35157906D01*
X120687178Y-35167386D01*
X120683814Y-35176402D01*
X120677513Y-35183675D01*
X120676143Y-35193199D01*
X120671532Y-35201645D01*
X120671993Y-35208095D01*
X120669733Y-35214155D01*
X120251269Y-35214155D01*
X120370059Y-35002972D01*
X120380772Y-34990610D01*
X120383814Y-34969446D01*
X120388625Y-34948602D01*
X120387330Y-34944994D01*
X120387876Y-34941202D01*
X120378992Y-34921750D01*
X120371771Y-34901618D01*
X120368732Y-34899283D01*
X120367140Y-34895796D01*
X120349144Y-34884230D01*
X120332191Y-34871203D01*
X120328372Y-34870881D01*
X120325148Y-34868809D01*
X120303757Y-34868809D01*
X120282450Y-34867015D01*
X120279064Y-34868809D01*
X120264704Y-34868809D01*
X120242413Y-34867435D01*
X120239955Y-34868809D01*
X119662130Y-34868809D01*
X119647121Y-34865389D01*
X119637669Y-34868809D01*
X119623069Y-34868809D01*
X119607045Y-34865534D01*
X119587110Y-34873256D01*
X119566582Y-34879284D01*
X119564071Y-34882180D01*
X119560499Y-34883565D01*
X119547900Y-34900843D01*
X119533894Y-34917008D01*
X119533348Y-34920801D01*
X119531090Y-34923899D01*
X119529832Y-34945255D01*
X119526790Y-34966416D01*
X118910214Y-34966416D01*
X118910214Y-34740929D01*
X120670907Y-34740929D01*
X120678676Y-34756468D01*
X120683570Y-34773133D01*
X120689638Y-34778391D01*
X120710480Y-34820075D01*
X120710364Y-34823376D01*
X120721537Y-34842188D01*
X120725629Y-34850372D01*
X120727754Y-34852657D01*
X120735854Y-34866294D01*
X120744427Y-34870580D01*
X120750952Y-34877595D01*
X120766312Y-34881523D01*
X120830274Y-34913503D01*
X120847422Y-34924524D01*
X120864796Y-34924524D01*
X120881889Y-34927600D01*
X120889306Y-34924524D01*
X120939761Y-34924524D01*
X120939761Y-34966030D01*
X120950236Y-35001704D01*
X120987960Y-35034392D01*
X121037368Y-35041496D01*
X121082774Y-35020760D01*
X121109761Y-34978768D01*
X121109761Y-34924524D01*
X121570315Y-34924524D01*
X121605989Y-34914049D01*
X121638677Y-34876325D01*
X121645781Y-34826917D01*
X121625045Y-34781511D01*
X121583053Y-34754524D01*
X121109761Y-34754524D01*
X121109761Y-34636828D01*
X121099286Y-34601154D01*
X121061562Y-34568466D01*
X121012154Y-34561362D01*
X120966748Y-34582098D01*
X120939761Y-34624090D01*
X120939761Y-34754524D01*
X120892446Y-34754524D01*
X120859545Y-34738073D01*
X120843095Y-34705174D01*
X120843095Y-34636828D01*
X120832620Y-34601154D01*
X120794896Y-34568466D01*
X120745488Y-34561362D01*
X120700082Y-34582098D01*
X120673095Y-34624090D01*
X120673095Y-34720667D01*
X120670907Y-34740929D01*
X118910214Y-34740929D01*
X118910214Y-33737963D01*
X119373564Y-33737963D01*
X119380977Y-33760204D01*
X119387570Y-33782655D01*
X119388823Y-33783741D01*
X119418106Y-33871590D01*
X119422438Y-33891503D01*
X119434722Y-33903787D01*
X119444635Y-33918050D01*
X119452054Y-33921119D01*
X119508740Y-33977805D01*
X119516044Y-33990102D01*
X119537003Y-34000581D01*
X119557549Y-34011800D01*
X119559204Y-34011681D01*
X119601015Y-34032587D01*
X119607742Y-34039741D01*
X119622906Y-34043532D01*
X119625488Y-34044823D01*
X119634701Y-34046481D01*
X119770766Y-34080497D01*
X119779994Y-34086428D01*
X119794487Y-34086428D01*
X119796191Y-34086854D01*
X119806672Y-34086428D01*
X119905251Y-34086428D01*
X119915641Y-34089943D01*
X119929701Y-34086428D01*
X119931458Y-34086428D01*
X119941527Y-34083471D01*
X120077546Y-34049465D01*
X120087309Y-34050520D01*
X120101287Y-34043530D01*
X120104090Y-34042830D01*
X120112171Y-34038088D01*
X120176290Y-34006028D01*
X120190265Y-34002989D01*
X120206841Y-33986413D01*
X120223975Y-33970475D01*
X120224385Y-33968868D01*
X120280868Y-33912386D01*
X120296746Y-33899603D01*
X120302239Y-33883120D01*
X120310563Y-33867878D01*
X120309990Y-33859869D01*
X120334791Y-33785464D01*
X120670409Y-33785464D01*
X120691145Y-33830870D01*
X120733137Y-33857857D01*
X120939761Y-33857857D01*
X120939761Y-33899363D01*
X120950236Y-33935037D01*
X120987960Y-33967725D01*
X121037368Y-33974829D01*
X121082774Y-33954093D01*
X121109761Y-33912101D01*
X121109761Y-33857857D01*
X121439237Y-33857857D01*
X121459499Y-33860045D01*
X121475039Y-33852274D01*
X121491703Y-33847382D01*
X121496960Y-33841314D01*
X121538647Y-33820471D01*
X121541947Y-33820588D01*
X121560750Y-33809420D01*
X121568943Y-33805324D01*
X121571231Y-33803195D01*
X121584865Y-33795098D01*
X121589150Y-33786526D01*
X121596166Y-33780001D01*
X121600094Y-33764638D01*
X121632074Y-33700677D01*
X121643095Y-33683530D01*
X121643095Y-33666156D01*
X121646171Y-33649063D01*
X121643095Y-33641646D01*
X121643095Y-33570161D01*
X121632620Y-33534487D01*
X121594896Y-33501799D01*
X121545488Y-33494695D01*
X121500082Y-33515431D01*
X121473095Y-33557423D01*
X121473095Y-33638506D01*
X121456645Y-33671406D01*
X121423743Y-33687857D01*
X121109761Y-33687857D01*
X121109761Y-33570161D01*
X121099286Y-33534487D01*
X121061562Y-33501799D01*
X121012154Y-33494695D01*
X120966748Y-33515431D01*
X120939761Y-33557423D01*
X120939761Y-33687857D01*
X120745875Y-33687857D01*
X120710201Y-33698332D01*
X120677513Y-33736056D01*
X120670409Y-33785464D01*
X120334791Y-33785464D01*
X120339362Y-33771750D01*
X120347095Y-33759719D01*
X120347095Y-33736279D01*
X120347941Y-33712891D01*
X120347095Y-33711464D01*
X120347095Y-33669227D01*
X120350626Y-33655368D01*
X120343212Y-33633127D01*
X120336620Y-33610676D01*
X120335366Y-33609589D01*
X120306083Y-33521741D01*
X120301752Y-33501829D01*
X120289467Y-33489544D01*
X120279555Y-33475282D01*
X120272135Y-33472212D01*
X120237367Y-33437444D01*
X120204735Y-33419626D01*
X120154946Y-33423187D01*
X120114986Y-33453100D01*
X120097542Y-33499870D01*
X120108152Y-33548645D01*
X120149707Y-33590200D01*
X120177095Y-33672364D01*
X120177095Y-33720968D01*
X120149708Y-33803130D01*
X120097457Y-33855379D01*
X120041951Y-33883133D01*
X119908775Y-33916428D01*
X119815418Y-33916428D01*
X119682237Y-33883132D01*
X119626730Y-33855379D01*
X119574483Y-33803132D01*
X119547095Y-33720967D01*
X119547095Y-33672364D01*
X119574482Y-33590199D01*
X119607030Y-33557651D01*
X119624848Y-33525019D01*
X119621287Y-33475230D01*
X119591373Y-33435271D01*
X119544603Y-33417827D01*
X119495828Y-33428438D01*
X119443322Y-33480944D01*
X119427444Y-33493728D01*
X119421949Y-33510210D01*
X119413626Y-33525455D01*
X119414198Y-33533463D01*
X119384827Y-33621580D01*
X119377095Y-33633612D01*
X119377095Y-33657051D01*
X119376249Y-33680439D01*
X119377095Y-33681866D01*
X119377095Y-33724104D01*
X119373564Y-33737963D01*
X118910214Y-33737963D01*
X118910214Y-33175939D01*
X119374409Y-33175939D01*
X119395145Y-33221345D01*
X119437137Y-33248332D01*
X120105142Y-33248332D01*
X120125404Y-33250520D01*
X120140943Y-33242750D01*
X120157608Y-33237857D01*
X120162866Y-33231788D01*
X120214383Y-33206029D01*
X120228359Y-33202990D01*
X120244937Y-33186411D01*
X120262070Y-33170475D01*
X120262480Y-33168868D01*
X120276568Y-33154781D01*
X120288865Y-33147478D01*
X120299345Y-33126516D01*
X120310563Y-33105974D01*
X120310444Y-33104318D01*
X120314277Y-33096652D01*
X120936685Y-33096652D01*
X120939761Y-33104068D01*
X120939761Y-33196854D01*
X120937573Y-33217120D01*
X120945343Y-33232659D01*
X120950236Y-33249323D01*
X120956304Y-33254581D01*
X120982065Y-33306101D01*
X120985105Y-33320075D01*
X121001682Y-33336652D01*
X121017619Y-33353785D01*
X121019225Y-33354195D01*
X121033313Y-33368284D01*
X121040615Y-33380578D01*
X121061569Y-33391055D01*
X121082121Y-33402277D01*
X121083774Y-33402158D01*
X121135041Y-33427792D01*
X121152184Y-33438810D01*
X121169557Y-33438810D01*
X121186650Y-33441886D01*
X121194067Y-33438810D01*
X121401139Y-33438810D01*
X121421405Y-33440998D01*
X121436944Y-33433227D01*
X121453608Y-33428335D01*
X121458866Y-33422266D01*
X121510384Y-33396506D01*
X121524359Y-33393467D01*
X121540937Y-33376888D01*
X121558070Y-33360952D01*
X121558480Y-33359345D01*
X121572568Y-33345258D01*
X121584865Y-33337955D01*
X121595346Y-33316991D01*
X121606563Y-33296451D01*
X121606444Y-33294795D01*
X121632074Y-33243534D01*
X121643095Y-33226387D01*
X121643095Y-33209013D01*
X121646171Y-33191920D01*
X121643095Y-33184503D01*
X121643095Y-33091716D01*
X121645283Y-33071454D01*
X121637513Y-33055914D01*
X121632620Y-33039249D01*
X121626552Y-33033991D01*
X121600790Y-32982466D01*
X121597751Y-32968495D01*
X121581195Y-32951940D01*
X121565239Y-32934786D01*
X121563630Y-32934374D01*
X121549542Y-32920287D01*
X121542240Y-32907992D01*
X121521288Y-32897516D01*
X121500734Y-32886293D01*
X121499078Y-32886411D01*
X121447819Y-32860782D01*
X121430672Y-32849762D01*
X121413298Y-32849762D01*
X121396205Y-32846686D01*
X121388788Y-32849762D01*
X121181714Y-32849762D01*
X121161452Y-32847574D01*
X121145912Y-32855343D01*
X121129248Y-32860237D01*
X121123989Y-32866305D01*
X121072470Y-32892065D01*
X121058496Y-32895105D01*
X121041922Y-32911678D01*
X121024786Y-32927619D01*
X121024375Y-32929225D01*
X121010287Y-32943313D01*
X120997992Y-32950616D01*
X120987509Y-32971581D01*
X120976294Y-32992121D01*
X120976412Y-32993775D01*
X120950779Y-33045040D01*
X120939761Y-33062185D01*
X120939761Y-33079559D01*
X120936685Y-33096652D01*
X120314277Y-33096652D01*
X120336075Y-33053055D01*
X120347095Y-33035909D01*
X120347095Y-33018534D01*
X120350171Y-33001441D01*
X120347095Y-32994025D01*
X120347095Y-32863142D01*
X120349283Y-32842880D01*
X120341513Y-32827340D01*
X120336620Y-32810676D01*
X120330551Y-32805417D01*
X120304791Y-32753896D01*
X120301751Y-32739923D01*
X120285181Y-32723353D01*
X120269238Y-32706214D01*
X120267630Y-32705802D01*
X120253543Y-32691715D01*
X120246241Y-32679421D01*
X120225291Y-32668945D01*
X120204734Y-32657721D01*
X120203078Y-32657839D01*
X120151817Y-32632208D01*
X120134672Y-32621189D01*
X120117299Y-32621189D01*
X120100206Y-32618113D01*
X120092789Y-32621189D01*
X119449875Y-32621189D01*
X119414201Y-32631664D01*
X119381513Y-32669388D01*
X119374409Y-32718796D01*
X119395145Y-32764202D01*
X119437137Y-32791189D01*
X120089648Y-32791189D01*
X120135555Y-32814144D01*
X120154141Y-32832729D01*
X120177095Y-32878635D01*
X120177095Y-32990886D01*
X120154142Y-33036791D01*
X120135554Y-33055378D01*
X120089649Y-33078332D01*
X119449875Y-33078332D01*
X119414201Y-33088807D01*
X119381513Y-33126531D01*
X119374409Y-33175939D01*
X118910214Y-33175939D01*
X118910214Y-32604511D01*
X120937075Y-32604511D01*
X120957811Y-32649917D01*
X120999803Y-32676904D01*
X121439237Y-32676904D01*
X121459499Y-32679092D01*
X121475039Y-32671321D01*
X121491703Y-32666429D01*
X121496960Y-32660361D01*
X121538647Y-32639518D01*
X121541947Y-32639635D01*
X121560750Y-32628467D01*
X121568943Y-32624371D01*
X121571231Y-32622242D01*
X121584865Y-32614145D01*
X121589150Y-32605573D01*
X121596166Y-32599048D01*
X121600094Y-32583685D01*
X121632074Y-32519724D01*
X121643095Y-32502577D01*
X121643095Y-32485203D01*
X121646171Y-32468110D01*
X121643095Y-32460693D01*
X121643095Y-32367906D01*
X121645283Y-32347644D01*
X121637513Y-32332104D01*
X121632620Y-32315439D01*
X121626552Y-32310181D01*
X121623273Y-32303624D01*
X121638677Y-32285848D01*
X121645781Y-32236440D01*
X121625045Y-32191034D01*
X121583053Y-32164047D01*
X121503598Y-32164047D01*
X121500734Y-32162483D01*
X121478873Y-32164047D01*
X121012541Y-32164047D01*
X120976867Y-32174522D01*
X120944179Y-32212246D01*
X120937075Y-32261654D01*
X120957811Y-32307060D01*
X120999803Y-32334047D01*
X121446697Y-32334047D01*
X121450140Y-32337490D01*
X121473095Y-32383399D01*
X121473095Y-32457553D01*
X121456645Y-32490453D01*
X121423743Y-32506904D01*
X121012541Y-32506904D01*
X120976867Y-32517379D01*
X120944179Y-32555103D01*
X120937075Y-32604511D01*
X118910214Y-32604511D01*
X118910214Y-32223559D01*
X119374409Y-32223559D01*
X119377095Y-32229441D01*
X119377095Y-32451743D01*
X119387570Y-32487417D01*
X119425294Y-32520105D01*
X119474702Y-32527209D01*
X119520108Y-32506473D01*
X119547095Y-32464481D01*
X119547095Y-32295952D01*
X120274315Y-32295952D01*
X120309989Y-32285477D01*
X120342677Y-32247753D01*
X120349781Y-32198345D01*
X120329045Y-32152939D01*
X120287053Y-32125952D01*
X119547095Y-32125952D01*
X119547095Y-31970160D01*
X119536620Y-31934486D01*
X119498896Y-31901798D01*
X119449488Y-31894694D01*
X119404082Y-31915430D01*
X119377095Y-31957422D01*
X119377095Y-32204878D01*
X119374409Y-32223559D01*
X118910214Y-32223559D01*
X118910214Y-31610937D01*
X120936685Y-31610937D01*
X120939761Y-31618353D01*
X120939761Y-31749234D01*
X120937573Y-31769500D01*
X120945343Y-31785039D01*
X120950236Y-31801703D01*
X120956304Y-31806961D01*
X120982065Y-31858481D01*
X120985105Y-31872455D01*
X121001682Y-31889032D01*
X121017619Y-31906165D01*
X121019225Y-31906575D01*
X121033313Y-31920664D01*
X121040615Y-31932958D01*
X121061569Y-31943435D01*
X121082121Y-31954657D01*
X121083774Y-31954538D01*
X121135041Y-31980172D01*
X121152184Y-31991190D01*
X121169557Y-31991190D01*
X121186650Y-31994266D01*
X121194067Y-31991190D01*
X121401139Y-31991190D01*
X121421405Y-31993378D01*
X121436944Y-31985607D01*
X121453608Y-31980715D01*
X121458866Y-31974646D01*
X121510384Y-31948886D01*
X121524359Y-31945847D01*
X121540937Y-31929268D01*
X121558070Y-31913332D01*
X121558480Y-31911725D01*
X121572568Y-31897638D01*
X121584865Y-31890335D01*
X121595346Y-31869371D01*
X121606563Y-31848831D01*
X121606444Y-31847175D01*
X121632074Y-31795914D01*
X121643095Y-31778767D01*
X121643095Y-31761393D01*
X121646171Y-31744300D01*
X121643095Y-31736883D01*
X121643095Y-31606001D01*
X121645283Y-31585739D01*
X121637513Y-31570199D01*
X121632620Y-31553534D01*
X121626552Y-31548276D01*
X121590562Y-31476294D01*
X121565239Y-31449071D01*
X121516879Y-31436704D01*
X121469510Y-31452446D01*
X121438171Y-31491299D01*
X121432812Y-31540927D01*
X121473095Y-31621494D01*
X121473095Y-31733743D01*
X121450142Y-31779648D01*
X121431553Y-31798236D01*
X121385648Y-31821190D01*
X121197208Y-31821190D01*
X121151302Y-31798236D01*
X121132713Y-31779647D01*
X121109761Y-31733743D01*
X121109761Y-31621494D01*
X121144348Y-31552321D01*
X121150933Y-31515729D01*
X121131810Y-31469621D01*
X121090796Y-31441171D01*
X121040910Y-31439411D01*
X120997992Y-31464901D01*
X120950779Y-31559325D01*
X120939761Y-31576470D01*
X120939761Y-31593844D01*
X120936685Y-31610937D01*
X118910214Y-31610937D01*
X118910214Y-31194987D01*
X120670409Y-31194987D01*
X120691145Y-31240393D01*
X120733137Y-31267380D01*
X121079258Y-31267380D01*
X121082121Y-31268943D01*
X121103974Y-31267380D01*
X121570315Y-31267380D01*
X121605989Y-31256905D01*
X121638677Y-31219181D01*
X121645781Y-31169773D01*
X121625045Y-31124367D01*
X121583053Y-31097380D01*
X121136160Y-31097380D01*
X121132713Y-31093933D01*
X121109761Y-31048029D01*
X121109761Y-30973875D01*
X121126212Y-30940973D01*
X121159112Y-30924523D01*
X121570315Y-30924523D01*
X121605989Y-30914048D01*
X121638677Y-30876324D01*
X121645781Y-30826916D01*
X121625045Y-30781510D01*
X121583053Y-30754523D01*
X121143619Y-30754523D01*
X121123357Y-30752335D01*
X121107817Y-30760104D01*
X121091153Y-30764998D01*
X121085894Y-30771066D01*
X121044210Y-30791908D01*
X121040910Y-30791792D01*
X121022097Y-30802965D01*
X121013914Y-30807057D01*
X121011628Y-30809182D01*
X120997992Y-30817282D01*
X120993705Y-30825855D01*
X120986691Y-30832380D01*
X120982763Y-30847739D01*
X120950779Y-30911706D01*
X120939761Y-30928851D01*
X120939761Y-30946225D01*
X120936685Y-30963318D01*
X120939761Y-30970734D01*
X120939761Y-31063520D01*
X120937573Y-31083786D01*
X120944370Y-31097380D01*
X120745875Y-31097380D01*
X120710201Y-31107855D01*
X120677513Y-31145579D01*
X120670409Y-31194987D01*
X118910214Y-31194987D01*
X118910214Y-31111395D01*
X119526041Y-31111395D01*
X119527335Y-31115003D01*
X119526790Y-31118796D01*
X119535673Y-31138249D01*
X119542895Y-31158380D01*
X119545933Y-31160714D01*
X119547526Y-31164202D01*
X119565521Y-31175767D01*
X119582475Y-31188795D01*
X119586293Y-31189116D01*
X119589518Y-31191189D01*
X119610909Y-31191189D01*
X119632216Y-31192983D01*
X119635602Y-31191189D01*
X119649962Y-31191189D01*
X119672253Y-31192563D01*
X119674711Y-31191189D01*
X120252536Y-31191189D01*
X120267545Y-31194609D01*
X120276998Y-31191189D01*
X120291594Y-31191189D01*
X120307621Y-31194465D01*
X120327561Y-31186740D01*
X120348084Y-31180714D01*
X120350594Y-31177817D01*
X120354167Y-31176433D01*
X120366767Y-31159152D01*
X120380772Y-31142990D01*
X120381317Y-31139197D01*
X120383576Y-31136100D01*
X120384833Y-31114742D01*
X120387876Y-31093582D01*
X120386284Y-31090097D01*
X120386510Y-31086270D01*
X120376021Y-31067622D01*
X120367140Y-31048176D01*
X120363917Y-31046104D01*
X120034923Y-30461226D01*
X120028914Y-30444475D01*
X120013096Y-30432320D01*
X119998807Y-30418386D01*
X119993570Y-30417315D01*
X119989334Y-30414060D01*
X119969447Y-30412385D01*
X119949902Y-30408391D01*
X119944920Y-30410320D01*
X119939593Y-30409872D01*
X119921953Y-30419217D01*
X119903356Y-30426422D01*
X119900208Y-30430738D01*
X119895485Y-30433241D01*
X119885698Y-30450638D01*
X119873947Y-30466756D01*
X119873632Y-30472088D01*
X119690198Y-30798193D01*
X119686275Y-30802722D01*
X119685802Y-30806009D01*
X119544604Y-31057027D01*
X119533894Y-31069388D01*
X119530851Y-31090549D01*
X119526041Y-31111395D01*
X118910214Y-31111395D01*
X118910214Y-29804404D01*
X122169786Y-29804404D01*
X122169786Y-36255595D01*
G37*
D16*
X108636667Y-39777666D02*
X108170000Y-39111000D01*
X107836667Y-39777666D02*
X107836667Y-38377666D01*
X107836667Y-38377666D02*
X108370000Y-38377666D01*
X108370000Y-38377666D02*
X108503334Y-38444333D01*
X108503334Y-38444333D02*
X108570000Y-38511000D01*
X108570000Y-38511000D02*
X108636667Y-38644333D01*
X108636667Y-38644333D02*
X108636667Y-38844333D01*
X108636667Y-38844333D02*
X108570000Y-38977666D01*
X108570000Y-38977666D02*
X108503334Y-39044333D01*
X108503334Y-39044333D02*
X108370000Y-39111000D01*
X108370000Y-39111000D02*
X107836667Y-39111000D01*
X109770000Y-39711000D02*
X109636667Y-39777666D01*
X109636667Y-39777666D02*
X109370000Y-39777666D01*
X109370000Y-39777666D02*
X109236667Y-39711000D01*
X109236667Y-39711000D02*
X109170000Y-39577666D01*
X109170000Y-39577666D02*
X109170000Y-39044333D01*
X109170000Y-39044333D02*
X109236667Y-38911000D01*
X109236667Y-38911000D02*
X109370000Y-38844333D01*
X109370000Y-38844333D02*
X109636667Y-38844333D01*
X109636667Y-38844333D02*
X109770000Y-38911000D01*
X109770000Y-38911000D02*
X109836667Y-39044333D01*
X109836667Y-39044333D02*
X109836667Y-39177666D01*
X109836667Y-39177666D02*
X109170000Y-39311000D01*
X110636667Y-39777666D02*
X110503334Y-39711000D01*
X110503334Y-39711000D02*
X110436667Y-39577666D01*
X110436667Y-39577666D02*
X110436667Y-38377666D01*
X112970000Y-39777666D02*
X112170000Y-39777666D01*
X112570000Y-39777666D02*
X112570000Y-38377666D01*
X112570000Y-38377666D02*
X112436667Y-38577666D01*
X112436667Y-38577666D02*
X112303334Y-38711000D01*
X112303334Y-38711000D02*
X112170000Y-38777666D01*
X113570000Y-39644333D02*
X113636667Y-39711000D01*
X113636667Y-39711000D02*
X113570000Y-39777666D01*
X113570000Y-39777666D02*
X113503333Y-39711000D01*
X113503333Y-39711000D02*
X113570000Y-39644333D01*
X113570000Y-39644333D02*
X113570000Y-39777666D01*
X114503334Y-38377666D02*
X114636667Y-38377666D01*
X114636667Y-38377666D02*
X114770000Y-38444333D01*
X114770000Y-38444333D02*
X114836667Y-38511000D01*
X114836667Y-38511000D02*
X114903334Y-38644333D01*
X114903334Y-38644333D02*
X114970000Y-38911000D01*
X114970000Y-38911000D02*
X114970000Y-39244333D01*
X114970000Y-39244333D02*
X114903334Y-39511000D01*
X114903334Y-39511000D02*
X114836667Y-39644333D01*
X114836667Y-39644333D02*
X114770000Y-39711000D01*
X114770000Y-39711000D02*
X114636667Y-39777666D01*
X114636667Y-39777666D02*
X114503334Y-39777666D01*
X114503334Y-39777666D02*
X114370000Y-39711000D01*
X114370000Y-39711000D02*
X114303334Y-39644333D01*
X114303334Y-39644333D02*
X114236667Y-39511000D01*
X114236667Y-39511000D02*
X114170000Y-39244333D01*
X114170000Y-39244333D02*
X114170000Y-38911000D01*
X114170000Y-38911000D02*
X114236667Y-38644333D01*
X114236667Y-38644333D02*
X114303334Y-38511000D01*
X114303334Y-38511000D02*
X114370000Y-38444333D01*
X114370000Y-38444333D02*
X114503334Y-38377666D01*
D10*
X93383897Y-46147505D02*
X93383897Y-46957028D01*
X93383897Y-46957028D02*
X93431516Y-47052266D01*
X93431516Y-47052266D02*
X93479135Y-47099886D01*
X93479135Y-47099886D02*
X93574373Y-47147505D01*
X93574373Y-47147505D02*
X93764849Y-47147505D01*
X93764849Y-47147505D02*
X93860087Y-47099886D01*
X93860087Y-47099886D02*
X93907706Y-47052266D01*
X93907706Y-47052266D02*
X93955325Y-46957028D01*
X93955325Y-46957028D02*
X93955325Y-46147505D01*
X94955325Y-47147505D02*
X94383897Y-47147505D01*
X94669611Y-47147505D02*
X94669611Y-46147505D01*
X94669611Y-46147505D02*
X94574373Y-46290362D01*
X94574373Y-46290362D02*
X94479135Y-46385600D01*
X94479135Y-46385600D02*
X94383897Y-46433219D01*
X94085802Y-57567505D02*
X94085802Y-57805600D01*
X93847707Y-57710362D02*
X94085802Y-57805600D01*
X94085802Y-57805600D02*
X94323897Y-57710362D01*
X93942945Y-57996076D02*
X94085802Y-57805600D01*
X94085802Y-57805600D02*
X94228659Y-57996076D01*
D12*
X82011667Y-42327595D02*
X81745000Y-41946642D01*
X81554524Y-42327595D02*
X81554524Y-41527595D01*
X81554524Y-41527595D02*
X81859286Y-41527595D01*
X81859286Y-41527595D02*
X81935476Y-41565690D01*
X81935476Y-41565690D02*
X81973571Y-41603785D01*
X81973571Y-41603785D02*
X82011667Y-41679976D01*
X82011667Y-41679976D02*
X82011667Y-41794261D01*
X82011667Y-41794261D02*
X81973571Y-41870452D01*
X81973571Y-41870452D02*
X81935476Y-41908547D01*
X81935476Y-41908547D02*
X81859286Y-41946642D01*
X81859286Y-41946642D02*
X81554524Y-41946642D01*
X82316428Y-41603785D02*
X82354524Y-41565690D01*
X82354524Y-41565690D02*
X82430714Y-41527595D01*
X82430714Y-41527595D02*
X82621190Y-41527595D01*
X82621190Y-41527595D02*
X82697381Y-41565690D01*
X82697381Y-41565690D02*
X82735476Y-41603785D01*
X82735476Y-41603785D02*
X82773571Y-41679976D01*
X82773571Y-41679976D02*
X82773571Y-41756166D01*
X82773571Y-41756166D02*
X82735476Y-41870452D01*
X82735476Y-41870452D02*
X82278333Y-42327595D01*
X82278333Y-42327595D02*
X82773571Y-42327595D01*
D10*
X98072261Y-39887857D02*
X97977023Y-39840238D01*
X97977023Y-39840238D02*
X97881785Y-39745000D01*
X97881785Y-39745000D02*
X97738928Y-39602142D01*
X97738928Y-39602142D02*
X97643690Y-39554523D01*
X97643690Y-39554523D02*
X97548452Y-39554523D01*
X97596071Y-39792619D02*
X97500833Y-39745000D01*
X97500833Y-39745000D02*
X97405595Y-39649761D01*
X97405595Y-39649761D02*
X97357976Y-39459285D01*
X97357976Y-39459285D02*
X97357976Y-39125952D01*
X97357976Y-39125952D02*
X97405595Y-38935476D01*
X97405595Y-38935476D02*
X97500833Y-38840238D01*
X97500833Y-38840238D02*
X97596071Y-38792619D01*
X97596071Y-38792619D02*
X97786547Y-38792619D01*
X97786547Y-38792619D02*
X97881785Y-38840238D01*
X97881785Y-38840238D02*
X97977023Y-38935476D01*
X97977023Y-38935476D02*
X98024642Y-39125952D01*
X98024642Y-39125952D02*
X98024642Y-39459285D01*
X98024642Y-39459285D02*
X97977023Y-39649761D01*
X97977023Y-39649761D02*
X97881785Y-39745000D01*
X97881785Y-39745000D02*
X97786547Y-39792619D01*
X97786547Y-39792619D02*
X97596071Y-39792619D01*
X98405595Y-38887857D02*
X98453214Y-38840238D01*
X98453214Y-38840238D02*
X98548452Y-38792619D01*
X98548452Y-38792619D02*
X98786547Y-38792619D01*
X98786547Y-38792619D02*
X98881785Y-38840238D01*
X98881785Y-38840238D02*
X98929404Y-38887857D01*
X98929404Y-38887857D02*
X98977023Y-38983095D01*
X98977023Y-38983095D02*
X98977023Y-39078333D01*
X98977023Y-39078333D02*
X98929404Y-39221190D01*
X98929404Y-39221190D02*
X98357976Y-39792619D01*
X98357976Y-39792619D02*
X98977023Y-39792619D01*
D12*
X75120095Y-44244285D02*
X74739142Y-44510952D01*
X75120095Y-44701428D02*
X74320095Y-44701428D01*
X74320095Y-44701428D02*
X74320095Y-44396666D01*
X74320095Y-44396666D02*
X74358190Y-44320476D01*
X74358190Y-44320476D02*
X74396285Y-44282381D01*
X74396285Y-44282381D02*
X74472476Y-44244285D01*
X74472476Y-44244285D02*
X74586761Y-44244285D01*
X74586761Y-44244285D02*
X74662952Y-44282381D01*
X74662952Y-44282381D02*
X74701047Y-44320476D01*
X74701047Y-44320476D02*
X74739142Y-44396666D01*
X74739142Y-44396666D02*
X74739142Y-44701428D01*
X75120095Y-43482381D02*
X75120095Y-43939524D01*
X75120095Y-43710952D02*
X74320095Y-43710952D01*
X74320095Y-43710952D02*
X74434380Y-43787143D01*
X74434380Y-43787143D02*
X74510571Y-43863333D01*
X74510571Y-43863333D02*
X74548666Y-43939524D01*
X74320095Y-43215714D02*
X74320095Y-42720476D01*
X74320095Y-42720476D02*
X74624857Y-42987142D01*
X74624857Y-42987142D02*
X74624857Y-42872857D01*
X74624857Y-42872857D02*
X74662952Y-42796666D01*
X74662952Y-42796666D02*
X74701047Y-42758571D01*
X74701047Y-42758571D02*
X74777238Y-42720476D01*
X74777238Y-42720476D02*
X74967714Y-42720476D01*
X74967714Y-42720476D02*
X75043904Y-42758571D01*
X75043904Y-42758571D02*
X75082000Y-42796666D01*
X75082000Y-42796666D02*
X75120095Y-42872857D01*
X75120095Y-42872857D02*
X75120095Y-43101428D01*
X75120095Y-43101428D02*
X75082000Y-43177619D01*
X75082000Y-43177619D02*
X75043904Y-43215714D01*
X86838095Y-43802619D02*
X87409523Y-43802619D01*
X87123809Y-44802619D02*
X87123809Y-43802619D01*
X87742857Y-44802619D02*
X87742857Y-43802619D01*
X87742857Y-43802619D02*
X88123809Y-43802619D01*
X88123809Y-43802619D02*
X88219047Y-43850238D01*
X88219047Y-43850238D02*
X88266666Y-43897857D01*
X88266666Y-43897857D02*
X88314285Y-43993095D01*
X88314285Y-43993095D02*
X88314285Y-44135952D01*
X88314285Y-44135952D02*
X88266666Y-44231190D01*
X88266666Y-44231190D02*
X88219047Y-44278809D01*
X88219047Y-44278809D02*
X88123809Y-44326428D01*
X88123809Y-44326428D02*
X87742857Y-44326428D01*
X89266666Y-44802619D02*
X88695238Y-44802619D01*
X88980952Y-44802619D02*
X88980952Y-43802619D01*
X88980952Y-43802619D02*
X88885714Y-43945476D01*
X88885714Y-43945476D02*
X88790476Y-44040714D01*
X88790476Y-44040714D02*
X88695238Y-44088333D01*
X79635714Y-50013904D02*
X79597618Y-50052000D01*
X79597618Y-50052000D02*
X79483333Y-50090095D01*
X79483333Y-50090095D02*
X79407142Y-50090095D01*
X79407142Y-50090095D02*
X79292856Y-50052000D01*
X79292856Y-50052000D02*
X79216666Y-49975809D01*
X79216666Y-49975809D02*
X79178571Y-49899619D01*
X79178571Y-49899619D02*
X79140475Y-49747238D01*
X79140475Y-49747238D02*
X79140475Y-49632952D01*
X79140475Y-49632952D02*
X79178571Y-49480571D01*
X79178571Y-49480571D02*
X79216666Y-49404380D01*
X79216666Y-49404380D02*
X79292856Y-49328190D01*
X79292856Y-49328190D02*
X79407142Y-49290095D01*
X79407142Y-49290095D02*
X79483333Y-49290095D01*
X79483333Y-49290095D02*
X79597618Y-49328190D01*
X79597618Y-49328190D02*
X79635714Y-49366285D01*
X80397618Y-50090095D02*
X79940475Y-50090095D01*
X80169047Y-50090095D02*
X80169047Y-49290095D01*
X80169047Y-49290095D02*
X80092856Y-49404380D01*
X80092856Y-49404380D02*
X80016666Y-49480571D01*
X80016666Y-49480571D02*
X79940475Y-49518666D01*
X80854761Y-49632952D02*
X80778571Y-49594857D01*
X80778571Y-49594857D02*
X80740476Y-49556761D01*
X80740476Y-49556761D02*
X80702380Y-49480571D01*
X80702380Y-49480571D02*
X80702380Y-49442476D01*
X80702380Y-49442476D02*
X80740476Y-49366285D01*
X80740476Y-49366285D02*
X80778571Y-49328190D01*
X80778571Y-49328190D02*
X80854761Y-49290095D01*
X80854761Y-49290095D02*
X81007142Y-49290095D01*
X81007142Y-49290095D02*
X81083333Y-49328190D01*
X81083333Y-49328190D02*
X81121428Y-49366285D01*
X81121428Y-49366285D02*
X81159523Y-49442476D01*
X81159523Y-49442476D02*
X81159523Y-49480571D01*
X81159523Y-49480571D02*
X81121428Y-49556761D01*
X81121428Y-49556761D02*
X81083333Y-49594857D01*
X81083333Y-49594857D02*
X81007142Y-49632952D01*
X81007142Y-49632952D02*
X80854761Y-49632952D01*
X80854761Y-49632952D02*
X80778571Y-49671047D01*
X80778571Y-49671047D02*
X80740476Y-49709142D01*
X80740476Y-49709142D02*
X80702380Y-49785333D01*
X80702380Y-49785333D02*
X80702380Y-49937714D01*
X80702380Y-49937714D02*
X80740476Y-50013904D01*
X80740476Y-50013904D02*
X80778571Y-50052000D01*
X80778571Y-50052000D02*
X80854761Y-50090095D01*
X80854761Y-50090095D02*
X81007142Y-50090095D01*
X81007142Y-50090095D02*
X81083333Y-50052000D01*
X81083333Y-50052000D02*
X81121428Y-50013904D01*
X81121428Y-50013904D02*
X81159523Y-49937714D01*
X81159523Y-49937714D02*
X81159523Y-49785333D01*
X81159523Y-49785333D02*
X81121428Y-49709142D01*
X81121428Y-49709142D02*
X81083333Y-49671047D01*
X81083333Y-49671047D02*
X81007142Y-49632952D01*
X112626667Y-38130095D02*
X112360000Y-37749142D01*
X112169524Y-38130095D02*
X112169524Y-37330095D01*
X112169524Y-37330095D02*
X112474286Y-37330095D01*
X112474286Y-37330095D02*
X112550476Y-37368190D01*
X112550476Y-37368190D02*
X112588571Y-37406285D01*
X112588571Y-37406285D02*
X112626667Y-37482476D01*
X112626667Y-37482476D02*
X112626667Y-37596761D01*
X112626667Y-37596761D02*
X112588571Y-37672952D01*
X112588571Y-37672952D02*
X112550476Y-37711047D01*
X112550476Y-37711047D02*
X112474286Y-37749142D01*
X112474286Y-37749142D02*
X112169524Y-37749142D01*
X113312381Y-37596761D02*
X113312381Y-38130095D01*
X113121905Y-37292000D02*
X112931428Y-37863428D01*
X112931428Y-37863428D02*
X113426667Y-37863428D01*
D10*
X80448095Y-44782619D02*
X80448095Y-45592142D01*
X80448095Y-45592142D02*
X80495714Y-45687380D01*
X80495714Y-45687380D02*
X80543333Y-45735000D01*
X80543333Y-45735000D02*
X80638571Y-45782619D01*
X80638571Y-45782619D02*
X80829047Y-45782619D01*
X80829047Y-45782619D02*
X80924285Y-45735000D01*
X80924285Y-45735000D02*
X80971904Y-45687380D01*
X80971904Y-45687380D02*
X81019523Y-45592142D01*
X81019523Y-45592142D02*
X81019523Y-44782619D01*
X81971904Y-44782619D02*
X81495714Y-44782619D01*
X81495714Y-44782619D02*
X81448095Y-45258809D01*
X81448095Y-45258809D02*
X81495714Y-45211190D01*
X81495714Y-45211190D02*
X81590952Y-45163571D01*
X81590952Y-45163571D02*
X81829047Y-45163571D01*
X81829047Y-45163571D02*
X81924285Y-45211190D01*
X81924285Y-45211190D02*
X81971904Y-45258809D01*
X81971904Y-45258809D02*
X82019523Y-45354047D01*
X82019523Y-45354047D02*
X82019523Y-45592142D01*
X82019523Y-45592142D02*
X81971904Y-45687380D01*
X81971904Y-45687380D02*
X81924285Y-45735000D01*
X81924285Y-45735000D02*
X81829047Y-45782619D01*
X81829047Y-45782619D02*
X81590952Y-45782619D01*
X81590952Y-45782619D02*
X81495714Y-45735000D01*
X81495714Y-45735000D02*
X81448095Y-45687380D01*
D12*
X95439524Y-30940095D02*
X95439524Y-30140095D01*
X95439524Y-30140095D02*
X95630000Y-30140095D01*
X95630000Y-30140095D02*
X95744286Y-30178190D01*
X95744286Y-30178190D02*
X95820476Y-30254380D01*
X95820476Y-30254380D02*
X95858571Y-30330571D01*
X95858571Y-30330571D02*
X95896667Y-30482952D01*
X95896667Y-30482952D02*
X95896667Y-30597238D01*
X95896667Y-30597238D02*
X95858571Y-30749619D01*
X95858571Y-30749619D02*
X95820476Y-30825809D01*
X95820476Y-30825809D02*
X95744286Y-30902000D01*
X95744286Y-30902000D02*
X95630000Y-30940095D01*
X95630000Y-30940095D02*
X95439524Y-30940095D01*
X96582381Y-30140095D02*
X96430000Y-30140095D01*
X96430000Y-30140095D02*
X96353809Y-30178190D01*
X96353809Y-30178190D02*
X96315714Y-30216285D01*
X96315714Y-30216285D02*
X96239524Y-30330571D01*
X96239524Y-30330571D02*
X96201428Y-30482952D01*
X96201428Y-30482952D02*
X96201428Y-30787714D01*
X96201428Y-30787714D02*
X96239524Y-30863904D01*
X96239524Y-30863904D02*
X96277619Y-30902000D01*
X96277619Y-30902000D02*
X96353809Y-30940095D01*
X96353809Y-30940095D02*
X96506190Y-30940095D01*
X96506190Y-30940095D02*
X96582381Y-30902000D01*
X96582381Y-30902000D02*
X96620476Y-30863904D01*
X96620476Y-30863904D02*
X96658571Y-30787714D01*
X96658571Y-30787714D02*
X96658571Y-30597238D01*
X96658571Y-30597238D02*
X96620476Y-30521047D01*
X96620476Y-30521047D02*
X96582381Y-30482952D01*
X96582381Y-30482952D02*
X96506190Y-30444857D01*
X96506190Y-30444857D02*
X96353809Y-30444857D01*
X96353809Y-30444857D02*
X96277619Y-30482952D01*
X96277619Y-30482952D02*
X96239524Y-30521047D01*
X96239524Y-30521047D02*
X96201428Y-30597238D01*
D10*
X83468095Y-30412619D02*
X83468095Y-31222142D01*
X83468095Y-31222142D02*
X83515714Y-31317380D01*
X83515714Y-31317380D02*
X83563333Y-31365000D01*
X83563333Y-31365000D02*
X83658571Y-31412619D01*
X83658571Y-31412619D02*
X83849047Y-31412619D01*
X83849047Y-31412619D02*
X83944285Y-31365000D01*
X83944285Y-31365000D02*
X83991904Y-31317380D01*
X83991904Y-31317380D02*
X84039523Y-31222142D01*
X84039523Y-31222142D02*
X84039523Y-30412619D01*
X84468095Y-30507857D02*
X84515714Y-30460238D01*
X84515714Y-30460238D02*
X84610952Y-30412619D01*
X84610952Y-30412619D02*
X84849047Y-30412619D01*
X84849047Y-30412619D02*
X84944285Y-30460238D01*
X84944285Y-30460238D02*
X84991904Y-30507857D01*
X84991904Y-30507857D02*
X85039523Y-30603095D01*
X85039523Y-30603095D02*
X85039523Y-30698333D01*
X85039523Y-30698333D02*
X84991904Y-30841190D01*
X84991904Y-30841190D02*
X84420476Y-31412619D01*
X84420476Y-31412619D02*
X85039523Y-31412619D01*
D12*
X84326667Y-44590095D02*
X84060000Y-44209142D01*
X83869524Y-44590095D02*
X83869524Y-43790095D01*
X83869524Y-43790095D02*
X84174286Y-43790095D01*
X84174286Y-43790095D02*
X84250476Y-43828190D01*
X84250476Y-43828190D02*
X84288571Y-43866285D01*
X84288571Y-43866285D02*
X84326667Y-43942476D01*
X84326667Y-43942476D02*
X84326667Y-44056761D01*
X84326667Y-44056761D02*
X84288571Y-44132952D01*
X84288571Y-44132952D02*
X84250476Y-44171047D01*
X84250476Y-44171047D02*
X84174286Y-44209142D01*
X84174286Y-44209142D02*
X83869524Y-44209142D01*
X84593333Y-43790095D02*
X85088571Y-43790095D01*
X85088571Y-43790095D02*
X84821905Y-44094857D01*
X84821905Y-44094857D02*
X84936190Y-44094857D01*
X84936190Y-44094857D02*
X85012381Y-44132952D01*
X85012381Y-44132952D02*
X85050476Y-44171047D01*
X85050476Y-44171047D02*
X85088571Y-44247238D01*
X85088571Y-44247238D02*
X85088571Y-44437714D01*
X85088571Y-44437714D02*
X85050476Y-44513904D01*
X85050476Y-44513904D02*
X85012381Y-44552000D01*
X85012381Y-44552000D02*
X84936190Y-44590095D01*
X84936190Y-44590095D02*
X84707619Y-44590095D01*
X84707619Y-44590095D02*
X84631428Y-44552000D01*
X84631428Y-44552000D02*
X84593333Y-44513904D01*
X89668095Y-32322619D02*
X89668095Y-33132142D01*
X89668095Y-33132142D02*
X89715714Y-33227380D01*
X89715714Y-33227380D02*
X89763333Y-33275000D01*
X89763333Y-33275000D02*
X89858571Y-33322619D01*
X89858571Y-33322619D02*
X90049047Y-33322619D01*
X90049047Y-33322619D02*
X90144285Y-33275000D01*
X90144285Y-33275000D02*
X90191904Y-33227380D01*
X90191904Y-33227380D02*
X90239523Y-33132142D01*
X90239523Y-33132142D02*
X90239523Y-32322619D01*
X91144285Y-32655952D02*
X91144285Y-33322619D01*
X90906190Y-32275000D02*
X90668095Y-32989285D01*
X90668095Y-32989285D02*
X91287142Y-32989285D01*
D10*
X91932619Y-33099999D02*
X92170714Y-33099999D01*
X92075476Y-33338094D02*
X92170714Y-33099999D01*
X92170714Y-33099999D02*
X92075476Y-32861904D01*
X92361190Y-33242856D02*
X92170714Y-33099999D01*
X92170714Y-33099999D02*
X92361190Y-32957142D01*
D12*
X93675714Y-43940095D02*
X93409047Y-43559142D01*
X93218571Y-43940095D02*
X93218571Y-43140095D01*
X93218571Y-43140095D02*
X93523333Y-43140095D01*
X93523333Y-43140095D02*
X93599523Y-43178190D01*
X93599523Y-43178190D02*
X93637618Y-43216285D01*
X93637618Y-43216285D02*
X93675714Y-43292476D01*
X93675714Y-43292476D02*
X93675714Y-43406761D01*
X93675714Y-43406761D02*
X93637618Y-43482952D01*
X93637618Y-43482952D02*
X93599523Y-43521047D01*
X93599523Y-43521047D02*
X93523333Y-43559142D01*
X93523333Y-43559142D02*
X93218571Y-43559142D01*
X94437618Y-43940095D02*
X93980475Y-43940095D01*
X94209047Y-43940095D02*
X94209047Y-43140095D01*
X94209047Y-43140095D02*
X94132856Y-43254380D01*
X94132856Y-43254380D02*
X94056666Y-43330571D01*
X94056666Y-43330571D02*
X93980475Y-43368666D01*
X94932857Y-43140095D02*
X95009047Y-43140095D01*
X95009047Y-43140095D02*
X95085238Y-43178190D01*
X95085238Y-43178190D02*
X95123333Y-43216285D01*
X95123333Y-43216285D02*
X95161428Y-43292476D01*
X95161428Y-43292476D02*
X95199523Y-43444857D01*
X95199523Y-43444857D02*
X95199523Y-43635333D01*
X95199523Y-43635333D02*
X95161428Y-43787714D01*
X95161428Y-43787714D02*
X95123333Y-43863904D01*
X95123333Y-43863904D02*
X95085238Y-43902000D01*
X95085238Y-43902000D02*
X95009047Y-43940095D01*
X95009047Y-43940095D02*
X94932857Y-43940095D01*
X94932857Y-43940095D02*
X94856666Y-43902000D01*
X94856666Y-43902000D02*
X94818571Y-43863904D01*
X94818571Y-43863904D02*
X94780476Y-43787714D01*
X94780476Y-43787714D02*
X94742380Y-43635333D01*
X94742380Y-43635333D02*
X94742380Y-43444857D01*
X94742380Y-43444857D02*
X94780476Y-43292476D01*
X94780476Y-43292476D02*
X94818571Y-43216285D01*
X94818571Y-43216285D02*
X94856666Y-43178190D01*
X94856666Y-43178190D02*
X94932857Y-43140095D01*
D10*
X74194761Y-50597857D02*
X74099523Y-50550238D01*
X74099523Y-50550238D02*
X74004285Y-50455000D01*
X74004285Y-50455000D02*
X73861428Y-50312142D01*
X73861428Y-50312142D02*
X73766190Y-50264523D01*
X73766190Y-50264523D02*
X73670952Y-50264523D01*
X73718571Y-50502619D02*
X73623333Y-50455000D01*
X73623333Y-50455000D02*
X73528095Y-50359761D01*
X73528095Y-50359761D02*
X73480476Y-50169285D01*
X73480476Y-50169285D02*
X73480476Y-49835952D01*
X73480476Y-49835952D02*
X73528095Y-49645476D01*
X73528095Y-49645476D02*
X73623333Y-49550238D01*
X73623333Y-49550238D02*
X73718571Y-49502619D01*
X73718571Y-49502619D02*
X73909047Y-49502619D01*
X73909047Y-49502619D02*
X74004285Y-49550238D01*
X74004285Y-49550238D02*
X74099523Y-49645476D01*
X74099523Y-49645476D02*
X74147142Y-49835952D01*
X74147142Y-49835952D02*
X74147142Y-50169285D01*
X74147142Y-50169285D02*
X74099523Y-50359761D01*
X74099523Y-50359761D02*
X74004285Y-50455000D01*
X74004285Y-50455000D02*
X73909047Y-50502619D01*
X73909047Y-50502619D02*
X73718571Y-50502619D01*
X75004285Y-49835952D02*
X75004285Y-50502619D01*
X74766190Y-49455000D02*
X74528095Y-50169285D01*
X74528095Y-50169285D02*
X75147142Y-50169285D01*
D17*
X82442619Y-57543333D02*
X83156904Y-57543333D01*
X83156904Y-57543333D02*
X83299761Y-57590952D01*
X83299761Y-57590952D02*
X83395000Y-57686190D01*
X83395000Y-57686190D02*
X83442619Y-57829047D01*
X83442619Y-57829047D02*
X83442619Y-57924285D01*
X82442619Y-57162380D02*
X82442619Y-56543333D01*
X82442619Y-56543333D02*
X82823571Y-56876666D01*
X82823571Y-56876666D02*
X82823571Y-56733809D01*
X82823571Y-56733809D02*
X82871190Y-56638571D01*
X82871190Y-56638571D02*
X82918809Y-56590952D01*
X82918809Y-56590952D02*
X83014047Y-56543333D01*
X83014047Y-56543333D02*
X83252142Y-56543333D01*
X83252142Y-56543333D02*
X83347380Y-56590952D01*
X83347380Y-56590952D02*
X83395000Y-56638571D01*
X83395000Y-56638571D02*
X83442619Y-56733809D01*
X83442619Y-56733809D02*
X83442619Y-57019523D01*
X83442619Y-57019523D02*
X83395000Y-57114761D01*
X83395000Y-57114761D02*
X83347380Y-57162380D01*
D10*
X101933333Y-43572619D02*
X101600000Y-43096428D01*
X101361905Y-43572619D02*
X101361905Y-42572619D01*
X101361905Y-42572619D02*
X101742857Y-42572619D01*
X101742857Y-42572619D02*
X101838095Y-42620238D01*
X101838095Y-42620238D02*
X101885714Y-42667857D01*
X101885714Y-42667857D02*
X101933333Y-42763095D01*
X101933333Y-42763095D02*
X101933333Y-42905952D01*
X101933333Y-42905952D02*
X101885714Y-43001190D01*
X101885714Y-43001190D02*
X101838095Y-43048809D01*
X101838095Y-43048809D02*
X101742857Y-43096428D01*
X101742857Y-43096428D02*
X101361905Y-43096428D01*
X102409524Y-43572619D02*
X102600000Y-43572619D01*
X102600000Y-43572619D02*
X102695238Y-43525000D01*
X102695238Y-43525000D02*
X102742857Y-43477380D01*
X102742857Y-43477380D02*
X102838095Y-43334523D01*
X102838095Y-43334523D02*
X102885714Y-43144047D01*
X102885714Y-43144047D02*
X102885714Y-42763095D01*
X102885714Y-42763095D02*
X102838095Y-42667857D01*
X102838095Y-42667857D02*
X102790476Y-42620238D01*
X102790476Y-42620238D02*
X102695238Y-42572619D01*
X102695238Y-42572619D02*
X102504762Y-42572619D01*
X102504762Y-42572619D02*
X102409524Y-42620238D01*
X102409524Y-42620238D02*
X102361905Y-42667857D01*
X102361905Y-42667857D02*
X102314286Y-42763095D01*
X102314286Y-42763095D02*
X102314286Y-43001190D01*
X102314286Y-43001190D02*
X102361905Y-43096428D01*
X102361905Y-43096428D02*
X102409524Y-43144047D01*
X102409524Y-43144047D02*
X102504762Y-43191666D01*
X102504762Y-43191666D02*
X102695238Y-43191666D01*
X102695238Y-43191666D02*
X102790476Y-43144047D01*
X102790476Y-43144047D02*
X102838095Y-43096428D01*
X102838095Y-43096428D02*
X102885714Y-43001190D01*
D12*
X121230095Y-60556666D02*
X121801523Y-60556666D01*
X121801523Y-60556666D02*
X121915809Y-60594761D01*
X121915809Y-60594761D02*
X121992000Y-60670952D01*
X121992000Y-60670952D02*
X122030095Y-60785237D01*
X122030095Y-60785237D02*
X122030095Y-60861428D01*
X121230095Y-59832856D02*
X121230095Y-59985237D01*
X121230095Y-59985237D02*
X121268190Y-60061428D01*
X121268190Y-60061428D02*
X121306285Y-60099523D01*
X121306285Y-60099523D02*
X121420571Y-60175713D01*
X121420571Y-60175713D02*
X121572952Y-60213809D01*
X121572952Y-60213809D02*
X121877714Y-60213809D01*
X121877714Y-60213809D02*
X121953904Y-60175713D01*
X121953904Y-60175713D02*
X121992000Y-60137618D01*
X121992000Y-60137618D02*
X122030095Y-60061428D01*
X122030095Y-60061428D02*
X122030095Y-59909047D01*
X122030095Y-59909047D02*
X121992000Y-59832856D01*
X121992000Y-59832856D02*
X121953904Y-59794761D01*
X121953904Y-59794761D02*
X121877714Y-59756666D01*
X121877714Y-59756666D02*
X121687238Y-59756666D01*
X121687238Y-59756666D02*
X121611047Y-59794761D01*
X121611047Y-59794761D02*
X121572952Y-59832856D01*
X121572952Y-59832856D02*
X121534857Y-59909047D01*
X121534857Y-59909047D02*
X121534857Y-60061428D01*
X121534857Y-60061428D02*
X121572952Y-60137618D01*
X121572952Y-60137618D02*
X121611047Y-60175713D01*
X121611047Y-60175713D02*
X121687238Y-60213809D01*
X77533214Y-40813904D02*
X77495118Y-40852000D01*
X77495118Y-40852000D02*
X77380833Y-40890095D01*
X77380833Y-40890095D02*
X77304642Y-40890095D01*
X77304642Y-40890095D02*
X77190356Y-40852000D01*
X77190356Y-40852000D02*
X77114166Y-40775809D01*
X77114166Y-40775809D02*
X77076071Y-40699619D01*
X77076071Y-40699619D02*
X77037975Y-40547238D01*
X77037975Y-40547238D02*
X77037975Y-40432952D01*
X77037975Y-40432952D02*
X77076071Y-40280571D01*
X77076071Y-40280571D02*
X77114166Y-40204380D01*
X77114166Y-40204380D02*
X77190356Y-40128190D01*
X77190356Y-40128190D02*
X77304642Y-40090095D01*
X77304642Y-40090095D02*
X77380833Y-40090095D01*
X77380833Y-40090095D02*
X77495118Y-40128190D01*
X77495118Y-40128190D02*
X77533214Y-40166285D01*
X78295118Y-40890095D02*
X77837975Y-40890095D01*
X78066547Y-40890095D02*
X78066547Y-40090095D01*
X78066547Y-40090095D02*
X77990356Y-40204380D01*
X77990356Y-40204380D02*
X77914166Y-40280571D01*
X77914166Y-40280571D02*
X77837975Y-40318666D01*
X78676071Y-40890095D02*
X78828452Y-40890095D01*
X78828452Y-40890095D02*
X78904642Y-40852000D01*
X78904642Y-40852000D02*
X78942738Y-40813904D01*
X78942738Y-40813904D02*
X79018928Y-40699619D01*
X79018928Y-40699619D02*
X79057023Y-40547238D01*
X79057023Y-40547238D02*
X79057023Y-40242476D01*
X79057023Y-40242476D02*
X79018928Y-40166285D01*
X79018928Y-40166285D02*
X78980833Y-40128190D01*
X78980833Y-40128190D02*
X78904642Y-40090095D01*
X78904642Y-40090095D02*
X78752261Y-40090095D01*
X78752261Y-40090095D02*
X78676071Y-40128190D01*
X78676071Y-40128190D02*
X78637976Y-40166285D01*
X78637976Y-40166285D02*
X78599880Y-40242476D01*
X78599880Y-40242476D02*
X78599880Y-40432952D01*
X78599880Y-40432952D02*
X78637976Y-40509142D01*
X78637976Y-40509142D02*
X78676071Y-40547238D01*
X78676071Y-40547238D02*
X78752261Y-40585333D01*
X78752261Y-40585333D02*
X78904642Y-40585333D01*
X78904642Y-40585333D02*
X78980833Y-40547238D01*
X78980833Y-40547238D02*
X79018928Y-40509142D01*
X79018928Y-40509142D02*
X79057023Y-40432952D01*
X93966667Y-39630095D02*
X93700000Y-39249142D01*
X93509524Y-39630095D02*
X93509524Y-38830095D01*
X93509524Y-38830095D02*
X93814286Y-38830095D01*
X93814286Y-38830095D02*
X93890476Y-38868190D01*
X93890476Y-38868190D02*
X93928571Y-38906285D01*
X93928571Y-38906285D02*
X93966667Y-38982476D01*
X93966667Y-38982476D02*
X93966667Y-39096761D01*
X93966667Y-39096761D02*
X93928571Y-39172952D01*
X93928571Y-39172952D02*
X93890476Y-39211047D01*
X93890476Y-39211047D02*
X93814286Y-39249142D01*
X93814286Y-39249142D02*
X93509524Y-39249142D01*
X94233333Y-38830095D02*
X94766667Y-38830095D01*
X94766667Y-38830095D02*
X94423809Y-39630095D01*
X110965714Y-54413904D02*
X110927618Y-54452000D01*
X110927618Y-54452000D02*
X110813333Y-54490095D01*
X110813333Y-54490095D02*
X110737142Y-54490095D01*
X110737142Y-54490095D02*
X110622856Y-54452000D01*
X110622856Y-54452000D02*
X110546666Y-54375809D01*
X110546666Y-54375809D02*
X110508571Y-54299619D01*
X110508571Y-54299619D02*
X110470475Y-54147238D01*
X110470475Y-54147238D02*
X110470475Y-54032952D01*
X110470475Y-54032952D02*
X110508571Y-53880571D01*
X110508571Y-53880571D02*
X110546666Y-53804380D01*
X110546666Y-53804380D02*
X110622856Y-53728190D01*
X110622856Y-53728190D02*
X110737142Y-53690095D01*
X110737142Y-53690095D02*
X110813333Y-53690095D01*
X110813333Y-53690095D02*
X110927618Y-53728190D01*
X110927618Y-53728190D02*
X110965714Y-53766285D01*
X111727618Y-54490095D02*
X111270475Y-54490095D01*
X111499047Y-54490095D02*
X111499047Y-53690095D01*
X111499047Y-53690095D02*
X111422856Y-53804380D01*
X111422856Y-53804380D02*
X111346666Y-53880571D01*
X111346666Y-53880571D02*
X111270475Y-53918666D01*
X112413333Y-53690095D02*
X112260952Y-53690095D01*
X112260952Y-53690095D02*
X112184761Y-53728190D01*
X112184761Y-53728190D02*
X112146666Y-53766285D01*
X112146666Y-53766285D02*
X112070476Y-53880571D01*
X112070476Y-53880571D02*
X112032380Y-54032952D01*
X112032380Y-54032952D02*
X112032380Y-54337714D01*
X112032380Y-54337714D02*
X112070476Y-54413904D01*
X112070476Y-54413904D02*
X112108571Y-54452000D01*
X112108571Y-54452000D02*
X112184761Y-54490095D01*
X112184761Y-54490095D02*
X112337142Y-54490095D01*
X112337142Y-54490095D02*
X112413333Y-54452000D01*
X112413333Y-54452000D02*
X112451428Y-54413904D01*
X112451428Y-54413904D02*
X112489523Y-54337714D01*
X112489523Y-54337714D02*
X112489523Y-54147238D01*
X112489523Y-54147238D02*
X112451428Y-54071047D01*
X112451428Y-54071047D02*
X112413333Y-54032952D01*
X112413333Y-54032952D02*
X112337142Y-53994857D01*
X112337142Y-53994857D02*
X112184761Y-53994857D01*
X112184761Y-53994857D02*
X112108571Y-54032952D01*
X112108571Y-54032952D02*
X112070476Y-54071047D01*
X112070476Y-54071047D02*
X112032380Y-54147238D01*
D10*
X98126666Y-33362619D02*
X98126666Y-34076904D01*
X98126666Y-34076904D02*
X98079047Y-34219761D01*
X98079047Y-34219761D02*
X97983809Y-34315000D01*
X97983809Y-34315000D02*
X97840952Y-34362619D01*
X97840952Y-34362619D02*
X97745714Y-34362619D01*
X98602857Y-34362619D02*
X98602857Y-33362619D01*
X98602857Y-33362619D02*
X98983809Y-33362619D01*
X98983809Y-33362619D02*
X99079047Y-33410238D01*
X99079047Y-33410238D02*
X99126666Y-33457857D01*
X99126666Y-33457857D02*
X99174285Y-33553095D01*
X99174285Y-33553095D02*
X99174285Y-33695952D01*
X99174285Y-33695952D02*
X99126666Y-33791190D01*
X99126666Y-33791190D02*
X99079047Y-33838809D01*
X99079047Y-33838809D02*
X98983809Y-33886428D01*
X98983809Y-33886428D02*
X98602857Y-33886428D01*
X100126666Y-34362619D02*
X99555238Y-34362619D01*
X99840952Y-34362619D02*
X99840952Y-33362619D01*
X99840952Y-33362619D02*
X99745714Y-33505476D01*
X99745714Y-33505476D02*
X99650476Y-33600714D01*
X99650476Y-33600714D02*
X99555238Y-33648333D01*
D12*
X116586357Y-32659999D02*
X117229214Y-32659999D01*
X117229214Y-32659999D02*
X117357785Y-32702856D01*
X117357785Y-32702856D02*
X117443500Y-32788570D01*
X117443500Y-32788570D02*
X117486357Y-32917142D01*
X117486357Y-32917142D02*
X117486357Y-33002856D01*
X116672071Y-32274285D02*
X116629214Y-32231428D01*
X116629214Y-32231428D02*
X116586357Y-32145714D01*
X116586357Y-32145714D02*
X116586357Y-31931428D01*
X116586357Y-31931428D02*
X116629214Y-31845714D01*
X116629214Y-31845714D02*
X116672071Y-31802856D01*
X116672071Y-31802856D02*
X116757785Y-31759999D01*
X116757785Y-31759999D02*
X116843500Y-31759999D01*
X116843500Y-31759999D02*
X116972071Y-31802856D01*
X116972071Y-31802856D02*
X117486357Y-32317142D01*
X117486357Y-32317142D02*
X117486357Y-31759999D01*
D10*
X108181619Y-32329999D02*
X108419714Y-32329999D01*
X108324476Y-32568094D02*
X108419714Y-32329999D01*
X108419714Y-32329999D02*
X108324476Y-32091904D01*
X108610190Y-32472856D02*
X108419714Y-32329999D01*
X108419714Y-32329999D02*
X108610190Y-32187142D01*
D12*
X102626667Y-40230095D02*
X102360000Y-39849142D01*
X102169524Y-40230095D02*
X102169524Y-39430095D01*
X102169524Y-39430095D02*
X102474286Y-39430095D01*
X102474286Y-39430095D02*
X102550476Y-39468190D01*
X102550476Y-39468190D02*
X102588571Y-39506285D01*
X102588571Y-39506285D02*
X102626667Y-39582476D01*
X102626667Y-39582476D02*
X102626667Y-39696761D01*
X102626667Y-39696761D02*
X102588571Y-39772952D01*
X102588571Y-39772952D02*
X102550476Y-39811047D01*
X102550476Y-39811047D02*
X102474286Y-39849142D01*
X102474286Y-39849142D02*
X102169524Y-39849142D01*
X103312381Y-39430095D02*
X103160000Y-39430095D01*
X103160000Y-39430095D02*
X103083809Y-39468190D01*
X103083809Y-39468190D02*
X103045714Y-39506285D01*
X103045714Y-39506285D02*
X102969524Y-39620571D01*
X102969524Y-39620571D02*
X102931428Y-39772952D01*
X102931428Y-39772952D02*
X102931428Y-40077714D01*
X102931428Y-40077714D02*
X102969524Y-40153904D01*
X102969524Y-40153904D02*
X103007619Y-40192000D01*
X103007619Y-40192000D02*
X103083809Y-40230095D01*
X103083809Y-40230095D02*
X103236190Y-40230095D01*
X103236190Y-40230095D02*
X103312381Y-40192000D01*
X103312381Y-40192000D02*
X103350476Y-40153904D01*
X103350476Y-40153904D02*
X103388571Y-40077714D01*
X103388571Y-40077714D02*
X103388571Y-39887238D01*
X103388571Y-39887238D02*
X103350476Y-39811047D01*
X103350476Y-39811047D02*
X103312381Y-39772952D01*
X103312381Y-39772952D02*
X103236190Y-39734857D01*
X103236190Y-39734857D02*
X103083809Y-39734857D01*
X103083809Y-39734857D02*
X103007619Y-39772952D01*
X103007619Y-39772952D02*
X102969524Y-39811047D01*
X102969524Y-39811047D02*
X102931428Y-39887238D01*
X119356357Y-46190000D02*
X119999214Y-46190000D01*
X119999214Y-46190000D02*
X120127785Y-46232857D01*
X120127785Y-46232857D02*
X120213500Y-46318571D01*
X120213500Y-46318571D02*
X120256357Y-46447143D01*
X120256357Y-46447143D02*
X120256357Y-46532857D01*
X120256357Y-45290000D02*
X120256357Y-45804286D01*
X120256357Y-45547143D02*
X119356357Y-45547143D01*
X119356357Y-45547143D02*
X119484928Y-45632857D01*
X119484928Y-45632857D02*
X119570642Y-45718572D01*
X119570642Y-45718572D02*
X119613500Y-45804286D01*
X94495714Y-36310095D02*
X94229047Y-35929142D01*
X94038571Y-36310095D02*
X94038571Y-35510095D01*
X94038571Y-35510095D02*
X94343333Y-35510095D01*
X94343333Y-35510095D02*
X94419523Y-35548190D01*
X94419523Y-35548190D02*
X94457618Y-35586285D01*
X94457618Y-35586285D02*
X94495714Y-35662476D01*
X94495714Y-35662476D02*
X94495714Y-35776761D01*
X94495714Y-35776761D02*
X94457618Y-35852952D01*
X94457618Y-35852952D02*
X94419523Y-35891047D01*
X94419523Y-35891047D02*
X94343333Y-35929142D01*
X94343333Y-35929142D02*
X94038571Y-35929142D01*
X95257618Y-36310095D02*
X94800475Y-36310095D01*
X95029047Y-36310095D02*
X95029047Y-35510095D01*
X95029047Y-35510095D02*
X94952856Y-35624380D01*
X94952856Y-35624380D02*
X94876666Y-35700571D01*
X94876666Y-35700571D02*
X94800475Y-35738666D01*
X96019523Y-36310095D02*
X95562380Y-36310095D01*
X95790952Y-36310095D02*
X95790952Y-35510095D01*
X95790952Y-35510095D02*
X95714761Y-35624380D01*
X95714761Y-35624380D02*
X95638571Y-35700571D01*
X95638571Y-35700571D02*
X95562380Y-35738666D01*
X92195714Y-31060095D02*
X91929047Y-30679142D01*
X91738571Y-31060095D02*
X91738571Y-30260095D01*
X91738571Y-30260095D02*
X92043333Y-30260095D01*
X92043333Y-30260095D02*
X92119523Y-30298190D01*
X92119523Y-30298190D02*
X92157618Y-30336285D01*
X92157618Y-30336285D02*
X92195714Y-30412476D01*
X92195714Y-30412476D02*
X92195714Y-30526761D01*
X92195714Y-30526761D02*
X92157618Y-30602952D01*
X92157618Y-30602952D02*
X92119523Y-30641047D01*
X92119523Y-30641047D02*
X92043333Y-30679142D01*
X92043333Y-30679142D02*
X91738571Y-30679142D01*
X92957618Y-31060095D02*
X92500475Y-31060095D01*
X92729047Y-31060095D02*
X92729047Y-30260095D01*
X92729047Y-30260095D02*
X92652856Y-30374380D01*
X92652856Y-30374380D02*
X92576666Y-30450571D01*
X92576666Y-30450571D02*
X92500475Y-30488666D01*
X93262380Y-30336285D02*
X93300476Y-30298190D01*
X93300476Y-30298190D02*
X93376666Y-30260095D01*
X93376666Y-30260095D02*
X93567142Y-30260095D01*
X93567142Y-30260095D02*
X93643333Y-30298190D01*
X93643333Y-30298190D02*
X93681428Y-30336285D01*
X93681428Y-30336285D02*
X93719523Y-30412476D01*
X93719523Y-30412476D02*
X93719523Y-30488666D01*
X93719523Y-30488666D02*
X93681428Y-30602952D01*
X93681428Y-30602952D02*
X93224285Y-31060095D01*
X93224285Y-31060095D02*
X93719523Y-31060095D01*
X106736667Y-37750095D02*
X106470000Y-37369142D01*
X106279524Y-37750095D02*
X106279524Y-36950095D01*
X106279524Y-36950095D02*
X106584286Y-36950095D01*
X106584286Y-36950095D02*
X106660476Y-36988190D01*
X106660476Y-36988190D02*
X106698571Y-37026285D01*
X106698571Y-37026285D02*
X106736667Y-37102476D01*
X106736667Y-37102476D02*
X106736667Y-37216761D01*
X106736667Y-37216761D02*
X106698571Y-37292952D01*
X106698571Y-37292952D02*
X106660476Y-37331047D01*
X106660476Y-37331047D02*
X106584286Y-37369142D01*
X106584286Y-37369142D02*
X106279524Y-37369142D01*
X107460476Y-36950095D02*
X107079524Y-36950095D01*
X107079524Y-36950095D02*
X107041428Y-37331047D01*
X107041428Y-37331047D02*
X107079524Y-37292952D01*
X107079524Y-37292952D02*
X107155714Y-37254857D01*
X107155714Y-37254857D02*
X107346190Y-37254857D01*
X107346190Y-37254857D02*
X107422381Y-37292952D01*
X107422381Y-37292952D02*
X107460476Y-37331047D01*
X107460476Y-37331047D02*
X107498571Y-37407238D01*
X107498571Y-37407238D02*
X107498571Y-37597714D01*
X107498571Y-37597714D02*
X107460476Y-37673904D01*
X107460476Y-37673904D02*
X107422381Y-37712000D01*
X107422381Y-37712000D02*
X107346190Y-37750095D01*
X107346190Y-37750095D02*
X107155714Y-37750095D01*
X107155714Y-37750095D02*
X107079524Y-37712000D01*
X107079524Y-37712000D02*
X107041428Y-37673904D01*
D10*
X76096666Y-33822619D02*
X76096666Y-34536904D01*
X76096666Y-34536904D02*
X76049047Y-34679761D01*
X76049047Y-34679761D02*
X75953809Y-34775000D01*
X75953809Y-34775000D02*
X75810952Y-34822619D01*
X75810952Y-34822619D02*
X75715714Y-34822619D01*
X77001428Y-34155952D02*
X77001428Y-34822619D01*
X76763333Y-33775000D02*
X76525238Y-34489285D01*
X76525238Y-34489285D02*
X77144285Y-34489285D01*
X90054761Y-39537857D02*
X89959523Y-39490238D01*
X89959523Y-39490238D02*
X89864285Y-39395000D01*
X89864285Y-39395000D02*
X89721428Y-39252142D01*
X89721428Y-39252142D02*
X89626190Y-39204523D01*
X89626190Y-39204523D02*
X89530952Y-39204523D01*
X89578571Y-39442619D02*
X89483333Y-39395000D01*
X89483333Y-39395000D02*
X89388095Y-39299761D01*
X89388095Y-39299761D02*
X89340476Y-39109285D01*
X89340476Y-39109285D02*
X89340476Y-38775952D01*
X89340476Y-38775952D02*
X89388095Y-38585476D01*
X89388095Y-38585476D02*
X89483333Y-38490238D01*
X89483333Y-38490238D02*
X89578571Y-38442619D01*
X89578571Y-38442619D02*
X89769047Y-38442619D01*
X89769047Y-38442619D02*
X89864285Y-38490238D01*
X89864285Y-38490238D02*
X89959523Y-38585476D01*
X89959523Y-38585476D02*
X90007142Y-38775952D01*
X90007142Y-38775952D02*
X90007142Y-39109285D01*
X90007142Y-39109285D02*
X89959523Y-39299761D01*
X89959523Y-39299761D02*
X89864285Y-39395000D01*
X89864285Y-39395000D02*
X89769047Y-39442619D01*
X89769047Y-39442619D02*
X89578571Y-39442619D01*
X90340476Y-38442619D02*
X90959523Y-38442619D01*
X90959523Y-38442619D02*
X90626190Y-38823571D01*
X90626190Y-38823571D02*
X90769047Y-38823571D01*
X90769047Y-38823571D02*
X90864285Y-38871190D01*
X90864285Y-38871190D02*
X90911904Y-38918809D01*
X90911904Y-38918809D02*
X90959523Y-39014047D01*
X90959523Y-39014047D02*
X90959523Y-39252142D01*
X90959523Y-39252142D02*
X90911904Y-39347380D01*
X90911904Y-39347380D02*
X90864285Y-39395000D01*
X90864285Y-39395000D02*
X90769047Y-39442619D01*
X90769047Y-39442619D02*
X90483333Y-39442619D01*
X90483333Y-39442619D02*
X90388095Y-39395000D01*
X90388095Y-39395000D02*
X90340476Y-39347380D01*
D12*
X80651667Y-38787595D02*
X80385000Y-38406642D01*
X80194524Y-38787595D02*
X80194524Y-37987595D01*
X80194524Y-37987595D02*
X80499286Y-37987595D01*
X80499286Y-37987595D02*
X80575476Y-38025690D01*
X80575476Y-38025690D02*
X80613571Y-38063785D01*
X80613571Y-38063785D02*
X80651667Y-38139976D01*
X80651667Y-38139976D02*
X80651667Y-38254261D01*
X80651667Y-38254261D02*
X80613571Y-38330452D01*
X80613571Y-38330452D02*
X80575476Y-38368547D01*
X80575476Y-38368547D02*
X80499286Y-38406642D01*
X80499286Y-38406642D02*
X80194524Y-38406642D01*
X81413571Y-38787595D02*
X80956428Y-38787595D01*
X81185000Y-38787595D02*
X81185000Y-37987595D01*
X81185000Y-37987595D02*
X81108809Y-38101880D01*
X81108809Y-38101880D02*
X81032619Y-38178071D01*
X81032619Y-38178071D02*
X80956428Y-38216166D01*
X76619524Y-51650095D02*
X76619524Y-50850095D01*
X76619524Y-50850095D02*
X76810000Y-50850095D01*
X76810000Y-50850095D02*
X76924286Y-50888190D01*
X76924286Y-50888190D02*
X77000476Y-50964380D01*
X77000476Y-50964380D02*
X77038571Y-51040571D01*
X77038571Y-51040571D02*
X77076667Y-51192952D01*
X77076667Y-51192952D02*
X77076667Y-51307238D01*
X77076667Y-51307238D02*
X77038571Y-51459619D01*
X77038571Y-51459619D02*
X77000476Y-51535809D01*
X77000476Y-51535809D02*
X76924286Y-51612000D01*
X76924286Y-51612000D02*
X76810000Y-51650095D01*
X76810000Y-51650095D02*
X76619524Y-51650095D01*
X77800476Y-50850095D02*
X77419524Y-50850095D01*
X77419524Y-50850095D02*
X77381428Y-51231047D01*
X77381428Y-51231047D02*
X77419524Y-51192952D01*
X77419524Y-51192952D02*
X77495714Y-51154857D01*
X77495714Y-51154857D02*
X77686190Y-51154857D01*
X77686190Y-51154857D02*
X77762381Y-51192952D01*
X77762381Y-51192952D02*
X77800476Y-51231047D01*
X77800476Y-51231047D02*
X77838571Y-51307238D01*
X77838571Y-51307238D02*
X77838571Y-51497714D01*
X77838571Y-51497714D02*
X77800476Y-51573904D01*
X77800476Y-51573904D02*
X77762381Y-51612000D01*
X77762381Y-51612000D02*
X77686190Y-51650095D01*
X77686190Y-51650095D02*
X77495714Y-51650095D01*
X77495714Y-51650095D02*
X77419524Y-51612000D01*
X77419524Y-51612000D02*
X77381428Y-51573904D01*
D18*
X103217102Y-47982986D02*
X84954502Y-47982986D01*
X105376102Y-61009973D02*
G75*
G03*
X105376102Y-61009973I-381000J0D01*
G01*
X81467742Y-42555000D02*
X81942258Y-42555000D01*
X81467742Y-43600000D02*
X81942258Y-43600000D01*
X98167500Y-40170000D02*
X96492500Y-40170000D01*
X98167500Y-40170000D02*
X98817500Y-40170000D01*
X98167500Y-43290000D02*
X97517500Y-43290000D01*
X98167500Y-43290000D02*
X98817500Y-43290000D01*
X73842500Y-43492742D02*
X73842500Y-43967258D01*
X72797500Y-43492742D02*
X72797500Y-43967258D01*
X91220000Y-44860000D02*
X89820000Y-44860000D01*
X91220000Y-43460000D02*
X91220000Y-44860000D01*
X89820000Y-44860000D02*
X89820000Y-43460000D01*
X89820000Y-43460000D02*
X91220000Y-43460000D01*
X79788748Y-47335000D02*
X80311252Y-47335000D01*
X79788748Y-48805000D02*
X80311252Y-48805000D01*
X112467742Y-35537500D02*
X112942258Y-35537500D01*
X112467742Y-36582500D02*
X112942258Y-36582500D01*
X78160000Y-46650000D02*
X79835000Y-46650000D01*
X78160000Y-46650000D02*
X77510000Y-46650000D01*
X78160000Y-43530000D02*
X78810000Y-43530000D01*
X78160000Y-43530000D02*
X77510000Y-43530000D01*
X97000000Y-31117500D02*
X95080000Y-31117500D01*
X95080000Y-31117500D02*
X95080000Y-33802500D01*
X97000000Y-33802500D02*
X97000000Y-31117500D01*
X87050000Y-35550000D02*
X87050000Y-32100000D01*
X87050000Y-35550000D02*
X87050000Y-37500000D01*
X81930000Y-35550000D02*
X81930000Y-33600000D01*
X81930000Y-35550000D02*
X81930000Y-37500000D01*
X84222742Y-45127500D02*
X84697258Y-45127500D01*
X84222742Y-46172500D02*
X84697258Y-46172500D01*
X89561700Y-34630500D02*
X89561700Y-36611700D01*
X92838300Y-36611700D02*
X92838300Y-34630500D01*
X94337258Y-42922500D02*
X93862742Y-42922500D01*
X94337258Y-41877500D02*
X93862742Y-41877500D01*
X72720000Y-47322500D02*
X72720000Y-48997500D01*
X72720000Y-47322500D02*
X72720000Y-46672500D01*
X75840000Y-47322500D02*
X75840000Y-47972500D01*
X75840000Y-47322500D02*
X75840000Y-46672500D01*
X74800000Y-61825000D02*
X72900000Y-61825000D01*
X78700000Y-61825000D02*
X76700000Y-61825000D01*
X72900000Y-52425000D02*
X72900000Y-61825000D01*
X74800000Y-52425000D02*
X72900000Y-52425000D01*
X78700000Y-52425000D02*
X76700000Y-52425000D01*
X102337258Y-42202500D02*
X101862742Y-42202500D01*
X102337258Y-41157500D02*
X101862742Y-41157500D01*
X108300000Y-58920000D02*
X121060000Y-58920000D01*
X105700000Y-58920000D02*
X107030000Y-58920000D01*
X105700000Y-60250000D02*
X105700000Y-58920000D01*
X121060000Y-61580000D02*
X121060000Y-58920000D01*
X108300000Y-61580000D02*
X108300000Y-58920000D01*
X108300000Y-61580000D02*
X121060000Y-61580000D01*
X77806248Y-41385000D02*
X78328752Y-41385000D01*
X77806248Y-42855000D02*
X78328752Y-42855000D01*
X94337258Y-41082500D02*
X93862742Y-41082500D01*
X94337258Y-40037500D02*
X93862742Y-40037500D01*
X113060000Y-52660000D02*
X113060000Y-55680000D01*
X113060000Y-55680000D02*
X117270000Y-55680000D01*
X117270000Y-52660000D02*
X113060000Y-52660000D01*
X99660000Y-36700000D02*
G75*
G03*
X100360000Y-36000000I0J700000D01*
G01*
X100360000Y-35400000D02*
G75*
G03*
X99660000Y-34700000I-700000J0D01*
G01*
X97560000Y-36000000D02*
G75*
G03*
X98260000Y-36700000I699999J-1D01*
G01*
X98260000Y-34700000D02*
G75*
G03*
X97560000Y-35400000I-1J-699999D01*
G01*
X100360000Y-35400000D02*
X100360000Y-36000000D01*
X99660000Y-36700000D02*
X98260000Y-36700000D01*
X98260000Y-34700000D02*
X99660000Y-34700000D01*
X97560000Y-36000000D02*
X97560000Y-35400000D01*
X106687000Y-34958900D02*
X106687000Y-29701100D01*
X109404152Y-34958900D02*
X106687000Y-34958900D01*
X110751000Y-30501086D02*
X110751000Y-34158914D01*
X106687000Y-29701100D02*
X109404152Y-29701100D01*
X102502742Y-37697500D02*
X102977258Y-37697500D01*
X102502742Y-38742500D02*
X102977258Y-38742500D01*
D11*
X109290000Y-50650000D02*
X114290000Y-50650000D01*
X114290000Y-50650000D02*
X114290000Y-41350000D01*
X109290000Y-48600000D02*
X109290000Y-50650000D01*
D19*
X107790000Y-48250000D02*
X107790000Y-48250000D01*
X107890000Y-48250000D02*
X107890000Y-48250000D01*
D11*
X109290000Y-41350000D02*
X109290000Y-43400000D01*
X114290000Y-41350000D02*
X109290000Y-41350000D01*
D19*
X107890000Y-48250000D02*
G75*
G03*
X107790000Y-48250000I-50000J0D01*
G01*
X107790000Y-48250000D02*
G75*
G03*
X107890000Y-48250000I50000J0D01*
G01*
D18*
X95227064Y-38065000D02*
X94772936Y-38065000D01*
X95227064Y-36595000D02*
X94772936Y-36595000D01*
X93017258Y-32432500D02*
X92542742Y-32432500D01*
X93017258Y-31387500D02*
X92542742Y-31387500D01*
X105722500Y-37347742D02*
X105722500Y-37822258D01*
X104677500Y-37347742D02*
X104677500Y-37822258D01*
X77125000Y-35110000D02*
X73775000Y-35110000D01*
X73775000Y-35110000D02*
X73775000Y-36160000D01*
X78295000Y-36530000D02*
X78295000Y-36180000D01*
X77795000Y-36930000D02*
X78295000Y-36530000D01*
X72731447Y-37670000D02*
X72731447Y-38170000D01*
X77795000Y-37710000D02*
X77795000Y-36930000D01*
X73085000Y-37920000D02*
X72731447Y-37670000D01*
X78295000Y-38110000D02*
X77795000Y-37710000D01*
X72731447Y-38170000D02*
X73085000Y-37920000D01*
X78295000Y-38460000D02*
X78295000Y-38110000D01*
X73775000Y-38480000D02*
X73585000Y-38480000D01*
X77125000Y-39530000D02*
X73775000Y-39530000D01*
X73775000Y-39530000D02*
X73775000Y-38480000D01*
X90342500Y-42950000D02*
X92017500Y-42950000D01*
X90342500Y-42950000D02*
X89692500Y-42950000D01*
X90342500Y-39830000D02*
X90992500Y-39830000D01*
X90342500Y-39830000D02*
X89692500Y-39830000D01*
X80172500Y-40849758D02*
X80172500Y-40375242D01*
X81217500Y-40849758D02*
X81217500Y-40375242D01*
X78020000Y-47930000D02*
X76320000Y-47930000D01*
X78020000Y-47930000D02*
X78020000Y-50590000D01*
X76320000Y-47930000D02*
X76320000Y-50590000D01*
%LPC*%
D20*
X102835802Y-61009973D03*
X102835802Y-59509973D03*
X102835802Y-58009971D03*
X102835802Y-56509972D03*
X102835802Y-55009972D03*
X102835802Y-53509973D03*
X102835802Y-52009973D03*
X102835802Y-50509971D03*
X102835802Y-49009971D03*
X85335802Y-49009971D03*
X85335802Y-50509971D03*
X85335802Y-52009973D03*
X85335802Y-53509973D03*
X85335802Y-55009972D03*
X85335802Y-56509972D03*
X85335802Y-58009971D03*
X85335802Y-59509973D03*
X85335802Y-61009973D03*
D21*
X94230000Y-55909996D03*
X93130000Y-55909996D03*
X92030000Y-55909996D03*
X94230102Y-54809998D03*
X93130102Y-54809998D03*
X92030101Y-54809998D03*
X94230000Y-53710000D03*
X93130000Y-53710000D03*
X92030000Y-53710000D03*
D22*
X80880000Y-43077500D03*
X82530000Y-43077500D03*
D23*
X97230000Y-40780000D03*
X97230000Y-42680000D03*
X99105000Y-41730000D03*
D24*
X73320000Y-42905000D03*
X73320000Y-44555000D03*
D25*
X90520000Y-44160000D03*
D26*
X79100000Y-48070000D03*
X81000000Y-48070000D03*
D22*
X111880000Y-36060000D03*
X113530000Y-36060000D03*
D27*
X79097500Y-46040000D03*
X79097500Y-44140000D03*
X77222500Y-45090000D03*
D28*
X96040000Y-31865000D03*
X96040000Y-33740000D03*
D29*
X86395000Y-33075000D03*
X85125000Y-33075000D03*
X83855000Y-33075000D03*
X82585000Y-33075000D03*
X82585000Y-38025000D03*
X83855000Y-38025000D03*
X85125000Y-38025000D03*
X86395000Y-38025000D03*
D22*
X83635000Y-45650000D03*
X85285000Y-45650000D03*
D30*
X92150001Y-34262200D03*
X91200000Y-34262200D03*
X90249999Y-34262200D03*
X90249999Y-36980000D03*
X91200000Y-36980000D03*
X92150001Y-36980000D03*
D31*
X94925000Y-42400000D03*
X93275000Y-42400000D03*
D32*
X73330000Y-48260000D03*
X75230000Y-48260000D03*
X74280000Y-46385000D03*
D33*
X75750000Y-61445000D03*
D34*
X79930000Y-61445000D03*
D33*
X75750000Y-52805000D03*
D34*
X79930000Y-52805000D03*
D35*
X80845000Y-53875000D03*
X80845000Y-54675000D03*
D36*
X80845000Y-55375000D03*
X80845000Y-56375000D03*
X80845000Y-57875000D03*
X80845000Y-58875000D03*
D35*
X80845000Y-59575000D03*
X80845000Y-60375000D03*
X80845000Y-60375000D03*
X80845000Y-59575000D03*
D36*
X80845000Y-58375000D03*
X80845000Y-57375000D03*
X80845000Y-56875000D03*
X80845000Y-55875000D03*
D35*
X80845000Y-54675000D03*
X80845000Y-53875000D03*
D37*
X79400000Y-60015000D03*
X79400000Y-54235000D03*
D31*
X102925000Y-41680000D03*
X101275000Y-41680000D03*
D38*
X119730000Y-60250000D03*
X117190000Y-60250000D03*
X114650000Y-60250000D03*
X112110000Y-60250000D03*
X109570000Y-60250000D03*
D39*
X107030000Y-60250000D03*
D40*
X74400000Y-32000000D03*
D26*
X77117500Y-42120000D03*
X79017500Y-42120000D03*
D31*
X94925000Y-40560000D03*
X93275000Y-40560000D03*
D41*
X113982500Y-54170000D03*
X117057500Y-54170000D03*
D42*
X99610000Y-35700000D03*
D43*
X98310000Y-35700000D03*
D44*
X107580000Y-31080000D03*
X107580000Y-31579999D03*
X107580000Y-32080001D03*
X107580000Y-32580000D03*
X107580000Y-33080001D03*
X107580000Y-33580000D03*
D45*
X110093122Y-34580001D03*
X110093122Y-30079999D03*
D22*
X101915000Y-38220000D03*
X103565000Y-38220000D03*
D46*
X108815000Y-48250000D03*
X108815000Y-47750000D03*
X108815000Y-47250000D03*
X108815000Y-46750000D03*
X108815000Y-46250000D03*
X108815000Y-45750000D03*
X108815000Y-45250000D03*
X108815000Y-44750000D03*
X108815000Y-44250000D03*
X108815000Y-43750000D03*
D47*
X111990000Y-49950000D03*
X111990000Y-42050000D03*
D48*
X95912500Y-37330000D03*
X94087500Y-37330000D03*
D31*
X93605000Y-31910000D03*
X91955000Y-31910000D03*
D24*
X105200000Y-36760000D03*
X105200000Y-38410000D03*
D49*
X77785000Y-35570000D03*
X77785000Y-39070000D03*
D50*
X74010000Y-36720000D03*
X74010000Y-37920000D03*
D27*
X91280000Y-42340000D03*
X91280000Y-40440000D03*
X89405000Y-41390000D03*
D51*
X80695000Y-41437500D03*
X80695000Y-39787500D03*
D52*
X77170000Y-48490000D03*
X77170000Y-50590000D03*
D40*
X99400000Y-32000000D03*
M02*
