G04 #@! TF.GenerationSoftware,KiCad,Pcbnew,7.0.1-3b83917a11~172~ubuntu22.04.1*
G04 #@! TF.CreationDate,2023-04-24T23:34:59+02:00*
G04 #@! TF.ProjectId,sharp-lcd-128x128,73686172-702d-46c6-9364-2d3132387831,rev?*
G04 #@! TF.SameCoordinates,Original*
G04 #@! TF.FileFunction,Paste,Top*
G04 #@! TF.FilePolarity,Positive*
%FSLAX46Y46*%
G04 Gerber Fmt 4.6, Leading zero omitted, Abs format (unit mm)*
G04 Created by KiCad (PCBNEW 7.0.1-3b83917a11~172~ubuntu22.04.1) date 2023-04-24 23:34:59*
%MOMM*%
%LPD*%
G01*
G04 APERTURE LIST*
G04 Aperture macros list*
%AMRoundRect*
0 Rectangle with rounded corners*
0 $1 Rounding radius*
0 $2 $3 $4 $5 $6 $7 $8 $9 X,Y pos of 4 corners*
0 Add a 4 corners polygon primitive as box body*
4,1,4,$2,$3,$4,$5,$6,$7,$8,$9,$2,$3,0*
0 Add four circle primitives for the rounded corners*
1,1,$1+$1,$2,$3*
1,1,$1+$1,$4,$5*
1,1,$1+$1,$6,$7*
1,1,$1+$1,$8,$9*
0 Add four rect primitives between the rounded corners*
20,1,$1+$1,$2,$3,$4,$5,0*
20,1,$1+$1,$4,$5,$6,$7,0*
20,1,$1+$1,$6,$7,$8,$9,0*
20,1,$1+$1,$8,$9,$2,$3,0*%
G04 Aperture macros list end*
%ADD10RoundRect,0.200000X-0.200000X-0.275000X0.200000X-0.275000X0.200000X0.275000X-0.200000X0.275000X0*%
%ADD11R,0.812800X0.406400*%
%ADD12R,0.406400X0.812800*%
%ADD13R,1.447800X1.447800*%
%ADD14R,0.711200X0.711200*%
%ADD15RoundRect,0.150000X-0.587500X-0.150000X0.587500X-0.150000X0.587500X0.150000X-0.587500X0.150000X0*%
%ADD16RoundRect,0.200000X-0.275000X0.200000X-0.275000X-0.200000X0.275000X-0.200000X0.275000X0.200000X0*%
%ADD17RoundRect,0.250000X-0.250000X-0.475000X0.250000X-0.475000X0.250000X0.475000X-0.250000X0.475000X0*%
%ADD18RoundRect,0.150000X0.587500X0.150000X-0.587500X0.150000X-0.587500X-0.150000X0.587500X-0.150000X0*%
%ADD19RoundRect,0.243750X-0.456250X0.243750X-0.456250X-0.243750X0.456250X-0.243750X0.456250X0.243750X0*%
%ADD20RoundRect,0.150000X-0.150000X0.825000X-0.150000X-0.825000X0.150000X-0.825000X0.150000X0.825000X0*%
%ADD21R,0.558800X0.990600*%
%ADD22RoundRect,0.200000X0.200000X0.275000X-0.200000X0.275000X-0.200000X-0.275000X0.200000X-0.275000X0*%
%ADD23RoundRect,0.150000X0.150000X-0.587500X0.150000X0.587500X-0.150000X0.587500X-0.150000X-0.587500X0*%
%ADD24R,1.450000X0.600000*%
%ADD25R,1.450000X0.300000*%
%ADD26RoundRect,0.225000X-0.225000X-0.375000X0.225000X-0.375000X0.225000X0.375000X-0.225000X0.375000X0*%
%ADD27RoundRect,0.250000X-0.412500X-0.925000X0.412500X-0.925000X0.412500X0.925000X-0.412500X0.925000X0*%
%ADD28R,0.812800X0.304800*%
%ADD29R,0.850000X0.300000*%
%ADD30R,2.000000X0.800000*%
%ADD31RoundRect,0.250000X0.262500X0.450000X-0.262500X0.450000X-0.262500X-0.450000X0.262500X-0.450000X0*%
%ADD32RoundRect,0.150000X0.275000X-0.150000X0.275000X0.150000X-0.275000X0.150000X-0.275000X-0.150000X0*%
%ADD33RoundRect,0.175000X0.225000X-0.175000X0.225000X0.175000X-0.225000X0.175000X-0.225000X-0.175000X0*%
%ADD34RoundRect,0.200000X0.275000X-0.200000X0.275000X0.200000X-0.275000X0.200000X-0.275000X-0.200000X0*%
G04 APERTURE END LIST*
D10*
X80645000Y-43180000D03*
X82295000Y-43180000D03*
D11*
X99259998Y-55264900D03*
X99259998Y-54464899D03*
X99259998Y-53664900D03*
X99259998Y-52864899D03*
X99259998Y-52064901D03*
X99259998Y-51264900D03*
X99259998Y-50464899D03*
X99259998Y-49664901D03*
X99259998Y-48864900D03*
X99259998Y-48064901D03*
X99259998Y-47264900D03*
D12*
X98160001Y-46364900D03*
X97360000Y-46364900D03*
X96559999Y-46364900D03*
X95760000Y-46364900D03*
X94959999Y-46364900D03*
X94160001Y-46364900D03*
X93360000Y-46364900D03*
X92559999Y-46364900D03*
X91760001Y-46364900D03*
X90960000Y-46364900D03*
X90160001Y-46364900D03*
X89360000Y-46364900D03*
X88560002Y-46364900D03*
D11*
X87460002Y-47264900D03*
X87460002Y-48064901D03*
X87460002Y-48864900D03*
X87460002Y-49664901D03*
X87460002Y-50464899D03*
X87460002Y-51264900D03*
X87460002Y-52064901D03*
X87460002Y-52864899D03*
X87460002Y-53664900D03*
X87460002Y-54464899D03*
X87460002Y-55264900D03*
D12*
X88559999Y-56164900D03*
X89360000Y-56164900D03*
X90160001Y-56164900D03*
X90960000Y-56164900D03*
X91760001Y-56164900D03*
X92559999Y-56164900D03*
X93360000Y-56164900D03*
X94160001Y-56164900D03*
X94959999Y-56164900D03*
X95760000Y-56164900D03*
X96559999Y-56164900D03*
X97360000Y-56164900D03*
X98159998Y-56164900D03*
D13*
X93360000Y-51264900D03*
D14*
X87410000Y-56214900D03*
X87410000Y-46314900D03*
X99310000Y-46314900D03*
X99310000Y-56214900D03*
D13*
X91385000Y-53239900D03*
X91385000Y-51264900D03*
X91385000Y-49289900D03*
X93360000Y-49289900D03*
X95335000Y-49289900D03*
X95335000Y-51264900D03*
X95335000Y-53239900D03*
X93360000Y-53239900D03*
D15*
X97230000Y-40780000D03*
X97230000Y-42680000D03*
X99105000Y-41730000D03*
D16*
X73320000Y-42905000D03*
X73320000Y-44555000D03*
D17*
X78690000Y-48170000D03*
X80590000Y-48170000D03*
D10*
X111830000Y-35050000D03*
X113480000Y-35050000D03*
D18*
X78860000Y-46170000D03*
X78860000Y-44270000D03*
X76985000Y-45220000D03*
D19*
X96040000Y-31865000D03*
X96040000Y-33740000D03*
D20*
X86395000Y-33075000D03*
X85125000Y-33075000D03*
X83855000Y-33075000D03*
X82585000Y-33075000D03*
X82585000Y-38025000D03*
X83855000Y-38025000D03*
X85125000Y-38025000D03*
X86395000Y-38025000D03*
D21*
X92150001Y-34262200D03*
X91200000Y-34262200D03*
X90249999Y-34262200D03*
X90249999Y-36980000D03*
X91200000Y-36980000D03*
X92150001Y-36980000D03*
D22*
X94925000Y-42400000D03*
X93275000Y-42400000D03*
D23*
X73330000Y-48260000D03*
X75230000Y-48260000D03*
X74280000Y-46385000D03*
D24*
X80845000Y-53875000D03*
X80845000Y-54675000D03*
D25*
X80845000Y-55875000D03*
X80845000Y-56875000D03*
X80845000Y-57375000D03*
X80845000Y-58375000D03*
D24*
X80845000Y-59575000D03*
X80845000Y-60375000D03*
X80845000Y-60375000D03*
X80845000Y-59575000D03*
D25*
X80845000Y-58875000D03*
X80845000Y-57875000D03*
X80845000Y-56375000D03*
X80845000Y-55375000D03*
D24*
X80845000Y-54675000D03*
X80845000Y-53875000D03*
D26*
X81960000Y-45260000D03*
X85260000Y-45260000D03*
D22*
X102925000Y-41680000D03*
X101275000Y-41680000D03*
D17*
X76880000Y-42250000D03*
X78780000Y-42250000D03*
D22*
X94925000Y-40560000D03*
X93275000Y-40560000D03*
D27*
X102615000Y-54690000D03*
X105690000Y-54690000D03*
D16*
X105100000Y-36625000D03*
X105100000Y-38275000D03*
D28*
X107580000Y-31080000D03*
X107580000Y-31579999D03*
X107580000Y-32080001D03*
X107580000Y-32580000D03*
X107580000Y-33080001D03*
X107580000Y-33580000D03*
D11*
X110093122Y-34580001D03*
X110093122Y-30079999D03*
D10*
X101915000Y-38220000D03*
X103565000Y-38220000D03*
D29*
X108815000Y-48250000D03*
X108815000Y-47750000D03*
X108815000Y-47250000D03*
X108815000Y-46750000D03*
X108815000Y-46250000D03*
X108815000Y-45750000D03*
X108815000Y-45250000D03*
X108815000Y-44750000D03*
X108815000Y-44250000D03*
X108815000Y-43750000D03*
D30*
X111990000Y-49950000D03*
X111990000Y-42050000D03*
D31*
X95912500Y-37330000D03*
X94087500Y-37330000D03*
D22*
X93605000Y-31910000D03*
X91955000Y-31910000D03*
D32*
X74010000Y-37920000D03*
X74010000Y-36720000D03*
D33*
X77785000Y-39070000D03*
X77785000Y-35570000D03*
D18*
X91280000Y-42340000D03*
X91280000Y-40440000D03*
X89405000Y-41390000D03*
D34*
X80460000Y-41540000D03*
X80460000Y-39890000D03*
M02*
