G04 #@! TF.GenerationSoftware,KiCad,Pcbnew,7.0.1-3b83917a11~172~ubuntu22.04.1*
G04 #@! TF.CreationDate,2023-04-25T14:56:48+02:00*
G04 #@! TF.ProjectId,sharp-lcd-128x128,73686172-702d-46c6-9364-2d3132387831,rev?*
G04 #@! TF.SameCoordinates,Original*
G04 #@! TF.FileFunction,Copper,L2,Bot*
G04 #@! TF.FilePolarity,Positive*
%FSLAX46Y46*%
G04 Gerber Fmt 4.6, Leading zero omitted, Abs format (unit mm)*
G04 Created by KiCad (PCBNEW 7.0.1-3b83917a11~172~ubuntu22.04.1) date 2023-04-25 14:56:48*
%MOMM*%
%LPD*%
G01*
G04 APERTURE LIST*
G04 Aperture macros list*
%AMRoundRect*
0 Rectangle with rounded corners*
0 $1 Rounding radius*
0 $2 $3 $4 $5 $6 $7 $8 $9 X,Y pos of 4 corners*
0 Add a 4 corners polygon primitive as box body*
4,1,4,$2,$3,$4,$5,$6,$7,$8,$9,$2,$3,0*
0 Add four circle primitives for the rounded corners*
1,1,$1+$1,$2,$3*
1,1,$1+$1,$4,$5*
1,1,$1+$1,$6,$7*
1,1,$1+$1,$8,$9*
0 Add four rect primitives between the rounded corners*
20,1,$1+$1,$2,$3,$4,$5,0*
20,1,$1+$1,$4,$5,$6,$7,0*
20,1,$1+$1,$6,$7,$8,$9,0*
20,1,$1+$1,$8,$9,$2,$3,0*%
G04 Aperture macros list end*
G04 #@! TA.AperFunction,ComponentPad*
%ADD10O,1.600000X1.000000*%
G04 #@! TD*
G04 #@! TA.AperFunction,ComponentPad*
%ADD11O,2.100000X1.000000*%
G04 #@! TD*
G04 #@! TA.AperFunction,ComponentPad*
%ADD12O,1.700000X1.700000*%
G04 #@! TD*
G04 #@! TA.AperFunction,ComponentPad*
%ADD13R,1.700000X1.700000*%
G04 #@! TD*
G04 #@! TA.AperFunction,SMDPad,CuDef*
%ADD14RoundRect,0.200000X-0.200000X-0.800000X0.200000X-0.800000X0.200000X0.800000X-0.200000X0.800000X0*%
G04 #@! TD*
G04 #@! TA.AperFunction,SMDPad,CuDef*
%ADD15RoundRect,0.200000X0.200000X0.800000X-0.200000X0.800000X-0.200000X-0.800000X0.200000X-0.800000X0*%
G04 #@! TD*
G04 #@! TA.AperFunction,ViaPad*
%ADD16C,0.500000*%
G04 #@! TD*
G04 #@! TA.AperFunction,ViaPad*
%ADD17C,0.600000*%
G04 #@! TD*
G04 #@! TA.AperFunction,Conductor*
%ADD18C,0.350000*%
G04 #@! TD*
G04 #@! TA.AperFunction,Conductor*
%ADD19C,0.250000*%
G04 #@! TD*
G04 #@! TA.AperFunction,Conductor*
%ADD20C,0.500000*%
G04 #@! TD*
G04 #@! TA.AperFunction,Conductor*
%ADD21C,0.300000*%
G04 #@! TD*
G04 APERTURE END LIST*
D10*
X75750000Y-61445000D03*
D11*
X79930000Y-61445000D03*
D10*
X75750000Y-52805000D03*
D11*
X79930000Y-52805000D03*
D12*
X119730000Y-60250000D03*
X117190000Y-60250000D03*
X114650000Y-60250000D03*
X112110000Y-60250000D03*
X109570000Y-60250000D03*
D13*
X107030000Y-60250000D03*
D14*
X87180000Y-48260000D03*
X82980000Y-48260000D03*
D15*
X73900000Y-48260000D03*
X78100000Y-48260000D03*
X78110000Y-42500000D03*
X82310000Y-42500000D03*
X73900000Y-37850000D03*
X78100000Y-37850000D03*
D16*
X118260000Y-54200000D03*
X88130000Y-45180000D03*
D17*
X80827500Y-46810000D03*
X102860000Y-44570000D03*
D16*
X95910000Y-36170000D03*
D17*
X82425000Y-61375000D03*
X93130000Y-53690000D03*
X90000000Y-31760000D03*
X102860000Y-46930000D03*
D16*
X73940000Y-40430000D03*
X91180000Y-35110000D03*
X79740000Y-42450000D03*
X107990000Y-43940000D03*
D17*
X82130000Y-39810000D03*
D16*
X105658781Y-30772500D03*
D17*
X79300000Y-58825000D03*
X79300000Y-55475000D03*
X80897500Y-44360000D03*
D16*
X83710000Y-46460000D03*
D17*
X84270000Y-36120000D03*
X101576492Y-53790325D03*
X106340000Y-56070000D03*
X87430000Y-55500000D03*
D16*
X85511935Y-43131935D03*
X91370000Y-45720000D03*
X99180000Y-56700000D03*
X86370000Y-39830000D03*
X87480000Y-59510000D03*
X100720000Y-38170000D03*
X92010000Y-43900500D03*
X101549104Y-36264500D03*
X97751213Y-38310563D03*
X100637961Y-51735932D03*
X109684502Y-47356665D03*
X100300000Y-54120000D03*
X99196815Y-38341685D03*
X110000000Y-46480000D03*
X100010000Y-53240000D03*
X106160000Y-47100000D03*
X92830000Y-33140000D03*
D17*
X108770000Y-42730000D03*
X116370000Y-50660000D03*
D16*
X111410000Y-39040000D03*
X102600000Y-39240000D03*
X105950000Y-57800000D03*
X90790000Y-49880000D03*
X92670000Y-48080000D03*
X95110000Y-50480000D03*
X83750000Y-48260000D03*
X89867464Y-49997140D03*
D17*
X117190000Y-56430000D03*
D16*
X100190000Y-39030000D03*
D17*
X101320000Y-58020000D03*
D16*
X83111111Y-42856717D03*
X86698914Y-43188914D03*
D18*
X78110000Y-42500000D02*
X79690000Y-42500000D01*
X79690000Y-42500000D02*
X79740000Y-42450000D01*
D19*
X79300000Y-55475000D02*
X79300000Y-58825000D01*
D20*
X104060325Y-53790325D02*
X101576492Y-53790325D01*
X81620000Y-44360000D02*
X80897500Y-44360000D01*
X79620000Y-40770000D02*
X84270000Y-36120000D01*
X86280000Y-55500000D02*
X84540000Y-53760000D01*
X107030000Y-56760000D02*
X106340000Y-56070000D01*
X106340000Y-56070000D02*
X104060325Y-53790325D01*
X107030000Y-60250000D02*
X107030000Y-56760000D01*
X77900000Y-44490000D02*
X76610000Y-43200000D01*
X76610000Y-41690000D02*
X77530000Y-40770000D01*
X77530000Y-40770000D02*
X79620000Y-40770000D01*
X80660000Y-44490000D02*
X77900000Y-44490000D01*
X84540000Y-47280000D02*
X81620000Y-44360000D01*
X84540000Y-53760000D02*
X84540000Y-47280000D01*
X76610000Y-43200000D02*
X76610000Y-41690000D01*
X87430000Y-55500000D02*
X86280000Y-55500000D01*
D19*
X98990000Y-56510000D02*
X99180000Y-56700000D01*
X89450000Y-43800000D02*
X91370000Y-45720000D01*
X91370000Y-45720000D02*
X98990000Y-53340000D01*
X98990000Y-53340000D02*
X98990000Y-56510000D01*
X86180000Y-43800000D02*
X89450000Y-43800000D01*
X85511935Y-43131935D02*
X86180000Y-43800000D01*
D21*
X88640000Y-47540000D02*
X89220000Y-48120000D01*
X92200000Y-42059292D02*
X86929292Y-42059292D01*
X86370000Y-39830000D02*
X84916935Y-41283065D01*
X101802958Y-35670000D02*
X98589292Y-35670000D01*
X89220000Y-48120000D02*
X89220000Y-57770000D01*
X84916935Y-43816935D02*
X88640000Y-47540000D01*
X98589292Y-35670000D02*
X92200000Y-42059292D01*
X102150500Y-36017542D02*
X101802958Y-35670000D01*
X86370000Y-39830000D02*
X86370000Y-41500000D01*
X102150500Y-36739500D02*
X102150500Y-36017542D01*
X84916935Y-41283065D02*
X84916935Y-43816935D01*
X89220000Y-57770000D02*
X87480000Y-59510000D01*
X86370000Y-41500000D02*
X86929292Y-42059292D01*
X100720000Y-38170000D02*
X102150500Y-36739500D01*
D19*
X99625500Y-36264500D02*
X101549104Y-36264500D01*
X99265932Y-51735932D02*
X100637961Y-51735932D01*
X92010000Y-43900500D02*
X92010000Y-44480000D01*
X92010000Y-44480000D02*
X99265932Y-51735932D01*
X98790000Y-37120500D02*
X98790000Y-37100000D01*
X98790000Y-37100000D02*
X99625500Y-36264500D01*
X92010000Y-43900500D02*
X98790000Y-37120500D01*
D18*
X107063335Y-47356665D02*
X109684502Y-47356665D01*
X100300000Y-54120000D02*
X107063335Y-47356665D01*
D19*
X106893224Y-46480000D02*
X103793224Y-43380000D01*
X100580000Y-43380000D02*
X99196815Y-41996815D01*
X110000000Y-46480000D02*
X106893224Y-46480000D01*
X103793224Y-43380000D02*
X100580000Y-43380000D01*
X99196815Y-41996815D02*
X99196815Y-38341685D01*
D18*
X100010000Y-53240000D02*
X106150000Y-47100000D01*
X106150000Y-47100000D02*
X106160000Y-47100000D01*
D19*
X83320000Y-33140000D02*
X80060000Y-36400000D01*
X77330000Y-36400000D02*
X75920499Y-37809501D01*
X75920499Y-46080499D02*
X78100000Y-48260000D01*
X75920499Y-37809501D02*
X75920499Y-46080499D01*
X92830000Y-33140000D02*
X83320000Y-33140000D01*
X80060000Y-36400000D02*
X77330000Y-36400000D01*
D18*
X116370000Y-48260000D02*
X110840000Y-42730000D01*
X110840000Y-42730000D02*
X108770000Y-42730000D01*
X116370000Y-50660000D02*
X116370000Y-48260000D01*
X102800000Y-39040000D02*
X102600000Y-39240000D01*
D19*
X80020000Y-37850000D02*
X84170000Y-33700000D01*
X84170000Y-33700000D02*
X86210000Y-33700000D01*
X102600000Y-39230000D02*
X103760000Y-38070000D01*
X78140000Y-37850000D02*
X80020000Y-37850000D01*
D18*
X111410000Y-39040000D02*
X102800000Y-39040000D01*
D19*
X103030000Y-34260000D02*
X103760000Y-34990000D01*
X86770000Y-34260000D02*
X103030000Y-34260000D01*
X103760000Y-34990000D02*
X103760000Y-38070000D01*
X102600000Y-39240000D02*
X102600000Y-39230000D01*
X86210000Y-33700000D02*
X86770000Y-34260000D01*
X90790000Y-53990000D02*
X95530000Y-58730000D01*
X95530000Y-58730000D02*
X105020000Y-58730000D01*
X105020000Y-58730000D02*
X105950000Y-57800000D01*
X90790000Y-49880000D02*
X90790000Y-53990000D01*
D18*
X92710000Y-48080000D02*
X95110000Y-50480000D01*
X92670000Y-48080000D02*
X92710000Y-48080000D01*
X83750000Y-48260000D02*
X82980000Y-48260000D01*
D19*
X97941381Y-61770000D02*
X90345499Y-54174118D01*
X113130000Y-61770000D02*
X97941381Y-61770000D01*
X90345499Y-54174118D02*
X90345499Y-50475175D01*
X114650000Y-60250000D02*
X113130000Y-61770000D01*
X90345499Y-50475175D02*
X89867464Y-49997140D01*
D21*
X100440000Y-39280000D02*
X100440000Y-40850000D01*
X110575185Y-41230499D02*
X117190000Y-47845314D01*
X100190000Y-39030000D02*
X100440000Y-39280000D01*
X117190000Y-47845314D02*
X117190000Y-56430000D01*
X100440000Y-40850000D02*
X100820499Y-41230499D01*
X100820499Y-41230499D02*
X110575185Y-41230499D01*
D18*
X82754394Y-42500000D02*
X83111111Y-42856717D01*
D19*
X99434501Y-52937691D02*
X99434501Y-56134501D01*
X89685724Y-43188914D02*
X99434501Y-52937691D01*
D18*
X82310000Y-42500000D02*
X82754394Y-42500000D01*
D19*
X99434501Y-56134501D02*
X101320000Y-58020000D01*
X86698914Y-43188914D02*
X89685724Y-43188914D01*
G04 #@! TA.AperFunction,Conductor*
G36*
X117937500Y-29517113D02*
G01*
X117982887Y-29562500D01*
X117999500Y-29624500D01*
X117999500Y-36975240D01*
X117999459Y-36975446D01*
X117999459Y-37000000D01*
X117999500Y-37000099D01*
X117999616Y-37000382D01*
X117999617Y-37000383D01*
X117999618Y-37000384D01*
X117999808Y-37000461D01*
X118000000Y-37000541D01*
X118000002Y-37000539D01*
X118024616Y-37000524D01*
X118024616Y-37000528D01*
X118024760Y-37000500D01*
X118775240Y-37000500D01*
X118775383Y-37000528D01*
X118775384Y-37000524D01*
X118799997Y-37000539D01*
X118800000Y-37000541D01*
X118800383Y-37000383D01*
X118800500Y-37000099D01*
X118800541Y-37000000D01*
X118800541Y-36975446D01*
X118800500Y-36975240D01*
X118800500Y-29624500D01*
X118817113Y-29562500D01*
X118862500Y-29517113D01*
X118924500Y-29500500D01*
X122165500Y-29500500D01*
X122227500Y-29517113D01*
X122272887Y-29562500D01*
X122289500Y-29624500D01*
X122289500Y-42375500D01*
X122272887Y-42437500D01*
X122227500Y-42482887D01*
X122165500Y-42499500D01*
X121524760Y-42499500D01*
X121524554Y-42499459D01*
X121499998Y-42499459D01*
X121499807Y-42499538D01*
X121499619Y-42499615D01*
X121499615Y-42499618D01*
X121499459Y-42499999D01*
X121499476Y-42524616D01*
X121499471Y-42524616D01*
X121499500Y-42524760D01*
X121499500Y-48975240D01*
X121499459Y-48975446D01*
X121499459Y-49000000D01*
X121499500Y-49000099D01*
X121499617Y-49000383D01*
X121499618Y-49000384D01*
X121499808Y-49000462D01*
X121500000Y-49000541D01*
X121500002Y-49000539D01*
X121524616Y-49000524D01*
X121524616Y-49000528D01*
X121524760Y-49000500D01*
X122165500Y-49000500D01*
X122227500Y-49017113D01*
X122272887Y-49062500D01*
X122289500Y-49124500D01*
X122289500Y-62143874D01*
X122287368Y-62154592D01*
X122287368Y-62188114D01*
X122285842Y-62207505D01*
X122280185Y-62243234D01*
X122278776Y-62250660D01*
X122271269Y-62284550D01*
X122260692Y-62314022D01*
X122252939Y-62329240D01*
X122245555Y-62341839D01*
X122218717Y-62382007D01*
X122203294Y-62400800D01*
X122190800Y-62413294D01*
X122172007Y-62428717D01*
X122131836Y-62455557D01*
X122119240Y-62462939D01*
X122106176Y-62469595D01*
X122074066Y-62480728D01*
X122002589Y-62494940D01*
X121997917Y-62495777D01*
X121997622Y-62495824D01*
X121978112Y-62497368D01*
X121938035Y-62497368D01*
X121935508Y-62497870D01*
X113596403Y-62498227D01*
X113534618Y-62481741D01*
X113489262Y-62436661D01*
X113472400Y-62374976D01*
X113488516Y-62313093D01*
X113512911Y-62288251D01*
X113510282Y-62285622D01*
X113521359Y-62274543D01*
X113521362Y-62274542D01*
X113535800Y-62260103D01*
X113550588Y-62247472D01*
X113567107Y-62235472D01*
X113595359Y-62201319D01*
X113603203Y-62192699D01*
X114192959Y-61602943D01*
X114252693Y-61569816D01*
X114304768Y-61572511D01*
X114305229Y-61569753D01*
X114537431Y-61608500D01*
X114762569Y-61608500D01*
X114984635Y-61571444D01*
X115197574Y-61498342D01*
X115395576Y-61391189D01*
X115573240Y-61252906D01*
X115725722Y-61087268D01*
X115816190Y-60948795D01*
X115860982Y-60907561D01*
X115920000Y-60892616D01*
X115979018Y-60907561D01*
X116023809Y-60948795D01*
X116105780Y-61074262D01*
X116114278Y-61087268D01*
X116266760Y-61252906D01*
X116444424Y-61391189D01*
X116642426Y-61498342D01*
X116855365Y-61571444D01*
X117077431Y-61608500D01*
X117302569Y-61608500D01*
X117524635Y-61571444D01*
X117737574Y-61498342D01*
X117935576Y-61391189D01*
X118113240Y-61252906D01*
X118265722Y-61087268D01*
X118356190Y-60948795D01*
X118400982Y-60907561D01*
X118460000Y-60892616D01*
X118519018Y-60907561D01*
X118563809Y-60948795D01*
X118645780Y-61074262D01*
X118654278Y-61087268D01*
X118806760Y-61252906D01*
X118984424Y-61391189D01*
X119182426Y-61498342D01*
X119395365Y-61571444D01*
X119617431Y-61608500D01*
X119842569Y-61608500D01*
X120064635Y-61571444D01*
X120277574Y-61498342D01*
X120475576Y-61391189D01*
X120653240Y-61252906D01*
X120805722Y-61087268D01*
X120928860Y-60898791D01*
X121019296Y-60692616D01*
X121074564Y-60474368D01*
X121093156Y-60250000D01*
X121074564Y-60025632D01*
X121019296Y-59807384D01*
X120928860Y-59601209D01*
X120805722Y-59412732D01*
X120653240Y-59247094D01*
X120475576Y-59108811D01*
X120277574Y-59001658D01*
X120277573Y-59001657D01*
X120277572Y-59001657D01*
X120064636Y-58928556D01*
X119842569Y-58891500D01*
X119617431Y-58891500D01*
X119395363Y-58928556D01*
X119182427Y-59001657D01*
X118984424Y-59108811D01*
X118806760Y-59247094D01*
X118654279Y-59412730D01*
X118563809Y-59551205D01*
X118519017Y-59592438D01*
X118460000Y-59607383D01*
X118400983Y-59592438D01*
X118356191Y-59551205D01*
X118314300Y-59487087D01*
X118265722Y-59412732D01*
X118113240Y-59247094D01*
X117935576Y-59108811D01*
X117737574Y-59001658D01*
X117737573Y-59001657D01*
X117737572Y-59001657D01*
X117524636Y-58928556D01*
X117302569Y-58891500D01*
X117077431Y-58891500D01*
X116855363Y-58928556D01*
X116642427Y-59001657D01*
X116444424Y-59108811D01*
X116266760Y-59247094D01*
X116114279Y-59412730D01*
X116023809Y-59551205D01*
X115979017Y-59592438D01*
X115920000Y-59607383D01*
X115860983Y-59592438D01*
X115816191Y-59551205D01*
X115774300Y-59487087D01*
X115725722Y-59412732D01*
X115573240Y-59247094D01*
X115395576Y-59108811D01*
X115197574Y-59001658D01*
X115197573Y-59001657D01*
X115197572Y-59001657D01*
X114984636Y-58928556D01*
X114762569Y-58891500D01*
X114537431Y-58891500D01*
X114315363Y-58928556D01*
X114102427Y-59001657D01*
X113904424Y-59108811D01*
X113726760Y-59247094D01*
X113574279Y-59412730D01*
X113483809Y-59551205D01*
X113439017Y-59592438D01*
X113380000Y-59607383D01*
X113320983Y-59592438D01*
X113276191Y-59551205D01*
X113234300Y-59487087D01*
X113185722Y-59412732D01*
X113033240Y-59247094D01*
X112855576Y-59108811D01*
X112657574Y-59001658D01*
X112657573Y-59001657D01*
X112657572Y-59001657D01*
X112444636Y-58928556D01*
X112222569Y-58891500D01*
X111997431Y-58891500D01*
X111775363Y-58928556D01*
X111562427Y-59001657D01*
X111364424Y-59108811D01*
X111186760Y-59247094D01*
X111034275Y-59412734D01*
X110940250Y-59556650D01*
X110896334Y-59597405D01*
X110838435Y-59612812D01*
X110780071Y-59599274D01*
X110734867Y-59559951D01*
X110608109Y-59378921D01*
X110441081Y-59211893D01*
X110247576Y-59076399D01*
X110033492Y-58976569D01*
X109820000Y-58919364D01*
X109820000Y-60376000D01*
X109803387Y-60438000D01*
X109758000Y-60483387D01*
X109696000Y-60500000D01*
X109444000Y-60500000D01*
X109382000Y-60483387D01*
X109336613Y-60438000D01*
X109320000Y-60376000D01*
X109320000Y-58919364D01*
X109319999Y-58919364D01*
X109106507Y-58976569D01*
X108892421Y-59076400D01*
X108698924Y-59211888D01*
X108583084Y-59327728D01*
X108530338Y-59359023D01*
X108469045Y-59361212D01*
X108414200Y-59333759D01*
X108379222Y-59283382D01*
X108330889Y-59153796D01*
X108297214Y-59108811D01*
X108243261Y-59036738D01*
X108126203Y-58949110D01*
X107989205Y-58898011D01*
X107958919Y-58894755D01*
X107928638Y-58891500D01*
X107928634Y-58891500D01*
X107912500Y-58891500D01*
X107850500Y-58874887D01*
X107805113Y-58829500D01*
X107788500Y-58767500D01*
X107788500Y-56824294D01*
X107789809Y-56806324D01*
X107790289Y-56803043D01*
X107793341Y-56782211D01*
X107788971Y-56732273D01*
X107788500Y-56721467D01*
X107788500Y-56715822D01*
X107788454Y-56715430D01*
X107784854Y-56684635D01*
X107784497Y-56681141D01*
X107780384Y-56634114D01*
X107777785Y-56604402D01*
X107773483Y-56584998D01*
X107772807Y-56583141D01*
X107747139Y-56512619D01*
X107745964Y-56509236D01*
X107722114Y-56437261D01*
X107722113Y-56437260D01*
X107721744Y-56436145D01*
X107713081Y-56418251D01*
X107712435Y-56417269D01*
X107712435Y-56417268D01*
X107670733Y-56353863D01*
X107668820Y-56350859D01*
X107628408Y-56285342D01*
X107615848Y-56269925D01*
X107559792Y-56217038D01*
X107557206Y-56214525D01*
X107100256Y-55757575D01*
X107081701Y-55728045D01*
X107080476Y-55728815D01*
X107073043Y-55716985D01*
X106976111Y-55562719D01*
X106847281Y-55433889D01*
X106693015Y-55336957D01*
X106693012Y-55336956D01*
X106681186Y-55329525D01*
X106681955Y-55328300D01*
X106652425Y-55309744D01*
X104642129Y-53299448D01*
X104630346Y-53285814D01*
X104615792Y-53266264D01*
X104577386Y-53234037D01*
X104569412Y-53226730D01*
X104565425Y-53222743D01*
X104540839Y-53203303D01*
X104538081Y-53201058D01*
X104479965Y-53152293D01*
X104479963Y-53152291D01*
X104479068Y-53151541D01*
X104462290Y-53140851D01*
X104392484Y-53108299D01*
X104389242Y-53106729D01*
X104320469Y-53072191D01*
X104301674Y-53065658D01*
X104226251Y-53050084D01*
X104222731Y-53049304D01*
X104147833Y-53031553D01*
X104128052Y-53029532D01*
X104126883Y-53029566D01*
X104051031Y-53031773D01*
X104047427Y-53031825D01*
X102654152Y-53031825D01*
X102597857Y-53018310D01*
X102553834Y-52980710D01*
X102531679Y-52927223D01*
X102536221Y-52869507D01*
X102566471Y-52820144D01*
X107310131Y-48076484D01*
X107350359Y-48049604D01*
X107397812Y-48040165D01*
X109320221Y-48040165D01*
X109361175Y-48047123D01*
X109514652Y-48100827D01*
X109684502Y-48119964D01*
X109854352Y-48100827D01*
X110015685Y-48044374D01*
X110160411Y-47953436D01*
X110281273Y-47832574D01*
X110372211Y-47687848D01*
X110428664Y-47526515D01*
X110447801Y-47356665D01*
X110428932Y-47189194D01*
X110440439Y-47121494D01*
X110468964Y-47089586D01*
X110466029Y-47086651D01*
X110475909Y-47076771D01*
X110596771Y-46955909D01*
X110687709Y-46811183D01*
X110744162Y-46649850D01*
X110763299Y-46480000D01*
X110744162Y-46310150D01*
X110687709Y-46148817D01*
X110596771Y-46004091D01*
X110475909Y-45883229D01*
X110331183Y-45792291D01*
X110169850Y-45735838D01*
X110169848Y-45735837D01*
X110169846Y-45735837D01*
X110000000Y-45716700D01*
X109830153Y-45735837D01*
X109830150Y-45735837D01*
X109830150Y-45735838D01*
X109668817Y-45792291D01*
X109668815Y-45792291D01*
X109668815Y-45792292D01*
X109612792Y-45827494D01*
X109546820Y-45846500D01*
X107206990Y-45846500D01*
X107159537Y-45837061D01*
X107119309Y-45810181D01*
X104300312Y-42991183D01*
X104287268Y-42974901D01*
X104235572Y-42926356D01*
X104232775Y-42923645D01*
X104212997Y-42903867D01*
X104209719Y-42901324D01*
X104200846Y-42893745D01*
X104168545Y-42863414D01*
X104150657Y-42853580D01*
X104134393Y-42842896D01*
X104118264Y-42830385D01*
X104077601Y-42812789D01*
X104067107Y-42807648D01*
X104028286Y-42786305D01*
X104016610Y-42783307D01*
X104008508Y-42781227D01*
X103990103Y-42774926D01*
X103976194Y-42768907D01*
X103971369Y-42766819D01*
X103971367Y-42766818D01*
X103971366Y-42766818D01*
X103927607Y-42759887D01*
X103916167Y-42757518D01*
X103873255Y-42746500D01*
X103873254Y-42746500D01*
X103852840Y-42746500D01*
X103833441Y-42744973D01*
X103813282Y-42741780D01*
X103813281Y-42741780D01*
X103780542Y-42744874D01*
X103769167Y-42745950D01*
X103757498Y-42746500D01*
X100893766Y-42746500D01*
X100846313Y-42737061D01*
X100806085Y-42710181D01*
X99866634Y-41770729D01*
X99839754Y-41730501D01*
X99830315Y-41683048D01*
X99830315Y-41470937D01*
X99843830Y-41414642D01*
X99881430Y-41370619D01*
X99934917Y-41348464D01*
X99992633Y-41353006D01*
X100041996Y-41383256D01*
X100293781Y-41635041D01*
X100307268Y-41651874D01*
X100309082Y-41653577D01*
X100309083Y-41653579D01*
X100360771Y-41702117D01*
X100363537Y-41704797D01*
X100384166Y-41725426D01*
X100387741Y-41728199D01*
X100396621Y-41735782D01*
X100430366Y-41767471D01*
X100449302Y-41777881D01*
X100465554Y-41788557D01*
X100468178Y-41790592D01*
X100482632Y-41801804D01*
X100525112Y-41820186D01*
X100535604Y-41825326D01*
X100576162Y-41847623D01*
X100597083Y-41852994D01*
X100615493Y-41859297D01*
X100635323Y-41867879D01*
X100681052Y-41875120D01*
X100692474Y-41877486D01*
X100737311Y-41888999D01*
X100758918Y-41888999D01*
X100778315Y-41890525D01*
X100799651Y-41893905D01*
X100845734Y-41889548D01*
X100857402Y-41888999D01*
X108168247Y-41888999D01*
X108224542Y-41902514D01*
X108268565Y-41940114D01*
X108290720Y-41993601D01*
X108286178Y-42051317D01*
X108255928Y-42100680D01*
X108133890Y-42222717D01*
X108036957Y-42376984D01*
X107976782Y-42548955D01*
X107956383Y-42729999D01*
X107976782Y-42911044D01*
X107976782Y-42911046D01*
X107976783Y-42911047D01*
X108036957Y-43083015D01*
X108133889Y-43237281D01*
X108262719Y-43366111D01*
X108416985Y-43463043D01*
X108588953Y-43523217D01*
X108770000Y-43543616D01*
X108951047Y-43523217D01*
X109123015Y-43463043D01*
X109171614Y-43432505D01*
X109237586Y-43413500D01*
X110505523Y-43413500D01*
X110552976Y-43422939D01*
X110593204Y-43449819D01*
X115650181Y-48506796D01*
X115677061Y-48547024D01*
X115686500Y-48594477D01*
X115686500Y-50192414D01*
X115667494Y-50258386D01*
X115636957Y-50306984D01*
X115576782Y-50478955D01*
X115556383Y-50660000D01*
X115576782Y-50841044D01*
X115576782Y-50841046D01*
X115576783Y-50841047D01*
X115636957Y-51013015D01*
X115733889Y-51167281D01*
X115862719Y-51296111D01*
X116016985Y-51393043D01*
X116188953Y-51453217D01*
X116370000Y-51473616D01*
X116393617Y-51470956D01*
X116461302Y-51482456D01*
X116512494Y-51528204D01*
X116531500Y-51594176D01*
X116531500Y-55922627D01*
X116512494Y-55988598D01*
X116507048Y-55997266D01*
X116456957Y-56076984D01*
X116396782Y-56248955D01*
X116376383Y-56430000D01*
X116396782Y-56611044D01*
X116396782Y-56611046D01*
X116396783Y-56611047D01*
X116456957Y-56783015D01*
X116553889Y-56937281D01*
X116682719Y-57066111D01*
X116836985Y-57163043D01*
X117008953Y-57223217D01*
X117190000Y-57243616D01*
X117371047Y-57223217D01*
X117543015Y-57163043D01*
X117697281Y-57066111D01*
X117826111Y-56937281D01*
X117923043Y-56783015D01*
X117983217Y-56611047D01*
X118003616Y-56430000D01*
X117983217Y-56248953D01*
X117923043Y-56076985D01*
X117867505Y-55988598D01*
X117848500Y-55922627D01*
X117848500Y-47931704D01*
X117850866Y-47910269D01*
X117850746Y-47906457D01*
X117848561Y-47836913D01*
X117848500Y-47833018D01*
X117848500Y-47803884D01*
X117847932Y-47799389D01*
X117847015Y-47787738D01*
X117845562Y-47741483D01*
X117839534Y-47720735D01*
X117835591Y-47701698D01*
X117832882Y-47680250D01*
X117815830Y-47637183D01*
X117812062Y-47626175D01*
X117799145Y-47581714D01*
X117799144Y-47581713D01*
X117799144Y-47581711D01*
X117788151Y-47563124D01*
X117779589Y-47545649D01*
X117771635Y-47525558D01*
X117744423Y-47488106D01*
X117738021Y-47478361D01*
X117714453Y-47438507D01*
X117699169Y-47423223D01*
X117686539Y-47408435D01*
X117673841Y-47390957D01*
X117638171Y-47361448D01*
X117629532Y-47353586D01*
X111101903Y-40825957D01*
X111088419Y-40809126D01*
X111034910Y-40758878D01*
X111032113Y-40756167D01*
X111011517Y-40735571D01*
X111007933Y-40732791D01*
X110999063Y-40725215D01*
X110965318Y-40693527D01*
X110946385Y-40683118D01*
X110930126Y-40672438D01*
X110913053Y-40659195D01*
X110870562Y-40640807D01*
X110860085Y-40635674D01*
X110837192Y-40623089D01*
X110819519Y-40613373D01*
X110798598Y-40608002D01*
X110780189Y-40601699D01*
X110760360Y-40593118D01*
X110714640Y-40585877D01*
X110703201Y-40583508D01*
X110658375Y-40571999D01*
X110658373Y-40571999D01*
X110636766Y-40571999D01*
X110617368Y-40570472D01*
X110608788Y-40569113D01*
X110596034Y-40567093D01*
X110596033Y-40567093D01*
X110549949Y-40571449D01*
X110538282Y-40571999D01*
X101222500Y-40571999D01*
X101160500Y-40555386D01*
X101115113Y-40509999D01*
X101098500Y-40447999D01*
X101098500Y-39366390D01*
X101100866Y-39344955D01*
X101099479Y-39300828D01*
X101098561Y-39271599D01*
X101098500Y-39267704D01*
X101098500Y-39238570D01*
X101097932Y-39234075D01*
X101097015Y-39222424D01*
X101096470Y-39205074D01*
X101095562Y-39176169D01*
X101089534Y-39155421D01*
X101085591Y-39136384D01*
X101082882Y-39114936D01*
X101065830Y-39071869D01*
X101062062Y-39060861D01*
X101049145Y-39016400D01*
X101049144Y-39016398D01*
X101042719Y-39005534D01*
X101025472Y-38944824D01*
X101040343Y-38883488D01*
X101083474Y-38837418D01*
X101195909Y-38766771D01*
X101316771Y-38645909D01*
X101407709Y-38501183D01*
X101445531Y-38393091D01*
X101474889Y-38346369D01*
X102555042Y-37266216D01*
X102571872Y-37252735D01*
X102576816Y-37247469D01*
X102622152Y-37199190D01*
X102624769Y-37196489D01*
X102645427Y-37175833D01*
X102648208Y-37172247D01*
X102655773Y-37163387D01*
X102687472Y-37129633D01*
X102697880Y-37110700D01*
X102708559Y-37094442D01*
X102721804Y-37077368D01*
X102740191Y-37034875D01*
X102745322Y-37024402D01*
X102767624Y-36983837D01*
X102772997Y-36962905D01*
X102779296Y-36944510D01*
X102787880Y-36924676D01*
X102795121Y-36878950D01*
X102797491Y-36867510D01*
X102809000Y-36822688D01*
X102809000Y-36801087D01*
X102810527Y-36781688D01*
X102813907Y-36760348D01*
X102809550Y-36714256D01*
X102809000Y-36702587D01*
X102809000Y-36103935D01*
X102811367Y-36082495D01*
X102809061Y-36009109D01*
X102809000Y-36005214D01*
X102809000Y-35976113D01*
X102808434Y-35971636D01*
X102807516Y-35959976D01*
X102806063Y-35913711D01*
X102800036Y-35892967D01*
X102796090Y-35873918D01*
X102793382Y-35852478D01*
X102776331Y-35809413D01*
X102772563Y-35798405D01*
X102759645Y-35753942D01*
X102748647Y-35735346D01*
X102740092Y-35717885D01*
X102732135Y-35697786D01*
X102704923Y-35660334D01*
X102698521Y-35650589D01*
X102674953Y-35610735D01*
X102659669Y-35595451D01*
X102647039Y-35580663D01*
X102634341Y-35563185D01*
X102598671Y-35533676D01*
X102590032Y-35525814D01*
X102329676Y-35265458D01*
X102316192Y-35248627D01*
X102262683Y-35198379D01*
X102259886Y-35195668D01*
X102239290Y-35175072D01*
X102235706Y-35172292D01*
X102226836Y-35164716D01*
X102193091Y-35133028D01*
X102193089Y-35133026D01*
X102180601Y-35126161D01*
X102134006Y-35081289D01*
X102116350Y-35019057D01*
X102132438Y-34956401D01*
X102177891Y-34910373D01*
X102240340Y-34893500D01*
X102716234Y-34893500D01*
X102763687Y-34902939D01*
X102803915Y-34929819D01*
X103090181Y-35216086D01*
X103117061Y-35256314D01*
X103126500Y-35303767D01*
X103126500Y-37756234D01*
X103117061Y-37803687D01*
X103090181Y-37843915D01*
X102537062Y-38397031D01*
X102493359Y-38425289D01*
X102480031Y-38430344D01*
X102472115Y-38435808D01*
X102452582Y-38446825D01*
X102443802Y-38450777D01*
X102397668Y-38486919D01*
X102391639Y-38491356D01*
X102352613Y-38518294D01*
X102323129Y-38533285D01*
X102268815Y-38552291D01*
X102124090Y-38643229D01*
X102003230Y-38764089D01*
X101944404Y-38857709D01*
X101912291Y-38908817D01*
X101859096Y-39060840D01*
X101855837Y-39070153D01*
X101836700Y-39240000D01*
X101855837Y-39409846D01*
X101855837Y-39409848D01*
X101855838Y-39409850D01*
X101912291Y-39571183D01*
X102003229Y-39715909D01*
X102124091Y-39836771D01*
X102268817Y-39927709D01*
X102430150Y-39984162D01*
X102600000Y-40003299D01*
X102769850Y-39984162D01*
X102931183Y-39927709D01*
X103075909Y-39836771D01*
X103152861Y-39759818D01*
X103193089Y-39732939D01*
X103240542Y-39723500D01*
X111045719Y-39723500D01*
X111086673Y-39730458D01*
X111240150Y-39784162D01*
X111410000Y-39803299D01*
X111579850Y-39784162D01*
X111741183Y-39727709D01*
X111885909Y-39636771D01*
X112006771Y-39515909D01*
X112097709Y-39371183D01*
X112154162Y-39209850D01*
X112173299Y-39040000D01*
X112154162Y-38870150D01*
X112097709Y-38708817D01*
X112006771Y-38564091D01*
X111885909Y-38443229D01*
X111741183Y-38352291D01*
X111579850Y-38295838D01*
X111579848Y-38295837D01*
X111579846Y-38295837D01*
X111410000Y-38276700D01*
X111240152Y-38295837D01*
X111086673Y-38349542D01*
X111045719Y-38356500D01*
X104501205Y-38356500D01*
X104449294Y-38345111D01*
X104406919Y-38313037D01*
X104381863Y-38266168D01*
X104378730Y-38213115D01*
X104380110Y-38204396D01*
X104382478Y-38192953D01*
X104393500Y-38150030D01*
X104393500Y-38129616D01*
X104395027Y-38110217D01*
X104396645Y-38100000D01*
X104398220Y-38090057D01*
X104394050Y-38045943D01*
X104393500Y-38034274D01*
X104393500Y-35073633D01*
X104395789Y-35052890D01*
X104395701Y-35050094D01*
X104395702Y-35050091D01*
X104393560Y-34981968D01*
X104393500Y-34978074D01*
X104393500Y-34950147D01*
X104393500Y-34950144D01*
X104392982Y-34946047D01*
X104392065Y-34934398D01*
X104391921Y-34929819D01*
X104390674Y-34890111D01*
X104384974Y-34870494D01*
X104381033Y-34851464D01*
X104378474Y-34831203D01*
X104362163Y-34790007D01*
X104358381Y-34778960D01*
X104348878Y-34746253D01*
X104346018Y-34736407D01*
X104335622Y-34718829D01*
X104327069Y-34701371D01*
X104319552Y-34682383D01*
X104293503Y-34646530D01*
X104287099Y-34636780D01*
X104264542Y-34598638D01*
X104250107Y-34584203D01*
X104237469Y-34569406D01*
X104225472Y-34552893D01*
X104191324Y-34524643D01*
X104182685Y-34516781D01*
X103537091Y-33871187D01*
X103524044Y-33854901D01*
X103472332Y-33806341D01*
X103469564Y-33803659D01*
X103449770Y-33783865D01*
X103449769Y-33783864D01*
X103449768Y-33783863D01*
X103446495Y-33781324D01*
X103437622Y-33773745D01*
X103405321Y-33743414D01*
X103387433Y-33733580D01*
X103371169Y-33722896D01*
X103355040Y-33710385D01*
X103314377Y-33692789D01*
X103303883Y-33687648D01*
X103265062Y-33666305D01*
X103253386Y-33663307D01*
X103245284Y-33661227D01*
X103226879Y-33654926D01*
X103208145Y-33646819D01*
X103208143Y-33646818D01*
X103208142Y-33646818D01*
X103164383Y-33639887D01*
X103152943Y-33637518D01*
X103110031Y-33626500D01*
X103110030Y-33626500D01*
X103089616Y-33626500D01*
X103070217Y-33624973D01*
X103050058Y-33621780D01*
X103050057Y-33621780D01*
X103017318Y-33624874D01*
X103005943Y-33625950D01*
X102994274Y-33626500D01*
X93638123Y-33626500D01*
X93581209Y-33612667D01*
X93536993Y-33574255D01*
X93515341Y-33519834D01*
X93521081Y-33461545D01*
X93574162Y-33309850D01*
X93593299Y-33140000D01*
X93574162Y-32970150D01*
X93517709Y-32808817D01*
X93426771Y-32664091D01*
X93305909Y-32543229D01*
X93161183Y-32452291D01*
X92999850Y-32395838D01*
X92999848Y-32395837D01*
X92999846Y-32395837D01*
X92830000Y-32376700D01*
X92660153Y-32395837D01*
X92660150Y-32395837D01*
X92660150Y-32395838D01*
X92498817Y-32452291D01*
X92498815Y-32452291D01*
X92498815Y-32452292D01*
X92442792Y-32487494D01*
X92376820Y-32506500D01*
X83403633Y-32506500D01*
X83382891Y-32504210D01*
X83380091Y-32504298D01*
X83311983Y-32506439D01*
X83308087Y-32506500D01*
X83280144Y-32506500D01*
X83276042Y-32507018D01*
X83264403Y-32507934D01*
X83220110Y-32509326D01*
X83200507Y-32515022D01*
X83181455Y-32518967D01*
X83161199Y-32521526D01*
X83119997Y-32537838D01*
X83108951Y-32541621D01*
X83066402Y-32553983D01*
X83048831Y-32564374D01*
X83031370Y-32572929D01*
X83012383Y-32580447D01*
X82976542Y-32606487D01*
X82966780Y-32612899D01*
X82928639Y-32635455D01*
X82914196Y-32649898D01*
X82899409Y-32662527D01*
X82882892Y-32674528D01*
X82854652Y-32708663D01*
X82846792Y-32717301D01*
X79833914Y-35730181D01*
X79793686Y-35757061D01*
X79746233Y-35766500D01*
X77413628Y-35766500D01*
X77392892Y-35764211D01*
X77390091Y-35764299D01*
X77322001Y-35766439D01*
X77318106Y-35766500D01*
X77290144Y-35766500D01*
X77286032Y-35767019D01*
X77274401Y-35767934D01*
X77230110Y-35769326D01*
X77210507Y-35775022D01*
X77191456Y-35778967D01*
X77171203Y-35781525D01*
X77130008Y-35797835D01*
X77118962Y-35801616D01*
X77076405Y-35813981D01*
X77058827Y-35824376D01*
X77041360Y-35832933D01*
X77022384Y-35840446D01*
X76986544Y-35866485D01*
X76976786Y-35872895D01*
X76938637Y-35895457D01*
X76924196Y-35909898D01*
X76909409Y-35922527D01*
X76892892Y-35934528D01*
X76864652Y-35968663D01*
X76856792Y-35977301D01*
X75531679Y-37302414D01*
X75515395Y-37315462D01*
X75466838Y-37367169D01*
X75464132Y-37369962D01*
X75444360Y-37389734D01*
X75441820Y-37393009D01*
X75434251Y-37401870D01*
X75403913Y-37434178D01*
X75394081Y-37452064D01*
X75383400Y-37468324D01*
X75370884Y-37484460D01*
X75353285Y-37525129D01*
X75348147Y-37535616D01*
X75343025Y-37544934D01*
X75326802Y-37574444D01*
X75321725Y-37594219D01*
X75315424Y-37612624D01*
X75307317Y-37631357D01*
X75300387Y-37675111D01*
X75298019Y-37686547D01*
X75286999Y-37729471D01*
X75286999Y-37749885D01*
X75285472Y-37769284D01*
X75282279Y-37789442D01*
X75286449Y-37833558D01*
X75286999Y-37845227D01*
X75286999Y-45996866D01*
X75284709Y-46017607D01*
X75286938Y-46088516D01*
X75286999Y-46092412D01*
X75286999Y-46120354D01*
X75287517Y-46124455D01*
X75288433Y-46136096D01*
X75289825Y-46180387D01*
X75295521Y-46199991D01*
X75299466Y-46219043D01*
X75302024Y-46239297D01*
X75318337Y-46280500D01*
X75322120Y-46291548D01*
X75334481Y-46334092D01*
X75344873Y-46351665D01*
X75353430Y-46369132D01*
X75360947Y-46388117D01*
X75386990Y-46423962D01*
X75393404Y-46433726D01*
X75415957Y-46471861D01*
X75430389Y-46486293D01*
X75443025Y-46501088D01*
X75455025Y-46517604D01*
X75489166Y-46545848D01*
X75497807Y-46553711D01*
X77155181Y-48211086D01*
X77182061Y-48251314D01*
X77191500Y-48298767D01*
X77191500Y-49117268D01*
X77197986Y-49188649D01*
X77249171Y-49352910D01*
X77338184Y-49500156D01*
X77459843Y-49621815D01*
X77459845Y-49621816D01*
X77607087Y-49710827D01*
X77771351Y-49762013D01*
X77842735Y-49768500D01*
X78357264Y-49768499D01*
X78357268Y-49768499D01*
X78428649Y-49762013D01*
X78592910Y-49710828D01*
X78592910Y-49710827D01*
X78592913Y-49710827D01*
X78740155Y-49621816D01*
X78861816Y-49500155D01*
X78950827Y-49352913D01*
X79002013Y-49188649D01*
X79008500Y-49117265D01*
X79008499Y-47402736D01*
X79002013Y-47331351D01*
X78992933Y-47302211D01*
X78950828Y-47167089D01*
X78861815Y-47019843D01*
X78740156Y-46898184D01*
X78651144Y-46844375D01*
X78592913Y-46809173D01*
X78428649Y-46757987D01*
X78428646Y-46757986D01*
X78357266Y-46751500D01*
X77842731Y-46751500D01*
X77771352Y-46757986D01*
X77631374Y-46801604D01*
X77564809Y-46803615D01*
X77506804Y-46770899D01*
X76590318Y-45854413D01*
X76563438Y-45814185D01*
X76553999Y-45766732D01*
X76553999Y-44516042D01*
X76567514Y-44459747D01*
X76605114Y-44415724D01*
X76658601Y-44393569D01*
X76716317Y-44398111D01*
X76765680Y-44428361D01*
X77318196Y-44980877D01*
X77329977Y-44994509D01*
X77344531Y-45014058D01*
X77382947Y-45046293D01*
X77390911Y-45053592D01*
X77394900Y-45057582D01*
X77419483Y-45077019D01*
X77422267Y-45079286D01*
X77480360Y-45128032D01*
X77480363Y-45128033D01*
X77481261Y-45128787D01*
X77498034Y-45139472D01*
X77499091Y-45139965D01*
X77499094Y-45139967D01*
X77567852Y-45172028D01*
X77571034Y-45173569D01*
X77638812Y-45207609D01*
X77638815Y-45207609D01*
X77639859Y-45208134D01*
X77658642Y-45214664D01*
X77659791Y-45214901D01*
X77659793Y-45214902D01*
X77734116Y-45230247D01*
X77737549Y-45231009D01*
X77811344Y-45248500D01*
X77812483Y-45248770D01*
X77832269Y-45250791D01*
X77833437Y-45250757D01*
X77833442Y-45250758D01*
X77909257Y-45248552D01*
X77912864Y-45248500D01*
X80704175Y-45248500D01*
X80704180Y-45248500D01*
X80836113Y-45233079D01*
X80906092Y-45207609D01*
X81016353Y-45167478D01*
X81016858Y-45168866D01*
X81051792Y-45156231D01*
X81078547Y-45153217D01*
X81157878Y-45125457D01*
X81198832Y-45118500D01*
X81254457Y-45118500D01*
X81301910Y-45127939D01*
X81342138Y-45154819D01*
X82733606Y-46546287D01*
X82766963Y-46607027D01*
X82762518Y-46676181D01*
X82721661Y-46732152D01*
X82657150Y-46757459D01*
X82651350Y-46757986D01*
X82487089Y-46809171D01*
X82339843Y-46898184D01*
X82218184Y-47019843D01*
X82129174Y-47167085D01*
X82129173Y-47167087D01*
X82123026Y-47186815D01*
X82077986Y-47331353D01*
X82071500Y-47402734D01*
X82071500Y-49117268D01*
X82077986Y-49188649D01*
X82129171Y-49352910D01*
X82218184Y-49500156D01*
X82339843Y-49621815D01*
X82339845Y-49621816D01*
X82487087Y-49710827D01*
X82651351Y-49762013D01*
X82722735Y-49768500D01*
X83237264Y-49768499D01*
X83237268Y-49768499D01*
X83308649Y-49762013D01*
X83472910Y-49710828D01*
X83472910Y-49710827D01*
X83472913Y-49710827D01*
X83593350Y-49638019D01*
X83655627Y-49620151D01*
X83718416Y-49636131D01*
X83764574Y-49681597D01*
X83781500Y-49744137D01*
X83781500Y-53695706D01*
X83780191Y-53713676D01*
X83776659Y-53737789D01*
X83781028Y-53787726D01*
X83781500Y-53798533D01*
X83781500Y-53804181D01*
X83785139Y-53835322D01*
X83785505Y-53838905D01*
X83792214Y-53915582D01*
X83796523Y-53935017D01*
X83796920Y-53936109D01*
X83796921Y-53936113D01*
X83822855Y-54007367D01*
X83824037Y-54010771D01*
X83848251Y-54083843D01*
X83856922Y-54101754D01*
X83899245Y-54166103D01*
X83901178Y-54169138D01*
X83940970Y-54233651D01*
X83940972Y-54233653D01*
X83941589Y-54234653D01*
X83954153Y-54250075D01*
X83954997Y-54250871D01*
X83954999Y-54250874D01*
X84010173Y-54302928D01*
X84012760Y-54305441D01*
X85698196Y-55990877D01*
X85709977Y-56004509D01*
X85724530Y-56024057D01*
X85762933Y-56056281D01*
X85770907Y-56063588D01*
X85774900Y-56067581D01*
X85799471Y-56087009D01*
X85802266Y-56089286D01*
X85834033Y-56115941D01*
X85860360Y-56138032D01*
X85860361Y-56138032D01*
X85861258Y-56138785D01*
X85878032Y-56149471D01*
X85879094Y-56149966D01*
X85879095Y-56149967D01*
X85911056Y-56164871D01*
X85947830Y-56182019D01*
X85951077Y-56183591D01*
X86019867Y-56218139D01*
X86038644Y-56224665D01*
X86039791Y-56224902D01*
X86039794Y-56224903D01*
X86114150Y-56240256D01*
X86117571Y-56241014D01*
X86191344Y-56258500D01*
X86192487Y-56258771D01*
X86212272Y-56260792D01*
X86213437Y-56260758D01*
X86213442Y-56260759D01*
X86289292Y-56258552D01*
X86292899Y-56258500D01*
X87128668Y-56258500D01*
X87169621Y-56265457D01*
X87248953Y-56293217D01*
X87430000Y-56313616D01*
X87611047Y-56293217D01*
X87783015Y-56233043D01*
X87937281Y-56136111D01*
X88066111Y-56007281D01*
X88163043Y-55853015D01*
X88223217Y-55681047D01*
X88243616Y-55500000D01*
X88223217Y-55318953D01*
X88163043Y-55146985D01*
X88066111Y-54992719D01*
X87937281Y-54863889D01*
X87783015Y-54766957D01*
X87611047Y-54706783D01*
X87611046Y-54706782D01*
X87611044Y-54706782D01*
X87429999Y-54686383D01*
X87248955Y-54706782D01*
X87169622Y-54734542D01*
X87128668Y-54741500D01*
X86645543Y-54741500D01*
X86598090Y-54732061D01*
X86557862Y-54705181D01*
X85334819Y-53482138D01*
X85307939Y-53441910D01*
X85298500Y-53394457D01*
X85298500Y-48510000D01*
X86280001Y-48510000D01*
X86280001Y-49116579D01*
X86286408Y-49187104D01*
X86336981Y-49349397D01*
X86424925Y-49494875D01*
X86545124Y-49615074D01*
X86690603Y-49703019D01*
X86852893Y-49753590D01*
X86923424Y-49760000D01*
X86930000Y-49760000D01*
X86930000Y-48510000D01*
X87430000Y-48510000D01*
X87430000Y-49759999D01*
X87436579Y-49759999D01*
X87507104Y-49753591D01*
X87669397Y-49703018D01*
X87814875Y-49615074D01*
X87935074Y-49494875D01*
X88023019Y-49349396D01*
X88073590Y-49187106D01*
X88080000Y-49116576D01*
X88080000Y-48510000D01*
X87430000Y-48510000D01*
X86930000Y-48510000D01*
X86280001Y-48510000D01*
X85298500Y-48510000D01*
X85298500Y-47344295D01*
X85299809Y-47326325D01*
X85300346Y-47322652D01*
X85303341Y-47302211D01*
X85298971Y-47252273D01*
X85298500Y-47241467D01*
X85298500Y-47235824D01*
X85298500Y-47235820D01*
X85294851Y-47204608D01*
X85294499Y-47201161D01*
X85287887Y-47125574D01*
X85287785Y-47124407D01*
X85283481Y-47104994D01*
X85283079Y-47103890D01*
X85283079Y-47103887D01*
X85257120Y-47032566D01*
X85255981Y-47029290D01*
X85232114Y-46957262D01*
X85232113Y-46957261D01*
X85231742Y-46956140D01*
X85223078Y-46938245D01*
X85180754Y-46873895D01*
X85178815Y-46870852D01*
X85138412Y-46805347D01*
X85125849Y-46789925D01*
X85069826Y-46737071D01*
X85067238Y-46734557D01*
X82547226Y-44214545D01*
X82513869Y-44153803D01*
X82518315Y-44084648D01*
X82559175Y-44028677D01*
X82623688Y-44003373D01*
X82638649Y-44002013D01*
X82802910Y-43950828D01*
X82802910Y-43950827D01*
X82802913Y-43950827D01*
X82950155Y-43861816D01*
X83071816Y-43740155D01*
X83115301Y-43668220D01*
X83154541Y-43627952D01*
X83207534Y-43609152D01*
X83215127Y-43608296D01*
X83280961Y-43600879D01*
X83442294Y-43544426D01*
X83587020Y-43453488D01*
X83707882Y-43332626D01*
X83798820Y-43187900D01*
X83855273Y-43026567D01*
X83874410Y-42856717D01*
X83855273Y-42686867D01*
X83798820Y-42525534D01*
X83707882Y-42380808D01*
X83587020Y-42259946D01*
X83442294Y-42169008D01*
X83442291Y-42169006D01*
X83388591Y-42150216D01*
X83341865Y-42120856D01*
X83254953Y-42033944D01*
X83249922Y-42028606D01*
X83249787Y-42028454D01*
X83226585Y-41990155D01*
X83218499Y-41946111D01*
X83218499Y-41642732D01*
X83212013Y-41571350D01*
X83160828Y-41407089D01*
X83157021Y-41400792D01*
X83104625Y-41314118D01*
X83071815Y-41259843D01*
X82950156Y-41138184D01*
X82850686Y-41078053D01*
X82802913Y-41049173D01*
X82652853Y-41002413D01*
X82638646Y-40997986D01*
X82567266Y-40991500D01*
X82052731Y-40991500D01*
X81981350Y-40997986D01*
X81817089Y-41049171D01*
X81669843Y-41138184D01*
X81548184Y-41259843D01*
X81462978Y-41400792D01*
X81459173Y-41407087D01*
X81458027Y-41410766D01*
X81407986Y-41571353D01*
X81401500Y-41642734D01*
X81401500Y-43357268D01*
X81407986Y-43428647D01*
X81411714Y-43440611D01*
X81415620Y-43498008D01*
X81393204Y-43550991D01*
X81349289Y-43588155D01*
X81293328Y-43601500D01*
X81198832Y-43601500D01*
X81157878Y-43594542D01*
X81089481Y-43570609D01*
X81078547Y-43566783D01*
X81078546Y-43566782D01*
X81078544Y-43566782D01*
X80897500Y-43546383D01*
X80716455Y-43566782D01*
X80544484Y-43626957D01*
X80478811Y-43668223D01*
X80408353Y-43712494D01*
X80342383Y-43731500D01*
X79077258Y-43731500D01*
X79021297Y-43718154D01*
X78977382Y-43680990D01*
X78954965Y-43628007D01*
X78958873Y-43570609D01*
X79003590Y-43427104D01*
X79010000Y-43356576D01*
X79010000Y-42750000D01*
X77984000Y-42750000D01*
X77922000Y-42733387D01*
X77876613Y-42688000D01*
X77860000Y-42626000D01*
X77860000Y-42374000D01*
X77876613Y-42312000D01*
X77922000Y-42266613D01*
X77984000Y-42250000D01*
X79009999Y-42250000D01*
X79009999Y-41652500D01*
X79026612Y-41590500D01*
X79071999Y-41545113D01*
X79133999Y-41528500D01*
X79555706Y-41528500D01*
X79573676Y-41529809D01*
X79577114Y-41530312D01*
X79597789Y-41533341D01*
X79647726Y-41528971D01*
X79658533Y-41528500D01*
X79664178Y-41528500D01*
X79664180Y-41528500D01*
X79695364Y-41524854D01*
X79698858Y-41524497D01*
X79774426Y-41517887D01*
X79774429Y-41517885D01*
X79775594Y-41517784D01*
X79795015Y-41513478D01*
X79796110Y-41513079D01*
X79796113Y-41513079D01*
X79867414Y-41487126D01*
X79870708Y-41485981D01*
X79942738Y-41462114D01*
X79942742Y-41462111D01*
X79943863Y-41461740D01*
X79961751Y-41453080D01*
X79962732Y-41452435D01*
X80026103Y-41410753D01*
X80029129Y-41408826D01*
X80031945Y-41407089D01*
X80093651Y-41369030D01*
X80093655Y-41369025D01*
X80094650Y-41368412D01*
X80110069Y-41355853D01*
X80110870Y-41355003D01*
X80110874Y-41355001D01*
X80162962Y-41299789D01*
X80165408Y-41297271D01*
X84582424Y-36880255D01*
X84611954Y-36861702D01*
X84611184Y-36860477D01*
X84623015Y-36853043D01*
X84777281Y-36756111D01*
X84906111Y-36627281D01*
X85003043Y-36473015D01*
X85063217Y-36301047D01*
X85083616Y-36120000D01*
X85063217Y-35938953D01*
X85003043Y-35766985D01*
X84906111Y-35612719D01*
X84777281Y-35483889D01*
X84623015Y-35386957D01*
X84451047Y-35326783D01*
X84451046Y-35326782D01*
X84451044Y-35326782D01*
X84270000Y-35306383D01*
X84088955Y-35326782D01*
X83916984Y-35386957D01*
X83762717Y-35483890D01*
X83633890Y-35612717D01*
X83529525Y-35778813D01*
X83528300Y-35778043D01*
X83509744Y-35807573D01*
X79342138Y-39975181D01*
X79301910Y-40002061D01*
X79254457Y-40011500D01*
X77594294Y-40011500D01*
X77576324Y-40010191D01*
X77563501Y-40008312D01*
X77552211Y-40006659D01*
X77552210Y-40006659D01*
X77502274Y-40011028D01*
X77491467Y-40011500D01*
X77485819Y-40011500D01*
X77454677Y-40015139D01*
X77451093Y-40015505D01*
X77374410Y-40022214D01*
X77354989Y-40026519D01*
X77282660Y-40052844D01*
X77279259Y-40054026D01*
X77206153Y-40078252D01*
X77188240Y-40086924D01*
X77123908Y-40129236D01*
X77120868Y-40131173D01*
X77055357Y-40171581D01*
X77039920Y-40184156D01*
X76987052Y-40240191D01*
X76984541Y-40242776D01*
X76765677Y-40461641D01*
X76716318Y-40491889D01*
X76658601Y-40496431D01*
X76605114Y-40474276D01*
X76567514Y-40430253D01*
X76553999Y-40373958D01*
X76553999Y-38123267D01*
X76563438Y-38075814D01*
X76590318Y-38035586D01*
X76781989Y-37843915D01*
X76979819Y-37646083D01*
X77029182Y-37615834D01*
X77086898Y-37611292D01*
X77140385Y-37633447D01*
X77177985Y-37677470D01*
X77191500Y-37733765D01*
X77191500Y-38707268D01*
X77197986Y-38778649D01*
X77249171Y-38942910D01*
X77338184Y-39090156D01*
X77459843Y-39211815D01*
X77490622Y-39230421D01*
X77607087Y-39300827D01*
X77771351Y-39352013D01*
X77842735Y-39358500D01*
X78357264Y-39358499D01*
X78357268Y-39358499D01*
X78428649Y-39352013D01*
X78592910Y-39300828D01*
X78592910Y-39300827D01*
X78592913Y-39300827D01*
X78740155Y-39211816D01*
X78861816Y-39090155D01*
X78950827Y-38942913D01*
X79002013Y-38778649D01*
X79008500Y-38707265D01*
X79008500Y-38607500D01*
X79025113Y-38545500D01*
X79070500Y-38500113D01*
X79132500Y-38483500D01*
X79936367Y-38483500D01*
X79957108Y-38485789D01*
X79959905Y-38485701D01*
X79959909Y-38485702D01*
X80028017Y-38483560D01*
X80031913Y-38483500D01*
X80059854Y-38483500D01*
X80059856Y-38483500D01*
X80063956Y-38482981D01*
X80075606Y-38482064D01*
X80119889Y-38480673D01*
X80139498Y-38474975D01*
X80158531Y-38471033D01*
X80178797Y-38468474D01*
X80220006Y-38452157D01*
X80231037Y-38448380D01*
X80273593Y-38436018D01*
X80291160Y-38425628D01*
X80308632Y-38417068D01*
X80327617Y-38409552D01*
X80363475Y-38383498D01*
X80373223Y-38377096D01*
X80411362Y-38354542D01*
X80425800Y-38340103D01*
X80440588Y-38327472D01*
X80457107Y-38315472D01*
X80485359Y-38281319D01*
X80493203Y-38272699D01*
X84396084Y-34369819D01*
X84436313Y-34342939D01*
X84483766Y-34333500D01*
X85896234Y-34333500D01*
X85943687Y-34342939D01*
X85983915Y-34369819D01*
X86262910Y-34648814D01*
X86275959Y-34665101D01*
X86277999Y-34667016D01*
X86278000Y-34667018D01*
X86327701Y-34713690D01*
X86330465Y-34716369D01*
X86350231Y-34736135D01*
X86353497Y-34738668D01*
X86362375Y-34746250D01*
X86394679Y-34776586D01*
X86412570Y-34786421D01*
X86428823Y-34797097D01*
X86440816Y-34806399D01*
X86444961Y-34809615D01*
X86485618Y-34827208D01*
X86496102Y-34832343D01*
X86534940Y-34853695D01*
X86554714Y-34858772D01*
X86573119Y-34865073D01*
X86591855Y-34873181D01*
X86635630Y-34880113D01*
X86647041Y-34882477D01*
X86689970Y-34893500D01*
X86710384Y-34893500D01*
X86729783Y-34895027D01*
X86749943Y-34898220D01*
X86794056Y-34894050D01*
X86805726Y-34893500D01*
X98155406Y-34893500D01*
X98217181Y-34909983D01*
X98262532Y-34955050D01*
X98279404Y-35016720D01*
X98263310Y-35078597D01*
X98218529Y-35124231D01*
X98182485Y-35145547D01*
X98167208Y-35160824D01*
X98152419Y-35173454D01*
X98134936Y-35186156D01*
X98105422Y-35221832D01*
X98097561Y-35230470D01*
X91963559Y-41364473D01*
X91923331Y-41391353D01*
X91875878Y-41400792D01*
X87253413Y-41400792D01*
X87205960Y-41391353D01*
X87165734Y-41364475D01*
X87064816Y-41263556D01*
X87037939Y-41223330D01*
X87028500Y-41175878D01*
X87028500Y-40243393D01*
X87047506Y-40177422D01*
X87057706Y-40161187D01*
X87057709Y-40161183D01*
X87114162Y-39999850D01*
X87133299Y-39830000D01*
X87114162Y-39660150D01*
X87057709Y-39498817D01*
X86966771Y-39354091D01*
X86845909Y-39233229D01*
X86701183Y-39142291D01*
X86539850Y-39085838D01*
X86539848Y-39085837D01*
X86539846Y-39085837D01*
X86370000Y-39066700D01*
X86200153Y-39085837D01*
X86200150Y-39085837D01*
X86200150Y-39085838D01*
X86038817Y-39142291D01*
X86038815Y-39142291D01*
X86038815Y-39142292D01*
X85894089Y-39233230D01*
X85773230Y-39354089D01*
X85682289Y-39498819D01*
X85644468Y-39606905D01*
X85615108Y-39653631D01*
X84512388Y-40756351D01*
X84495557Y-40769836D01*
X84445314Y-40823339D01*
X84442635Y-40826103D01*
X84422007Y-40846732D01*
X84422003Y-40846737D01*
X84419222Y-40850322D01*
X84411648Y-40859189D01*
X84379962Y-40892932D01*
X84369554Y-40911864D01*
X84358875Y-40928121D01*
X84345629Y-40945198D01*
X84327244Y-40987681D01*
X84322108Y-40998166D01*
X84299810Y-41038726D01*
X84294438Y-41059651D01*
X84288137Y-41078053D01*
X84279554Y-41097887D01*
X84272314Y-41143601D01*
X84269946Y-41155035D01*
X84258435Y-41199874D01*
X84258435Y-41221484D01*
X84256908Y-41240883D01*
X84253529Y-41262215D01*
X84257885Y-41308299D01*
X84258435Y-41319968D01*
X84258435Y-43730545D01*
X84256068Y-43751979D01*
X84258374Y-43825336D01*
X84258435Y-43829231D01*
X84258435Y-43858367D01*
X84259003Y-43862866D01*
X84259918Y-43874499D01*
X84261372Y-43920768D01*
X84267398Y-43941510D01*
X84271343Y-43960556D01*
X84274052Y-43981998D01*
X84291093Y-44025040D01*
X84294876Y-44036089D01*
X84307790Y-44080536D01*
X84318785Y-44099128D01*
X84327344Y-44116598D01*
X84335299Y-44136689D01*
X84335300Y-44136691D01*
X84362513Y-44174146D01*
X84368912Y-44183887D01*
X84388306Y-44216680D01*
X84392483Y-44223743D01*
X84407757Y-44239017D01*
X84420393Y-44253811D01*
X84433094Y-44271292D01*
X84468755Y-44300793D01*
X84477396Y-44308656D01*
X86770564Y-46601824D01*
X86802328Y-46656206D01*
X86803280Y-46719179D01*
X86773174Y-46774496D01*
X86719776Y-46807889D01*
X86690604Y-46816979D01*
X86545124Y-46904925D01*
X86424925Y-47025124D01*
X86336980Y-47170603D01*
X86286409Y-47332893D01*
X86280000Y-47403424D01*
X86280000Y-48010000D01*
X88127378Y-48010000D01*
X88174831Y-48019439D01*
X88215059Y-48046319D01*
X88525181Y-48356441D01*
X88552061Y-48396669D01*
X88561500Y-48444122D01*
X88561500Y-56518905D01*
X88544857Y-56580957D01*
X88499395Y-56626353D01*
X88437319Y-56642905D01*
X86450000Y-56640000D01*
X86495728Y-62374406D01*
X86479448Y-62436822D01*
X86434020Y-62482615D01*
X86371737Y-62499395D01*
X83936660Y-62499500D01*
X81119644Y-62499500D01*
X81057281Y-62482677D01*
X81011840Y-62436771D01*
X80995650Y-62374241D01*
X81013106Y-62312052D01*
X81046168Y-62279982D01*
X81044647Y-62278210D01*
X81208531Y-62137520D01*
X81333021Y-61976692D01*
X81422589Y-61794094D01*
X81448246Y-61695000D01*
X78406634Y-61695000D01*
X78406932Y-61696948D01*
X78477564Y-61887663D01*
X78585145Y-62060263D01*
X78725267Y-62207670D01*
X78820171Y-62273726D01*
X78860661Y-62320891D01*
X78873174Y-62381781D01*
X78854565Y-62441092D01*
X78809510Y-62483919D01*
X78749333Y-62499500D01*
X76689644Y-62499500D01*
X76627281Y-62482677D01*
X76581840Y-62436771D01*
X76565650Y-62374241D01*
X76583106Y-62312052D01*
X76616168Y-62279982D01*
X76614647Y-62278210D01*
X76778531Y-62137520D01*
X76903021Y-61976692D01*
X76992589Y-61794094D01*
X77018246Y-61695000D01*
X74476634Y-61695000D01*
X74476932Y-61696948D01*
X74547564Y-61887663D01*
X74655145Y-62060263D01*
X74795267Y-62207670D01*
X74890171Y-62273726D01*
X74930661Y-62320891D01*
X74943174Y-62381781D01*
X74924565Y-62441092D01*
X74879510Y-62483919D01*
X74819333Y-62499500D01*
X72309761Y-62499500D01*
X72290106Y-62497932D01*
X72289807Y-62497884D01*
X72285270Y-62497069D01*
X72213803Y-62482853D01*
X72181707Y-62471724D01*
X72168638Y-62465066D01*
X72156035Y-62457680D01*
X72115865Y-62430839D01*
X72097075Y-62415418D01*
X72084580Y-62402923D01*
X72069162Y-62384137D01*
X72042312Y-62343953D01*
X72034938Y-62331370D01*
X72028274Y-62318291D01*
X72017145Y-62286196D01*
X72015909Y-62279982D01*
X72002920Y-62214684D01*
X72002032Y-62209673D01*
X72001983Y-62209359D01*
X72000500Y-62190240D01*
X72000500Y-61195000D01*
X74481753Y-61195000D01*
X75500000Y-61195000D01*
X75500000Y-60445000D01*
X76000000Y-60445000D01*
X76000000Y-61195000D01*
X77023366Y-61195000D01*
X77023067Y-61193051D01*
X76952435Y-61002336D01*
X76844854Y-60829736D01*
X76704733Y-60682330D01*
X76537805Y-60566144D01*
X76350907Y-60485940D01*
X76151689Y-60445000D01*
X76000000Y-60445000D01*
X75500000Y-60445000D01*
X75399290Y-60445000D01*
X75247660Y-60460419D01*
X75053610Y-60521303D01*
X74875785Y-60620003D01*
X74721468Y-60752479D01*
X74596978Y-60913307D01*
X74507410Y-61095905D01*
X74481753Y-61194999D01*
X74481753Y-61195000D01*
X72000500Y-61195000D01*
X72000500Y-53055000D01*
X74476634Y-53055000D01*
X74476932Y-53056948D01*
X74547564Y-53247663D01*
X74655145Y-53420263D01*
X74795266Y-53567669D01*
X74962194Y-53683855D01*
X75149092Y-53764059D01*
X75348311Y-53805000D01*
X75500000Y-53805000D01*
X75500000Y-53055000D01*
X76000000Y-53055000D01*
X76000000Y-53805000D01*
X76100710Y-53805000D01*
X76252339Y-53789580D01*
X76446389Y-53728696D01*
X76624214Y-53629996D01*
X76778531Y-53497520D01*
X76903021Y-53336692D01*
X76992589Y-53154094D01*
X77018246Y-53055000D01*
X78406634Y-53055000D01*
X78406932Y-53056948D01*
X78477564Y-53247663D01*
X78585145Y-53420263D01*
X78725266Y-53567669D01*
X78892193Y-53683854D01*
X78900073Y-53687236D01*
X78945175Y-53720317D01*
X78971150Y-53769853D01*
X78972715Y-53825764D01*
X78949551Y-53876674D01*
X78897302Y-53944766D01*
X78839312Y-54084764D01*
X78819533Y-54234999D01*
X78839312Y-54385235D01*
X78896529Y-54523367D01*
X78897302Y-54525233D01*
X78942769Y-54584486D01*
X78967777Y-54647626D01*
X78955776Y-54714470D01*
X78910365Y-54764966D01*
X78792719Y-54838888D01*
X78663890Y-54967717D01*
X78566957Y-55121984D01*
X78506782Y-55293955D01*
X78486383Y-55474999D01*
X78506782Y-55656044D01*
X78566957Y-55828015D01*
X78647494Y-55956188D01*
X78666500Y-56022160D01*
X78666500Y-58277840D01*
X78647494Y-58343812D01*
X78566957Y-58471984D01*
X78506782Y-58643955D01*
X78486383Y-58824999D01*
X78506782Y-59006044D01*
X78506782Y-59006046D01*
X78506783Y-59006047D01*
X78566957Y-59178015D01*
X78663889Y-59332281D01*
X78792719Y-59461111D01*
X78884480Y-59518768D01*
X78929889Y-59569264D01*
X78941891Y-59636106D01*
X78916884Y-59699246D01*
X78897302Y-59724766D01*
X78839312Y-59864764D01*
X78819533Y-60015000D01*
X78839312Y-60165235D01*
X78897302Y-60305233D01*
X78951799Y-60376256D01*
X78974302Y-60424095D01*
X78974832Y-60476959D01*
X78953293Y-60525240D01*
X78913601Y-60560161D01*
X78805783Y-60620004D01*
X78651468Y-60752479D01*
X78526978Y-60913307D01*
X78437410Y-61095905D01*
X78411753Y-61194999D01*
X78411753Y-61195000D01*
X81453366Y-61195000D01*
X81453067Y-61193051D01*
X81382435Y-61002336D01*
X81274854Y-60829736D01*
X81134733Y-60682330D01*
X80967805Y-60566144D01*
X80780907Y-60485940D01*
X80581689Y-60445000D01*
X80030384Y-60445000D01*
X79971931Y-60430358D01*
X79927282Y-60389891D01*
X79906981Y-60333154D01*
X79915823Y-60273547D01*
X79960687Y-60165235D01*
X79980466Y-60015000D01*
X79960687Y-59864764D01*
X79936918Y-59807381D01*
X79902698Y-59724767D01*
X79812995Y-59607865D01*
X79789257Y-59553914D01*
X79793112Y-59495094D01*
X79823692Y-59444700D01*
X79855662Y-59412730D01*
X79936111Y-59332281D01*
X80033043Y-59178015D01*
X80093217Y-59006047D01*
X80113616Y-58825000D01*
X80093217Y-58643953D01*
X80033043Y-58471985D01*
X79952505Y-58343810D01*
X79933500Y-58277840D01*
X79933500Y-56022160D01*
X79952506Y-55956188D01*
X79982524Y-55908415D01*
X80033043Y-55828015D01*
X80093217Y-55656047D01*
X80113616Y-55475000D01*
X80093217Y-55293953D01*
X80033043Y-55121985D01*
X79936111Y-54967719D01*
X79807281Y-54838889D01*
X79807280Y-54838888D01*
X79799186Y-54830794D01*
X79765807Y-54769951D01*
X79770346Y-54700702D01*
X79801056Y-54658819D01*
X79800513Y-54658402D01*
X79810451Y-54645451D01*
X79902698Y-54525233D01*
X79960687Y-54385236D01*
X79980466Y-54235000D01*
X79980288Y-54233651D01*
X79960687Y-54084764D01*
X79915823Y-53976453D01*
X79906981Y-53916846D01*
X79927282Y-53860109D01*
X79971931Y-53819642D01*
X80030384Y-53805000D01*
X80530710Y-53805000D01*
X80682339Y-53789580D01*
X80876389Y-53728696D01*
X81054214Y-53629996D01*
X81208531Y-53497520D01*
X81333021Y-53336692D01*
X81422589Y-53154094D01*
X81448246Y-53055000D01*
X78406634Y-53055000D01*
X77018246Y-53055000D01*
X76000000Y-53055000D01*
X75500000Y-53055000D01*
X74476634Y-53055000D01*
X72000500Y-53055000D01*
X72000500Y-52555000D01*
X74481753Y-52555000D01*
X75500000Y-52555000D01*
X75500000Y-51805000D01*
X76000000Y-51805000D01*
X76000000Y-52555000D01*
X77023366Y-52555000D01*
X78411753Y-52555000D01*
X79680000Y-52555000D01*
X79680000Y-51805000D01*
X80180000Y-51805000D01*
X80180000Y-52555000D01*
X81453366Y-52555000D01*
X81453067Y-52553051D01*
X81382435Y-52362336D01*
X81274854Y-52189736D01*
X81134733Y-52042330D01*
X80967805Y-51926144D01*
X80780907Y-51845940D01*
X80581689Y-51805000D01*
X80180000Y-51805000D01*
X79680000Y-51805000D01*
X79329290Y-51805000D01*
X79177660Y-51820419D01*
X78983610Y-51881303D01*
X78805785Y-51980003D01*
X78651468Y-52112479D01*
X78526978Y-52273307D01*
X78437410Y-52455905D01*
X78411753Y-52554999D01*
X78411753Y-52555000D01*
X77023366Y-52555000D01*
X77023067Y-52553051D01*
X76952435Y-52362336D01*
X76844854Y-52189736D01*
X76704733Y-52042330D01*
X76537805Y-51926144D01*
X76350907Y-51845940D01*
X76151689Y-51805000D01*
X76000000Y-51805000D01*
X75500000Y-51805000D01*
X75399290Y-51805000D01*
X75247660Y-51820419D01*
X75053610Y-51881303D01*
X74875785Y-51980003D01*
X74721468Y-52112479D01*
X74596978Y-52273307D01*
X74507410Y-52455905D01*
X74481753Y-52554999D01*
X74481753Y-52555000D01*
X72000500Y-52555000D01*
X72000500Y-48510000D01*
X73000001Y-48510000D01*
X73000001Y-49116579D01*
X73006408Y-49187104D01*
X73056981Y-49349397D01*
X73144925Y-49494875D01*
X73265124Y-49615074D01*
X73410603Y-49703019D01*
X73572893Y-49753590D01*
X73643424Y-49760000D01*
X73650000Y-49760000D01*
X73650000Y-48510000D01*
X74150000Y-48510000D01*
X74150000Y-49759999D01*
X74156579Y-49759999D01*
X74227104Y-49753591D01*
X74389397Y-49703018D01*
X74534875Y-49615074D01*
X74655074Y-49494875D01*
X74743019Y-49349396D01*
X74793590Y-49187106D01*
X74800000Y-49116576D01*
X74800000Y-48510000D01*
X74150000Y-48510000D01*
X73650000Y-48510000D01*
X73000001Y-48510000D01*
X72000500Y-48510000D01*
X72000500Y-48010000D01*
X73000000Y-48010000D01*
X73650000Y-48010000D01*
X73650000Y-46760001D01*
X73643421Y-46760001D01*
X73572895Y-46766408D01*
X73410602Y-46816981D01*
X73265124Y-46904925D01*
X73144925Y-47025124D01*
X73056980Y-47170603D01*
X73006409Y-47332893D01*
X73000000Y-47403424D01*
X73000000Y-48010000D01*
X72000500Y-48010000D01*
X72000500Y-46760000D01*
X74150000Y-46760000D01*
X74150000Y-48010000D01*
X74799999Y-48010000D01*
X74799999Y-47403421D01*
X74793591Y-47332895D01*
X74743018Y-47170602D01*
X74655074Y-47025124D01*
X74534875Y-46904925D01*
X74389396Y-46816980D01*
X74227106Y-46766409D01*
X74156576Y-46760000D01*
X74150000Y-46760000D01*
X72000500Y-46760000D01*
X72000500Y-38100000D01*
X73000001Y-38100000D01*
X73000001Y-38706579D01*
X73006408Y-38777104D01*
X73056981Y-38939397D01*
X73144925Y-39084875D01*
X73265124Y-39205074D01*
X73410603Y-39293019D01*
X73572893Y-39343590D01*
X73643424Y-39350000D01*
X73650000Y-39350000D01*
X73650000Y-38100000D01*
X74150000Y-38100000D01*
X74150000Y-39349999D01*
X74156579Y-39349999D01*
X74227104Y-39343591D01*
X74389397Y-39293018D01*
X74534875Y-39205074D01*
X74655074Y-39084875D01*
X74743019Y-38939396D01*
X74793590Y-38777106D01*
X74800000Y-38706576D01*
X74800000Y-38100000D01*
X74150000Y-38100000D01*
X73650000Y-38100000D01*
X73000001Y-38100000D01*
X72000500Y-38100000D01*
X72000500Y-37600000D01*
X73000000Y-37600000D01*
X73650000Y-37600000D01*
X73650000Y-36350001D01*
X73643421Y-36350001D01*
X73572895Y-36356408D01*
X73410602Y-36406981D01*
X73265124Y-36494925D01*
X73144925Y-36615124D01*
X73056980Y-36760603D01*
X73006409Y-36922893D01*
X73000000Y-36993424D01*
X73000000Y-37600000D01*
X72000500Y-37600000D01*
X72000500Y-36350000D01*
X74150000Y-36350000D01*
X74150000Y-37600000D01*
X74799999Y-37600000D01*
X74799999Y-36993421D01*
X74793591Y-36922895D01*
X74743018Y-36760602D01*
X74655074Y-36615124D01*
X74534875Y-36494925D01*
X74389396Y-36406980D01*
X74227106Y-36356409D01*
X74156576Y-36350000D01*
X74150000Y-36350000D01*
X72000500Y-36350000D01*
X72000500Y-31999999D01*
X73094531Y-31999999D01*
X73114364Y-32226689D01*
X73173261Y-32446497D01*
X73269432Y-32652735D01*
X73399953Y-32839140D01*
X73560859Y-33000046D01*
X73747264Y-33130567D01*
X73747265Y-33130567D01*
X73747266Y-33130568D01*
X73953504Y-33226739D01*
X74173308Y-33285635D01*
X74258261Y-33293067D01*
X74343214Y-33300500D01*
X74343216Y-33300500D01*
X74456784Y-33300500D01*
X74456786Y-33300500D01*
X74524747Y-33294553D01*
X74626692Y-33285635D01*
X74846496Y-33226739D01*
X75052734Y-33130568D01*
X75239139Y-33000047D01*
X75400047Y-32839139D01*
X75530568Y-32652734D01*
X75626739Y-32446496D01*
X75685635Y-32226692D01*
X75705468Y-32000000D01*
X75705468Y-31999999D01*
X98094531Y-31999999D01*
X98114364Y-32226689D01*
X98173261Y-32446497D01*
X98269432Y-32652735D01*
X98399953Y-32839140D01*
X98560859Y-33000046D01*
X98747264Y-33130567D01*
X98747265Y-33130567D01*
X98747266Y-33130568D01*
X98953504Y-33226739D01*
X99173308Y-33285635D01*
X99258261Y-33293067D01*
X99343214Y-33300500D01*
X99343216Y-33300500D01*
X99456784Y-33300500D01*
X99456786Y-33300500D01*
X99524747Y-33294553D01*
X99626692Y-33285635D01*
X99846496Y-33226739D01*
X100052734Y-33130568D01*
X100239139Y-33000047D01*
X100400047Y-32839139D01*
X100530568Y-32652734D01*
X100626739Y-32446496D01*
X100685635Y-32226692D01*
X100705468Y-32000000D01*
X100685635Y-31773308D01*
X100626739Y-31553504D01*
X100530568Y-31347266D01*
X100400047Y-31160861D01*
X100400046Y-31160859D01*
X100239140Y-30999953D01*
X100052735Y-30869432D01*
X99846497Y-30773261D01*
X99626689Y-30714364D01*
X99456786Y-30699500D01*
X99456784Y-30699500D01*
X99343216Y-30699500D01*
X99343214Y-30699500D01*
X99173310Y-30714364D01*
X98953502Y-30773261D01*
X98747264Y-30869432D01*
X98560859Y-30999953D01*
X98399953Y-31160859D01*
X98269432Y-31347264D01*
X98173261Y-31553502D01*
X98114364Y-31773310D01*
X98094531Y-31999999D01*
X75705468Y-31999999D01*
X75685635Y-31773308D01*
X75626739Y-31553504D01*
X75530568Y-31347266D01*
X75400047Y-31160861D01*
X75400046Y-31160859D01*
X75239140Y-30999953D01*
X75052735Y-30869432D01*
X74846497Y-30773261D01*
X74626689Y-30714364D01*
X74456786Y-30699500D01*
X74456784Y-30699500D01*
X74343216Y-30699500D01*
X74343214Y-30699500D01*
X74173310Y-30714364D01*
X73953502Y-30773261D01*
X73747264Y-30869432D01*
X73560859Y-30999953D01*
X73399953Y-31160859D01*
X73269432Y-31347264D01*
X73173261Y-31553502D01*
X73114364Y-31773310D01*
X73094531Y-31999999D01*
X72000500Y-31999999D01*
X72000500Y-29908124D01*
X72001559Y-29891953D01*
X72002765Y-29882789D01*
X72003199Y-29879798D01*
X72015483Y-29802241D01*
X72023389Y-29774205D01*
X72033260Y-29750375D01*
X72037315Y-29741579D01*
X72061805Y-29693515D01*
X72073901Y-29674343D01*
X72091943Y-29650831D01*
X72102608Y-29638670D01*
X72138670Y-29602608D01*
X72150831Y-29591943D01*
X72174343Y-29573901D01*
X72193515Y-29561805D01*
X72241579Y-29537315D01*
X72250375Y-29533260D01*
X72274205Y-29523389D01*
X72302241Y-29515483D01*
X72379798Y-29503199D01*
X72382789Y-29502765D01*
X72391959Y-29501558D01*
X72408124Y-29500500D01*
X117875500Y-29500500D01*
X117937500Y-29517113D01*
G37*
G04 #@! TD.AperFunction*
G04 #@! TA.AperFunction,Conductor*
G36*
X89183687Y-44442939D02*
G01*
X89223914Y-44469818D01*
X89910325Y-45156230D01*
X90596079Y-45841984D01*
X90625440Y-45888710D01*
X90625837Y-45889846D01*
X90625838Y-45889850D01*
X90682291Y-46051183D01*
X90773229Y-46195909D01*
X90894091Y-46316771D01*
X91038817Y-46407709D01*
X91200150Y-46464162D01*
X91200153Y-46464162D01*
X91201290Y-46464560D01*
X91248017Y-46493921D01*
X92128026Y-47373930D01*
X92160120Y-47429517D01*
X92160120Y-47493703D01*
X92128028Y-47549291D01*
X92073229Y-47604091D01*
X91982292Y-47748815D01*
X91925837Y-47910153D01*
X91906700Y-48080000D01*
X91925837Y-48249846D01*
X91925837Y-48249848D01*
X91925838Y-48249850D01*
X91982291Y-48411183D01*
X92073229Y-48555909D01*
X92194091Y-48676771D01*
X92338817Y-48767709D01*
X92454052Y-48808031D01*
X92500776Y-48837391D01*
X94374139Y-50710754D01*
X94403499Y-50757480D01*
X94422289Y-50811180D01*
X94422291Y-50811183D01*
X94513229Y-50955909D01*
X94634091Y-51076771D01*
X94778817Y-51167709D01*
X94940150Y-51224162D01*
X95110000Y-51243299D01*
X95279850Y-51224162D01*
X95441183Y-51167709D01*
X95585909Y-51076771D01*
X95620707Y-51041972D01*
X95676294Y-51009879D01*
X95740482Y-51009879D01*
X95796069Y-51041973D01*
X98320181Y-53566085D01*
X98347061Y-53606313D01*
X98356500Y-53653766D01*
X98356500Y-56426367D01*
X98354210Y-56447108D01*
X98356439Y-56518017D01*
X98356500Y-56521913D01*
X98356500Y-56533226D01*
X98339857Y-56595278D01*
X98294395Y-56640674D01*
X98232320Y-56657225D01*
X97586888Y-56656282D01*
X94398705Y-56651619D01*
X94351349Y-56642145D01*
X94311205Y-56615300D01*
X91459819Y-53763914D01*
X91432939Y-53723686D01*
X91423500Y-53676233D01*
X91423500Y-50333180D01*
X91442506Y-50267208D01*
X91448049Y-50258386D01*
X91477709Y-50211183D01*
X91534162Y-50049850D01*
X91553299Y-49880000D01*
X91534162Y-49710150D01*
X91477709Y-49548817D01*
X91386771Y-49404091D01*
X91265909Y-49283229D01*
X91121183Y-49192291D01*
X90959850Y-49135838D01*
X90959848Y-49135837D01*
X90959846Y-49135837D01*
X90790000Y-49116700D01*
X90620153Y-49135837D01*
X90620150Y-49135837D01*
X90620150Y-49135838D01*
X90458817Y-49192291D01*
X90458815Y-49192291D01*
X90458815Y-49192292D01*
X90302261Y-49290662D01*
X90300642Y-49288086D01*
X90259753Y-49310681D01*
X90191214Y-49306830D01*
X90037311Y-49252977D01*
X89988617Y-49247491D01*
X89932649Y-49226725D01*
X89892870Y-49182212D01*
X89878500Y-49124271D01*
X89878500Y-48206392D01*
X89880867Y-48184952D01*
X89878824Y-48119964D01*
X89878561Y-48111580D01*
X89878500Y-48107685D01*
X89878500Y-48078573D01*
X89878500Y-48078568D01*
X89877931Y-48074072D01*
X89877015Y-48062427D01*
X89876448Y-48044372D01*
X89875562Y-48016169D01*
X89869534Y-47995421D01*
X89865591Y-47976384D01*
X89862882Y-47954936D01*
X89845830Y-47911869D01*
X89842062Y-47900861D01*
X89829145Y-47856400D01*
X89829144Y-47856399D01*
X89829144Y-47856397D01*
X89818151Y-47837810D01*
X89809589Y-47820335D01*
X89803075Y-47803882D01*
X89801635Y-47800244D01*
X89774423Y-47762792D01*
X89768021Y-47753047D01*
X89744453Y-47713193D01*
X89729169Y-47697909D01*
X89716539Y-47683121D01*
X89703841Y-47665643D01*
X89668171Y-47636134D01*
X89659532Y-47628272D01*
X86676441Y-44645181D01*
X86646191Y-44595818D01*
X86641649Y-44538102D01*
X86663804Y-44484615D01*
X86707827Y-44447015D01*
X86764122Y-44433500D01*
X89136234Y-44433500D01*
X89183687Y-44442939D01*
G37*
G04 #@! TD.AperFunction*
G04 #@! TA.AperFunction,Conductor*
G36*
X98512200Y-38770185D02*
G01*
X98549800Y-38814208D01*
X98563315Y-38870503D01*
X98563315Y-41913182D01*
X98561025Y-41933923D01*
X98563254Y-42004832D01*
X98563315Y-42008728D01*
X98563315Y-42036670D01*
X98563833Y-42040771D01*
X98564749Y-42052412D01*
X98566141Y-42096703D01*
X98571837Y-42116307D01*
X98575782Y-42135359D01*
X98578340Y-42155613D01*
X98594653Y-42196816D01*
X98598436Y-42207864D01*
X98610797Y-42250408D01*
X98621189Y-42267981D01*
X98629746Y-42285448D01*
X98637263Y-42304433D01*
X98663306Y-42340278D01*
X98669720Y-42350042D01*
X98692273Y-42388177D01*
X98706705Y-42402609D01*
X98719341Y-42417404D01*
X98731341Y-42433920D01*
X98731342Y-42433921D01*
X98731343Y-42433922D01*
X98743800Y-42444227D01*
X98765482Y-42462164D01*
X98774123Y-42470027D01*
X100072912Y-43768817D01*
X100085956Y-43785098D01*
X100087999Y-43787016D01*
X100088000Y-43787018D01*
X100137685Y-43833675D01*
X100140448Y-43836353D01*
X100160230Y-43856135D01*
X100163511Y-43858680D01*
X100172370Y-43866247D01*
X100204679Y-43896586D01*
X100222564Y-43906418D01*
X100238825Y-43917099D01*
X100254959Y-43929614D01*
X100295625Y-43947210D01*
X100306112Y-43952348D01*
X100344940Y-43973695D01*
X100364708Y-43978770D01*
X100383119Y-43985073D01*
X100401855Y-43993181D01*
X100445626Y-44000113D01*
X100457041Y-44002477D01*
X100499970Y-44013500D01*
X100520384Y-44013500D01*
X100539783Y-44015027D01*
X100559943Y-44018220D01*
X100604056Y-44014050D01*
X100615726Y-44013500D01*
X103479458Y-44013500D01*
X103526911Y-44022939D01*
X103567139Y-44049819D01*
X105780767Y-46263448D01*
X105810127Y-46310174D01*
X105816306Y-46365012D01*
X105798081Y-46417100D01*
X105759060Y-46456122D01*
X105684089Y-46503230D01*
X105563229Y-46624090D01*
X105472290Y-46768816D01*
X105458881Y-46807137D01*
X105429521Y-46853862D01*
X101202434Y-51080950D01*
X101155707Y-51110311D01*
X101100869Y-51116489D01*
X101048782Y-51098263D01*
X100969144Y-51048223D01*
X100807811Y-50991770D01*
X100807809Y-50991769D01*
X100807807Y-50991769D01*
X100637961Y-50972632D01*
X100468114Y-50991769D01*
X100468111Y-50991769D01*
X100468111Y-50991770D01*
X100306778Y-51048223D01*
X100306776Y-51048223D01*
X100306776Y-51048224D01*
X100250753Y-51083426D01*
X100184781Y-51102432D01*
X99579699Y-51102432D01*
X99532246Y-51092993D01*
X99492018Y-51066113D01*
X92742403Y-44316498D01*
X92709193Y-44256410D01*
X92713042Y-44187863D01*
X92714428Y-44183902D01*
X92754162Y-44070350D01*
X92754162Y-44070343D01*
X92754560Y-44069208D01*
X92783919Y-44022483D01*
X97699492Y-39106911D01*
X97733369Y-39082875D01*
X97773287Y-39071375D01*
X97791186Y-39069358D01*
X97921063Y-39054725D01*
X98082396Y-38998272D01*
X98227122Y-38907334D01*
X98347984Y-38786472D01*
X98347984Y-38786471D01*
X98351634Y-38782822D01*
X98400997Y-38752572D01*
X98458713Y-38748030D01*
X98512200Y-38770185D01*
G37*
G04 #@! TD.AperFunction*
M02*
