M48
; DRILL file {KiCad 7.0.2-6a45011f42~172~ubuntu22.04.1} date Mon 15 May 2023 14:22:38 CEST
; FORMAT={-:-/ absolute / metric / decimal}
; #@! TF.CreationDate,2023-05-15T14:22:38+02:00
; #@! TF.GenerationSoftware,Kicad,Pcbnew,7.0.2-6a45011f42~172~ubuntu22.04.1
; #@! TF.FileFunction,Plated,1,2,PTH
FMAT,2
METRIC
; #@! TA.AperFunction,Plated,PTH,ViaDrill
T1C0.300
; #@! TA.AperFunction,Plated,PTH,ViaDrill
T2C0.400
; #@! TA.AperFunction,Plated,PTH,ComponentDrill
T3C0.600
; #@! TA.AperFunction,Plated,PTH,ComponentDrill
T4C1.000
%
G90
G05
T1
X73.94Y-40.43
X79.74Y-42.45
X83.111Y-42.857
X83.71Y-46.46
X83.75Y-48.26
X85.512Y-43.132
X86.37Y-39.83
X86.699Y-43.189
X87.48Y-59.51
X88.13Y-45.18
X89.867Y-49.997
X90.79Y-49.88
X91.18Y-35.11
X91.37Y-45.72
X92.01Y-43.901
X92.67Y-48.08
X92.83Y-33.14
X95.11Y-50.48
X95.91Y-36.17
X97.751Y-38.311
X99.16Y-44.15
X99.18Y-56.7
X99.197Y-38.342
X100.01Y-53.24
X100.19Y-39.03
X100.3Y-54.12
X100.638Y-51.736
X101.04Y-37.68
X101.549Y-36.264
X102.6Y-39.24
X105.659Y-30.772
X105.95Y-57.8
X106.16Y-47.1
X107.99Y-43.94
X109.685Y-47.357
X110.0Y-46.48
X111.41Y-39.04
X118.26Y-54.2
T2
X79.3Y-55.475
X79.3Y-58.825
X80.828Y-46.81
X80.897Y-44.36
X82.13Y-39.81
X82.425Y-61.375
X84.27Y-36.12
X87.43Y-55.5
X90.0Y-31.76
X93.13Y-53.69
X101.32Y-58.02
X101.576Y-53.79
X102.86Y-44.57
X102.86Y-46.93
X106.34Y-56.07
X108.77Y-42.73
X116.37Y-50.66
X117.19Y-56.43
T4
X107.03Y-60.25
X109.57Y-60.25
X112.11Y-60.25
X114.65Y-60.25
X117.19Y-60.25
X119.73Y-60.25
T3
X76.05Y-52.805G85X75.45Y-52.805
G05
X76.05Y-61.445G85X75.45Y-61.445
G05
X80.48Y-52.805G85X79.38Y-52.805
G05
X80.48Y-61.445G85X79.38Y-61.445
G05
T0
M30
