M48
; DRILL file {KiCad 7.0.1-3b83917a11~172~ubuntu22.04.1} date Sun 23 Apr 2023 17:35:02 CEST
; FORMAT={-:-/ absolute / metric / decimal}
; #@! TF.CreationDate,2023-04-23T17:35:02+02:00
; #@! TF.GenerationSoftware,Kicad,Pcbnew,7.0.1-3b83917a11~172~ubuntu22.04.1
; #@! TF.FileFunction,Plated,1,2,PTH
FMAT,2
METRIC
; #@! TA.AperFunction,Plated,PTH,ViaDrill
T1C0.300
; #@! TA.AperFunction,Plated,PTH,ViaDrill
T2C0.400
; #@! TA.AperFunction,Plated,PTH,ComponentDrill
T3C0.600
%
G90
G05
T1
X73.94Y-40.43
X78.81Y-49.75
X79.74Y-42.45
X83.111Y-42.857
X85.512Y-43.132
X85.96Y-56.22
X85.97Y-47.3
X86.37Y-39.83
X86.699Y-43.189
X88.64Y-47.54
X90.805Y-45.115
X91.18Y-35.11
X91.38Y-47.61
X92.01Y-43.901
X92.2Y-47.56
X92.83Y-33.14
X93.25Y-47.3
X94.75Y-45.32
X96.94Y-37.3
X97.3Y-44.92
X97.69Y-38.22
X98.17Y-47.36
X99.24Y-38.75
X99.26Y-45.05
X100.02Y-38.89
X101.31Y-40.52
X101.68Y-36.25
X105.659Y-30.772
X106.69Y-48.26
X106.72Y-47.27
X107.99Y-43.94
X109.685Y-47.357
X110.0Y-46.48
X110.74Y-53.61
T2
X79.3Y-55.475
X79.3Y-58.825
X80.59Y-46.94
X80.66Y-44.49
X82.13Y-39.81
X82.425Y-61.375
X83.91Y-47.36
X84.27Y-36.12
X101.59Y-53.665
T3
X76.05Y-52.805G85X75.45Y-52.805
G05
X76.05Y-61.445G85X75.45Y-61.445
G05
X80.48Y-52.805G85X79.38Y-52.805
G05
X80.48Y-61.445G85X79.38Y-61.445
G05
T0
M30
