%TF.GenerationSoftware,KiCad,Pcbnew,7.0.2-6a45011f42~172~ubuntu22.04.1*%
%TF.CreationDate,2023-05-15T14:22:39+02:00*%
%TF.ProjectId,sharp-lcd-128x128,73686172-702d-46c6-9364-2d3132387831,rev?*%
%TF.SameCoordinates,Original*%
%TF.FileFunction,Drillmap*%
%TF.FilePolarity,Positive*%
%FSLAX45Y45*%
G04 Gerber Fmt 4.5, Leading zero omitted, Abs format (unit mm)*
G04 Created by KiCad (PCBNEW 7.0.2-6a45011f42~172~ubuntu22.04.1) date 2023-05-15 14:22:39*
%MOMM*%
%LPD*%
G01*
G04 APERTURE LIST*
%ADD10C,0.100000*%
%ADD11C,0.200000*%
%ADD12C,0.065000*%
%ADD13C,0.210000*%
G04 APERTURE END LIST*
D10*
X7230000Y-6250000D02*
X12198787Y-6250000D01*
X7240000Y-2950000D02*
G75*
G03*
X7200000Y-2990000I0J-40000D01*
G01*
X12229000Y-2950000D02*
X12229000Y-4250000D01*
X12229000Y-2950000D02*
X11880000Y-2950000D01*
X7200000Y-2990000D02*
X7200000Y-6220000D01*
X12229000Y-4900000D02*
X12229000Y-6220000D01*
X11880000Y-3700000D02*
X11880000Y-2950000D01*
X12150000Y-4250000D02*
X12150000Y-4900000D01*
X11880000Y-3700000D02*
X11800000Y-3700000D01*
X12198787Y-6249787D02*
G75*
G03*
X12228787Y-6219787I3J29997D01*
G01*
X7200000Y-6220000D02*
G75*
G03*
X7230000Y-6250000I30000J0D01*
G01*
X12150000Y-4900000D02*
X12229000Y-4900000D01*
X12150000Y-4250000D02*
X12229000Y-4250000D01*
X11800000Y-2950000D02*
X7240000Y-2950000D01*
X11800000Y-3700000D02*
X11800000Y-2950000D01*
D11*
D12*
X7907500Y-5391000D02*
X7972500Y-5456000D01*
X7972500Y-5391000D02*
X7907500Y-5456000D01*
X7907500Y-5969000D02*
X7972500Y-6034000D01*
X7972500Y-5969000D02*
X7907500Y-6034000D01*
D13*
X7545000Y-3200000D02*
G75*
G03*
X7545000Y-3200000I-105000J0D01*
G01*
X10045000Y-3200000D02*
G75*
G03*
X10045000Y-3200000I-105000J0D01*
G01*
D11*
X7442619Y-6567524D02*
X7442619Y-6367524D01*
X7442619Y-6367524D02*
X7490238Y-6367524D01*
X7490238Y-6367524D02*
X7518809Y-6377048D01*
X7518809Y-6377048D02*
X7537857Y-6396095D01*
X7537857Y-6396095D02*
X7547381Y-6415143D01*
X7547381Y-6415143D02*
X7556905Y-6453238D01*
X7556905Y-6453238D02*
X7556905Y-6481809D01*
X7556905Y-6481809D02*
X7547381Y-6519905D01*
X7547381Y-6519905D02*
X7537857Y-6538952D01*
X7537857Y-6538952D02*
X7518809Y-6558000D01*
X7518809Y-6558000D02*
X7490238Y-6567524D01*
X7490238Y-6567524D02*
X7442619Y-6567524D01*
X7642619Y-6567524D02*
X7642619Y-6434190D01*
X7642619Y-6472286D02*
X7652143Y-6453238D01*
X7652143Y-6453238D02*
X7661667Y-6443714D01*
X7661667Y-6443714D02*
X7680714Y-6434190D01*
X7680714Y-6434190D02*
X7699762Y-6434190D01*
X7766428Y-6567524D02*
X7766428Y-6434190D01*
X7766428Y-6367524D02*
X7756905Y-6377048D01*
X7756905Y-6377048D02*
X7766428Y-6386571D01*
X7766428Y-6386571D02*
X7775952Y-6377048D01*
X7775952Y-6377048D02*
X7766428Y-6367524D01*
X7766428Y-6367524D02*
X7766428Y-6386571D01*
X7890238Y-6567524D02*
X7871190Y-6558000D01*
X7871190Y-6558000D02*
X7861667Y-6538952D01*
X7861667Y-6538952D02*
X7861667Y-6367524D01*
X7995000Y-6567524D02*
X7975952Y-6558000D01*
X7975952Y-6558000D02*
X7966428Y-6538952D01*
X7966428Y-6538952D02*
X7966428Y-6367524D01*
X8223571Y-6567524D02*
X8223571Y-6367524D01*
X8223571Y-6367524D02*
X8290238Y-6510381D01*
X8290238Y-6510381D02*
X8356905Y-6367524D01*
X8356905Y-6367524D02*
X8356905Y-6567524D01*
X8537857Y-6567524D02*
X8537857Y-6462762D01*
X8537857Y-6462762D02*
X8528333Y-6443714D01*
X8528333Y-6443714D02*
X8509286Y-6434190D01*
X8509286Y-6434190D02*
X8471190Y-6434190D01*
X8471190Y-6434190D02*
X8452143Y-6443714D01*
X8537857Y-6558000D02*
X8518810Y-6567524D01*
X8518810Y-6567524D02*
X8471190Y-6567524D01*
X8471190Y-6567524D02*
X8452143Y-6558000D01*
X8452143Y-6558000D02*
X8442619Y-6538952D01*
X8442619Y-6538952D02*
X8442619Y-6519905D01*
X8442619Y-6519905D02*
X8452143Y-6500857D01*
X8452143Y-6500857D02*
X8471190Y-6491333D01*
X8471190Y-6491333D02*
X8518810Y-6491333D01*
X8518810Y-6491333D02*
X8537857Y-6481809D01*
X8633095Y-6434190D02*
X8633095Y-6634190D01*
X8633095Y-6443714D02*
X8652143Y-6434190D01*
X8652143Y-6434190D02*
X8690238Y-6434190D01*
X8690238Y-6434190D02*
X8709286Y-6443714D01*
X8709286Y-6443714D02*
X8718810Y-6453238D01*
X8718810Y-6453238D02*
X8728333Y-6472286D01*
X8728333Y-6472286D02*
X8728333Y-6529428D01*
X8728333Y-6529428D02*
X8718810Y-6548476D01*
X8718810Y-6548476D02*
X8709286Y-6558000D01*
X8709286Y-6558000D02*
X8690238Y-6567524D01*
X8690238Y-6567524D02*
X8652143Y-6567524D01*
X8652143Y-6567524D02*
X8633095Y-6558000D01*
X8814048Y-6548476D02*
X8823571Y-6558000D01*
X8823571Y-6558000D02*
X8814048Y-6567524D01*
X8814048Y-6567524D02*
X8804524Y-6558000D01*
X8804524Y-6558000D02*
X8814048Y-6548476D01*
X8814048Y-6548476D02*
X8814048Y-6567524D01*
X8814048Y-6443714D02*
X8823571Y-6453238D01*
X8823571Y-6453238D02*
X8814048Y-6462762D01*
X8814048Y-6462762D02*
X8804524Y-6453238D01*
X8804524Y-6453238D02*
X8814048Y-6443714D01*
X8814048Y-6443714D02*
X8814048Y-6462762D01*
D12*
X7130000Y-6862500D02*
X7195000Y-6927500D01*
X7195000Y-6862500D02*
X7130000Y-6927500D01*
D11*
X7480714Y-6787524D02*
X7499762Y-6787524D01*
X7499762Y-6787524D02*
X7518809Y-6797048D01*
X7518809Y-6797048D02*
X7528333Y-6806571D01*
X7528333Y-6806571D02*
X7537857Y-6825619D01*
X7537857Y-6825619D02*
X7547381Y-6863714D01*
X7547381Y-6863714D02*
X7547381Y-6911333D01*
X7547381Y-6911333D02*
X7537857Y-6949428D01*
X7537857Y-6949428D02*
X7528333Y-6968476D01*
X7528333Y-6968476D02*
X7518809Y-6978000D01*
X7518809Y-6978000D02*
X7499762Y-6987524D01*
X7499762Y-6987524D02*
X7480714Y-6987524D01*
X7480714Y-6987524D02*
X7461667Y-6978000D01*
X7461667Y-6978000D02*
X7452143Y-6968476D01*
X7452143Y-6968476D02*
X7442619Y-6949428D01*
X7442619Y-6949428D02*
X7433095Y-6911333D01*
X7433095Y-6911333D02*
X7433095Y-6863714D01*
X7433095Y-6863714D02*
X7442619Y-6825619D01*
X7442619Y-6825619D02*
X7452143Y-6806571D01*
X7452143Y-6806571D02*
X7461667Y-6797048D01*
X7461667Y-6797048D02*
X7480714Y-6787524D01*
X7633095Y-6968476D02*
X7642619Y-6978000D01*
X7642619Y-6978000D02*
X7633095Y-6987524D01*
X7633095Y-6987524D02*
X7623571Y-6978000D01*
X7623571Y-6978000D02*
X7633095Y-6968476D01*
X7633095Y-6968476D02*
X7633095Y-6987524D01*
X7814048Y-6787524D02*
X7775952Y-6787524D01*
X7775952Y-6787524D02*
X7756905Y-6797048D01*
X7756905Y-6797048D02*
X7747381Y-6806571D01*
X7747381Y-6806571D02*
X7728333Y-6835143D01*
X7728333Y-6835143D02*
X7718809Y-6873238D01*
X7718809Y-6873238D02*
X7718809Y-6949428D01*
X7718809Y-6949428D02*
X7728333Y-6968476D01*
X7728333Y-6968476D02*
X7737857Y-6978000D01*
X7737857Y-6978000D02*
X7756905Y-6987524D01*
X7756905Y-6987524D02*
X7795000Y-6987524D01*
X7795000Y-6987524D02*
X7814048Y-6978000D01*
X7814048Y-6978000D02*
X7823571Y-6968476D01*
X7823571Y-6968476D02*
X7833095Y-6949428D01*
X7833095Y-6949428D02*
X7833095Y-6901809D01*
X7833095Y-6901809D02*
X7823571Y-6882762D01*
X7823571Y-6882762D02*
X7814048Y-6873238D01*
X7814048Y-6873238D02*
X7795000Y-6863714D01*
X7795000Y-6863714D02*
X7756905Y-6863714D01*
X7756905Y-6863714D02*
X7737857Y-6873238D01*
X7737857Y-6873238D02*
X7728333Y-6882762D01*
X7728333Y-6882762D02*
X7718809Y-6901809D01*
X8014048Y-6787524D02*
X7918809Y-6787524D01*
X7918809Y-6787524D02*
X7909286Y-6882762D01*
X7909286Y-6882762D02*
X7918809Y-6873238D01*
X7918809Y-6873238D02*
X7937857Y-6863714D01*
X7937857Y-6863714D02*
X7985476Y-6863714D01*
X7985476Y-6863714D02*
X8004524Y-6873238D01*
X8004524Y-6873238D02*
X8014048Y-6882762D01*
X8014048Y-6882762D02*
X8023571Y-6901809D01*
X8023571Y-6901809D02*
X8023571Y-6949428D01*
X8023571Y-6949428D02*
X8014048Y-6968476D01*
X8014048Y-6968476D02*
X8004524Y-6978000D01*
X8004524Y-6978000D02*
X7985476Y-6987524D01*
X7985476Y-6987524D02*
X7937857Y-6987524D01*
X7937857Y-6987524D02*
X7918809Y-6978000D01*
X7918809Y-6978000D02*
X7909286Y-6968476D01*
X8147381Y-6787524D02*
X8166429Y-6787524D01*
X8166429Y-6787524D02*
X8185476Y-6797048D01*
X8185476Y-6797048D02*
X8195000Y-6806571D01*
X8195000Y-6806571D02*
X8204524Y-6825619D01*
X8204524Y-6825619D02*
X8214048Y-6863714D01*
X8214048Y-6863714D02*
X8214048Y-6911333D01*
X8214048Y-6911333D02*
X8204524Y-6949428D01*
X8204524Y-6949428D02*
X8195000Y-6968476D01*
X8195000Y-6968476D02*
X8185476Y-6978000D01*
X8185476Y-6978000D02*
X8166429Y-6987524D01*
X8166429Y-6987524D02*
X8147381Y-6987524D01*
X8147381Y-6987524D02*
X8128333Y-6978000D01*
X8128333Y-6978000D02*
X8118809Y-6968476D01*
X8118809Y-6968476D02*
X8109286Y-6949428D01*
X8109286Y-6949428D02*
X8099762Y-6911333D01*
X8099762Y-6911333D02*
X8099762Y-6863714D01*
X8099762Y-6863714D02*
X8109286Y-6825619D01*
X8109286Y-6825619D02*
X8118809Y-6806571D01*
X8118809Y-6806571D02*
X8128333Y-6797048D01*
X8128333Y-6797048D02*
X8147381Y-6787524D01*
X8299762Y-6987524D02*
X8299762Y-6854190D01*
X8299762Y-6873238D02*
X8309286Y-6863714D01*
X8309286Y-6863714D02*
X8328333Y-6854190D01*
X8328333Y-6854190D02*
X8356905Y-6854190D01*
X8356905Y-6854190D02*
X8375952Y-6863714D01*
X8375952Y-6863714D02*
X8385476Y-6882762D01*
X8385476Y-6882762D02*
X8385476Y-6987524D01*
X8385476Y-6882762D02*
X8395000Y-6863714D01*
X8395000Y-6863714D02*
X8414048Y-6854190D01*
X8414048Y-6854190D02*
X8442619Y-6854190D01*
X8442619Y-6854190D02*
X8461667Y-6863714D01*
X8461667Y-6863714D02*
X8471191Y-6882762D01*
X8471191Y-6882762D02*
X8471191Y-6987524D01*
X8566429Y-6987524D02*
X8566429Y-6854190D01*
X8566429Y-6873238D02*
X8575952Y-6863714D01*
X8575952Y-6863714D02*
X8595000Y-6854190D01*
X8595000Y-6854190D02*
X8623572Y-6854190D01*
X8623572Y-6854190D02*
X8642619Y-6863714D01*
X8642619Y-6863714D02*
X8652143Y-6882762D01*
X8652143Y-6882762D02*
X8652143Y-6987524D01*
X8652143Y-6882762D02*
X8661667Y-6863714D01*
X8661667Y-6863714D02*
X8680714Y-6854190D01*
X8680714Y-6854190D02*
X8709286Y-6854190D01*
X8709286Y-6854190D02*
X8728333Y-6863714D01*
X8728333Y-6863714D02*
X8737857Y-6882762D01*
X8737857Y-6882762D02*
X8737857Y-6987524D01*
X9128333Y-6778000D02*
X8956905Y-7035143D01*
X9385476Y-6787524D02*
X9404524Y-6787524D01*
X9404524Y-6787524D02*
X9423572Y-6797048D01*
X9423572Y-6797048D02*
X9433095Y-6806571D01*
X9433095Y-6806571D02*
X9442619Y-6825619D01*
X9442619Y-6825619D02*
X9452143Y-6863714D01*
X9452143Y-6863714D02*
X9452143Y-6911333D01*
X9452143Y-6911333D02*
X9442619Y-6949428D01*
X9442619Y-6949428D02*
X9433095Y-6968476D01*
X9433095Y-6968476D02*
X9423572Y-6978000D01*
X9423572Y-6978000D02*
X9404524Y-6987524D01*
X9404524Y-6987524D02*
X9385476Y-6987524D01*
X9385476Y-6987524D02*
X9366429Y-6978000D01*
X9366429Y-6978000D02*
X9356905Y-6968476D01*
X9356905Y-6968476D02*
X9347381Y-6949428D01*
X9347381Y-6949428D02*
X9337857Y-6911333D01*
X9337857Y-6911333D02*
X9337857Y-6863714D01*
X9337857Y-6863714D02*
X9347381Y-6825619D01*
X9347381Y-6825619D02*
X9356905Y-6806571D01*
X9356905Y-6806571D02*
X9366429Y-6797048D01*
X9366429Y-6797048D02*
X9385476Y-6787524D01*
X9537857Y-6968476D02*
X9547381Y-6978000D01*
X9547381Y-6978000D02*
X9537857Y-6987524D01*
X9537857Y-6987524D02*
X9528334Y-6978000D01*
X9528334Y-6978000D02*
X9537857Y-6968476D01*
X9537857Y-6968476D02*
X9537857Y-6987524D01*
X9671191Y-6787524D02*
X9690238Y-6787524D01*
X9690238Y-6787524D02*
X9709286Y-6797048D01*
X9709286Y-6797048D02*
X9718810Y-6806571D01*
X9718810Y-6806571D02*
X9728334Y-6825619D01*
X9728334Y-6825619D02*
X9737857Y-6863714D01*
X9737857Y-6863714D02*
X9737857Y-6911333D01*
X9737857Y-6911333D02*
X9728334Y-6949428D01*
X9728334Y-6949428D02*
X9718810Y-6968476D01*
X9718810Y-6968476D02*
X9709286Y-6978000D01*
X9709286Y-6978000D02*
X9690238Y-6987524D01*
X9690238Y-6987524D02*
X9671191Y-6987524D01*
X9671191Y-6987524D02*
X9652143Y-6978000D01*
X9652143Y-6978000D02*
X9642619Y-6968476D01*
X9642619Y-6968476D02*
X9633095Y-6949428D01*
X9633095Y-6949428D02*
X9623572Y-6911333D01*
X9623572Y-6911333D02*
X9623572Y-6863714D01*
X9623572Y-6863714D02*
X9633095Y-6825619D01*
X9633095Y-6825619D02*
X9642619Y-6806571D01*
X9642619Y-6806571D02*
X9652143Y-6797048D01*
X9652143Y-6797048D02*
X9671191Y-6787524D01*
X9814048Y-6806571D02*
X9823572Y-6797048D01*
X9823572Y-6797048D02*
X9842619Y-6787524D01*
X9842619Y-6787524D02*
X9890238Y-6787524D01*
X9890238Y-6787524D02*
X9909286Y-6797048D01*
X9909286Y-6797048D02*
X9918810Y-6806571D01*
X9918810Y-6806571D02*
X9928334Y-6825619D01*
X9928334Y-6825619D02*
X9928334Y-6844667D01*
X9928334Y-6844667D02*
X9918810Y-6873238D01*
X9918810Y-6873238D02*
X9804524Y-6987524D01*
X9804524Y-6987524D02*
X9928334Y-6987524D01*
X10109286Y-6787524D02*
X10014048Y-6787524D01*
X10014048Y-6787524D02*
X10004524Y-6882762D01*
X10004524Y-6882762D02*
X10014048Y-6873238D01*
X10014048Y-6873238D02*
X10033095Y-6863714D01*
X10033095Y-6863714D02*
X10080715Y-6863714D01*
X10080715Y-6863714D02*
X10099762Y-6873238D01*
X10099762Y-6873238D02*
X10109286Y-6882762D01*
X10109286Y-6882762D02*
X10118810Y-6901809D01*
X10118810Y-6901809D02*
X10118810Y-6949428D01*
X10118810Y-6949428D02*
X10109286Y-6968476D01*
X10109286Y-6968476D02*
X10099762Y-6978000D01*
X10099762Y-6978000D02*
X10080715Y-6987524D01*
X10080715Y-6987524D02*
X10033095Y-6987524D01*
X10033095Y-6987524D02*
X10014048Y-6978000D01*
X10014048Y-6978000D02*
X10004524Y-6968476D01*
X10290238Y-6787524D02*
X10252143Y-6787524D01*
X10252143Y-6787524D02*
X10233095Y-6797048D01*
X10233095Y-6797048D02*
X10223572Y-6806571D01*
X10223572Y-6806571D02*
X10204524Y-6835143D01*
X10204524Y-6835143D02*
X10195000Y-6873238D01*
X10195000Y-6873238D02*
X10195000Y-6949428D01*
X10195000Y-6949428D02*
X10204524Y-6968476D01*
X10204524Y-6968476D02*
X10214048Y-6978000D01*
X10214048Y-6978000D02*
X10233095Y-6987524D01*
X10233095Y-6987524D02*
X10271191Y-6987524D01*
X10271191Y-6987524D02*
X10290238Y-6978000D01*
X10290238Y-6978000D02*
X10299762Y-6968476D01*
X10299762Y-6968476D02*
X10309286Y-6949428D01*
X10309286Y-6949428D02*
X10309286Y-6901809D01*
X10309286Y-6901809D02*
X10299762Y-6882762D01*
X10299762Y-6882762D02*
X10290238Y-6873238D01*
X10290238Y-6873238D02*
X10271191Y-6863714D01*
X10271191Y-6863714D02*
X10233095Y-6863714D01*
X10233095Y-6863714D02*
X10214048Y-6873238D01*
X10214048Y-6873238D02*
X10204524Y-6882762D01*
X10204524Y-6882762D02*
X10195000Y-6901809D01*
X10385476Y-6787524D02*
X10385476Y-6825619D01*
X10461667Y-6787524D02*
X10461667Y-6825619D01*
X10756905Y-7063714D02*
X10747381Y-7054190D01*
X10747381Y-7054190D02*
X10728334Y-7025619D01*
X10728334Y-7025619D02*
X10718810Y-7006571D01*
X10718810Y-7006571D02*
X10709286Y-6978000D01*
X10709286Y-6978000D02*
X10699762Y-6930381D01*
X10699762Y-6930381D02*
X10699762Y-6892286D01*
X10699762Y-6892286D02*
X10709286Y-6844667D01*
X10709286Y-6844667D02*
X10718810Y-6816095D01*
X10718810Y-6816095D02*
X10728334Y-6797048D01*
X10728334Y-6797048D02*
X10747381Y-6768476D01*
X10747381Y-6768476D02*
X10756905Y-6758952D01*
X10823572Y-6806571D02*
X10833096Y-6797048D01*
X10833096Y-6797048D02*
X10852143Y-6787524D01*
X10852143Y-6787524D02*
X10899762Y-6787524D01*
X10899762Y-6787524D02*
X10918810Y-6797048D01*
X10918810Y-6797048D02*
X10928334Y-6806571D01*
X10928334Y-6806571D02*
X10937857Y-6825619D01*
X10937857Y-6825619D02*
X10937857Y-6844667D01*
X10937857Y-6844667D02*
X10928334Y-6873238D01*
X10928334Y-6873238D02*
X10814048Y-6987524D01*
X10814048Y-6987524D02*
X10937857Y-6987524D01*
X11175953Y-6987524D02*
X11175953Y-6787524D01*
X11261667Y-6987524D02*
X11261667Y-6882762D01*
X11261667Y-6882762D02*
X11252143Y-6863714D01*
X11252143Y-6863714D02*
X11233096Y-6854190D01*
X11233096Y-6854190D02*
X11204524Y-6854190D01*
X11204524Y-6854190D02*
X11185476Y-6863714D01*
X11185476Y-6863714D02*
X11175953Y-6873238D01*
X11385476Y-6987524D02*
X11366429Y-6978000D01*
X11366429Y-6978000D02*
X11356905Y-6968476D01*
X11356905Y-6968476D02*
X11347381Y-6949428D01*
X11347381Y-6949428D02*
X11347381Y-6892286D01*
X11347381Y-6892286D02*
X11356905Y-6873238D01*
X11356905Y-6873238D02*
X11366429Y-6863714D01*
X11366429Y-6863714D02*
X11385476Y-6854190D01*
X11385476Y-6854190D02*
X11414048Y-6854190D01*
X11414048Y-6854190D02*
X11433096Y-6863714D01*
X11433096Y-6863714D02*
X11442619Y-6873238D01*
X11442619Y-6873238D02*
X11452143Y-6892286D01*
X11452143Y-6892286D02*
X11452143Y-6949428D01*
X11452143Y-6949428D02*
X11442619Y-6968476D01*
X11442619Y-6968476D02*
X11433096Y-6978000D01*
X11433096Y-6978000D02*
X11414048Y-6987524D01*
X11414048Y-6987524D02*
X11385476Y-6987524D01*
X11566429Y-6987524D02*
X11547381Y-6978000D01*
X11547381Y-6978000D02*
X11537857Y-6958952D01*
X11537857Y-6958952D02*
X11537857Y-6787524D01*
X11718810Y-6978000D02*
X11699762Y-6987524D01*
X11699762Y-6987524D02*
X11661667Y-6987524D01*
X11661667Y-6987524D02*
X11642619Y-6978000D01*
X11642619Y-6978000D02*
X11633096Y-6958952D01*
X11633096Y-6958952D02*
X11633096Y-6882762D01*
X11633096Y-6882762D02*
X11642619Y-6863714D01*
X11642619Y-6863714D02*
X11661667Y-6854190D01*
X11661667Y-6854190D02*
X11699762Y-6854190D01*
X11699762Y-6854190D02*
X11718810Y-6863714D01*
X11718810Y-6863714D02*
X11728334Y-6882762D01*
X11728334Y-6882762D02*
X11728334Y-6901809D01*
X11728334Y-6901809D02*
X11633096Y-6920857D01*
X11804524Y-6978000D02*
X11823572Y-6987524D01*
X11823572Y-6987524D02*
X11861667Y-6987524D01*
X11861667Y-6987524D02*
X11880715Y-6978000D01*
X11880715Y-6978000D02*
X11890238Y-6958952D01*
X11890238Y-6958952D02*
X11890238Y-6949428D01*
X11890238Y-6949428D02*
X11880715Y-6930381D01*
X11880715Y-6930381D02*
X11861667Y-6920857D01*
X11861667Y-6920857D02*
X11833096Y-6920857D01*
X11833096Y-6920857D02*
X11814048Y-6911333D01*
X11814048Y-6911333D02*
X11804524Y-6892286D01*
X11804524Y-6892286D02*
X11804524Y-6882762D01*
X11804524Y-6882762D02*
X11814048Y-6863714D01*
X11814048Y-6863714D02*
X11833096Y-6854190D01*
X11833096Y-6854190D02*
X11861667Y-6854190D01*
X11861667Y-6854190D02*
X11880715Y-6863714D01*
X11956905Y-7063714D02*
X11966429Y-7054190D01*
X11966429Y-7054190D02*
X11985477Y-7025619D01*
X11985477Y-7025619D02*
X11995000Y-7006571D01*
X11995000Y-7006571D02*
X12004524Y-6978000D01*
X12004524Y-6978000D02*
X12014048Y-6930381D01*
X12014048Y-6930381D02*
X12014048Y-6892286D01*
X12014048Y-6892286D02*
X12004524Y-6844667D01*
X12004524Y-6844667D02*
X11995000Y-6816095D01*
X11995000Y-6816095D02*
X11985477Y-6797048D01*
X11985477Y-6797048D02*
X11966429Y-6768476D01*
X11966429Y-6768476D02*
X11956905Y-6758952D01*
X12318810Y-7063714D02*
X12309286Y-7054190D01*
X12309286Y-7054190D02*
X12290238Y-7025619D01*
X12290238Y-7025619D02*
X12280715Y-7006571D01*
X12280715Y-7006571D02*
X12271191Y-6978000D01*
X12271191Y-6978000D02*
X12261667Y-6930381D01*
X12261667Y-6930381D02*
X12261667Y-6892286D01*
X12261667Y-6892286D02*
X12271191Y-6844667D01*
X12271191Y-6844667D02*
X12280715Y-6816095D01*
X12280715Y-6816095D02*
X12290238Y-6797048D01*
X12290238Y-6797048D02*
X12309286Y-6768476D01*
X12309286Y-6768476D02*
X12318810Y-6758952D01*
X12395000Y-6854190D02*
X12395000Y-6987524D01*
X12395000Y-6873238D02*
X12404524Y-6863714D01*
X12404524Y-6863714D02*
X12423572Y-6854190D01*
X12423572Y-6854190D02*
X12452143Y-6854190D01*
X12452143Y-6854190D02*
X12471191Y-6863714D01*
X12471191Y-6863714D02*
X12480715Y-6882762D01*
X12480715Y-6882762D02*
X12480715Y-6987524D01*
X12604524Y-6987524D02*
X12585477Y-6978000D01*
X12585477Y-6978000D02*
X12575953Y-6968476D01*
X12575953Y-6968476D02*
X12566429Y-6949428D01*
X12566429Y-6949428D02*
X12566429Y-6892286D01*
X12566429Y-6892286D02*
X12575953Y-6873238D01*
X12575953Y-6873238D02*
X12585477Y-6863714D01*
X12585477Y-6863714D02*
X12604524Y-6854190D01*
X12604524Y-6854190D02*
X12633096Y-6854190D01*
X12633096Y-6854190D02*
X12652143Y-6863714D01*
X12652143Y-6863714D02*
X12661667Y-6873238D01*
X12661667Y-6873238D02*
X12671191Y-6892286D01*
X12671191Y-6892286D02*
X12671191Y-6949428D01*
X12671191Y-6949428D02*
X12661667Y-6968476D01*
X12661667Y-6968476D02*
X12652143Y-6978000D01*
X12652143Y-6978000D02*
X12633096Y-6987524D01*
X12633096Y-6987524D02*
X12604524Y-6987524D01*
X12728334Y-6854190D02*
X12804524Y-6854190D01*
X12756905Y-6787524D02*
X12756905Y-6958952D01*
X12756905Y-6958952D02*
X12766429Y-6978000D01*
X12766429Y-6978000D02*
X12785477Y-6987524D01*
X12785477Y-6987524D02*
X12804524Y-6987524D01*
X13023572Y-6854190D02*
X13023572Y-7054190D01*
X13023572Y-6863714D02*
X13042619Y-6854190D01*
X13042619Y-6854190D02*
X13080715Y-6854190D01*
X13080715Y-6854190D02*
X13099762Y-6863714D01*
X13099762Y-6863714D02*
X13109286Y-6873238D01*
X13109286Y-6873238D02*
X13118810Y-6892286D01*
X13118810Y-6892286D02*
X13118810Y-6949428D01*
X13118810Y-6949428D02*
X13109286Y-6968476D01*
X13109286Y-6968476D02*
X13099762Y-6978000D01*
X13099762Y-6978000D02*
X13080715Y-6987524D01*
X13080715Y-6987524D02*
X13042619Y-6987524D01*
X13042619Y-6987524D02*
X13023572Y-6978000D01*
X13233096Y-6987524D02*
X13214048Y-6978000D01*
X13214048Y-6978000D02*
X13204524Y-6958952D01*
X13204524Y-6958952D02*
X13204524Y-6787524D01*
X13395000Y-6987524D02*
X13395000Y-6882762D01*
X13395000Y-6882762D02*
X13385477Y-6863714D01*
X13385477Y-6863714D02*
X13366429Y-6854190D01*
X13366429Y-6854190D02*
X13328334Y-6854190D01*
X13328334Y-6854190D02*
X13309286Y-6863714D01*
X13395000Y-6978000D02*
X13375953Y-6987524D01*
X13375953Y-6987524D02*
X13328334Y-6987524D01*
X13328334Y-6987524D02*
X13309286Y-6978000D01*
X13309286Y-6978000D02*
X13299762Y-6958952D01*
X13299762Y-6958952D02*
X13299762Y-6939905D01*
X13299762Y-6939905D02*
X13309286Y-6920857D01*
X13309286Y-6920857D02*
X13328334Y-6911333D01*
X13328334Y-6911333D02*
X13375953Y-6911333D01*
X13375953Y-6911333D02*
X13395000Y-6901809D01*
X13461667Y-6854190D02*
X13537858Y-6854190D01*
X13490239Y-6787524D02*
X13490239Y-6958952D01*
X13490239Y-6958952D02*
X13499762Y-6978000D01*
X13499762Y-6978000D02*
X13518810Y-6987524D01*
X13518810Y-6987524D02*
X13537858Y-6987524D01*
X13680715Y-6978000D02*
X13661667Y-6987524D01*
X13661667Y-6987524D02*
X13623572Y-6987524D01*
X13623572Y-6987524D02*
X13604524Y-6978000D01*
X13604524Y-6978000D02*
X13595000Y-6958952D01*
X13595000Y-6958952D02*
X13595000Y-6882762D01*
X13595000Y-6882762D02*
X13604524Y-6863714D01*
X13604524Y-6863714D02*
X13623572Y-6854190D01*
X13623572Y-6854190D02*
X13661667Y-6854190D01*
X13661667Y-6854190D02*
X13680715Y-6863714D01*
X13680715Y-6863714D02*
X13690239Y-6882762D01*
X13690239Y-6882762D02*
X13690239Y-6901809D01*
X13690239Y-6901809D02*
X13595000Y-6920857D01*
X13861667Y-6987524D02*
X13861667Y-6787524D01*
X13861667Y-6978000D02*
X13842620Y-6987524D01*
X13842620Y-6987524D02*
X13804524Y-6987524D01*
X13804524Y-6987524D02*
X13785477Y-6978000D01*
X13785477Y-6978000D02*
X13775953Y-6968476D01*
X13775953Y-6968476D02*
X13766429Y-6949428D01*
X13766429Y-6949428D02*
X13766429Y-6892286D01*
X13766429Y-6892286D02*
X13775953Y-6873238D01*
X13775953Y-6873238D02*
X13785477Y-6863714D01*
X13785477Y-6863714D02*
X13804524Y-6854190D01*
X13804524Y-6854190D02*
X13842620Y-6854190D01*
X13842620Y-6854190D02*
X13861667Y-6863714D01*
X13937858Y-7063714D02*
X13947381Y-7054190D01*
X13947381Y-7054190D02*
X13966429Y-7025619D01*
X13966429Y-7025619D02*
X13975953Y-7006571D01*
X13975953Y-7006571D02*
X13985477Y-6978000D01*
X13985477Y-6978000D02*
X13995000Y-6930381D01*
X13995000Y-6930381D02*
X13995000Y-6892286D01*
X13995000Y-6892286D02*
X13985477Y-6844667D01*
X13985477Y-6844667D02*
X13975953Y-6816095D01*
X13975953Y-6816095D02*
X13966429Y-6797048D01*
X13966429Y-6797048D02*
X13947381Y-6768476D01*
X13947381Y-6768476D02*
X13937858Y-6758952D01*
X7195000Y-7159000D02*
G75*
G03*
X7195000Y-7159000I-100000J0D01*
G01*
X7433095Y-7070571D02*
X7442619Y-7061048D01*
X7442619Y-7061048D02*
X7461667Y-7051524D01*
X7461667Y-7051524D02*
X7509286Y-7051524D01*
X7509286Y-7051524D02*
X7528333Y-7061048D01*
X7528333Y-7061048D02*
X7537857Y-7070571D01*
X7537857Y-7070571D02*
X7547381Y-7089619D01*
X7547381Y-7089619D02*
X7547381Y-7108667D01*
X7547381Y-7108667D02*
X7537857Y-7137238D01*
X7537857Y-7137238D02*
X7423571Y-7251524D01*
X7423571Y-7251524D02*
X7547381Y-7251524D01*
X7633095Y-7232476D02*
X7642619Y-7242000D01*
X7642619Y-7242000D02*
X7633095Y-7251524D01*
X7633095Y-7251524D02*
X7623571Y-7242000D01*
X7623571Y-7242000D02*
X7633095Y-7232476D01*
X7633095Y-7232476D02*
X7633095Y-7251524D01*
X7833095Y-7251524D02*
X7718809Y-7251524D01*
X7775952Y-7251524D02*
X7775952Y-7051524D01*
X7775952Y-7051524D02*
X7756905Y-7080095D01*
X7756905Y-7080095D02*
X7737857Y-7099143D01*
X7737857Y-7099143D02*
X7718809Y-7108667D01*
X7956905Y-7051524D02*
X7975952Y-7051524D01*
X7975952Y-7051524D02*
X7995000Y-7061048D01*
X7995000Y-7061048D02*
X8004524Y-7070571D01*
X8004524Y-7070571D02*
X8014048Y-7089619D01*
X8014048Y-7089619D02*
X8023571Y-7127714D01*
X8023571Y-7127714D02*
X8023571Y-7175333D01*
X8023571Y-7175333D02*
X8014048Y-7213428D01*
X8014048Y-7213428D02*
X8004524Y-7232476D01*
X8004524Y-7232476D02*
X7995000Y-7242000D01*
X7995000Y-7242000D02*
X7975952Y-7251524D01*
X7975952Y-7251524D02*
X7956905Y-7251524D01*
X7956905Y-7251524D02*
X7937857Y-7242000D01*
X7937857Y-7242000D02*
X7928333Y-7232476D01*
X7928333Y-7232476D02*
X7918809Y-7213428D01*
X7918809Y-7213428D02*
X7909286Y-7175333D01*
X7909286Y-7175333D02*
X7909286Y-7127714D01*
X7909286Y-7127714D02*
X7918809Y-7089619D01*
X7918809Y-7089619D02*
X7928333Y-7070571D01*
X7928333Y-7070571D02*
X7937857Y-7061048D01*
X7937857Y-7061048D02*
X7956905Y-7051524D01*
X8147381Y-7051524D02*
X8166429Y-7051524D01*
X8166429Y-7051524D02*
X8185476Y-7061048D01*
X8185476Y-7061048D02*
X8195000Y-7070571D01*
X8195000Y-7070571D02*
X8204524Y-7089619D01*
X8204524Y-7089619D02*
X8214048Y-7127714D01*
X8214048Y-7127714D02*
X8214048Y-7175333D01*
X8214048Y-7175333D02*
X8204524Y-7213428D01*
X8204524Y-7213428D02*
X8195000Y-7232476D01*
X8195000Y-7232476D02*
X8185476Y-7242000D01*
X8185476Y-7242000D02*
X8166429Y-7251524D01*
X8166429Y-7251524D02*
X8147381Y-7251524D01*
X8147381Y-7251524D02*
X8128333Y-7242000D01*
X8128333Y-7242000D02*
X8118809Y-7232476D01*
X8118809Y-7232476D02*
X8109286Y-7213428D01*
X8109286Y-7213428D02*
X8099762Y-7175333D01*
X8099762Y-7175333D02*
X8099762Y-7127714D01*
X8099762Y-7127714D02*
X8109286Y-7089619D01*
X8109286Y-7089619D02*
X8118809Y-7070571D01*
X8118809Y-7070571D02*
X8128333Y-7061048D01*
X8128333Y-7061048D02*
X8147381Y-7051524D01*
X8299762Y-7251524D02*
X8299762Y-7118190D01*
X8299762Y-7137238D02*
X8309286Y-7127714D01*
X8309286Y-7127714D02*
X8328333Y-7118190D01*
X8328333Y-7118190D02*
X8356905Y-7118190D01*
X8356905Y-7118190D02*
X8375952Y-7127714D01*
X8375952Y-7127714D02*
X8385476Y-7146762D01*
X8385476Y-7146762D02*
X8385476Y-7251524D01*
X8385476Y-7146762D02*
X8395000Y-7127714D01*
X8395000Y-7127714D02*
X8414048Y-7118190D01*
X8414048Y-7118190D02*
X8442619Y-7118190D01*
X8442619Y-7118190D02*
X8461667Y-7127714D01*
X8461667Y-7127714D02*
X8471191Y-7146762D01*
X8471191Y-7146762D02*
X8471191Y-7251524D01*
X8566429Y-7251524D02*
X8566429Y-7118190D01*
X8566429Y-7137238D02*
X8575952Y-7127714D01*
X8575952Y-7127714D02*
X8595000Y-7118190D01*
X8595000Y-7118190D02*
X8623572Y-7118190D01*
X8623572Y-7118190D02*
X8642619Y-7127714D01*
X8642619Y-7127714D02*
X8652143Y-7146762D01*
X8652143Y-7146762D02*
X8652143Y-7251524D01*
X8652143Y-7146762D02*
X8661667Y-7127714D01*
X8661667Y-7127714D02*
X8680714Y-7118190D01*
X8680714Y-7118190D02*
X8709286Y-7118190D01*
X8709286Y-7118190D02*
X8728333Y-7127714D01*
X8728333Y-7127714D02*
X8737857Y-7146762D01*
X8737857Y-7146762D02*
X8737857Y-7251524D01*
X9128333Y-7042000D02*
X8956905Y-7299143D01*
X9385476Y-7051524D02*
X9404524Y-7051524D01*
X9404524Y-7051524D02*
X9423572Y-7061048D01*
X9423572Y-7061048D02*
X9433095Y-7070571D01*
X9433095Y-7070571D02*
X9442619Y-7089619D01*
X9442619Y-7089619D02*
X9452143Y-7127714D01*
X9452143Y-7127714D02*
X9452143Y-7175333D01*
X9452143Y-7175333D02*
X9442619Y-7213428D01*
X9442619Y-7213428D02*
X9433095Y-7232476D01*
X9433095Y-7232476D02*
X9423572Y-7242000D01*
X9423572Y-7242000D02*
X9404524Y-7251524D01*
X9404524Y-7251524D02*
X9385476Y-7251524D01*
X9385476Y-7251524D02*
X9366429Y-7242000D01*
X9366429Y-7242000D02*
X9356905Y-7232476D01*
X9356905Y-7232476D02*
X9347381Y-7213428D01*
X9347381Y-7213428D02*
X9337857Y-7175333D01*
X9337857Y-7175333D02*
X9337857Y-7127714D01*
X9337857Y-7127714D02*
X9347381Y-7089619D01*
X9347381Y-7089619D02*
X9356905Y-7070571D01*
X9356905Y-7070571D02*
X9366429Y-7061048D01*
X9366429Y-7061048D02*
X9385476Y-7051524D01*
X9537857Y-7232476D02*
X9547381Y-7242000D01*
X9547381Y-7242000D02*
X9537857Y-7251524D01*
X9537857Y-7251524D02*
X9528334Y-7242000D01*
X9528334Y-7242000D02*
X9537857Y-7232476D01*
X9537857Y-7232476D02*
X9537857Y-7251524D01*
X9671191Y-7051524D02*
X9690238Y-7051524D01*
X9690238Y-7051524D02*
X9709286Y-7061048D01*
X9709286Y-7061048D02*
X9718810Y-7070571D01*
X9718810Y-7070571D02*
X9728334Y-7089619D01*
X9728334Y-7089619D02*
X9737857Y-7127714D01*
X9737857Y-7127714D02*
X9737857Y-7175333D01*
X9737857Y-7175333D02*
X9728334Y-7213428D01*
X9728334Y-7213428D02*
X9718810Y-7232476D01*
X9718810Y-7232476D02*
X9709286Y-7242000D01*
X9709286Y-7242000D02*
X9690238Y-7251524D01*
X9690238Y-7251524D02*
X9671191Y-7251524D01*
X9671191Y-7251524D02*
X9652143Y-7242000D01*
X9652143Y-7242000D02*
X9642619Y-7232476D01*
X9642619Y-7232476D02*
X9633095Y-7213428D01*
X9633095Y-7213428D02*
X9623572Y-7175333D01*
X9623572Y-7175333D02*
X9623572Y-7127714D01*
X9623572Y-7127714D02*
X9633095Y-7089619D01*
X9633095Y-7089619D02*
X9642619Y-7070571D01*
X9642619Y-7070571D02*
X9652143Y-7061048D01*
X9652143Y-7061048D02*
X9671191Y-7051524D01*
X9852143Y-7137238D02*
X9833095Y-7127714D01*
X9833095Y-7127714D02*
X9823572Y-7118190D01*
X9823572Y-7118190D02*
X9814048Y-7099143D01*
X9814048Y-7099143D02*
X9814048Y-7089619D01*
X9814048Y-7089619D02*
X9823572Y-7070571D01*
X9823572Y-7070571D02*
X9833095Y-7061048D01*
X9833095Y-7061048D02*
X9852143Y-7051524D01*
X9852143Y-7051524D02*
X9890238Y-7051524D01*
X9890238Y-7051524D02*
X9909286Y-7061048D01*
X9909286Y-7061048D02*
X9918810Y-7070571D01*
X9918810Y-7070571D02*
X9928334Y-7089619D01*
X9928334Y-7089619D02*
X9928334Y-7099143D01*
X9928334Y-7099143D02*
X9918810Y-7118190D01*
X9918810Y-7118190D02*
X9909286Y-7127714D01*
X9909286Y-7127714D02*
X9890238Y-7137238D01*
X9890238Y-7137238D02*
X9852143Y-7137238D01*
X9852143Y-7137238D02*
X9833095Y-7146762D01*
X9833095Y-7146762D02*
X9823572Y-7156286D01*
X9823572Y-7156286D02*
X9814048Y-7175333D01*
X9814048Y-7175333D02*
X9814048Y-7213428D01*
X9814048Y-7213428D02*
X9823572Y-7232476D01*
X9823572Y-7232476D02*
X9833095Y-7242000D01*
X9833095Y-7242000D02*
X9852143Y-7251524D01*
X9852143Y-7251524D02*
X9890238Y-7251524D01*
X9890238Y-7251524D02*
X9909286Y-7242000D01*
X9909286Y-7242000D02*
X9918810Y-7232476D01*
X9918810Y-7232476D02*
X9928334Y-7213428D01*
X9928334Y-7213428D02*
X9928334Y-7175333D01*
X9928334Y-7175333D02*
X9918810Y-7156286D01*
X9918810Y-7156286D02*
X9909286Y-7146762D01*
X9909286Y-7146762D02*
X9890238Y-7137238D01*
X10004524Y-7070571D02*
X10014048Y-7061048D01*
X10014048Y-7061048D02*
X10033095Y-7051524D01*
X10033095Y-7051524D02*
X10080715Y-7051524D01*
X10080715Y-7051524D02*
X10099762Y-7061048D01*
X10099762Y-7061048D02*
X10109286Y-7070571D01*
X10109286Y-7070571D02*
X10118810Y-7089619D01*
X10118810Y-7089619D02*
X10118810Y-7108667D01*
X10118810Y-7108667D02*
X10109286Y-7137238D01*
X10109286Y-7137238D02*
X9995000Y-7251524D01*
X9995000Y-7251524D02*
X10118810Y-7251524D01*
X10185476Y-7051524D02*
X10318810Y-7051524D01*
X10318810Y-7051524D02*
X10233095Y-7251524D01*
X10385476Y-7051524D02*
X10385476Y-7089619D01*
X10461667Y-7051524D02*
X10461667Y-7089619D01*
X10756905Y-7327714D02*
X10747381Y-7318190D01*
X10747381Y-7318190D02*
X10728334Y-7289619D01*
X10728334Y-7289619D02*
X10718810Y-7270571D01*
X10718810Y-7270571D02*
X10709286Y-7242000D01*
X10709286Y-7242000D02*
X10699762Y-7194381D01*
X10699762Y-7194381D02*
X10699762Y-7156286D01*
X10699762Y-7156286D02*
X10709286Y-7108667D01*
X10709286Y-7108667D02*
X10718810Y-7080095D01*
X10718810Y-7080095D02*
X10728334Y-7061048D01*
X10728334Y-7061048D02*
X10747381Y-7032476D01*
X10747381Y-7032476D02*
X10756905Y-7022952D01*
X10823572Y-7070571D02*
X10833096Y-7061048D01*
X10833096Y-7061048D02*
X10852143Y-7051524D01*
X10852143Y-7051524D02*
X10899762Y-7051524D01*
X10899762Y-7051524D02*
X10918810Y-7061048D01*
X10918810Y-7061048D02*
X10928334Y-7070571D01*
X10928334Y-7070571D02*
X10937857Y-7089619D01*
X10937857Y-7089619D02*
X10937857Y-7108667D01*
X10937857Y-7108667D02*
X10928334Y-7137238D01*
X10928334Y-7137238D02*
X10814048Y-7251524D01*
X10814048Y-7251524D02*
X10937857Y-7251524D01*
X11175953Y-7251524D02*
X11175953Y-7051524D01*
X11261667Y-7251524D02*
X11261667Y-7146762D01*
X11261667Y-7146762D02*
X11252143Y-7127714D01*
X11252143Y-7127714D02*
X11233096Y-7118190D01*
X11233096Y-7118190D02*
X11204524Y-7118190D01*
X11204524Y-7118190D02*
X11185476Y-7127714D01*
X11185476Y-7127714D02*
X11175953Y-7137238D01*
X11385476Y-7251524D02*
X11366429Y-7242000D01*
X11366429Y-7242000D02*
X11356905Y-7232476D01*
X11356905Y-7232476D02*
X11347381Y-7213428D01*
X11347381Y-7213428D02*
X11347381Y-7156286D01*
X11347381Y-7156286D02*
X11356905Y-7137238D01*
X11356905Y-7137238D02*
X11366429Y-7127714D01*
X11366429Y-7127714D02*
X11385476Y-7118190D01*
X11385476Y-7118190D02*
X11414048Y-7118190D01*
X11414048Y-7118190D02*
X11433096Y-7127714D01*
X11433096Y-7127714D02*
X11442619Y-7137238D01*
X11442619Y-7137238D02*
X11452143Y-7156286D01*
X11452143Y-7156286D02*
X11452143Y-7213428D01*
X11452143Y-7213428D02*
X11442619Y-7232476D01*
X11442619Y-7232476D02*
X11433096Y-7242000D01*
X11433096Y-7242000D02*
X11414048Y-7251524D01*
X11414048Y-7251524D02*
X11385476Y-7251524D01*
X11566429Y-7251524D02*
X11547381Y-7242000D01*
X11547381Y-7242000D02*
X11537857Y-7222952D01*
X11537857Y-7222952D02*
X11537857Y-7051524D01*
X11718810Y-7242000D02*
X11699762Y-7251524D01*
X11699762Y-7251524D02*
X11661667Y-7251524D01*
X11661667Y-7251524D02*
X11642619Y-7242000D01*
X11642619Y-7242000D02*
X11633096Y-7222952D01*
X11633096Y-7222952D02*
X11633096Y-7146762D01*
X11633096Y-7146762D02*
X11642619Y-7127714D01*
X11642619Y-7127714D02*
X11661667Y-7118190D01*
X11661667Y-7118190D02*
X11699762Y-7118190D01*
X11699762Y-7118190D02*
X11718810Y-7127714D01*
X11718810Y-7127714D02*
X11728334Y-7146762D01*
X11728334Y-7146762D02*
X11728334Y-7165809D01*
X11728334Y-7165809D02*
X11633096Y-7184857D01*
X11804524Y-7242000D02*
X11823572Y-7251524D01*
X11823572Y-7251524D02*
X11861667Y-7251524D01*
X11861667Y-7251524D02*
X11880715Y-7242000D01*
X11880715Y-7242000D02*
X11890238Y-7222952D01*
X11890238Y-7222952D02*
X11890238Y-7213428D01*
X11890238Y-7213428D02*
X11880715Y-7194381D01*
X11880715Y-7194381D02*
X11861667Y-7184857D01*
X11861667Y-7184857D02*
X11833096Y-7184857D01*
X11833096Y-7184857D02*
X11814048Y-7175333D01*
X11814048Y-7175333D02*
X11804524Y-7156286D01*
X11804524Y-7156286D02*
X11804524Y-7146762D01*
X11804524Y-7146762D02*
X11814048Y-7127714D01*
X11814048Y-7127714D02*
X11833096Y-7118190D01*
X11833096Y-7118190D02*
X11861667Y-7118190D01*
X11861667Y-7118190D02*
X11880715Y-7127714D01*
X11956905Y-7327714D02*
X11966429Y-7318190D01*
X11966429Y-7318190D02*
X11985477Y-7289619D01*
X11985477Y-7289619D02*
X11995000Y-7270571D01*
X11995000Y-7270571D02*
X12004524Y-7242000D01*
X12004524Y-7242000D02*
X12014048Y-7194381D01*
X12014048Y-7194381D02*
X12014048Y-7156286D01*
X12014048Y-7156286D02*
X12004524Y-7108667D01*
X12004524Y-7108667D02*
X11995000Y-7080095D01*
X11995000Y-7080095D02*
X11985477Y-7061048D01*
X11985477Y-7061048D02*
X11966429Y-7032476D01*
X11966429Y-7032476D02*
X11956905Y-7022952D01*
X12318810Y-7327714D02*
X12309286Y-7318190D01*
X12309286Y-7318190D02*
X12290238Y-7289619D01*
X12290238Y-7289619D02*
X12280715Y-7270571D01*
X12280715Y-7270571D02*
X12271191Y-7242000D01*
X12271191Y-7242000D02*
X12261667Y-7194381D01*
X12261667Y-7194381D02*
X12261667Y-7156286D01*
X12261667Y-7156286D02*
X12271191Y-7108667D01*
X12271191Y-7108667D02*
X12280715Y-7080095D01*
X12280715Y-7080095D02*
X12290238Y-7061048D01*
X12290238Y-7061048D02*
X12309286Y-7032476D01*
X12309286Y-7032476D02*
X12318810Y-7022952D01*
X12395000Y-7118190D02*
X12395000Y-7251524D01*
X12395000Y-7137238D02*
X12404524Y-7127714D01*
X12404524Y-7127714D02*
X12423572Y-7118190D01*
X12423572Y-7118190D02*
X12452143Y-7118190D01*
X12452143Y-7118190D02*
X12471191Y-7127714D01*
X12471191Y-7127714D02*
X12480715Y-7146762D01*
X12480715Y-7146762D02*
X12480715Y-7251524D01*
X12604524Y-7251524D02*
X12585477Y-7242000D01*
X12585477Y-7242000D02*
X12575953Y-7232476D01*
X12575953Y-7232476D02*
X12566429Y-7213428D01*
X12566429Y-7213428D02*
X12566429Y-7156286D01*
X12566429Y-7156286D02*
X12575953Y-7137238D01*
X12575953Y-7137238D02*
X12585477Y-7127714D01*
X12585477Y-7127714D02*
X12604524Y-7118190D01*
X12604524Y-7118190D02*
X12633096Y-7118190D01*
X12633096Y-7118190D02*
X12652143Y-7127714D01*
X12652143Y-7127714D02*
X12661667Y-7137238D01*
X12661667Y-7137238D02*
X12671191Y-7156286D01*
X12671191Y-7156286D02*
X12671191Y-7213428D01*
X12671191Y-7213428D02*
X12661667Y-7232476D01*
X12661667Y-7232476D02*
X12652143Y-7242000D01*
X12652143Y-7242000D02*
X12633096Y-7251524D01*
X12633096Y-7251524D02*
X12604524Y-7251524D01*
X12728334Y-7118190D02*
X12804524Y-7118190D01*
X12756905Y-7051524D02*
X12756905Y-7222952D01*
X12756905Y-7222952D02*
X12766429Y-7242000D01*
X12766429Y-7242000D02*
X12785477Y-7251524D01*
X12785477Y-7251524D02*
X12804524Y-7251524D01*
X13023572Y-7118190D02*
X13023572Y-7318190D01*
X13023572Y-7127714D02*
X13042619Y-7118190D01*
X13042619Y-7118190D02*
X13080715Y-7118190D01*
X13080715Y-7118190D02*
X13099762Y-7127714D01*
X13099762Y-7127714D02*
X13109286Y-7137238D01*
X13109286Y-7137238D02*
X13118810Y-7156286D01*
X13118810Y-7156286D02*
X13118810Y-7213428D01*
X13118810Y-7213428D02*
X13109286Y-7232476D01*
X13109286Y-7232476D02*
X13099762Y-7242000D01*
X13099762Y-7242000D02*
X13080715Y-7251524D01*
X13080715Y-7251524D02*
X13042619Y-7251524D01*
X13042619Y-7251524D02*
X13023572Y-7242000D01*
X13233096Y-7251524D02*
X13214048Y-7242000D01*
X13214048Y-7242000D02*
X13204524Y-7222952D01*
X13204524Y-7222952D02*
X13204524Y-7051524D01*
X13395000Y-7251524D02*
X13395000Y-7146762D01*
X13395000Y-7146762D02*
X13385477Y-7127714D01*
X13385477Y-7127714D02*
X13366429Y-7118190D01*
X13366429Y-7118190D02*
X13328334Y-7118190D01*
X13328334Y-7118190D02*
X13309286Y-7127714D01*
X13395000Y-7242000D02*
X13375953Y-7251524D01*
X13375953Y-7251524D02*
X13328334Y-7251524D01*
X13328334Y-7251524D02*
X13309286Y-7242000D01*
X13309286Y-7242000D02*
X13299762Y-7222952D01*
X13299762Y-7222952D02*
X13299762Y-7203905D01*
X13299762Y-7203905D02*
X13309286Y-7184857D01*
X13309286Y-7184857D02*
X13328334Y-7175333D01*
X13328334Y-7175333D02*
X13375953Y-7175333D01*
X13375953Y-7175333D02*
X13395000Y-7165809D01*
X13461667Y-7118190D02*
X13537858Y-7118190D01*
X13490239Y-7051524D02*
X13490239Y-7222952D01*
X13490239Y-7222952D02*
X13499762Y-7242000D01*
X13499762Y-7242000D02*
X13518810Y-7251524D01*
X13518810Y-7251524D02*
X13537858Y-7251524D01*
X13680715Y-7242000D02*
X13661667Y-7251524D01*
X13661667Y-7251524D02*
X13623572Y-7251524D01*
X13623572Y-7251524D02*
X13604524Y-7242000D01*
X13604524Y-7242000D02*
X13595000Y-7222952D01*
X13595000Y-7222952D02*
X13595000Y-7146762D01*
X13595000Y-7146762D02*
X13604524Y-7127714D01*
X13604524Y-7127714D02*
X13623572Y-7118190D01*
X13623572Y-7118190D02*
X13661667Y-7118190D01*
X13661667Y-7118190D02*
X13680715Y-7127714D01*
X13680715Y-7127714D02*
X13690239Y-7146762D01*
X13690239Y-7146762D02*
X13690239Y-7165809D01*
X13690239Y-7165809D02*
X13595000Y-7184857D01*
X13861667Y-7251524D02*
X13861667Y-7051524D01*
X13861667Y-7242000D02*
X13842620Y-7251524D01*
X13842620Y-7251524D02*
X13804524Y-7251524D01*
X13804524Y-7251524D02*
X13785477Y-7242000D01*
X13785477Y-7242000D02*
X13775953Y-7232476D01*
X13775953Y-7232476D02*
X13766429Y-7213428D01*
X13766429Y-7213428D02*
X13766429Y-7156286D01*
X13766429Y-7156286D02*
X13775953Y-7137238D01*
X13775953Y-7137238D02*
X13785477Y-7127714D01*
X13785477Y-7127714D02*
X13804524Y-7118190D01*
X13804524Y-7118190D02*
X13842620Y-7118190D01*
X13842620Y-7118190D02*
X13861667Y-7127714D01*
X13937858Y-7327714D02*
X13947381Y-7318190D01*
X13947381Y-7318190D02*
X13966429Y-7289619D01*
X13966429Y-7289619D02*
X13975953Y-7270571D01*
X13975953Y-7270571D02*
X13985477Y-7242000D01*
X13985477Y-7242000D02*
X13995000Y-7194381D01*
X13995000Y-7194381D02*
X13995000Y-7156286D01*
X13995000Y-7156286D02*
X13985477Y-7108667D01*
X13985477Y-7108667D02*
X13975953Y-7080095D01*
X13975953Y-7080095D02*
X13966429Y-7061048D01*
X13966429Y-7061048D02*
X13947381Y-7032476D01*
X13947381Y-7032476D02*
X13937858Y-7022952D01*
M02*
