G04 #@! TF.GenerationSoftware,KiCad,Pcbnew,7.0.1-3b83917a11~172~ubuntu22.04.1*
G04 #@! TF.CreationDate,2023-04-23T17:42:43+02:00*
G04 #@! TF.ProjectId,sharp-lcd-128x128,73686172-702d-46c6-9364-2d3132387831,rev?*
G04 #@! TF.SameCoordinates,Original*
G04 #@! TF.FileFunction,Legend,Bot*
G04 #@! TF.FilePolarity,Positive*
%FSLAX46Y46*%
G04 Gerber Fmt 4.6, Leading zero omitted, Abs format (unit mm)*
G04 Created by KiCad (PCBNEW 7.0.1-3b83917a11~172~ubuntu22.04.1) date 2023-04-23 17:42:43*
%MOMM*%
%LPD*%
G01*
G04 APERTURE LIST*
G04 Aperture macros list*
%AMRoundRect*
0 Rectangle with rounded corners*
0 $1 Rounding radius*
0 $2 $3 $4 $5 $6 $7 $8 $9 X,Y pos of 4 corners*
0 Add a 4 corners polygon primitive as box body*
4,1,4,$2,$3,$4,$5,$6,$7,$8,$9,$2,$3,0*
0 Add four circle primitives for the rounded corners*
1,1,$1+$1,$2,$3*
1,1,$1+$1,$4,$5*
1,1,$1+$1,$6,$7*
1,1,$1+$1,$8,$9*
0 Add four rect primitives between the rounded corners*
20,1,$1+$1,$2,$3,$4,$5,0*
20,1,$1+$1,$4,$5,$6,$7,0*
20,1,$1+$1,$6,$7,$8,$9,0*
20,1,$1+$1,$8,$9,$2,$3,0*%
G04 Aperture macros list end*
%ADD10C,0.000000*%
%ADD11C,0.031749*%
%ADD12C,0.150000*%
%ADD13C,0.130000*%
%ADD14C,0.120000*%
%ADD15C,2.100000*%
%ADD16C,0.650000*%
%ADD17O,2.100000X1.000000*%
%ADD18O,1.600000X1.000000*%
%ADD19RoundRect,0.200000X0.200000X0.800000X-0.200000X0.800000X-0.200000X-0.800000X0.200000X-0.800000X0*%
G04 APERTURE END LIST*
D10*
G36*
X97060000Y-55576667D02*
G01*
X96623966Y-55576667D01*
X96623966Y-55140633D01*
X97060000Y-55140633D01*
X97060000Y-55576667D01*
G37*
G36*
X94520000Y-50073333D02*
G01*
X94083967Y-50073333D01*
X94083967Y-49637301D01*
X94520000Y-49637301D01*
X94520000Y-50073333D01*
G37*
G36*
X102986667Y-52613334D02*
G01*
X102550633Y-52613334D01*
X102550633Y-52177300D01*
X102986667Y-52177300D01*
X102986667Y-52613334D01*
G37*
G36*
X103410000Y-53036667D02*
G01*
X102973966Y-53036667D01*
X102973966Y-52600634D01*
X103410000Y-52600634D01*
X103410000Y-53036667D01*
G37*
G36*
X97906666Y-51766668D02*
G01*
X97470633Y-51766668D01*
X97470633Y-51330634D01*
X97906666Y-51330634D01*
X97906666Y-51766668D01*
G37*
G36*
X95790000Y-55576667D02*
G01*
X95353967Y-55576667D01*
X95353967Y-55140633D01*
X95790000Y-55140633D01*
X95790000Y-55576667D01*
G37*
G36*
X103833333Y-47533334D02*
G01*
X103397299Y-47533334D01*
X103397299Y-47097301D01*
X103833333Y-47097301D01*
X103833333Y-47533334D01*
G37*
G36*
X101293333Y-56000000D02*
G01*
X100857300Y-56000000D01*
X100857300Y-55563967D01*
X101293333Y-55563967D01*
X101293333Y-56000000D01*
G37*
G36*
X96636666Y-52190001D02*
G01*
X96200633Y-52190001D01*
X96200633Y-51753967D01*
X96636666Y-51753967D01*
X96636666Y-52190001D01*
G37*
G36*
X96213333Y-52613334D02*
G01*
X95777300Y-52613334D01*
X95777300Y-52177300D01*
X96213333Y-52177300D01*
X96213333Y-52613334D01*
G37*
G36*
X100870000Y-56423333D02*
G01*
X100433966Y-56423333D01*
X100433966Y-55987300D01*
X100870000Y-55987300D01*
X100870000Y-56423333D01*
G37*
G36*
X107643332Y-56000000D02*
G01*
X107207300Y-56000000D01*
X107207300Y-55563967D01*
X107643332Y-55563967D01*
X107643332Y-56000000D01*
G37*
G36*
X100446667Y-52613334D02*
G01*
X100010633Y-52613334D01*
X100010633Y-52177300D01*
X100446667Y-52177300D01*
X100446667Y-52613334D01*
G37*
G36*
X74583521Y-57560324D02*
G01*
X74330365Y-57560324D01*
X74330365Y-56578608D01*
X74583521Y-56578608D01*
X74583521Y-57560324D01*
G37*
G36*
X96636666Y-50920000D02*
G01*
X96200633Y-50920000D01*
X96200633Y-50483967D01*
X96636666Y-50483967D01*
X96636666Y-50920000D01*
G37*
G36*
X100870000Y-54730001D02*
G01*
X100433966Y-54730001D01*
X100433966Y-54293967D01*
X100870000Y-54293967D01*
X100870000Y-54730001D01*
G37*
G36*
X100023334Y-54730001D02*
G01*
X99587300Y-54730001D01*
X99587300Y-54293967D01*
X100023334Y-54293967D01*
X100023334Y-54730001D01*
G37*
G36*
X99600000Y-47533334D02*
G01*
X99163966Y-47533334D01*
X99163966Y-47097301D01*
X99600000Y-47097301D01*
X99600000Y-47533334D01*
G37*
G36*
X99176666Y-52613334D02*
G01*
X98740633Y-52613334D01*
X98740633Y-52177300D01*
X99176666Y-52177300D01*
X99176666Y-52613334D01*
G37*
G36*
X95366666Y-56846667D02*
G01*
X94930633Y-56846667D01*
X94930633Y-56410634D01*
X95366666Y-56410634D01*
X95366666Y-56846667D01*
G37*
G36*
X102563333Y-54730001D02*
G01*
X102127299Y-54730001D01*
X102127299Y-54293967D01*
X102563333Y-54293967D01*
X102563333Y-54730001D01*
G37*
G36*
X105950000Y-55576667D02*
G01*
X105513966Y-55576667D01*
X105513966Y-55140633D01*
X105950000Y-55140633D01*
X105950000Y-55576667D01*
G37*
G36*
X104256666Y-47956667D02*
G01*
X103820633Y-47956667D01*
X103820633Y-47520634D01*
X104256666Y-47520634D01*
X104256666Y-47956667D01*
G37*
G36*
X97483333Y-54730001D02*
G01*
X97047300Y-54730001D01*
X97047300Y-54293967D01*
X97483333Y-54293967D01*
X97483333Y-54730001D01*
G37*
G36*
X106373334Y-59386666D02*
G01*
X105937299Y-59386666D01*
X105937299Y-58950634D01*
X106373334Y-58950634D01*
X106373334Y-59386666D01*
G37*
G36*
X105950000Y-53883334D02*
G01*
X105513966Y-53883334D01*
X105513966Y-53447300D01*
X105950000Y-53447300D01*
X105950000Y-53883334D01*
G37*
G36*
X105950000Y-58116668D02*
G01*
X105513966Y-58116668D01*
X105513966Y-57680633D01*
X105950000Y-57680633D01*
X105950000Y-58116668D01*
G37*
G36*
X95366666Y-53883334D02*
G01*
X94930633Y-53883334D01*
X94930633Y-53447300D01*
X95366666Y-53447300D01*
X95366666Y-53883334D01*
G37*
G36*
X102140000Y-53883334D02*
G01*
X101703966Y-53883334D01*
X101703966Y-53447300D01*
X102140000Y-53447300D01*
X102140000Y-53883334D01*
G37*
G36*
X97906666Y-56000000D02*
G01*
X97470633Y-56000000D01*
X97470633Y-55563967D01*
X97906666Y-55563967D01*
X97906666Y-56000000D01*
G37*
G36*
X103833333Y-46686667D02*
G01*
X103397299Y-46686667D01*
X103397299Y-46250634D01*
X103833333Y-46250634D01*
X103833333Y-46686667D01*
G37*
G36*
X109759999Y-60656665D02*
G01*
X109323965Y-60656665D01*
X109323965Y-60220633D01*
X109759999Y-60220633D01*
X109759999Y-60656665D01*
G37*
G36*
X100023334Y-56846667D02*
G01*
X99587300Y-56846667D01*
X99587300Y-56410634D01*
X100023334Y-56410634D01*
X100023334Y-56846667D01*
G37*
G36*
X105103333Y-46686667D02*
G01*
X104667300Y-46686667D01*
X104667300Y-46250634D01*
X105103333Y-46250634D01*
X105103333Y-46686667D01*
G37*
G36*
X100870000Y-53460000D02*
G01*
X100433966Y-53460000D01*
X100433966Y-53023967D01*
X100870000Y-53023967D01*
X100870000Y-53460000D01*
G37*
G36*
X105526666Y-48803334D02*
G01*
X105090633Y-48803334D01*
X105090633Y-48367300D01*
X105526666Y-48367300D01*
X105526666Y-48803334D01*
G37*
G36*
X108913331Y-58116668D02*
G01*
X108477299Y-58116668D01*
X108477299Y-57680633D01*
X108913331Y-57680633D01*
X108913331Y-58116668D01*
G37*
G36*
X105103333Y-56846667D02*
G01*
X104667300Y-56846667D01*
X104667300Y-56410634D01*
X105103333Y-56410634D01*
X105103333Y-56846667D01*
G37*
G36*
X105103333Y-54730001D02*
G01*
X104667300Y-54730001D01*
X104667300Y-54293967D01*
X105103333Y-54293967D01*
X105103333Y-54730001D01*
G37*
G36*
X102140000Y-53460000D02*
G01*
X101703966Y-53460000D01*
X101703966Y-53023967D01*
X102140000Y-53023967D01*
X102140000Y-53460000D01*
G37*
G36*
X105526666Y-57693334D02*
G01*
X105090633Y-57693334D01*
X105090633Y-57257300D01*
X105526666Y-57257300D01*
X105526666Y-57693334D01*
G37*
G36*
X97906666Y-55153334D02*
G01*
X97470633Y-55153334D01*
X97470633Y-54717300D01*
X97906666Y-54717300D01*
X97906666Y-55153334D01*
G37*
G36*
X98753333Y-54730001D02*
G01*
X98317300Y-54730001D01*
X98317300Y-54293967D01*
X98753333Y-54293967D01*
X98753333Y-54730001D01*
G37*
G36*
X105103333Y-52190001D02*
G01*
X104667300Y-52190001D01*
X104667300Y-51753967D01*
X105103333Y-51753967D01*
X105103333Y-52190001D01*
G37*
G36*
X100446667Y-59810000D02*
G01*
X100010633Y-59810000D01*
X100010633Y-59373966D01*
X100446667Y-59373966D01*
X100446667Y-59810000D01*
G37*
G36*
X108066666Y-59810000D02*
G01*
X107630632Y-59810000D01*
X107630632Y-59373966D01*
X108066666Y-59373966D01*
X108066666Y-59810000D01*
G37*
G36*
X96636666Y-53036667D02*
G01*
X96200633Y-53036667D01*
X96200633Y-52600634D01*
X96636666Y-52600634D01*
X96636666Y-53036667D01*
G37*
G36*
X101293333Y-58540000D02*
G01*
X100857300Y-58540000D01*
X100857300Y-58103966D01*
X101293333Y-58103966D01*
X101293333Y-58540000D01*
G37*
G36*
X105526666Y-50496667D02*
G01*
X105090633Y-50496667D01*
X105090633Y-50060634D01*
X105526666Y-50060634D01*
X105526666Y-50496667D01*
G37*
G36*
X104679999Y-51343334D02*
G01*
X104243966Y-51343334D01*
X104243966Y-50907300D01*
X104679999Y-50907300D01*
X104679999Y-51343334D01*
G37*
G36*
X98329999Y-54730001D02*
G01*
X97893967Y-54730001D01*
X97893967Y-54293967D01*
X98329999Y-54293967D01*
X98329999Y-54730001D01*
G37*
G36*
X103410000Y-57693334D02*
G01*
X102973966Y-57693334D01*
X102973966Y-57257300D01*
X103410000Y-57257300D01*
X103410000Y-57693334D01*
G37*
G36*
X77521295Y-57834144D02*
G01*
X77550218Y-57835706D01*
X77578345Y-57838310D01*
X77605676Y-57841954D01*
X77632211Y-57846640D01*
X77657950Y-57852367D01*
X77682894Y-57859135D01*
X77707041Y-57866945D01*
X77730392Y-57875796D01*
X77752947Y-57885688D01*
X77774707Y-57896621D01*
X77795670Y-57908596D01*
X77815837Y-57921612D01*
X77835208Y-57935669D01*
X77853784Y-57950767D01*
X77871563Y-57966906D01*
X77888324Y-57983944D01*
X77904003Y-58001738D01*
X77918601Y-58020288D01*
X77932118Y-58039595D01*
X77944553Y-58059657D01*
X77955907Y-58080475D01*
X77966180Y-58102048D01*
X77975371Y-58124378D01*
X77983481Y-58147464D01*
X77990509Y-58171306D01*
X77996457Y-58195904D01*
X78001323Y-58221257D01*
X78005107Y-58247367D01*
X78007811Y-58274233D01*
X78009433Y-58301854D01*
X78009973Y-58330231D01*
X78009430Y-58358609D01*
X78007801Y-58386230D01*
X78005085Y-58413096D01*
X78001283Y-58439205D01*
X77996394Y-58464559D01*
X77990419Y-58489157D01*
X77983358Y-58512999D01*
X77975211Y-58536085D01*
X77965977Y-58558415D01*
X77955657Y-58579988D01*
X77944250Y-58600806D01*
X77931757Y-58620868D01*
X77918178Y-58640174D01*
X77903513Y-58658725D01*
X77887761Y-58676519D01*
X77870923Y-58693557D01*
X77853146Y-58709619D01*
X77834578Y-58724645D01*
X77815219Y-58738635D01*
X77795069Y-58751588D01*
X77774128Y-58763505D01*
X77752397Y-58774386D01*
X77729874Y-58784230D01*
X77706560Y-58793038D01*
X77682456Y-58800810D01*
X77657560Y-58807546D01*
X77631874Y-58813245D01*
X77605396Y-58817908D01*
X77578127Y-58821535D01*
X77550068Y-58824126D01*
X77521218Y-58825680D01*
X77491576Y-58826198D01*
X77471799Y-58825920D01*
X77452198Y-58825087D01*
X77432771Y-58823698D01*
X77413520Y-58821753D01*
X77394444Y-58819252D01*
X77375544Y-58816196D01*
X77356818Y-58812584D01*
X77338268Y-58808416D01*
X77319893Y-58803693D01*
X77301693Y-58798414D01*
X77283668Y-58792579D01*
X77265819Y-58786189D01*
X77248144Y-58779242D01*
X77230645Y-58771740D01*
X77213322Y-58763683D01*
X77196173Y-58755069D01*
X77196173Y-58557066D01*
X77212718Y-58568007D01*
X77229354Y-58578242D01*
X77246080Y-58587772D01*
X77262895Y-58596595D01*
X77279801Y-58604713D01*
X77296797Y-58612124D01*
X77313883Y-58618830D01*
X77331059Y-58624830D01*
X77348325Y-58630124D01*
X77365682Y-58634712D01*
X77383128Y-58638594D01*
X77400665Y-58641771D01*
X77418291Y-58644241D01*
X77436008Y-58646006D01*
X77453815Y-58647065D01*
X77471712Y-58647418D01*
X77471711Y-58647425D01*
X77488296Y-58647092D01*
X77504411Y-58646093D01*
X77520055Y-58644429D01*
X77535229Y-58642099D01*
X77549932Y-58639103D01*
X77564165Y-58635441D01*
X77577927Y-58631113D01*
X77591218Y-58626119D01*
X77604039Y-58620460D01*
X77616389Y-58614135D01*
X77628268Y-58607144D01*
X77639677Y-58599487D01*
X77650616Y-58591164D01*
X77661084Y-58582175D01*
X77671081Y-58572521D01*
X77680608Y-58562200D01*
X77689609Y-58551307D01*
X77698029Y-58539933D01*
X77705869Y-58528078D01*
X77713128Y-58515743D01*
X77719806Y-58502927D01*
X77725903Y-58489630D01*
X77731420Y-58475853D01*
X77736356Y-58461596D01*
X77740712Y-58446858D01*
X77744486Y-58431639D01*
X77747680Y-58415940D01*
X77750293Y-58399760D01*
X77752326Y-58383100D01*
X77753778Y-58365959D01*
X77754649Y-58348337D01*
X77754939Y-58330235D01*
X77754649Y-58312133D01*
X77753778Y-58294512D01*
X77752326Y-58277371D01*
X77750293Y-58260710D01*
X77747680Y-58244530D01*
X77744486Y-58228831D01*
X77740712Y-58213612D01*
X77736356Y-58198874D01*
X77731420Y-58184617D01*
X77725903Y-58170840D01*
X77719806Y-58157543D01*
X77713128Y-58144728D01*
X77705869Y-58132392D01*
X77698029Y-58120538D01*
X77689609Y-58109163D01*
X77680608Y-58098270D01*
X77671081Y-58087872D01*
X77661084Y-58078145D01*
X77650616Y-58069089D01*
X77639677Y-58060704D01*
X77628268Y-58052990D01*
X77616389Y-58045946D01*
X77604039Y-58039573D01*
X77591218Y-58033871D01*
X77577927Y-58028840D01*
X77564165Y-58024479D01*
X77549932Y-58020790D01*
X77535229Y-58017771D01*
X77520055Y-58015423D01*
X77504411Y-58013746D01*
X77488296Y-58012740D01*
X77471711Y-58012404D01*
X77453964Y-58012757D01*
X77436288Y-58013816D01*
X77418681Y-58015581D01*
X77401144Y-58018051D01*
X77383678Y-58021228D01*
X77366282Y-58025110D01*
X77348955Y-58029698D01*
X77331699Y-58034992D01*
X77314513Y-58040992D01*
X77297397Y-58047698D01*
X77280351Y-58055110D01*
X77263375Y-58063227D01*
X77246469Y-58072050D01*
X77229634Y-58081580D01*
X77212868Y-58091815D01*
X77196173Y-58102756D01*
X77196173Y-57904753D01*
X77213321Y-57896139D01*
X77230645Y-57888082D01*
X77248144Y-57880580D01*
X77265818Y-57873633D01*
X77283668Y-57867243D01*
X77301692Y-57861408D01*
X77319892Y-57856129D01*
X77338267Y-57851406D01*
X77356818Y-57847238D01*
X77375543Y-57843626D01*
X77394444Y-57840570D01*
X77413520Y-57838069D01*
X77432771Y-57836124D01*
X77452197Y-57834735D01*
X77471799Y-57833902D01*
X77491576Y-57833624D01*
X77521295Y-57834144D01*
G37*
G36*
X109759999Y-61503333D02*
G01*
X109323965Y-61503333D01*
X109323965Y-61067299D01*
X109759999Y-61067299D01*
X109759999Y-61503333D01*
G37*
G36*
X103833333Y-46263334D02*
G01*
X103397299Y-46263334D01*
X103397299Y-45827301D01*
X103833333Y-45827301D01*
X103833333Y-46263334D01*
G37*
G36*
X105103333Y-47533334D02*
G01*
X104667300Y-47533334D01*
X104667300Y-47097301D01*
X105103333Y-47097301D01*
X105103333Y-47533334D01*
G37*
G36*
X97483333Y-55153334D02*
G01*
X97047300Y-55153334D01*
X97047300Y-54717300D01*
X97483333Y-54717300D01*
X97483333Y-55153334D01*
G37*
G36*
X98753333Y-61079999D02*
G01*
X98317300Y-61079999D01*
X98317300Y-60643967D01*
X98753333Y-60643967D01*
X98753333Y-61079999D01*
G37*
G36*
X101293333Y-55153334D02*
G01*
X100857300Y-55153334D01*
X100857300Y-54717300D01*
X101293333Y-54717300D01*
X101293333Y-55153334D01*
G37*
G36*
X105950000Y-51343334D02*
G01*
X105513966Y-51343334D01*
X105513966Y-50907300D01*
X105950000Y-50907300D01*
X105950000Y-51343334D01*
G37*
G36*
X103833333Y-54730001D02*
G01*
X103397299Y-54730001D01*
X103397299Y-54293967D01*
X103833333Y-54293967D01*
X103833333Y-54730001D01*
G37*
G36*
X97906666Y-60233333D02*
G01*
X97470633Y-60233333D01*
X97470633Y-59797300D01*
X97906666Y-59797300D01*
X97906666Y-60233333D01*
G37*
G36*
X102140000Y-54306667D02*
G01*
X101703966Y-54306667D01*
X101703966Y-53870633D01*
X102140000Y-53870633D01*
X102140000Y-54306667D01*
G37*
G36*
X97906666Y-59386666D02*
G01*
X97470633Y-59386666D01*
X97470633Y-58950634D01*
X97906666Y-58950634D01*
X97906666Y-59386666D01*
G37*
G36*
X104256666Y-49650000D02*
G01*
X103820633Y-49650000D01*
X103820633Y-49213967D01*
X104256666Y-49213967D01*
X104256666Y-49650000D01*
G37*
G36*
X101293333Y-48803334D02*
G01*
X100857300Y-48803334D01*
X100857300Y-48367300D01*
X101293333Y-48367300D01*
X101293333Y-48803334D01*
G37*
G36*
X97906666Y-47956667D02*
G01*
X97470633Y-47956667D01*
X97470633Y-47520634D01*
X97906666Y-47520634D01*
X97906666Y-47956667D01*
G37*
G36*
X106373334Y-49650000D02*
G01*
X105937299Y-49650000D01*
X105937299Y-49213967D01*
X106373334Y-49213967D01*
X106373334Y-49650000D01*
G37*
G36*
X75699403Y-58807617D02*
G01*
X75452699Y-58807617D01*
X75452699Y-58445570D01*
X75382853Y-58445570D01*
X75375109Y-58445682D01*
X75367575Y-58446020D01*
X75360251Y-58446583D01*
X75353137Y-58447372D01*
X75346233Y-58448386D01*
X75339540Y-58449625D01*
X75333057Y-58451089D01*
X75326784Y-58452779D01*
X75320722Y-58454694D01*
X75314870Y-58456834D01*
X75309228Y-58459199D01*
X75303796Y-58461790D01*
X75298575Y-58464606D01*
X75293564Y-58467647D01*
X75288763Y-58470913D01*
X75284172Y-58474405D01*
X75279621Y-58478082D01*
X75275101Y-58482065D01*
X75270610Y-58486353D01*
X75266150Y-58490946D01*
X75261719Y-58495845D01*
X75257319Y-58501049D01*
X75252949Y-58506559D01*
X75248608Y-58512373D01*
X75244298Y-58518493D01*
X75240018Y-58524919D01*
X75235767Y-58531650D01*
X75231547Y-58538686D01*
X75227357Y-58546027D01*
X75223197Y-58553674D01*
X75219067Y-58561626D01*
X75214967Y-58569884D01*
X75098344Y-58807617D01*
X74835621Y-58807617D01*
X74969545Y-58535921D01*
X74978877Y-58517808D01*
X74988288Y-58500637D01*
X74997780Y-58484407D01*
X75002556Y-58476645D01*
X75007351Y-58469118D01*
X75012167Y-58461827D01*
X75017003Y-58454771D01*
X75021859Y-58447950D01*
X75026735Y-58441364D01*
X75031631Y-58435014D01*
X75036547Y-58428899D01*
X75041483Y-58423019D01*
X75046440Y-58417375D01*
X75051391Y-58411971D01*
X75056472Y-58406812D01*
X75061683Y-58401898D01*
X75067025Y-58397230D01*
X75072497Y-58392807D01*
X75078098Y-58388630D01*
X75083830Y-58384697D01*
X75089693Y-58381010D01*
X75095685Y-58377569D01*
X75101808Y-58374372D01*
X75108060Y-58371421D01*
X75114443Y-58368715D01*
X75120956Y-58366255D01*
X75127599Y-58364039D01*
X75134373Y-58362070D01*
X75141276Y-58360345D01*
X75119006Y-58352628D01*
X75098173Y-58343895D01*
X75078777Y-58334145D01*
X75060817Y-58323379D01*
X75052376Y-58317615D01*
X75044294Y-58311597D01*
X75036572Y-58305325D01*
X75029208Y-58298799D01*
X75022204Y-58292019D01*
X75015559Y-58284985D01*
X75009273Y-58277697D01*
X75003346Y-58270155D01*
X74997779Y-58262358D01*
X74992571Y-58254308D01*
X74987722Y-58246003D01*
X74983232Y-58237445D01*
X74979101Y-58228632D01*
X74975330Y-58219566D01*
X74971917Y-58210245D01*
X74968864Y-58200670D01*
X74963835Y-58180758D01*
X74960243Y-58159830D01*
X74959420Y-58151451D01*
X75204073Y-58151451D01*
X75204201Y-58159247D01*
X75204584Y-58166787D01*
X75205222Y-58174066D01*
X75206115Y-58181084D01*
X75207264Y-58187843D01*
X75208669Y-58194341D01*
X75210328Y-58200578D01*
X75212243Y-58206556D01*
X75214413Y-58212273D01*
X75216839Y-58217729D01*
X75219519Y-58222926D01*
X75222456Y-58227862D01*
X75225647Y-58232537D01*
X75229094Y-58236953D01*
X75232796Y-58241108D01*
X75236753Y-58245003D01*
X75240946Y-58248650D01*
X75245514Y-58252062D01*
X75250458Y-58255239D01*
X75255777Y-58258180D01*
X75261471Y-58260886D01*
X75267541Y-58263356D01*
X75273987Y-58265592D01*
X75280807Y-58267592D01*
X75288004Y-58269356D01*
X75295576Y-58270885D01*
X75303523Y-58272180D01*
X75311846Y-58273238D01*
X75320544Y-58274062D01*
X75329617Y-58274650D01*
X75339067Y-58275003D01*
X75348891Y-58275120D01*
X75452699Y-58275120D01*
X75452699Y-58029700D01*
X75348891Y-58029700D01*
X75339752Y-58029808D01*
X75330919Y-58030131D01*
X75322391Y-58030669D01*
X75314168Y-58031423D01*
X75306251Y-58032391D01*
X75298639Y-58033575D01*
X75291333Y-58034974D01*
X75284332Y-58036589D01*
X75277636Y-58038419D01*
X75271246Y-58040464D01*
X75265161Y-58042724D01*
X75259381Y-58045199D01*
X75253907Y-58047890D01*
X75248738Y-58050796D01*
X75243875Y-58053918D01*
X75239316Y-58057254D01*
X75235049Y-58060776D01*
X75231056Y-58064613D01*
X75227339Y-58068765D01*
X75223898Y-58073233D01*
X75220731Y-58078016D01*
X75217840Y-58083115D01*
X75215224Y-58088529D01*
X75212884Y-58094259D01*
X75210819Y-58100304D01*
X75209029Y-58106664D01*
X75207515Y-58113340D01*
X75206276Y-58120331D01*
X75205312Y-58127638D01*
X75204624Y-58135260D01*
X75204211Y-58143198D01*
X75204073Y-58151451D01*
X74959420Y-58151451D01*
X74959420Y-58151447D01*
X74958088Y-58137886D01*
X74957370Y-58114925D01*
X74957370Y-58114921D01*
X74957440Y-58107215D01*
X74957650Y-58099633D01*
X74958001Y-58092176D01*
X74958492Y-58084845D01*
X74959122Y-58077639D01*
X74959893Y-58070558D01*
X74960804Y-58063602D01*
X74961856Y-58056771D01*
X74963047Y-58050065D01*
X74964379Y-58043485D01*
X74965851Y-58037029D01*
X74967463Y-58030699D01*
X74969215Y-58024494D01*
X74971107Y-58018414D01*
X74973140Y-58012459D01*
X74975312Y-58006629D01*
X74977567Y-58000825D01*
X74980008Y-57995106D01*
X74982634Y-57989472D01*
X74985445Y-57983923D01*
X74988441Y-57978458D01*
X74991622Y-57973080D01*
X74994989Y-57967786D01*
X74998541Y-57962577D01*
X75002278Y-57957453D01*
X75006200Y-57952414D01*
X75010308Y-57947461D01*
X75014601Y-57942592D01*
X75019079Y-57937808D01*
X75023742Y-57933110D01*
X75028590Y-57928496D01*
X75033624Y-57923968D01*
X75038873Y-57919550D01*
X75044367Y-57915267D01*
X75050107Y-57911119D01*
X75056092Y-57907107D01*
X75062322Y-57903229D01*
X75068797Y-57899487D01*
X75075518Y-57895881D01*
X75082484Y-57892409D01*
X75089695Y-57889072D01*
X75097152Y-57885871D01*
X75104854Y-57882805D01*
X75112801Y-57879874D01*
X75120994Y-57877078D01*
X75129432Y-57874418D01*
X75138115Y-57871892D01*
X75147043Y-57869501D01*
X75165626Y-57865146D01*
X75185170Y-57861372D01*
X75205676Y-57858178D01*
X75227142Y-57855565D01*
X75249570Y-57853533D01*
X75272958Y-57852081D01*
X75297308Y-57851210D01*
X75322619Y-57850920D01*
X75699403Y-57850920D01*
X75699403Y-58807617D01*
G37*
G36*
X102563333Y-57270000D02*
G01*
X102127299Y-57270000D01*
X102127299Y-56833967D01*
X102563333Y-56833967D01*
X102563333Y-57270000D01*
G37*
G36*
X102986667Y-51766668D02*
G01*
X102550633Y-51766668D01*
X102550633Y-51330634D01*
X102986667Y-51330634D01*
X102986667Y-51766668D01*
G37*
G36*
X98329999Y-50496667D02*
G01*
X97893967Y-50496667D01*
X97893967Y-50060634D01*
X98329999Y-50060634D01*
X98329999Y-50496667D01*
G37*
G36*
X108913331Y-50496667D02*
G01*
X108477299Y-50496667D01*
X108477299Y-50060634D01*
X108913331Y-50060634D01*
X108913331Y-50496667D01*
G37*
G36*
X107643332Y-52190001D02*
G01*
X107207300Y-52190001D01*
X107207300Y-51753967D01*
X107643332Y-51753967D01*
X107643332Y-52190001D01*
G37*
G36*
X103833333Y-54306667D02*
G01*
X103397299Y-54306667D01*
X103397299Y-53870633D01*
X103833333Y-53870633D01*
X103833333Y-54306667D01*
G37*
G36*
X102986667Y-56846667D02*
G01*
X102550633Y-56846667D01*
X102550633Y-56410634D01*
X102986667Y-56410634D01*
X102986667Y-56846667D01*
G37*
G36*
X106796666Y-50496667D02*
G01*
X106360632Y-50496667D01*
X106360632Y-50060634D01*
X106796666Y-50060634D01*
X106796666Y-50496667D01*
G37*
G36*
X103833333Y-53883334D02*
G01*
X103397299Y-53883334D01*
X103397299Y-53447300D01*
X103833333Y-53447300D01*
X103833333Y-53883334D01*
G37*
G36*
X103833333Y-48380000D02*
G01*
X103397299Y-48380000D01*
X103397299Y-47943967D01*
X103833333Y-47943967D01*
X103833333Y-48380000D01*
G37*
G36*
X102986667Y-58963332D02*
G01*
X102550633Y-58963332D01*
X102550633Y-58527300D01*
X102986667Y-58527300D01*
X102986667Y-58963332D01*
G37*
G36*
X104256666Y-51343334D02*
G01*
X103820633Y-51343334D01*
X103820633Y-50907300D01*
X104256666Y-50907300D01*
X104256666Y-51343334D01*
G37*
G36*
X106796666Y-53036667D02*
G01*
X106360632Y-53036667D01*
X106360632Y-52600634D01*
X106796666Y-52600634D01*
X106796666Y-53036667D01*
G37*
G36*
X98753333Y-47533334D02*
G01*
X98317300Y-47533334D01*
X98317300Y-47097301D01*
X98753333Y-47097301D01*
X98753333Y-47533334D01*
G37*
G36*
X101293333Y-51766668D02*
G01*
X100857300Y-51766668D01*
X100857300Y-51330634D01*
X101293333Y-51330634D01*
X101293333Y-51766668D01*
G37*
G36*
X106373334Y-50496667D02*
G01*
X105937299Y-50496667D01*
X105937299Y-50060634D01*
X106373334Y-50060634D01*
X106373334Y-50496667D01*
G37*
G36*
X100446667Y-46686667D02*
G01*
X100010633Y-46686667D01*
X100010633Y-46250634D01*
X100446667Y-46250634D01*
X100446667Y-46686667D01*
G37*
G36*
X95790000Y-56000000D02*
G01*
X95353967Y-56000000D01*
X95353967Y-55563967D01*
X95790000Y-55563967D01*
X95790000Y-56000000D01*
G37*
G36*
X104256666Y-51766668D02*
G01*
X103820633Y-51766668D01*
X103820633Y-51330634D01*
X104256666Y-51330634D01*
X104256666Y-51766668D01*
G37*
G36*
X108066666Y-61079999D02*
G01*
X107630632Y-61079999D01*
X107630632Y-60643967D01*
X108066666Y-60643967D01*
X108066666Y-61079999D01*
G37*
G36*
X107219998Y-54306667D02*
G01*
X106783966Y-54306667D01*
X106783966Y-53870633D01*
X107219998Y-53870633D01*
X107219998Y-54306667D01*
G37*
G36*
X99176666Y-47110000D02*
G01*
X98740633Y-47110000D01*
X98740633Y-46673967D01*
X99176666Y-46673967D01*
X99176666Y-47110000D01*
G37*
G36*
X94520000Y-58116668D02*
G01*
X94083967Y-58116668D01*
X94083967Y-57680633D01*
X94520000Y-57680633D01*
X94520000Y-58116668D01*
G37*
G36*
X106796666Y-58116668D02*
G01*
X106360632Y-58116668D01*
X106360632Y-57680633D01*
X106796666Y-57680633D01*
X106796666Y-58116668D01*
G37*
G36*
X106373334Y-61079999D02*
G01*
X105937299Y-61079999D01*
X105937299Y-60643967D01*
X106373334Y-60643967D01*
X106373334Y-61079999D01*
G37*
G36*
X108066666Y-56423333D02*
G01*
X107630632Y-56423333D01*
X107630632Y-55987300D01*
X108066666Y-55987300D01*
X108066666Y-56423333D01*
G37*
G36*
X97060000Y-49650000D02*
G01*
X96623966Y-49650000D01*
X96623966Y-49213967D01*
X97060000Y-49213967D01*
X97060000Y-49650000D01*
G37*
G36*
X108913331Y-53883334D02*
G01*
X108477299Y-53883334D01*
X108477299Y-53447300D01*
X108913331Y-53447300D01*
X108913331Y-53883334D01*
G37*
G36*
X107219998Y-49650000D02*
G01*
X106783966Y-49650000D01*
X106783966Y-49213967D01*
X107219998Y-49213967D01*
X107219998Y-49650000D01*
G37*
G36*
X97060000Y-56423333D02*
G01*
X96623966Y-56423333D01*
X96623966Y-55987300D01*
X97060000Y-55987300D01*
X97060000Y-56423333D01*
G37*
G36*
X100870000Y-54306667D02*
G01*
X100433966Y-54306667D01*
X100433966Y-53870633D01*
X100870000Y-53870633D01*
X100870000Y-54306667D01*
G37*
G36*
X104256666Y-58540000D02*
G01*
X103820633Y-58540000D01*
X103820633Y-58103966D01*
X104256666Y-58103966D01*
X104256666Y-58540000D01*
G37*
G36*
X98753333Y-53036667D02*
G01*
X98317300Y-53036667D01*
X98317300Y-52600634D01*
X98753333Y-52600634D01*
X98753333Y-53036667D01*
G37*
G36*
X106373334Y-57270000D02*
G01*
X105937299Y-57270000D01*
X105937299Y-56833967D01*
X106373334Y-56833967D01*
X106373334Y-57270000D01*
G37*
G36*
X78442707Y-56578608D02*
G01*
X78744521Y-56578608D01*
X79108145Y-57560324D01*
X78853674Y-57560324D01*
X78791207Y-57381471D01*
X78395364Y-57381471D01*
X78333554Y-57560324D01*
X78079083Y-57560324D01*
X78212795Y-57199328D01*
X78459146Y-57199328D01*
X78728082Y-57199328D01*
X78593285Y-56808746D01*
X78459146Y-57199328D01*
X78212795Y-57199328D01*
X78442707Y-56578608D01*
G37*
G36*
X97906666Y-52190001D02*
G01*
X97470633Y-52190001D01*
X97470633Y-51753967D01*
X97906666Y-51753967D01*
X97906666Y-52190001D01*
G37*
G36*
X94943333Y-55153334D02*
G01*
X94507300Y-55153334D01*
X94507300Y-54717300D01*
X94943333Y-54717300D01*
X94943333Y-55153334D01*
G37*
G36*
X106796666Y-56423333D02*
G01*
X106360632Y-56423333D01*
X106360632Y-55987300D01*
X106796666Y-55987300D01*
X106796666Y-56423333D01*
G37*
G36*
X101293333Y-53036667D02*
G01*
X100857300Y-53036667D01*
X100857300Y-52600634D01*
X101293333Y-52600634D01*
X101293333Y-53036667D01*
G37*
G36*
X100446667Y-50920000D02*
G01*
X100010633Y-50920000D01*
X100010633Y-50483967D01*
X100446667Y-50483967D01*
X100446667Y-50920000D01*
G37*
G36*
X105526666Y-47533334D02*
G01*
X105090633Y-47533334D01*
X105090633Y-47097301D01*
X105526666Y-47097301D01*
X105526666Y-47533334D01*
G37*
G36*
X101293333Y-58963332D02*
G01*
X100857300Y-58963332D01*
X100857300Y-58527300D01*
X101293333Y-58527300D01*
X101293333Y-58963332D01*
G37*
G36*
X104256666Y-60233333D02*
G01*
X103820633Y-60233333D01*
X103820633Y-59797300D01*
X104256666Y-59797300D01*
X104256666Y-60233333D01*
G37*
G36*
X108066666Y-52613334D02*
G01*
X107630632Y-52613334D01*
X107630632Y-52177300D01*
X108066666Y-52177300D01*
X108066666Y-52613334D01*
G37*
G36*
X105950000Y-53036667D02*
G01*
X105513966Y-53036667D01*
X105513966Y-52600634D01*
X105950000Y-52600634D01*
X105950000Y-53036667D01*
G37*
G36*
X94943333Y-56000000D02*
G01*
X94507300Y-56000000D01*
X94507300Y-55563967D01*
X94943333Y-55563967D01*
X94943333Y-56000000D01*
G37*
G36*
X107643332Y-55576667D02*
G01*
X107207300Y-55576667D01*
X107207300Y-55140633D01*
X107643332Y-55140633D01*
X107643332Y-55576667D01*
G37*
G36*
X98753333Y-51766668D02*
G01*
X98317300Y-51766668D01*
X98317300Y-51330634D01*
X98753333Y-51330634D01*
X98753333Y-51766668D01*
G37*
G36*
X108066666Y-60233333D02*
G01*
X107630632Y-60233333D01*
X107630632Y-59797300D01*
X108066666Y-59797300D01*
X108066666Y-60233333D01*
G37*
G36*
X73475839Y-58380912D02*
G01*
X73490341Y-58382043D01*
X73504633Y-58383905D01*
X73518695Y-58386481D01*
X73532511Y-58389751D01*
X73546062Y-58393698D01*
X73559331Y-58398303D01*
X73572299Y-58403547D01*
X73584948Y-58409412D01*
X73597261Y-58415880D01*
X73609220Y-58422933D01*
X73620806Y-58430551D01*
X73632002Y-58438717D01*
X73642790Y-58447412D01*
X73653152Y-58456617D01*
X73663069Y-58466315D01*
X73672525Y-58476487D01*
X73681500Y-58487114D01*
X73689978Y-58498178D01*
X73697940Y-58509662D01*
X73705367Y-58521545D01*
X73712243Y-58533810D01*
X73718550Y-58546439D01*
X73724269Y-58559413D01*
X73729382Y-58572713D01*
X73733871Y-58586322D01*
X73737719Y-58600221D01*
X73740908Y-58614391D01*
X73743419Y-58628814D01*
X73745235Y-58643472D01*
X73746338Y-58658347D01*
X73746710Y-58673419D01*
X73746338Y-58688491D01*
X73745235Y-58703365D01*
X73743419Y-58718023D01*
X73740908Y-58732446D01*
X73737719Y-58746617D01*
X73733871Y-58760515D01*
X73729381Y-58774124D01*
X73724268Y-58787425D01*
X73718549Y-58800398D01*
X73712243Y-58813027D01*
X73705367Y-58825293D01*
X73697939Y-58837176D01*
X73689977Y-58848659D01*
X73681500Y-58859723D01*
X73672524Y-58870351D01*
X73663069Y-58880522D01*
X73653151Y-58890220D01*
X73642789Y-58899426D01*
X73632002Y-58908121D01*
X73620805Y-58916287D01*
X73609219Y-58923905D01*
X73597260Y-58930957D01*
X73584947Y-58937425D01*
X73572298Y-58943291D01*
X73559330Y-58948535D01*
X73546061Y-58953139D01*
X73532510Y-58957086D01*
X73518694Y-58960357D01*
X73504631Y-58962932D01*
X73490339Y-58964795D01*
X73475837Y-58965926D01*
X73461142Y-58966307D01*
X73446447Y-58965926D01*
X73431944Y-58964795D01*
X73417653Y-58962932D01*
X73403590Y-58960357D01*
X73389774Y-58957086D01*
X73376223Y-58953139D01*
X73362955Y-58948535D01*
X73349987Y-58943291D01*
X73337337Y-58937425D01*
X73325024Y-58930957D01*
X73313065Y-58923905D01*
X73301479Y-58916287D01*
X73290283Y-58908121D01*
X73279495Y-58899426D01*
X73269134Y-58890220D01*
X73259216Y-58880522D01*
X73249761Y-58870351D01*
X73240785Y-58859723D01*
X73232308Y-58848659D01*
X73224346Y-58837176D01*
X73216918Y-58825293D01*
X73210042Y-58813027D01*
X73203736Y-58800398D01*
X73198017Y-58787425D01*
X73192904Y-58774124D01*
X73188414Y-58760515D01*
X73184566Y-58746617D01*
X73181377Y-58732446D01*
X73178866Y-58718023D01*
X73177050Y-58703365D01*
X73175947Y-58688491D01*
X73175576Y-58673419D01*
X73175947Y-58658347D01*
X73177050Y-58643472D01*
X73178866Y-58628814D01*
X73181378Y-58614391D01*
X73184566Y-58600221D01*
X73188415Y-58586322D01*
X73192904Y-58572713D01*
X73198017Y-58559413D01*
X73203736Y-58546439D01*
X73210043Y-58533810D01*
X73216919Y-58521545D01*
X73224347Y-58509662D01*
X73232308Y-58498178D01*
X73240786Y-58487114D01*
X73249761Y-58476487D01*
X73259217Y-58466315D01*
X73269134Y-58456617D01*
X73279496Y-58447412D01*
X73290284Y-58438717D01*
X73301480Y-58430551D01*
X73313066Y-58422933D01*
X73325025Y-58415880D01*
X73337338Y-58409412D01*
X73349988Y-58403547D01*
X73362956Y-58398303D01*
X73376225Y-58393698D01*
X73389776Y-58389751D01*
X73403592Y-58386481D01*
X73417655Y-58383905D01*
X73431946Y-58382043D01*
X73446448Y-58380912D01*
X73461144Y-58380531D01*
X73475839Y-58380912D01*
G37*
G36*
X99176666Y-49650000D02*
G01*
X98740633Y-49650000D01*
X98740633Y-49213967D01*
X99176666Y-49213967D01*
X99176666Y-49650000D01*
G37*
G36*
X102986667Y-56000000D02*
G01*
X102550633Y-56000000D01*
X102550633Y-55563967D01*
X102986667Y-55563967D01*
X102986667Y-56000000D01*
G37*
G36*
X95366666Y-49650000D02*
G01*
X94930633Y-49650000D01*
X94930633Y-49213967D01*
X95366666Y-49213967D01*
X95366666Y-49650000D01*
G37*
G36*
X94520000Y-50496667D02*
G01*
X94083967Y-50496667D01*
X94083967Y-50060634D01*
X94520000Y-50060634D01*
X94520000Y-50496667D01*
G37*
G36*
X105103333Y-61503333D02*
G01*
X104667300Y-61503333D01*
X104667300Y-61067299D01*
X105103333Y-61067299D01*
X105103333Y-61503333D01*
G37*
G36*
X104256666Y-55153334D02*
G01*
X103820633Y-55153334D01*
X103820633Y-54717300D01*
X104256666Y-54717300D01*
X104256666Y-55153334D01*
G37*
G36*
X103410000Y-61079999D02*
G01*
X102973966Y-61079999D01*
X102973966Y-60643967D01*
X103410000Y-60643967D01*
X103410000Y-61079999D01*
G37*
G36*
X105526666Y-61079999D02*
G01*
X105090633Y-61079999D01*
X105090633Y-60643967D01*
X105526666Y-60643967D01*
X105526666Y-61079999D01*
G37*
G36*
X98329999Y-47110000D02*
G01*
X97893967Y-47110000D01*
X97893967Y-46673967D01*
X98329999Y-46673967D01*
X98329999Y-47110000D01*
G37*
G36*
X100870000Y-52190001D02*
G01*
X100433966Y-52190001D01*
X100433966Y-51753967D01*
X100870000Y-51753967D01*
X100870000Y-52190001D01*
G37*
G36*
X109336665Y-51343334D02*
G01*
X108900633Y-51343334D01*
X108900633Y-50907300D01*
X109336665Y-50907300D01*
X109336665Y-51343334D01*
G37*
G36*
X100870000Y-61503333D02*
G01*
X100433966Y-61503333D01*
X100433966Y-61067299D01*
X100870000Y-61067299D01*
X100870000Y-61503333D01*
G37*
G36*
X97483333Y-56846667D02*
G01*
X97047300Y-56846667D01*
X97047300Y-56410634D01*
X97483333Y-56410634D01*
X97483333Y-56846667D01*
G37*
G36*
X101716666Y-58540000D02*
G01*
X101280633Y-58540000D01*
X101280633Y-58103966D01*
X101716666Y-58103966D01*
X101716666Y-58540000D01*
G37*
G36*
X105103333Y-49650000D02*
G01*
X104667300Y-49650000D01*
X104667300Y-49213967D01*
X105103333Y-49213967D01*
X105103333Y-49650000D01*
G37*
G36*
X97906666Y-53036667D02*
G01*
X97470633Y-53036667D01*
X97470633Y-52600634D01*
X97906666Y-52600634D01*
X97906666Y-53036667D01*
G37*
G36*
X99600000Y-60656665D02*
G01*
X99163966Y-60656665D01*
X99163966Y-60220633D01*
X99600000Y-60220633D01*
X99600000Y-60656665D01*
G37*
G36*
X108913331Y-56423333D02*
G01*
X108477299Y-56423333D01*
X108477299Y-55987300D01*
X108913331Y-55987300D01*
X108913331Y-56423333D01*
G37*
G36*
X105526666Y-52613334D02*
G01*
X105090633Y-52613334D01*
X105090633Y-52177300D01*
X105526666Y-52177300D01*
X105526666Y-52613334D01*
G37*
G36*
X102563333Y-53036667D02*
G01*
X102127299Y-53036667D01*
X102127299Y-52600634D01*
X102563333Y-52600634D01*
X102563333Y-53036667D01*
G37*
G36*
X101293333Y-47533334D02*
G01*
X100857300Y-47533334D01*
X100857300Y-47097301D01*
X101293333Y-47097301D01*
X101293333Y-47533334D01*
G37*
G36*
X108066666Y-49650000D02*
G01*
X107630632Y-49650000D01*
X107630632Y-49213967D01*
X108066666Y-49213967D01*
X108066666Y-49650000D01*
G37*
G36*
X98329999Y-46263334D02*
G01*
X97893967Y-46263334D01*
X97893967Y-45827301D01*
X98329999Y-45827301D01*
X98329999Y-46263334D01*
G37*
G36*
X97047300Y-61490633D02*
G01*
X94083967Y-61490633D01*
X94083967Y-58950634D01*
X94507300Y-58950634D01*
X94507300Y-61067299D01*
X96623966Y-61067299D01*
X96623966Y-58950634D01*
X94507300Y-58950634D01*
X94083967Y-58950634D01*
X94083967Y-58527300D01*
X97047300Y-58527300D01*
X97047300Y-61490633D01*
G37*
G36*
X102563333Y-55153334D02*
G01*
X102127299Y-55153334D01*
X102127299Y-54717300D01*
X102563333Y-54717300D01*
X102563333Y-55153334D01*
G37*
G36*
X108913331Y-54730001D02*
G01*
X108477299Y-54730001D01*
X108477299Y-54293967D01*
X108913331Y-54293967D01*
X108913331Y-54730001D01*
G37*
G36*
X107219998Y-56000000D02*
G01*
X106783966Y-56000000D01*
X106783966Y-55563967D01*
X107219998Y-55563967D01*
X107219998Y-56000000D01*
G37*
G36*
X103833333Y-61503333D02*
G01*
X103397299Y-61503333D01*
X103397299Y-61067299D01*
X103833333Y-61067299D01*
X103833333Y-61503333D01*
G37*
G36*
X102140000Y-50496667D02*
G01*
X101703966Y-50496667D01*
X101703966Y-50060634D01*
X102140000Y-50060634D01*
X102140000Y-50496667D01*
G37*
G36*
X97906666Y-47533334D02*
G01*
X97470633Y-47533334D01*
X97470633Y-47097301D01*
X97906666Y-47097301D01*
X97906666Y-47533334D01*
G37*
G36*
X106796666Y-59810000D02*
G01*
X106360632Y-59810000D01*
X106360632Y-59373966D01*
X106796666Y-59373966D01*
X106796666Y-59810000D01*
G37*
G36*
X102140000Y-55153334D02*
G01*
X101703966Y-55153334D01*
X101703966Y-54717300D01*
X102140000Y-54717300D01*
X102140000Y-55153334D01*
G37*
D11*
X72795999Y-58790712D02*
X72795999Y-55050000D01*
D10*
G36*
X109759999Y-53883334D02*
G01*
X109323965Y-53883334D01*
X109323965Y-53447300D01*
X109759999Y-53447300D01*
X109759999Y-53883334D01*
G37*
G36*
X98329999Y-56423333D02*
G01*
X97893967Y-56423333D01*
X97893967Y-55987300D01*
X98329999Y-55987300D01*
X98329999Y-56423333D01*
G37*
G36*
X96213333Y-53883334D02*
G01*
X95777300Y-53883334D01*
X95777300Y-53447300D01*
X96213333Y-53447300D01*
X96213333Y-53883334D01*
G37*
G36*
X106373334Y-56000000D02*
G01*
X105937299Y-56000000D01*
X105937299Y-55563967D01*
X106373334Y-55563967D01*
X106373334Y-56000000D01*
G37*
G36*
X107643332Y-52613334D02*
G01*
X107207300Y-52613334D01*
X107207300Y-52177300D01*
X107643332Y-52177300D01*
X107643332Y-52613334D01*
G37*
G36*
X99600000Y-56846667D02*
G01*
X99163966Y-56846667D01*
X99163966Y-56410634D01*
X99600000Y-56410634D01*
X99600000Y-56846667D01*
G37*
G36*
X102140000Y-58540000D02*
G01*
X101703966Y-58540000D01*
X101703966Y-58103966D01*
X102140000Y-58103966D01*
X102140000Y-58540000D01*
G37*
G36*
X103833333Y-53036667D02*
G01*
X103397299Y-53036667D01*
X103397299Y-52600634D01*
X103833333Y-52600634D01*
X103833333Y-53036667D01*
G37*
G36*
X105950000Y-57270000D02*
G01*
X105513966Y-57270000D01*
X105513966Y-56833967D01*
X105950000Y-56833967D01*
X105950000Y-57270000D01*
G37*
G36*
X103410000Y-53883334D02*
G01*
X102973966Y-53883334D01*
X102973966Y-53447300D01*
X103410000Y-53447300D01*
X103410000Y-53883334D01*
G37*
G36*
X95366666Y-55153334D02*
G01*
X94930633Y-55153334D01*
X94930633Y-54717300D01*
X95366666Y-54717300D01*
X95366666Y-55153334D01*
G37*
G36*
X100870000Y-60656665D02*
G01*
X100433966Y-60656665D01*
X100433966Y-60220633D01*
X100870000Y-60220633D01*
X100870000Y-60656665D01*
G37*
G36*
X99600000Y-57693334D02*
G01*
X99163966Y-57693334D01*
X99163966Y-57257300D01*
X99600000Y-57257300D01*
X99600000Y-57693334D01*
G37*
G36*
X100870000Y-52613334D02*
G01*
X100433966Y-52613334D01*
X100433966Y-52177300D01*
X100870000Y-52177300D01*
X100870000Y-52613334D01*
G37*
G36*
X102140000Y-57270000D02*
G01*
X101703966Y-57270000D01*
X101703966Y-56833967D01*
X102140000Y-56833967D01*
X102140000Y-57270000D01*
G37*
G36*
X99176666Y-50920000D02*
G01*
X98740633Y-50920000D01*
X98740633Y-50483967D01*
X99176666Y-50483967D01*
X99176666Y-50920000D01*
G37*
G36*
X100870000Y-47533334D02*
G01*
X100433966Y-47533334D01*
X100433966Y-47097301D01*
X100870000Y-47097301D01*
X100870000Y-47533334D01*
G37*
G36*
X105103333Y-52613334D02*
G01*
X104667300Y-52613334D01*
X104667300Y-52177300D01*
X105103333Y-52177300D01*
X105103333Y-52613334D01*
G37*
G36*
X106796666Y-60233333D02*
G01*
X106360632Y-60233333D01*
X106360632Y-59797300D01*
X106796666Y-59797300D01*
X106796666Y-60233333D01*
G37*
G36*
X97906666Y-61503333D02*
G01*
X97470633Y-61503333D01*
X97470633Y-61067299D01*
X97906666Y-61067299D01*
X97906666Y-61503333D01*
G37*
G36*
X100446667Y-61079999D02*
G01*
X100010633Y-61079999D01*
X100010633Y-60643967D01*
X100446667Y-60643967D01*
X100446667Y-61079999D01*
G37*
G36*
X104679999Y-54306667D02*
G01*
X104243966Y-54306667D01*
X104243966Y-53870633D01*
X104679999Y-53870633D01*
X104679999Y-54306667D01*
G37*
G36*
X108489999Y-54730001D02*
G01*
X108053966Y-54730001D01*
X108053966Y-54293967D01*
X108489999Y-54293967D01*
X108489999Y-54730001D01*
G37*
G36*
X105950000Y-52190001D02*
G01*
X105513966Y-52190001D01*
X105513966Y-51753967D01*
X105950000Y-51753967D01*
X105950000Y-52190001D01*
G37*
G36*
X98329999Y-61503333D02*
G01*
X97893967Y-61503333D01*
X97893967Y-61067299D01*
X98329999Y-61067299D01*
X98329999Y-61503333D01*
G37*
G36*
X95366666Y-50496667D02*
G01*
X94930633Y-50496667D01*
X94930633Y-50060634D01*
X95366666Y-50060634D01*
X95366666Y-50496667D01*
G37*
G36*
X98753333Y-48803334D02*
G01*
X98317300Y-48803334D01*
X98317300Y-48367300D01*
X98753333Y-48367300D01*
X98753333Y-48803334D01*
G37*
G36*
X101293333Y-53883334D02*
G01*
X100857300Y-53883334D01*
X100857300Y-53447300D01*
X101293333Y-53447300D01*
X101293333Y-53883334D01*
G37*
G36*
X107643332Y-50920000D02*
G01*
X107207300Y-50920000D01*
X107207300Y-50483967D01*
X107643332Y-50483967D01*
X107643332Y-50920000D01*
G37*
G36*
X99176666Y-54306667D02*
G01*
X98740633Y-54306667D01*
X98740633Y-53870633D01*
X99176666Y-53870633D01*
X99176666Y-54306667D01*
G37*
G36*
X106373334Y-58116668D02*
G01*
X105937299Y-58116668D01*
X105937299Y-57680633D01*
X106373334Y-57680633D01*
X106373334Y-58116668D01*
G37*
G36*
X97906666Y-50496667D02*
G01*
X97470633Y-50496667D01*
X97470633Y-50060634D01*
X97906666Y-50060634D01*
X97906666Y-50496667D01*
G37*
G36*
X97483333Y-50496667D02*
G01*
X97047300Y-50496667D01*
X97047300Y-50060634D01*
X97483333Y-50060634D01*
X97483333Y-50496667D01*
G37*
G36*
X109759999Y-61079999D02*
G01*
X109323965Y-61079999D01*
X109323965Y-60643967D01*
X109759999Y-60643967D01*
X109759999Y-61079999D01*
G37*
G36*
X104256666Y-61079999D02*
G01*
X103820633Y-61079999D01*
X103820633Y-60643967D01*
X104256666Y-60643967D01*
X104256666Y-61079999D01*
G37*
G36*
X103833333Y-51343334D02*
G01*
X103397299Y-51343334D01*
X103397299Y-50907300D01*
X103833333Y-50907300D01*
X103833333Y-51343334D01*
G37*
G36*
X106373334Y-50920000D02*
G01*
X105937299Y-50920000D01*
X105937299Y-50483967D01*
X106373334Y-50483967D01*
X106373334Y-50920000D01*
G37*
G36*
X109759999Y-56423333D02*
G01*
X109323965Y-56423333D01*
X109323965Y-55987300D01*
X109759999Y-55987300D01*
X109759999Y-56423333D01*
G37*
G36*
X108066666Y-55576667D02*
G01*
X107630632Y-55576667D01*
X107630632Y-55140633D01*
X108066666Y-55140633D01*
X108066666Y-55576667D01*
G37*
G36*
X101293333Y-52190001D02*
G01*
X100857300Y-52190001D01*
X100857300Y-51753967D01*
X101293333Y-51753967D01*
X101293333Y-52190001D01*
G37*
G36*
X97906666Y-55576667D02*
G01*
X97470633Y-55576667D01*
X97470633Y-55140633D01*
X97906666Y-55140633D01*
X97906666Y-55576667D01*
G37*
G36*
X97906666Y-52613334D02*
G01*
X97470633Y-52613334D01*
X97470633Y-52177300D01*
X97906666Y-52177300D01*
X97906666Y-52613334D01*
G37*
G36*
X97060000Y-50496667D02*
G01*
X96623966Y-50496667D01*
X96623966Y-50060634D01*
X97060000Y-50060634D01*
X97060000Y-50496667D01*
G37*
G36*
X109759999Y-55576667D02*
G01*
X109323965Y-55576667D01*
X109323965Y-55140633D01*
X109759999Y-55140633D01*
X109759999Y-55576667D01*
G37*
G36*
X107643332Y-51766668D02*
G01*
X107207300Y-51766668D01*
X107207300Y-51330634D01*
X107643332Y-51330634D01*
X107643332Y-51766668D01*
G37*
G36*
X100870000Y-59810000D02*
G01*
X100433966Y-59810000D01*
X100433966Y-59373966D01*
X100870000Y-59373966D01*
X100870000Y-59810000D01*
G37*
G36*
X109336665Y-51766668D02*
G01*
X108900633Y-51766668D01*
X108900633Y-51330634D01*
X109336665Y-51330634D01*
X109336665Y-51766668D01*
G37*
G36*
X105950000Y-59810000D02*
G01*
X105513966Y-59810000D01*
X105513966Y-59373966D01*
X105950000Y-59373966D01*
X105950000Y-59810000D01*
G37*
G36*
X102140000Y-49650000D02*
G01*
X101703966Y-49650000D01*
X101703966Y-49213967D01*
X102140000Y-49213967D01*
X102140000Y-49650000D01*
G37*
G36*
X106796666Y-54730001D02*
G01*
X106360632Y-54730001D01*
X106360632Y-54293967D01*
X106796666Y-54293967D01*
X106796666Y-54730001D01*
G37*
G36*
X96636666Y-56846667D02*
G01*
X96200633Y-56846667D01*
X96200633Y-56410634D01*
X96636666Y-56410634D01*
X96636666Y-56846667D01*
G37*
G36*
X96200633Y-60643967D02*
G01*
X94930633Y-60643967D01*
X94930633Y-59373966D01*
X96200633Y-59373966D01*
X96200633Y-60643967D01*
G37*
G36*
X109336665Y-50073333D02*
G01*
X108900633Y-50073333D01*
X108900633Y-49637301D01*
X109336665Y-49637301D01*
X109336665Y-50073333D01*
G37*
G36*
X105950000Y-60656665D02*
G01*
X105513966Y-60656665D01*
X105513966Y-60220633D01*
X105950000Y-60220633D01*
X105950000Y-60656665D01*
G37*
G36*
X97060000Y-53883334D02*
G01*
X96623966Y-53883334D01*
X96623966Y-53447300D01*
X97060000Y-53447300D01*
X97060000Y-53883334D01*
G37*
G36*
X77573620Y-56561152D02*
G01*
X77594276Y-56562046D01*
X77614347Y-56563536D01*
X77633832Y-56565622D01*
X77652731Y-56568303D01*
X77671045Y-56571581D01*
X77688773Y-56575454D01*
X77705915Y-56579923D01*
X77722472Y-56584988D01*
X77738444Y-56590649D01*
X77753829Y-56596906D01*
X77768629Y-56603759D01*
X77782843Y-56611208D01*
X77796472Y-56619252D01*
X77809515Y-56627893D01*
X77821973Y-56637129D01*
X77833757Y-56646958D01*
X77844781Y-56657379D01*
X77855045Y-56668390D01*
X77864549Y-56679992D01*
X77873292Y-56692185D01*
X77881275Y-56704968D01*
X77888498Y-56718343D01*
X77894960Y-56732308D01*
X77900662Y-56746864D01*
X77905604Y-56762011D01*
X77909786Y-56777748D01*
X77913207Y-56794076D01*
X77915868Y-56810995D01*
X77917769Y-56828505D01*
X77918909Y-56846605D01*
X77919289Y-56865296D01*
X77919009Y-56880446D01*
X77918170Y-56895154D01*
X77916770Y-56909420D01*
X77914810Y-56923244D01*
X77912290Y-56936626D01*
X77909211Y-56949567D01*
X77905571Y-56962065D01*
X77901371Y-56974122D01*
X77896612Y-56985737D01*
X77891292Y-56996910D01*
X77885413Y-57007641D01*
X77878974Y-57017931D01*
X77871974Y-57027779D01*
X77864415Y-57037185D01*
X77856296Y-57046149D01*
X77847617Y-57054671D01*
X77838391Y-57062834D01*
X77828630Y-57070720D01*
X77818336Y-57078328D01*
X77807507Y-57085658D01*
X77796143Y-57092712D01*
X77784246Y-57099487D01*
X77771814Y-57105986D01*
X77758848Y-57112207D01*
X77745348Y-57118150D01*
X77731313Y-57123817D01*
X77716744Y-57129205D01*
X77701641Y-57134317D01*
X77686004Y-57139151D01*
X77669833Y-57143707D01*
X77653127Y-57147987D01*
X77635887Y-57151988D01*
X77537912Y-57173686D01*
X77527907Y-57175931D01*
X77518278Y-57178227D01*
X77509024Y-57180575D01*
X77500144Y-57182974D01*
X77491640Y-57185424D01*
X77483510Y-57187926D01*
X77475756Y-57190479D01*
X77468376Y-57193083D01*
X77461372Y-57195739D01*
X77454743Y-57198446D01*
X77448488Y-57201204D01*
X77442609Y-57204014D01*
X77437104Y-57206875D01*
X77431975Y-57209788D01*
X77427220Y-57212752D01*
X77422841Y-57215768D01*
X77418701Y-57218906D01*
X77414827Y-57222240D01*
X77411221Y-57225770D01*
X77407882Y-57229494D01*
X77404810Y-57233414D01*
X77402005Y-57237529D01*
X77399467Y-57241839D01*
X77397197Y-57246344D01*
X77395193Y-57251045D01*
X77393457Y-57255941D01*
X77391988Y-57261031D01*
X77390785Y-57266317D01*
X77389851Y-57271799D01*
X77389183Y-57277475D01*
X77388782Y-57283346D01*
X77388648Y-57289413D01*
X77388674Y-57291706D01*
X77388751Y-57293984D01*
X77388880Y-57296246D01*
X77389059Y-57298494D01*
X77389291Y-57300725D01*
X77389573Y-57302942D01*
X77389907Y-57305143D01*
X77390292Y-57307329D01*
X77390729Y-57309499D01*
X77391217Y-57311654D01*
X77391756Y-57313794D01*
X77392347Y-57315918D01*
X77392989Y-57318027D01*
X77393683Y-57320120D01*
X77394428Y-57322198D01*
X77395224Y-57324261D01*
X77396087Y-57326321D01*
X77397033Y-57328392D01*
X77398060Y-57330473D01*
X77399170Y-57332564D01*
X77400362Y-57334665D01*
X77401636Y-57336776D01*
X77402992Y-57338898D01*
X77404430Y-57341030D01*
X77405951Y-57343172D01*
X77407553Y-57345324D01*
X77409238Y-57347487D01*
X77411006Y-57349660D01*
X77412855Y-57351843D01*
X77414786Y-57354036D01*
X77416800Y-57356240D01*
X77418896Y-57358454D01*
X77421108Y-57360565D01*
X77423468Y-57362624D01*
X77425978Y-57364632D01*
X77428636Y-57366589D01*
X77431443Y-57368495D01*
X77434400Y-57370349D01*
X77437505Y-57372152D01*
X77440760Y-57373903D01*
X77444163Y-57375604D01*
X77447715Y-57377253D01*
X77451416Y-57378851D01*
X77455267Y-57380397D01*
X77459266Y-57381893D01*
X77463414Y-57383336D01*
X77467711Y-57384729D01*
X77472157Y-57386070D01*
X77481291Y-57388383D01*
X77490939Y-57390387D01*
X77501100Y-57392082D01*
X77511775Y-57393470D01*
X77522963Y-57394549D01*
X77534666Y-57395319D01*
X77546882Y-57395782D01*
X77559611Y-57395936D01*
X77579785Y-57395543D01*
X77600194Y-57394364D01*
X77620840Y-57392399D01*
X77641722Y-57389648D01*
X77662841Y-57386112D01*
X77684196Y-57381789D01*
X77705787Y-57376680D01*
X77727614Y-57370785D01*
X77749678Y-57364104D01*
X77771978Y-57356638D01*
X77794514Y-57348385D01*
X77817287Y-57339346D01*
X77840296Y-57329521D01*
X77863542Y-57318910D01*
X77887023Y-57307513D01*
X77910741Y-57295331D01*
X77910741Y-57509033D01*
X77887082Y-57517553D01*
X77863449Y-57525523D01*
X77839842Y-57532943D01*
X77816260Y-57539814D01*
X77792704Y-57546135D01*
X77769173Y-57551906D01*
X77745669Y-57557128D01*
X77722189Y-57561800D01*
X77698736Y-57565923D01*
X77675308Y-57569495D01*
X77651906Y-57572518D01*
X77628530Y-57574992D01*
X77605179Y-57576916D01*
X77581854Y-57578290D01*
X77558555Y-57579114D01*
X77535282Y-57579389D01*
X77511800Y-57579091D01*
X77489027Y-57578197D01*
X77466963Y-57576708D01*
X77445609Y-57574622D01*
X77424963Y-57571940D01*
X77405026Y-57568663D01*
X77385797Y-57564789D01*
X77367278Y-57560320D01*
X77349468Y-57555255D01*
X77332367Y-57549594D01*
X77315974Y-57543337D01*
X77300291Y-57536485D01*
X77285316Y-57529036D01*
X77271050Y-57520991D01*
X77257493Y-57512351D01*
X77244646Y-57503115D01*
X77232543Y-57493221D01*
X77221220Y-57482608D01*
X77210679Y-57471276D01*
X77200919Y-57459225D01*
X77191939Y-57446454D01*
X77183740Y-57432964D01*
X77176322Y-57418755D01*
X77169685Y-57403827D01*
X77163829Y-57388179D01*
X77158753Y-57371812D01*
X77154459Y-57354726D01*
X77150945Y-57336921D01*
X77148212Y-57318396D01*
X77146260Y-57299153D01*
X77145089Y-57279190D01*
X77144698Y-57258508D01*
X77144981Y-57242884D01*
X77145829Y-57227738D01*
X77147241Y-57213069D01*
X77149219Y-57198878D01*
X77151762Y-57185165D01*
X77154870Y-57171930D01*
X77158543Y-57159172D01*
X77162781Y-57146892D01*
X77167584Y-57135090D01*
X77172952Y-57123765D01*
X77178886Y-57112918D01*
X77185384Y-57102549D01*
X77192448Y-57092657D01*
X77200076Y-57083243D01*
X77208270Y-57074307D01*
X77217029Y-57065848D01*
X77226324Y-57057683D01*
X77236293Y-57049791D01*
X77246934Y-57042170D01*
X77258249Y-57034822D01*
X77270236Y-57027746D01*
X77282896Y-57020942D01*
X77296230Y-57014411D01*
X77310236Y-57008151D01*
X77324915Y-57002164D01*
X77340267Y-56996449D01*
X77356293Y-56991006D01*
X77372991Y-56985836D01*
X77390362Y-56980937D01*
X77408406Y-56976311D01*
X77427123Y-56971957D01*
X77446513Y-56967876D01*
X77554350Y-56946178D01*
X77563232Y-56944264D01*
X77571796Y-56942305D01*
X77580041Y-56940299D01*
X77587967Y-56938247D01*
X77595575Y-56936149D01*
X77602865Y-56934004D01*
X77609836Y-56931813D01*
X77616488Y-56929576D01*
X77622822Y-56927293D01*
X77628838Y-56924964D01*
X77634535Y-56922588D01*
X77639913Y-56920166D01*
X77644973Y-56917698D01*
X77649715Y-56915183D01*
X77654138Y-56912622D01*
X77658242Y-56910014D01*
X77662064Y-56907225D01*
X77665640Y-56904282D01*
X77668969Y-56901184D01*
X77672051Y-56897932D01*
X77674887Y-56894526D01*
X77677476Y-56890966D01*
X77679818Y-56887252D01*
X77681914Y-56883384D01*
X77683764Y-56879362D01*
X77685366Y-56875185D01*
X77686722Y-56870855D01*
X77687832Y-56866370D01*
X77688695Y-56861731D01*
X77689312Y-56856938D01*
X77689681Y-56851992D01*
X77689805Y-56846891D01*
X77689646Y-56840816D01*
X77689168Y-56834921D01*
X77688372Y-56829206D01*
X77687854Y-56826416D01*
X77687257Y-56823670D01*
X77686580Y-56820970D01*
X77685824Y-56818315D01*
X77684987Y-56815704D01*
X77684072Y-56813139D01*
X77683076Y-56810619D01*
X77682002Y-56808143D01*
X77680847Y-56805713D01*
X77679613Y-56803327D01*
X77678299Y-56800986D01*
X77676906Y-56798691D01*
X77675433Y-56796440D01*
X77673880Y-56794234D01*
X77672248Y-56792074D01*
X77670536Y-56789958D01*
X77668744Y-56787887D01*
X77666873Y-56785861D01*
X77664922Y-56783880D01*
X77662892Y-56781944D01*
X77660782Y-56780053D01*
X77658592Y-56778207D01*
X77653974Y-56774649D01*
X77649037Y-56771272D01*
X77643725Y-56768007D01*
X77637982Y-56764953D01*
X77631807Y-56762109D01*
X77625201Y-56759477D01*
X77618163Y-56757054D01*
X77610694Y-56754843D01*
X77602793Y-56752842D01*
X77594460Y-56751051D01*
X77585697Y-56749472D01*
X77576501Y-56748103D01*
X77566874Y-56746944D01*
X77556816Y-56745996D01*
X77546326Y-56745259D01*
X77535405Y-56744733D01*
X77512267Y-56744311D01*
X77494670Y-56744596D01*
X77476893Y-56745452D01*
X77458937Y-56746877D01*
X77440800Y-56748873D01*
X77422484Y-56751439D01*
X77403988Y-56754575D01*
X77385312Y-56758281D01*
X77366456Y-56762557D01*
X77347421Y-56767404D01*
X77328205Y-56772821D01*
X77308810Y-56778808D01*
X77289235Y-56785365D01*
X77269481Y-56792493D01*
X77249546Y-56800191D01*
X77229432Y-56808459D01*
X77209138Y-56817297D01*
X77209138Y-56609513D01*
X77253913Y-56598108D01*
X77298153Y-56588225D01*
X77341860Y-56579861D01*
X77385032Y-56573019D01*
X77427669Y-56567697D01*
X77469773Y-56563895D01*
X77511342Y-56561615D01*
X77552377Y-56560854D01*
X77552378Y-56560854D01*
X77573620Y-56561152D01*
G37*
G36*
X103410000Y-49650000D02*
G01*
X102973966Y-49650000D01*
X102973966Y-49213967D01*
X103410000Y-49213967D01*
X103410000Y-49650000D01*
G37*
G36*
X95366666Y-56000000D02*
G01*
X94930633Y-56000000D01*
X94930633Y-55563967D01*
X95366666Y-55563967D01*
X95366666Y-56000000D01*
G37*
G36*
X105950000Y-56000000D02*
G01*
X105513966Y-56000000D01*
X105513966Y-55563967D01*
X105950000Y-55563967D01*
X105950000Y-56000000D01*
G37*
G36*
X106373334Y-58540000D02*
G01*
X105937299Y-58540000D01*
X105937299Y-58103966D01*
X106373334Y-58103966D01*
X106373334Y-58540000D01*
G37*
G36*
X105103333Y-58116668D02*
G01*
X104667300Y-58116668D01*
X104667300Y-57680633D01*
X105103333Y-57680633D01*
X105103333Y-58116668D01*
G37*
G36*
X99600000Y-58963332D02*
G01*
X99163966Y-58963332D01*
X99163966Y-58527300D01*
X99600000Y-58527300D01*
X99600000Y-58963332D01*
G37*
G36*
X100023334Y-53883334D02*
G01*
X99587300Y-53883334D01*
X99587300Y-53447300D01*
X100023334Y-53447300D01*
X100023334Y-53883334D01*
G37*
G36*
X101293333Y-46686667D02*
G01*
X100857300Y-46686667D01*
X100857300Y-46250634D01*
X101293333Y-46250634D01*
X101293333Y-46686667D01*
G37*
G36*
X100023334Y-60656665D02*
G01*
X99587300Y-60656665D01*
X99587300Y-60220633D01*
X100023334Y-60220633D01*
X100023334Y-60656665D01*
G37*
G36*
X96636666Y-57270000D02*
G01*
X96200633Y-57270000D01*
X96200633Y-56833967D01*
X96636666Y-56833967D01*
X96636666Y-57270000D01*
G37*
G36*
X104679999Y-61503333D02*
G01*
X104243966Y-61503333D01*
X104243966Y-61067299D01*
X104679999Y-61067299D01*
X104679999Y-61503333D01*
G37*
G36*
X104679999Y-56846667D02*
G01*
X104243966Y-56846667D01*
X104243966Y-56410634D01*
X104679999Y-56410634D01*
X104679999Y-56846667D01*
G37*
G36*
X104679999Y-55576667D02*
G01*
X104243966Y-55576667D01*
X104243966Y-55140633D01*
X104679999Y-55140633D01*
X104679999Y-55576667D01*
G37*
G36*
X108913331Y-58963332D02*
G01*
X108477299Y-58963332D01*
X108477299Y-58527300D01*
X108913331Y-58527300D01*
X108913331Y-58963332D01*
G37*
G36*
X99600000Y-50073333D02*
G01*
X99163966Y-50073333D01*
X99163966Y-49637301D01*
X99600000Y-49637301D01*
X99600000Y-50073333D01*
G37*
G36*
X109759999Y-52613334D02*
G01*
X109323965Y-52613334D01*
X109323965Y-52177300D01*
X109759999Y-52177300D01*
X109759999Y-52613334D01*
G37*
G36*
X103833333Y-59810000D02*
G01*
X103397299Y-59810000D01*
X103397299Y-59373966D01*
X103833333Y-59373966D01*
X103833333Y-59810000D01*
G37*
G36*
X109759999Y-56000000D02*
G01*
X109323965Y-56000000D01*
X109323965Y-55563967D01*
X109759999Y-55563967D01*
X109759999Y-56000000D01*
G37*
G36*
X106373334Y-50073333D02*
G01*
X105937299Y-50073333D01*
X105937299Y-49637301D01*
X106373334Y-49637301D01*
X106373334Y-50073333D01*
G37*
G36*
X105526666Y-50073333D02*
G01*
X105090633Y-50073333D01*
X105090633Y-49637301D01*
X105526666Y-49637301D01*
X105526666Y-50073333D01*
G37*
G36*
X109336665Y-53036667D02*
G01*
X108900633Y-53036667D01*
X108900633Y-52600634D01*
X109336665Y-52600634D01*
X109336665Y-53036667D01*
G37*
G36*
X103410000Y-47110000D02*
G01*
X102973966Y-47110000D01*
X102973966Y-46673967D01*
X103410000Y-46673967D01*
X103410000Y-47110000D01*
G37*
G36*
X106796666Y-51343334D02*
G01*
X106360632Y-51343334D01*
X106360632Y-50907300D01*
X106796666Y-50907300D01*
X106796666Y-51343334D01*
G37*
G36*
X104679999Y-49226667D02*
G01*
X104243966Y-49226667D01*
X104243966Y-48790634D01*
X104679999Y-48790634D01*
X104679999Y-49226667D01*
G37*
G36*
X100023334Y-50073333D02*
G01*
X99587300Y-50073333D01*
X99587300Y-49637301D01*
X100023334Y-49637301D01*
X100023334Y-50073333D01*
G37*
G36*
X101716666Y-59386666D02*
G01*
X101280633Y-59386666D01*
X101280633Y-58950634D01*
X101716666Y-58950634D01*
X101716666Y-59386666D01*
G37*
G36*
X107219998Y-56423333D02*
G01*
X106783966Y-56423333D01*
X106783966Y-55987300D01*
X107219998Y-55987300D01*
X107219998Y-56423333D01*
G37*
G36*
X105526666Y-53883334D02*
G01*
X105090633Y-53883334D01*
X105090633Y-53447300D01*
X105526666Y-53447300D01*
X105526666Y-53883334D01*
G37*
G36*
X94520000Y-49650000D02*
G01*
X94083967Y-49650000D01*
X94083967Y-49213967D01*
X94520000Y-49213967D01*
X94520000Y-49650000D01*
G37*
G36*
X99176666Y-57270000D02*
G01*
X98740633Y-57270000D01*
X98740633Y-56833967D01*
X99176666Y-56833967D01*
X99176666Y-57270000D01*
G37*
G36*
X108066666Y-51343334D02*
G01*
X107630632Y-51343334D01*
X107630632Y-50907300D01*
X108066666Y-50907300D01*
X108066666Y-51343334D01*
G37*
G36*
X107643332Y-50496667D02*
G01*
X107207300Y-50496667D01*
X107207300Y-50060634D01*
X107643332Y-50060634D01*
X107643332Y-50496667D01*
G37*
G36*
X97060000Y-51343334D02*
G01*
X96623966Y-51343334D01*
X96623966Y-50907300D01*
X97060000Y-50907300D01*
X97060000Y-51343334D01*
G37*
G36*
X97483333Y-53883334D02*
G01*
X97047300Y-53883334D01*
X97047300Y-53447300D01*
X97483333Y-53447300D01*
X97483333Y-53883334D01*
G37*
G36*
X98753333Y-50920000D02*
G01*
X98317300Y-50920000D01*
X98317300Y-50483967D01*
X98753333Y-50483967D01*
X98753333Y-50920000D01*
G37*
G36*
X95366666Y-53460000D02*
G01*
X94930633Y-53460000D01*
X94930633Y-53023967D01*
X95366666Y-53023967D01*
X95366666Y-53460000D01*
G37*
G36*
X102986667Y-47110000D02*
G01*
X102550633Y-47110000D01*
X102550633Y-46673967D01*
X102986667Y-46673967D01*
X102986667Y-47110000D01*
G37*
G36*
X98329999Y-59386666D02*
G01*
X97893967Y-59386666D01*
X97893967Y-58950634D01*
X98329999Y-58950634D01*
X98329999Y-59386666D01*
G37*
G36*
X101716666Y-52613334D02*
G01*
X101280633Y-52613334D01*
X101280633Y-52177300D01*
X101716666Y-52177300D01*
X101716666Y-52613334D01*
G37*
G36*
X105950000Y-54730001D02*
G01*
X105513966Y-54730001D01*
X105513966Y-54293967D01*
X105950000Y-54293967D01*
X105950000Y-54730001D01*
G37*
G36*
X97483333Y-53036667D02*
G01*
X97047300Y-53036667D01*
X97047300Y-52600634D01*
X97483333Y-52600634D01*
X97483333Y-53036667D01*
G37*
G36*
X97906666Y-58540000D02*
G01*
X97470633Y-58540000D01*
X97470633Y-58103966D01*
X97906666Y-58103966D01*
X97906666Y-58540000D01*
G37*
G36*
X100870000Y-50073333D02*
G01*
X100433966Y-50073333D01*
X100433966Y-49637301D01*
X100870000Y-49637301D01*
X100870000Y-50073333D01*
G37*
G36*
X99600000Y-58540000D02*
G01*
X99163966Y-58540000D01*
X99163966Y-58103966D01*
X99600000Y-58103966D01*
X99600000Y-58540000D01*
G37*
G36*
X94520000Y-50920000D02*
G01*
X94083967Y-50920000D01*
X94083967Y-50483967D01*
X94520000Y-50483967D01*
X94520000Y-50920000D01*
G37*
G36*
X94520000Y-53883334D02*
G01*
X94083967Y-53883334D01*
X94083967Y-53447300D01*
X94520000Y-53447300D01*
X94520000Y-53883334D01*
G37*
G36*
X101293333Y-57693334D02*
G01*
X100857300Y-57693334D01*
X100857300Y-57257300D01*
X101293333Y-57257300D01*
X101293333Y-57693334D01*
G37*
D11*
X80524000Y-59289642D02*
X73289106Y-59289642D01*
D10*
G36*
X102140000Y-48380000D02*
G01*
X101703966Y-48380000D01*
X101703966Y-47943967D01*
X102140000Y-47943967D01*
X102140000Y-48380000D01*
G37*
G36*
X98753333Y-46686667D02*
G01*
X98317300Y-46686667D01*
X98317300Y-46250634D01*
X98753333Y-46250634D01*
X98753333Y-46686667D01*
G37*
G36*
X96213333Y-50920000D02*
G01*
X95777300Y-50920000D01*
X95777300Y-50483967D01*
X96213333Y-50483967D01*
X96213333Y-50920000D01*
G37*
G36*
X101293333Y-50920000D02*
G01*
X100857300Y-50920000D01*
X100857300Y-50483967D01*
X101293333Y-50483967D01*
X101293333Y-50920000D01*
G37*
G36*
X104679999Y-56423333D02*
G01*
X104243966Y-56423333D01*
X104243966Y-55987300D01*
X104679999Y-55987300D01*
X104679999Y-56423333D01*
G37*
G36*
X108489999Y-52190001D02*
G01*
X108053966Y-52190001D01*
X108053966Y-51753967D01*
X108489999Y-51753967D01*
X108489999Y-52190001D01*
G37*
G36*
X105950000Y-50920000D02*
G01*
X105513966Y-50920000D01*
X105513966Y-50483967D01*
X105950000Y-50483967D01*
X105950000Y-50920000D01*
G37*
G36*
X107219998Y-57693334D02*
G01*
X106783966Y-57693334D01*
X106783966Y-57257300D01*
X107219998Y-57257300D01*
X107219998Y-57693334D01*
G37*
G36*
X105103333Y-56423333D02*
G01*
X104667300Y-56423333D01*
X104667300Y-55987300D01*
X105103333Y-55987300D01*
X105103333Y-56423333D01*
G37*
G36*
X105526666Y-60656665D02*
G01*
X105090633Y-60656665D01*
X105090633Y-60220633D01*
X105526666Y-60220633D01*
X105526666Y-60656665D01*
G37*
G36*
X102563333Y-52613334D02*
G01*
X102127299Y-52613334D01*
X102127299Y-52177300D01*
X102563333Y-52177300D01*
X102563333Y-52613334D01*
G37*
G36*
X102986667Y-59810000D02*
G01*
X102550633Y-59810000D01*
X102550633Y-59373966D01*
X102986667Y-59373966D01*
X102986667Y-59810000D01*
G37*
G36*
X105103333Y-58540000D02*
G01*
X104667300Y-58540000D01*
X104667300Y-58103966D01*
X105103333Y-58103966D01*
X105103333Y-58540000D01*
G37*
G36*
X102563333Y-56423333D02*
G01*
X102127299Y-56423333D01*
X102127299Y-55987300D01*
X102563333Y-55987300D01*
X102563333Y-56423333D01*
G37*
G36*
X103833333Y-59386666D02*
G01*
X103397299Y-59386666D01*
X103397299Y-58950634D01*
X103833333Y-58950634D01*
X103833333Y-59386666D01*
G37*
G36*
X96200633Y-47943967D02*
G01*
X94930633Y-47943967D01*
X94930633Y-46673967D01*
X96200633Y-46673967D01*
X96200633Y-47943967D01*
G37*
G36*
X94943333Y-51343334D02*
G01*
X94507300Y-51343334D01*
X94507300Y-50907300D01*
X94943333Y-50907300D01*
X94943333Y-51343334D01*
G37*
G36*
X100446667Y-48803334D02*
G01*
X100010633Y-48803334D01*
X100010633Y-48367300D01*
X100446667Y-48367300D01*
X100446667Y-48803334D01*
G37*
G36*
X106796666Y-55576667D02*
G01*
X106360632Y-55576667D01*
X106360632Y-55140633D01*
X106796666Y-55140633D01*
X106796666Y-55576667D01*
G37*
G36*
X97906666Y-56846667D02*
G01*
X97470633Y-56846667D01*
X97470633Y-56410634D01*
X97906666Y-56410634D01*
X97906666Y-56846667D01*
G37*
G36*
X104679999Y-53883334D02*
G01*
X104243966Y-53883334D01*
X104243966Y-53447300D01*
X104679999Y-53447300D01*
X104679999Y-53883334D01*
G37*
G36*
X101293333Y-56846667D02*
G01*
X100857300Y-56846667D01*
X100857300Y-56410634D01*
X101293333Y-56410634D01*
X101293333Y-56846667D01*
G37*
G36*
X98753333Y-58540000D02*
G01*
X98317300Y-58540000D01*
X98317300Y-58103966D01*
X98753333Y-58103966D01*
X98753333Y-58540000D01*
G37*
G36*
X108489999Y-50496667D02*
G01*
X108053966Y-50496667D01*
X108053966Y-50060634D01*
X108489999Y-50060634D01*
X108489999Y-50496667D01*
G37*
G36*
X108913331Y-57270000D02*
G01*
X108477299Y-57270000D01*
X108477299Y-56833967D01*
X108913331Y-56833967D01*
X108913331Y-57270000D01*
G37*
G36*
X96213333Y-58116668D02*
G01*
X95777300Y-58116668D01*
X95777300Y-57680633D01*
X96213333Y-57680633D01*
X96213333Y-58116668D01*
G37*
G36*
X106796666Y-55153334D02*
G01*
X106360632Y-55153334D01*
X106360632Y-54717300D01*
X106796666Y-54717300D01*
X106796666Y-55153334D01*
G37*
G36*
X104679999Y-56000000D02*
G01*
X104243966Y-56000000D01*
X104243966Y-55563967D01*
X104679999Y-55563967D01*
X104679999Y-56000000D01*
G37*
G36*
X107219998Y-54730001D02*
G01*
X106783966Y-54730001D01*
X106783966Y-54293967D01*
X107219998Y-54293967D01*
X107219998Y-54730001D01*
G37*
G36*
X100023334Y-59386666D02*
G01*
X99587300Y-59386666D01*
X99587300Y-58950634D01*
X100023334Y-58950634D01*
X100023334Y-59386666D01*
G37*
G36*
X107219998Y-53036667D02*
G01*
X106783966Y-53036667D01*
X106783966Y-52600634D01*
X107219998Y-52600634D01*
X107219998Y-53036667D01*
G37*
G36*
X109336665Y-60233333D02*
G01*
X108900633Y-60233333D01*
X108900633Y-59797300D01*
X109336665Y-59797300D01*
X109336665Y-60233333D01*
G37*
G36*
X103410000Y-50073333D02*
G01*
X102973966Y-50073333D01*
X102973966Y-49637301D01*
X103410000Y-49637301D01*
X103410000Y-50073333D01*
G37*
G36*
X97483333Y-56000000D02*
G01*
X97047300Y-56000000D01*
X97047300Y-55563967D01*
X97483333Y-55563967D01*
X97483333Y-56000000D01*
G37*
G36*
X96213333Y-53036667D02*
G01*
X95777300Y-53036667D01*
X95777300Y-52600634D01*
X96213333Y-52600634D01*
X96213333Y-53036667D01*
G37*
G36*
X98329999Y-61079999D02*
G01*
X97893967Y-61079999D01*
X97893967Y-60643967D01*
X98329999Y-60643967D01*
X98329999Y-61079999D01*
G37*
G36*
X109336665Y-53460000D02*
G01*
X108900633Y-53460000D01*
X108900633Y-53023967D01*
X109336665Y-53023967D01*
X109336665Y-53460000D01*
G37*
G36*
X96636666Y-54730001D02*
G01*
X96200633Y-54730001D01*
X96200633Y-54293967D01*
X96636666Y-54293967D01*
X96636666Y-54730001D01*
G37*
G36*
X98329999Y-48380000D02*
G01*
X97893967Y-48380000D01*
X97893967Y-47943967D01*
X98329999Y-47943967D01*
X98329999Y-48380000D01*
G37*
G36*
X96636666Y-55576667D02*
G01*
X96200633Y-55576667D01*
X96200633Y-55140633D01*
X96636666Y-55140633D01*
X96636666Y-55576667D01*
G37*
G36*
X97906666Y-48803334D02*
G01*
X97470633Y-48803334D01*
X97470633Y-48367300D01*
X97906666Y-48367300D01*
X97906666Y-48803334D01*
G37*
G36*
X102986667Y-52190001D02*
G01*
X102550633Y-52190001D01*
X102550633Y-51753967D01*
X102986667Y-51753967D01*
X102986667Y-52190001D01*
G37*
G36*
X106373334Y-54306667D02*
G01*
X105937299Y-54306667D01*
X105937299Y-53870633D01*
X106373334Y-53870633D01*
X106373334Y-54306667D01*
G37*
G36*
X107219998Y-58116668D02*
G01*
X106783966Y-58116668D01*
X106783966Y-57680633D01*
X107219998Y-57680633D01*
X107219998Y-58116668D01*
G37*
G36*
X100023334Y-60233333D02*
G01*
X99587300Y-60233333D01*
X99587300Y-59797300D01*
X100023334Y-59797300D01*
X100023334Y-60233333D01*
G37*
G36*
X105526666Y-51343334D02*
G01*
X105090633Y-51343334D01*
X105090633Y-50907300D01*
X105526666Y-50907300D01*
X105526666Y-51343334D01*
G37*
G36*
X108913331Y-59810000D02*
G01*
X108477299Y-59810000D01*
X108477299Y-59373966D01*
X108913331Y-59373966D01*
X108913331Y-59810000D01*
G37*
G36*
X100870000Y-61079999D02*
G01*
X100433966Y-61079999D01*
X100433966Y-60643967D01*
X100870000Y-60643967D01*
X100870000Y-61079999D01*
G37*
G36*
X106373334Y-56423333D02*
G01*
X105937299Y-56423333D01*
X105937299Y-55987300D01*
X106373334Y-55987300D01*
X106373334Y-56423333D01*
G37*
G36*
X106373334Y-47956667D02*
G01*
X105937299Y-47956667D01*
X105937299Y-47520634D01*
X106373334Y-47520634D01*
X106373334Y-47956667D01*
G37*
G36*
X101293333Y-48380000D02*
G01*
X100857300Y-48380000D01*
X100857300Y-47943967D01*
X101293333Y-47943967D01*
X101293333Y-48380000D01*
G37*
G36*
X103410000Y-54306667D02*
G01*
X102973966Y-54306667D01*
X102973966Y-53870633D01*
X103410000Y-53870633D01*
X103410000Y-54306667D01*
G37*
G36*
X99600000Y-48803334D02*
G01*
X99163966Y-48803334D01*
X99163966Y-48367300D01*
X99600000Y-48367300D01*
X99600000Y-48803334D01*
G37*
G36*
X105950000Y-60233333D02*
G01*
X105513966Y-60233333D01*
X105513966Y-59797300D01*
X105950000Y-59797300D01*
X105950000Y-60233333D01*
G37*
G36*
X103410000Y-56423333D02*
G01*
X102973966Y-56423333D01*
X102973966Y-55987300D01*
X103410000Y-55987300D01*
X103410000Y-56423333D01*
G37*
G36*
X97906666Y-53883334D02*
G01*
X97470633Y-53883334D01*
X97470633Y-53447300D01*
X97906666Y-53447300D01*
X97906666Y-53883334D01*
G37*
G36*
X103833333Y-60656665D02*
G01*
X103397299Y-60656665D01*
X103397299Y-60220633D01*
X103833333Y-60220633D01*
X103833333Y-60656665D01*
G37*
G36*
X102986667Y-61079999D02*
G01*
X102550633Y-61079999D01*
X102550633Y-60643967D01*
X102986667Y-60643967D01*
X102986667Y-61079999D01*
G37*
G36*
X102563333Y-58116668D02*
G01*
X102127299Y-58116668D01*
X102127299Y-57680633D01*
X102563333Y-57680633D01*
X102563333Y-58116668D01*
G37*
G36*
X102140000Y-60233333D02*
G01*
X101703966Y-60233333D01*
X101703966Y-59797300D01*
X102140000Y-59797300D01*
X102140000Y-60233333D01*
G37*
G36*
X101716666Y-58116668D02*
G01*
X101280633Y-58116668D01*
X101280633Y-57680633D01*
X101716666Y-57680633D01*
X101716666Y-58116668D01*
G37*
G36*
X105526666Y-47110000D02*
G01*
X105090633Y-47110000D01*
X105090633Y-46673967D01*
X105526666Y-46673967D01*
X105526666Y-47110000D01*
G37*
G36*
X105103333Y-56000000D02*
G01*
X104667300Y-56000000D01*
X104667300Y-55563967D01*
X105103333Y-55563967D01*
X105103333Y-56000000D01*
G37*
G36*
X100023334Y-58116668D02*
G01*
X99587300Y-58116668D01*
X99587300Y-57680633D01*
X100023334Y-57680633D01*
X100023334Y-58116668D01*
G37*
D11*
X73289106Y-59289642D02*
X73289106Y-59289642D01*
D10*
G36*
X97906666Y-56423333D02*
G01*
X97470633Y-56423333D01*
X97470633Y-55987300D01*
X97906666Y-55987300D01*
X97906666Y-56423333D01*
G37*
G36*
X98753333Y-59386666D02*
G01*
X98317300Y-59386666D01*
X98317300Y-58950634D01*
X98753333Y-58950634D01*
X98753333Y-59386666D01*
G37*
G36*
X97060000Y-54730001D02*
G01*
X96623966Y-54730001D01*
X96623966Y-54293967D01*
X97060000Y-54293967D01*
X97060000Y-54730001D01*
G37*
G36*
X103833333Y-49226667D02*
G01*
X103397299Y-49226667D01*
X103397299Y-48790634D01*
X103833333Y-48790634D01*
X103833333Y-49226667D01*
G37*
G36*
X105526666Y-50920000D02*
G01*
X105090633Y-50920000D01*
X105090633Y-50483967D01*
X105526666Y-50483967D01*
X105526666Y-50920000D01*
G37*
G36*
X102140000Y-55576667D02*
G01*
X101703966Y-55576667D01*
X101703966Y-55140633D01*
X102140000Y-55140633D01*
X102140000Y-55576667D01*
G37*
G36*
X100870000Y-47956667D02*
G01*
X100433966Y-47956667D01*
X100433966Y-47520634D01*
X100870000Y-47520634D01*
X100870000Y-47956667D01*
G37*
G36*
X94520000Y-54306667D02*
G01*
X94083967Y-54306667D01*
X94083967Y-53870633D01*
X94520000Y-53870633D01*
X94520000Y-54306667D01*
G37*
G36*
X99176666Y-59810000D02*
G01*
X98740633Y-59810000D01*
X98740633Y-59373966D01*
X99176666Y-59373966D01*
X99176666Y-59810000D01*
G37*
G36*
X103410000Y-50920000D02*
G01*
X102973966Y-50920000D01*
X102973966Y-50483967D01*
X103410000Y-50483967D01*
X103410000Y-50920000D01*
G37*
G36*
X103410000Y-59810000D02*
G01*
X102973966Y-59810000D01*
X102973966Y-59373966D01*
X103410000Y-59373966D01*
X103410000Y-59810000D01*
G37*
G36*
X97060000Y-53036667D02*
G01*
X96623966Y-53036667D01*
X96623966Y-52600634D01*
X97060000Y-52600634D01*
X97060000Y-53036667D01*
G37*
G36*
X100023334Y-56000000D02*
G01*
X99587300Y-56000000D01*
X99587300Y-55563967D01*
X100023334Y-55563967D01*
X100023334Y-56000000D01*
G37*
G36*
X96213333Y-57270000D02*
G01*
X95777300Y-57270000D01*
X95777300Y-56833967D01*
X96213333Y-56833967D01*
X96213333Y-57270000D01*
G37*
G36*
X106373334Y-53460000D02*
G01*
X105937299Y-53460000D01*
X105937299Y-53023967D01*
X106373334Y-53023967D01*
X106373334Y-53460000D01*
G37*
G36*
X106796666Y-52190001D02*
G01*
X106360632Y-52190001D01*
X106360632Y-51753967D01*
X106796666Y-51753967D01*
X106796666Y-52190001D01*
G37*
G36*
X105526666Y-61503333D02*
G01*
X105090633Y-61503333D01*
X105090633Y-61067299D01*
X105526666Y-61067299D01*
X105526666Y-61503333D01*
G37*
G36*
X102563333Y-58540000D02*
G01*
X102127299Y-58540000D01*
X102127299Y-58103966D01*
X102563333Y-58103966D01*
X102563333Y-58540000D01*
G37*
G36*
X107643332Y-56846667D02*
G01*
X107207300Y-56846667D01*
X107207300Y-56410634D01*
X107643332Y-56410634D01*
X107643332Y-56846667D01*
G37*
G36*
X103410000Y-59386666D02*
G01*
X102973966Y-59386666D01*
X102973966Y-58950634D01*
X103410000Y-58950634D01*
X103410000Y-59386666D01*
G37*
G36*
X102563333Y-56000000D02*
G01*
X102127299Y-56000000D01*
X102127299Y-55563967D01*
X102563333Y-55563967D01*
X102563333Y-56000000D01*
G37*
G36*
X105526666Y-57270000D02*
G01*
X105090633Y-57270000D01*
X105090633Y-56833967D01*
X105526666Y-56833967D01*
X105526666Y-57270000D01*
G37*
G36*
X99176666Y-58116668D02*
G01*
X98740633Y-58116668D01*
X98740633Y-57680633D01*
X99176666Y-57680633D01*
X99176666Y-58116668D01*
G37*
G36*
X102140000Y-48803334D02*
G01*
X101703966Y-48803334D01*
X101703966Y-48367300D01*
X102140000Y-48367300D01*
X102140000Y-48803334D01*
G37*
G36*
X96213333Y-54730001D02*
G01*
X95777300Y-54730001D01*
X95777300Y-54293967D01*
X96213333Y-54293967D01*
X96213333Y-54730001D01*
G37*
G36*
X108913331Y-61503333D02*
G01*
X108477299Y-61503333D01*
X108477299Y-61067299D01*
X108913331Y-61067299D01*
X108913331Y-61503333D01*
G37*
G36*
X95790000Y-49650000D02*
G01*
X95353967Y-49650000D01*
X95353967Y-49213967D01*
X95790000Y-49213967D01*
X95790000Y-49650000D01*
G37*
G36*
X106373334Y-60656665D02*
G01*
X105937299Y-60656665D01*
X105937299Y-60220633D01*
X106373334Y-60220633D01*
X106373334Y-60656665D01*
G37*
G36*
X105950000Y-54306667D02*
G01*
X105513966Y-54306667D01*
X105513966Y-53870633D01*
X105950000Y-53870633D01*
X105950000Y-54306667D01*
G37*
G36*
X98753333Y-56423333D02*
G01*
X98317300Y-56423333D01*
X98317300Y-55987300D01*
X98753333Y-55987300D01*
X98753333Y-56423333D01*
G37*
G36*
X100870000Y-55576667D02*
G01*
X100433966Y-55576667D01*
X100433966Y-55140633D01*
X100870000Y-55140633D01*
X100870000Y-55576667D01*
G37*
G36*
X109336665Y-52190001D02*
G01*
X108900633Y-52190001D01*
X108900633Y-51753967D01*
X109336665Y-51753967D01*
X109336665Y-52190001D01*
G37*
G36*
X108066666Y-58963332D02*
G01*
X107630632Y-58963332D01*
X107630632Y-58527300D01*
X108066666Y-58527300D01*
X108066666Y-58963332D01*
G37*
G36*
X98753333Y-51343334D02*
G01*
X98317300Y-51343334D01*
X98317300Y-50907300D01*
X98753333Y-50907300D01*
X98753333Y-51343334D01*
G37*
G36*
X107643332Y-54306667D02*
G01*
X107207300Y-54306667D01*
X107207300Y-53870633D01*
X107643332Y-53870633D01*
X107643332Y-54306667D01*
G37*
G36*
X102563333Y-46686667D02*
G01*
X102127299Y-46686667D01*
X102127299Y-46250634D01*
X102563333Y-46250634D01*
X102563333Y-46686667D01*
G37*
G36*
X99176666Y-54730001D02*
G01*
X98740633Y-54730001D01*
X98740633Y-54293967D01*
X99176666Y-54293967D01*
X99176666Y-54730001D01*
G37*
G36*
X108489999Y-58540000D02*
G01*
X108053966Y-58540000D01*
X108053966Y-58103966D01*
X108489999Y-58103966D01*
X108489999Y-58540000D01*
G37*
G36*
X95790000Y-55153334D02*
G01*
X95353967Y-55153334D01*
X95353967Y-54717300D01*
X95790000Y-54717300D01*
X95790000Y-55153334D01*
G37*
G36*
X94943333Y-56423333D02*
G01*
X94507300Y-56423333D01*
X94507300Y-55987300D01*
X94943333Y-55987300D01*
X94943333Y-56423333D01*
G37*
G36*
X107643332Y-53883334D02*
G01*
X107207300Y-53883334D01*
X107207300Y-53447300D01*
X107643332Y-53447300D01*
X107643332Y-53883334D01*
G37*
G36*
X105526666Y-56423333D02*
G01*
X105090633Y-56423333D01*
X105090633Y-55987300D01*
X105526666Y-55987300D01*
X105526666Y-56423333D01*
G37*
G36*
X109759999Y-50920000D02*
G01*
X109323965Y-50920000D01*
X109323965Y-50483967D01*
X109759999Y-50483967D01*
X109759999Y-50920000D01*
G37*
G36*
X108066666Y-57270000D02*
G01*
X107630632Y-57270000D01*
X107630632Y-56833967D01*
X108066666Y-56833967D01*
X108066666Y-57270000D01*
G37*
G36*
X109336665Y-52613334D02*
G01*
X108900633Y-52613334D01*
X108900633Y-52177300D01*
X109336665Y-52177300D01*
X109336665Y-52613334D01*
G37*
G36*
X99600000Y-53036667D02*
G01*
X99163966Y-53036667D01*
X99163966Y-52600634D01*
X99600000Y-52600634D01*
X99600000Y-53036667D01*
G37*
G36*
X104679999Y-61079999D02*
G01*
X104243966Y-61079999D01*
X104243966Y-60643967D01*
X104679999Y-60643967D01*
X104679999Y-61079999D01*
G37*
G36*
X98753333Y-50073333D02*
G01*
X98317300Y-50073333D01*
X98317300Y-49637301D01*
X98753333Y-49637301D01*
X98753333Y-50073333D01*
G37*
G36*
X109336665Y-57270000D02*
G01*
X108900633Y-57270000D01*
X108900633Y-56833967D01*
X109336665Y-56833967D01*
X109336665Y-57270000D01*
G37*
G36*
X109759999Y-52190001D02*
G01*
X109323965Y-52190001D01*
X109323965Y-51753967D01*
X109759999Y-51753967D01*
X109759999Y-52190001D01*
G37*
G36*
X107643332Y-58116668D02*
G01*
X107207300Y-58116668D01*
X107207300Y-57680633D01*
X107643332Y-57680633D01*
X107643332Y-58116668D01*
G37*
G36*
X75127322Y-57251938D02*
G01*
X75484371Y-56578608D01*
X75767116Y-56578608D01*
X75767116Y-57560324D01*
X75527111Y-57560324D01*
X75527111Y-56886994D01*
X75170063Y-57560324D01*
X74887318Y-57560324D01*
X74887318Y-56578608D01*
X75127322Y-56578608D01*
X75127322Y-57251938D01*
G37*
G36*
X105526666Y-58963332D02*
G01*
X105090633Y-58963332D01*
X105090633Y-58527300D01*
X105526666Y-58527300D01*
X105526666Y-58963332D01*
G37*
G36*
X108913331Y-51343334D02*
G01*
X108477299Y-51343334D01*
X108477299Y-50907300D01*
X108913331Y-50907300D01*
X108913331Y-51343334D01*
G37*
G36*
X100446667Y-58116668D02*
G01*
X100010633Y-58116668D01*
X100010633Y-57680633D01*
X100446667Y-57680633D01*
X100446667Y-58116668D01*
G37*
G36*
X103410000Y-56846667D02*
G01*
X102973966Y-56846667D01*
X102973966Y-56410634D01*
X103410000Y-56410634D01*
X103410000Y-56846667D01*
G37*
G36*
X109336665Y-61503333D02*
G01*
X108900633Y-61503333D01*
X108900633Y-61067299D01*
X109336665Y-61067299D01*
X109336665Y-61503333D01*
G37*
G36*
X94943333Y-52190001D02*
G01*
X94507300Y-52190001D01*
X94507300Y-51753967D01*
X94943333Y-51753967D01*
X94943333Y-52190001D01*
G37*
G36*
X99176666Y-61503333D02*
G01*
X98740633Y-61503333D01*
X98740633Y-61067299D01*
X99176666Y-61067299D01*
X99176666Y-61503333D01*
G37*
G36*
X97483333Y-51766668D02*
G01*
X97047300Y-51766668D01*
X97047300Y-51330634D01*
X97483333Y-51330634D01*
X97483333Y-51766668D01*
G37*
G36*
X102563333Y-47110000D02*
G01*
X102127299Y-47110000D01*
X102127299Y-46673967D01*
X102563333Y-46673967D01*
X102563333Y-47110000D01*
G37*
G36*
X100870000Y-56846667D02*
G01*
X100433966Y-56846667D01*
X100433966Y-56410634D01*
X100870000Y-56410634D01*
X100870000Y-56846667D01*
G37*
G36*
X108489999Y-50073333D02*
G01*
X108053966Y-50073333D01*
X108053966Y-49637301D01*
X108489999Y-49637301D01*
X108489999Y-50073333D01*
G37*
G36*
X105526666Y-53460000D02*
G01*
X105090633Y-53460000D01*
X105090633Y-53023967D01*
X105526666Y-53023967D01*
X105526666Y-53460000D01*
G37*
G36*
X102140000Y-46263334D02*
G01*
X101703966Y-46263334D01*
X101703966Y-45827301D01*
X102140000Y-45827301D01*
X102140000Y-46263334D01*
G37*
G36*
X109759999Y-58963332D02*
G01*
X109323965Y-58963332D01*
X109323965Y-58527300D01*
X109759999Y-58527300D01*
X109759999Y-58963332D01*
G37*
G36*
X98753333Y-60233333D02*
G01*
X98317300Y-60233333D01*
X98317300Y-59797300D01*
X98753333Y-59797300D01*
X98753333Y-60233333D01*
G37*
G36*
X100446667Y-60656665D02*
G01*
X100010633Y-60656665D01*
X100010633Y-60220633D01*
X100446667Y-60220633D01*
X100446667Y-60656665D01*
G37*
G36*
X108489999Y-55576667D02*
G01*
X108053966Y-55576667D01*
X108053966Y-55140633D01*
X108489999Y-55140633D01*
X108489999Y-55576667D01*
G37*
G36*
X97906666Y-57693334D02*
G01*
X97470633Y-57693334D01*
X97470633Y-57257300D01*
X97906666Y-57257300D01*
X97906666Y-57693334D01*
G37*
G36*
X109759999Y-57270000D02*
G01*
X109323965Y-57270000D01*
X109323965Y-56833967D01*
X109759999Y-56833967D01*
X109759999Y-57270000D01*
G37*
G36*
X97906666Y-59810000D02*
G01*
X97470633Y-59810000D01*
X97470633Y-59373966D01*
X97906666Y-59373966D01*
X97906666Y-59810000D01*
G37*
G36*
X98329999Y-50073333D02*
G01*
X97893967Y-50073333D01*
X97893967Y-49637301D01*
X98329999Y-49637301D01*
X98329999Y-50073333D01*
G37*
G36*
X109336665Y-56423333D02*
G01*
X108900633Y-56423333D01*
X108900633Y-55987300D01*
X109336665Y-55987300D01*
X109336665Y-56423333D01*
G37*
G36*
X108913331Y-56846667D02*
G01*
X108477299Y-56846667D01*
X108477299Y-56410634D01*
X108913331Y-56410634D01*
X108913331Y-56846667D01*
G37*
G36*
X97906666Y-47110000D02*
G01*
X97470633Y-47110000D01*
X97470633Y-46673967D01*
X97906666Y-46673967D01*
X97906666Y-47110000D01*
G37*
G36*
X75974245Y-58330228D02*
G01*
X76228638Y-58330228D01*
X76228858Y-58347489D01*
X76229519Y-58364350D01*
X76230621Y-58380810D01*
X76232162Y-58396870D01*
X76234145Y-58412530D01*
X76236568Y-58427789D01*
X76239431Y-58442647D01*
X76242736Y-58457105D01*
X76244552Y-58464100D01*
X76246480Y-58470998D01*
X76248517Y-58477796D01*
X76250665Y-58484495D01*
X76252923Y-58491093D01*
X76255291Y-58497591D01*
X76257769Y-58503989D01*
X76260357Y-58510286D01*
X76263055Y-58516484D01*
X76265864Y-58522582D01*
X76268782Y-58528579D01*
X76271811Y-58534477D01*
X76274950Y-58540274D01*
X76278199Y-58545972D01*
X76281558Y-58551569D01*
X76285027Y-58557066D01*
X76288621Y-58562358D01*
X76292356Y-58567499D01*
X76296231Y-58572491D01*
X76300246Y-58577332D01*
X76304401Y-58582023D01*
X76308696Y-58586563D01*
X76313131Y-58590954D01*
X76317707Y-58595194D01*
X76322423Y-58599284D01*
X76327279Y-58603224D01*
X76332275Y-58607014D01*
X76337411Y-58610653D01*
X76342688Y-58614143D01*
X76348104Y-58617482D01*
X76353661Y-58620671D01*
X76359358Y-58623709D01*
X76365183Y-58626580D01*
X76371123Y-58629266D01*
X76377177Y-58631766D01*
X76383348Y-58634082D01*
X76389633Y-58636212D01*
X76396033Y-58638157D01*
X76402549Y-58639916D01*
X76409179Y-58641491D01*
X76415925Y-58642880D01*
X76422786Y-58644084D01*
X76429762Y-58645102D01*
X76436853Y-58645936D01*
X76444060Y-58646584D01*
X76451381Y-58647047D01*
X76458818Y-58647325D01*
X76466370Y-58647418D01*
X76480957Y-58647080D01*
X76495085Y-58646066D01*
X76508752Y-58644377D01*
X76521958Y-58642011D01*
X76534704Y-58638970D01*
X76546989Y-58635253D01*
X76552959Y-58633141D01*
X76558813Y-58630860D01*
X76564553Y-58628410D01*
X76570177Y-58625791D01*
X76575687Y-58623003D01*
X76581081Y-58620047D01*
X76586360Y-58616921D01*
X76591524Y-58613626D01*
X76596572Y-58610163D01*
X76601506Y-58606530D01*
X76606324Y-58602728D01*
X76611028Y-58598758D01*
X76615616Y-58594618D01*
X76620089Y-58590310D01*
X76624447Y-58585833D01*
X76628689Y-58581186D01*
X76636829Y-58571387D01*
X76644509Y-58560911D01*
X76651648Y-58549873D01*
X76658326Y-58538384D01*
X76664543Y-58526444D01*
X76670301Y-58514054D01*
X76675597Y-58501213D01*
X76680433Y-58487922D01*
X76684808Y-58474180D01*
X76688723Y-58459988D01*
X76692177Y-58445345D01*
X76695171Y-58430251D01*
X76697704Y-58414707D01*
X76699777Y-58398713D01*
X76701389Y-58382267D01*
X76702540Y-58365371D01*
X76703231Y-58348025D01*
X76703461Y-58330228D01*
X76703081Y-58307060D01*
X76701940Y-58284653D01*
X76701083Y-58273735D01*
X76700037Y-58263007D01*
X76698801Y-58252469D01*
X76697374Y-58242121D01*
X76695757Y-58231964D01*
X76693950Y-58221996D01*
X76691952Y-58212219D01*
X76689765Y-58202632D01*
X76687387Y-58193236D01*
X76684819Y-58184029D01*
X76682060Y-58175013D01*
X76679112Y-58166187D01*
X76675953Y-58157567D01*
X76672564Y-58149166D01*
X76668944Y-58140986D01*
X76665094Y-58133026D01*
X76661014Y-58125287D01*
X76656704Y-58117768D01*
X76652164Y-58110469D01*
X76647393Y-58103390D01*
X76642392Y-58096531D01*
X76637160Y-58089893D01*
X76631698Y-58083475D01*
X76626006Y-58077278D01*
X76620084Y-58071301D01*
X76613932Y-58065544D01*
X76607549Y-58060007D01*
X76600936Y-58054691D01*
X76594027Y-58049569D01*
X76586918Y-58044778D01*
X76579609Y-58040318D01*
X76572100Y-58036188D01*
X76564391Y-58032388D01*
X76556481Y-58028919D01*
X76548371Y-58025779D01*
X76540061Y-58022971D01*
X76531550Y-58020493D01*
X76522840Y-58018345D01*
X76513929Y-58016527D01*
X76504817Y-58015041D01*
X76495506Y-58013884D01*
X76485994Y-58013058D01*
X76476282Y-58012562D01*
X76466370Y-58012397D01*
X76458818Y-58012490D01*
X76451382Y-58012767D01*
X76444060Y-58013231D01*
X76436854Y-58013879D01*
X76429763Y-58014712D01*
X76422786Y-58015731D01*
X76415926Y-58016935D01*
X76409180Y-58018324D01*
X76402549Y-58019899D01*
X76396034Y-58021658D01*
X76389633Y-58023603D01*
X76383348Y-58025733D01*
X76377178Y-58028048D01*
X76371123Y-58030549D01*
X76365183Y-58033235D01*
X76359359Y-58036106D01*
X76353662Y-58039147D01*
X76348105Y-58042344D01*
X76342688Y-58045696D01*
X76337412Y-58049203D01*
X76332275Y-58052866D01*
X76327279Y-58056683D01*
X76322423Y-58060655D01*
X76317707Y-58064783D01*
X76313132Y-58069066D01*
X76308696Y-58073504D01*
X76304401Y-58078097D01*
X76300246Y-58082845D01*
X76296231Y-58087748D01*
X76292356Y-58092807D01*
X76288622Y-58098021D01*
X76285027Y-58103389D01*
X76281558Y-58108811D01*
X76278199Y-58114342D01*
X76274950Y-58119984D01*
X76271811Y-58125736D01*
X76268783Y-58131598D01*
X76265864Y-58137570D01*
X76263056Y-58143652D01*
X76260357Y-58149845D01*
X76257769Y-58156147D01*
X76255291Y-58162560D01*
X76250665Y-58175716D01*
X76246480Y-58189313D01*
X76242736Y-58203350D01*
X76239431Y-58217808D01*
X76236568Y-58232667D01*
X76234145Y-58247926D01*
X76232162Y-58263585D01*
X76230621Y-58279645D01*
X76229519Y-58296106D01*
X76228858Y-58312967D01*
X76228638Y-58330228D01*
X75974245Y-58330228D01*
X75974756Y-58301243D01*
X75976288Y-58273071D01*
X75978841Y-58245715D01*
X75982415Y-58219175D01*
X75987011Y-58193451D01*
X75992628Y-58168543D01*
X75999266Y-58144451D01*
X76006925Y-58121175D01*
X76015606Y-58098715D01*
X76025308Y-58077071D01*
X76036031Y-58056243D01*
X76047776Y-58036231D01*
X76060541Y-58017035D01*
X76074328Y-57998655D01*
X76089137Y-57981091D01*
X76104966Y-57964343D01*
X76121697Y-57948513D01*
X76139208Y-57933705D01*
X76157501Y-57919918D01*
X76176574Y-57907153D01*
X76196429Y-57895408D01*
X76217064Y-57884685D01*
X76238480Y-57874984D01*
X76260678Y-57866303D01*
X76283656Y-57858644D01*
X76307415Y-57852006D01*
X76331955Y-57846389D01*
X76357276Y-57841794D01*
X76383378Y-57838219D01*
X76410262Y-57835666D01*
X76437926Y-57834134D01*
X76466370Y-57833624D01*
X76494740Y-57834137D01*
X76522339Y-57835676D01*
X76549167Y-57838242D01*
X76575224Y-57841834D01*
X76600510Y-57846452D01*
X76625026Y-57852097D01*
X76648770Y-57858767D01*
X76671743Y-57866464D01*
X76693945Y-57875187D01*
X76715377Y-57884937D01*
X76736037Y-57895712D01*
X76755927Y-57907514D01*
X76775045Y-57920342D01*
X76793393Y-57934197D01*
X76810969Y-57949077D01*
X76827775Y-57964984D01*
X76843604Y-57981729D01*
X76858413Y-57999286D01*
X76872200Y-58017653D01*
X76884965Y-58036832D01*
X76896710Y-58056821D01*
X76907433Y-58077621D01*
X76917135Y-58099233D01*
X76925815Y-58121655D01*
X76933475Y-58144889D01*
X76940113Y-58168933D01*
X76945730Y-58193788D01*
X76950326Y-58219455D01*
X76953900Y-58245932D01*
X76956453Y-58273221D01*
X76957985Y-58301321D01*
X76958496Y-58330231D01*
X76957985Y-58359142D01*
X76956453Y-58387242D01*
X76953900Y-58414531D01*
X76950326Y-58441008D01*
X76945730Y-58466675D01*
X76940113Y-58491530D01*
X76933475Y-58515574D01*
X76925815Y-58538808D01*
X76917135Y-58561230D01*
X76907433Y-58582842D01*
X76896710Y-58603642D01*
X76884965Y-58623631D01*
X76872200Y-58642810D01*
X76858413Y-58661177D01*
X76843604Y-58678734D01*
X76827775Y-58695479D01*
X76810969Y-58711309D01*
X76793393Y-58726117D01*
X76775045Y-58739904D01*
X76755927Y-58752669D01*
X76736037Y-58764414D01*
X76715377Y-58775137D01*
X76693945Y-58784838D01*
X76671743Y-58793519D01*
X76648770Y-58801178D01*
X76625026Y-58807816D01*
X76600510Y-58813433D01*
X76575224Y-58818029D01*
X76549167Y-58821603D01*
X76522339Y-58824156D01*
X76494740Y-58825688D01*
X76466370Y-58826198D01*
X76438003Y-58825688D01*
X76410412Y-58824156D01*
X76383596Y-58821603D01*
X76357557Y-58818029D01*
X76332293Y-58813433D01*
X76307806Y-58807816D01*
X76284094Y-58801178D01*
X76261158Y-58793519D01*
X76238998Y-58784838D01*
X76217615Y-58775137D01*
X76197007Y-58764414D01*
X76177175Y-58752669D01*
X76158119Y-58739904D01*
X76139839Y-58726117D01*
X76122335Y-58711309D01*
X76105607Y-58695479D01*
X76089700Y-58678734D01*
X76074819Y-58661177D01*
X76060965Y-58642810D01*
X76048136Y-58623631D01*
X76036334Y-58603642D01*
X76025558Y-58582842D01*
X76015809Y-58561230D01*
X76007086Y-58538808D01*
X75999389Y-58515574D01*
X75992718Y-58491530D01*
X75987074Y-58466675D01*
X75982455Y-58441008D01*
X75978863Y-58414531D01*
X75976298Y-58387242D01*
X75974758Y-58359142D01*
X75974245Y-58330231D01*
X75974245Y-58330228D01*
G37*
G36*
X94943333Y-53883334D02*
G01*
X94507300Y-53883334D01*
X94507300Y-53447300D01*
X94943333Y-53447300D01*
X94943333Y-53883334D01*
G37*
G36*
X101716666Y-54730001D02*
G01*
X101280633Y-54730001D01*
X101280633Y-54293967D01*
X101716666Y-54293967D01*
X101716666Y-54730001D01*
G37*
G36*
X96636666Y-52613334D02*
G01*
X96200633Y-52613334D01*
X96200633Y-52177300D01*
X96636666Y-52177300D01*
X96636666Y-52613334D01*
G37*
G36*
X108066666Y-59386666D02*
G01*
X107630632Y-59386666D01*
X107630632Y-58950634D01*
X108066666Y-58950634D01*
X108066666Y-59386666D01*
G37*
G36*
X108489999Y-55153334D02*
G01*
X108053966Y-55153334D01*
X108053966Y-54717300D01*
X108489999Y-54717300D01*
X108489999Y-55153334D01*
G37*
G36*
X107219998Y-51343334D02*
G01*
X106783966Y-51343334D01*
X106783966Y-50907300D01*
X107219998Y-50907300D01*
X107219998Y-51343334D01*
G37*
G36*
X94520000Y-57693334D02*
G01*
X94083967Y-57693334D01*
X94083967Y-57257300D01*
X94520000Y-57257300D01*
X94520000Y-57693334D01*
G37*
G36*
X101293333Y-50073333D02*
G01*
X100857300Y-50073333D01*
X100857300Y-49637301D01*
X101293333Y-49637301D01*
X101293333Y-50073333D01*
G37*
G36*
X95366666Y-56423333D02*
G01*
X94930633Y-56423333D01*
X94930633Y-55987300D01*
X95366666Y-55987300D01*
X95366666Y-56423333D01*
G37*
G36*
X99600000Y-52613334D02*
G01*
X99163966Y-52613334D01*
X99163966Y-52177300D01*
X99600000Y-52177300D01*
X99600000Y-52613334D01*
G37*
G36*
X99176666Y-53036667D02*
G01*
X98740633Y-53036667D01*
X98740633Y-52600634D01*
X99176666Y-52600634D01*
X99176666Y-53036667D01*
G37*
G36*
X106796666Y-56000000D02*
G01*
X106360632Y-56000000D01*
X106360632Y-55563967D01*
X106796666Y-55563967D01*
X106796666Y-56000000D01*
G37*
G36*
X101293333Y-59810000D02*
G01*
X100857300Y-59810000D01*
X100857300Y-59373966D01*
X101293333Y-59373966D01*
X101293333Y-59810000D01*
G37*
G36*
X105103333Y-51343334D02*
G01*
X104667300Y-51343334D01*
X104667300Y-50907300D01*
X105103333Y-50907300D01*
X105103333Y-51343334D01*
G37*
G36*
X107643332Y-49650000D02*
G01*
X107207300Y-49650000D01*
X107207300Y-49213967D01*
X107643332Y-49213967D01*
X107643332Y-49650000D01*
G37*
G36*
X105950000Y-46686667D02*
G01*
X105513966Y-46686667D01*
X105513966Y-46250634D01*
X105950000Y-46250634D01*
X105950000Y-46686667D01*
G37*
G36*
X94520000Y-57270000D02*
G01*
X94083967Y-57270000D01*
X94083967Y-56833967D01*
X94520000Y-56833967D01*
X94520000Y-57270000D01*
G37*
G36*
X100446667Y-53460000D02*
G01*
X100010633Y-53460000D01*
X100010633Y-53023967D01*
X100446667Y-53023967D01*
X100446667Y-53460000D01*
G37*
G36*
X108913331Y-53036667D02*
G01*
X108477299Y-53036667D01*
X108477299Y-52600634D01*
X108913331Y-52600634D01*
X108913331Y-53036667D01*
G37*
G36*
X102140000Y-58116668D02*
G01*
X101703966Y-58116668D01*
X101703966Y-57680633D01*
X102140000Y-57680633D01*
X102140000Y-58116668D01*
G37*
G36*
X96213333Y-50496667D02*
G01*
X95777300Y-50496667D01*
X95777300Y-50060634D01*
X96213333Y-50060634D01*
X96213333Y-50496667D01*
G37*
G36*
X101716666Y-58963332D02*
G01*
X101280633Y-58963332D01*
X101280633Y-58527300D01*
X101716666Y-58527300D01*
X101716666Y-58963332D01*
G37*
G36*
X109759999Y-53036667D02*
G01*
X109323965Y-53036667D01*
X109323965Y-52600634D01*
X109759999Y-52600634D01*
X109759999Y-53036667D01*
G37*
D11*
X72795999Y-55050000D02*
X80524000Y-55050000D01*
D10*
G36*
X108066666Y-58540000D02*
G01*
X107630632Y-58540000D01*
X107630632Y-58103966D01*
X108066666Y-58103966D01*
X108066666Y-58540000D01*
G37*
G36*
X101716666Y-50496667D02*
G01*
X101280633Y-50496667D01*
X101280633Y-50060634D01*
X101716666Y-50060634D01*
X101716666Y-50496667D01*
G37*
G36*
X98329999Y-57270000D02*
G01*
X97893967Y-57270000D01*
X97893967Y-56833967D01*
X98329999Y-56833967D01*
X98329999Y-57270000D01*
G37*
G36*
X95366666Y-57693334D02*
G01*
X94930633Y-57693334D01*
X94930633Y-57257300D01*
X95366666Y-57257300D01*
X95366666Y-57693334D01*
G37*
G36*
X95790000Y-52613334D02*
G01*
X95353967Y-52613334D01*
X95353967Y-52177300D01*
X95790000Y-52177300D01*
X95790000Y-52613334D01*
G37*
G36*
X104256666Y-47533334D02*
G01*
X103820633Y-47533334D01*
X103820633Y-47097301D01*
X104256666Y-47097301D01*
X104256666Y-47533334D01*
G37*
G36*
X109336665Y-58963332D02*
G01*
X108900633Y-58963332D01*
X108900633Y-58527300D01*
X109336665Y-58527300D01*
X109336665Y-58963332D01*
G37*
G36*
X99176666Y-47533334D02*
G01*
X98740633Y-47533334D01*
X98740633Y-47097301D01*
X99176666Y-47097301D01*
X99176666Y-47533334D01*
G37*
G36*
X109336665Y-50496667D02*
G01*
X108900633Y-50496667D01*
X108900633Y-50060634D01*
X109336665Y-50060634D01*
X109336665Y-50496667D01*
G37*
G36*
X104256666Y-54306667D02*
G01*
X103820633Y-54306667D01*
X103820633Y-53870633D01*
X104256666Y-53870633D01*
X104256666Y-54306667D01*
G37*
G36*
X100023334Y-61079999D02*
G01*
X99587300Y-61079999D01*
X99587300Y-60643967D01*
X100023334Y-60643967D01*
X100023334Y-61079999D01*
G37*
G36*
X102986667Y-56423333D02*
G01*
X102550633Y-56423333D01*
X102550633Y-55987300D01*
X102986667Y-55987300D01*
X102986667Y-56423333D01*
G37*
G36*
X95790000Y-56423333D02*
G01*
X95353967Y-56423333D01*
X95353967Y-55987300D01*
X95790000Y-55987300D01*
X95790000Y-56423333D01*
G37*
G36*
X96636666Y-50496667D02*
G01*
X96200633Y-50496667D01*
X96200633Y-50060634D01*
X96636666Y-50060634D01*
X96636666Y-50496667D01*
G37*
D11*
X73289106Y-59289642D02*
X72795999Y-58790712D01*
D10*
G36*
X99176666Y-53883334D02*
G01*
X98740633Y-53883334D01*
X98740633Y-53447300D01*
X99176666Y-53447300D01*
X99176666Y-53883334D01*
G37*
G36*
X99600000Y-59810000D02*
G01*
X99163966Y-59810000D01*
X99163966Y-59373966D01*
X99600000Y-59373966D01*
X99600000Y-59810000D01*
G37*
G36*
X105950000Y-50496667D02*
G01*
X105513966Y-50496667D01*
X105513966Y-50060634D01*
X105950000Y-50060634D01*
X105950000Y-50496667D01*
G37*
G36*
X99176666Y-58963332D02*
G01*
X98740633Y-58963332D01*
X98740633Y-58527300D01*
X99176666Y-58527300D01*
X99176666Y-58963332D01*
G37*
D12*
X80800000Y-30200000D02*
X80800000Y-51800000D01*
D10*
G36*
X103833333Y-60233333D02*
G01*
X103397299Y-60233333D01*
X103397299Y-59797300D01*
X103833333Y-59797300D01*
X103833333Y-60233333D01*
G37*
G36*
X106796666Y-50920000D02*
G01*
X106360632Y-50920000D01*
X106360632Y-50483967D01*
X106796666Y-50483967D01*
X106796666Y-50920000D01*
G37*
G36*
X107643332Y-53460000D02*
G01*
X107207300Y-53460000D01*
X107207300Y-53023967D01*
X107643332Y-53023967D01*
X107643332Y-53460000D01*
G37*
G36*
X109747299Y-48790634D02*
G01*
X106783966Y-48790634D01*
X106783966Y-46250634D01*
X107207300Y-46250634D01*
X107207300Y-48367300D01*
X109323965Y-48367300D01*
X109323965Y-46250634D01*
X107207300Y-46250634D01*
X106783966Y-46250634D01*
X106783966Y-45827301D01*
X109747299Y-45827301D01*
X109747299Y-48790634D01*
G37*
G36*
X102563333Y-59810000D02*
G01*
X102127299Y-59810000D01*
X102127299Y-59373966D01*
X102563333Y-59373966D01*
X102563333Y-59810000D01*
G37*
G36*
X109759999Y-51343334D02*
G01*
X109323965Y-51343334D01*
X109323965Y-50907300D01*
X109759999Y-50907300D01*
X109759999Y-51343334D01*
G37*
G36*
X103410000Y-53460000D02*
G01*
X102973966Y-53460000D01*
X102973966Y-53023967D01*
X103410000Y-53023967D01*
X103410000Y-53460000D01*
G37*
G36*
X97906666Y-51343334D02*
G01*
X97470633Y-51343334D01*
X97470633Y-50907300D01*
X97906666Y-50907300D01*
X97906666Y-51343334D01*
G37*
G36*
X101716666Y-51343334D02*
G01*
X101280633Y-51343334D01*
X101280633Y-50907300D01*
X101716666Y-50907300D01*
X101716666Y-51343334D01*
G37*
G36*
X106373334Y-49226667D02*
G01*
X105937299Y-49226667D01*
X105937299Y-48790634D01*
X106373334Y-48790634D01*
X106373334Y-49226667D01*
G37*
G36*
X108489999Y-54306667D02*
G01*
X108053966Y-54306667D01*
X108053966Y-53870633D01*
X108489999Y-53870633D01*
X108489999Y-54306667D01*
G37*
G36*
X106373334Y-59810000D02*
G01*
X105937299Y-59810000D01*
X105937299Y-59373966D01*
X106373334Y-59373966D01*
X106373334Y-59810000D01*
G37*
G36*
X108066666Y-53036667D02*
G01*
X107630632Y-53036667D01*
X107630632Y-52600634D01*
X108066666Y-52600634D01*
X108066666Y-53036667D01*
G37*
G36*
X103410000Y-52190001D02*
G01*
X102973966Y-52190001D01*
X102973966Y-51753967D01*
X103410000Y-51753967D01*
X103410000Y-52190001D01*
G37*
G36*
X105103333Y-59386666D02*
G01*
X104667300Y-59386666D01*
X104667300Y-58950634D01*
X105103333Y-58950634D01*
X105103333Y-59386666D01*
G37*
G36*
X100023334Y-51343334D02*
G01*
X99587300Y-51343334D01*
X99587300Y-50907300D01*
X100023334Y-50907300D01*
X100023334Y-51343334D01*
G37*
G36*
X109336665Y-55576667D02*
G01*
X108900633Y-55576667D01*
X108900633Y-55140633D01*
X109336665Y-55140633D01*
X109336665Y-55576667D01*
G37*
G36*
X105103333Y-50073333D02*
G01*
X104667300Y-50073333D01*
X104667300Y-49637301D01*
X105103333Y-49637301D01*
X105103333Y-50073333D01*
G37*
G36*
X105103333Y-50496667D02*
G01*
X104667300Y-50496667D01*
X104667300Y-50060634D01*
X105103333Y-50060634D01*
X105103333Y-50496667D01*
G37*
G36*
X104679999Y-47110000D02*
G01*
X104243966Y-47110000D01*
X104243966Y-46673967D01*
X104679999Y-46673967D01*
X104679999Y-47110000D01*
G37*
G36*
X97483333Y-57693334D02*
G01*
X97047300Y-57693334D01*
X97047300Y-57257300D01*
X97483333Y-57257300D01*
X97483333Y-57693334D01*
G37*
G36*
X98753333Y-56846667D02*
G01*
X98317300Y-56846667D01*
X98317300Y-56410634D01*
X98753333Y-56410634D01*
X98753333Y-56846667D01*
G37*
G36*
X102563333Y-49650000D02*
G01*
X102127299Y-49650000D01*
X102127299Y-49213967D01*
X102563333Y-49213967D01*
X102563333Y-49650000D01*
G37*
G36*
X103410000Y-56000000D02*
G01*
X102973966Y-56000000D01*
X102973966Y-55563967D01*
X103410000Y-55563967D01*
X103410000Y-56000000D01*
G37*
G36*
X96213333Y-51343334D02*
G01*
X95777300Y-51343334D01*
X95777300Y-50907300D01*
X96213333Y-50907300D01*
X96213333Y-51343334D01*
G37*
G36*
X108066666Y-61503333D02*
G01*
X107630632Y-61503333D01*
X107630632Y-61067299D01*
X108066666Y-61067299D01*
X108066666Y-61503333D01*
G37*
G36*
X109759999Y-50496667D02*
G01*
X109323965Y-50496667D01*
X109323965Y-50060634D01*
X109759999Y-50060634D01*
X109759999Y-50496667D01*
G37*
G36*
X99600000Y-49650000D02*
G01*
X99163966Y-49650000D01*
X99163966Y-49213967D01*
X99600000Y-49213967D01*
X99600000Y-49650000D01*
G37*
G36*
X96213333Y-49650000D02*
G01*
X95777300Y-49650000D01*
X95777300Y-49213967D01*
X96213333Y-49213967D01*
X96213333Y-49650000D01*
G37*
G36*
X107219998Y-59810000D02*
G01*
X106783966Y-59810000D01*
X106783966Y-59373966D01*
X107219998Y-59373966D01*
X107219998Y-59810000D01*
G37*
G36*
X105950000Y-48380000D02*
G01*
X105513966Y-48380000D01*
X105513966Y-47943967D01*
X105950000Y-47943967D01*
X105950000Y-48380000D01*
G37*
G36*
X107219998Y-57270000D02*
G01*
X106783966Y-57270000D01*
X106783966Y-56833967D01*
X107219998Y-56833967D01*
X107219998Y-57270000D01*
G37*
G36*
X104679999Y-47533334D02*
G01*
X104243966Y-47533334D01*
X104243966Y-47097301D01*
X104679999Y-47097301D01*
X104679999Y-47533334D01*
G37*
G36*
X99176666Y-59386666D02*
G01*
X98740633Y-59386666D01*
X98740633Y-58950634D01*
X99176666Y-58950634D01*
X99176666Y-59386666D01*
G37*
G36*
X97906666Y-54730001D02*
G01*
X97470633Y-54730001D01*
X97470633Y-54293967D01*
X97906666Y-54293967D01*
X97906666Y-54730001D01*
G37*
G36*
X103410000Y-48380000D02*
G01*
X102973966Y-48380000D01*
X102973966Y-47943967D01*
X103410000Y-47943967D01*
X103410000Y-48380000D01*
G37*
G36*
X106373334Y-58963332D02*
G01*
X105937299Y-58963332D01*
X105937299Y-58527300D01*
X106373334Y-58527300D01*
X106373334Y-58963332D01*
G37*
G36*
X102986667Y-46263334D02*
G01*
X102550633Y-46263334D01*
X102550633Y-45827301D01*
X102986667Y-45827301D01*
X102986667Y-46263334D01*
G37*
G36*
X96636666Y-49650000D02*
G01*
X96200633Y-49650000D01*
X96200633Y-49213967D01*
X96636666Y-49213967D01*
X96636666Y-49650000D01*
G37*
G36*
X104679999Y-59386666D02*
G01*
X104243966Y-59386666D01*
X104243966Y-58950634D01*
X104679999Y-58950634D01*
X104679999Y-59386666D01*
G37*
G36*
X105526666Y-54306667D02*
G01*
X105090633Y-54306667D01*
X105090633Y-53870633D01*
X105526666Y-53870633D01*
X105526666Y-54306667D01*
G37*
G36*
X97060000Y-52190001D02*
G01*
X96623966Y-52190001D01*
X96623966Y-51753967D01*
X97060000Y-51753967D01*
X97060000Y-52190001D01*
G37*
G36*
X100870000Y-60233333D02*
G01*
X100433966Y-60233333D01*
X100433966Y-59797300D01*
X100870000Y-59797300D01*
X100870000Y-60233333D01*
G37*
G36*
X76317493Y-56578608D02*
G01*
X76619307Y-56578608D01*
X76982931Y-57560324D01*
X76728460Y-57560324D01*
X76665993Y-57381471D01*
X76270150Y-57381471D01*
X76208341Y-57560324D01*
X75953870Y-57560324D01*
X76087581Y-57199328D01*
X76333932Y-57199328D01*
X76602869Y-57199328D01*
X76468072Y-56808746D01*
X76333932Y-57199328D01*
X76087581Y-57199328D01*
X76317493Y-56578608D01*
G37*
G36*
X108066666Y-52190001D02*
G01*
X107630632Y-52190001D01*
X107630632Y-51753967D01*
X108066666Y-51753967D01*
X108066666Y-52190001D01*
G37*
G36*
X109759999Y-54306667D02*
G01*
X109323965Y-54306667D01*
X109323965Y-53870633D01*
X109759999Y-53870633D01*
X109759999Y-54306667D01*
G37*
G36*
X104256666Y-50496667D02*
G01*
X103820633Y-50496667D01*
X103820633Y-50060634D01*
X104256666Y-50060634D01*
X104256666Y-50496667D01*
G37*
G36*
X99600000Y-50496667D02*
G01*
X99163966Y-50496667D01*
X99163966Y-50060634D01*
X99600000Y-50060634D01*
X99600000Y-50496667D01*
G37*
G36*
X108066666Y-54730001D02*
G01*
X107630632Y-54730001D01*
X107630632Y-54293967D01*
X108066666Y-54293967D01*
X108066666Y-54730001D01*
G37*
G36*
X103833333Y-50073333D02*
G01*
X103397299Y-50073333D01*
X103397299Y-49637301D01*
X103833333Y-49637301D01*
X103833333Y-50073333D01*
G37*
G36*
X97906666Y-54306667D02*
G01*
X97470633Y-54306667D01*
X97470633Y-53870633D01*
X97906666Y-53870633D01*
X97906666Y-54306667D01*
G37*
G36*
X101716666Y-47533334D02*
G01*
X101280633Y-47533334D01*
X101280633Y-47097301D01*
X101716666Y-47097301D01*
X101716666Y-47533334D01*
G37*
G36*
X97906666Y-60656665D02*
G01*
X97470633Y-60656665D01*
X97470633Y-60220633D01*
X97906666Y-60220633D01*
X97906666Y-60656665D01*
G37*
G36*
X99176666Y-60656665D02*
G01*
X98740633Y-60656665D01*
X98740633Y-60220633D01*
X99176666Y-60220633D01*
X99176666Y-60656665D01*
G37*
D11*
X80524000Y-55050000D02*
X80524000Y-59289642D01*
D10*
G36*
X94520000Y-52190001D02*
G01*
X94083967Y-52190001D01*
X94083967Y-51753967D01*
X94520000Y-51753967D01*
X94520000Y-52190001D01*
G37*
G36*
X108913331Y-49650000D02*
G01*
X108477299Y-49650000D01*
X108477299Y-49213967D01*
X108913331Y-49213967D01*
X108913331Y-49650000D01*
G37*
G36*
X100870000Y-53036667D02*
G01*
X100433966Y-53036667D01*
X100433966Y-52600634D01*
X100870000Y-52600634D01*
X100870000Y-53036667D01*
G37*
G36*
X97906666Y-53460000D02*
G01*
X97470633Y-53460000D01*
X97470633Y-53023967D01*
X97906666Y-53023967D01*
X97906666Y-53460000D01*
G37*
G36*
X102140000Y-52613334D02*
G01*
X101703966Y-52613334D01*
X101703966Y-52177300D01*
X102140000Y-52177300D01*
X102140000Y-52613334D01*
G37*
G36*
X106373334Y-48803334D02*
G01*
X105937299Y-48803334D01*
X105937299Y-48367300D01*
X106373334Y-48367300D01*
X106373334Y-48803334D01*
G37*
G36*
X103833333Y-55153334D02*
G01*
X103397299Y-55153334D01*
X103397299Y-54717300D01*
X103833333Y-54717300D01*
X103833333Y-55153334D01*
G37*
G36*
X108489999Y-53460000D02*
G01*
X108053966Y-53460000D01*
X108053966Y-53023967D01*
X108489999Y-53023967D01*
X108489999Y-53460000D01*
G37*
G36*
X99600000Y-61503333D02*
G01*
X99163966Y-61503333D01*
X99163966Y-61067299D01*
X99600000Y-61067299D01*
X99600000Y-61503333D01*
G37*
G36*
X107219998Y-60233333D02*
G01*
X106783966Y-60233333D01*
X106783966Y-59797300D01*
X107219998Y-59797300D01*
X107219998Y-60233333D01*
G37*
G36*
X99176666Y-61079999D02*
G01*
X98740633Y-61079999D01*
X98740633Y-60643967D01*
X99176666Y-60643967D01*
X99176666Y-61079999D01*
G37*
G36*
X100870000Y-53883334D02*
G01*
X100433966Y-53883334D01*
X100433966Y-53447300D01*
X100870000Y-53447300D01*
X100870000Y-53883334D01*
G37*
G36*
X104256666Y-56000000D02*
G01*
X103820633Y-56000000D01*
X103820633Y-55563967D01*
X104256666Y-55563967D01*
X104256666Y-56000000D01*
G37*
G36*
X108900633Y-47943967D02*
G01*
X107630632Y-47943967D01*
X107630632Y-46673967D01*
X108900633Y-46673967D01*
X108900633Y-47943967D01*
G37*
G36*
X98329999Y-56846667D02*
G01*
X97893967Y-56846667D01*
X97893967Y-56410634D01*
X98329999Y-56410634D01*
X98329999Y-56846667D01*
G37*
G36*
X102986667Y-58540000D02*
G01*
X102550633Y-58540000D01*
X102550633Y-58103966D01*
X102986667Y-58103966D01*
X102986667Y-58540000D01*
G37*
G36*
X106796666Y-57270000D02*
G01*
X106360632Y-57270000D01*
X106360632Y-56833967D01*
X106796666Y-56833967D01*
X106796666Y-57270000D01*
G37*
G36*
X102986667Y-48803334D02*
G01*
X102550633Y-48803334D01*
X102550633Y-48367300D01*
X102986667Y-48367300D01*
X102986667Y-48803334D01*
G37*
G36*
X99176666Y-53460000D02*
G01*
X98740633Y-53460000D01*
X98740633Y-53023967D01*
X99176666Y-53023967D01*
X99176666Y-53460000D01*
G37*
G36*
X97060000Y-57270000D02*
G01*
X96623966Y-57270000D01*
X96623966Y-56833967D01*
X97060000Y-56833967D01*
X97060000Y-57270000D01*
G37*
G36*
X108489999Y-59386666D02*
G01*
X108053966Y-59386666D01*
X108053966Y-58950634D01*
X108489999Y-58950634D01*
X108489999Y-59386666D01*
G37*
G36*
X108489999Y-60656665D02*
G01*
X108053966Y-60656665D01*
X108053966Y-60220633D01*
X108489999Y-60220633D01*
X108489999Y-60656665D01*
G37*
G36*
X106796666Y-61503333D02*
G01*
X106360632Y-61503333D01*
X106360632Y-61067299D01*
X106796666Y-61067299D01*
X106796666Y-61503333D01*
G37*
G36*
X101716666Y-51766668D02*
G01*
X101280633Y-51766668D01*
X101280633Y-51330634D01*
X101716666Y-51330634D01*
X101716666Y-51766668D01*
G37*
G36*
X102140000Y-59386666D02*
G01*
X101703966Y-59386666D01*
X101703966Y-58950634D01*
X102140000Y-58950634D01*
X102140000Y-59386666D01*
G37*
G36*
X95790000Y-53460000D02*
G01*
X95353967Y-53460000D01*
X95353967Y-53023967D01*
X95790000Y-53023967D01*
X95790000Y-53460000D01*
G37*
G36*
X107219998Y-58963332D02*
G01*
X106783966Y-58963332D01*
X106783966Y-58527300D01*
X107219998Y-58527300D01*
X107219998Y-58963332D01*
G37*
G36*
X104679999Y-48803334D02*
G01*
X104243966Y-48803334D01*
X104243966Y-48367300D01*
X104679999Y-48367300D01*
X104679999Y-48803334D01*
G37*
G36*
X106373334Y-55153334D02*
G01*
X105937299Y-55153334D01*
X105937299Y-54717300D01*
X106373334Y-54717300D01*
X106373334Y-55153334D01*
G37*
G36*
X94520000Y-56846667D02*
G01*
X94083967Y-56846667D01*
X94083967Y-56410634D01*
X94520000Y-56410634D01*
X94520000Y-56846667D01*
G37*
G36*
X95790000Y-52190001D02*
G01*
X95353967Y-52190001D01*
X95353967Y-51753967D01*
X95790000Y-51753967D01*
X95790000Y-52190001D01*
G37*
G36*
X105103333Y-59810000D02*
G01*
X104667300Y-59810000D01*
X104667300Y-59373966D01*
X105103333Y-59373966D01*
X105103333Y-59810000D01*
G37*
G36*
X103833333Y-58116668D02*
G01*
X103397299Y-58116668D01*
X103397299Y-57680633D01*
X103833333Y-57680633D01*
X103833333Y-58116668D01*
G37*
G36*
X96213333Y-56000000D02*
G01*
X95777300Y-56000000D01*
X95777300Y-55563967D01*
X96213333Y-55563967D01*
X96213333Y-56000000D01*
G37*
D11*
X80524000Y-59289642D02*
X80524000Y-59289642D01*
D10*
G36*
X98329999Y-51343334D02*
G01*
X97893967Y-51343334D01*
X97893967Y-50907300D01*
X98329999Y-50907300D01*
X98329999Y-51343334D01*
G37*
G36*
X99600000Y-51343334D02*
G01*
X99163966Y-51343334D01*
X99163966Y-50907300D01*
X99600000Y-50907300D01*
X99600000Y-51343334D01*
G37*
G36*
X95366666Y-54306667D02*
G01*
X94930633Y-54306667D01*
X94930633Y-53870633D01*
X95366666Y-53870633D01*
X95366666Y-54306667D01*
G37*
G36*
X106373334Y-56846667D02*
G01*
X105937299Y-56846667D01*
X105937299Y-56410634D01*
X106373334Y-56410634D01*
X106373334Y-56846667D01*
G37*
G36*
X101293333Y-51343334D02*
G01*
X100857300Y-51343334D01*
X100857300Y-50907300D01*
X101293333Y-50907300D01*
X101293333Y-51343334D01*
G37*
G36*
X108489999Y-49650000D02*
G01*
X108053966Y-49650000D01*
X108053966Y-49213967D01*
X108489999Y-49213967D01*
X108489999Y-49650000D01*
G37*
G36*
X95790000Y-50073333D02*
G01*
X95353967Y-50073333D01*
X95353967Y-49637301D01*
X95790000Y-49637301D01*
X95790000Y-50073333D01*
G37*
G36*
X97483333Y-52613334D02*
G01*
X97047300Y-52613334D01*
X97047300Y-52177300D01*
X97483333Y-52177300D01*
X97483333Y-52613334D01*
G37*
G36*
X97906666Y-49226667D02*
G01*
X97470633Y-49226667D01*
X97470633Y-48790634D01*
X97906666Y-48790634D01*
X97906666Y-49226667D01*
G37*
G36*
X101716666Y-52190001D02*
G01*
X101280633Y-52190001D01*
X101280633Y-51753967D01*
X101716666Y-51753967D01*
X101716666Y-52190001D01*
G37*
G36*
X94520000Y-54730001D02*
G01*
X94083967Y-54730001D01*
X94083967Y-54293967D01*
X94520000Y-54293967D01*
X94520000Y-54730001D01*
G37*
G36*
X100870000Y-59386666D02*
G01*
X100433966Y-59386666D01*
X100433966Y-58950634D01*
X100870000Y-58950634D01*
X100870000Y-59386666D01*
G37*
G36*
X107219998Y-61079999D02*
G01*
X106783966Y-61079999D01*
X106783966Y-60643967D01*
X107219998Y-60643967D01*
X107219998Y-61079999D01*
G37*
G36*
X106796666Y-52613334D02*
G01*
X106360632Y-52613334D01*
X106360632Y-52177300D01*
X106796666Y-52177300D01*
X106796666Y-52613334D01*
G37*
G36*
X100446667Y-49650000D02*
G01*
X100010633Y-49650000D01*
X100010633Y-49213967D01*
X100446667Y-49213967D01*
X100446667Y-49650000D01*
G37*
G36*
X101716666Y-46263334D02*
G01*
X101280633Y-46263334D01*
X101280633Y-45827301D01*
X101716666Y-45827301D01*
X101716666Y-46263334D01*
G37*
G36*
X107219998Y-61503333D02*
G01*
X106783966Y-61503333D01*
X106783966Y-61067299D01*
X107219998Y-61067299D01*
X107219998Y-61503333D01*
G37*
G36*
X95790000Y-51343334D02*
G01*
X95353967Y-51343334D01*
X95353967Y-50907300D01*
X95790000Y-50907300D01*
X95790000Y-51343334D01*
G37*
G36*
X95790000Y-51766668D02*
G01*
X95353967Y-51766668D01*
X95353967Y-51330634D01*
X95790000Y-51330634D01*
X95790000Y-51766668D01*
G37*
G36*
X102563333Y-47956667D02*
G01*
X102127299Y-47956667D01*
X102127299Y-47520634D01*
X102563333Y-47520634D01*
X102563333Y-47956667D01*
G37*
G36*
X100446667Y-61503333D02*
G01*
X100010633Y-61503333D01*
X100010633Y-61067299D01*
X100446667Y-61067299D01*
X100446667Y-61503333D01*
G37*
G36*
X99600000Y-59386666D02*
G01*
X99163966Y-59386666D01*
X99163966Y-58950634D01*
X99600000Y-58950634D01*
X99600000Y-59386666D01*
G37*
G36*
X100446667Y-51343334D02*
G01*
X100010633Y-51343334D01*
X100010633Y-50907300D01*
X100446667Y-50907300D01*
X100446667Y-51343334D01*
G37*
G36*
X100446667Y-53036667D02*
G01*
X100010633Y-53036667D01*
X100010633Y-52600634D01*
X100446667Y-52600634D01*
X100446667Y-53036667D01*
G37*
G36*
X103833333Y-48803334D02*
G01*
X103397299Y-48803334D01*
X103397299Y-48367300D01*
X103833333Y-48367300D01*
X103833333Y-48803334D01*
G37*
G36*
X102140000Y-56423333D02*
G01*
X101703966Y-56423333D01*
X101703966Y-55987300D01*
X102140000Y-55987300D01*
X102140000Y-56423333D01*
G37*
G36*
X105950000Y-47533334D02*
G01*
X105513966Y-47533334D01*
X105513966Y-47097301D01*
X105950000Y-47097301D01*
X105950000Y-47533334D01*
G37*
G36*
X95790000Y-50496667D02*
G01*
X95353967Y-50496667D01*
X95353967Y-50060634D01*
X95790000Y-50060634D01*
X95790000Y-50496667D01*
G37*
G36*
X100870000Y-58963332D02*
G01*
X100433966Y-58963332D01*
X100433966Y-58527300D01*
X100870000Y-58527300D01*
X100870000Y-58963332D01*
G37*
G36*
X73812977Y-58162987D02*
G01*
X74067370Y-58162987D01*
X74067525Y-58171036D01*
X74067991Y-58178846D01*
X74068766Y-58186415D01*
X74069853Y-58193743D01*
X74071250Y-58200832D01*
X74072957Y-58207680D01*
X74074974Y-58214288D01*
X74077302Y-58220656D01*
X74079940Y-58226784D01*
X74082889Y-58232671D01*
X74086148Y-58238318D01*
X74089717Y-58243724D01*
X74093597Y-58248891D01*
X74097787Y-58253817D01*
X74102288Y-58258502D01*
X74107099Y-58262948D01*
X74112110Y-58267060D01*
X74117371Y-58270908D01*
X74122883Y-58274490D01*
X74128645Y-58277807D01*
X74134657Y-58280858D01*
X74140920Y-58283644D01*
X74147433Y-58286165D01*
X74154196Y-58288420D01*
X74161210Y-58290410D01*
X74168474Y-58292134D01*
X74175988Y-58293594D01*
X74183753Y-58294787D01*
X74191768Y-58295716D01*
X74200033Y-58296379D01*
X74208548Y-58296777D01*
X74217314Y-58296910D01*
X74353802Y-58296910D01*
X74353802Y-58029700D01*
X74217314Y-58029700D01*
X74208548Y-58029833D01*
X74200033Y-58030231D01*
X74191768Y-58030894D01*
X74183753Y-58031823D01*
X74175988Y-58033017D01*
X74168474Y-58034476D01*
X74161210Y-58036201D01*
X74154196Y-58038191D01*
X74147433Y-58040446D01*
X74140920Y-58042966D01*
X74134657Y-58045752D01*
X74128645Y-58048804D01*
X74122883Y-58052121D01*
X74117371Y-58055703D01*
X74112110Y-58059550D01*
X74107099Y-58063663D01*
X74102288Y-58068031D01*
X74097787Y-58072644D01*
X74093597Y-58077503D01*
X74089717Y-58082607D01*
X74086148Y-58087956D01*
X74082889Y-58093550D01*
X74079940Y-58099390D01*
X74077302Y-58105475D01*
X74074974Y-58111805D01*
X74072957Y-58118381D01*
X74071250Y-58125202D01*
X74069853Y-58132268D01*
X74068766Y-58139580D01*
X74067991Y-58147137D01*
X74067525Y-58154939D01*
X74067370Y-58162987D01*
X73812977Y-58162987D01*
X73813370Y-58143825D01*
X73814549Y-58125270D01*
X73816514Y-58107320D01*
X73819265Y-58089976D01*
X73822802Y-58073237D01*
X73827125Y-58057105D01*
X73832233Y-58041578D01*
X73838128Y-58026657D01*
X73844809Y-58012342D01*
X73852275Y-57998633D01*
X73860528Y-57985529D01*
X73869567Y-57973032D01*
X73879391Y-57961140D01*
X73890002Y-57949854D01*
X73901398Y-57939173D01*
X73913581Y-57929099D01*
X73926379Y-57919632D01*
X73939783Y-57910777D01*
X73953793Y-57902532D01*
X73968408Y-57894898D01*
X73983629Y-57887874D01*
X73999456Y-57881461D01*
X74015889Y-57875659D01*
X74032928Y-57870468D01*
X74050572Y-57865887D01*
X74068822Y-57861917D01*
X74087677Y-57858558D01*
X74107139Y-57855810D01*
X74127206Y-57853672D01*
X74147879Y-57852145D01*
X74169158Y-57851229D01*
X74191042Y-57850924D01*
X74600505Y-57850924D01*
X74600505Y-58807620D01*
X74353802Y-58807620D01*
X74353802Y-58475690D01*
X74191042Y-58475690D01*
X74169233Y-58475385D01*
X74148019Y-58474469D01*
X74127401Y-58472942D01*
X74107379Y-58470804D01*
X74087953Y-58468056D01*
X74069122Y-58464697D01*
X74050887Y-58460727D01*
X74033248Y-58456146D01*
X74016204Y-58450955D01*
X73999757Y-58445153D01*
X73983905Y-58438740D01*
X73968648Y-58431716D01*
X73953988Y-58424082D01*
X73939923Y-58415837D01*
X73926454Y-58406982D01*
X73913581Y-58397515D01*
X73901398Y-58387362D01*
X73890002Y-58376609D01*
X73879391Y-58365254D01*
X73869567Y-58353300D01*
X73860528Y-58340744D01*
X73852275Y-58327588D01*
X73844809Y-58313831D01*
X73838128Y-58299473D01*
X73832233Y-58284515D01*
X73827125Y-58268956D01*
X73822802Y-58252796D01*
X73819265Y-58236035D01*
X73816514Y-58218674D01*
X73814549Y-58200712D01*
X73813370Y-58182150D01*
X73812977Y-58162987D01*
G37*
G36*
X101716666Y-56846667D02*
G01*
X101280633Y-56846667D01*
X101280633Y-56410634D01*
X101716666Y-56410634D01*
X101716666Y-56846667D01*
G37*
G36*
X109759999Y-59386666D02*
G01*
X109323965Y-59386666D01*
X109323965Y-58950634D01*
X109759999Y-58950634D01*
X109759999Y-59386666D01*
G37*
G36*
X97060000Y-58116668D02*
G01*
X96623966Y-58116668D01*
X96623966Y-57680633D01*
X97060000Y-57680633D01*
X97060000Y-58116668D01*
G37*
G36*
X95366666Y-54730001D02*
G01*
X94930633Y-54730001D01*
X94930633Y-54293967D01*
X95366666Y-54293967D01*
X95366666Y-54730001D01*
G37*
G36*
X94520000Y-52613334D02*
G01*
X94083967Y-52613334D01*
X94083967Y-52177300D01*
X94520000Y-52177300D01*
X94520000Y-52613334D01*
G37*
G36*
X105103333Y-60233333D02*
G01*
X104667300Y-60233333D01*
X104667300Y-59797300D01*
X105103333Y-59797300D01*
X105103333Y-60233333D01*
G37*
D11*
X72795999Y-58790712D02*
X72795999Y-58790712D01*
D10*
G36*
X102563333Y-53883334D02*
G01*
X102127299Y-53883334D01*
X102127299Y-53447300D01*
X102563333Y-53447300D01*
X102563333Y-53883334D01*
G37*
G36*
X101716666Y-61503333D02*
G01*
X101280633Y-61503333D01*
X101280633Y-61067299D01*
X101716666Y-61067299D01*
X101716666Y-61503333D01*
G37*
G36*
X100870000Y-56000000D02*
G01*
X100433966Y-56000000D01*
X100433966Y-55563967D01*
X100870000Y-55563967D01*
X100870000Y-56000000D01*
G37*
G36*
X103833333Y-53460000D02*
G01*
X103397299Y-53460000D01*
X103397299Y-53023967D01*
X103833333Y-53023967D01*
X103833333Y-53460000D01*
G37*
G36*
X100023334Y-52613334D02*
G01*
X99587300Y-52613334D01*
X99587300Y-52177300D01*
X100023334Y-52177300D01*
X100023334Y-52613334D01*
G37*
G36*
X101716666Y-60233333D02*
G01*
X101280633Y-60233333D01*
X101280633Y-59797300D01*
X101716666Y-59797300D01*
X101716666Y-60233333D01*
G37*
G36*
X100870000Y-46686667D02*
G01*
X100433966Y-46686667D01*
X100433966Y-46250634D01*
X100870000Y-46250634D01*
X100870000Y-46686667D01*
G37*
G36*
X104679999Y-46686667D02*
G01*
X104243966Y-46686667D01*
X104243966Y-46250634D01*
X104679999Y-46250634D01*
X104679999Y-46686667D01*
G37*
G36*
X105526666Y-58116668D02*
G01*
X105090633Y-58116668D01*
X105090633Y-57680633D01*
X105526666Y-57680633D01*
X105526666Y-58116668D01*
G37*
G36*
X109759999Y-59810000D02*
G01*
X109323965Y-59810000D01*
X109323965Y-59373966D01*
X109759999Y-59373966D01*
X109759999Y-59810000D01*
G37*
G36*
X105526666Y-59810000D02*
G01*
X105090633Y-59810000D01*
X105090633Y-59373966D01*
X105526666Y-59373966D01*
X105526666Y-59810000D01*
G37*
G36*
X105103333Y-57270000D02*
G01*
X104667300Y-57270000D01*
X104667300Y-56833967D01*
X105103333Y-56833967D01*
X105103333Y-57270000D01*
G37*
G36*
X94943333Y-54730001D02*
G01*
X94507300Y-54730001D01*
X94507300Y-54293967D01*
X94943333Y-54293967D01*
X94943333Y-54730001D01*
G37*
G36*
X108066666Y-56000000D02*
G01*
X107630632Y-56000000D01*
X107630632Y-55563967D01*
X108066666Y-55563967D01*
X108066666Y-56000000D01*
G37*
G36*
X96636666Y-56423333D02*
G01*
X96200633Y-56423333D01*
X96200633Y-55987300D01*
X96636666Y-55987300D01*
X96636666Y-56423333D01*
G37*
G36*
X97047300Y-48790634D02*
G01*
X94083967Y-48790634D01*
X94083967Y-46250634D01*
X94507300Y-46250634D01*
X94507300Y-48367300D01*
X96623966Y-48367300D01*
X96623966Y-46250634D01*
X94507300Y-46250634D01*
X94083967Y-46250634D01*
X94083967Y-45827301D01*
X97047300Y-45827301D01*
X97047300Y-48790634D01*
G37*
G36*
X97906666Y-48380000D02*
G01*
X97470633Y-48380000D01*
X97470633Y-47943967D01*
X97906666Y-47943967D01*
X97906666Y-48380000D01*
G37*
G36*
X95790000Y-54306667D02*
G01*
X95353967Y-54306667D01*
X95353967Y-53870633D01*
X95790000Y-53870633D01*
X95790000Y-54306667D01*
G37*
G36*
X106796666Y-54306667D02*
G01*
X106360632Y-54306667D01*
X106360632Y-53870633D01*
X106796666Y-53870633D01*
X106796666Y-54306667D01*
G37*
G36*
X99176666Y-57693334D02*
G01*
X98740633Y-57693334D01*
X98740633Y-57257300D01*
X99176666Y-57257300D01*
X99176666Y-57693334D01*
G37*
G36*
X79893266Y-57560324D02*
G01*
X79640111Y-57560324D01*
X79640111Y-57144096D01*
X79235719Y-57144096D01*
X79235719Y-56952751D01*
X79640111Y-56952751D01*
X79640111Y-56769953D01*
X79210075Y-56769953D01*
X79210075Y-56578608D01*
X79893266Y-56578608D01*
X79893266Y-57560324D01*
G37*
G36*
X107219998Y-50496667D02*
G01*
X106783966Y-50496667D01*
X106783966Y-50060634D01*
X107219998Y-50060634D01*
X107219998Y-50496667D01*
G37*
G36*
X108066666Y-58116668D02*
G01*
X107630632Y-58116668D01*
X107630632Y-57680633D01*
X108066666Y-57680633D01*
X108066666Y-58116668D01*
G37*
G36*
X103410000Y-49226667D02*
G01*
X102973966Y-49226667D01*
X102973966Y-48790634D01*
X103410000Y-48790634D01*
X103410000Y-49226667D01*
G37*
G36*
X100023334Y-49226667D02*
G01*
X99587300Y-49226667D01*
X99587300Y-48790634D01*
X100023334Y-48790634D01*
X100023334Y-49226667D01*
G37*
G36*
X100023334Y-51766668D02*
G01*
X99587300Y-51766668D01*
X99587300Y-51330634D01*
X100023334Y-51330634D01*
X100023334Y-51766668D01*
G37*
D11*
X80524000Y-55050000D02*
X80524000Y-55050000D01*
D10*
G36*
X104679999Y-52190001D02*
G01*
X104243966Y-52190001D01*
X104243966Y-51753967D01*
X104679999Y-51753967D01*
X104679999Y-52190001D01*
G37*
G36*
X109336665Y-58540000D02*
G01*
X108900633Y-58540000D01*
X108900633Y-58103966D01*
X109336665Y-58103966D01*
X109336665Y-58540000D01*
G37*
G36*
X99176666Y-50496667D02*
G01*
X98740633Y-50496667D01*
X98740633Y-50060634D01*
X99176666Y-50060634D01*
X99176666Y-50496667D01*
G37*
G36*
X105103333Y-53460000D02*
G01*
X104667300Y-53460000D01*
X104667300Y-53023967D01*
X105103333Y-53023967D01*
X105103333Y-53460000D01*
G37*
G36*
X101293333Y-60656665D02*
G01*
X100857300Y-60656665D01*
X100857300Y-60220633D01*
X101293333Y-60220633D01*
X101293333Y-60656665D01*
G37*
G36*
X100023334Y-47110000D02*
G01*
X99587300Y-47110000D01*
X99587300Y-46673967D01*
X100023334Y-46673967D01*
X100023334Y-47110000D01*
G37*
G36*
X106373334Y-55576667D02*
G01*
X105937299Y-55576667D01*
X105937299Y-55140633D01*
X106373334Y-55140633D01*
X106373334Y-55576667D01*
G37*
G36*
X107643332Y-59810000D02*
G01*
X107207300Y-59810000D01*
X107207300Y-59373966D01*
X107643332Y-59373966D01*
X107643332Y-59810000D01*
G37*
G36*
X103410000Y-60656665D02*
G01*
X102973966Y-60656665D01*
X102973966Y-60220633D01*
X103410000Y-60220633D01*
X103410000Y-60656665D01*
G37*
G36*
X101293333Y-47110000D02*
G01*
X100857300Y-47110000D01*
X100857300Y-46673967D01*
X101293333Y-46673967D01*
X101293333Y-47110000D01*
G37*
G36*
X100446667Y-57693334D02*
G01*
X100010633Y-57693334D01*
X100010633Y-57257300D01*
X100446667Y-57257300D01*
X100446667Y-57693334D01*
G37*
G36*
X102563333Y-47533334D02*
G01*
X102127299Y-47533334D01*
X102127299Y-47097301D01*
X102563333Y-47097301D01*
X102563333Y-47533334D01*
G37*
G36*
X95790000Y-50920000D02*
G01*
X95353967Y-50920000D01*
X95353967Y-50483967D01*
X95790000Y-50483967D01*
X95790000Y-50920000D01*
G37*
G36*
X105526666Y-52190001D02*
G01*
X105090633Y-52190001D01*
X105090633Y-51753967D01*
X105526666Y-51753967D01*
X105526666Y-52190001D01*
G37*
G36*
X95366666Y-58116668D02*
G01*
X94930633Y-58116668D01*
X94930633Y-57680633D01*
X95366666Y-57680633D01*
X95366666Y-58116668D01*
G37*
G36*
X109336665Y-53883334D02*
G01*
X108900633Y-53883334D01*
X108900633Y-53447300D01*
X109336665Y-53447300D01*
X109336665Y-53883334D01*
G37*
G36*
X102563333Y-61503333D02*
G01*
X102127299Y-61503333D01*
X102127299Y-61067299D01*
X102563333Y-61067299D01*
X102563333Y-61503333D01*
G37*
G36*
X105950000Y-56423333D02*
G01*
X105513966Y-56423333D01*
X105513966Y-55987300D01*
X105950000Y-55987300D01*
X105950000Y-56423333D01*
G37*
D13*
X90577142Y-52494095D02*
X90424761Y-52494095D01*
X90424761Y-52494095D02*
X90348571Y-52532190D01*
X90348571Y-52532190D02*
X90272380Y-52608380D01*
X90272380Y-52608380D02*
X90234285Y-52760761D01*
X90234285Y-52760761D02*
X90234285Y-53027428D01*
X90234285Y-53027428D02*
X90272380Y-53179809D01*
X90272380Y-53179809D02*
X90348571Y-53256000D01*
X90348571Y-53256000D02*
X90424761Y-53294095D01*
X90424761Y-53294095D02*
X90577142Y-53294095D01*
X90577142Y-53294095D02*
X90653333Y-53256000D01*
X90653333Y-53256000D02*
X90729523Y-53179809D01*
X90729523Y-53179809D02*
X90767619Y-53027428D01*
X90767619Y-53027428D02*
X90767619Y-52760761D01*
X90767619Y-52760761D02*
X90729523Y-52608380D01*
X90729523Y-52608380D02*
X90653333Y-52532190D01*
X90653333Y-52532190D02*
X90577142Y-52494095D01*
X89891428Y-53294095D02*
X89891428Y-52494095D01*
X89891428Y-52494095D02*
X89586666Y-52494095D01*
X89586666Y-52494095D02*
X89510476Y-52532190D01*
X89510476Y-52532190D02*
X89472381Y-52570285D01*
X89472381Y-52570285D02*
X89434285Y-52646476D01*
X89434285Y-52646476D02*
X89434285Y-52760761D01*
X89434285Y-52760761D02*
X89472381Y-52836952D01*
X89472381Y-52836952D02*
X89510476Y-52875047D01*
X89510476Y-52875047D02*
X89586666Y-52913142D01*
X89586666Y-52913142D02*
X89891428Y-52913142D01*
X89091428Y-52875047D02*
X88824762Y-52875047D01*
X88710476Y-53294095D02*
X89091428Y-53294095D01*
X89091428Y-53294095D02*
X89091428Y-52494095D01*
X89091428Y-52494095D02*
X88710476Y-52494095D01*
X88367618Y-53294095D02*
X88367618Y-52494095D01*
X88367618Y-52494095D02*
X87910475Y-53294095D01*
X87910475Y-53294095D02*
X87910475Y-52494095D01*
X90767619Y-54552000D02*
X90653333Y-54590095D01*
X90653333Y-54590095D02*
X90462857Y-54590095D01*
X90462857Y-54590095D02*
X90386666Y-54552000D01*
X90386666Y-54552000D02*
X90348571Y-54513904D01*
X90348571Y-54513904D02*
X90310476Y-54437714D01*
X90310476Y-54437714D02*
X90310476Y-54361523D01*
X90310476Y-54361523D02*
X90348571Y-54285333D01*
X90348571Y-54285333D02*
X90386666Y-54247238D01*
X90386666Y-54247238D02*
X90462857Y-54209142D01*
X90462857Y-54209142D02*
X90615238Y-54171047D01*
X90615238Y-54171047D02*
X90691428Y-54132952D01*
X90691428Y-54132952D02*
X90729523Y-54094857D01*
X90729523Y-54094857D02*
X90767619Y-54018666D01*
X90767619Y-54018666D02*
X90767619Y-53942476D01*
X90767619Y-53942476D02*
X90729523Y-53866285D01*
X90729523Y-53866285D02*
X90691428Y-53828190D01*
X90691428Y-53828190D02*
X90615238Y-53790095D01*
X90615238Y-53790095D02*
X90424761Y-53790095D01*
X90424761Y-53790095D02*
X90310476Y-53828190D01*
X89815237Y-53790095D02*
X89662856Y-53790095D01*
X89662856Y-53790095D02*
X89586666Y-53828190D01*
X89586666Y-53828190D02*
X89510475Y-53904380D01*
X89510475Y-53904380D02*
X89472380Y-54056761D01*
X89472380Y-54056761D02*
X89472380Y-54323428D01*
X89472380Y-54323428D02*
X89510475Y-54475809D01*
X89510475Y-54475809D02*
X89586666Y-54552000D01*
X89586666Y-54552000D02*
X89662856Y-54590095D01*
X89662856Y-54590095D02*
X89815237Y-54590095D01*
X89815237Y-54590095D02*
X89891428Y-54552000D01*
X89891428Y-54552000D02*
X89967618Y-54475809D01*
X89967618Y-54475809D02*
X90005714Y-54323428D01*
X90005714Y-54323428D02*
X90005714Y-54056761D01*
X90005714Y-54056761D02*
X89967618Y-53904380D01*
X89967618Y-53904380D02*
X89891428Y-53828190D01*
X89891428Y-53828190D02*
X89815237Y-53790095D01*
X89129523Y-53790095D02*
X89129523Y-54437714D01*
X89129523Y-54437714D02*
X89091428Y-54513904D01*
X89091428Y-54513904D02*
X89053333Y-54552000D01*
X89053333Y-54552000D02*
X88977142Y-54590095D01*
X88977142Y-54590095D02*
X88824761Y-54590095D01*
X88824761Y-54590095D02*
X88748571Y-54552000D01*
X88748571Y-54552000D02*
X88710476Y-54513904D01*
X88710476Y-54513904D02*
X88672380Y-54437714D01*
X88672380Y-54437714D02*
X88672380Y-53790095D01*
X87834285Y-54590095D02*
X88100952Y-54209142D01*
X88291428Y-54590095D02*
X88291428Y-53790095D01*
X88291428Y-53790095D02*
X87986666Y-53790095D01*
X87986666Y-53790095D02*
X87910476Y-53828190D01*
X87910476Y-53828190D02*
X87872381Y-53866285D01*
X87872381Y-53866285D02*
X87834285Y-53942476D01*
X87834285Y-53942476D02*
X87834285Y-54056761D01*
X87834285Y-54056761D02*
X87872381Y-54132952D01*
X87872381Y-54132952D02*
X87910476Y-54171047D01*
X87910476Y-54171047D02*
X87986666Y-54209142D01*
X87986666Y-54209142D02*
X88291428Y-54209142D01*
X87034285Y-54513904D02*
X87072381Y-54552000D01*
X87072381Y-54552000D02*
X87186666Y-54590095D01*
X87186666Y-54590095D02*
X87262857Y-54590095D01*
X87262857Y-54590095D02*
X87377143Y-54552000D01*
X87377143Y-54552000D02*
X87453333Y-54475809D01*
X87453333Y-54475809D02*
X87491428Y-54399619D01*
X87491428Y-54399619D02*
X87529524Y-54247238D01*
X87529524Y-54247238D02*
X87529524Y-54132952D01*
X87529524Y-54132952D02*
X87491428Y-53980571D01*
X87491428Y-53980571D02*
X87453333Y-53904380D01*
X87453333Y-53904380D02*
X87377143Y-53828190D01*
X87377143Y-53828190D02*
X87262857Y-53790095D01*
X87262857Y-53790095D02*
X87186666Y-53790095D01*
X87186666Y-53790095D02*
X87072381Y-53828190D01*
X87072381Y-53828190D02*
X87034285Y-53866285D01*
X86691428Y-54171047D02*
X86424762Y-54171047D01*
X86310476Y-54590095D02*
X86691428Y-54590095D01*
X86691428Y-54590095D02*
X86691428Y-53790095D01*
X86691428Y-53790095D02*
X86310476Y-53790095D01*
X90729523Y-55886095D02*
X90729523Y-55086095D01*
X90729523Y-55086095D02*
X90424761Y-55086095D01*
X90424761Y-55086095D02*
X90348571Y-55124190D01*
X90348571Y-55124190D02*
X90310476Y-55162285D01*
X90310476Y-55162285D02*
X90272380Y-55238476D01*
X90272380Y-55238476D02*
X90272380Y-55352761D01*
X90272380Y-55352761D02*
X90310476Y-55428952D01*
X90310476Y-55428952D02*
X90348571Y-55467047D01*
X90348571Y-55467047D02*
X90424761Y-55505142D01*
X90424761Y-55505142D02*
X90729523Y-55505142D01*
X89472380Y-55809904D02*
X89510476Y-55848000D01*
X89510476Y-55848000D02*
X89624761Y-55886095D01*
X89624761Y-55886095D02*
X89700952Y-55886095D01*
X89700952Y-55886095D02*
X89815238Y-55848000D01*
X89815238Y-55848000D02*
X89891428Y-55771809D01*
X89891428Y-55771809D02*
X89929523Y-55695619D01*
X89929523Y-55695619D02*
X89967619Y-55543238D01*
X89967619Y-55543238D02*
X89967619Y-55428952D01*
X89967619Y-55428952D02*
X89929523Y-55276571D01*
X89929523Y-55276571D02*
X89891428Y-55200380D01*
X89891428Y-55200380D02*
X89815238Y-55124190D01*
X89815238Y-55124190D02*
X89700952Y-55086095D01*
X89700952Y-55086095D02*
X89624761Y-55086095D01*
X89624761Y-55086095D02*
X89510476Y-55124190D01*
X89510476Y-55124190D02*
X89472380Y-55162285D01*
X88862857Y-55467047D02*
X88748571Y-55505142D01*
X88748571Y-55505142D02*
X88710476Y-55543238D01*
X88710476Y-55543238D02*
X88672380Y-55619428D01*
X88672380Y-55619428D02*
X88672380Y-55733714D01*
X88672380Y-55733714D02*
X88710476Y-55809904D01*
X88710476Y-55809904D02*
X88748571Y-55848000D01*
X88748571Y-55848000D02*
X88824761Y-55886095D01*
X88824761Y-55886095D02*
X89129523Y-55886095D01*
X89129523Y-55886095D02*
X89129523Y-55086095D01*
X89129523Y-55086095D02*
X88862857Y-55086095D01*
X88862857Y-55086095D02*
X88786666Y-55124190D01*
X88786666Y-55124190D02*
X88748571Y-55162285D01*
X88748571Y-55162285D02*
X88710476Y-55238476D01*
X88710476Y-55238476D02*
X88710476Y-55314666D01*
X88710476Y-55314666D02*
X88748571Y-55390857D01*
X88748571Y-55390857D02*
X88786666Y-55428952D01*
X88786666Y-55428952D02*
X88862857Y-55467047D01*
X88862857Y-55467047D02*
X89129523Y-55467047D01*
X83683332Y-37890095D02*
X83949999Y-37509142D01*
X84140475Y-37890095D02*
X84140475Y-37090095D01*
X84140475Y-37090095D02*
X83835713Y-37090095D01*
X83835713Y-37090095D02*
X83759523Y-37128190D01*
X83759523Y-37128190D02*
X83721428Y-37166285D01*
X83721428Y-37166285D02*
X83683332Y-37242476D01*
X83683332Y-37242476D02*
X83683332Y-37356761D01*
X83683332Y-37356761D02*
X83721428Y-37432952D01*
X83721428Y-37432952D02*
X83759523Y-37471047D01*
X83759523Y-37471047D02*
X83835713Y-37509142D01*
X83835713Y-37509142D02*
X84140475Y-37509142D01*
X83378571Y-37852000D02*
X83264285Y-37890095D01*
X83264285Y-37890095D02*
X83073809Y-37890095D01*
X83073809Y-37890095D02*
X82997618Y-37852000D01*
X82997618Y-37852000D02*
X82959523Y-37813904D01*
X82959523Y-37813904D02*
X82921428Y-37737714D01*
X82921428Y-37737714D02*
X82921428Y-37661523D01*
X82921428Y-37661523D02*
X82959523Y-37585333D01*
X82959523Y-37585333D02*
X82997618Y-37547238D01*
X82997618Y-37547238D02*
X83073809Y-37509142D01*
X83073809Y-37509142D02*
X83226190Y-37471047D01*
X83226190Y-37471047D02*
X83302380Y-37432952D01*
X83302380Y-37432952D02*
X83340475Y-37394857D01*
X83340475Y-37394857D02*
X83378571Y-37318666D01*
X83378571Y-37318666D02*
X83378571Y-37242476D01*
X83378571Y-37242476D02*
X83340475Y-37166285D01*
X83340475Y-37166285D02*
X83302380Y-37128190D01*
X83302380Y-37128190D02*
X83226190Y-37090095D01*
X83226190Y-37090095D02*
X83035713Y-37090095D01*
X83035713Y-37090095D02*
X82921428Y-37128190D01*
X82692856Y-37090095D02*
X82235713Y-37090095D01*
X82464285Y-37890095D02*
X82464285Y-37090095D01*
X81969046Y-37585333D02*
X81359523Y-37585333D01*
X81511903Y-37737714D02*
X81359523Y-37585333D01*
X81359523Y-37585333D02*
X81511903Y-37432952D01*
D12*
X109098095Y-34762619D02*
X109669523Y-34762619D01*
X109383809Y-34762619D02*
X109383809Y-33762619D01*
X109383809Y-33762619D02*
X109479047Y-33905476D01*
X109479047Y-33905476D02*
X109574285Y-34000714D01*
X109574285Y-34000714D02*
X109669523Y-34048333D01*
X108717142Y-33857857D02*
X108669523Y-33810238D01*
X108669523Y-33810238D02*
X108574285Y-33762619D01*
X108574285Y-33762619D02*
X108336190Y-33762619D01*
X108336190Y-33762619D02*
X108240952Y-33810238D01*
X108240952Y-33810238D02*
X108193333Y-33857857D01*
X108193333Y-33857857D02*
X108145714Y-33953095D01*
X108145714Y-33953095D02*
X108145714Y-34048333D01*
X108145714Y-34048333D02*
X108193333Y-34191190D01*
X108193333Y-34191190D02*
X108764761Y-34762619D01*
X108764761Y-34762619D02*
X108145714Y-34762619D01*
X107574285Y-34191190D02*
X107669523Y-34143571D01*
X107669523Y-34143571D02*
X107717142Y-34095952D01*
X107717142Y-34095952D02*
X107764761Y-34000714D01*
X107764761Y-34000714D02*
X107764761Y-33953095D01*
X107764761Y-33953095D02*
X107717142Y-33857857D01*
X107717142Y-33857857D02*
X107669523Y-33810238D01*
X107669523Y-33810238D02*
X107574285Y-33762619D01*
X107574285Y-33762619D02*
X107383809Y-33762619D01*
X107383809Y-33762619D02*
X107288571Y-33810238D01*
X107288571Y-33810238D02*
X107240952Y-33857857D01*
X107240952Y-33857857D02*
X107193333Y-33953095D01*
X107193333Y-33953095D02*
X107193333Y-34000714D01*
X107193333Y-34000714D02*
X107240952Y-34095952D01*
X107240952Y-34095952D02*
X107288571Y-34143571D01*
X107288571Y-34143571D02*
X107383809Y-34191190D01*
X107383809Y-34191190D02*
X107574285Y-34191190D01*
X107574285Y-34191190D02*
X107669523Y-34238809D01*
X107669523Y-34238809D02*
X107717142Y-34286428D01*
X107717142Y-34286428D02*
X107764761Y-34381666D01*
X107764761Y-34381666D02*
X107764761Y-34572142D01*
X107764761Y-34572142D02*
X107717142Y-34667380D01*
X107717142Y-34667380D02*
X107669523Y-34715000D01*
X107669523Y-34715000D02*
X107574285Y-34762619D01*
X107574285Y-34762619D02*
X107383809Y-34762619D01*
X107383809Y-34762619D02*
X107288571Y-34715000D01*
X107288571Y-34715000D02*
X107240952Y-34667380D01*
X107240952Y-34667380D02*
X107193333Y-34572142D01*
X107193333Y-34572142D02*
X107193333Y-34381666D01*
X107193333Y-34381666D02*
X107240952Y-34286428D01*
X107240952Y-34286428D02*
X107288571Y-34238809D01*
X107288571Y-34238809D02*
X107383809Y-34191190D01*
X106859999Y-34762619D02*
X106336190Y-34095952D01*
X106859999Y-34095952D02*
X106336190Y-34762619D01*
X105431428Y-34762619D02*
X106002856Y-34762619D01*
X105717142Y-34762619D02*
X105717142Y-33762619D01*
X105717142Y-33762619D02*
X105812380Y-33905476D01*
X105812380Y-33905476D02*
X105907618Y-34000714D01*
X105907618Y-34000714D02*
X106002856Y-34048333D01*
X105050475Y-33857857D02*
X105002856Y-33810238D01*
X105002856Y-33810238D02*
X104907618Y-33762619D01*
X104907618Y-33762619D02*
X104669523Y-33762619D01*
X104669523Y-33762619D02*
X104574285Y-33810238D01*
X104574285Y-33810238D02*
X104526666Y-33857857D01*
X104526666Y-33857857D02*
X104479047Y-33953095D01*
X104479047Y-33953095D02*
X104479047Y-34048333D01*
X104479047Y-34048333D02*
X104526666Y-34191190D01*
X104526666Y-34191190D02*
X105098094Y-34762619D01*
X105098094Y-34762619D02*
X104479047Y-34762619D01*
X103907618Y-34191190D02*
X104002856Y-34143571D01*
X104002856Y-34143571D02*
X104050475Y-34095952D01*
X104050475Y-34095952D02*
X104098094Y-34000714D01*
X104098094Y-34000714D02*
X104098094Y-33953095D01*
X104098094Y-33953095D02*
X104050475Y-33857857D01*
X104050475Y-33857857D02*
X104002856Y-33810238D01*
X104002856Y-33810238D02*
X103907618Y-33762619D01*
X103907618Y-33762619D02*
X103717142Y-33762619D01*
X103717142Y-33762619D02*
X103621904Y-33810238D01*
X103621904Y-33810238D02*
X103574285Y-33857857D01*
X103574285Y-33857857D02*
X103526666Y-33953095D01*
X103526666Y-33953095D02*
X103526666Y-34000714D01*
X103526666Y-34000714D02*
X103574285Y-34095952D01*
X103574285Y-34095952D02*
X103621904Y-34143571D01*
X103621904Y-34143571D02*
X103717142Y-34191190D01*
X103717142Y-34191190D02*
X103907618Y-34191190D01*
X103907618Y-34191190D02*
X104002856Y-34238809D01*
X104002856Y-34238809D02*
X104050475Y-34286428D01*
X104050475Y-34286428D02*
X104098094Y-34381666D01*
X104098094Y-34381666D02*
X104098094Y-34572142D01*
X104098094Y-34572142D02*
X104050475Y-34667380D01*
X104050475Y-34667380D02*
X104002856Y-34715000D01*
X104002856Y-34715000D02*
X103907618Y-34762619D01*
X103907618Y-34762619D02*
X103717142Y-34762619D01*
X103717142Y-34762619D02*
X103621904Y-34715000D01*
X103621904Y-34715000D02*
X103574285Y-34667380D01*
X103574285Y-34667380D02*
X103526666Y-34572142D01*
X103526666Y-34572142D02*
X103526666Y-34381666D01*
X103526666Y-34381666D02*
X103574285Y-34286428D01*
X103574285Y-34286428D02*
X103621904Y-34238809D01*
X103621904Y-34238809D02*
X103717142Y-34191190D01*
X109621904Y-38002619D02*
X109621904Y-37002619D01*
X109621904Y-37002619D02*
X109383809Y-37002619D01*
X109383809Y-37002619D02*
X109240952Y-37050238D01*
X109240952Y-37050238D02*
X109145714Y-37145476D01*
X109145714Y-37145476D02*
X109098095Y-37240714D01*
X109098095Y-37240714D02*
X109050476Y-37431190D01*
X109050476Y-37431190D02*
X109050476Y-37574047D01*
X109050476Y-37574047D02*
X109098095Y-37764523D01*
X109098095Y-37764523D02*
X109145714Y-37859761D01*
X109145714Y-37859761D02*
X109240952Y-37955000D01*
X109240952Y-37955000D02*
X109383809Y-38002619D01*
X109383809Y-38002619D02*
X109621904Y-38002619D01*
X108669523Y-37955000D02*
X108526666Y-38002619D01*
X108526666Y-38002619D02*
X108288571Y-38002619D01*
X108288571Y-38002619D02*
X108193333Y-37955000D01*
X108193333Y-37955000D02*
X108145714Y-37907380D01*
X108145714Y-37907380D02*
X108098095Y-37812142D01*
X108098095Y-37812142D02*
X108098095Y-37716904D01*
X108098095Y-37716904D02*
X108145714Y-37621666D01*
X108145714Y-37621666D02*
X108193333Y-37574047D01*
X108193333Y-37574047D02*
X108288571Y-37526428D01*
X108288571Y-37526428D02*
X108479047Y-37478809D01*
X108479047Y-37478809D02*
X108574285Y-37431190D01*
X108574285Y-37431190D02*
X108621904Y-37383571D01*
X108621904Y-37383571D02*
X108669523Y-37288333D01*
X108669523Y-37288333D02*
X108669523Y-37193095D01*
X108669523Y-37193095D02*
X108621904Y-37097857D01*
X108621904Y-37097857D02*
X108574285Y-37050238D01*
X108574285Y-37050238D02*
X108479047Y-37002619D01*
X108479047Y-37002619D02*
X108240952Y-37002619D01*
X108240952Y-37002619D02*
X108098095Y-37050238D01*
X107764761Y-37002619D02*
X107145714Y-37002619D01*
X107145714Y-37002619D02*
X107479047Y-37383571D01*
X107479047Y-37383571D02*
X107336190Y-37383571D01*
X107336190Y-37383571D02*
X107240952Y-37431190D01*
X107240952Y-37431190D02*
X107193333Y-37478809D01*
X107193333Y-37478809D02*
X107145714Y-37574047D01*
X107145714Y-37574047D02*
X107145714Y-37812142D01*
X107145714Y-37812142D02*
X107193333Y-37907380D01*
X107193333Y-37907380D02*
X107240952Y-37955000D01*
X107240952Y-37955000D02*
X107336190Y-38002619D01*
X107336190Y-38002619D02*
X107621904Y-38002619D01*
X107621904Y-38002619D02*
X107717142Y-37955000D01*
X107717142Y-37955000D02*
X107764761Y-37907380D01*
X106764761Y-37097857D02*
X106717142Y-37050238D01*
X106717142Y-37050238D02*
X106621904Y-37002619D01*
X106621904Y-37002619D02*
X106383809Y-37002619D01*
X106383809Y-37002619D02*
X106288571Y-37050238D01*
X106288571Y-37050238D02*
X106240952Y-37097857D01*
X106240952Y-37097857D02*
X106193333Y-37193095D01*
X106193333Y-37193095D02*
X106193333Y-37288333D01*
X106193333Y-37288333D02*
X106240952Y-37431190D01*
X106240952Y-37431190D02*
X106812380Y-38002619D01*
X106812380Y-38002619D02*
X106193333Y-38002619D01*
X105859999Y-37002619D02*
X105240952Y-37002619D01*
X105240952Y-37002619D02*
X105574285Y-37383571D01*
X105574285Y-37383571D02*
X105431428Y-37383571D01*
X105431428Y-37383571D02*
X105336190Y-37431190D01*
X105336190Y-37431190D02*
X105288571Y-37478809D01*
X105288571Y-37478809D02*
X105240952Y-37574047D01*
X105240952Y-37574047D02*
X105240952Y-37812142D01*
X105240952Y-37812142D02*
X105288571Y-37907380D01*
X105288571Y-37907380D02*
X105336190Y-37955000D01*
X105336190Y-37955000D02*
X105431428Y-38002619D01*
X105431428Y-38002619D02*
X105717142Y-38002619D01*
X105717142Y-38002619D02*
X105812380Y-37955000D01*
X105812380Y-37955000D02*
X105859999Y-37907380D01*
X104288571Y-38002619D02*
X104859999Y-38002619D01*
X104574285Y-38002619D02*
X104574285Y-37002619D01*
X104574285Y-37002619D02*
X104669523Y-37145476D01*
X104669523Y-37145476D02*
X104764761Y-37240714D01*
X104764761Y-37240714D02*
X104859999Y-37288333D01*
X102526666Y-38002619D02*
X102859999Y-37526428D01*
X103098094Y-38002619D02*
X103098094Y-37002619D01*
X103098094Y-37002619D02*
X102717142Y-37002619D01*
X102717142Y-37002619D02*
X102621904Y-37050238D01*
X102621904Y-37050238D02*
X102574285Y-37097857D01*
X102574285Y-37097857D02*
X102526666Y-37193095D01*
X102526666Y-37193095D02*
X102526666Y-37335952D01*
X102526666Y-37335952D02*
X102574285Y-37431190D01*
X102574285Y-37431190D02*
X102621904Y-37478809D01*
X102621904Y-37478809D02*
X102717142Y-37526428D01*
X102717142Y-37526428D02*
X103098094Y-37526428D01*
X102240951Y-37002619D02*
X101669523Y-37002619D01*
X101955237Y-38002619D02*
X101955237Y-37002619D01*
X100764761Y-37907380D02*
X100812380Y-37955000D01*
X100812380Y-37955000D02*
X100955237Y-38002619D01*
X100955237Y-38002619D02*
X101050475Y-38002619D01*
X101050475Y-38002619D02*
X101193332Y-37955000D01*
X101193332Y-37955000D02*
X101288570Y-37859761D01*
X101288570Y-37859761D02*
X101336189Y-37764523D01*
X101336189Y-37764523D02*
X101383808Y-37574047D01*
X101383808Y-37574047D02*
X101383808Y-37431190D01*
X101383808Y-37431190D02*
X101336189Y-37240714D01*
X101336189Y-37240714D02*
X101288570Y-37145476D01*
X101288570Y-37145476D02*
X101193332Y-37050238D01*
X101193332Y-37050238D02*
X101050475Y-37002619D01*
X101050475Y-37002619D02*
X100955237Y-37002619D01*
X100955237Y-37002619D02*
X100812380Y-37050238D01*
X100812380Y-37050238D02*
X100764761Y-37097857D01*
X100336189Y-37907380D02*
X100288570Y-37955000D01*
X100288570Y-37955000D02*
X100336189Y-38002619D01*
X100336189Y-38002619D02*
X100383808Y-37955000D01*
X100383808Y-37955000D02*
X100336189Y-37907380D01*
X100336189Y-37907380D02*
X100336189Y-38002619D01*
X99098094Y-38002619D02*
X99098094Y-37002619D01*
X98669523Y-37097857D02*
X98621904Y-37050238D01*
X98621904Y-37050238D02*
X98526666Y-37002619D01*
X98526666Y-37002619D02*
X98288571Y-37002619D01*
X98288571Y-37002619D02*
X98193333Y-37050238D01*
X98193333Y-37050238D02*
X98145714Y-37097857D01*
X98145714Y-37097857D02*
X98098095Y-37193095D01*
X98098095Y-37193095D02*
X98098095Y-37288333D01*
X98098095Y-37288333D02*
X98145714Y-37431190D01*
X98145714Y-37431190D02*
X98717142Y-38002619D01*
X98717142Y-38002619D02*
X98098095Y-38002619D01*
X97098095Y-37907380D02*
X97145714Y-37955000D01*
X97145714Y-37955000D02*
X97288571Y-38002619D01*
X97288571Y-38002619D02*
X97383809Y-38002619D01*
X97383809Y-38002619D02*
X97526666Y-37955000D01*
X97526666Y-37955000D02*
X97621904Y-37859761D01*
X97621904Y-37859761D02*
X97669523Y-37764523D01*
X97669523Y-37764523D02*
X97717142Y-37574047D01*
X97717142Y-37574047D02*
X97717142Y-37431190D01*
X97717142Y-37431190D02*
X97669523Y-37240714D01*
X97669523Y-37240714D02*
X97621904Y-37145476D01*
X97621904Y-37145476D02*
X97526666Y-37050238D01*
X97526666Y-37050238D02*
X97383809Y-37002619D01*
X97383809Y-37002619D02*
X97288571Y-37002619D01*
X97288571Y-37002619D02*
X97145714Y-37050238D01*
X97145714Y-37050238D02*
X97098095Y-37097857D01*
X95383809Y-37050238D02*
X95479047Y-37002619D01*
X95479047Y-37002619D02*
X95621904Y-37002619D01*
X95621904Y-37002619D02*
X95764761Y-37050238D01*
X95764761Y-37050238D02*
X95859999Y-37145476D01*
X95859999Y-37145476D02*
X95907618Y-37240714D01*
X95907618Y-37240714D02*
X95955237Y-37431190D01*
X95955237Y-37431190D02*
X95955237Y-37574047D01*
X95955237Y-37574047D02*
X95907618Y-37764523D01*
X95907618Y-37764523D02*
X95859999Y-37859761D01*
X95859999Y-37859761D02*
X95764761Y-37955000D01*
X95764761Y-37955000D02*
X95621904Y-38002619D01*
X95621904Y-38002619D02*
X95526666Y-38002619D01*
X95526666Y-38002619D02*
X95383809Y-37955000D01*
X95383809Y-37955000D02*
X95336190Y-37907380D01*
X95336190Y-37907380D02*
X95336190Y-37574047D01*
X95336190Y-37574047D02*
X95526666Y-37574047D01*
X94907618Y-38002619D02*
X94907618Y-37002619D01*
X94907618Y-37002619D02*
X94526666Y-37002619D01*
X94526666Y-37002619D02*
X94431428Y-37050238D01*
X94431428Y-37050238D02*
X94383809Y-37097857D01*
X94383809Y-37097857D02*
X94336190Y-37193095D01*
X94336190Y-37193095D02*
X94336190Y-37335952D01*
X94336190Y-37335952D02*
X94383809Y-37431190D01*
X94383809Y-37431190D02*
X94431428Y-37478809D01*
X94431428Y-37478809D02*
X94526666Y-37526428D01*
X94526666Y-37526428D02*
X94907618Y-37526428D01*
X93907618Y-38002619D02*
X93907618Y-37002619D01*
X93240952Y-37002619D02*
X93050476Y-37002619D01*
X93050476Y-37002619D02*
X92955238Y-37050238D01*
X92955238Y-37050238D02*
X92860000Y-37145476D01*
X92860000Y-37145476D02*
X92812381Y-37335952D01*
X92812381Y-37335952D02*
X92812381Y-37669285D01*
X92812381Y-37669285D02*
X92860000Y-37859761D01*
X92860000Y-37859761D02*
X92955238Y-37955000D01*
X92955238Y-37955000D02*
X93050476Y-38002619D01*
X93050476Y-38002619D02*
X93240952Y-38002619D01*
X93240952Y-38002619D02*
X93336190Y-37955000D01*
X93336190Y-37955000D02*
X93431428Y-37859761D01*
X93431428Y-37859761D02*
X93479047Y-37669285D01*
X93479047Y-37669285D02*
X93479047Y-37335952D01*
X93479047Y-37335952D02*
X93431428Y-37145476D01*
X93431428Y-37145476D02*
X93336190Y-37050238D01*
X93336190Y-37050238D02*
X93240952Y-37002619D01*
X92431428Y-37955000D02*
X92336190Y-38002619D01*
X92336190Y-38002619D02*
X92145714Y-38002619D01*
X92145714Y-38002619D02*
X92050476Y-37955000D01*
X92050476Y-37955000D02*
X92002857Y-37859761D01*
X92002857Y-37859761D02*
X92002857Y-37812142D01*
X92002857Y-37812142D02*
X92050476Y-37716904D01*
X92050476Y-37716904D02*
X92145714Y-37669285D01*
X92145714Y-37669285D02*
X92288571Y-37669285D01*
X92288571Y-37669285D02*
X92383809Y-37621666D01*
X92383809Y-37621666D02*
X92431428Y-37526428D01*
X92431428Y-37526428D02*
X92431428Y-37478809D01*
X92431428Y-37478809D02*
X92383809Y-37383571D01*
X92383809Y-37383571D02*
X92288571Y-37335952D01*
X92288571Y-37335952D02*
X92145714Y-37335952D01*
X92145714Y-37335952D02*
X92050476Y-37383571D01*
X91574285Y-37907380D02*
X91526666Y-37955000D01*
X91526666Y-37955000D02*
X91574285Y-38002619D01*
X91574285Y-38002619D02*
X91621904Y-37955000D01*
X91621904Y-37955000D02*
X91574285Y-37907380D01*
X91574285Y-37907380D02*
X91574285Y-38002619D01*
X91574285Y-37383571D02*
X91526666Y-37431190D01*
X91526666Y-37431190D02*
X91574285Y-37478809D01*
X91574285Y-37478809D02*
X91621904Y-37431190D01*
X91621904Y-37431190D02*
X91574285Y-37383571D01*
X91574285Y-37383571D02*
X91574285Y-37478809D01*
X109669523Y-39575000D02*
X109526666Y-39622619D01*
X109526666Y-39622619D02*
X109288571Y-39622619D01*
X109288571Y-39622619D02*
X109193333Y-39575000D01*
X109193333Y-39575000D02*
X109145714Y-39527380D01*
X109145714Y-39527380D02*
X109098095Y-39432142D01*
X109098095Y-39432142D02*
X109098095Y-39336904D01*
X109098095Y-39336904D02*
X109145714Y-39241666D01*
X109145714Y-39241666D02*
X109193333Y-39194047D01*
X109193333Y-39194047D02*
X109288571Y-39146428D01*
X109288571Y-39146428D02*
X109479047Y-39098809D01*
X109479047Y-39098809D02*
X109574285Y-39051190D01*
X109574285Y-39051190D02*
X109621904Y-39003571D01*
X109621904Y-39003571D02*
X109669523Y-38908333D01*
X109669523Y-38908333D02*
X109669523Y-38813095D01*
X109669523Y-38813095D02*
X109621904Y-38717857D01*
X109621904Y-38717857D02*
X109574285Y-38670238D01*
X109574285Y-38670238D02*
X109479047Y-38622619D01*
X109479047Y-38622619D02*
X109240952Y-38622619D01*
X109240952Y-38622619D02*
X109098095Y-38670238D01*
X108669523Y-39622619D02*
X108669523Y-38622619D01*
X108669523Y-38622619D02*
X108431428Y-38622619D01*
X108431428Y-38622619D02*
X108288571Y-38670238D01*
X108288571Y-38670238D02*
X108193333Y-38765476D01*
X108193333Y-38765476D02*
X108145714Y-38860714D01*
X108145714Y-38860714D02*
X108098095Y-39051190D01*
X108098095Y-39051190D02*
X108098095Y-39194047D01*
X108098095Y-39194047D02*
X108145714Y-39384523D01*
X108145714Y-39384523D02*
X108193333Y-39479761D01*
X108193333Y-39479761D02*
X108288571Y-39575000D01*
X108288571Y-39575000D02*
X108431428Y-39622619D01*
X108431428Y-39622619D02*
X108669523Y-39622619D01*
X107717142Y-39336904D02*
X107240952Y-39336904D01*
X107812380Y-39622619D02*
X107479047Y-38622619D01*
X107479047Y-38622619D02*
X107145714Y-39622619D01*
X106812380Y-39098809D02*
X106050476Y-39098809D01*
X106050476Y-39384523D02*
X106812380Y-39384523D01*
X105098095Y-38622619D02*
X105574285Y-38622619D01*
X105574285Y-38622619D02*
X105621904Y-39098809D01*
X105621904Y-39098809D02*
X105574285Y-39051190D01*
X105574285Y-39051190D02*
X105479047Y-39003571D01*
X105479047Y-39003571D02*
X105240952Y-39003571D01*
X105240952Y-39003571D02*
X105145714Y-39051190D01*
X105145714Y-39051190D02*
X105098095Y-39098809D01*
X105098095Y-39098809D02*
X105050476Y-39194047D01*
X105050476Y-39194047D02*
X105050476Y-39432142D01*
X105050476Y-39432142D02*
X105098095Y-39527380D01*
X105098095Y-39527380D02*
X105145714Y-39575000D01*
X105145714Y-39575000D02*
X105240952Y-39622619D01*
X105240952Y-39622619D02*
X105479047Y-39622619D01*
X105479047Y-39622619D02*
X105574285Y-39575000D01*
X105574285Y-39575000D02*
X105621904Y-39527380D01*
X103907618Y-39575000D02*
X103764761Y-39622619D01*
X103764761Y-39622619D02*
X103526666Y-39622619D01*
X103526666Y-39622619D02*
X103431428Y-39575000D01*
X103431428Y-39575000D02*
X103383809Y-39527380D01*
X103383809Y-39527380D02*
X103336190Y-39432142D01*
X103336190Y-39432142D02*
X103336190Y-39336904D01*
X103336190Y-39336904D02*
X103383809Y-39241666D01*
X103383809Y-39241666D02*
X103431428Y-39194047D01*
X103431428Y-39194047D02*
X103526666Y-39146428D01*
X103526666Y-39146428D02*
X103717142Y-39098809D01*
X103717142Y-39098809D02*
X103812380Y-39051190D01*
X103812380Y-39051190D02*
X103859999Y-39003571D01*
X103859999Y-39003571D02*
X103907618Y-38908333D01*
X103907618Y-38908333D02*
X103907618Y-38813095D01*
X103907618Y-38813095D02*
X103859999Y-38717857D01*
X103859999Y-38717857D02*
X103812380Y-38670238D01*
X103812380Y-38670238D02*
X103717142Y-38622619D01*
X103717142Y-38622619D02*
X103479047Y-38622619D01*
X103479047Y-38622619D02*
X103336190Y-38670238D01*
X102336190Y-39527380D02*
X102383809Y-39575000D01*
X102383809Y-39575000D02*
X102526666Y-39622619D01*
X102526666Y-39622619D02*
X102621904Y-39622619D01*
X102621904Y-39622619D02*
X102764761Y-39575000D01*
X102764761Y-39575000D02*
X102859999Y-39479761D01*
X102859999Y-39479761D02*
X102907618Y-39384523D01*
X102907618Y-39384523D02*
X102955237Y-39194047D01*
X102955237Y-39194047D02*
X102955237Y-39051190D01*
X102955237Y-39051190D02*
X102907618Y-38860714D01*
X102907618Y-38860714D02*
X102859999Y-38765476D01*
X102859999Y-38765476D02*
X102764761Y-38670238D01*
X102764761Y-38670238D02*
X102621904Y-38622619D01*
X102621904Y-38622619D02*
X102526666Y-38622619D01*
X102526666Y-38622619D02*
X102383809Y-38670238D01*
X102383809Y-38670238D02*
X102336190Y-38717857D01*
X101431428Y-39622619D02*
X101907618Y-39622619D01*
X101907618Y-39622619D02*
X101907618Y-38622619D01*
X101098094Y-39098809D02*
X100336190Y-39098809D01*
X100336190Y-39384523D02*
X101098094Y-39384523D01*
X99431428Y-38955952D02*
X99431428Y-39622619D01*
X99669523Y-38575000D02*
X99907618Y-39289285D01*
X99907618Y-39289285D02*
X99288571Y-39289285D01*
X109764761Y-40242619D02*
X109193333Y-40242619D01*
X109479047Y-41242619D02*
X109479047Y-40242619D01*
X108669523Y-40242619D02*
X108479047Y-40242619D01*
X108479047Y-40242619D02*
X108383809Y-40290238D01*
X108383809Y-40290238D02*
X108288571Y-40385476D01*
X108288571Y-40385476D02*
X108240952Y-40575952D01*
X108240952Y-40575952D02*
X108240952Y-40909285D01*
X108240952Y-40909285D02*
X108288571Y-41099761D01*
X108288571Y-41099761D02*
X108383809Y-41195000D01*
X108383809Y-41195000D02*
X108479047Y-41242619D01*
X108479047Y-41242619D02*
X108669523Y-41242619D01*
X108669523Y-41242619D02*
X108764761Y-41195000D01*
X108764761Y-41195000D02*
X108859999Y-41099761D01*
X108859999Y-41099761D02*
X108907618Y-40909285D01*
X108907618Y-40909285D02*
X108907618Y-40575952D01*
X108907618Y-40575952D02*
X108859999Y-40385476D01*
X108859999Y-40385476D02*
X108764761Y-40290238D01*
X108764761Y-40290238D02*
X108669523Y-40242619D01*
X107812380Y-40242619D02*
X107812380Y-41052142D01*
X107812380Y-41052142D02*
X107764761Y-41147380D01*
X107764761Y-41147380D02*
X107717142Y-41195000D01*
X107717142Y-41195000D02*
X107621904Y-41242619D01*
X107621904Y-41242619D02*
X107431428Y-41242619D01*
X107431428Y-41242619D02*
X107336190Y-41195000D01*
X107336190Y-41195000D02*
X107288571Y-41147380D01*
X107288571Y-41147380D02*
X107240952Y-41052142D01*
X107240952Y-41052142D02*
X107240952Y-40242619D01*
X106193333Y-41147380D02*
X106240952Y-41195000D01*
X106240952Y-41195000D02*
X106383809Y-41242619D01*
X106383809Y-41242619D02*
X106479047Y-41242619D01*
X106479047Y-41242619D02*
X106621904Y-41195000D01*
X106621904Y-41195000D02*
X106717142Y-41099761D01*
X106717142Y-41099761D02*
X106764761Y-41004523D01*
X106764761Y-41004523D02*
X106812380Y-40814047D01*
X106812380Y-40814047D02*
X106812380Y-40671190D01*
X106812380Y-40671190D02*
X106764761Y-40480714D01*
X106764761Y-40480714D02*
X106717142Y-40385476D01*
X106717142Y-40385476D02*
X106621904Y-40290238D01*
X106621904Y-40290238D02*
X106479047Y-40242619D01*
X106479047Y-40242619D02*
X106383809Y-40242619D01*
X106383809Y-40242619D02*
X106240952Y-40290238D01*
X106240952Y-40290238D02*
X106193333Y-40337857D01*
X105764761Y-41242619D02*
X105764761Y-40242619D01*
X105764761Y-40718809D02*
X105193333Y-40718809D01*
X105193333Y-41242619D02*
X105193333Y-40242619D01*
X104955238Y-41337857D02*
X104193333Y-41337857D01*
X103955237Y-41242619D02*
X103955237Y-40242619D01*
X103479047Y-41242619D02*
X103479047Y-40242619D01*
X103479047Y-40242619D02*
X102907619Y-41242619D01*
X102907619Y-41242619D02*
X102907619Y-40242619D01*
X102574285Y-40242619D02*
X102002857Y-40242619D01*
X102288571Y-41242619D02*
X102288571Y-40242619D01*
X101669523Y-40718809D02*
X100907619Y-40718809D01*
X100907619Y-41004523D02*
X101669523Y-41004523D01*
X100288571Y-40671190D02*
X100383809Y-40623571D01*
X100383809Y-40623571D02*
X100431428Y-40575952D01*
X100431428Y-40575952D02*
X100479047Y-40480714D01*
X100479047Y-40480714D02*
X100479047Y-40433095D01*
X100479047Y-40433095D02*
X100431428Y-40337857D01*
X100431428Y-40337857D02*
X100383809Y-40290238D01*
X100383809Y-40290238D02*
X100288571Y-40242619D01*
X100288571Y-40242619D02*
X100098095Y-40242619D01*
X100098095Y-40242619D02*
X100002857Y-40290238D01*
X100002857Y-40290238D02*
X99955238Y-40337857D01*
X99955238Y-40337857D02*
X99907619Y-40433095D01*
X99907619Y-40433095D02*
X99907619Y-40480714D01*
X99907619Y-40480714D02*
X99955238Y-40575952D01*
X99955238Y-40575952D02*
X100002857Y-40623571D01*
X100002857Y-40623571D02*
X100098095Y-40671190D01*
X100098095Y-40671190D02*
X100288571Y-40671190D01*
X100288571Y-40671190D02*
X100383809Y-40718809D01*
X100383809Y-40718809D02*
X100431428Y-40766428D01*
X100431428Y-40766428D02*
X100479047Y-40861666D01*
X100479047Y-40861666D02*
X100479047Y-41052142D01*
X100479047Y-41052142D02*
X100431428Y-41147380D01*
X100431428Y-41147380D02*
X100383809Y-41195000D01*
X100383809Y-41195000D02*
X100288571Y-41242619D01*
X100288571Y-41242619D02*
X100098095Y-41242619D01*
X100098095Y-41242619D02*
X100002857Y-41195000D01*
X100002857Y-41195000D02*
X99955238Y-41147380D01*
X99955238Y-41147380D02*
X99907619Y-41052142D01*
X99907619Y-41052142D02*
X99907619Y-40861666D01*
X99907619Y-40861666D02*
X99955238Y-40766428D01*
X99955238Y-40766428D02*
X100002857Y-40718809D01*
X100002857Y-40718809D02*
X100098095Y-40671190D01*
X109669523Y-42815000D02*
X109526666Y-42862619D01*
X109526666Y-42862619D02*
X109288571Y-42862619D01*
X109288571Y-42862619D02*
X109193333Y-42815000D01*
X109193333Y-42815000D02*
X109145714Y-42767380D01*
X109145714Y-42767380D02*
X109098095Y-42672142D01*
X109098095Y-42672142D02*
X109098095Y-42576904D01*
X109098095Y-42576904D02*
X109145714Y-42481666D01*
X109145714Y-42481666D02*
X109193333Y-42434047D01*
X109193333Y-42434047D02*
X109288571Y-42386428D01*
X109288571Y-42386428D02*
X109479047Y-42338809D01*
X109479047Y-42338809D02*
X109574285Y-42291190D01*
X109574285Y-42291190D02*
X109621904Y-42243571D01*
X109621904Y-42243571D02*
X109669523Y-42148333D01*
X109669523Y-42148333D02*
X109669523Y-42053095D01*
X109669523Y-42053095D02*
X109621904Y-41957857D01*
X109621904Y-41957857D02*
X109574285Y-41910238D01*
X109574285Y-41910238D02*
X109479047Y-41862619D01*
X109479047Y-41862619D02*
X109240952Y-41862619D01*
X109240952Y-41862619D02*
X109098095Y-41910238D01*
X108669523Y-42862619D02*
X108669523Y-41862619D01*
X108669523Y-41862619D02*
X108288571Y-41862619D01*
X108288571Y-41862619D02*
X108193333Y-41910238D01*
X108193333Y-41910238D02*
X108145714Y-41957857D01*
X108145714Y-41957857D02*
X108098095Y-42053095D01*
X108098095Y-42053095D02*
X108098095Y-42195952D01*
X108098095Y-42195952D02*
X108145714Y-42291190D01*
X108145714Y-42291190D02*
X108193333Y-42338809D01*
X108193333Y-42338809D02*
X108288571Y-42386428D01*
X108288571Y-42386428D02*
X108669523Y-42386428D01*
X107669523Y-42862619D02*
X107669523Y-41862619D01*
X105955238Y-42862619D02*
X106431428Y-42862619D01*
X106431428Y-42862619D02*
X106431428Y-41862619D01*
X105050476Y-42767380D02*
X105098095Y-42815000D01*
X105098095Y-42815000D02*
X105240952Y-42862619D01*
X105240952Y-42862619D02*
X105336190Y-42862619D01*
X105336190Y-42862619D02*
X105479047Y-42815000D01*
X105479047Y-42815000D02*
X105574285Y-42719761D01*
X105574285Y-42719761D02*
X105621904Y-42624523D01*
X105621904Y-42624523D02*
X105669523Y-42434047D01*
X105669523Y-42434047D02*
X105669523Y-42291190D01*
X105669523Y-42291190D02*
X105621904Y-42100714D01*
X105621904Y-42100714D02*
X105574285Y-42005476D01*
X105574285Y-42005476D02*
X105479047Y-41910238D01*
X105479047Y-41910238D02*
X105336190Y-41862619D01*
X105336190Y-41862619D02*
X105240952Y-41862619D01*
X105240952Y-41862619D02*
X105098095Y-41910238D01*
X105098095Y-41910238D02*
X105050476Y-41957857D01*
X104621904Y-42862619D02*
X104621904Y-41862619D01*
X104621904Y-41862619D02*
X104383809Y-41862619D01*
X104383809Y-41862619D02*
X104240952Y-41910238D01*
X104240952Y-41910238D02*
X104145714Y-42005476D01*
X104145714Y-42005476D02*
X104098095Y-42100714D01*
X104098095Y-42100714D02*
X104050476Y-42291190D01*
X104050476Y-42291190D02*
X104050476Y-42434047D01*
X104050476Y-42434047D02*
X104098095Y-42624523D01*
X104098095Y-42624523D02*
X104145714Y-42719761D01*
X104145714Y-42719761D02*
X104240952Y-42815000D01*
X104240952Y-42815000D02*
X104383809Y-42862619D01*
X104383809Y-42862619D02*
X104621904Y-42862619D01*
X102336190Y-41910238D02*
X102431428Y-41862619D01*
X102431428Y-41862619D02*
X102574285Y-41862619D01*
X102574285Y-41862619D02*
X102717142Y-41910238D01*
X102717142Y-41910238D02*
X102812380Y-42005476D01*
X102812380Y-42005476D02*
X102859999Y-42100714D01*
X102859999Y-42100714D02*
X102907618Y-42291190D01*
X102907618Y-42291190D02*
X102907618Y-42434047D01*
X102907618Y-42434047D02*
X102859999Y-42624523D01*
X102859999Y-42624523D02*
X102812380Y-42719761D01*
X102812380Y-42719761D02*
X102717142Y-42815000D01*
X102717142Y-42815000D02*
X102574285Y-42862619D01*
X102574285Y-42862619D02*
X102479047Y-42862619D01*
X102479047Y-42862619D02*
X102336190Y-42815000D01*
X102336190Y-42815000D02*
X102288571Y-42767380D01*
X102288571Y-42767380D02*
X102288571Y-42434047D01*
X102288571Y-42434047D02*
X102479047Y-42434047D01*
X101859999Y-42862619D02*
X101859999Y-41862619D01*
X101859999Y-41862619D02*
X101479047Y-41862619D01*
X101479047Y-41862619D02*
X101383809Y-41910238D01*
X101383809Y-41910238D02*
X101336190Y-41957857D01*
X101336190Y-41957857D02*
X101288571Y-42053095D01*
X101288571Y-42053095D02*
X101288571Y-42195952D01*
X101288571Y-42195952D02*
X101336190Y-42291190D01*
X101336190Y-42291190D02*
X101383809Y-42338809D01*
X101383809Y-42338809D02*
X101479047Y-42386428D01*
X101479047Y-42386428D02*
X101859999Y-42386428D01*
X100859999Y-42862619D02*
X100859999Y-41862619D01*
X100193333Y-41862619D02*
X100002857Y-41862619D01*
X100002857Y-41862619D02*
X99907619Y-41910238D01*
X99907619Y-41910238D02*
X99812381Y-42005476D01*
X99812381Y-42005476D02*
X99764762Y-42195952D01*
X99764762Y-42195952D02*
X99764762Y-42529285D01*
X99764762Y-42529285D02*
X99812381Y-42719761D01*
X99812381Y-42719761D02*
X99907619Y-42815000D01*
X99907619Y-42815000D02*
X100002857Y-42862619D01*
X100002857Y-42862619D02*
X100193333Y-42862619D01*
X100193333Y-42862619D02*
X100288571Y-42815000D01*
X100288571Y-42815000D02*
X100383809Y-42719761D01*
X100383809Y-42719761D02*
X100431428Y-42529285D01*
X100431428Y-42529285D02*
X100431428Y-42195952D01*
X100431428Y-42195952D02*
X100383809Y-42005476D01*
X100383809Y-42005476D02*
X100288571Y-41910238D01*
X100288571Y-41910238D02*
X100193333Y-41862619D01*
X99383809Y-42815000D02*
X99288571Y-42862619D01*
X99288571Y-42862619D02*
X99098095Y-42862619D01*
X99098095Y-42862619D02*
X99002857Y-42815000D01*
X99002857Y-42815000D02*
X98955238Y-42719761D01*
X98955238Y-42719761D02*
X98955238Y-42672142D01*
X98955238Y-42672142D02*
X99002857Y-42576904D01*
X99002857Y-42576904D02*
X99098095Y-42529285D01*
X99098095Y-42529285D02*
X99240952Y-42529285D01*
X99240952Y-42529285D02*
X99336190Y-42481666D01*
X99336190Y-42481666D02*
X99383809Y-42386428D01*
X99383809Y-42386428D02*
X99383809Y-42338809D01*
X99383809Y-42338809D02*
X99336190Y-42243571D01*
X99336190Y-42243571D02*
X99240952Y-42195952D01*
X99240952Y-42195952D02*
X99098095Y-42195952D01*
X99098095Y-42195952D02*
X99002857Y-42243571D01*
X98526666Y-42767380D02*
X98479047Y-42815000D01*
X98479047Y-42815000D02*
X98526666Y-42862619D01*
X98526666Y-42862619D02*
X98574285Y-42815000D01*
X98574285Y-42815000D02*
X98526666Y-42767380D01*
X98526666Y-42767380D02*
X98526666Y-42862619D01*
X98526666Y-42243571D02*
X98479047Y-42291190D01*
X98479047Y-42291190D02*
X98526666Y-42338809D01*
X98526666Y-42338809D02*
X98574285Y-42291190D01*
X98574285Y-42291190D02*
X98526666Y-42243571D01*
X98526666Y-42243571D02*
X98526666Y-42338809D01*
X109621904Y-44482619D02*
X109621904Y-43482619D01*
X109621904Y-43482619D02*
X109288571Y-44196904D01*
X109288571Y-44196904D02*
X108955238Y-43482619D01*
X108955238Y-43482619D02*
X108955238Y-44482619D01*
X108288571Y-43482619D02*
X108098095Y-43482619D01*
X108098095Y-43482619D02*
X108002857Y-43530238D01*
X108002857Y-43530238D02*
X107907619Y-43625476D01*
X107907619Y-43625476D02*
X107860000Y-43815952D01*
X107860000Y-43815952D02*
X107860000Y-44149285D01*
X107860000Y-44149285D02*
X107907619Y-44339761D01*
X107907619Y-44339761D02*
X108002857Y-44435000D01*
X108002857Y-44435000D02*
X108098095Y-44482619D01*
X108098095Y-44482619D02*
X108288571Y-44482619D01*
X108288571Y-44482619D02*
X108383809Y-44435000D01*
X108383809Y-44435000D02*
X108479047Y-44339761D01*
X108479047Y-44339761D02*
X108526666Y-44149285D01*
X108526666Y-44149285D02*
X108526666Y-43815952D01*
X108526666Y-43815952D02*
X108479047Y-43625476D01*
X108479047Y-43625476D02*
X108383809Y-43530238D01*
X108383809Y-43530238D02*
X108288571Y-43482619D01*
X107479047Y-44435000D02*
X107336190Y-44482619D01*
X107336190Y-44482619D02*
X107098095Y-44482619D01*
X107098095Y-44482619D02*
X107002857Y-44435000D01*
X107002857Y-44435000D02*
X106955238Y-44387380D01*
X106955238Y-44387380D02*
X106907619Y-44292142D01*
X106907619Y-44292142D02*
X106907619Y-44196904D01*
X106907619Y-44196904D02*
X106955238Y-44101666D01*
X106955238Y-44101666D02*
X107002857Y-44054047D01*
X107002857Y-44054047D02*
X107098095Y-44006428D01*
X107098095Y-44006428D02*
X107288571Y-43958809D01*
X107288571Y-43958809D02*
X107383809Y-43911190D01*
X107383809Y-43911190D02*
X107431428Y-43863571D01*
X107431428Y-43863571D02*
X107479047Y-43768333D01*
X107479047Y-43768333D02*
X107479047Y-43673095D01*
X107479047Y-43673095D02*
X107431428Y-43577857D01*
X107431428Y-43577857D02*
X107383809Y-43530238D01*
X107383809Y-43530238D02*
X107288571Y-43482619D01*
X107288571Y-43482619D02*
X107050476Y-43482619D01*
X107050476Y-43482619D02*
X106907619Y-43530238D01*
X106479047Y-44482619D02*
X106479047Y-43482619D01*
X106002857Y-43958809D02*
X105240953Y-43958809D01*
X105240953Y-44244523D02*
X106002857Y-44244523D01*
X104574286Y-43482619D02*
X104479048Y-43482619D01*
X104479048Y-43482619D02*
X104383810Y-43530238D01*
X104383810Y-43530238D02*
X104336191Y-43577857D01*
X104336191Y-43577857D02*
X104288572Y-43673095D01*
X104288572Y-43673095D02*
X104240953Y-43863571D01*
X104240953Y-43863571D02*
X104240953Y-44101666D01*
X104240953Y-44101666D02*
X104288572Y-44292142D01*
X104288572Y-44292142D02*
X104336191Y-44387380D01*
X104336191Y-44387380D02*
X104383810Y-44435000D01*
X104383810Y-44435000D02*
X104479048Y-44482619D01*
X104479048Y-44482619D02*
X104574286Y-44482619D01*
X104574286Y-44482619D02*
X104669524Y-44435000D01*
X104669524Y-44435000D02*
X104717143Y-44387380D01*
X104717143Y-44387380D02*
X104764762Y-44292142D01*
X104764762Y-44292142D02*
X104812381Y-44101666D01*
X104812381Y-44101666D02*
X104812381Y-43863571D01*
X104812381Y-43863571D02*
X104764762Y-43673095D01*
X104764762Y-43673095D02*
X104717143Y-43577857D01*
X104717143Y-43577857D02*
X104669524Y-43530238D01*
X104669524Y-43530238D02*
X104574286Y-43482619D01*
X102479048Y-44387380D02*
X102526667Y-44435000D01*
X102526667Y-44435000D02*
X102669524Y-44482619D01*
X102669524Y-44482619D02*
X102764762Y-44482619D01*
X102764762Y-44482619D02*
X102907619Y-44435000D01*
X102907619Y-44435000D02*
X103002857Y-44339761D01*
X103002857Y-44339761D02*
X103050476Y-44244523D01*
X103050476Y-44244523D02*
X103098095Y-44054047D01*
X103098095Y-44054047D02*
X103098095Y-43911190D01*
X103098095Y-43911190D02*
X103050476Y-43720714D01*
X103050476Y-43720714D02*
X103002857Y-43625476D01*
X103002857Y-43625476D02*
X102907619Y-43530238D01*
X102907619Y-43530238D02*
X102764762Y-43482619D01*
X102764762Y-43482619D02*
X102669524Y-43482619D01*
X102669524Y-43482619D02*
X102526667Y-43530238D01*
X102526667Y-43530238D02*
X102479048Y-43577857D01*
X101574286Y-44482619D02*
X102050476Y-44482619D01*
X102050476Y-44482619D02*
X102050476Y-43482619D01*
X101240952Y-44482619D02*
X101240952Y-43482619D01*
X100669524Y-44482619D02*
X101098095Y-43911190D01*
X100669524Y-43482619D02*
X101240952Y-44054047D01*
X100240952Y-43958809D02*
X99479048Y-43958809D01*
X99479048Y-44244523D02*
X100240952Y-44244523D01*
X98574286Y-43482619D02*
X98764762Y-43482619D01*
X98764762Y-43482619D02*
X98860000Y-43530238D01*
X98860000Y-43530238D02*
X98907619Y-43577857D01*
X98907619Y-43577857D02*
X99002857Y-43720714D01*
X99002857Y-43720714D02*
X99050476Y-43911190D01*
X99050476Y-43911190D02*
X99050476Y-44292142D01*
X99050476Y-44292142D02*
X99002857Y-44387380D01*
X99002857Y-44387380D02*
X98955238Y-44435000D01*
X98955238Y-44435000D02*
X98860000Y-44482619D01*
X98860000Y-44482619D02*
X98669524Y-44482619D01*
X98669524Y-44482619D02*
X98574286Y-44435000D01*
X98574286Y-44435000D02*
X98526667Y-44387380D01*
X98526667Y-44387380D02*
X98479048Y-44292142D01*
X98479048Y-44292142D02*
X98479048Y-44054047D01*
X98479048Y-44054047D02*
X98526667Y-43958809D01*
X98526667Y-43958809D02*
X98574286Y-43911190D01*
X98574286Y-43911190D02*
X98669524Y-43863571D01*
X98669524Y-43863571D02*
X98860000Y-43863571D01*
X98860000Y-43863571D02*
X98955238Y-43911190D01*
X98955238Y-43911190D02*
X99002857Y-43958809D01*
X99002857Y-43958809D02*
X99050476Y-44054047D01*
X96717143Y-44387380D02*
X96764762Y-44435000D01*
X96764762Y-44435000D02*
X96907619Y-44482619D01*
X96907619Y-44482619D02*
X97002857Y-44482619D01*
X97002857Y-44482619D02*
X97145714Y-44435000D01*
X97145714Y-44435000D02*
X97240952Y-44339761D01*
X97240952Y-44339761D02*
X97288571Y-44244523D01*
X97288571Y-44244523D02*
X97336190Y-44054047D01*
X97336190Y-44054047D02*
X97336190Y-43911190D01*
X97336190Y-43911190D02*
X97288571Y-43720714D01*
X97288571Y-43720714D02*
X97240952Y-43625476D01*
X97240952Y-43625476D02*
X97145714Y-43530238D01*
X97145714Y-43530238D02*
X97002857Y-43482619D01*
X97002857Y-43482619D02*
X96907619Y-43482619D01*
X96907619Y-43482619D02*
X96764762Y-43530238D01*
X96764762Y-43530238D02*
X96717143Y-43577857D01*
X96336190Y-44435000D02*
X96193333Y-44482619D01*
X96193333Y-44482619D02*
X95955238Y-44482619D01*
X95955238Y-44482619D02*
X95860000Y-44435000D01*
X95860000Y-44435000D02*
X95812381Y-44387380D01*
X95812381Y-44387380D02*
X95764762Y-44292142D01*
X95764762Y-44292142D02*
X95764762Y-44196904D01*
X95764762Y-44196904D02*
X95812381Y-44101666D01*
X95812381Y-44101666D02*
X95860000Y-44054047D01*
X95860000Y-44054047D02*
X95955238Y-44006428D01*
X95955238Y-44006428D02*
X96145714Y-43958809D01*
X96145714Y-43958809D02*
X96240952Y-43911190D01*
X96240952Y-43911190D02*
X96288571Y-43863571D01*
X96288571Y-43863571D02*
X96336190Y-43768333D01*
X96336190Y-43768333D02*
X96336190Y-43673095D01*
X96336190Y-43673095D02*
X96288571Y-43577857D01*
X96288571Y-43577857D02*
X96240952Y-43530238D01*
X96240952Y-43530238D02*
X96145714Y-43482619D01*
X96145714Y-43482619D02*
X95907619Y-43482619D01*
X95907619Y-43482619D02*
X95764762Y-43530238D01*
X95336190Y-43958809D02*
X94574286Y-43958809D01*
X94574286Y-44244523D02*
X95336190Y-44244523D01*
X93574286Y-44482619D02*
X94145714Y-44482619D01*
X93860000Y-44482619D02*
X93860000Y-43482619D01*
X93860000Y-43482619D02*
X93955238Y-43625476D01*
X93955238Y-43625476D02*
X94050476Y-43720714D01*
X94050476Y-43720714D02*
X94145714Y-43768333D01*
X93098095Y-44482619D02*
X92907619Y-44482619D01*
X92907619Y-44482619D02*
X92812381Y-44435000D01*
X92812381Y-44435000D02*
X92764762Y-44387380D01*
X92764762Y-44387380D02*
X92669524Y-44244523D01*
X92669524Y-44244523D02*
X92621905Y-44054047D01*
X92621905Y-44054047D02*
X92621905Y-43673095D01*
X92621905Y-43673095D02*
X92669524Y-43577857D01*
X92669524Y-43577857D02*
X92717143Y-43530238D01*
X92717143Y-43530238D02*
X92812381Y-43482619D01*
X92812381Y-43482619D02*
X93002857Y-43482619D01*
X93002857Y-43482619D02*
X93098095Y-43530238D01*
X93098095Y-43530238D02*
X93145714Y-43577857D01*
X93145714Y-43577857D02*
X93193333Y-43673095D01*
X93193333Y-43673095D02*
X93193333Y-43911190D01*
X93193333Y-43911190D02*
X93145714Y-44006428D01*
X93145714Y-44006428D02*
X93098095Y-44054047D01*
X93098095Y-44054047D02*
X93002857Y-44101666D01*
X93002857Y-44101666D02*
X92812381Y-44101666D01*
X92812381Y-44101666D02*
X92717143Y-44054047D01*
X92717143Y-44054047D02*
X92669524Y-44006428D01*
X92669524Y-44006428D02*
X92621905Y-43911190D01*
X91531428Y-54642857D02*
X91531428Y-53690476D01*
X91626666Y-54642857D02*
X91626666Y-53690476D01*
X91721904Y-54547619D02*
X91721904Y-53785714D01*
X91817142Y-54547619D02*
X91817142Y-53785714D01*
X91912380Y-54547619D02*
X91912380Y-53785714D01*
X92007619Y-54452380D02*
X92007619Y-53880952D01*
X92102857Y-54452380D02*
X92102857Y-53880952D01*
X92198095Y-54452380D02*
X92198095Y-53880952D01*
X92293333Y-54357142D02*
X92293333Y-53976190D01*
X92388571Y-54357142D02*
X92388571Y-53976190D01*
X92483809Y-54261904D02*
X92483809Y-54071428D01*
X92579047Y-54261904D02*
X92579047Y-54071428D01*
X92674285Y-54261904D02*
X92674285Y-54071428D01*
X92769523Y-54166666D02*
X92674285Y-54166666D01*
X91436190Y-54642857D02*
X92864761Y-54166666D01*
X92864761Y-54166666D02*
X91436190Y-53690476D01*
X92960000Y-54166666D02*
X91436190Y-53595238D01*
X91436190Y-53595238D02*
X91436190Y-54738095D01*
X91436190Y-54738095D02*
X92960000Y-54166666D01*
X109892500Y-30905000D02*
X109749643Y-30952619D01*
X109749643Y-30952619D02*
X109511548Y-30952619D01*
X109511548Y-30952619D02*
X109416310Y-30905000D01*
X109416310Y-30905000D02*
X109368691Y-30857380D01*
X109368691Y-30857380D02*
X109321072Y-30762142D01*
X109321072Y-30762142D02*
X109321072Y-30666904D01*
X109321072Y-30666904D02*
X109368691Y-30571666D01*
X109368691Y-30571666D02*
X109416310Y-30524047D01*
X109416310Y-30524047D02*
X109511548Y-30476428D01*
X109511548Y-30476428D02*
X109702024Y-30428809D01*
X109702024Y-30428809D02*
X109797262Y-30381190D01*
X109797262Y-30381190D02*
X109844881Y-30333571D01*
X109844881Y-30333571D02*
X109892500Y-30238333D01*
X109892500Y-30238333D02*
X109892500Y-30143095D01*
X109892500Y-30143095D02*
X109844881Y-30047857D01*
X109844881Y-30047857D02*
X109797262Y-30000238D01*
X109797262Y-30000238D02*
X109702024Y-29952619D01*
X109702024Y-29952619D02*
X109463929Y-29952619D01*
X109463929Y-29952619D02*
X109321072Y-30000238D01*
X108892500Y-30952619D02*
X108892500Y-29952619D01*
X108892500Y-30428809D02*
X108321072Y-30428809D01*
X108321072Y-30952619D02*
X108321072Y-29952619D01*
X107892500Y-30666904D02*
X107416310Y-30666904D01*
X107987738Y-30952619D02*
X107654405Y-29952619D01*
X107654405Y-29952619D02*
X107321072Y-30952619D01*
X106416310Y-30952619D02*
X106749643Y-30476428D01*
X106987738Y-30952619D02*
X106987738Y-29952619D01*
X106987738Y-29952619D02*
X106606786Y-29952619D01*
X106606786Y-29952619D02*
X106511548Y-30000238D01*
X106511548Y-30000238D02*
X106463929Y-30047857D01*
X106463929Y-30047857D02*
X106416310Y-30143095D01*
X106416310Y-30143095D02*
X106416310Y-30285952D01*
X106416310Y-30285952D02*
X106463929Y-30381190D01*
X106463929Y-30381190D02*
X106511548Y-30428809D01*
X106511548Y-30428809D02*
X106606786Y-30476428D01*
X106606786Y-30476428D02*
X106987738Y-30476428D01*
X105987738Y-30952619D02*
X105987738Y-29952619D01*
X105987738Y-29952619D02*
X105606786Y-29952619D01*
X105606786Y-29952619D02*
X105511548Y-30000238D01*
X105511548Y-30000238D02*
X105463929Y-30047857D01*
X105463929Y-30047857D02*
X105416310Y-30143095D01*
X105416310Y-30143095D02*
X105416310Y-30285952D01*
X105416310Y-30285952D02*
X105463929Y-30381190D01*
X105463929Y-30381190D02*
X105511548Y-30428809D01*
X105511548Y-30428809D02*
X105606786Y-30476428D01*
X105606786Y-30476428D02*
X105987738Y-30476428D01*
X103749643Y-30952619D02*
X104225833Y-30952619D01*
X104225833Y-30952619D02*
X104225833Y-29952619D01*
X102844881Y-30857380D02*
X102892500Y-30905000D01*
X102892500Y-30905000D02*
X103035357Y-30952619D01*
X103035357Y-30952619D02*
X103130595Y-30952619D01*
X103130595Y-30952619D02*
X103273452Y-30905000D01*
X103273452Y-30905000D02*
X103368690Y-30809761D01*
X103368690Y-30809761D02*
X103416309Y-30714523D01*
X103416309Y-30714523D02*
X103463928Y-30524047D01*
X103463928Y-30524047D02*
X103463928Y-30381190D01*
X103463928Y-30381190D02*
X103416309Y-30190714D01*
X103416309Y-30190714D02*
X103368690Y-30095476D01*
X103368690Y-30095476D02*
X103273452Y-30000238D01*
X103273452Y-30000238D02*
X103130595Y-29952619D01*
X103130595Y-29952619D02*
X103035357Y-29952619D01*
X103035357Y-29952619D02*
X102892500Y-30000238D01*
X102892500Y-30000238D02*
X102844881Y-30047857D01*
X102416309Y-30952619D02*
X102416309Y-29952619D01*
X102416309Y-29952619D02*
X102178214Y-29952619D01*
X102178214Y-29952619D02*
X102035357Y-30000238D01*
X102035357Y-30000238D02*
X101940119Y-30095476D01*
X101940119Y-30095476D02*
X101892500Y-30190714D01*
X101892500Y-30190714D02*
X101844881Y-30381190D01*
X101844881Y-30381190D02*
X101844881Y-30524047D01*
X101844881Y-30524047D02*
X101892500Y-30714523D01*
X101892500Y-30714523D02*
X101940119Y-30809761D01*
X101940119Y-30809761D02*
X102035357Y-30905000D01*
X102035357Y-30905000D02*
X102178214Y-30952619D01*
X102178214Y-30952619D02*
X102416309Y-30952619D01*
X96273451Y-30857380D02*
X96321070Y-30905000D01*
X96321070Y-30905000D02*
X96463927Y-30952619D01*
X96463927Y-30952619D02*
X96559165Y-30952619D01*
X96559165Y-30952619D02*
X96702022Y-30905000D01*
X96702022Y-30905000D02*
X96797260Y-30809761D01*
X96797260Y-30809761D02*
X96844879Y-30714523D01*
X96844879Y-30714523D02*
X96892498Y-30524047D01*
X96892498Y-30524047D02*
X96892498Y-30381190D01*
X96892498Y-30381190D02*
X96844879Y-30190714D01*
X96844879Y-30190714D02*
X96797260Y-30095476D01*
X96797260Y-30095476D02*
X96702022Y-30000238D01*
X96702022Y-30000238D02*
X96559165Y-29952619D01*
X96559165Y-29952619D02*
X96463927Y-29952619D01*
X96463927Y-29952619D02*
X96321070Y-30000238D01*
X96321070Y-30000238D02*
X96273451Y-30047857D01*
X95654403Y-29952619D02*
X95463927Y-29952619D01*
X95463927Y-29952619D02*
X95368689Y-30000238D01*
X95368689Y-30000238D02*
X95273451Y-30095476D01*
X95273451Y-30095476D02*
X95225832Y-30285952D01*
X95225832Y-30285952D02*
X95225832Y-30619285D01*
X95225832Y-30619285D02*
X95273451Y-30809761D01*
X95273451Y-30809761D02*
X95368689Y-30905000D01*
X95368689Y-30905000D02*
X95463927Y-30952619D01*
X95463927Y-30952619D02*
X95654403Y-30952619D01*
X95654403Y-30952619D02*
X95749641Y-30905000D01*
X95749641Y-30905000D02*
X95844879Y-30809761D01*
X95844879Y-30809761D02*
X95892498Y-30619285D01*
X95892498Y-30619285D02*
X95892498Y-30285952D01*
X95892498Y-30285952D02*
X95844879Y-30095476D01*
X95844879Y-30095476D02*
X95749641Y-30000238D01*
X95749641Y-30000238D02*
X95654403Y-29952619D01*
X94797260Y-30952619D02*
X94797260Y-29952619D01*
X94797260Y-29952619D02*
X94225832Y-30952619D01*
X94225832Y-30952619D02*
X94225832Y-29952619D01*
X93892498Y-29952619D02*
X93321070Y-29952619D01*
X93606784Y-30952619D02*
X93606784Y-29952619D01*
X92416308Y-30952619D02*
X92749641Y-30476428D01*
X92987736Y-30952619D02*
X92987736Y-29952619D01*
X92987736Y-29952619D02*
X92606784Y-29952619D01*
X92606784Y-29952619D02*
X92511546Y-30000238D01*
X92511546Y-30000238D02*
X92463927Y-30047857D01*
X92463927Y-30047857D02*
X92416308Y-30143095D01*
X92416308Y-30143095D02*
X92416308Y-30285952D01*
X92416308Y-30285952D02*
X92463927Y-30381190D01*
X92463927Y-30381190D02*
X92511546Y-30428809D01*
X92511546Y-30428809D02*
X92606784Y-30476428D01*
X92606784Y-30476428D02*
X92987736Y-30476428D01*
X91797260Y-29952619D02*
X91606784Y-29952619D01*
X91606784Y-29952619D02*
X91511546Y-30000238D01*
X91511546Y-30000238D02*
X91416308Y-30095476D01*
X91416308Y-30095476D02*
X91368689Y-30285952D01*
X91368689Y-30285952D02*
X91368689Y-30619285D01*
X91368689Y-30619285D02*
X91416308Y-30809761D01*
X91416308Y-30809761D02*
X91511546Y-30905000D01*
X91511546Y-30905000D02*
X91606784Y-30952619D01*
X91606784Y-30952619D02*
X91797260Y-30952619D01*
X91797260Y-30952619D02*
X91892498Y-30905000D01*
X91892498Y-30905000D02*
X91987736Y-30809761D01*
X91987736Y-30809761D02*
X92035355Y-30619285D01*
X92035355Y-30619285D02*
X92035355Y-30285952D01*
X92035355Y-30285952D02*
X91987736Y-30095476D01*
X91987736Y-30095476D02*
X91892498Y-30000238D01*
X91892498Y-30000238D02*
X91797260Y-29952619D01*
X90463927Y-30952619D02*
X90940117Y-30952619D01*
X90940117Y-30952619D02*
X90940117Y-29952619D01*
X89654403Y-30952619D02*
X90130593Y-30952619D01*
X90130593Y-30952619D02*
X90130593Y-29952619D01*
X89321069Y-30428809D02*
X88987736Y-30428809D01*
X88844879Y-30952619D02*
X89321069Y-30952619D01*
X89321069Y-30952619D02*
X89321069Y-29952619D01*
X89321069Y-29952619D02*
X88844879Y-29952619D01*
X87844879Y-30952619D02*
X88178212Y-30476428D01*
X88416307Y-30952619D02*
X88416307Y-29952619D01*
X88416307Y-29952619D02*
X88035355Y-29952619D01*
X88035355Y-29952619D02*
X87940117Y-30000238D01*
X87940117Y-30000238D02*
X87892498Y-30047857D01*
X87892498Y-30047857D02*
X87844879Y-30143095D01*
X87844879Y-30143095D02*
X87844879Y-30285952D01*
X87844879Y-30285952D02*
X87892498Y-30381190D01*
X87892498Y-30381190D02*
X87940117Y-30428809D01*
X87940117Y-30428809D02*
X88035355Y-30476428D01*
X88035355Y-30476428D02*
X88416307Y-30476428D01*
X77333332Y-46425000D02*
X77190475Y-46472619D01*
X77190475Y-46472619D02*
X76952380Y-46472619D01*
X76952380Y-46472619D02*
X76857142Y-46425000D01*
X76857142Y-46425000D02*
X76809523Y-46377380D01*
X76809523Y-46377380D02*
X76761904Y-46282142D01*
X76761904Y-46282142D02*
X76761904Y-46186904D01*
X76761904Y-46186904D02*
X76809523Y-46091666D01*
X76809523Y-46091666D02*
X76857142Y-46044047D01*
X76857142Y-46044047D02*
X76952380Y-45996428D01*
X76952380Y-45996428D02*
X77142856Y-45948809D01*
X77142856Y-45948809D02*
X77238094Y-45901190D01*
X77238094Y-45901190D02*
X77285713Y-45853571D01*
X77285713Y-45853571D02*
X77333332Y-45758333D01*
X77333332Y-45758333D02*
X77333332Y-45663095D01*
X77333332Y-45663095D02*
X77285713Y-45567857D01*
X77285713Y-45567857D02*
X77238094Y-45520238D01*
X77238094Y-45520238D02*
X77142856Y-45472619D01*
X77142856Y-45472619D02*
X76904761Y-45472619D01*
X76904761Y-45472619D02*
X76761904Y-45520238D01*
X76428570Y-45472619D02*
X76190475Y-46472619D01*
X76190475Y-46472619D02*
X75999999Y-45758333D01*
X75999999Y-45758333D02*
X75809523Y-46472619D01*
X75809523Y-46472619D02*
X75571428Y-45472619D01*
X75285713Y-45472619D02*
X74666666Y-45472619D01*
X74666666Y-45472619D02*
X74999999Y-45853571D01*
X74999999Y-45853571D02*
X74857142Y-45853571D01*
X74857142Y-45853571D02*
X74761904Y-45901190D01*
X74761904Y-45901190D02*
X74714285Y-45948809D01*
X74714285Y-45948809D02*
X74666666Y-46044047D01*
X74666666Y-46044047D02*
X74666666Y-46282142D01*
X74666666Y-46282142D02*
X74714285Y-46377380D01*
X74714285Y-46377380D02*
X74761904Y-46425000D01*
X74761904Y-46425000D02*
X74857142Y-46472619D01*
X74857142Y-46472619D02*
X75142856Y-46472619D01*
X75142856Y-46472619D02*
X75238094Y-46425000D01*
X75238094Y-46425000D02*
X75285713Y-46377380D01*
X77333332Y-40645000D02*
X77190475Y-40692619D01*
X77190475Y-40692619D02*
X76952380Y-40692619D01*
X76952380Y-40692619D02*
X76857142Y-40645000D01*
X76857142Y-40645000D02*
X76809523Y-40597380D01*
X76809523Y-40597380D02*
X76761904Y-40502142D01*
X76761904Y-40502142D02*
X76761904Y-40406904D01*
X76761904Y-40406904D02*
X76809523Y-40311666D01*
X76809523Y-40311666D02*
X76857142Y-40264047D01*
X76857142Y-40264047D02*
X76952380Y-40216428D01*
X76952380Y-40216428D02*
X77142856Y-40168809D01*
X77142856Y-40168809D02*
X77238094Y-40121190D01*
X77238094Y-40121190D02*
X77285713Y-40073571D01*
X77285713Y-40073571D02*
X77333332Y-39978333D01*
X77333332Y-39978333D02*
X77333332Y-39883095D01*
X77333332Y-39883095D02*
X77285713Y-39787857D01*
X77285713Y-39787857D02*
X77238094Y-39740238D01*
X77238094Y-39740238D02*
X77142856Y-39692619D01*
X77142856Y-39692619D02*
X76904761Y-39692619D01*
X76904761Y-39692619D02*
X76761904Y-39740238D01*
X76428570Y-39692619D02*
X76190475Y-40692619D01*
X76190475Y-40692619D02*
X75999999Y-39978333D01*
X75999999Y-39978333D02*
X75809523Y-40692619D01*
X75809523Y-40692619D02*
X75571428Y-39692619D01*
X75238094Y-39787857D02*
X75190475Y-39740238D01*
X75190475Y-39740238D02*
X75095237Y-39692619D01*
X75095237Y-39692619D02*
X74857142Y-39692619D01*
X74857142Y-39692619D02*
X74761904Y-39740238D01*
X74761904Y-39740238D02*
X74714285Y-39787857D01*
X74714285Y-39787857D02*
X74666666Y-39883095D01*
X74666666Y-39883095D02*
X74666666Y-39978333D01*
X74666666Y-39978333D02*
X74714285Y-40121190D01*
X74714285Y-40121190D02*
X75285713Y-40692619D01*
X75285713Y-40692619D02*
X74666666Y-40692619D01*
X77333332Y-36015000D02*
X77190475Y-36062619D01*
X77190475Y-36062619D02*
X76952380Y-36062619D01*
X76952380Y-36062619D02*
X76857142Y-36015000D01*
X76857142Y-36015000D02*
X76809523Y-35967380D01*
X76809523Y-35967380D02*
X76761904Y-35872142D01*
X76761904Y-35872142D02*
X76761904Y-35776904D01*
X76761904Y-35776904D02*
X76809523Y-35681666D01*
X76809523Y-35681666D02*
X76857142Y-35634047D01*
X76857142Y-35634047D02*
X76952380Y-35586428D01*
X76952380Y-35586428D02*
X77142856Y-35538809D01*
X77142856Y-35538809D02*
X77238094Y-35491190D01*
X77238094Y-35491190D02*
X77285713Y-35443571D01*
X77285713Y-35443571D02*
X77333332Y-35348333D01*
X77333332Y-35348333D02*
X77333332Y-35253095D01*
X77333332Y-35253095D02*
X77285713Y-35157857D01*
X77285713Y-35157857D02*
X77238094Y-35110238D01*
X77238094Y-35110238D02*
X77142856Y-35062619D01*
X77142856Y-35062619D02*
X76904761Y-35062619D01*
X76904761Y-35062619D02*
X76761904Y-35110238D01*
X76428570Y-35062619D02*
X76190475Y-36062619D01*
X76190475Y-36062619D02*
X75999999Y-35348333D01*
X75999999Y-35348333D02*
X75809523Y-36062619D01*
X75809523Y-36062619D02*
X75571428Y-35062619D01*
X74666666Y-36062619D02*
X75238094Y-36062619D01*
X74952380Y-36062619D02*
X74952380Y-35062619D01*
X74952380Y-35062619D02*
X75047618Y-35205476D01*
X75047618Y-35205476D02*
X75142856Y-35300714D01*
X75142856Y-35300714D02*
X75238094Y-35348333D01*
D14*
X109095000Y-35593900D02*
G75*
G03*
X109095000Y-35593900I-381000J0D01*
G01*
X78070000Y-49830000D02*
X78070000Y-49530000D01*
X78070000Y-46990000D02*
X78070000Y-46690000D01*
X78070000Y-46690000D02*
X73930000Y-46690000D01*
X73930000Y-49830000D02*
X78070000Y-49830000D01*
X73930000Y-49530000D02*
X73930000Y-49830000D01*
X73930000Y-46690000D02*
X73930000Y-46990000D01*
X78070000Y-44050000D02*
X78070000Y-43750000D01*
X78070000Y-41210000D02*
X78070000Y-40910000D01*
X78070000Y-40910000D02*
X73930000Y-40910000D01*
X73930000Y-44050000D02*
X78070000Y-44050000D01*
X73930000Y-43750000D02*
X73930000Y-44050000D01*
X73930000Y-40910000D02*
X73930000Y-41210000D01*
X78070000Y-39420000D02*
X78070000Y-39120000D01*
X78070000Y-36580000D02*
X78070000Y-36280000D01*
X78070000Y-36280000D02*
X73930000Y-36280000D01*
X73930000Y-39420000D02*
X78070000Y-39420000D01*
X73930000Y-39120000D02*
X73930000Y-39420000D01*
X73930000Y-36280000D02*
X73930000Y-36580000D01*
%LPC*%
D15*
X119120000Y-60140000D03*
D16*
X79400000Y-54235000D03*
X79400000Y-60015000D03*
D17*
X79930000Y-52805000D03*
D18*
X75750000Y-52805000D03*
D17*
X79930000Y-61445000D03*
D18*
X75750000Y-61445000D03*
D15*
X74400000Y-32000000D03*
X99400000Y-32000000D03*
D19*
X78100000Y-48260000D03*
X73900000Y-48260000D03*
X78100000Y-42480000D03*
X73900000Y-42480000D03*
X78100000Y-37850000D03*
X73900000Y-37850000D03*
M02*
