G04 #@! TF.GenerationSoftware,KiCad,Pcbnew,7.0.2-6a45011f42~172~ubuntu22.04.1*
G04 #@! TF.CreationDate,2023-05-15T14:22:46+02:00*
G04 #@! TF.ProjectId,sharp-lcd-128x128,73686172-702d-46c6-9364-2d3132387831,rev?*
G04 #@! TF.SameCoordinates,Original*
G04 #@! TF.FileFunction,Soldermask,Top*
G04 #@! TF.FilePolarity,Negative*
%FSLAX46Y46*%
G04 Gerber Fmt 4.6, Leading zero omitted, Abs format (unit mm)*
G04 Created by KiCad (PCBNEW 7.0.2-6a45011f42~172~ubuntu22.04.1) date 2023-05-15 14:22:46*
%MOMM*%
%LPD*%
G01*
G04 APERTURE LIST*
G04 Aperture macros list*
%AMRoundRect*
0 Rectangle with rounded corners*
0 $1 Rounding radius*
0 $2 $3 $4 $5 $6 $7 $8 $9 X,Y pos of 4 corners*
0 Add a 4 corners polygon primitive as box body*
4,1,4,$2,$3,$4,$5,$6,$7,$8,$9,$2,$3,0*
0 Add four circle primitives for the rounded corners*
1,1,$1+$1,$2,$3*
1,1,$1+$1,$4,$5*
1,1,$1+$1,$6,$7*
1,1,$1+$1,$8,$9*
0 Add four rect primitives between the rounded corners*
20,1,$1+$1,$2,$3,$4,$5,0*
20,1,$1+$1,$4,$5,$6,$7,0*
20,1,$1+$1,$6,$7,$8,$9,0*
20,1,$1+$1,$8,$9,$2,$3,0*%
%AMFreePoly0*
4,1,19,0.500000,-0.750000,0.000000,-0.750000,0.000000,-0.744911,-0.071157,-0.744911,-0.207708,-0.704816,-0.327430,-0.627875,-0.420627,-0.520320,-0.479746,-0.390866,-0.500000,-0.250000,-0.500000,0.250000,-0.479746,0.390866,-0.420627,0.520320,-0.327430,0.627875,-0.207708,0.704816,-0.071157,0.744911,0.000000,0.744911,0.000000,0.750000,0.500000,0.750000,0.500000,-0.750000,0.500000,-0.750000,
$1*%
%AMFreePoly1*
4,1,19,0.000000,0.744911,0.071157,0.744911,0.207708,0.704816,0.327430,0.627875,0.420627,0.520320,0.479746,0.390866,0.500000,0.250000,0.500000,-0.250000,0.479746,-0.390866,0.420627,-0.520320,0.327430,-0.627875,0.207708,-0.704816,0.071157,-0.744911,0.000000,-0.744911,0.000000,-0.750000,-0.500000,-0.750000,-0.500000,0.750000,0.000000,0.750000,0.000000,0.744911,0.000000,0.744911,
$1*%
G04 Aperture macros list end*
%ADD10R,1.700000X1.700000*%
%ADD11O,1.700000X1.700000*%
%ADD12R,1.498600X0.889000*%
%ADD13R,0.711200X0.711200*%
%ADD14R,1.000000X1.000000*%
%ADD15RoundRect,0.200000X-0.200000X-0.275000X0.200000X-0.275000X0.200000X0.275000X-0.200000X0.275000X0*%
%ADD16RoundRect,0.150000X-0.587500X-0.150000X0.587500X-0.150000X0.587500X0.150000X-0.587500X0.150000X0*%
%ADD17RoundRect,0.200000X-0.275000X0.200000X-0.275000X-0.200000X0.275000X-0.200000X0.275000X0.200000X0*%
%ADD18RoundRect,0.250000X-0.250000X-0.475000X0.250000X-0.475000X0.250000X0.475000X-0.250000X0.475000X0*%
%ADD19RoundRect,0.150000X0.587500X0.150000X-0.587500X0.150000X-0.587500X-0.150000X0.587500X-0.150000X0*%
%ADD20RoundRect,0.243750X-0.456250X0.243750X-0.456250X-0.243750X0.456250X-0.243750X0.456250X0.243750X0*%
%ADD21RoundRect,0.150000X-0.150000X0.825000X-0.150000X-0.825000X0.150000X-0.825000X0.150000X0.825000X0*%
%ADD22R,0.558800X0.990600*%
%ADD23RoundRect,0.200000X0.200000X0.275000X-0.200000X0.275000X-0.200000X-0.275000X0.200000X-0.275000X0*%
%ADD24RoundRect,0.150000X0.150000X-0.587500X0.150000X0.587500X-0.150000X0.587500X-0.150000X-0.587500X0*%
%ADD25C,0.650000*%
%ADD26R,1.450000X0.600000*%
%ADD27R,1.450000X0.300000*%
%ADD28O,2.100000X1.000000*%
%ADD29O,1.600000X1.000000*%
%ADD30C,2.100000*%
%ADD31RoundRect,0.250000X-0.412500X-0.925000X0.412500X-0.925000X0.412500X0.925000X-0.412500X0.925000X0*%
%ADD32FreePoly0,0.000000*%
%ADD33FreePoly1,0.000000*%
%ADD34R,0.812800X0.304800*%
%ADD35R,0.812800X0.406400*%
%ADD36R,0.850000X0.300000*%
%ADD37R,2.000000X0.800000*%
%ADD38RoundRect,0.250000X0.262500X0.450000X-0.262500X0.450000X-0.262500X-0.450000X0.262500X-0.450000X0*%
%ADD39RoundRect,0.150000X0.275000X-0.150000X0.275000X0.150000X-0.275000X0.150000X-0.275000X-0.150000X0*%
%ADD40RoundRect,0.175000X0.225000X-0.175000X0.225000X0.175000X-0.225000X0.175000X-0.225000X-0.175000X0*%
%ADD41RoundRect,0.200000X0.275000X-0.200000X0.275000X0.200000X-0.275000X0.200000X-0.275000X-0.200000X0*%
%ADD42RoundRect,0.112500X-0.112500X0.187500X-0.112500X-0.187500X0.112500X-0.187500X0.112500X0.187500X0*%
G04 APERTURE END LIST*
D10*
X107030000Y-60250000D03*
D11*
X109570000Y-60250000D03*
X112110000Y-60250000D03*
X114650000Y-60250000D03*
X117190000Y-60250000D03*
X119730000Y-60250000D03*
D12*
X102835802Y-61009973D03*
X102835802Y-59509973D03*
X102835802Y-58009971D03*
X102835802Y-56509972D03*
X102835802Y-55009972D03*
X102835802Y-53509973D03*
X102835802Y-52009973D03*
X102835802Y-50509971D03*
X102835802Y-49009971D03*
X85335802Y-49009971D03*
X85335802Y-50509971D03*
X85335802Y-52009973D03*
X85335802Y-53509973D03*
X85335802Y-55009972D03*
X85335802Y-56509972D03*
X85335802Y-58009971D03*
X85335802Y-59509973D03*
X85335802Y-61009973D03*
D13*
X94230000Y-55909996D03*
X93130000Y-55909996D03*
X92030000Y-55909996D03*
X94230102Y-54809998D03*
X93130102Y-54809998D03*
X92030101Y-54809998D03*
X94230000Y-53710000D03*
X93130000Y-53710000D03*
X92030000Y-53710000D03*
D14*
X95040000Y-44160000D03*
D15*
X80880000Y-43077500D03*
X82530000Y-43077500D03*
D16*
X97230000Y-40780000D03*
X97230000Y-42680000D03*
X99105000Y-41730000D03*
D17*
X73320000Y-42905000D03*
X73320000Y-44555000D03*
D14*
X90520000Y-44160000D03*
D18*
X79100000Y-48070000D03*
X81000000Y-48070000D03*
D15*
X111880000Y-36060000D03*
X113530000Y-36060000D03*
D19*
X79097500Y-46040000D03*
X79097500Y-44140000D03*
X77222500Y-45090000D03*
D20*
X96040000Y-31865000D03*
X96040000Y-33740000D03*
D21*
X86395000Y-33075000D03*
X85125000Y-33075000D03*
X83855000Y-33075000D03*
X82585000Y-33075000D03*
X82585000Y-38025000D03*
X83855000Y-38025000D03*
X85125000Y-38025000D03*
X86395000Y-38025000D03*
D15*
X83635000Y-45650000D03*
X85285000Y-45650000D03*
D22*
X92150001Y-34262200D03*
X91200000Y-34262200D03*
X90249999Y-34262200D03*
X90249999Y-36980000D03*
X91200000Y-36980000D03*
X92150001Y-36980000D03*
D23*
X94925000Y-42400000D03*
X93275000Y-42400000D03*
D24*
X73330000Y-48260000D03*
X75230000Y-48260000D03*
X74280000Y-46385000D03*
D25*
X79400000Y-54235000D03*
X79400000Y-60015000D03*
D26*
X80845000Y-53875000D03*
X80845000Y-54675000D03*
D27*
X80845000Y-55875000D03*
X80845000Y-56875000D03*
X80845000Y-57375000D03*
X80845000Y-58375000D03*
D26*
X80845000Y-59575000D03*
X80845000Y-60375000D03*
X80845000Y-60375000D03*
X80845000Y-59575000D03*
D27*
X80845000Y-58875000D03*
X80845000Y-57875000D03*
X80845000Y-56375000D03*
X80845000Y-55375000D03*
D26*
X80845000Y-54675000D03*
X80845000Y-53875000D03*
D28*
X79930000Y-52805000D03*
D29*
X75750000Y-52805000D03*
D28*
X79930000Y-61445000D03*
D29*
X75750000Y-61445000D03*
D23*
X102925000Y-41680000D03*
X101275000Y-41680000D03*
D30*
X74400000Y-32000000D03*
D18*
X77117500Y-42120000D03*
X79017500Y-42120000D03*
D23*
X94925000Y-40560000D03*
X93275000Y-40560000D03*
D31*
X113982500Y-54170000D03*
X117057500Y-54170000D03*
D32*
X98310000Y-35700000D03*
D33*
X99610000Y-35700000D03*
D34*
X107580000Y-31080000D03*
X107580000Y-31579999D03*
X107580000Y-32080001D03*
X107580000Y-32580000D03*
X107580000Y-33080001D03*
X107580000Y-33580000D03*
D35*
X110093122Y-34580001D03*
X110093122Y-30079999D03*
D15*
X101915000Y-38220000D03*
X103565000Y-38220000D03*
D36*
X108815000Y-48250000D03*
X108815000Y-47750000D03*
X108815000Y-47250000D03*
X108815000Y-46750000D03*
X108815000Y-46250000D03*
X108815000Y-45750000D03*
X108815000Y-45250000D03*
X108815000Y-44750000D03*
X108815000Y-44250000D03*
X108815000Y-43750000D03*
D37*
X111990000Y-49950000D03*
X111990000Y-42050000D03*
D38*
X95912500Y-37330000D03*
X94087500Y-37330000D03*
D23*
X93605000Y-31910000D03*
X91955000Y-31910000D03*
D17*
X105200000Y-36760000D03*
X105200000Y-38410000D03*
D39*
X74010000Y-37920000D03*
X74010000Y-36720000D03*
D40*
X77785000Y-39070000D03*
X77785000Y-35570000D03*
D19*
X91280000Y-42340000D03*
X91280000Y-40440000D03*
X89405000Y-41390000D03*
D41*
X80695000Y-41437500D03*
X80695000Y-39787500D03*
D42*
X77170000Y-48490000D03*
X77170000Y-50590000D03*
D30*
X99400000Y-32000000D03*
M02*
