G04 #@! TF.GenerationSoftware,KiCad,Pcbnew,7.0.2-6a45011f42~172~ubuntu22.04.1*
G04 #@! TF.CreationDate,2023-05-15T14:22:46+02:00*
G04 #@! TF.ProjectId,sharp-lcd-128x128,73686172-702d-46c6-9364-2d3132387831,rev?*
G04 #@! TF.SameCoordinates,Original*
G04 #@! TF.FileFunction,Legend,Bot*
G04 #@! TF.FilePolarity,Positive*
%FSLAX46Y46*%
G04 Gerber Fmt 4.6, Leading zero omitted, Abs format (unit mm)*
G04 Created by KiCad (PCBNEW 7.0.2-6a45011f42~172~ubuntu22.04.1) date 2023-05-15 14:22:46*
%MOMM*%
%LPD*%
G01*
G04 APERTURE LIST*
G04 Aperture macros list*
%AMRoundRect*
0 Rectangle with rounded corners*
0 $1 Rounding radius*
0 $2 $3 $4 $5 $6 $7 $8 $9 X,Y pos of 4 corners*
0 Add a 4 corners polygon primitive as box body*
4,1,4,$2,$3,$4,$5,$6,$7,$8,$9,$2,$3,0*
0 Add four circle primitives for the rounded corners*
1,1,$1+$1,$2,$3*
1,1,$1+$1,$4,$5*
1,1,$1+$1,$6,$7*
1,1,$1+$1,$8,$9*
0 Add four rect primitives between the rounded corners*
20,1,$1+$1,$2,$3,$4,$5,0*
20,1,$1+$1,$4,$5,$6,$7,0*
20,1,$1+$1,$6,$7,$8,$9,0*
20,1,$1+$1,$8,$9,$2,$3,0*%
G04 Aperture macros list end*
%ADD10C,0.000000*%
%ADD11C,0.150000*%
%ADD12C,0.031749*%
%ADD13C,0.130000*%
%ADD14C,0.190000*%
%ADD15C,0.120000*%
%ADD16RoundRect,0.200000X0.200000X0.800000X-0.200000X0.800000X-0.200000X-0.800000X0.200000X-0.800000X0*%
%ADD17R,1.700000X1.700000*%
%ADD18O,1.700000X1.700000*%
%ADD19C,0.650000*%
%ADD20O,2.100000X1.000000*%
%ADD21O,1.600000X1.000000*%
%ADD22C,2.100000*%
%ADD23RoundRect,0.200000X-0.200000X-0.800000X0.200000X-0.800000X0.200000X0.800000X-0.200000X0.800000X0*%
G04 APERTURE END LIST*
D10*
G36*
X92252701Y-54451600D02*
G01*
X91816667Y-54451600D01*
X91816667Y-54015566D01*
X92252701Y-54015566D01*
X92252701Y-54451600D01*
G37*
G36*
X89712701Y-48948266D02*
G01*
X89276668Y-48948266D01*
X89276668Y-48512234D01*
X89712701Y-48512234D01*
X89712701Y-48948266D01*
G37*
G36*
X98179368Y-51488267D02*
G01*
X97743334Y-51488267D01*
X97743334Y-51052233D01*
X98179368Y-51052233D01*
X98179368Y-51488267D01*
G37*
G36*
X98602701Y-51911600D02*
G01*
X98166667Y-51911600D01*
X98166667Y-51475567D01*
X98602701Y-51475567D01*
X98602701Y-51911600D01*
G37*
G36*
X93099367Y-50641601D02*
G01*
X92663334Y-50641601D01*
X92663334Y-50205567D01*
X93099367Y-50205567D01*
X93099367Y-50641601D01*
G37*
G36*
X90982701Y-54451600D02*
G01*
X90546668Y-54451600D01*
X90546668Y-54015566D01*
X90982701Y-54015566D01*
X90982701Y-54451600D01*
G37*
G36*
X99026034Y-46408267D02*
G01*
X98590000Y-46408267D01*
X98590000Y-45972234D01*
X99026034Y-45972234D01*
X99026034Y-46408267D01*
G37*
G36*
X96486034Y-54874933D02*
G01*
X96050001Y-54874933D01*
X96050001Y-54438900D01*
X96486034Y-54438900D01*
X96486034Y-54874933D01*
G37*
G36*
X91829367Y-51064934D02*
G01*
X91393334Y-51064934D01*
X91393334Y-50628900D01*
X91829367Y-50628900D01*
X91829367Y-51064934D01*
G37*
G36*
X91406034Y-51488267D02*
G01*
X90970001Y-51488267D01*
X90970001Y-51052233D01*
X91406034Y-51052233D01*
X91406034Y-51488267D01*
G37*
G36*
X96062701Y-55298266D02*
G01*
X95626667Y-55298266D01*
X95626667Y-54862233D01*
X96062701Y-54862233D01*
X96062701Y-55298266D01*
G37*
G36*
X102836033Y-54874933D02*
G01*
X102400001Y-54874933D01*
X102400001Y-54438900D01*
X102836033Y-54438900D01*
X102836033Y-54874933D01*
G37*
G36*
X95639368Y-51488267D02*
G01*
X95203334Y-51488267D01*
X95203334Y-51052233D01*
X95639368Y-51052233D01*
X95639368Y-51488267D01*
G37*
G36*
X78483521Y-57530324D02*
G01*
X78230365Y-57530324D01*
X78230365Y-56548608D01*
X78483521Y-56548608D01*
X78483521Y-57530324D01*
G37*
G36*
X91829367Y-49794933D02*
G01*
X91393334Y-49794933D01*
X91393334Y-49358900D01*
X91829367Y-49358900D01*
X91829367Y-49794933D01*
G37*
G36*
X96062701Y-53604934D02*
G01*
X95626667Y-53604934D01*
X95626667Y-53168900D01*
X96062701Y-53168900D01*
X96062701Y-53604934D01*
G37*
G36*
X95216035Y-53604934D02*
G01*
X94780001Y-53604934D01*
X94780001Y-53168900D01*
X95216035Y-53168900D01*
X95216035Y-53604934D01*
G37*
G36*
X94792701Y-46408267D02*
G01*
X94356667Y-46408267D01*
X94356667Y-45972234D01*
X94792701Y-45972234D01*
X94792701Y-46408267D01*
G37*
G36*
X94369367Y-51488267D02*
G01*
X93933334Y-51488267D01*
X93933334Y-51052233D01*
X94369367Y-51052233D01*
X94369367Y-51488267D01*
G37*
G36*
X90559367Y-55721600D02*
G01*
X90123334Y-55721600D01*
X90123334Y-55285567D01*
X90559367Y-55285567D01*
X90559367Y-55721600D01*
G37*
G36*
X97756034Y-53604934D02*
G01*
X97320000Y-53604934D01*
X97320000Y-53168900D01*
X97756034Y-53168900D01*
X97756034Y-53604934D01*
G37*
G36*
X101142701Y-54451600D02*
G01*
X100706667Y-54451600D01*
X100706667Y-54015566D01*
X101142701Y-54015566D01*
X101142701Y-54451600D01*
G37*
G36*
X99449367Y-46831600D02*
G01*
X99013334Y-46831600D01*
X99013334Y-46395567D01*
X99449367Y-46395567D01*
X99449367Y-46831600D01*
G37*
G36*
X92676034Y-53604934D02*
G01*
X92240001Y-53604934D01*
X92240001Y-53168900D01*
X92676034Y-53168900D01*
X92676034Y-53604934D01*
G37*
G36*
X101566035Y-58261599D02*
G01*
X101130000Y-58261599D01*
X101130000Y-57825567D01*
X101566035Y-57825567D01*
X101566035Y-58261599D01*
G37*
G36*
X101142701Y-52758267D02*
G01*
X100706667Y-52758267D01*
X100706667Y-52322233D01*
X101142701Y-52322233D01*
X101142701Y-52758267D01*
G37*
G36*
X101142701Y-56991601D02*
G01*
X100706667Y-56991601D01*
X100706667Y-56555566D01*
X101142701Y-56555566D01*
X101142701Y-56991601D01*
G37*
G36*
X90559367Y-52758267D02*
G01*
X90123334Y-52758267D01*
X90123334Y-52322233D01*
X90559367Y-52322233D01*
X90559367Y-52758267D01*
G37*
G36*
X97332701Y-52758267D02*
G01*
X96896667Y-52758267D01*
X96896667Y-52322233D01*
X97332701Y-52322233D01*
X97332701Y-52758267D01*
G37*
G36*
X93099367Y-54874933D02*
G01*
X92663334Y-54874933D01*
X92663334Y-54438900D01*
X93099367Y-54438900D01*
X93099367Y-54874933D01*
G37*
G36*
X99026034Y-45561600D02*
G01*
X98590000Y-45561600D01*
X98590000Y-45125567D01*
X99026034Y-45125567D01*
X99026034Y-45561600D01*
G37*
G36*
X104952700Y-59531598D02*
G01*
X104516666Y-59531598D01*
X104516666Y-59095566D01*
X104952700Y-59095566D01*
X104952700Y-59531598D01*
G37*
G36*
X95216035Y-55721600D02*
G01*
X94780001Y-55721600D01*
X94780001Y-55285567D01*
X95216035Y-55285567D01*
X95216035Y-55721600D01*
G37*
G36*
X100296034Y-45561600D02*
G01*
X99860001Y-45561600D01*
X99860001Y-45125567D01*
X100296034Y-45125567D01*
X100296034Y-45561600D01*
G37*
G36*
X96062701Y-52334933D02*
G01*
X95626667Y-52334933D01*
X95626667Y-51898900D01*
X96062701Y-51898900D01*
X96062701Y-52334933D01*
G37*
G36*
X100719367Y-47678267D02*
G01*
X100283334Y-47678267D01*
X100283334Y-47242233D01*
X100719367Y-47242233D01*
X100719367Y-47678267D01*
G37*
G36*
X104106032Y-56991601D02*
G01*
X103670000Y-56991601D01*
X103670000Y-56555566D01*
X104106032Y-56555566D01*
X104106032Y-56991601D01*
G37*
G36*
X100296034Y-55721600D02*
G01*
X99860001Y-55721600D01*
X99860001Y-55285567D01*
X100296034Y-55285567D01*
X100296034Y-55721600D01*
G37*
G36*
X100296034Y-53604934D02*
G01*
X99860001Y-53604934D01*
X99860001Y-53168900D01*
X100296034Y-53168900D01*
X100296034Y-53604934D01*
G37*
G36*
X97332701Y-52334933D02*
G01*
X96896667Y-52334933D01*
X96896667Y-51898900D01*
X97332701Y-51898900D01*
X97332701Y-52334933D01*
G37*
G36*
X100719367Y-56568267D02*
G01*
X100283334Y-56568267D01*
X100283334Y-56132233D01*
X100719367Y-56132233D01*
X100719367Y-56568267D01*
G37*
G36*
X93099367Y-54028267D02*
G01*
X92663334Y-54028267D01*
X92663334Y-53592233D01*
X93099367Y-53592233D01*
X93099367Y-54028267D01*
G37*
G36*
X93946034Y-53604934D02*
G01*
X93510001Y-53604934D01*
X93510001Y-53168900D01*
X93946034Y-53168900D01*
X93946034Y-53604934D01*
G37*
G36*
X100296034Y-51064934D02*
G01*
X99860001Y-51064934D01*
X99860001Y-50628900D01*
X100296034Y-50628900D01*
X100296034Y-51064934D01*
G37*
G36*
X95639368Y-58684933D02*
G01*
X95203334Y-58684933D01*
X95203334Y-58248899D01*
X95639368Y-58248899D01*
X95639368Y-58684933D01*
G37*
G36*
X103259367Y-58684933D02*
G01*
X102823333Y-58684933D01*
X102823333Y-58248899D01*
X103259367Y-58248899D01*
X103259367Y-58684933D01*
G37*
G36*
X91829367Y-51911600D02*
G01*
X91393334Y-51911600D01*
X91393334Y-51475567D01*
X91829367Y-51475567D01*
X91829367Y-51911600D01*
G37*
G36*
X96486034Y-57414933D02*
G01*
X96050001Y-57414933D01*
X96050001Y-56978899D01*
X96486034Y-56978899D01*
X96486034Y-57414933D01*
G37*
G36*
X100719367Y-49371600D02*
G01*
X100283334Y-49371600D01*
X100283334Y-48935567D01*
X100719367Y-48935567D01*
X100719367Y-49371600D01*
G37*
G36*
X99872700Y-50218267D02*
G01*
X99436667Y-50218267D01*
X99436667Y-49782233D01*
X99872700Y-49782233D01*
X99872700Y-50218267D01*
G37*
G36*
X93522700Y-53604934D02*
G01*
X93086668Y-53604934D01*
X93086668Y-53168900D01*
X93522700Y-53168900D01*
X93522700Y-53604934D01*
G37*
G36*
X98602701Y-56568267D02*
G01*
X98166667Y-56568267D01*
X98166667Y-56132233D01*
X98602701Y-56132233D01*
X98602701Y-56568267D01*
G37*
G36*
X81421295Y-57804144D02*
G01*
X81450218Y-57805706D01*
X81478345Y-57808310D01*
X81505676Y-57811954D01*
X81532211Y-57816640D01*
X81557950Y-57822367D01*
X81582894Y-57829135D01*
X81607041Y-57836945D01*
X81630392Y-57845796D01*
X81652947Y-57855688D01*
X81674707Y-57866621D01*
X81695670Y-57878596D01*
X81715837Y-57891612D01*
X81735208Y-57905669D01*
X81753784Y-57920767D01*
X81771563Y-57936906D01*
X81788324Y-57953944D01*
X81804003Y-57971738D01*
X81818601Y-57990288D01*
X81832118Y-58009595D01*
X81844553Y-58029657D01*
X81855907Y-58050475D01*
X81866180Y-58072048D01*
X81875371Y-58094378D01*
X81883481Y-58117464D01*
X81890509Y-58141306D01*
X81896457Y-58165904D01*
X81901323Y-58191257D01*
X81905107Y-58217367D01*
X81907811Y-58244233D01*
X81909433Y-58271854D01*
X81909973Y-58300231D01*
X81909430Y-58328609D01*
X81907801Y-58356230D01*
X81905085Y-58383096D01*
X81901283Y-58409205D01*
X81896394Y-58434559D01*
X81890419Y-58459157D01*
X81883358Y-58482999D01*
X81875211Y-58506085D01*
X81865977Y-58528415D01*
X81855657Y-58549988D01*
X81844250Y-58570806D01*
X81831757Y-58590868D01*
X81818178Y-58610174D01*
X81803513Y-58628725D01*
X81787761Y-58646519D01*
X81770923Y-58663557D01*
X81753146Y-58679619D01*
X81734578Y-58694645D01*
X81715219Y-58708635D01*
X81695069Y-58721588D01*
X81674128Y-58733505D01*
X81652397Y-58744386D01*
X81629874Y-58754230D01*
X81606560Y-58763038D01*
X81582456Y-58770810D01*
X81557560Y-58777546D01*
X81531874Y-58783245D01*
X81505396Y-58787908D01*
X81478127Y-58791535D01*
X81450068Y-58794126D01*
X81421218Y-58795680D01*
X81391576Y-58796198D01*
X81371799Y-58795920D01*
X81352198Y-58795087D01*
X81332771Y-58793698D01*
X81313520Y-58791753D01*
X81294444Y-58789252D01*
X81275544Y-58786196D01*
X81256818Y-58782584D01*
X81238268Y-58778416D01*
X81219893Y-58773693D01*
X81201693Y-58768414D01*
X81183668Y-58762579D01*
X81165819Y-58756189D01*
X81148144Y-58749242D01*
X81130645Y-58741740D01*
X81113322Y-58733683D01*
X81096173Y-58725069D01*
X81096173Y-58527066D01*
X81112718Y-58538007D01*
X81129354Y-58548242D01*
X81146080Y-58557772D01*
X81162895Y-58566595D01*
X81179801Y-58574713D01*
X81196797Y-58582124D01*
X81213883Y-58588830D01*
X81231059Y-58594830D01*
X81248325Y-58600124D01*
X81265682Y-58604712D01*
X81283128Y-58608594D01*
X81300665Y-58611771D01*
X81318291Y-58614241D01*
X81336008Y-58616006D01*
X81353815Y-58617065D01*
X81371712Y-58617418D01*
X81371711Y-58617425D01*
X81388296Y-58617092D01*
X81404411Y-58616093D01*
X81420055Y-58614429D01*
X81435229Y-58612099D01*
X81449932Y-58609103D01*
X81464165Y-58605441D01*
X81477927Y-58601113D01*
X81491218Y-58596119D01*
X81504039Y-58590460D01*
X81516389Y-58584135D01*
X81528268Y-58577144D01*
X81539677Y-58569487D01*
X81550616Y-58561164D01*
X81561084Y-58552175D01*
X81571081Y-58542521D01*
X81580608Y-58532200D01*
X81589609Y-58521307D01*
X81598029Y-58509933D01*
X81605869Y-58498078D01*
X81613128Y-58485743D01*
X81619806Y-58472927D01*
X81625903Y-58459630D01*
X81631420Y-58445853D01*
X81636356Y-58431596D01*
X81640712Y-58416858D01*
X81644486Y-58401639D01*
X81647680Y-58385940D01*
X81650293Y-58369760D01*
X81652326Y-58353100D01*
X81653778Y-58335959D01*
X81654649Y-58318337D01*
X81654939Y-58300235D01*
X81654649Y-58282133D01*
X81653778Y-58264512D01*
X81652326Y-58247371D01*
X81650293Y-58230710D01*
X81647680Y-58214530D01*
X81644486Y-58198831D01*
X81640712Y-58183612D01*
X81636356Y-58168874D01*
X81631420Y-58154617D01*
X81625903Y-58140840D01*
X81619806Y-58127543D01*
X81613128Y-58114728D01*
X81605869Y-58102392D01*
X81598029Y-58090538D01*
X81589609Y-58079163D01*
X81580608Y-58068270D01*
X81571081Y-58057872D01*
X81561084Y-58048145D01*
X81550616Y-58039089D01*
X81539677Y-58030704D01*
X81528268Y-58022990D01*
X81516389Y-58015946D01*
X81504039Y-58009573D01*
X81491218Y-58003871D01*
X81477927Y-57998840D01*
X81464165Y-57994479D01*
X81449932Y-57990790D01*
X81435229Y-57987771D01*
X81420055Y-57985423D01*
X81404411Y-57983746D01*
X81388296Y-57982740D01*
X81371711Y-57982404D01*
X81353964Y-57982757D01*
X81336288Y-57983816D01*
X81318681Y-57985581D01*
X81301144Y-57988051D01*
X81283678Y-57991228D01*
X81266282Y-57995110D01*
X81248955Y-57999698D01*
X81231699Y-58004992D01*
X81214513Y-58010992D01*
X81197397Y-58017698D01*
X81180351Y-58025110D01*
X81163375Y-58033227D01*
X81146469Y-58042050D01*
X81129634Y-58051580D01*
X81112868Y-58061815D01*
X81096173Y-58072756D01*
X81096173Y-57874753D01*
X81113321Y-57866139D01*
X81130645Y-57858082D01*
X81148144Y-57850580D01*
X81165818Y-57843633D01*
X81183668Y-57837243D01*
X81201692Y-57831408D01*
X81219892Y-57826129D01*
X81238267Y-57821406D01*
X81256818Y-57817238D01*
X81275543Y-57813626D01*
X81294444Y-57810570D01*
X81313520Y-57808069D01*
X81332771Y-57806124D01*
X81352197Y-57804735D01*
X81371799Y-57803902D01*
X81391576Y-57803624D01*
X81421295Y-57804144D01*
G37*
G36*
X104952700Y-60378266D02*
G01*
X104516666Y-60378266D01*
X104516666Y-59942232D01*
X104952700Y-59942232D01*
X104952700Y-60378266D01*
G37*
G36*
X99026034Y-45138267D02*
G01*
X98590000Y-45138267D01*
X98590000Y-44702234D01*
X99026034Y-44702234D01*
X99026034Y-45138267D01*
G37*
G36*
X100296034Y-46408267D02*
G01*
X99860001Y-46408267D01*
X99860001Y-45972234D01*
X100296034Y-45972234D01*
X100296034Y-46408267D01*
G37*
G36*
X92676034Y-54028267D02*
G01*
X92240001Y-54028267D01*
X92240001Y-53592233D01*
X92676034Y-53592233D01*
X92676034Y-54028267D01*
G37*
G36*
X93946034Y-59954932D02*
G01*
X93510001Y-59954932D01*
X93510001Y-59518900D01*
X93946034Y-59518900D01*
X93946034Y-59954932D01*
G37*
G36*
X96486034Y-54028267D02*
G01*
X96050001Y-54028267D01*
X96050001Y-53592233D01*
X96486034Y-53592233D01*
X96486034Y-54028267D01*
G37*
G36*
X101142701Y-50218267D02*
G01*
X100706667Y-50218267D01*
X100706667Y-49782233D01*
X101142701Y-49782233D01*
X101142701Y-50218267D01*
G37*
G36*
X99026034Y-53604934D02*
G01*
X98590000Y-53604934D01*
X98590000Y-53168900D01*
X99026034Y-53168900D01*
X99026034Y-53604934D01*
G37*
G36*
X93099367Y-59108266D02*
G01*
X92663334Y-59108266D01*
X92663334Y-58672233D01*
X93099367Y-58672233D01*
X93099367Y-59108266D01*
G37*
G36*
X97332701Y-53181600D02*
G01*
X96896667Y-53181600D01*
X96896667Y-52745566D01*
X97332701Y-52745566D01*
X97332701Y-53181600D01*
G37*
G36*
X93099367Y-58261599D02*
G01*
X92663334Y-58261599D01*
X92663334Y-57825567D01*
X93099367Y-57825567D01*
X93099367Y-58261599D01*
G37*
G36*
X99449367Y-48524933D02*
G01*
X99013334Y-48524933D01*
X99013334Y-48088900D01*
X99449367Y-48088900D01*
X99449367Y-48524933D01*
G37*
G36*
X96486034Y-47678267D02*
G01*
X96050001Y-47678267D01*
X96050001Y-47242233D01*
X96486034Y-47242233D01*
X96486034Y-47678267D01*
G37*
G36*
X93099367Y-46831600D02*
G01*
X92663334Y-46831600D01*
X92663334Y-46395567D01*
X93099367Y-46395567D01*
X93099367Y-46831600D01*
G37*
G36*
X101566035Y-48524933D02*
G01*
X101130000Y-48524933D01*
X101130000Y-48088900D01*
X101566035Y-48088900D01*
X101566035Y-48524933D01*
G37*
G36*
X79599403Y-58777617D02*
G01*
X79352699Y-58777617D01*
X79352699Y-58415570D01*
X79282853Y-58415570D01*
X79275109Y-58415682D01*
X79267575Y-58416020D01*
X79260251Y-58416583D01*
X79253137Y-58417372D01*
X79246233Y-58418386D01*
X79239540Y-58419625D01*
X79233057Y-58421089D01*
X79226784Y-58422779D01*
X79220722Y-58424694D01*
X79214870Y-58426834D01*
X79209228Y-58429199D01*
X79203796Y-58431790D01*
X79198575Y-58434606D01*
X79193564Y-58437647D01*
X79188763Y-58440913D01*
X79184172Y-58444405D01*
X79179621Y-58448082D01*
X79175101Y-58452065D01*
X79170610Y-58456353D01*
X79166150Y-58460946D01*
X79161719Y-58465845D01*
X79157319Y-58471049D01*
X79152949Y-58476559D01*
X79148608Y-58482373D01*
X79144298Y-58488493D01*
X79140018Y-58494919D01*
X79135767Y-58501650D01*
X79131547Y-58508686D01*
X79127357Y-58516027D01*
X79123197Y-58523674D01*
X79119067Y-58531626D01*
X79114967Y-58539884D01*
X78998344Y-58777617D01*
X78735621Y-58777617D01*
X78869545Y-58505921D01*
X78878877Y-58487808D01*
X78888288Y-58470637D01*
X78897780Y-58454407D01*
X78902556Y-58446645D01*
X78907351Y-58439118D01*
X78912167Y-58431827D01*
X78917003Y-58424771D01*
X78921859Y-58417950D01*
X78926735Y-58411364D01*
X78931631Y-58405014D01*
X78936547Y-58398899D01*
X78941483Y-58393019D01*
X78946440Y-58387375D01*
X78951391Y-58381971D01*
X78956472Y-58376812D01*
X78961683Y-58371898D01*
X78967025Y-58367230D01*
X78972497Y-58362807D01*
X78978098Y-58358630D01*
X78983830Y-58354697D01*
X78989693Y-58351010D01*
X78995685Y-58347569D01*
X79001808Y-58344372D01*
X79008060Y-58341421D01*
X79014443Y-58338715D01*
X79020956Y-58336255D01*
X79027599Y-58334039D01*
X79034373Y-58332070D01*
X79041276Y-58330345D01*
X79019006Y-58322628D01*
X78998173Y-58313895D01*
X78978777Y-58304145D01*
X78960817Y-58293379D01*
X78952376Y-58287615D01*
X78944294Y-58281597D01*
X78936572Y-58275325D01*
X78929208Y-58268799D01*
X78922204Y-58262019D01*
X78915559Y-58254985D01*
X78909273Y-58247697D01*
X78903346Y-58240155D01*
X78897779Y-58232358D01*
X78892571Y-58224308D01*
X78887722Y-58216003D01*
X78883232Y-58207445D01*
X78879101Y-58198632D01*
X78875330Y-58189566D01*
X78871917Y-58180245D01*
X78868864Y-58170670D01*
X78863835Y-58150758D01*
X78860243Y-58129830D01*
X78859420Y-58121451D01*
X79104073Y-58121451D01*
X79104201Y-58129247D01*
X79104584Y-58136787D01*
X79105222Y-58144066D01*
X79106115Y-58151084D01*
X79107264Y-58157843D01*
X79108669Y-58164341D01*
X79110328Y-58170578D01*
X79112243Y-58176556D01*
X79114413Y-58182273D01*
X79116839Y-58187729D01*
X79119519Y-58192926D01*
X79122456Y-58197862D01*
X79125647Y-58202537D01*
X79129094Y-58206953D01*
X79132796Y-58211108D01*
X79136753Y-58215003D01*
X79140946Y-58218650D01*
X79145514Y-58222062D01*
X79150458Y-58225239D01*
X79155777Y-58228180D01*
X79161471Y-58230886D01*
X79167541Y-58233356D01*
X79173987Y-58235592D01*
X79180807Y-58237592D01*
X79188004Y-58239356D01*
X79195576Y-58240885D01*
X79203523Y-58242180D01*
X79211846Y-58243238D01*
X79220544Y-58244062D01*
X79229617Y-58244650D01*
X79239067Y-58245003D01*
X79248891Y-58245120D01*
X79352699Y-58245120D01*
X79352699Y-57999700D01*
X79248891Y-57999700D01*
X79239752Y-57999808D01*
X79230919Y-58000131D01*
X79222391Y-58000669D01*
X79214168Y-58001423D01*
X79206251Y-58002391D01*
X79198639Y-58003575D01*
X79191333Y-58004974D01*
X79184332Y-58006589D01*
X79177636Y-58008419D01*
X79171246Y-58010464D01*
X79165161Y-58012724D01*
X79159381Y-58015199D01*
X79153907Y-58017890D01*
X79148738Y-58020796D01*
X79143875Y-58023918D01*
X79139316Y-58027254D01*
X79135049Y-58030776D01*
X79131056Y-58034613D01*
X79127339Y-58038765D01*
X79123898Y-58043233D01*
X79120731Y-58048016D01*
X79117840Y-58053115D01*
X79115224Y-58058529D01*
X79112884Y-58064259D01*
X79110819Y-58070304D01*
X79109029Y-58076664D01*
X79107515Y-58083340D01*
X79106276Y-58090331D01*
X79105312Y-58097638D01*
X79104624Y-58105260D01*
X79104211Y-58113198D01*
X79104073Y-58121451D01*
X78859420Y-58121451D01*
X78859420Y-58121447D01*
X78858088Y-58107886D01*
X78857370Y-58084925D01*
X78857370Y-58084921D01*
X78857440Y-58077215D01*
X78857650Y-58069633D01*
X78858001Y-58062176D01*
X78858492Y-58054845D01*
X78859122Y-58047639D01*
X78859893Y-58040558D01*
X78860804Y-58033602D01*
X78861856Y-58026771D01*
X78863047Y-58020065D01*
X78864379Y-58013485D01*
X78865851Y-58007029D01*
X78867463Y-58000699D01*
X78869215Y-57994494D01*
X78871107Y-57988414D01*
X78873140Y-57982459D01*
X78875312Y-57976629D01*
X78877567Y-57970825D01*
X78880008Y-57965106D01*
X78882634Y-57959472D01*
X78885445Y-57953923D01*
X78888441Y-57948458D01*
X78891622Y-57943080D01*
X78894989Y-57937786D01*
X78898541Y-57932577D01*
X78902278Y-57927453D01*
X78906200Y-57922414D01*
X78910308Y-57917461D01*
X78914601Y-57912592D01*
X78919079Y-57907808D01*
X78923742Y-57903110D01*
X78928590Y-57898496D01*
X78933624Y-57893968D01*
X78938873Y-57889550D01*
X78944367Y-57885267D01*
X78950107Y-57881119D01*
X78956092Y-57877107D01*
X78962322Y-57873229D01*
X78968797Y-57869487D01*
X78975518Y-57865881D01*
X78982484Y-57862409D01*
X78989695Y-57859072D01*
X78997152Y-57855871D01*
X79004854Y-57852805D01*
X79012801Y-57849874D01*
X79020994Y-57847078D01*
X79029432Y-57844418D01*
X79038115Y-57841892D01*
X79047043Y-57839501D01*
X79065626Y-57835146D01*
X79085170Y-57831372D01*
X79105676Y-57828178D01*
X79127142Y-57825565D01*
X79149570Y-57823533D01*
X79172958Y-57822081D01*
X79197308Y-57821210D01*
X79222619Y-57820920D01*
X79599403Y-57820920D01*
X79599403Y-58777617D01*
G37*
G36*
X97756034Y-56144933D02*
G01*
X97320000Y-56144933D01*
X97320000Y-55708900D01*
X97756034Y-55708900D01*
X97756034Y-56144933D01*
G37*
G36*
X98179368Y-50641601D02*
G01*
X97743334Y-50641601D01*
X97743334Y-50205567D01*
X98179368Y-50205567D01*
X98179368Y-50641601D01*
G37*
G36*
X93522700Y-49371600D02*
G01*
X93086668Y-49371600D01*
X93086668Y-48935567D01*
X93522700Y-48935567D01*
X93522700Y-49371600D01*
G37*
G36*
X104106032Y-49371600D02*
G01*
X103670000Y-49371600D01*
X103670000Y-48935567D01*
X104106032Y-48935567D01*
X104106032Y-49371600D01*
G37*
G36*
X102836033Y-51064934D02*
G01*
X102400001Y-51064934D01*
X102400001Y-50628900D01*
X102836033Y-50628900D01*
X102836033Y-51064934D01*
G37*
G36*
X99026034Y-53181600D02*
G01*
X98590000Y-53181600D01*
X98590000Y-52745566D01*
X99026034Y-52745566D01*
X99026034Y-53181600D01*
G37*
G36*
X98179368Y-55721600D02*
G01*
X97743334Y-55721600D01*
X97743334Y-55285567D01*
X98179368Y-55285567D01*
X98179368Y-55721600D01*
G37*
G36*
X101989367Y-49371600D02*
G01*
X101553333Y-49371600D01*
X101553333Y-48935567D01*
X101989367Y-48935567D01*
X101989367Y-49371600D01*
G37*
G36*
X99026034Y-52758267D02*
G01*
X98590000Y-52758267D01*
X98590000Y-52322233D01*
X99026034Y-52322233D01*
X99026034Y-52758267D01*
G37*
G36*
X99026034Y-47254933D02*
G01*
X98590000Y-47254933D01*
X98590000Y-46818900D01*
X99026034Y-46818900D01*
X99026034Y-47254933D01*
G37*
G36*
X98179368Y-57838265D02*
G01*
X97743334Y-57838265D01*
X97743334Y-57402233D01*
X98179368Y-57402233D01*
X98179368Y-57838265D01*
G37*
G36*
X99449367Y-50218267D02*
G01*
X99013334Y-50218267D01*
X99013334Y-49782233D01*
X99449367Y-49782233D01*
X99449367Y-50218267D01*
G37*
G36*
X101989367Y-51911600D02*
G01*
X101553333Y-51911600D01*
X101553333Y-51475567D01*
X101989367Y-51475567D01*
X101989367Y-51911600D01*
G37*
G36*
X93946034Y-46408267D02*
G01*
X93510001Y-46408267D01*
X93510001Y-45972234D01*
X93946034Y-45972234D01*
X93946034Y-46408267D01*
G37*
G36*
X96486034Y-50641601D02*
G01*
X96050001Y-50641601D01*
X96050001Y-50205567D01*
X96486034Y-50205567D01*
X96486034Y-50641601D01*
G37*
G36*
X101566035Y-49371600D02*
G01*
X101130000Y-49371600D01*
X101130000Y-48935567D01*
X101566035Y-48935567D01*
X101566035Y-49371600D01*
G37*
G36*
X95639368Y-45561600D02*
G01*
X95203334Y-45561600D01*
X95203334Y-45125567D01*
X95639368Y-45125567D01*
X95639368Y-45561600D01*
G37*
G36*
X90982701Y-54874933D02*
G01*
X90546668Y-54874933D01*
X90546668Y-54438900D01*
X90982701Y-54438900D01*
X90982701Y-54874933D01*
G37*
G36*
X99449367Y-50641601D02*
G01*
X99013334Y-50641601D01*
X99013334Y-50205567D01*
X99449367Y-50205567D01*
X99449367Y-50641601D01*
G37*
G36*
X103259367Y-59954932D02*
G01*
X102823333Y-59954932D01*
X102823333Y-59518900D01*
X103259367Y-59518900D01*
X103259367Y-59954932D01*
G37*
G36*
X102412699Y-53181600D02*
G01*
X101976667Y-53181600D01*
X101976667Y-52745566D01*
X102412699Y-52745566D01*
X102412699Y-53181600D01*
G37*
G36*
X94369367Y-45984933D02*
G01*
X93933334Y-45984933D01*
X93933334Y-45548900D01*
X94369367Y-45548900D01*
X94369367Y-45984933D01*
G37*
G36*
X89712701Y-56991601D02*
G01*
X89276668Y-56991601D01*
X89276668Y-56555566D01*
X89712701Y-56555566D01*
X89712701Y-56991601D01*
G37*
G36*
X101989367Y-56991601D02*
G01*
X101553333Y-56991601D01*
X101553333Y-56555566D01*
X101989367Y-56555566D01*
X101989367Y-56991601D01*
G37*
G36*
X101566035Y-59954932D02*
G01*
X101130000Y-59954932D01*
X101130000Y-59518900D01*
X101566035Y-59518900D01*
X101566035Y-59954932D01*
G37*
G36*
X103259367Y-55298266D02*
G01*
X102823333Y-55298266D01*
X102823333Y-54862233D01*
X103259367Y-54862233D01*
X103259367Y-55298266D01*
G37*
G36*
X92252701Y-48524933D02*
G01*
X91816667Y-48524933D01*
X91816667Y-48088900D01*
X92252701Y-48088900D01*
X92252701Y-48524933D01*
G37*
G36*
X104106032Y-52758267D02*
G01*
X103670000Y-52758267D01*
X103670000Y-52322233D01*
X104106032Y-52322233D01*
X104106032Y-52758267D01*
G37*
G36*
X102412699Y-48524933D02*
G01*
X101976667Y-48524933D01*
X101976667Y-48088900D01*
X102412699Y-48088900D01*
X102412699Y-48524933D01*
G37*
G36*
X92252701Y-55298266D02*
G01*
X91816667Y-55298266D01*
X91816667Y-54862233D01*
X92252701Y-54862233D01*
X92252701Y-55298266D01*
G37*
G36*
X96062701Y-53181600D02*
G01*
X95626667Y-53181600D01*
X95626667Y-52745566D01*
X96062701Y-52745566D01*
X96062701Y-53181600D01*
G37*
G36*
X99449367Y-57414933D02*
G01*
X99013334Y-57414933D01*
X99013334Y-56978899D01*
X99449367Y-56978899D01*
X99449367Y-57414933D01*
G37*
G36*
X93946034Y-51911600D02*
G01*
X93510001Y-51911600D01*
X93510001Y-51475567D01*
X93946034Y-51475567D01*
X93946034Y-51911600D01*
G37*
G36*
X101566035Y-56144933D02*
G01*
X101130000Y-56144933D01*
X101130000Y-55708900D01*
X101566035Y-55708900D01*
X101566035Y-56144933D01*
G37*
G36*
X83008145Y-57530324D02*
G01*
X82753674Y-57530324D01*
X82691207Y-57351471D01*
X82295364Y-57351471D01*
X82233554Y-57530324D01*
X81979083Y-57530324D01*
X82112795Y-57169328D01*
X82359146Y-57169328D01*
X82628082Y-57169328D01*
X82493285Y-56778746D01*
X82359146Y-57169328D01*
X82112795Y-57169328D01*
X82342707Y-56548608D01*
X82644521Y-56548608D01*
X83008145Y-57530324D01*
G37*
G36*
X93099367Y-51064934D02*
G01*
X92663334Y-51064934D01*
X92663334Y-50628900D01*
X93099367Y-50628900D01*
X93099367Y-51064934D01*
G37*
G36*
X90136034Y-54028267D02*
G01*
X89700001Y-54028267D01*
X89700001Y-53592233D01*
X90136034Y-53592233D01*
X90136034Y-54028267D01*
G37*
G36*
X101989367Y-55298266D02*
G01*
X101553333Y-55298266D01*
X101553333Y-54862233D01*
X101989367Y-54862233D01*
X101989367Y-55298266D01*
G37*
G36*
X96486034Y-51911600D02*
G01*
X96050001Y-51911600D01*
X96050001Y-51475567D01*
X96486034Y-51475567D01*
X96486034Y-51911600D01*
G37*
G36*
X95639368Y-49794933D02*
G01*
X95203334Y-49794933D01*
X95203334Y-49358900D01*
X95639368Y-49358900D01*
X95639368Y-49794933D01*
G37*
G36*
X100719367Y-46408267D02*
G01*
X100283334Y-46408267D01*
X100283334Y-45972234D01*
X100719367Y-45972234D01*
X100719367Y-46408267D01*
G37*
G36*
X96486034Y-57838265D02*
G01*
X96050001Y-57838265D01*
X96050001Y-57402233D01*
X96486034Y-57402233D01*
X96486034Y-57838265D01*
G37*
G36*
X99449367Y-59108266D02*
G01*
X99013334Y-59108266D01*
X99013334Y-58672233D01*
X99449367Y-58672233D01*
X99449367Y-59108266D01*
G37*
G36*
X103259367Y-51488267D02*
G01*
X102823333Y-51488267D01*
X102823333Y-51052233D01*
X103259367Y-51052233D01*
X103259367Y-51488267D01*
G37*
G36*
X101142701Y-51911600D02*
G01*
X100706667Y-51911600D01*
X100706667Y-51475567D01*
X101142701Y-51475567D01*
X101142701Y-51911600D01*
G37*
D11*
X80170000Y-44401287D02*
X80170000Y-44670000D01*
D10*
G36*
X90136034Y-54874933D02*
G01*
X89700001Y-54874933D01*
X89700001Y-54438900D01*
X90136034Y-54438900D01*
X90136034Y-54874933D01*
G37*
G36*
X102836033Y-54451600D02*
G01*
X102400001Y-54451600D01*
X102400001Y-54015566D01*
X102836033Y-54015566D01*
X102836033Y-54451600D01*
G37*
G36*
X93946034Y-50641601D02*
G01*
X93510001Y-50641601D01*
X93510001Y-50205567D01*
X93946034Y-50205567D01*
X93946034Y-50641601D01*
G37*
G36*
X103259367Y-59108266D02*
G01*
X102823333Y-59108266D01*
X102823333Y-58672233D01*
X103259367Y-58672233D01*
X103259367Y-59108266D01*
G37*
G36*
X77375839Y-58350912D02*
G01*
X77390341Y-58352043D01*
X77404633Y-58353905D01*
X77418695Y-58356481D01*
X77432511Y-58359751D01*
X77446062Y-58363698D01*
X77459331Y-58368303D01*
X77472299Y-58373547D01*
X77484948Y-58379412D01*
X77497261Y-58385880D01*
X77509220Y-58392933D01*
X77520806Y-58400551D01*
X77532002Y-58408717D01*
X77542790Y-58417412D01*
X77553152Y-58426617D01*
X77563069Y-58436315D01*
X77572525Y-58446487D01*
X77581500Y-58457114D01*
X77589978Y-58468178D01*
X77597940Y-58479662D01*
X77605367Y-58491545D01*
X77612243Y-58503810D01*
X77618550Y-58516439D01*
X77624269Y-58529413D01*
X77629382Y-58542713D01*
X77633871Y-58556322D01*
X77637719Y-58570221D01*
X77640908Y-58584391D01*
X77643419Y-58598814D01*
X77645235Y-58613472D01*
X77646338Y-58628347D01*
X77646710Y-58643419D01*
X77646338Y-58658491D01*
X77645235Y-58673365D01*
X77643419Y-58688023D01*
X77640908Y-58702446D01*
X77637719Y-58716617D01*
X77633871Y-58730515D01*
X77629381Y-58744124D01*
X77624268Y-58757425D01*
X77618549Y-58770398D01*
X77612243Y-58783027D01*
X77605367Y-58795293D01*
X77597939Y-58807176D01*
X77589977Y-58818659D01*
X77581500Y-58829723D01*
X77572524Y-58840351D01*
X77563069Y-58850522D01*
X77553151Y-58860220D01*
X77542789Y-58869426D01*
X77532002Y-58878121D01*
X77520805Y-58886287D01*
X77509219Y-58893905D01*
X77497260Y-58900957D01*
X77484947Y-58907425D01*
X77472298Y-58913291D01*
X77459330Y-58918535D01*
X77446061Y-58923139D01*
X77432510Y-58927086D01*
X77418694Y-58930357D01*
X77404631Y-58932932D01*
X77390339Y-58934795D01*
X77375837Y-58935926D01*
X77361142Y-58936307D01*
X77346447Y-58935926D01*
X77331944Y-58934795D01*
X77317653Y-58932932D01*
X77303590Y-58930357D01*
X77289774Y-58927086D01*
X77276223Y-58923139D01*
X77262955Y-58918535D01*
X77249987Y-58913291D01*
X77237337Y-58907425D01*
X77225024Y-58900957D01*
X77213065Y-58893905D01*
X77201479Y-58886287D01*
X77190283Y-58878121D01*
X77179495Y-58869426D01*
X77169134Y-58860220D01*
X77159216Y-58850522D01*
X77149761Y-58840351D01*
X77140785Y-58829723D01*
X77132308Y-58818659D01*
X77124346Y-58807176D01*
X77116918Y-58795293D01*
X77110042Y-58783027D01*
X77103736Y-58770398D01*
X77098017Y-58757425D01*
X77092904Y-58744124D01*
X77088414Y-58730515D01*
X77084566Y-58716617D01*
X77081377Y-58702446D01*
X77078866Y-58688023D01*
X77077050Y-58673365D01*
X77075947Y-58658491D01*
X77075576Y-58643419D01*
X77075947Y-58628347D01*
X77077050Y-58613472D01*
X77078866Y-58598814D01*
X77081378Y-58584391D01*
X77084566Y-58570221D01*
X77088415Y-58556322D01*
X77092904Y-58542713D01*
X77098017Y-58529413D01*
X77103736Y-58516439D01*
X77110043Y-58503810D01*
X77116919Y-58491545D01*
X77124347Y-58479662D01*
X77132308Y-58468178D01*
X77140786Y-58457114D01*
X77149761Y-58446487D01*
X77159217Y-58436315D01*
X77169134Y-58426617D01*
X77179496Y-58417412D01*
X77190284Y-58408717D01*
X77201480Y-58400551D01*
X77213066Y-58392933D01*
X77225025Y-58385880D01*
X77237338Y-58379412D01*
X77249988Y-58373547D01*
X77262956Y-58368303D01*
X77276225Y-58363698D01*
X77289776Y-58359751D01*
X77303592Y-58356481D01*
X77317655Y-58353905D01*
X77331946Y-58352043D01*
X77346448Y-58350912D01*
X77361144Y-58350531D01*
X77375839Y-58350912D01*
G37*
G36*
X94369367Y-48524933D02*
G01*
X93933334Y-48524933D01*
X93933334Y-48088900D01*
X94369367Y-48088900D01*
X94369367Y-48524933D01*
G37*
G36*
X98179368Y-54874933D02*
G01*
X97743334Y-54874933D01*
X97743334Y-54438900D01*
X98179368Y-54438900D01*
X98179368Y-54874933D01*
G37*
G36*
X90559367Y-48524933D02*
G01*
X90123334Y-48524933D01*
X90123334Y-48088900D01*
X90559367Y-48088900D01*
X90559367Y-48524933D01*
G37*
G36*
X89712701Y-49371600D02*
G01*
X89276668Y-49371600D01*
X89276668Y-48935567D01*
X89712701Y-48935567D01*
X89712701Y-49371600D01*
G37*
G36*
X100296034Y-60378266D02*
G01*
X99860001Y-60378266D01*
X99860001Y-59942232D01*
X100296034Y-59942232D01*
X100296034Y-60378266D01*
G37*
G36*
X99449367Y-54028267D02*
G01*
X99013334Y-54028267D01*
X99013334Y-53592233D01*
X99449367Y-53592233D01*
X99449367Y-54028267D01*
G37*
G36*
X98602701Y-59954932D02*
G01*
X98166667Y-59954932D01*
X98166667Y-59518900D01*
X98602701Y-59518900D01*
X98602701Y-59954932D01*
G37*
G36*
X100719367Y-59954932D02*
G01*
X100283334Y-59954932D01*
X100283334Y-59518900D01*
X100719367Y-59518900D01*
X100719367Y-59954932D01*
G37*
G36*
X93522700Y-45984933D02*
G01*
X93086668Y-45984933D01*
X93086668Y-45548900D01*
X93522700Y-45548900D01*
X93522700Y-45984933D01*
G37*
G36*
X96062701Y-51064934D02*
G01*
X95626667Y-51064934D01*
X95626667Y-50628900D01*
X96062701Y-50628900D01*
X96062701Y-51064934D01*
G37*
G36*
X104529366Y-50218267D02*
G01*
X104093334Y-50218267D01*
X104093334Y-49782233D01*
X104529366Y-49782233D01*
X104529366Y-50218267D01*
G37*
G36*
X96062701Y-60378266D02*
G01*
X95626667Y-60378266D01*
X95626667Y-59942232D01*
X96062701Y-59942232D01*
X96062701Y-60378266D01*
G37*
G36*
X92676034Y-55721600D02*
G01*
X92240001Y-55721600D01*
X92240001Y-55285567D01*
X92676034Y-55285567D01*
X92676034Y-55721600D01*
G37*
G36*
X96909367Y-57414933D02*
G01*
X96473334Y-57414933D01*
X96473334Y-56978899D01*
X96909367Y-56978899D01*
X96909367Y-57414933D01*
G37*
G36*
X100296034Y-48524933D02*
G01*
X99860001Y-48524933D01*
X99860001Y-48088900D01*
X100296034Y-48088900D01*
X100296034Y-48524933D01*
G37*
G36*
X93099367Y-51911600D02*
G01*
X92663334Y-51911600D01*
X92663334Y-51475567D01*
X93099367Y-51475567D01*
X93099367Y-51911600D01*
G37*
G36*
X94792701Y-59531598D02*
G01*
X94356667Y-59531598D01*
X94356667Y-59095566D01*
X94792701Y-59095566D01*
X94792701Y-59531598D01*
G37*
G36*
X104106032Y-55298266D02*
G01*
X103670000Y-55298266D01*
X103670000Y-54862233D01*
X104106032Y-54862233D01*
X104106032Y-55298266D01*
G37*
G36*
X100719367Y-51488267D02*
G01*
X100283334Y-51488267D01*
X100283334Y-51052233D01*
X100719367Y-51052233D01*
X100719367Y-51488267D01*
G37*
G36*
X97756034Y-51911600D02*
G01*
X97320000Y-51911600D01*
X97320000Y-51475567D01*
X97756034Y-51475567D01*
X97756034Y-51911600D01*
G37*
G36*
X96486034Y-46408267D02*
G01*
X96050001Y-46408267D01*
X96050001Y-45972234D01*
X96486034Y-45972234D01*
X96486034Y-46408267D01*
G37*
G36*
X103259367Y-48524933D02*
G01*
X102823333Y-48524933D01*
X102823333Y-48088900D01*
X103259367Y-48088900D01*
X103259367Y-48524933D01*
G37*
G36*
X93522700Y-45138267D02*
G01*
X93086668Y-45138267D01*
X93086668Y-44702234D01*
X93522700Y-44702234D01*
X93522700Y-45138267D01*
G37*
G36*
X92240001Y-60365566D02*
G01*
X89276668Y-60365566D01*
X89276668Y-57825567D01*
X89700001Y-57825567D01*
X89700001Y-59942232D01*
X91816667Y-59942232D01*
X91816667Y-57825567D01*
X89700001Y-57825567D01*
X89276668Y-57825567D01*
X89276668Y-57402233D01*
X92240001Y-57402233D01*
X92240001Y-60365566D01*
G37*
G36*
X97756034Y-54028267D02*
G01*
X97320000Y-54028267D01*
X97320000Y-53592233D01*
X97756034Y-53592233D01*
X97756034Y-54028267D01*
G37*
G36*
X104106032Y-53604934D02*
G01*
X103670000Y-53604934D01*
X103670000Y-53168900D01*
X104106032Y-53168900D01*
X104106032Y-53604934D01*
G37*
G36*
X102412699Y-54874933D02*
G01*
X101976667Y-54874933D01*
X101976667Y-54438900D01*
X102412699Y-54438900D01*
X102412699Y-54874933D01*
G37*
G36*
X99026034Y-60378266D02*
G01*
X98590000Y-60378266D01*
X98590000Y-59942232D01*
X99026034Y-59942232D01*
X99026034Y-60378266D01*
G37*
G36*
X97332701Y-49371600D02*
G01*
X96896667Y-49371600D01*
X96896667Y-48935567D01*
X97332701Y-48935567D01*
X97332701Y-49371600D01*
G37*
G36*
X93099367Y-46408267D02*
G01*
X92663334Y-46408267D01*
X92663334Y-45972234D01*
X93099367Y-45972234D01*
X93099367Y-46408267D01*
G37*
G36*
X101989367Y-58684933D02*
G01*
X101553333Y-58684933D01*
X101553333Y-58248899D01*
X101989367Y-58248899D01*
X101989367Y-58684933D01*
G37*
G36*
X97332701Y-54028267D02*
G01*
X96896667Y-54028267D01*
X96896667Y-53592233D01*
X97332701Y-53592233D01*
X97332701Y-54028267D01*
G37*
D12*
X76695999Y-58760712D02*
X76695999Y-55020000D01*
D10*
G36*
X104952700Y-52758267D02*
G01*
X104516666Y-52758267D01*
X104516666Y-52322233D01*
X104952700Y-52322233D01*
X104952700Y-52758267D01*
G37*
G36*
X93522700Y-55298266D02*
G01*
X93086668Y-55298266D01*
X93086668Y-54862233D01*
X93522700Y-54862233D01*
X93522700Y-55298266D01*
G37*
D11*
X80868713Y-45100000D02*
G75*
G03*
X80868713Y-45100000I-698713J0D01*
G01*
D10*
G36*
X91406034Y-52758267D02*
G01*
X90970001Y-52758267D01*
X90970001Y-52322233D01*
X91406034Y-52322233D01*
X91406034Y-52758267D01*
G37*
G36*
X101566035Y-54874933D02*
G01*
X101130000Y-54874933D01*
X101130000Y-54438900D01*
X101566035Y-54438900D01*
X101566035Y-54874933D01*
G37*
G36*
X102836033Y-51488267D02*
G01*
X102400001Y-51488267D01*
X102400001Y-51052233D01*
X102836033Y-51052233D01*
X102836033Y-51488267D01*
G37*
G36*
X94792701Y-55721600D02*
G01*
X94356667Y-55721600D01*
X94356667Y-55285567D01*
X94792701Y-55285567D01*
X94792701Y-55721600D01*
G37*
G36*
X97332701Y-57414933D02*
G01*
X96896667Y-57414933D01*
X96896667Y-56978899D01*
X97332701Y-56978899D01*
X97332701Y-57414933D01*
G37*
G36*
X99026034Y-51911600D02*
G01*
X98590000Y-51911600D01*
X98590000Y-51475567D01*
X99026034Y-51475567D01*
X99026034Y-51911600D01*
G37*
G36*
X101142701Y-56144933D02*
G01*
X100706667Y-56144933D01*
X100706667Y-55708900D01*
X101142701Y-55708900D01*
X101142701Y-56144933D01*
G37*
G36*
X98602701Y-52758267D02*
G01*
X98166667Y-52758267D01*
X98166667Y-52322233D01*
X98602701Y-52322233D01*
X98602701Y-52758267D01*
G37*
G36*
X90559367Y-54028267D02*
G01*
X90123334Y-54028267D01*
X90123334Y-53592233D01*
X90559367Y-53592233D01*
X90559367Y-54028267D01*
G37*
G36*
X96062701Y-59531598D02*
G01*
X95626667Y-59531598D01*
X95626667Y-59095566D01*
X96062701Y-59095566D01*
X96062701Y-59531598D01*
G37*
G36*
X94792701Y-56568267D02*
G01*
X94356667Y-56568267D01*
X94356667Y-56132233D01*
X94792701Y-56132233D01*
X94792701Y-56568267D01*
G37*
G36*
X96062701Y-51488267D02*
G01*
X95626667Y-51488267D01*
X95626667Y-51052233D01*
X96062701Y-51052233D01*
X96062701Y-51488267D01*
G37*
G36*
X97332701Y-56144933D02*
G01*
X96896667Y-56144933D01*
X96896667Y-55708900D01*
X97332701Y-55708900D01*
X97332701Y-56144933D01*
G37*
G36*
X94369367Y-49794933D02*
G01*
X93933334Y-49794933D01*
X93933334Y-49358900D01*
X94369367Y-49358900D01*
X94369367Y-49794933D01*
G37*
G36*
X96062701Y-46408267D02*
G01*
X95626667Y-46408267D01*
X95626667Y-45972234D01*
X96062701Y-45972234D01*
X96062701Y-46408267D01*
G37*
G36*
X100296034Y-51488267D02*
G01*
X99860001Y-51488267D01*
X99860001Y-51052233D01*
X100296034Y-51052233D01*
X100296034Y-51488267D01*
G37*
G36*
X101989367Y-59108266D02*
G01*
X101553333Y-59108266D01*
X101553333Y-58672233D01*
X101989367Y-58672233D01*
X101989367Y-59108266D01*
G37*
G36*
X93099367Y-60378266D02*
G01*
X92663334Y-60378266D01*
X92663334Y-59942232D01*
X93099367Y-59942232D01*
X93099367Y-60378266D01*
G37*
G36*
X95639368Y-59954932D02*
G01*
X95203334Y-59954932D01*
X95203334Y-59518900D01*
X95639368Y-59518900D01*
X95639368Y-59954932D01*
G37*
G36*
X99872700Y-53181600D02*
G01*
X99436667Y-53181600D01*
X99436667Y-52745566D01*
X99872700Y-52745566D01*
X99872700Y-53181600D01*
G37*
G36*
X103682700Y-53604934D02*
G01*
X103246667Y-53604934D01*
X103246667Y-53168900D01*
X103682700Y-53168900D01*
X103682700Y-53604934D01*
G37*
G36*
X101142701Y-51064934D02*
G01*
X100706667Y-51064934D01*
X100706667Y-50628900D01*
X101142701Y-50628900D01*
X101142701Y-51064934D01*
G37*
G36*
X93522700Y-60378266D02*
G01*
X93086668Y-60378266D01*
X93086668Y-59942232D01*
X93522700Y-59942232D01*
X93522700Y-60378266D01*
G37*
G36*
X90559367Y-49371600D02*
G01*
X90123334Y-49371600D01*
X90123334Y-48935567D01*
X90559367Y-48935567D01*
X90559367Y-49371600D01*
G37*
G36*
X93946034Y-47678267D02*
G01*
X93510001Y-47678267D01*
X93510001Y-47242233D01*
X93946034Y-47242233D01*
X93946034Y-47678267D01*
G37*
G36*
X96486034Y-52758267D02*
G01*
X96050001Y-52758267D01*
X96050001Y-52322233D01*
X96486034Y-52322233D01*
X96486034Y-52758267D01*
G37*
G36*
X102836033Y-49794933D02*
G01*
X102400001Y-49794933D01*
X102400001Y-49358900D01*
X102836033Y-49358900D01*
X102836033Y-49794933D01*
G37*
G36*
X94369367Y-53181600D02*
G01*
X93933334Y-53181600D01*
X93933334Y-52745566D01*
X94369367Y-52745566D01*
X94369367Y-53181600D01*
G37*
G36*
X101566035Y-56991601D02*
G01*
X101130000Y-56991601D01*
X101130000Y-56555566D01*
X101566035Y-56555566D01*
X101566035Y-56991601D01*
G37*
G36*
X93099367Y-49371600D02*
G01*
X92663334Y-49371600D01*
X92663334Y-48935567D01*
X93099367Y-48935567D01*
X93099367Y-49371600D01*
G37*
G36*
X92676034Y-49371600D02*
G01*
X92240001Y-49371600D01*
X92240001Y-48935567D01*
X92676034Y-48935567D01*
X92676034Y-49371600D01*
G37*
G36*
X104952700Y-59954932D02*
G01*
X104516666Y-59954932D01*
X104516666Y-59518900D01*
X104952700Y-59518900D01*
X104952700Y-59954932D01*
G37*
G36*
X99449367Y-59954932D02*
G01*
X99013334Y-59954932D01*
X99013334Y-59518900D01*
X99449367Y-59518900D01*
X99449367Y-59954932D01*
G37*
G36*
X99026034Y-50218267D02*
G01*
X98590000Y-50218267D01*
X98590000Y-49782233D01*
X99026034Y-49782233D01*
X99026034Y-50218267D01*
G37*
G36*
X101566035Y-49794933D02*
G01*
X101130000Y-49794933D01*
X101130000Y-49358900D01*
X101566035Y-49358900D01*
X101566035Y-49794933D01*
G37*
G36*
X104952700Y-55298266D02*
G01*
X104516666Y-55298266D01*
X104516666Y-54862233D01*
X104952700Y-54862233D01*
X104952700Y-55298266D01*
G37*
G36*
X103259367Y-54451600D02*
G01*
X102823333Y-54451600D01*
X102823333Y-54015566D01*
X103259367Y-54015566D01*
X103259367Y-54451600D01*
G37*
G36*
X96486034Y-51064934D02*
G01*
X96050001Y-51064934D01*
X96050001Y-50628900D01*
X96486034Y-50628900D01*
X96486034Y-51064934D01*
G37*
G36*
X93099367Y-54451600D02*
G01*
X92663334Y-54451600D01*
X92663334Y-54015566D01*
X93099367Y-54015566D01*
X93099367Y-54451600D01*
G37*
G36*
X93099367Y-51488267D02*
G01*
X92663334Y-51488267D01*
X92663334Y-51052233D01*
X93099367Y-51052233D01*
X93099367Y-51488267D01*
G37*
G36*
X92252701Y-49371600D02*
G01*
X91816667Y-49371600D01*
X91816667Y-48935567D01*
X92252701Y-48935567D01*
X92252701Y-49371600D01*
G37*
G36*
X104952700Y-54451600D02*
G01*
X104516666Y-54451600D01*
X104516666Y-54015566D01*
X104952700Y-54015566D01*
X104952700Y-54451600D01*
G37*
G36*
X102836033Y-50641601D02*
G01*
X102400001Y-50641601D01*
X102400001Y-50205567D01*
X102836033Y-50205567D01*
X102836033Y-50641601D01*
G37*
G36*
X96062701Y-58684933D02*
G01*
X95626667Y-58684933D01*
X95626667Y-58248899D01*
X96062701Y-58248899D01*
X96062701Y-58684933D01*
G37*
G36*
X104529366Y-50641601D02*
G01*
X104093334Y-50641601D01*
X104093334Y-50205567D01*
X104529366Y-50205567D01*
X104529366Y-50641601D01*
G37*
G36*
X101142701Y-58684933D02*
G01*
X100706667Y-58684933D01*
X100706667Y-58248899D01*
X101142701Y-58248899D01*
X101142701Y-58684933D01*
G37*
G36*
X97332701Y-48524933D02*
G01*
X96896667Y-48524933D01*
X96896667Y-48088900D01*
X97332701Y-48088900D01*
X97332701Y-48524933D01*
G37*
G36*
X101989367Y-53604934D02*
G01*
X101553333Y-53604934D01*
X101553333Y-53168900D01*
X101989367Y-53168900D01*
X101989367Y-53604934D01*
G37*
G36*
X91829367Y-55721600D02*
G01*
X91393334Y-55721600D01*
X91393334Y-55285567D01*
X91829367Y-55285567D01*
X91829367Y-55721600D01*
G37*
G36*
X91393334Y-59518900D02*
G01*
X90123334Y-59518900D01*
X90123334Y-58248899D01*
X91393334Y-58248899D01*
X91393334Y-59518900D01*
G37*
G36*
X104529366Y-48948266D02*
G01*
X104093334Y-48948266D01*
X104093334Y-48512234D01*
X104529366Y-48512234D01*
X104529366Y-48948266D01*
G37*
G36*
X101142701Y-59531598D02*
G01*
X100706667Y-59531598D01*
X100706667Y-59095566D01*
X101142701Y-59095566D01*
X101142701Y-59531598D01*
G37*
G36*
X92252701Y-52758267D02*
G01*
X91816667Y-52758267D01*
X91816667Y-52322233D01*
X92252701Y-52322233D01*
X92252701Y-52758267D01*
G37*
G36*
X81473620Y-56531152D02*
G01*
X81494276Y-56532046D01*
X81514347Y-56533536D01*
X81533832Y-56535622D01*
X81552731Y-56538303D01*
X81571045Y-56541581D01*
X81588773Y-56545454D01*
X81605915Y-56549923D01*
X81622472Y-56554988D01*
X81638444Y-56560649D01*
X81653829Y-56566906D01*
X81668629Y-56573759D01*
X81682843Y-56581208D01*
X81696472Y-56589252D01*
X81709515Y-56597893D01*
X81721973Y-56607129D01*
X81733757Y-56616958D01*
X81744781Y-56627379D01*
X81755045Y-56638390D01*
X81764549Y-56649992D01*
X81773292Y-56662185D01*
X81781275Y-56674968D01*
X81788498Y-56688343D01*
X81794960Y-56702308D01*
X81800662Y-56716864D01*
X81805604Y-56732011D01*
X81809786Y-56747748D01*
X81813207Y-56764076D01*
X81815868Y-56780995D01*
X81817769Y-56798505D01*
X81818909Y-56816605D01*
X81819289Y-56835296D01*
X81819009Y-56850446D01*
X81818170Y-56865154D01*
X81816770Y-56879420D01*
X81814810Y-56893244D01*
X81812290Y-56906626D01*
X81809211Y-56919567D01*
X81805571Y-56932065D01*
X81801371Y-56944122D01*
X81796612Y-56955737D01*
X81791292Y-56966910D01*
X81785413Y-56977641D01*
X81778974Y-56987931D01*
X81771974Y-56997779D01*
X81764415Y-57007185D01*
X81756296Y-57016149D01*
X81747617Y-57024671D01*
X81738391Y-57032834D01*
X81728630Y-57040720D01*
X81718336Y-57048328D01*
X81707507Y-57055658D01*
X81696143Y-57062712D01*
X81684246Y-57069487D01*
X81671814Y-57075986D01*
X81658848Y-57082207D01*
X81645348Y-57088150D01*
X81631313Y-57093817D01*
X81616744Y-57099205D01*
X81601641Y-57104317D01*
X81586004Y-57109151D01*
X81569833Y-57113707D01*
X81553127Y-57117987D01*
X81535887Y-57121988D01*
X81437912Y-57143686D01*
X81427907Y-57145931D01*
X81418278Y-57148227D01*
X81409024Y-57150575D01*
X81400144Y-57152974D01*
X81391640Y-57155424D01*
X81383510Y-57157926D01*
X81375756Y-57160479D01*
X81368376Y-57163083D01*
X81361372Y-57165739D01*
X81354743Y-57168446D01*
X81348488Y-57171204D01*
X81342609Y-57174014D01*
X81337104Y-57176875D01*
X81331975Y-57179788D01*
X81327220Y-57182752D01*
X81322841Y-57185768D01*
X81318701Y-57188906D01*
X81314827Y-57192240D01*
X81311221Y-57195770D01*
X81307882Y-57199494D01*
X81304810Y-57203414D01*
X81302005Y-57207529D01*
X81299467Y-57211839D01*
X81297197Y-57216344D01*
X81295193Y-57221045D01*
X81293457Y-57225941D01*
X81291988Y-57231031D01*
X81290785Y-57236317D01*
X81289851Y-57241799D01*
X81289183Y-57247475D01*
X81288782Y-57253346D01*
X81288648Y-57259413D01*
X81288674Y-57261706D01*
X81288751Y-57263984D01*
X81288880Y-57266246D01*
X81289059Y-57268494D01*
X81289291Y-57270725D01*
X81289573Y-57272942D01*
X81289907Y-57275143D01*
X81290292Y-57277329D01*
X81290729Y-57279499D01*
X81291217Y-57281654D01*
X81291756Y-57283794D01*
X81292347Y-57285918D01*
X81292989Y-57288027D01*
X81293683Y-57290120D01*
X81294428Y-57292198D01*
X81295224Y-57294261D01*
X81296087Y-57296321D01*
X81297033Y-57298392D01*
X81298060Y-57300473D01*
X81299170Y-57302564D01*
X81300362Y-57304665D01*
X81301636Y-57306776D01*
X81302992Y-57308898D01*
X81304430Y-57311030D01*
X81305951Y-57313172D01*
X81307553Y-57315324D01*
X81309238Y-57317487D01*
X81311006Y-57319660D01*
X81312855Y-57321843D01*
X81314786Y-57324036D01*
X81316800Y-57326240D01*
X81318896Y-57328454D01*
X81321108Y-57330565D01*
X81323468Y-57332624D01*
X81325978Y-57334632D01*
X81328636Y-57336589D01*
X81331443Y-57338495D01*
X81334400Y-57340349D01*
X81337505Y-57342152D01*
X81340760Y-57343903D01*
X81344163Y-57345604D01*
X81347715Y-57347253D01*
X81351416Y-57348851D01*
X81355267Y-57350397D01*
X81359266Y-57351893D01*
X81363414Y-57353336D01*
X81367711Y-57354729D01*
X81372157Y-57356070D01*
X81381291Y-57358383D01*
X81390939Y-57360387D01*
X81401100Y-57362082D01*
X81411775Y-57363470D01*
X81422963Y-57364549D01*
X81434666Y-57365319D01*
X81446882Y-57365782D01*
X81459611Y-57365936D01*
X81479785Y-57365543D01*
X81500194Y-57364364D01*
X81520840Y-57362399D01*
X81541722Y-57359648D01*
X81562841Y-57356112D01*
X81584196Y-57351789D01*
X81605787Y-57346680D01*
X81627614Y-57340785D01*
X81649678Y-57334104D01*
X81671978Y-57326638D01*
X81694514Y-57318385D01*
X81717287Y-57309346D01*
X81740296Y-57299521D01*
X81763542Y-57288910D01*
X81787023Y-57277513D01*
X81810741Y-57265331D01*
X81810741Y-57479033D01*
X81787082Y-57487553D01*
X81763449Y-57495523D01*
X81739842Y-57502943D01*
X81716260Y-57509814D01*
X81692704Y-57516135D01*
X81669173Y-57521906D01*
X81645669Y-57527128D01*
X81622189Y-57531800D01*
X81598736Y-57535923D01*
X81575308Y-57539495D01*
X81551906Y-57542518D01*
X81528530Y-57544992D01*
X81505179Y-57546916D01*
X81481854Y-57548290D01*
X81458555Y-57549114D01*
X81435282Y-57549389D01*
X81411800Y-57549091D01*
X81389027Y-57548197D01*
X81366963Y-57546708D01*
X81345609Y-57544622D01*
X81324963Y-57541940D01*
X81305026Y-57538663D01*
X81285797Y-57534789D01*
X81267278Y-57530320D01*
X81249468Y-57525255D01*
X81232367Y-57519594D01*
X81215974Y-57513337D01*
X81200291Y-57506485D01*
X81185316Y-57499036D01*
X81171050Y-57490991D01*
X81157493Y-57482351D01*
X81144646Y-57473115D01*
X81132543Y-57463221D01*
X81121220Y-57452608D01*
X81110679Y-57441276D01*
X81100919Y-57429225D01*
X81091939Y-57416454D01*
X81083740Y-57402964D01*
X81076322Y-57388755D01*
X81069685Y-57373827D01*
X81063829Y-57358179D01*
X81058753Y-57341812D01*
X81054459Y-57324726D01*
X81050945Y-57306921D01*
X81048212Y-57288396D01*
X81046260Y-57269153D01*
X81045089Y-57249190D01*
X81044698Y-57228508D01*
X81044981Y-57212884D01*
X81045829Y-57197738D01*
X81047241Y-57183069D01*
X81049219Y-57168878D01*
X81051762Y-57155165D01*
X81054870Y-57141930D01*
X81058543Y-57129172D01*
X81062781Y-57116892D01*
X81067584Y-57105090D01*
X81072952Y-57093765D01*
X81078886Y-57082918D01*
X81085384Y-57072549D01*
X81092448Y-57062657D01*
X81100076Y-57053243D01*
X81108270Y-57044307D01*
X81117029Y-57035848D01*
X81126324Y-57027683D01*
X81136293Y-57019791D01*
X81146934Y-57012170D01*
X81158249Y-57004822D01*
X81170236Y-56997746D01*
X81182896Y-56990942D01*
X81196230Y-56984411D01*
X81210236Y-56978151D01*
X81224915Y-56972164D01*
X81240267Y-56966449D01*
X81256293Y-56961006D01*
X81272991Y-56955836D01*
X81290362Y-56950937D01*
X81308406Y-56946311D01*
X81327123Y-56941957D01*
X81346513Y-56937876D01*
X81454350Y-56916178D01*
X81463232Y-56914264D01*
X81471796Y-56912305D01*
X81480041Y-56910299D01*
X81487967Y-56908247D01*
X81495575Y-56906149D01*
X81502865Y-56904004D01*
X81509836Y-56901813D01*
X81516488Y-56899576D01*
X81522822Y-56897293D01*
X81528838Y-56894964D01*
X81534535Y-56892588D01*
X81539913Y-56890166D01*
X81544973Y-56887698D01*
X81549715Y-56885183D01*
X81554138Y-56882622D01*
X81558242Y-56880014D01*
X81562064Y-56877225D01*
X81565640Y-56874282D01*
X81568969Y-56871184D01*
X81572051Y-56867932D01*
X81574887Y-56864526D01*
X81577476Y-56860966D01*
X81579818Y-56857252D01*
X81581914Y-56853384D01*
X81583764Y-56849362D01*
X81585366Y-56845185D01*
X81586722Y-56840855D01*
X81587832Y-56836370D01*
X81588695Y-56831731D01*
X81589312Y-56826938D01*
X81589681Y-56821992D01*
X81589805Y-56816891D01*
X81589646Y-56810816D01*
X81589168Y-56804921D01*
X81588372Y-56799206D01*
X81587854Y-56796416D01*
X81587257Y-56793670D01*
X81586580Y-56790970D01*
X81585824Y-56788315D01*
X81584987Y-56785704D01*
X81584072Y-56783139D01*
X81583076Y-56780619D01*
X81582002Y-56778143D01*
X81580847Y-56775713D01*
X81579613Y-56773327D01*
X81578299Y-56770986D01*
X81576906Y-56768691D01*
X81575433Y-56766440D01*
X81573880Y-56764234D01*
X81572248Y-56762074D01*
X81570536Y-56759958D01*
X81568744Y-56757887D01*
X81566873Y-56755861D01*
X81564922Y-56753880D01*
X81562892Y-56751944D01*
X81560782Y-56750053D01*
X81558592Y-56748207D01*
X81553974Y-56744649D01*
X81549037Y-56741272D01*
X81543725Y-56738007D01*
X81537982Y-56734953D01*
X81531807Y-56732109D01*
X81525201Y-56729477D01*
X81518163Y-56727054D01*
X81510694Y-56724843D01*
X81502793Y-56722842D01*
X81494460Y-56721051D01*
X81485697Y-56719472D01*
X81476501Y-56718103D01*
X81466874Y-56716944D01*
X81456816Y-56715996D01*
X81446326Y-56715259D01*
X81435405Y-56714733D01*
X81412267Y-56714311D01*
X81394670Y-56714596D01*
X81376893Y-56715452D01*
X81358937Y-56716877D01*
X81340800Y-56718873D01*
X81322484Y-56721439D01*
X81303988Y-56724575D01*
X81285312Y-56728281D01*
X81266456Y-56732557D01*
X81247421Y-56737404D01*
X81228205Y-56742821D01*
X81208810Y-56748808D01*
X81189235Y-56755365D01*
X81169481Y-56762493D01*
X81149546Y-56770191D01*
X81129432Y-56778459D01*
X81109138Y-56787297D01*
X81109138Y-56579513D01*
X81153913Y-56568108D01*
X81198153Y-56558225D01*
X81241860Y-56549861D01*
X81285032Y-56543019D01*
X81327669Y-56537697D01*
X81369773Y-56533895D01*
X81411342Y-56531615D01*
X81452377Y-56530854D01*
X81452378Y-56530854D01*
X81473620Y-56531152D01*
G37*
G36*
X98602701Y-48524933D02*
G01*
X98166667Y-48524933D01*
X98166667Y-48088900D01*
X98602701Y-48088900D01*
X98602701Y-48524933D01*
G37*
G36*
X90559367Y-54874933D02*
G01*
X90123334Y-54874933D01*
X90123334Y-54438900D01*
X90559367Y-54438900D01*
X90559367Y-54874933D01*
G37*
G36*
X101142701Y-54874933D02*
G01*
X100706667Y-54874933D01*
X100706667Y-54438900D01*
X101142701Y-54438900D01*
X101142701Y-54874933D01*
G37*
G36*
X101566035Y-57414933D02*
G01*
X101130000Y-57414933D01*
X101130000Y-56978899D01*
X101566035Y-56978899D01*
X101566035Y-57414933D01*
G37*
G36*
X100296034Y-56991601D02*
G01*
X99860001Y-56991601D01*
X99860001Y-56555566D01*
X100296034Y-56555566D01*
X100296034Y-56991601D01*
G37*
G36*
X94792701Y-57838265D02*
G01*
X94356667Y-57838265D01*
X94356667Y-57402233D01*
X94792701Y-57402233D01*
X94792701Y-57838265D01*
G37*
G36*
X95216035Y-52758267D02*
G01*
X94780001Y-52758267D01*
X94780001Y-52322233D01*
X95216035Y-52322233D01*
X95216035Y-52758267D01*
G37*
G36*
X96486034Y-45561600D02*
G01*
X96050001Y-45561600D01*
X96050001Y-45125567D01*
X96486034Y-45125567D01*
X96486034Y-45561600D01*
G37*
G36*
X95216035Y-59531598D02*
G01*
X94780001Y-59531598D01*
X94780001Y-59095566D01*
X95216035Y-59095566D01*
X95216035Y-59531598D01*
G37*
G36*
X91829367Y-56144933D02*
G01*
X91393334Y-56144933D01*
X91393334Y-55708900D01*
X91829367Y-55708900D01*
X91829367Y-56144933D01*
G37*
G36*
X99872700Y-60378266D02*
G01*
X99436667Y-60378266D01*
X99436667Y-59942232D01*
X99872700Y-59942232D01*
X99872700Y-60378266D01*
G37*
G36*
X99872700Y-55721600D02*
G01*
X99436667Y-55721600D01*
X99436667Y-55285567D01*
X99872700Y-55285567D01*
X99872700Y-55721600D01*
G37*
G36*
X99872700Y-54451600D02*
G01*
X99436667Y-54451600D01*
X99436667Y-54015566D01*
X99872700Y-54015566D01*
X99872700Y-54451600D01*
G37*
G36*
X104106032Y-57838265D02*
G01*
X103670000Y-57838265D01*
X103670000Y-57402233D01*
X104106032Y-57402233D01*
X104106032Y-57838265D01*
G37*
G36*
X94792701Y-48948266D02*
G01*
X94356667Y-48948266D01*
X94356667Y-48512234D01*
X94792701Y-48512234D01*
X94792701Y-48948266D01*
G37*
G36*
X104952700Y-51488267D02*
G01*
X104516666Y-51488267D01*
X104516666Y-51052233D01*
X104952700Y-51052233D01*
X104952700Y-51488267D01*
G37*
G36*
X99026034Y-58684933D02*
G01*
X98590000Y-58684933D01*
X98590000Y-58248899D01*
X99026034Y-58248899D01*
X99026034Y-58684933D01*
G37*
G36*
X104952700Y-54874933D02*
G01*
X104516666Y-54874933D01*
X104516666Y-54438900D01*
X104952700Y-54438900D01*
X104952700Y-54874933D01*
G37*
G36*
X101566035Y-48948266D02*
G01*
X101130000Y-48948266D01*
X101130000Y-48512234D01*
X101566035Y-48512234D01*
X101566035Y-48948266D01*
G37*
G36*
X100719367Y-48948266D02*
G01*
X100283334Y-48948266D01*
X100283334Y-48512234D01*
X100719367Y-48512234D01*
X100719367Y-48948266D01*
G37*
G36*
X104529366Y-51911600D02*
G01*
X104093334Y-51911600D01*
X104093334Y-51475567D01*
X104529366Y-51475567D01*
X104529366Y-51911600D01*
G37*
G36*
X98602701Y-45984933D02*
G01*
X98166667Y-45984933D01*
X98166667Y-45548900D01*
X98602701Y-45548900D01*
X98602701Y-45984933D01*
G37*
G36*
X101989367Y-50218267D02*
G01*
X101553333Y-50218267D01*
X101553333Y-49782233D01*
X101989367Y-49782233D01*
X101989367Y-50218267D01*
G37*
G36*
X99872700Y-48101600D02*
G01*
X99436667Y-48101600D01*
X99436667Y-47665567D01*
X99872700Y-47665567D01*
X99872700Y-48101600D01*
G37*
G36*
X95216035Y-48948266D02*
G01*
X94780001Y-48948266D01*
X94780001Y-48512234D01*
X95216035Y-48512234D01*
X95216035Y-48948266D01*
G37*
G36*
X96909367Y-58261599D02*
G01*
X96473334Y-58261599D01*
X96473334Y-57825567D01*
X96909367Y-57825567D01*
X96909367Y-58261599D01*
G37*
G36*
X102412699Y-55298266D02*
G01*
X101976667Y-55298266D01*
X101976667Y-54862233D01*
X102412699Y-54862233D01*
X102412699Y-55298266D01*
G37*
G36*
X100719367Y-52758267D02*
G01*
X100283334Y-52758267D01*
X100283334Y-52322233D01*
X100719367Y-52322233D01*
X100719367Y-52758267D01*
G37*
G36*
X89712701Y-48524933D02*
G01*
X89276668Y-48524933D01*
X89276668Y-48088900D01*
X89712701Y-48088900D01*
X89712701Y-48524933D01*
G37*
G36*
X94369367Y-56144933D02*
G01*
X93933334Y-56144933D01*
X93933334Y-55708900D01*
X94369367Y-55708900D01*
X94369367Y-56144933D01*
G37*
G36*
X103259367Y-50218267D02*
G01*
X102823333Y-50218267D01*
X102823333Y-49782233D01*
X103259367Y-49782233D01*
X103259367Y-50218267D01*
G37*
G36*
X102836033Y-49371600D02*
G01*
X102400001Y-49371600D01*
X102400001Y-48935567D01*
X102836033Y-48935567D01*
X102836033Y-49371600D01*
G37*
G36*
X92252701Y-50218267D02*
G01*
X91816667Y-50218267D01*
X91816667Y-49782233D01*
X92252701Y-49782233D01*
X92252701Y-50218267D01*
G37*
G36*
X92676034Y-52758267D02*
G01*
X92240001Y-52758267D01*
X92240001Y-52322233D01*
X92676034Y-52322233D01*
X92676034Y-52758267D01*
G37*
G36*
X93946034Y-49794933D02*
G01*
X93510001Y-49794933D01*
X93510001Y-49358900D01*
X93946034Y-49358900D01*
X93946034Y-49794933D01*
G37*
G36*
X90559367Y-52334933D02*
G01*
X90123334Y-52334933D01*
X90123334Y-51898900D01*
X90559367Y-51898900D01*
X90559367Y-52334933D01*
G37*
G36*
X98179368Y-45984933D02*
G01*
X97743334Y-45984933D01*
X97743334Y-45548900D01*
X98179368Y-45548900D01*
X98179368Y-45984933D01*
G37*
G36*
X93522700Y-58261599D02*
G01*
X93086668Y-58261599D01*
X93086668Y-57825567D01*
X93522700Y-57825567D01*
X93522700Y-58261599D01*
G37*
G36*
X96909367Y-51488267D02*
G01*
X96473334Y-51488267D01*
X96473334Y-51052233D01*
X96909367Y-51052233D01*
X96909367Y-51488267D01*
G37*
G36*
X101142701Y-53604934D02*
G01*
X100706667Y-53604934D01*
X100706667Y-53168900D01*
X101142701Y-53168900D01*
X101142701Y-53604934D01*
G37*
G36*
X92676034Y-51911600D02*
G01*
X92240001Y-51911600D01*
X92240001Y-51475567D01*
X92676034Y-51475567D01*
X92676034Y-51911600D01*
G37*
G36*
X93099367Y-57414933D02*
G01*
X92663334Y-57414933D01*
X92663334Y-56978899D01*
X93099367Y-56978899D01*
X93099367Y-57414933D01*
G37*
G36*
X96062701Y-48948266D02*
G01*
X95626667Y-48948266D01*
X95626667Y-48512234D01*
X96062701Y-48512234D01*
X96062701Y-48948266D01*
G37*
G36*
X94792701Y-57414933D02*
G01*
X94356667Y-57414933D01*
X94356667Y-56978899D01*
X94792701Y-56978899D01*
X94792701Y-57414933D01*
G37*
G36*
X89712701Y-49794933D02*
G01*
X89276668Y-49794933D01*
X89276668Y-49358900D01*
X89712701Y-49358900D01*
X89712701Y-49794933D01*
G37*
G36*
X89712701Y-52758267D02*
G01*
X89276668Y-52758267D01*
X89276668Y-52322233D01*
X89712701Y-52322233D01*
X89712701Y-52758267D01*
G37*
G36*
X96486034Y-56568267D02*
G01*
X96050001Y-56568267D01*
X96050001Y-56132233D01*
X96486034Y-56132233D01*
X96486034Y-56568267D01*
G37*
D12*
X84424000Y-59259642D02*
X77189106Y-59259642D01*
D10*
G36*
X97332701Y-47254933D02*
G01*
X96896667Y-47254933D01*
X96896667Y-46818900D01*
X97332701Y-46818900D01*
X97332701Y-47254933D01*
G37*
G36*
X93946034Y-45561600D02*
G01*
X93510001Y-45561600D01*
X93510001Y-45125567D01*
X93946034Y-45125567D01*
X93946034Y-45561600D01*
G37*
G36*
X91406034Y-49794933D02*
G01*
X90970001Y-49794933D01*
X90970001Y-49358900D01*
X91406034Y-49358900D01*
X91406034Y-49794933D01*
G37*
G36*
X96486034Y-49794933D02*
G01*
X96050001Y-49794933D01*
X96050001Y-49358900D01*
X96486034Y-49358900D01*
X96486034Y-49794933D01*
G37*
G36*
X99872700Y-55298266D02*
G01*
X99436667Y-55298266D01*
X99436667Y-54862233D01*
X99872700Y-54862233D01*
X99872700Y-55298266D01*
G37*
G36*
X103682700Y-51064934D02*
G01*
X103246667Y-51064934D01*
X103246667Y-50628900D01*
X103682700Y-50628900D01*
X103682700Y-51064934D01*
G37*
G36*
X101142701Y-49794933D02*
G01*
X100706667Y-49794933D01*
X100706667Y-49358900D01*
X101142701Y-49358900D01*
X101142701Y-49794933D01*
G37*
G36*
X102412699Y-56568267D02*
G01*
X101976667Y-56568267D01*
X101976667Y-56132233D01*
X102412699Y-56132233D01*
X102412699Y-56568267D01*
G37*
G36*
X100296034Y-55298266D02*
G01*
X99860001Y-55298266D01*
X99860001Y-54862233D01*
X100296034Y-54862233D01*
X100296034Y-55298266D01*
G37*
G36*
X100719367Y-59531598D02*
G01*
X100283334Y-59531598D01*
X100283334Y-59095566D01*
X100719367Y-59095566D01*
X100719367Y-59531598D01*
G37*
G36*
X97756034Y-51488267D02*
G01*
X97320000Y-51488267D01*
X97320000Y-51052233D01*
X97756034Y-51052233D01*
X97756034Y-51488267D01*
G37*
G36*
X98179368Y-58684933D02*
G01*
X97743334Y-58684933D01*
X97743334Y-58248899D01*
X98179368Y-58248899D01*
X98179368Y-58684933D01*
G37*
G36*
X100296034Y-57414933D02*
G01*
X99860001Y-57414933D01*
X99860001Y-56978899D01*
X100296034Y-56978899D01*
X100296034Y-57414933D01*
G37*
G36*
X97756034Y-55298266D02*
G01*
X97320000Y-55298266D01*
X97320000Y-54862233D01*
X97756034Y-54862233D01*
X97756034Y-55298266D01*
G37*
G36*
X99026034Y-58261599D02*
G01*
X98590000Y-58261599D01*
X98590000Y-57825567D01*
X99026034Y-57825567D01*
X99026034Y-58261599D01*
G37*
G36*
X91393334Y-46818900D02*
G01*
X90123334Y-46818900D01*
X90123334Y-45548900D01*
X91393334Y-45548900D01*
X91393334Y-46818900D01*
G37*
G36*
X90136034Y-50218267D02*
G01*
X89700001Y-50218267D01*
X89700001Y-49782233D01*
X90136034Y-49782233D01*
X90136034Y-50218267D01*
G37*
G36*
X95639368Y-47678267D02*
G01*
X95203334Y-47678267D01*
X95203334Y-47242233D01*
X95639368Y-47242233D01*
X95639368Y-47678267D01*
G37*
G36*
X101989367Y-54451600D02*
G01*
X101553333Y-54451600D01*
X101553333Y-54015566D01*
X101989367Y-54015566D01*
X101989367Y-54451600D01*
G37*
G36*
X93099367Y-55721600D02*
G01*
X92663334Y-55721600D01*
X92663334Y-55285567D01*
X93099367Y-55285567D01*
X93099367Y-55721600D01*
G37*
G36*
X99872700Y-52758267D02*
G01*
X99436667Y-52758267D01*
X99436667Y-52322233D01*
X99872700Y-52322233D01*
X99872700Y-52758267D01*
G37*
G36*
X96486034Y-55721600D02*
G01*
X96050001Y-55721600D01*
X96050001Y-55285567D01*
X96486034Y-55285567D01*
X96486034Y-55721600D01*
G37*
G36*
X93946034Y-57414933D02*
G01*
X93510001Y-57414933D01*
X93510001Y-56978899D01*
X93946034Y-56978899D01*
X93946034Y-57414933D01*
G37*
G36*
X103682700Y-49371600D02*
G01*
X103246667Y-49371600D01*
X103246667Y-48935567D01*
X103682700Y-48935567D01*
X103682700Y-49371600D01*
G37*
G36*
X104106032Y-56144933D02*
G01*
X103670000Y-56144933D01*
X103670000Y-55708900D01*
X104106032Y-55708900D01*
X104106032Y-56144933D01*
G37*
G36*
X91406034Y-56991601D02*
G01*
X90970001Y-56991601D01*
X90970001Y-56555566D01*
X91406034Y-56555566D01*
X91406034Y-56991601D01*
G37*
G36*
X101989367Y-54028267D02*
G01*
X101553333Y-54028267D01*
X101553333Y-53592233D01*
X101989367Y-53592233D01*
X101989367Y-54028267D01*
G37*
G36*
X99872700Y-54874933D02*
G01*
X99436667Y-54874933D01*
X99436667Y-54438900D01*
X99872700Y-54438900D01*
X99872700Y-54874933D01*
G37*
G36*
X102412699Y-53604934D02*
G01*
X101976667Y-53604934D01*
X101976667Y-53168900D01*
X102412699Y-53168900D01*
X102412699Y-53604934D01*
G37*
G36*
X95216035Y-58261599D02*
G01*
X94780001Y-58261599D01*
X94780001Y-57825567D01*
X95216035Y-57825567D01*
X95216035Y-58261599D01*
G37*
G36*
X102412699Y-51911600D02*
G01*
X101976667Y-51911600D01*
X101976667Y-51475567D01*
X102412699Y-51475567D01*
X102412699Y-51911600D01*
G37*
G36*
X104529366Y-59108266D02*
G01*
X104093334Y-59108266D01*
X104093334Y-58672233D01*
X104529366Y-58672233D01*
X104529366Y-59108266D01*
G37*
G36*
X98602701Y-48948266D02*
G01*
X98166667Y-48948266D01*
X98166667Y-48512234D01*
X98602701Y-48512234D01*
X98602701Y-48948266D01*
G37*
G36*
X92676034Y-54874933D02*
G01*
X92240001Y-54874933D01*
X92240001Y-54438900D01*
X92676034Y-54438900D01*
X92676034Y-54874933D01*
G37*
G36*
X91406034Y-51911600D02*
G01*
X90970001Y-51911600D01*
X90970001Y-51475567D01*
X91406034Y-51475567D01*
X91406034Y-51911600D01*
G37*
G36*
X93522700Y-59954932D02*
G01*
X93086668Y-59954932D01*
X93086668Y-59518900D01*
X93522700Y-59518900D01*
X93522700Y-59954932D01*
G37*
G36*
X104529366Y-52334933D02*
G01*
X104093334Y-52334933D01*
X104093334Y-51898900D01*
X104529366Y-51898900D01*
X104529366Y-52334933D01*
G37*
G36*
X91829367Y-53604934D02*
G01*
X91393334Y-53604934D01*
X91393334Y-53168900D01*
X91829367Y-53168900D01*
X91829367Y-53604934D01*
G37*
G36*
X93522700Y-47254933D02*
G01*
X93086668Y-47254933D01*
X93086668Y-46818900D01*
X93522700Y-46818900D01*
X93522700Y-47254933D01*
G37*
G36*
X91829367Y-54451600D02*
G01*
X91393334Y-54451600D01*
X91393334Y-54015566D01*
X91829367Y-54015566D01*
X91829367Y-54451600D01*
G37*
G36*
X93099367Y-47678267D02*
G01*
X92663334Y-47678267D01*
X92663334Y-47242233D01*
X93099367Y-47242233D01*
X93099367Y-47678267D01*
G37*
G36*
X98179368Y-51064934D02*
G01*
X97743334Y-51064934D01*
X97743334Y-50628900D01*
X98179368Y-50628900D01*
X98179368Y-51064934D01*
G37*
G36*
X101566035Y-53181600D02*
G01*
X101130000Y-53181600D01*
X101130000Y-52745566D01*
X101566035Y-52745566D01*
X101566035Y-53181600D01*
G37*
G36*
X102412699Y-56991601D02*
G01*
X101976667Y-56991601D01*
X101976667Y-56555566D01*
X102412699Y-56555566D01*
X102412699Y-56991601D01*
G37*
G36*
X95216035Y-59108266D02*
G01*
X94780001Y-59108266D01*
X94780001Y-58672233D01*
X95216035Y-58672233D01*
X95216035Y-59108266D01*
G37*
G36*
X100719367Y-50218267D02*
G01*
X100283334Y-50218267D01*
X100283334Y-49782233D01*
X100719367Y-49782233D01*
X100719367Y-50218267D01*
G37*
G36*
X104106032Y-58684933D02*
G01*
X103670000Y-58684933D01*
X103670000Y-58248899D01*
X104106032Y-58248899D01*
X104106032Y-58684933D01*
G37*
G36*
X96062701Y-59954932D02*
G01*
X95626667Y-59954932D01*
X95626667Y-59518900D01*
X96062701Y-59518900D01*
X96062701Y-59954932D01*
G37*
G36*
X101566035Y-55298266D02*
G01*
X101130000Y-55298266D01*
X101130000Y-54862233D01*
X101566035Y-54862233D01*
X101566035Y-55298266D01*
G37*
G36*
X101566035Y-46831600D02*
G01*
X101130000Y-46831600D01*
X101130000Y-46395567D01*
X101566035Y-46395567D01*
X101566035Y-46831600D01*
G37*
G36*
X96486034Y-47254933D02*
G01*
X96050001Y-47254933D01*
X96050001Y-46818900D01*
X96486034Y-46818900D01*
X96486034Y-47254933D01*
G37*
G36*
X98602701Y-53181600D02*
G01*
X98166667Y-53181600D01*
X98166667Y-52745566D01*
X98602701Y-52745566D01*
X98602701Y-53181600D01*
G37*
G36*
X94792701Y-47678267D02*
G01*
X94356667Y-47678267D01*
X94356667Y-47242233D01*
X94792701Y-47242233D01*
X94792701Y-47678267D01*
G37*
G36*
X101142701Y-59108266D02*
G01*
X100706667Y-59108266D01*
X100706667Y-58672233D01*
X101142701Y-58672233D01*
X101142701Y-59108266D01*
G37*
G36*
X98602701Y-55298266D02*
G01*
X98166667Y-55298266D01*
X98166667Y-54862233D01*
X98602701Y-54862233D01*
X98602701Y-55298266D01*
G37*
G36*
X93099367Y-52758267D02*
G01*
X92663334Y-52758267D01*
X92663334Y-52322233D01*
X93099367Y-52322233D01*
X93099367Y-52758267D01*
G37*
G36*
X99026034Y-59531598D02*
G01*
X98590000Y-59531598D01*
X98590000Y-59095566D01*
X99026034Y-59095566D01*
X99026034Y-59531598D01*
G37*
G36*
X98179368Y-59954932D02*
G01*
X97743334Y-59954932D01*
X97743334Y-59518900D01*
X98179368Y-59518900D01*
X98179368Y-59954932D01*
G37*
G36*
X97756034Y-56991601D02*
G01*
X97320000Y-56991601D01*
X97320000Y-56555566D01*
X97756034Y-56555566D01*
X97756034Y-56991601D01*
G37*
G36*
X97332701Y-59108266D02*
G01*
X96896667Y-59108266D01*
X96896667Y-58672233D01*
X97332701Y-58672233D01*
X97332701Y-59108266D01*
G37*
G36*
X96909367Y-56991601D02*
G01*
X96473334Y-56991601D01*
X96473334Y-56555566D01*
X96909367Y-56555566D01*
X96909367Y-56991601D01*
G37*
G36*
X100719367Y-45984933D02*
G01*
X100283334Y-45984933D01*
X100283334Y-45548900D01*
X100719367Y-45548900D01*
X100719367Y-45984933D01*
G37*
G36*
X100296034Y-54874933D02*
G01*
X99860001Y-54874933D01*
X99860001Y-54438900D01*
X100296034Y-54438900D01*
X100296034Y-54874933D01*
G37*
G36*
X95216035Y-56991601D02*
G01*
X94780001Y-56991601D01*
X94780001Y-56555566D01*
X95216035Y-56555566D01*
X95216035Y-56991601D01*
G37*
D12*
X77189106Y-59259642D02*
X77189106Y-59259642D01*
D10*
G36*
X93099367Y-55298266D02*
G01*
X92663334Y-55298266D01*
X92663334Y-54862233D01*
X93099367Y-54862233D01*
X93099367Y-55298266D01*
G37*
G36*
X93946034Y-58261599D02*
G01*
X93510001Y-58261599D01*
X93510001Y-57825567D01*
X93946034Y-57825567D01*
X93946034Y-58261599D01*
G37*
G36*
X92252701Y-53604934D02*
G01*
X91816667Y-53604934D01*
X91816667Y-53168900D01*
X92252701Y-53168900D01*
X92252701Y-53604934D01*
G37*
G36*
X99026034Y-48101600D02*
G01*
X98590000Y-48101600D01*
X98590000Y-47665567D01*
X99026034Y-47665567D01*
X99026034Y-48101600D01*
G37*
G36*
X100719367Y-49794933D02*
G01*
X100283334Y-49794933D01*
X100283334Y-49358900D01*
X100719367Y-49358900D01*
X100719367Y-49794933D01*
G37*
G36*
X97332701Y-54451600D02*
G01*
X96896667Y-54451600D01*
X96896667Y-54015566D01*
X97332701Y-54015566D01*
X97332701Y-54451600D01*
G37*
G36*
X96062701Y-46831600D02*
G01*
X95626667Y-46831600D01*
X95626667Y-46395567D01*
X96062701Y-46395567D01*
X96062701Y-46831600D01*
G37*
G36*
X89712701Y-53181600D02*
G01*
X89276668Y-53181600D01*
X89276668Y-52745566D01*
X89712701Y-52745566D01*
X89712701Y-53181600D01*
G37*
G36*
X94369367Y-58684933D02*
G01*
X93933334Y-58684933D01*
X93933334Y-58248899D01*
X94369367Y-58248899D01*
X94369367Y-58684933D01*
G37*
G36*
X98602701Y-49794933D02*
G01*
X98166667Y-49794933D01*
X98166667Y-49358900D01*
X98602701Y-49358900D01*
X98602701Y-49794933D01*
G37*
G36*
X98602701Y-58684933D02*
G01*
X98166667Y-58684933D01*
X98166667Y-58248899D01*
X98602701Y-58248899D01*
X98602701Y-58684933D01*
G37*
G36*
X92252701Y-51911600D02*
G01*
X91816667Y-51911600D01*
X91816667Y-51475567D01*
X92252701Y-51475567D01*
X92252701Y-51911600D01*
G37*
G36*
X95216035Y-54874933D02*
G01*
X94780001Y-54874933D01*
X94780001Y-54438900D01*
X95216035Y-54438900D01*
X95216035Y-54874933D01*
G37*
G36*
X91406034Y-56144933D02*
G01*
X90970001Y-56144933D01*
X90970001Y-55708900D01*
X91406034Y-55708900D01*
X91406034Y-56144933D01*
G37*
G36*
X101566035Y-52334933D02*
G01*
X101130000Y-52334933D01*
X101130000Y-51898900D01*
X101566035Y-51898900D01*
X101566035Y-52334933D01*
G37*
G36*
X101989367Y-51064934D02*
G01*
X101553333Y-51064934D01*
X101553333Y-50628900D01*
X101989367Y-50628900D01*
X101989367Y-51064934D01*
G37*
G36*
X100719367Y-60378266D02*
G01*
X100283334Y-60378266D01*
X100283334Y-59942232D01*
X100719367Y-59942232D01*
X100719367Y-60378266D01*
G37*
G36*
X97756034Y-57414933D02*
G01*
X97320000Y-57414933D01*
X97320000Y-56978899D01*
X97756034Y-56978899D01*
X97756034Y-57414933D01*
G37*
G36*
X102836033Y-55721600D02*
G01*
X102400001Y-55721600D01*
X102400001Y-55285567D01*
X102836033Y-55285567D01*
X102836033Y-55721600D01*
G37*
G36*
X98602701Y-58261599D02*
G01*
X98166667Y-58261599D01*
X98166667Y-57825567D01*
X98602701Y-57825567D01*
X98602701Y-58261599D01*
G37*
G36*
X97756034Y-54874933D02*
G01*
X97320000Y-54874933D01*
X97320000Y-54438900D01*
X97756034Y-54438900D01*
X97756034Y-54874933D01*
G37*
G36*
X100719367Y-56144933D02*
G01*
X100283334Y-56144933D01*
X100283334Y-55708900D01*
X100719367Y-55708900D01*
X100719367Y-56144933D01*
G37*
G36*
X94369367Y-56991601D02*
G01*
X93933334Y-56991601D01*
X93933334Y-56555566D01*
X94369367Y-56555566D01*
X94369367Y-56991601D01*
G37*
G36*
X97332701Y-47678267D02*
G01*
X96896667Y-47678267D01*
X96896667Y-47242233D01*
X97332701Y-47242233D01*
X97332701Y-47678267D01*
G37*
G36*
X91406034Y-53604934D02*
G01*
X90970001Y-53604934D01*
X90970001Y-53168900D01*
X91406034Y-53168900D01*
X91406034Y-53604934D01*
G37*
G36*
X104106032Y-60378266D02*
G01*
X103670000Y-60378266D01*
X103670000Y-59942232D01*
X104106032Y-59942232D01*
X104106032Y-60378266D01*
G37*
G36*
X90982701Y-48524933D02*
G01*
X90546668Y-48524933D01*
X90546668Y-48088900D01*
X90982701Y-48088900D01*
X90982701Y-48524933D01*
G37*
G36*
X101566035Y-59531598D02*
G01*
X101130000Y-59531598D01*
X101130000Y-59095566D01*
X101566035Y-59095566D01*
X101566035Y-59531598D01*
G37*
G36*
X101142701Y-53181600D02*
G01*
X100706667Y-53181600D01*
X100706667Y-52745566D01*
X101142701Y-52745566D01*
X101142701Y-53181600D01*
G37*
G36*
X93946034Y-55298266D02*
G01*
X93510001Y-55298266D01*
X93510001Y-54862233D01*
X93946034Y-54862233D01*
X93946034Y-55298266D01*
G37*
G36*
X96062701Y-54451600D02*
G01*
X95626667Y-54451600D01*
X95626667Y-54015566D01*
X96062701Y-54015566D01*
X96062701Y-54451600D01*
G37*
G36*
X104529366Y-51064934D02*
G01*
X104093334Y-51064934D01*
X104093334Y-50628900D01*
X104529366Y-50628900D01*
X104529366Y-51064934D01*
G37*
G36*
X103259367Y-57838265D02*
G01*
X102823333Y-57838265D01*
X102823333Y-57402233D01*
X103259367Y-57402233D01*
X103259367Y-57838265D01*
G37*
G36*
X93946034Y-50218267D02*
G01*
X93510001Y-50218267D01*
X93510001Y-49782233D01*
X93946034Y-49782233D01*
X93946034Y-50218267D01*
G37*
G36*
X102836033Y-53181600D02*
G01*
X102400001Y-53181600D01*
X102400001Y-52745566D01*
X102836033Y-52745566D01*
X102836033Y-53181600D01*
G37*
G36*
X97756034Y-45561600D02*
G01*
X97320000Y-45561600D01*
X97320000Y-45125567D01*
X97756034Y-45125567D01*
X97756034Y-45561600D01*
G37*
G36*
X94369367Y-53604934D02*
G01*
X93933334Y-53604934D01*
X93933334Y-53168900D01*
X94369367Y-53168900D01*
X94369367Y-53604934D01*
G37*
G36*
X103682700Y-57414933D02*
G01*
X103246667Y-57414933D01*
X103246667Y-56978899D01*
X103682700Y-56978899D01*
X103682700Y-57414933D01*
G37*
G36*
X90982701Y-54028267D02*
G01*
X90546668Y-54028267D01*
X90546668Y-53592233D01*
X90982701Y-53592233D01*
X90982701Y-54028267D01*
G37*
G36*
X90136034Y-55298266D02*
G01*
X89700001Y-55298266D01*
X89700001Y-54862233D01*
X90136034Y-54862233D01*
X90136034Y-55298266D01*
G37*
G36*
X102836033Y-52758267D02*
G01*
X102400001Y-52758267D01*
X102400001Y-52322233D01*
X102836033Y-52322233D01*
X102836033Y-52758267D01*
G37*
G36*
X100719367Y-55298266D02*
G01*
X100283334Y-55298266D01*
X100283334Y-54862233D01*
X100719367Y-54862233D01*
X100719367Y-55298266D01*
G37*
G36*
X104952700Y-49794933D02*
G01*
X104516666Y-49794933D01*
X104516666Y-49358900D01*
X104952700Y-49358900D01*
X104952700Y-49794933D01*
G37*
G36*
X103259367Y-56144933D02*
G01*
X102823333Y-56144933D01*
X102823333Y-55708900D01*
X103259367Y-55708900D01*
X103259367Y-56144933D01*
G37*
G36*
X104529366Y-51488267D02*
G01*
X104093334Y-51488267D01*
X104093334Y-51052233D01*
X104529366Y-51052233D01*
X104529366Y-51488267D01*
G37*
G36*
X94792701Y-51911600D02*
G01*
X94356667Y-51911600D01*
X94356667Y-51475567D01*
X94792701Y-51475567D01*
X94792701Y-51911600D01*
G37*
G36*
X99872700Y-59954932D02*
G01*
X99436667Y-59954932D01*
X99436667Y-59518900D01*
X99872700Y-59518900D01*
X99872700Y-59954932D01*
G37*
G36*
X93946034Y-48948266D02*
G01*
X93510001Y-48948266D01*
X93510001Y-48512234D01*
X93946034Y-48512234D01*
X93946034Y-48948266D01*
G37*
G36*
X104529366Y-56144933D02*
G01*
X104093334Y-56144933D01*
X104093334Y-55708900D01*
X104529366Y-55708900D01*
X104529366Y-56144933D01*
G37*
G36*
X104952700Y-51064934D02*
G01*
X104516666Y-51064934D01*
X104516666Y-50628900D01*
X104952700Y-50628900D01*
X104952700Y-51064934D01*
G37*
G36*
X102836033Y-56991601D02*
G01*
X102400001Y-56991601D01*
X102400001Y-56555566D01*
X102836033Y-56555566D01*
X102836033Y-56991601D01*
G37*
G36*
X79027322Y-57221938D02*
G01*
X79384371Y-56548608D01*
X79667116Y-56548608D01*
X79667116Y-57530324D01*
X79427111Y-57530324D01*
X79427111Y-56856994D01*
X79070063Y-57530324D01*
X78787318Y-57530324D01*
X78787318Y-56548608D01*
X79027322Y-56548608D01*
X79027322Y-57221938D01*
G37*
G36*
X100719367Y-57838265D02*
G01*
X100283334Y-57838265D01*
X100283334Y-57402233D01*
X100719367Y-57402233D01*
X100719367Y-57838265D01*
G37*
G36*
X104106032Y-50218267D02*
G01*
X103670000Y-50218267D01*
X103670000Y-49782233D01*
X104106032Y-49782233D01*
X104106032Y-50218267D01*
G37*
G36*
X95639368Y-56991601D02*
G01*
X95203334Y-56991601D01*
X95203334Y-56555566D01*
X95639368Y-56555566D01*
X95639368Y-56991601D01*
G37*
G36*
X98602701Y-55721600D02*
G01*
X98166667Y-55721600D01*
X98166667Y-55285567D01*
X98602701Y-55285567D01*
X98602701Y-55721600D01*
G37*
G36*
X104529366Y-60378266D02*
G01*
X104093334Y-60378266D01*
X104093334Y-59942232D01*
X104529366Y-59942232D01*
X104529366Y-60378266D01*
G37*
G36*
X90136034Y-51064934D02*
G01*
X89700001Y-51064934D01*
X89700001Y-50628900D01*
X90136034Y-50628900D01*
X90136034Y-51064934D01*
G37*
D11*
X79471287Y-45100000D02*
X79770000Y-45100000D01*
D10*
G36*
X94369367Y-60378266D02*
G01*
X93933334Y-60378266D01*
X93933334Y-59942232D01*
X94369367Y-59942232D01*
X94369367Y-60378266D01*
G37*
G36*
X92676034Y-50641601D02*
G01*
X92240001Y-50641601D01*
X92240001Y-50205567D01*
X92676034Y-50205567D01*
X92676034Y-50641601D01*
G37*
G36*
X97756034Y-45984933D02*
G01*
X97320000Y-45984933D01*
X97320000Y-45548900D01*
X97756034Y-45548900D01*
X97756034Y-45984933D01*
G37*
G36*
X96062701Y-55721600D02*
G01*
X95626667Y-55721600D01*
X95626667Y-55285567D01*
X96062701Y-55285567D01*
X96062701Y-55721600D01*
G37*
G36*
X103682700Y-48948266D02*
G01*
X103246667Y-48948266D01*
X103246667Y-48512234D01*
X103682700Y-48512234D01*
X103682700Y-48948266D01*
G37*
G36*
X100719367Y-52334933D02*
G01*
X100283334Y-52334933D01*
X100283334Y-51898900D01*
X100719367Y-51898900D01*
X100719367Y-52334933D01*
G37*
G36*
X97332701Y-45138267D02*
G01*
X96896667Y-45138267D01*
X96896667Y-44702234D01*
X97332701Y-44702234D01*
X97332701Y-45138267D01*
G37*
G36*
X104952700Y-57838265D02*
G01*
X104516666Y-57838265D01*
X104516666Y-57402233D01*
X104952700Y-57402233D01*
X104952700Y-57838265D01*
G37*
G36*
X93946034Y-59108266D02*
G01*
X93510001Y-59108266D01*
X93510001Y-58672233D01*
X93946034Y-58672233D01*
X93946034Y-59108266D01*
G37*
G36*
X95639368Y-59531598D02*
G01*
X95203334Y-59531598D01*
X95203334Y-59095566D01*
X95639368Y-59095566D01*
X95639368Y-59531598D01*
G37*
G36*
X103682700Y-54451600D02*
G01*
X103246667Y-54451600D01*
X103246667Y-54015566D01*
X103682700Y-54015566D01*
X103682700Y-54451600D01*
G37*
G36*
X93099367Y-56568267D02*
G01*
X92663334Y-56568267D01*
X92663334Y-56132233D01*
X93099367Y-56132233D01*
X93099367Y-56568267D01*
G37*
G36*
X104952700Y-56144933D02*
G01*
X104516666Y-56144933D01*
X104516666Y-55708900D01*
X104952700Y-55708900D01*
X104952700Y-56144933D01*
G37*
G36*
X93099367Y-58684933D02*
G01*
X92663334Y-58684933D01*
X92663334Y-58248899D01*
X93099367Y-58248899D01*
X93099367Y-58684933D01*
G37*
G36*
X93522700Y-48948266D02*
G01*
X93086668Y-48948266D01*
X93086668Y-48512234D01*
X93522700Y-48512234D01*
X93522700Y-48948266D01*
G37*
G36*
X104529366Y-55298266D02*
G01*
X104093334Y-55298266D01*
X104093334Y-54862233D01*
X104529366Y-54862233D01*
X104529366Y-55298266D01*
G37*
G36*
X104106032Y-55721600D02*
G01*
X103670000Y-55721600D01*
X103670000Y-55285567D01*
X104106032Y-55285567D01*
X104106032Y-55721600D01*
G37*
G36*
X93099367Y-45984933D02*
G01*
X92663334Y-45984933D01*
X92663334Y-45548900D01*
X93099367Y-45548900D01*
X93099367Y-45984933D01*
G37*
G36*
X80394740Y-57804137D02*
G01*
X80422339Y-57805676D01*
X80449167Y-57808242D01*
X80475224Y-57811834D01*
X80500510Y-57816452D01*
X80525026Y-57822097D01*
X80548770Y-57828767D01*
X80571743Y-57836464D01*
X80593945Y-57845187D01*
X80615377Y-57854937D01*
X80636037Y-57865712D01*
X80655927Y-57877514D01*
X80675045Y-57890342D01*
X80693393Y-57904197D01*
X80710969Y-57919077D01*
X80727775Y-57934984D01*
X80743604Y-57951729D01*
X80758413Y-57969286D01*
X80772200Y-57987653D01*
X80784965Y-58006832D01*
X80796710Y-58026821D01*
X80807433Y-58047621D01*
X80817135Y-58069233D01*
X80825815Y-58091655D01*
X80833475Y-58114889D01*
X80840113Y-58138933D01*
X80845730Y-58163788D01*
X80850326Y-58189455D01*
X80853900Y-58215932D01*
X80856453Y-58243221D01*
X80857985Y-58271321D01*
X80858496Y-58300231D01*
X80857985Y-58329142D01*
X80856453Y-58357242D01*
X80853900Y-58384531D01*
X80850326Y-58411008D01*
X80845730Y-58436675D01*
X80840113Y-58461530D01*
X80833475Y-58485574D01*
X80825815Y-58508808D01*
X80817135Y-58531230D01*
X80807433Y-58552842D01*
X80796710Y-58573642D01*
X80784965Y-58593631D01*
X80772200Y-58612810D01*
X80758413Y-58631177D01*
X80743604Y-58648734D01*
X80727775Y-58665479D01*
X80710969Y-58681309D01*
X80693393Y-58696117D01*
X80675045Y-58709904D01*
X80655927Y-58722669D01*
X80636037Y-58734414D01*
X80615377Y-58745137D01*
X80593945Y-58754838D01*
X80571743Y-58763519D01*
X80548770Y-58771178D01*
X80525026Y-58777816D01*
X80500510Y-58783433D01*
X80475224Y-58788029D01*
X80449167Y-58791603D01*
X80422339Y-58794156D01*
X80394740Y-58795688D01*
X80366370Y-58796198D01*
X80338003Y-58795688D01*
X80310412Y-58794156D01*
X80283596Y-58791603D01*
X80257557Y-58788029D01*
X80232293Y-58783433D01*
X80207806Y-58777816D01*
X80184094Y-58771178D01*
X80161158Y-58763519D01*
X80138998Y-58754838D01*
X80117615Y-58745137D01*
X80097007Y-58734414D01*
X80077175Y-58722669D01*
X80058119Y-58709904D01*
X80039839Y-58696117D01*
X80022335Y-58681309D01*
X80005607Y-58665479D01*
X79989700Y-58648734D01*
X79974819Y-58631177D01*
X79960965Y-58612810D01*
X79948136Y-58593631D01*
X79936334Y-58573642D01*
X79925558Y-58552842D01*
X79915809Y-58531230D01*
X79907086Y-58508808D01*
X79899389Y-58485574D01*
X79892718Y-58461530D01*
X79887074Y-58436675D01*
X79882455Y-58411008D01*
X79878863Y-58384531D01*
X79876298Y-58357242D01*
X79874758Y-58329142D01*
X79874245Y-58300231D01*
X79874245Y-58300228D01*
X80128638Y-58300228D01*
X80128858Y-58317489D01*
X80129519Y-58334350D01*
X80130621Y-58350810D01*
X80132162Y-58366870D01*
X80134145Y-58382530D01*
X80136568Y-58397789D01*
X80139431Y-58412647D01*
X80142736Y-58427105D01*
X80144552Y-58434100D01*
X80146480Y-58440998D01*
X80148517Y-58447796D01*
X80150665Y-58454495D01*
X80152923Y-58461093D01*
X80155291Y-58467591D01*
X80157769Y-58473989D01*
X80160357Y-58480286D01*
X80163055Y-58486484D01*
X80165864Y-58492582D01*
X80168782Y-58498579D01*
X80171811Y-58504477D01*
X80174950Y-58510274D01*
X80178199Y-58515972D01*
X80181558Y-58521569D01*
X80185027Y-58527066D01*
X80188621Y-58532358D01*
X80192356Y-58537499D01*
X80196231Y-58542491D01*
X80200246Y-58547332D01*
X80204401Y-58552023D01*
X80208696Y-58556563D01*
X80213131Y-58560954D01*
X80217707Y-58565194D01*
X80222423Y-58569284D01*
X80227279Y-58573224D01*
X80232275Y-58577014D01*
X80237411Y-58580653D01*
X80242688Y-58584143D01*
X80248104Y-58587482D01*
X80253661Y-58590671D01*
X80259358Y-58593709D01*
X80265183Y-58596580D01*
X80271123Y-58599266D01*
X80277177Y-58601766D01*
X80283348Y-58604082D01*
X80289633Y-58606212D01*
X80296033Y-58608157D01*
X80302549Y-58609916D01*
X80309179Y-58611491D01*
X80315925Y-58612880D01*
X80322786Y-58614084D01*
X80329762Y-58615102D01*
X80336853Y-58615936D01*
X80344060Y-58616584D01*
X80351381Y-58617047D01*
X80358818Y-58617325D01*
X80366370Y-58617418D01*
X80380957Y-58617080D01*
X80395085Y-58616066D01*
X80408752Y-58614377D01*
X80421958Y-58612011D01*
X80434704Y-58608970D01*
X80446989Y-58605253D01*
X80452959Y-58603141D01*
X80458813Y-58600860D01*
X80464553Y-58598410D01*
X80470177Y-58595791D01*
X80475687Y-58593003D01*
X80481081Y-58590047D01*
X80486360Y-58586921D01*
X80491524Y-58583626D01*
X80496572Y-58580163D01*
X80501506Y-58576530D01*
X80506324Y-58572728D01*
X80511028Y-58568758D01*
X80515616Y-58564618D01*
X80520089Y-58560310D01*
X80524447Y-58555833D01*
X80528689Y-58551186D01*
X80536829Y-58541387D01*
X80544509Y-58530911D01*
X80551648Y-58519873D01*
X80558326Y-58508384D01*
X80564543Y-58496444D01*
X80570301Y-58484054D01*
X80575597Y-58471213D01*
X80580433Y-58457922D01*
X80584808Y-58444180D01*
X80588723Y-58429988D01*
X80592177Y-58415345D01*
X80595171Y-58400251D01*
X80597704Y-58384707D01*
X80599777Y-58368713D01*
X80601389Y-58352267D01*
X80602540Y-58335371D01*
X80603231Y-58318025D01*
X80603461Y-58300228D01*
X80603081Y-58277060D01*
X80601940Y-58254653D01*
X80601083Y-58243735D01*
X80600037Y-58233007D01*
X80598801Y-58222469D01*
X80597374Y-58212121D01*
X80595757Y-58201964D01*
X80593950Y-58191996D01*
X80591952Y-58182219D01*
X80589765Y-58172632D01*
X80587387Y-58163236D01*
X80584819Y-58154029D01*
X80582060Y-58145013D01*
X80579112Y-58136187D01*
X80575953Y-58127567D01*
X80572564Y-58119166D01*
X80568944Y-58110986D01*
X80565094Y-58103026D01*
X80561014Y-58095287D01*
X80556704Y-58087768D01*
X80552164Y-58080469D01*
X80547393Y-58073390D01*
X80542392Y-58066531D01*
X80537160Y-58059893D01*
X80531698Y-58053475D01*
X80526006Y-58047278D01*
X80520084Y-58041301D01*
X80513932Y-58035544D01*
X80507549Y-58030007D01*
X80500936Y-58024691D01*
X80494027Y-58019569D01*
X80486918Y-58014778D01*
X80479609Y-58010318D01*
X80472100Y-58006188D01*
X80464391Y-58002388D01*
X80456481Y-57998919D01*
X80448371Y-57995779D01*
X80440061Y-57992971D01*
X80431550Y-57990493D01*
X80422840Y-57988345D01*
X80413929Y-57986527D01*
X80404817Y-57985041D01*
X80395506Y-57983884D01*
X80385994Y-57983058D01*
X80376282Y-57982562D01*
X80366370Y-57982397D01*
X80358818Y-57982490D01*
X80351382Y-57982767D01*
X80344060Y-57983231D01*
X80336854Y-57983879D01*
X80329763Y-57984712D01*
X80322786Y-57985731D01*
X80315926Y-57986935D01*
X80309180Y-57988324D01*
X80302549Y-57989899D01*
X80296034Y-57991658D01*
X80289633Y-57993603D01*
X80283348Y-57995733D01*
X80277178Y-57998048D01*
X80271123Y-58000549D01*
X80265183Y-58003235D01*
X80259359Y-58006106D01*
X80253662Y-58009147D01*
X80248105Y-58012344D01*
X80242688Y-58015696D01*
X80237412Y-58019203D01*
X80232275Y-58022866D01*
X80227279Y-58026683D01*
X80222423Y-58030655D01*
X80217707Y-58034783D01*
X80213132Y-58039066D01*
X80208696Y-58043504D01*
X80204401Y-58048097D01*
X80200246Y-58052845D01*
X80196231Y-58057748D01*
X80192356Y-58062807D01*
X80188622Y-58068021D01*
X80185027Y-58073389D01*
X80181558Y-58078811D01*
X80178199Y-58084342D01*
X80174950Y-58089984D01*
X80171811Y-58095736D01*
X80168783Y-58101598D01*
X80165864Y-58107570D01*
X80163056Y-58113652D01*
X80160357Y-58119845D01*
X80157769Y-58126147D01*
X80155291Y-58132560D01*
X80150665Y-58145716D01*
X80146480Y-58159313D01*
X80142736Y-58173350D01*
X80139431Y-58187808D01*
X80136568Y-58202667D01*
X80134145Y-58217926D01*
X80132162Y-58233585D01*
X80130621Y-58249645D01*
X80129519Y-58266106D01*
X80128858Y-58282967D01*
X80128638Y-58300228D01*
X79874245Y-58300228D01*
X79874756Y-58271243D01*
X79876288Y-58243071D01*
X79878841Y-58215715D01*
X79882415Y-58189175D01*
X79887011Y-58163451D01*
X79892628Y-58138543D01*
X79899266Y-58114451D01*
X79906925Y-58091175D01*
X79915606Y-58068715D01*
X79925308Y-58047071D01*
X79936031Y-58026243D01*
X79947776Y-58006231D01*
X79960541Y-57987035D01*
X79974328Y-57968655D01*
X79989137Y-57951091D01*
X80004966Y-57934343D01*
X80021697Y-57918513D01*
X80039208Y-57903705D01*
X80057501Y-57889918D01*
X80076574Y-57877153D01*
X80096429Y-57865408D01*
X80117064Y-57854685D01*
X80138480Y-57844984D01*
X80160678Y-57836303D01*
X80183656Y-57828644D01*
X80207415Y-57822006D01*
X80231955Y-57816389D01*
X80257276Y-57811794D01*
X80283378Y-57808219D01*
X80310262Y-57805666D01*
X80337926Y-57804134D01*
X80366370Y-57803624D01*
X80394740Y-57804137D01*
G37*
G36*
X90136034Y-52758267D02*
G01*
X89700001Y-52758267D01*
X89700001Y-52322233D01*
X90136034Y-52322233D01*
X90136034Y-52758267D01*
G37*
G36*
X96909367Y-53604934D02*
G01*
X96473334Y-53604934D01*
X96473334Y-53168900D01*
X96909367Y-53168900D01*
X96909367Y-53604934D01*
G37*
G36*
X91829367Y-51488267D02*
G01*
X91393334Y-51488267D01*
X91393334Y-51052233D01*
X91829367Y-51052233D01*
X91829367Y-51488267D01*
G37*
G36*
X103259367Y-58261599D02*
G01*
X102823333Y-58261599D01*
X102823333Y-57825567D01*
X103259367Y-57825567D01*
X103259367Y-58261599D01*
G37*
G36*
X103682700Y-54028267D02*
G01*
X103246667Y-54028267D01*
X103246667Y-53592233D01*
X103682700Y-53592233D01*
X103682700Y-54028267D01*
G37*
G36*
X102412699Y-50218267D02*
G01*
X101976667Y-50218267D01*
X101976667Y-49782233D01*
X102412699Y-49782233D01*
X102412699Y-50218267D01*
G37*
G36*
X89712701Y-56568267D02*
G01*
X89276668Y-56568267D01*
X89276668Y-56132233D01*
X89712701Y-56132233D01*
X89712701Y-56568267D01*
G37*
G36*
X96486034Y-48948266D02*
G01*
X96050001Y-48948266D01*
X96050001Y-48512234D01*
X96486034Y-48512234D01*
X96486034Y-48948266D01*
G37*
G36*
X90559367Y-55298266D02*
G01*
X90123334Y-55298266D01*
X90123334Y-54862233D01*
X90559367Y-54862233D01*
X90559367Y-55298266D01*
G37*
G36*
X94792701Y-51488267D02*
G01*
X94356667Y-51488267D01*
X94356667Y-51052233D01*
X94792701Y-51052233D01*
X94792701Y-51488267D01*
G37*
G36*
X94369367Y-51911600D02*
G01*
X93933334Y-51911600D01*
X93933334Y-51475567D01*
X94369367Y-51475567D01*
X94369367Y-51911600D01*
G37*
G36*
X101989367Y-54874933D02*
G01*
X101553333Y-54874933D01*
X101553333Y-54438900D01*
X101989367Y-54438900D01*
X101989367Y-54874933D01*
G37*
G36*
X96486034Y-58684933D02*
G01*
X96050001Y-58684933D01*
X96050001Y-58248899D01*
X96486034Y-58248899D01*
X96486034Y-58684933D01*
G37*
G36*
X100296034Y-50218267D02*
G01*
X99860001Y-50218267D01*
X99860001Y-49782233D01*
X100296034Y-49782233D01*
X100296034Y-50218267D01*
G37*
G36*
X102836033Y-48524933D02*
G01*
X102400001Y-48524933D01*
X102400001Y-48088900D01*
X102836033Y-48088900D01*
X102836033Y-48524933D01*
G37*
G36*
X101142701Y-45561600D02*
G01*
X100706667Y-45561600D01*
X100706667Y-45125567D01*
X101142701Y-45125567D01*
X101142701Y-45561600D01*
G37*
G36*
X89712701Y-56144933D02*
G01*
X89276668Y-56144933D01*
X89276668Y-55708900D01*
X89712701Y-55708900D01*
X89712701Y-56144933D01*
G37*
G36*
X95639368Y-52334933D02*
G01*
X95203334Y-52334933D01*
X95203334Y-51898900D01*
X95639368Y-51898900D01*
X95639368Y-52334933D01*
G37*
G36*
X104106032Y-51911600D02*
G01*
X103670000Y-51911600D01*
X103670000Y-51475567D01*
X104106032Y-51475567D01*
X104106032Y-51911600D01*
G37*
G36*
X97332701Y-56991601D02*
G01*
X96896667Y-56991601D01*
X96896667Y-56555566D01*
X97332701Y-56555566D01*
X97332701Y-56991601D01*
G37*
G36*
X91406034Y-49371600D02*
G01*
X90970001Y-49371600D01*
X90970001Y-48935567D01*
X91406034Y-48935567D01*
X91406034Y-49371600D01*
G37*
G36*
X96909367Y-57838265D02*
G01*
X96473334Y-57838265D01*
X96473334Y-57402233D01*
X96909367Y-57402233D01*
X96909367Y-57838265D01*
G37*
G36*
X104952700Y-51911600D02*
G01*
X104516666Y-51911600D01*
X104516666Y-51475567D01*
X104952700Y-51475567D01*
X104952700Y-51911600D01*
G37*
D12*
X76695999Y-55020000D02*
X84424000Y-55020000D01*
D10*
G36*
X103259367Y-57414933D02*
G01*
X102823333Y-57414933D01*
X102823333Y-56978899D01*
X103259367Y-56978899D01*
X103259367Y-57414933D01*
G37*
G36*
X96909367Y-49371600D02*
G01*
X96473334Y-49371600D01*
X96473334Y-48935567D01*
X96909367Y-48935567D01*
X96909367Y-49371600D01*
G37*
G36*
X93522700Y-56144933D02*
G01*
X93086668Y-56144933D01*
X93086668Y-55708900D01*
X93522700Y-55708900D01*
X93522700Y-56144933D01*
G37*
G36*
X90559367Y-56568267D02*
G01*
X90123334Y-56568267D01*
X90123334Y-56132233D01*
X90559367Y-56132233D01*
X90559367Y-56568267D01*
G37*
G36*
X90982701Y-51488267D02*
G01*
X90546668Y-51488267D01*
X90546668Y-51052233D01*
X90982701Y-51052233D01*
X90982701Y-51488267D01*
G37*
G36*
X99449367Y-46408267D02*
G01*
X99013334Y-46408267D01*
X99013334Y-45972234D01*
X99449367Y-45972234D01*
X99449367Y-46408267D01*
G37*
G36*
X104529366Y-57838265D02*
G01*
X104093334Y-57838265D01*
X104093334Y-57402233D01*
X104529366Y-57402233D01*
X104529366Y-57838265D01*
G37*
G36*
X94369367Y-46408267D02*
G01*
X93933334Y-46408267D01*
X93933334Y-45972234D01*
X94369367Y-45972234D01*
X94369367Y-46408267D01*
G37*
G36*
X104529366Y-49371600D02*
G01*
X104093334Y-49371600D01*
X104093334Y-48935567D01*
X104529366Y-48935567D01*
X104529366Y-49371600D01*
G37*
G36*
X99449367Y-53181600D02*
G01*
X99013334Y-53181600D01*
X99013334Y-52745566D01*
X99449367Y-52745566D01*
X99449367Y-53181600D01*
G37*
G36*
X95216035Y-59954932D02*
G01*
X94780001Y-59954932D01*
X94780001Y-59518900D01*
X95216035Y-59518900D01*
X95216035Y-59954932D01*
G37*
G36*
X98179368Y-55298266D02*
G01*
X97743334Y-55298266D01*
X97743334Y-54862233D01*
X98179368Y-54862233D01*
X98179368Y-55298266D01*
G37*
G36*
X90982701Y-55298266D02*
G01*
X90546668Y-55298266D01*
X90546668Y-54862233D01*
X90982701Y-54862233D01*
X90982701Y-55298266D01*
G37*
G36*
X91829367Y-49371600D02*
G01*
X91393334Y-49371600D01*
X91393334Y-48935567D01*
X91829367Y-48935567D01*
X91829367Y-49371600D01*
G37*
D12*
X77189106Y-59259642D02*
X76695999Y-58760712D01*
D10*
G36*
X94369367Y-52758267D02*
G01*
X93933334Y-52758267D01*
X93933334Y-52322233D01*
X94369367Y-52322233D01*
X94369367Y-52758267D01*
G37*
G36*
X94792701Y-58684933D02*
G01*
X94356667Y-58684933D01*
X94356667Y-58248899D01*
X94792701Y-58248899D01*
X94792701Y-58684933D01*
G37*
G36*
X101142701Y-49371600D02*
G01*
X100706667Y-49371600D01*
X100706667Y-48935567D01*
X101142701Y-48935567D01*
X101142701Y-49371600D01*
G37*
G36*
X94369367Y-57838265D02*
G01*
X93933334Y-57838265D01*
X93933334Y-57402233D01*
X94369367Y-57402233D01*
X94369367Y-57838265D01*
G37*
D11*
X88370000Y-32120000D02*
X88370000Y-61480000D01*
D10*
G36*
X99026034Y-59108266D02*
G01*
X98590000Y-59108266D01*
X98590000Y-58672233D01*
X99026034Y-58672233D01*
X99026034Y-59108266D01*
G37*
G36*
X101989367Y-49794933D02*
G01*
X101553333Y-49794933D01*
X101553333Y-49358900D01*
X101989367Y-49358900D01*
X101989367Y-49794933D01*
G37*
G36*
X102836033Y-52334933D02*
G01*
X102400001Y-52334933D01*
X102400001Y-51898900D01*
X102836033Y-51898900D01*
X102836033Y-52334933D01*
G37*
G36*
X104940000Y-47665567D02*
G01*
X101976667Y-47665567D01*
X101976667Y-45125567D01*
X102400001Y-45125567D01*
X102400001Y-47242233D01*
X104516666Y-47242233D01*
X104516666Y-45125567D01*
X102400001Y-45125567D01*
X101976667Y-45125567D01*
X101976667Y-44702234D01*
X104940000Y-44702234D01*
X104940000Y-47665567D01*
G37*
G36*
X97756034Y-58684933D02*
G01*
X97320000Y-58684933D01*
X97320000Y-58248899D01*
X97756034Y-58248899D01*
X97756034Y-58684933D01*
G37*
G36*
X104952700Y-50218267D02*
G01*
X104516666Y-50218267D01*
X104516666Y-49782233D01*
X104952700Y-49782233D01*
X104952700Y-50218267D01*
G37*
G36*
X98602701Y-52334933D02*
G01*
X98166667Y-52334933D01*
X98166667Y-51898900D01*
X98602701Y-51898900D01*
X98602701Y-52334933D01*
G37*
G36*
X93099367Y-50218267D02*
G01*
X92663334Y-50218267D01*
X92663334Y-49782233D01*
X93099367Y-49782233D01*
X93099367Y-50218267D01*
G37*
G36*
X96909367Y-50218267D02*
G01*
X96473334Y-50218267D01*
X96473334Y-49782233D01*
X96909367Y-49782233D01*
X96909367Y-50218267D01*
G37*
G36*
X101566035Y-48101600D02*
G01*
X101130000Y-48101600D01*
X101130000Y-47665567D01*
X101566035Y-47665567D01*
X101566035Y-48101600D01*
G37*
G36*
X103682700Y-53181600D02*
G01*
X103246667Y-53181600D01*
X103246667Y-52745566D01*
X103682700Y-52745566D01*
X103682700Y-53181600D01*
G37*
G36*
X101566035Y-58684933D02*
G01*
X101130000Y-58684933D01*
X101130000Y-58248899D01*
X101566035Y-58248899D01*
X101566035Y-58684933D01*
G37*
G36*
X103259367Y-51911600D02*
G01*
X102823333Y-51911600D01*
X102823333Y-51475567D01*
X103259367Y-51475567D01*
X103259367Y-51911600D01*
G37*
G36*
X98602701Y-51064934D02*
G01*
X98166667Y-51064934D01*
X98166667Y-50628900D01*
X98602701Y-50628900D01*
X98602701Y-51064934D01*
G37*
G36*
X100296034Y-58261599D02*
G01*
X99860001Y-58261599D01*
X99860001Y-57825567D01*
X100296034Y-57825567D01*
X100296034Y-58261599D01*
G37*
G36*
X95216035Y-50218267D02*
G01*
X94780001Y-50218267D01*
X94780001Y-49782233D01*
X95216035Y-49782233D01*
X95216035Y-50218267D01*
G37*
G36*
X104529366Y-54451600D02*
G01*
X104093334Y-54451600D01*
X104093334Y-54015566D01*
X104529366Y-54015566D01*
X104529366Y-54451600D01*
G37*
G36*
X100296034Y-48948266D02*
G01*
X99860001Y-48948266D01*
X99860001Y-48512234D01*
X100296034Y-48512234D01*
X100296034Y-48948266D01*
G37*
G36*
X100296034Y-49371600D02*
G01*
X99860001Y-49371600D01*
X99860001Y-48935567D01*
X100296034Y-48935567D01*
X100296034Y-49371600D01*
G37*
G36*
X99872700Y-45984933D02*
G01*
X99436667Y-45984933D01*
X99436667Y-45548900D01*
X99872700Y-45548900D01*
X99872700Y-45984933D01*
G37*
G36*
X92676034Y-56568267D02*
G01*
X92240001Y-56568267D01*
X92240001Y-56132233D01*
X92676034Y-56132233D01*
X92676034Y-56568267D01*
G37*
G36*
X93946034Y-55721600D02*
G01*
X93510001Y-55721600D01*
X93510001Y-55285567D01*
X93946034Y-55285567D01*
X93946034Y-55721600D01*
G37*
G36*
X97756034Y-48524933D02*
G01*
X97320000Y-48524933D01*
X97320000Y-48088900D01*
X97756034Y-48088900D01*
X97756034Y-48524933D01*
G37*
G36*
X98602701Y-54874933D02*
G01*
X98166667Y-54874933D01*
X98166667Y-54438900D01*
X98602701Y-54438900D01*
X98602701Y-54874933D01*
G37*
G36*
X91406034Y-50218267D02*
G01*
X90970001Y-50218267D01*
X90970001Y-49782233D01*
X91406034Y-49782233D01*
X91406034Y-50218267D01*
G37*
G36*
X103259367Y-60378266D02*
G01*
X102823333Y-60378266D01*
X102823333Y-59942232D01*
X103259367Y-59942232D01*
X103259367Y-60378266D01*
G37*
G36*
X104952700Y-49371600D02*
G01*
X104516666Y-49371600D01*
X104516666Y-48935567D01*
X104952700Y-48935567D01*
X104952700Y-49371600D01*
G37*
G36*
X94792701Y-48524933D02*
G01*
X94356667Y-48524933D01*
X94356667Y-48088900D01*
X94792701Y-48088900D01*
X94792701Y-48524933D01*
G37*
G36*
X91406034Y-48524933D02*
G01*
X90970001Y-48524933D01*
X90970001Y-48088900D01*
X91406034Y-48088900D01*
X91406034Y-48524933D01*
G37*
G36*
X102412699Y-58684933D02*
G01*
X101976667Y-58684933D01*
X101976667Y-58248899D01*
X102412699Y-58248899D01*
X102412699Y-58684933D01*
G37*
G36*
X101142701Y-47254933D02*
G01*
X100706667Y-47254933D01*
X100706667Y-46818900D01*
X101142701Y-46818900D01*
X101142701Y-47254933D01*
G37*
G36*
X102412699Y-56144933D02*
G01*
X101976667Y-56144933D01*
X101976667Y-55708900D01*
X102412699Y-55708900D01*
X102412699Y-56144933D01*
G37*
G36*
X99872700Y-46408267D02*
G01*
X99436667Y-46408267D01*
X99436667Y-45972234D01*
X99872700Y-45972234D01*
X99872700Y-46408267D01*
G37*
G36*
X94369367Y-58261599D02*
G01*
X93933334Y-58261599D01*
X93933334Y-57825567D01*
X94369367Y-57825567D01*
X94369367Y-58261599D01*
G37*
G36*
X93099367Y-53604934D02*
G01*
X92663334Y-53604934D01*
X92663334Y-53168900D01*
X93099367Y-53168900D01*
X93099367Y-53604934D01*
G37*
G36*
X98602701Y-47254933D02*
G01*
X98166667Y-47254933D01*
X98166667Y-46818900D01*
X98602701Y-46818900D01*
X98602701Y-47254933D01*
G37*
G36*
X101566035Y-57838265D02*
G01*
X101130000Y-57838265D01*
X101130000Y-57402233D01*
X101566035Y-57402233D01*
X101566035Y-57838265D01*
G37*
G36*
X98179368Y-45138267D02*
G01*
X97743334Y-45138267D01*
X97743334Y-44702234D01*
X98179368Y-44702234D01*
X98179368Y-45138267D01*
G37*
G36*
X91829367Y-48524933D02*
G01*
X91393334Y-48524933D01*
X91393334Y-48088900D01*
X91829367Y-48088900D01*
X91829367Y-48524933D01*
G37*
G36*
X99872700Y-58261599D02*
G01*
X99436667Y-58261599D01*
X99436667Y-57825567D01*
X99872700Y-57825567D01*
X99872700Y-58261599D01*
G37*
G36*
X100719367Y-53181600D02*
G01*
X100283334Y-53181600D01*
X100283334Y-52745566D01*
X100719367Y-52745566D01*
X100719367Y-53181600D01*
G37*
G36*
X92252701Y-51064934D02*
G01*
X91816667Y-51064934D01*
X91816667Y-50628900D01*
X92252701Y-50628900D01*
X92252701Y-51064934D01*
G37*
G36*
X96062701Y-59108266D02*
G01*
X95626667Y-59108266D01*
X95626667Y-58672233D01*
X96062701Y-58672233D01*
X96062701Y-59108266D01*
G37*
G36*
X80882931Y-57530324D02*
G01*
X80628460Y-57530324D01*
X80565993Y-57351471D01*
X80170150Y-57351471D01*
X80108341Y-57530324D01*
X79853870Y-57530324D01*
X79987581Y-57169328D01*
X80233932Y-57169328D01*
X80502869Y-57169328D01*
X80368072Y-56778746D01*
X80233932Y-57169328D01*
X79987581Y-57169328D01*
X80217493Y-56548608D01*
X80519307Y-56548608D01*
X80882931Y-57530324D01*
G37*
G36*
X103259367Y-51064934D02*
G01*
X102823333Y-51064934D01*
X102823333Y-50628900D01*
X103259367Y-50628900D01*
X103259367Y-51064934D01*
G37*
G36*
X104952700Y-53181600D02*
G01*
X104516666Y-53181600D01*
X104516666Y-52745566D01*
X104952700Y-52745566D01*
X104952700Y-53181600D01*
G37*
G36*
X99449367Y-49371600D02*
G01*
X99013334Y-49371600D01*
X99013334Y-48935567D01*
X99449367Y-48935567D01*
X99449367Y-49371600D01*
G37*
G36*
X94792701Y-49371600D02*
G01*
X94356667Y-49371600D01*
X94356667Y-48935567D01*
X94792701Y-48935567D01*
X94792701Y-49371600D01*
G37*
G36*
X103259367Y-53604934D02*
G01*
X102823333Y-53604934D01*
X102823333Y-53168900D01*
X103259367Y-53168900D01*
X103259367Y-53604934D01*
G37*
G36*
X99026034Y-48948266D02*
G01*
X98590000Y-48948266D01*
X98590000Y-48512234D01*
X99026034Y-48512234D01*
X99026034Y-48948266D01*
G37*
G36*
X93099367Y-53181600D02*
G01*
X92663334Y-53181600D01*
X92663334Y-52745566D01*
X93099367Y-52745566D01*
X93099367Y-53181600D01*
G37*
G36*
X96909367Y-46408267D02*
G01*
X96473334Y-46408267D01*
X96473334Y-45972234D01*
X96909367Y-45972234D01*
X96909367Y-46408267D01*
G37*
G36*
X93099367Y-59531598D02*
G01*
X92663334Y-59531598D01*
X92663334Y-59095566D01*
X93099367Y-59095566D01*
X93099367Y-59531598D01*
G37*
G36*
X94369367Y-59531598D02*
G01*
X93933334Y-59531598D01*
X93933334Y-59095566D01*
X94369367Y-59095566D01*
X94369367Y-59531598D01*
G37*
D12*
X84424000Y-55020000D02*
X84424000Y-59259642D01*
D10*
G36*
X89712701Y-51064934D02*
G01*
X89276668Y-51064934D01*
X89276668Y-50628900D01*
X89712701Y-50628900D01*
X89712701Y-51064934D01*
G37*
G36*
X104106032Y-48524933D02*
G01*
X103670000Y-48524933D01*
X103670000Y-48088900D01*
X104106032Y-48088900D01*
X104106032Y-48524933D01*
G37*
G36*
X96062701Y-51911600D02*
G01*
X95626667Y-51911600D01*
X95626667Y-51475567D01*
X96062701Y-51475567D01*
X96062701Y-51911600D01*
G37*
G36*
X93099367Y-52334933D02*
G01*
X92663334Y-52334933D01*
X92663334Y-51898900D01*
X93099367Y-51898900D01*
X93099367Y-52334933D01*
G37*
G36*
X97332701Y-51488267D02*
G01*
X96896667Y-51488267D01*
X96896667Y-51052233D01*
X97332701Y-51052233D01*
X97332701Y-51488267D01*
G37*
G36*
X101566035Y-47678267D02*
G01*
X101130000Y-47678267D01*
X101130000Y-47242233D01*
X101566035Y-47242233D01*
X101566035Y-47678267D01*
G37*
G36*
X99026034Y-54028267D02*
G01*
X98590000Y-54028267D01*
X98590000Y-53592233D01*
X99026034Y-53592233D01*
X99026034Y-54028267D01*
G37*
D11*
X80170000Y-45798713D02*
X80170000Y-45490000D01*
D10*
G36*
X103682700Y-52334933D02*
G01*
X103246667Y-52334933D01*
X103246667Y-51898900D01*
X103682700Y-51898900D01*
X103682700Y-52334933D01*
G37*
G36*
X94792701Y-60378266D02*
G01*
X94356667Y-60378266D01*
X94356667Y-59942232D01*
X94792701Y-59942232D01*
X94792701Y-60378266D01*
G37*
G36*
X102412699Y-59108266D02*
G01*
X101976667Y-59108266D01*
X101976667Y-58672233D01*
X102412699Y-58672233D01*
X102412699Y-59108266D01*
G37*
G36*
X94369367Y-59954932D02*
G01*
X93933334Y-59954932D01*
X93933334Y-59518900D01*
X94369367Y-59518900D01*
X94369367Y-59954932D01*
G37*
G36*
X96062701Y-52758267D02*
G01*
X95626667Y-52758267D01*
X95626667Y-52322233D01*
X96062701Y-52322233D01*
X96062701Y-52758267D01*
G37*
G36*
X99449367Y-54874933D02*
G01*
X99013334Y-54874933D01*
X99013334Y-54438900D01*
X99449367Y-54438900D01*
X99449367Y-54874933D01*
G37*
G36*
X104093334Y-46818900D02*
G01*
X102823333Y-46818900D01*
X102823333Y-45548900D01*
X104093334Y-45548900D01*
X104093334Y-46818900D01*
G37*
G36*
X93522700Y-55721600D02*
G01*
X93086668Y-55721600D01*
X93086668Y-55285567D01*
X93522700Y-55285567D01*
X93522700Y-55721600D01*
G37*
D11*
X80868713Y-45100000D02*
X80560000Y-45100000D01*
D10*
G36*
X98179368Y-57414933D02*
G01*
X97743334Y-57414933D01*
X97743334Y-56978899D01*
X98179368Y-56978899D01*
X98179368Y-57414933D01*
G37*
G36*
X101989367Y-56144933D02*
G01*
X101553333Y-56144933D01*
X101553333Y-55708900D01*
X101989367Y-55708900D01*
X101989367Y-56144933D01*
G37*
G36*
X98179368Y-47678267D02*
G01*
X97743334Y-47678267D01*
X97743334Y-47242233D01*
X98179368Y-47242233D01*
X98179368Y-47678267D01*
G37*
G36*
X94369367Y-52334933D02*
G01*
X93933334Y-52334933D01*
X93933334Y-51898900D01*
X94369367Y-51898900D01*
X94369367Y-52334933D01*
G37*
G36*
X92252701Y-56144933D02*
G01*
X91816667Y-56144933D01*
X91816667Y-55708900D01*
X92252701Y-55708900D01*
X92252701Y-56144933D01*
G37*
G36*
X103682700Y-58261599D02*
G01*
X103246667Y-58261599D01*
X103246667Y-57825567D01*
X103682700Y-57825567D01*
X103682700Y-58261599D01*
G37*
G36*
X103682700Y-59531598D02*
G01*
X103246667Y-59531598D01*
X103246667Y-59095566D01*
X103682700Y-59095566D01*
X103682700Y-59531598D01*
G37*
G36*
X101989367Y-60378266D02*
G01*
X101553333Y-60378266D01*
X101553333Y-59942232D01*
X101989367Y-59942232D01*
X101989367Y-60378266D01*
G37*
G36*
X96909367Y-50641601D02*
G01*
X96473334Y-50641601D01*
X96473334Y-50205567D01*
X96909367Y-50205567D01*
X96909367Y-50641601D01*
G37*
G36*
X97332701Y-58261599D02*
G01*
X96896667Y-58261599D01*
X96896667Y-57825567D01*
X97332701Y-57825567D01*
X97332701Y-58261599D01*
G37*
G36*
X90982701Y-52334933D02*
G01*
X90546668Y-52334933D01*
X90546668Y-51898900D01*
X90982701Y-51898900D01*
X90982701Y-52334933D01*
G37*
G36*
X102412699Y-57838265D02*
G01*
X101976667Y-57838265D01*
X101976667Y-57402233D01*
X102412699Y-57402233D01*
X102412699Y-57838265D01*
G37*
G36*
X99872700Y-47678267D02*
G01*
X99436667Y-47678267D01*
X99436667Y-47242233D01*
X99872700Y-47242233D01*
X99872700Y-47678267D01*
G37*
G36*
X101566035Y-54028267D02*
G01*
X101130000Y-54028267D01*
X101130000Y-53592233D01*
X101566035Y-53592233D01*
X101566035Y-54028267D01*
G37*
G36*
X89712701Y-55721600D02*
G01*
X89276668Y-55721600D01*
X89276668Y-55285567D01*
X89712701Y-55285567D01*
X89712701Y-55721600D01*
G37*
G36*
X90982701Y-51064934D02*
G01*
X90546668Y-51064934D01*
X90546668Y-50628900D01*
X90982701Y-50628900D01*
X90982701Y-51064934D01*
G37*
G36*
X100296034Y-58684933D02*
G01*
X99860001Y-58684933D01*
X99860001Y-58248899D01*
X100296034Y-58248899D01*
X100296034Y-58684933D01*
G37*
G36*
X99026034Y-56991601D02*
G01*
X98590000Y-56991601D01*
X98590000Y-56555566D01*
X99026034Y-56555566D01*
X99026034Y-56991601D01*
G37*
G36*
X91406034Y-54874933D02*
G01*
X90970001Y-54874933D01*
X90970001Y-54438900D01*
X91406034Y-54438900D01*
X91406034Y-54874933D01*
G37*
D12*
X84424000Y-59259642D02*
X84424000Y-59259642D01*
D10*
G36*
X93522700Y-50218267D02*
G01*
X93086668Y-50218267D01*
X93086668Y-49782233D01*
X93522700Y-49782233D01*
X93522700Y-50218267D01*
G37*
G36*
X94792701Y-50218267D02*
G01*
X94356667Y-50218267D01*
X94356667Y-49782233D01*
X94792701Y-49782233D01*
X94792701Y-50218267D01*
G37*
G36*
X90559367Y-53181600D02*
G01*
X90123334Y-53181600D01*
X90123334Y-52745566D01*
X90559367Y-52745566D01*
X90559367Y-53181600D01*
G37*
G36*
X101566035Y-55721600D02*
G01*
X101130000Y-55721600D01*
X101130000Y-55285567D01*
X101566035Y-55285567D01*
X101566035Y-55721600D01*
G37*
G36*
X96486034Y-50218267D02*
G01*
X96050001Y-50218267D01*
X96050001Y-49782233D01*
X96486034Y-49782233D01*
X96486034Y-50218267D01*
G37*
G36*
X103682700Y-48524933D02*
G01*
X103246667Y-48524933D01*
X103246667Y-48088900D01*
X103682700Y-48088900D01*
X103682700Y-48524933D01*
G37*
G36*
X90982701Y-48948266D02*
G01*
X90546668Y-48948266D01*
X90546668Y-48512234D01*
X90982701Y-48512234D01*
X90982701Y-48948266D01*
G37*
G36*
X92676034Y-51488267D02*
G01*
X92240001Y-51488267D01*
X92240001Y-51052233D01*
X92676034Y-51052233D01*
X92676034Y-51488267D01*
G37*
G36*
X93099367Y-48101600D02*
G01*
X92663334Y-48101600D01*
X92663334Y-47665567D01*
X93099367Y-47665567D01*
X93099367Y-48101600D01*
G37*
G36*
X96909367Y-51064934D02*
G01*
X96473334Y-51064934D01*
X96473334Y-50628900D01*
X96909367Y-50628900D01*
X96909367Y-51064934D01*
G37*
G36*
X89712701Y-53604934D02*
G01*
X89276668Y-53604934D01*
X89276668Y-53168900D01*
X89712701Y-53168900D01*
X89712701Y-53604934D01*
G37*
G36*
X96062701Y-58261599D02*
G01*
X95626667Y-58261599D01*
X95626667Y-57825567D01*
X96062701Y-57825567D01*
X96062701Y-58261599D01*
G37*
G36*
X102412699Y-59954932D02*
G01*
X101976667Y-59954932D01*
X101976667Y-59518900D01*
X102412699Y-59518900D01*
X102412699Y-59954932D01*
G37*
G36*
X101989367Y-51488267D02*
G01*
X101553333Y-51488267D01*
X101553333Y-51052233D01*
X101989367Y-51052233D01*
X101989367Y-51488267D01*
G37*
G36*
X95639368Y-48524933D02*
G01*
X95203334Y-48524933D01*
X95203334Y-48088900D01*
X95639368Y-48088900D01*
X95639368Y-48524933D01*
G37*
G36*
X96909367Y-45138267D02*
G01*
X96473334Y-45138267D01*
X96473334Y-44702234D01*
X96909367Y-44702234D01*
X96909367Y-45138267D01*
G37*
G36*
X102412699Y-60378266D02*
G01*
X101976667Y-60378266D01*
X101976667Y-59942232D01*
X102412699Y-59942232D01*
X102412699Y-60378266D01*
G37*
G36*
X90982701Y-50218267D02*
G01*
X90546668Y-50218267D01*
X90546668Y-49782233D01*
X90982701Y-49782233D01*
X90982701Y-50218267D01*
G37*
G36*
X90982701Y-50641601D02*
G01*
X90546668Y-50641601D01*
X90546668Y-50205567D01*
X90982701Y-50205567D01*
X90982701Y-50641601D01*
G37*
G36*
X97756034Y-46831600D02*
G01*
X97320000Y-46831600D01*
X97320000Y-46395567D01*
X97756034Y-46395567D01*
X97756034Y-46831600D01*
G37*
G36*
X95639368Y-60378266D02*
G01*
X95203334Y-60378266D01*
X95203334Y-59942232D01*
X95639368Y-59942232D01*
X95639368Y-60378266D01*
G37*
G36*
X94792701Y-58261599D02*
G01*
X94356667Y-58261599D01*
X94356667Y-57825567D01*
X94792701Y-57825567D01*
X94792701Y-58261599D01*
G37*
G36*
X95639368Y-50218267D02*
G01*
X95203334Y-50218267D01*
X95203334Y-49782233D01*
X95639368Y-49782233D01*
X95639368Y-50218267D01*
G37*
G36*
X95639368Y-51911600D02*
G01*
X95203334Y-51911600D01*
X95203334Y-51475567D01*
X95639368Y-51475567D01*
X95639368Y-51911600D01*
G37*
G36*
X99026034Y-47678267D02*
G01*
X98590000Y-47678267D01*
X98590000Y-47242233D01*
X99026034Y-47242233D01*
X99026034Y-47678267D01*
G37*
G36*
X97332701Y-55298266D02*
G01*
X96896667Y-55298266D01*
X96896667Y-54862233D01*
X97332701Y-54862233D01*
X97332701Y-55298266D01*
G37*
G36*
X101142701Y-46408267D02*
G01*
X100706667Y-46408267D01*
X100706667Y-45972234D01*
X101142701Y-45972234D01*
X101142701Y-46408267D01*
G37*
G36*
X90982701Y-49371600D02*
G01*
X90546668Y-49371600D01*
X90546668Y-48935567D01*
X90982701Y-48935567D01*
X90982701Y-49371600D01*
G37*
G36*
X96062701Y-57838265D02*
G01*
X95626667Y-57838265D01*
X95626667Y-57402233D01*
X96062701Y-57402233D01*
X96062701Y-57838265D01*
G37*
G36*
X78500505Y-58777620D02*
G01*
X78253802Y-58777620D01*
X78253802Y-58445690D01*
X78091042Y-58445690D01*
X78069233Y-58445385D01*
X78048019Y-58444469D01*
X78027401Y-58442942D01*
X78007379Y-58440804D01*
X77987953Y-58438056D01*
X77969122Y-58434697D01*
X77950887Y-58430727D01*
X77933248Y-58426146D01*
X77916204Y-58420955D01*
X77899757Y-58415153D01*
X77883905Y-58408740D01*
X77868648Y-58401716D01*
X77853988Y-58394082D01*
X77839923Y-58385837D01*
X77826454Y-58376982D01*
X77813581Y-58367515D01*
X77801398Y-58357362D01*
X77790002Y-58346609D01*
X77779391Y-58335254D01*
X77769567Y-58323300D01*
X77760528Y-58310744D01*
X77752275Y-58297588D01*
X77744809Y-58283831D01*
X77738128Y-58269473D01*
X77732233Y-58254515D01*
X77727125Y-58238956D01*
X77722802Y-58222796D01*
X77719265Y-58206035D01*
X77716514Y-58188674D01*
X77714549Y-58170712D01*
X77713370Y-58152150D01*
X77712977Y-58132987D01*
X77967370Y-58132987D01*
X77967525Y-58141036D01*
X77967991Y-58148846D01*
X77968766Y-58156415D01*
X77969853Y-58163743D01*
X77971250Y-58170832D01*
X77972957Y-58177680D01*
X77974974Y-58184288D01*
X77977302Y-58190656D01*
X77979940Y-58196784D01*
X77982889Y-58202671D01*
X77986148Y-58208318D01*
X77989717Y-58213724D01*
X77993597Y-58218891D01*
X77997787Y-58223817D01*
X78002288Y-58228502D01*
X78007099Y-58232948D01*
X78012110Y-58237060D01*
X78017371Y-58240908D01*
X78022883Y-58244490D01*
X78028645Y-58247807D01*
X78034657Y-58250858D01*
X78040920Y-58253644D01*
X78047433Y-58256165D01*
X78054196Y-58258420D01*
X78061210Y-58260410D01*
X78068474Y-58262134D01*
X78075988Y-58263594D01*
X78083753Y-58264787D01*
X78091768Y-58265716D01*
X78100033Y-58266379D01*
X78108548Y-58266777D01*
X78117314Y-58266910D01*
X78253802Y-58266910D01*
X78253802Y-57999700D01*
X78117314Y-57999700D01*
X78108548Y-57999833D01*
X78100033Y-58000231D01*
X78091768Y-58000894D01*
X78083753Y-58001823D01*
X78075988Y-58003017D01*
X78068474Y-58004476D01*
X78061210Y-58006201D01*
X78054196Y-58008191D01*
X78047433Y-58010446D01*
X78040920Y-58012966D01*
X78034657Y-58015752D01*
X78028645Y-58018804D01*
X78022883Y-58022121D01*
X78017371Y-58025703D01*
X78012110Y-58029550D01*
X78007099Y-58033663D01*
X78002288Y-58038031D01*
X77997787Y-58042644D01*
X77993597Y-58047503D01*
X77989717Y-58052607D01*
X77986148Y-58057956D01*
X77982889Y-58063550D01*
X77979940Y-58069390D01*
X77977302Y-58075475D01*
X77974974Y-58081805D01*
X77972957Y-58088381D01*
X77971250Y-58095202D01*
X77969853Y-58102268D01*
X77968766Y-58109580D01*
X77967991Y-58117137D01*
X77967525Y-58124939D01*
X77967370Y-58132987D01*
X77712977Y-58132987D01*
X77713370Y-58113825D01*
X77714549Y-58095270D01*
X77716514Y-58077320D01*
X77719265Y-58059976D01*
X77722802Y-58043237D01*
X77727125Y-58027105D01*
X77732233Y-58011578D01*
X77738128Y-57996657D01*
X77744809Y-57982342D01*
X77752275Y-57968633D01*
X77760528Y-57955529D01*
X77769567Y-57943032D01*
X77779391Y-57931140D01*
X77790002Y-57919854D01*
X77801398Y-57909173D01*
X77813581Y-57899099D01*
X77826379Y-57889632D01*
X77839783Y-57880777D01*
X77853793Y-57872532D01*
X77868408Y-57864898D01*
X77883629Y-57857874D01*
X77899456Y-57851461D01*
X77915889Y-57845659D01*
X77932928Y-57840468D01*
X77950572Y-57835887D01*
X77968822Y-57831917D01*
X77987677Y-57828558D01*
X78007139Y-57825810D01*
X78027206Y-57823672D01*
X78047879Y-57822145D01*
X78069158Y-57821229D01*
X78091042Y-57820924D01*
X78500505Y-57820924D01*
X78500505Y-58777620D01*
G37*
G36*
X96909367Y-55721600D02*
G01*
X96473334Y-55721600D01*
X96473334Y-55285567D01*
X96909367Y-55285567D01*
X96909367Y-55721600D01*
G37*
G36*
X104952700Y-58261599D02*
G01*
X104516666Y-58261599D01*
X104516666Y-57825567D01*
X104952700Y-57825567D01*
X104952700Y-58261599D01*
G37*
G36*
X92252701Y-56991601D02*
G01*
X91816667Y-56991601D01*
X91816667Y-56555566D01*
X92252701Y-56555566D01*
X92252701Y-56991601D01*
G37*
G36*
X90559367Y-53604934D02*
G01*
X90123334Y-53604934D01*
X90123334Y-53168900D01*
X90559367Y-53168900D01*
X90559367Y-53604934D01*
G37*
G36*
X89712701Y-51488267D02*
G01*
X89276668Y-51488267D01*
X89276668Y-51052233D01*
X89712701Y-51052233D01*
X89712701Y-51488267D01*
G37*
G36*
X100296034Y-59108266D02*
G01*
X99860001Y-59108266D01*
X99860001Y-58672233D01*
X100296034Y-58672233D01*
X100296034Y-59108266D01*
G37*
D12*
X76695999Y-58760712D02*
X76695999Y-58760712D01*
D10*
G36*
X97756034Y-52758267D02*
G01*
X97320000Y-52758267D01*
X97320000Y-52322233D01*
X97756034Y-52322233D01*
X97756034Y-52758267D01*
G37*
G36*
X96909367Y-60378266D02*
G01*
X96473334Y-60378266D01*
X96473334Y-59942232D01*
X96909367Y-59942232D01*
X96909367Y-60378266D01*
G37*
G36*
X96062701Y-54874933D02*
G01*
X95626667Y-54874933D01*
X95626667Y-54438900D01*
X96062701Y-54438900D01*
X96062701Y-54874933D01*
G37*
G36*
X99026034Y-52334933D02*
G01*
X98590000Y-52334933D01*
X98590000Y-51898900D01*
X99026034Y-51898900D01*
X99026034Y-52334933D01*
G37*
G36*
X95216035Y-51488267D02*
G01*
X94780001Y-51488267D01*
X94780001Y-51052233D01*
X95216035Y-51052233D01*
X95216035Y-51488267D01*
G37*
G36*
X96909367Y-59108266D02*
G01*
X96473334Y-59108266D01*
X96473334Y-58672233D01*
X96909367Y-58672233D01*
X96909367Y-59108266D01*
G37*
G36*
X96062701Y-45561600D02*
G01*
X95626667Y-45561600D01*
X95626667Y-45125567D01*
X96062701Y-45125567D01*
X96062701Y-45561600D01*
G37*
G36*
X99872700Y-45561600D02*
G01*
X99436667Y-45561600D01*
X99436667Y-45125567D01*
X99872700Y-45125567D01*
X99872700Y-45561600D01*
G37*
G36*
X100719367Y-56991601D02*
G01*
X100283334Y-56991601D01*
X100283334Y-56555566D01*
X100719367Y-56555566D01*
X100719367Y-56991601D01*
G37*
G36*
X104952700Y-58684933D02*
G01*
X104516666Y-58684933D01*
X104516666Y-58248899D01*
X104952700Y-58248899D01*
X104952700Y-58684933D01*
G37*
G36*
X100719367Y-58684933D02*
G01*
X100283334Y-58684933D01*
X100283334Y-58248899D01*
X100719367Y-58248899D01*
X100719367Y-58684933D01*
G37*
G36*
X100296034Y-56144933D02*
G01*
X99860001Y-56144933D01*
X99860001Y-55708900D01*
X100296034Y-55708900D01*
X100296034Y-56144933D01*
G37*
G36*
X90136034Y-53604934D02*
G01*
X89700001Y-53604934D01*
X89700001Y-53168900D01*
X90136034Y-53168900D01*
X90136034Y-53604934D01*
G37*
G36*
X103259367Y-54874933D02*
G01*
X102823333Y-54874933D01*
X102823333Y-54438900D01*
X103259367Y-54438900D01*
X103259367Y-54874933D01*
G37*
G36*
X91829367Y-55298266D02*
G01*
X91393334Y-55298266D01*
X91393334Y-54862233D01*
X91829367Y-54862233D01*
X91829367Y-55298266D01*
G37*
G36*
X92240001Y-47665567D02*
G01*
X89276668Y-47665567D01*
X89276668Y-45125567D01*
X89700001Y-45125567D01*
X89700001Y-47242233D01*
X91816667Y-47242233D01*
X91816667Y-45125567D01*
X89700001Y-45125567D01*
X89276668Y-45125567D01*
X89276668Y-44702234D01*
X92240001Y-44702234D01*
X92240001Y-47665567D01*
G37*
G36*
X93099367Y-47254933D02*
G01*
X92663334Y-47254933D01*
X92663334Y-46818900D01*
X93099367Y-46818900D01*
X93099367Y-47254933D01*
G37*
G36*
X90982701Y-53181600D02*
G01*
X90546668Y-53181600D01*
X90546668Y-52745566D01*
X90982701Y-52745566D01*
X90982701Y-53181600D01*
G37*
G36*
X101989367Y-53181600D02*
G01*
X101553333Y-53181600D01*
X101553333Y-52745566D01*
X101989367Y-52745566D01*
X101989367Y-53181600D01*
G37*
G36*
X94369367Y-56568267D02*
G01*
X93933334Y-56568267D01*
X93933334Y-56132233D01*
X94369367Y-56132233D01*
X94369367Y-56568267D01*
G37*
G36*
X83793266Y-57530324D02*
G01*
X83540111Y-57530324D01*
X83540111Y-57114096D01*
X83135719Y-57114096D01*
X83135719Y-56922751D01*
X83540111Y-56922751D01*
X83540111Y-56739953D01*
X83110075Y-56739953D01*
X83110075Y-56548608D01*
X83793266Y-56548608D01*
X83793266Y-57530324D01*
G37*
G36*
X102412699Y-49371600D02*
G01*
X101976667Y-49371600D01*
X101976667Y-48935567D01*
X102412699Y-48935567D01*
X102412699Y-49371600D01*
G37*
G36*
X103259367Y-56991601D02*
G01*
X102823333Y-56991601D01*
X102823333Y-56555566D01*
X103259367Y-56555566D01*
X103259367Y-56991601D01*
G37*
G36*
X98602701Y-48101600D02*
G01*
X98166667Y-48101600D01*
X98166667Y-47665567D01*
X98602701Y-47665567D01*
X98602701Y-48101600D01*
G37*
G36*
X95216035Y-48101600D02*
G01*
X94780001Y-48101600D01*
X94780001Y-47665567D01*
X95216035Y-47665567D01*
X95216035Y-48101600D01*
G37*
G36*
X95216035Y-50641601D02*
G01*
X94780001Y-50641601D01*
X94780001Y-50205567D01*
X95216035Y-50205567D01*
X95216035Y-50641601D01*
G37*
D12*
X84424000Y-55020000D02*
X84424000Y-55020000D01*
D10*
G36*
X99872700Y-51064934D02*
G01*
X99436667Y-51064934D01*
X99436667Y-50628900D01*
X99872700Y-50628900D01*
X99872700Y-51064934D01*
G37*
G36*
X104529366Y-57414933D02*
G01*
X104093334Y-57414933D01*
X104093334Y-56978899D01*
X104529366Y-56978899D01*
X104529366Y-57414933D01*
G37*
G36*
X94369367Y-49371600D02*
G01*
X93933334Y-49371600D01*
X93933334Y-48935567D01*
X94369367Y-48935567D01*
X94369367Y-49371600D01*
G37*
G36*
X100296034Y-52334933D02*
G01*
X99860001Y-52334933D01*
X99860001Y-51898900D01*
X100296034Y-51898900D01*
X100296034Y-52334933D01*
G37*
G36*
X96486034Y-59531598D02*
G01*
X96050001Y-59531598D01*
X96050001Y-59095566D01*
X96486034Y-59095566D01*
X96486034Y-59531598D01*
G37*
G36*
X95216035Y-45984933D02*
G01*
X94780001Y-45984933D01*
X94780001Y-45548900D01*
X95216035Y-45548900D01*
X95216035Y-45984933D01*
G37*
G36*
X101566035Y-54451600D02*
G01*
X101130000Y-54451600D01*
X101130000Y-54015566D01*
X101566035Y-54015566D01*
X101566035Y-54451600D01*
G37*
G36*
X102836033Y-58684933D02*
G01*
X102400001Y-58684933D01*
X102400001Y-58248899D01*
X102836033Y-58248899D01*
X102836033Y-58684933D01*
G37*
G36*
X98602701Y-59531598D02*
G01*
X98166667Y-59531598D01*
X98166667Y-59095566D01*
X98602701Y-59095566D01*
X98602701Y-59531598D01*
G37*
G36*
X96486034Y-45984933D02*
G01*
X96050001Y-45984933D01*
X96050001Y-45548900D01*
X96486034Y-45548900D01*
X96486034Y-45984933D01*
G37*
G36*
X95639368Y-56568267D02*
G01*
X95203334Y-56568267D01*
X95203334Y-56132233D01*
X95639368Y-56132233D01*
X95639368Y-56568267D01*
G37*
G36*
X97756034Y-46408267D02*
G01*
X97320000Y-46408267D01*
X97320000Y-45972234D01*
X97756034Y-45972234D01*
X97756034Y-46408267D01*
G37*
G36*
X90982701Y-49794933D02*
G01*
X90546668Y-49794933D01*
X90546668Y-49358900D01*
X90982701Y-49358900D01*
X90982701Y-49794933D01*
G37*
G36*
X100719367Y-51064934D02*
G01*
X100283334Y-51064934D01*
X100283334Y-50628900D01*
X100719367Y-50628900D01*
X100719367Y-51064934D01*
G37*
G36*
X90559367Y-56991601D02*
G01*
X90123334Y-56991601D01*
X90123334Y-56555566D01*
X90559367Y-56555566D01*
X90559367Y-56991601D01*
G37*
G36*
X104529366Y-52758267D02*
G01*
X104093334Y-52758267D01*
X104093334Y-52322233D01*
X104529366Y-52322233D01*
X104529366Y-52758267D01*
G37*
G36*
X97756034Y-60378266D02*
G01*
X97320000Y-60378266D01*
X97320000Y-59942232D01*
X97756034Y-59942232D01*
X97756034Y-60378266D01*
G37*
G36*
X101142701Y-55298266D02*
G01*
X100706667Y-55298266D01*
X100706667Y-54862233D01*
X101142701Y-54862233D01*
X101142701Y-55298266D01*
G37*
D13*
X116147142Y-54434095D02*
X115994761Y-54434095D01*
X115994761Y-54434095D02*
X115918571Y-54472190D01*
X115918571Y-54472190D02*
X115842380Y-54548380D01*
X115842380Y-54548380D02*
X115804285Y-54700761D01*
X115804285Y-54700761D02*
X115804285Y-54967428D01*
X115804285Y-54967428D02*
X115842380Y-55119809D01*
X115842380Y-55119809D02*
X115918571Y-55196000D01*
X115918571Y-55196000D02*
X115994761Y-55234095D01*
X115994761Y-55234095D02*
X116147142Y-55234095D01*
X116147142Y-55234095D02*
X116223333Y-55196000D01*
X116223333Y-55196000D02*
X116299523Y-55119809D01*
X116299523Y-55119809D02*
X116337619Y-54967428D01*
X116337619Y-54967428D02*
X116337619Y-54700761D01*
X116337619Y-54700761D02*
X116299523Y-54548380D01*
X116299523Y-54548380D02*
X116223333Y-54472190D01*
X116223333Y-54472190D02*
X116147142Y-54434095D01*
X115461428Y-55234095D02*
X115461428Y-54434095D01*
X115461428Y-54434095D02*
X115156666Y-54434095D01*
X115156666Y-54434095D02*
X115080476Y-54472190D01*
X115080476Y-54472190D02*
X115042381Y-54510285D01*
X115042381Y-54510285D02*
X115004285Y-54586476D01*
X115004285Y-54586476D02*
X115004285Y-54700761D01*
X115004285Y-54700761D02*
X115042381Y-54776952D01*
X115042381Y-54776952D02*
X115080476Y-54815047D01*
X115080476Y-54815047D02*
X115156666Y-54853142D01*
X115156666Y-54853142D02*
X115461428Y-54853142D01*
X114661428Y-54815047D02*
X114394762Y-54815047D01*
X114280476Y-55234095D02*
X114661428Y-55234095D01*
X114661428Y-55234095D02*
X114661428Y-54434095D01*
X114661428Y-54434095D02*
X114280476Y-54434095D01*
X113937618Y-55234095D02*
X113937618Y-54434095D01*
X113937618Y-54434095D02*
X113480475Y-55234095D01*
X113480475Y-55234095D02*
X113480475Y-54434095D01*
X116337619Y-56492000D02*
X116223333Y-56530095D01*
X116223333Y-56530095D02*
X116032857Y-56530095D01*
X116032857Y-56530095D02*
X115956666Y-56492000D01*
X115956666Y-56492000D02*
X115918571Y-56453904D01*
X115918571Y-56453904D02*
X115880476Y-56377714D01*
X115880476Y-56377714D02*
X115880476Y-56301523D01*
X115880476Y-56301523D02*
X115918571Y-56225333D01*
X115918571Y-56225333D02*
X115956666Y-56187238D01*
X115956666Y-56187238D02*
X116032857Y-56149142D01*
X116032857Y-56149142D02*
X116185238Y-56111047D01*
X116185238Y-56111047D02*
X116261428Y-56072952D01*
X116261428Y-56072952D02*
X116299523Y-56034857D01*
X116299523Y-56034857D02*
X116337619Y-55958666D01*
X116337619Y-55958666D02*
X116337619Y-55882476D01*
X116337619Y-55882476D02*
X116299523Y-55806285D01*
X116299523Y-55806285D02*
X116261428Y-55768190D01*
X116261428Y-55768190D02*
X116185238Y-55730095D01*
X116185238Y-55730095D02*
X115994761Y-55730095D01*
X115994761Y-55730095D02*
X115880476Y-55768190D01*
X115385237Y-55730095D02*
X115232856Y-55730095D01*
X115232856Y-55730095D02*
X115156666Y-55768190D01*
X115156666Y-55768190D02*
X115080475Y-55844380D01*
X115080475Y-55844380D02*
X115042380Y-55996761D01*
X115042380Y-55996761D02*
X115042380Y-56263428D01*
X115042380Y-56263428D02*
X115080475Y-56415809D01*
X115080475Y-56415809D02*
X115156666Y-56492000D01*
X115156666Y-56492000D02*
X115232856Y-56530095D01*
X115232856Y-56530095D02*
X115385237Y-56530095D01*
X115385237Y-56530095D02*
X115461428Y-56492000D01*
X115461428Y-56492000D02*
X115537618Y-56415809D01*
X115537618Y-56415809D02*
X115575714Y-56263428D01*
X115575714Y-56263428D02*
X115575714Y-55996761D01*
X115575714Y-55996761D02*
X115537618Y-55844380D01*
X115537618Y-55844380D02*
X115461428Y-55768190D01*
X115461428Y-55768190D02*
X115385237Y-55730095D01*
X114699523Y-55730095D02*
X114699523Y-56377714D01*
X114699523Y-56377714D02*
X114661428Y-56453904D01*
X114661428Y-56453904D02*
X114623333Y-56492000D01*
X114623333Y-56492000D02*
X114547142Y-56530095D01*
X114547142Y-56530095D02*
X114394761Y-56530095D01*
X114394761Y-56530095D02*
X114318571Y-56492000D01*
X114318571Y-56492000D02*
X114280476Y-56453904D01*
X114280476Y-56453904D02*
X114242380Y-56377714D01*
X114242380Y-56377714D02*
X114242380Y-55730095D01*
X113404285Y-56530095D02*
X113670952Y-56149142D01*
X113861428Y-56530095D02*
X113861428Y-55730095D01*
X113861428Y-55730095D02*
X113556666Y-55730095D01*
X113556666Y-55730095D02*
X113480476Y-55768190D01*
X113480476Y-55768190D02*
X113442381Y-55806285D01*
X113442381Y-55806285D02*
X113404285Y-55882476D01*
X113404285Y-55882476D02*
X113404285Y-55996761D01*
X113404285Y-55996761D02*
X113442381Y-56072952D01*
X113442381Y-56072952D02*
X113480476Y-56111047D01*
X113480476Y-56111047D02*
X113556666Y-56149142D01*
X113556666Y-56149142D02*
X113861428Y-56149142D01*
X112604285Y-56453904D02*
X112642381Y-56492000D01*
X112642381Y-56492000D02*
X112756666Y-56530095D01*
X112756666Y-56530095D02*
X112832857Y-56530095D01*
X112832857Y-56530095D02*
X112947143Y-56492000D01*
X112947143Y-56492000D02*
X113023333Y-56415809D01*
X113023333Y-56415809D02*
X113061428Y-56339619D01*
X113061428Y-56339619D02*
X113099524Y-56187238D01*
X113099524Y-56187238D02*
X113099524Y-56072952D01*
X113099524Y-56072952D02*
X113061428Y-55920571D01*
X113061428Y-55920571D02*
X113023333Y-55844380D01*
X113023333Y-55844380D02*
X112947143Y-55768190D01*
X112947143Y-55768190D02*
X112832857Y-55730095D01*
X112832857Y-55730095D02*
X112756666Y-55730095D01*
X112756666Y-55730095D02*
X112642381Y-55768190D01*
X112642381Y-55768190D02*
X112604285Y-55806285D01*
X112261428Y-56111047D02*
X111994762Y-56111047D01*
X111880476Y-56530095D02*
X112261428Y-56530095D01*
X112261428Y-56530095D02*
X112261428Y-55730095D01*
X112261428Y-55730095D02*
X111880476Y-55730095D01*
X116299523Y-57826095D02*
X116299523Y-57026095D01*
X116299523Y-57026095D02*
X115994761Y-57026095D01*
X115994761Y-57026095D02*
X115918571Y-57064190D01*
X115918571Y-57064190D02*
X115880476Y-57102285D01*
X115880476Y-57102285D02*
X115842380Y-57178476D01*
X115842380Y-57178476D02*
X115842380Y-57292761D01*
X115842380Y-57292761D02*
X115880476Y-57368952D01*
X115880476Y-57368952D02*
X115918571Y-57407047D01*
X115918571Y-57407047D02*
X115994761Y-57445142D01*
X115994761Y-57445142D02*
X116299523Y-57445142D01*
X115042380Y-57749904D02*
X115080476Y-57788000D01*
X115080476Y-57788000D02*
X115194761Y-57826095D01*
X115194761Y-57826095D02*
X115270952Y-57826095D01*
X115270952Y-57826095D02*
X115385238Y-57788000D01*
X115385238Y-57788000D02*
X115461428Y-57711809D01*
X115461428Y-57711809D02*
X115499523Y-57635619D01*
X115499523Y-57635619D02*
X115537619Y-57483238D01*
X115537619Y-57483238D02*
X115537619Y-57368952D01*
X115537619Y-57368952D02*
X115499523Y-57216571D01*
X115499523Y-57216571D02*
X115461428Y-57140380D01*
X115461428Y-57140380D02*
X115385238Y-57064190D01*
X115385238Y-57064190D02*
X115270952Y-57026095D01*
X115270952Y-57026095D02*
X115194761Y-57026095D01*
X115194761Y-57026095D02*
X115080476Y-57064190D01*
X115080476Y-57064190D02*
X115042380Y-57102285D01*
X114432857Y-57407047D02*
X114318571Y-57445142D01*
X114318571Y-57445142D02*
X114280476Y-57483238D01*
X114280476Y-57483238D02*
X114242380Y-57559428D01*
X114242380Y-57559428D02*
X114242380Y-57673714D01*
X114242380Y-57673714D02*
X114280476Y-57749904D01*
X114280476Y-57749904D02*
X114318571Y-57788000D01*
X114318571Y-57788000D02*
X114394761Y-57826095D01*
X114394761Y-57826095D02*
X114699523Y-57826095D01*
X114699523Y-57826095D02*
X114699523Y-57026095D01*
X114699523Y-57026095D02*
X114432857Y-57026095D01*
X114432857Y-57026095D02*
X114356666Y-57064190D01*
X114356666Y-57064190D02*
X114318571Y-57102285D01*
X114318571Y-57102285D02*
X114280476Y-57178476D01*
X114280476Y-57178476D02*
X114280476Y-57254666D01*
X114280476Y-57254666D02*
X114318571Y-57330857D01*
X114318571Y-57330857D02*
X114356666Y-57368952D01*
X114356666Y-57368952D02*
X114432857Y-57407047D01*
X114432857Y-57407047D02*
X114699523Y-57407047D01*
D11*
X109098095Y-34762619D02*
X109669523Y-34762619D01*
X109383809Y-34762619D02*
X109383809Y-33762619D01*
X109383809Y-33762619D02*
X109479047Y-33905476D01*
X109479047Y-33905476D02*
X109574285Y-34000714D01*
X109574285Y-34000714D02*
X109669523Y-34048333D01*
X108717142Y-33857857D02*
X108669523Y-33810238D01*
X108669523Y-33810238D02*
X108574285Y-33762619D01*
X108574285Y-33762619D02*
X108336190Y-33762619D01*
X108336190Y-33762619D02*
X108240952Y-33810238D01*
X108240952Y-33810238D02*
X108193333Y-33857857D01*
X108193333Y-33857857D02*
X108145714Y-33953095D01*
X108145714Y-33953095D02*
X108145714Y-34048333D01*
X108145714Y-34048333D02*
X108193333Y-34191190D01*
X108193333Y-34191190D02*
X108764761Y-34762619D01*
X108764761Y-34762619D02*
X108145714Y-34762619D01*
X107574285Y-34191190D02*
X107669523Y-34143571D01*
X107669523Y-34143571D02*
X107717142Y-34095952D01*
X107717142Y-34095952D02*
X107764761Y-34000714D01*
X107764761Y-34000714D02*
X107764761Y-33953095D01*
X107764761Y-33953095D02*
X107717142Y-33857857D01*
X107717142Y-33857857D02*
X107669523Y-33810238D01*
X107669523Y-33810238D02*
X107574285Y-33762619D01*
X107574285Y-33762619D02*
X107383809Y-33762619D01*
X107383809Y-33762619D02*
X107288571Y-33810238D01*
X107288571Y-33810238D02*
X107240952Y-33857857D01*
X107240952Y-33857857D02*
X107193333Y-33953095D01*
X107193333Y-33953095D02*
X107193333Y-34000714D01*
X107193333Y-34000714D02*
X107240952Y-34095952D01*
X107240952Y-34095952D02*
X107288571Y-34143571D01*
X107288571Y-34143571D02*
X107383809Y-34191190D01*
X107383809Y-34191190D02*
X107574285Y-34191190D01*
X107574285Y-34191190D02*
X107669523Y-34238809D01*
X107669523Y-34238809D02*
X107717142Y-34286428D01*
X107717142Y-34286428D02*
X107764761Y-34381666D01*
X107764761Y-34381666D02*
X107764761Y-34572142D01*
X107764761Y-34572142D02*
X107717142Y-34667380D01*
X107717142Y-34667380D02*
X107669523Y-34715000D01*
X107669523Y-34715000D02*
X107574285Y-34762619D01*
X107574285Y-34762619D02*
X107383809Y-34762619D01*
X107383809Y-34762619D02*
X107288571Y-34715000D01*
X107288571Y-34715000D02*
X107240952Y-34667380D01*
X107240952Y-34667380D02*
X107193333Y-34572142D01*
X107193333Y-34572142D02*
X107193333Y-34381666D01*
X107193333Y-34381666D02*
X107240952Y-34286428D01*
X107240952Y-34286428D02*
X107288571Y-34238809D01*
X107288571Y-34238809D02*
X107383809Y-34191190D01*
X106859999Y-34762619D02*
X106336190Y-34095952D01*
X106859999Y-34095952D02*
X106336190Y-34762619D01*
X105431428Y-34762619D02*
X106002856Y-34762619D01*
X105717142Y-34762619D02*
X105717142Y-33762619D01*
X105717142Y-33762619D02*
X105812380Y-33905476D01*
X105812380Y-33905476D02*
X105907618Y-34000714D01*
X105907618Y-34000714D02*
X106002856Y-34048333D01*
X105050475Y-33857857D02*
X105002856Y-33810238D01*
X105002856Y-33810238D02*
X104907618Y-33762619D01*
X104907618Y-33762619D02*
X104669523Y-33762619D01*
X104669523Y-33762619D02*
X104574285Y-33810238D01*
X104574285Y-33810238D02*
X104526666Y-33857857D01*
X104526666Y-33857857D02*
X104479047Y-33953095D01*
X104479047Y-33953095D02*
X104479047Y-34048333D01*
X104479047Y-34048333D02*
X104526666Y-34191190D01*
X104526666Y-34191190D02*
X105098094Y-34762619D01*
X105098094Y-34762619D02*
X104479047Y-34762619D01*
X103907618Y-34191190D02*
X104002856Y-34143571D01*
X104002856Y-34143571D02*
X104050475Y-34095952D01*
X104050475Y-34095952D02*
X104098094Y-34000714D01*
X104098094Y-34000714D02*
X104098094Y-33953095D01*
X104098094Y-33953095D02*
X104050475Y-33857857D01*
X104050475Y-33857857D02*
X104002856Y-33810238D01*
X104002856Y-33810238D02*
X103907618Y-33762619D01*
X103907618Y-33762619D02*
X103717142Y-33762619D01*
X103717142Y-33762619D02*
X103621904Y-33810238D01*
X103621904Y-33810238D02*
X103574285Y-33857857D01*
X103574285Y-33857857D02*
X103526666Y-33953095D01*
X103526666Y-33953095D02*
X103526666Y-34000714D01*
X103526666Y-34000714D02*
X103574285Y-34095952D01*
X103574285Y-34095952D02*
X103621904Y-34143571D01*
X103621904Y-34143571D02*
X103717142Y-34191190D01*
X103717142Y-34191190D02*
X103907618Y-34191190D01*
X103907618Y-34191190D02*
X104002856Y-34238809D01*
X104002856Y-34238809D02*
X104050475Y-34286428D01*
X104050475Y-34286428D02*
X104098094Y-34381666D01*
X104098094Y-34381666D02*
X104098094Y-34572142D01*
X104098094Y-34572142D02*
X104050475Y-34667380D01*
X104050475Y-34667380D02*
X104002856Y-34715000D01*
X104002856Y-34715000D02*
X103907618Y-34762619D01*
X103907618Y-34762619D02*
X103717142Y-34762619D01*
X103717142Y-34762619D02*
X103621904Y-34715000D01*
X103621904Y-34715000D02*
X103574285Y-34667380D01*
X103574285Y-34667380D02*
X103526666Y-34572142D01*
X103526666Y-34572142D02*
X103526666Y-34381666D01*
X103526666Y-34381666D02*
X103574285Y-34286428D01*
X103574285Y-34286428D02*
X103621904Y-34238809D01*
X103621904Y-34238809D02*
X103717142Y-34191190D01*
X101812380Y-34762619D02*
X102383808Y-34762619D01*
X102098094Y-34762619D02*
X102098094Y-33762619D01*
X102098094Y-33762619D02*
X102193332Y-33905476D01*
X102193332Y-33905476D02*
X102288570Y-34000714D01*
X102288570Y-34000714D02*
X102383808Y-34048333D01*
X100621903Y-34762619D02*
X100621903Y-33762619D01*
X100621903Y-34143571D02*
X100526665Y-34095952D01*
X100526665Y-34095952D02*
X100336189Y-34095952D01*
X100336189Y-34095952D02*
X100240951Y-34143571D01*
X100240951Y-34143571D02*
X100193332Y-34191190D01*
X100193332Y-34191190D02*
X100145713Y-34286428D01*
X100145713Y-34286428D02*
X100145713Y-34572142D01*
X100145713Y-34572142D02*
X100193332Y-34667380D01*
X100193332Y-34667380D02*
X100240951Y-34715000D01*
X100240951Y-34715000D02*
X100336189Y-34762619D01*
X100336189Y-34762619D02*
X100526665Y-34762619D01*
X100526665Y-34762619D02*
X100621903Y-34715000D01*
X99717141Y-34762619D02*
X99717141Y-34095952D01*
X99717141Y-33762619D02*
X99764760Y-33810238D01*
X99764760Y-33810238D02*
X99717141Y-33857857D01*
X99717141Y-33857857D02*
X99669522Y-33810238D01*
X99669522Y-33810238D02*
X99717141Y-33762619D01*
X99717141Y-33762619D02*
X99717141Y-33857857D01*
X99383808Y-34095952D02*
X99002856Y-34095952D01*
X99240951Y-33762619D02*
X99240951Y-34619761D01*
X99240951Y-34619761D02*
X99193332Y-34715000D01*
X99193332Y-34715000D02*
X99098094Y-34762619D01*
X99098094Y-34762619D02*
X99002856Y-34762619D01*
X97431427Y-34762619D02*
X97907617Y-34762619D01*
X97907617Y-34762619D02*
X97907617Y-33762619D01*
X96526665Y-34667380D02*
X96574284Y-34715000D01*
X96574284Y-34715000D02*
X96717141Y-34762619D01*
X96717141Y-34762619D02*
X96812379Y-34762619D01*
X96812379Y-34762619D02*
X96955236Y-34715000D01*
X96955236Y-34715000D02*
X97050474Y-34619761D01*
X97050474Y-34619761D02*
X97098093Y-34524523D01*
X97098093Y-34524523D02*
X97145712Y-34334047D01*
X97145712Y-34334047D02*
X97145712Y-34191190D01*
X97145712Y-34191190D02*
X97098093Y-34000714D01*
X97098093Y-34000714D02*
X97050474Y-33905476D01*
X97050474Y-33905476D02*
X96955236Y-33810238D01*
X96955236Y-33810238D02*
X96812379Y-33762619D01*
X96812379Y-33762619D02*
X96717141Y-33762619D01*
X96717141Y-33762619D02*
X96574284Y-33810238D01*
X96574284Y-33810238D02*
X96526665Y-33857857D01*
X96098093Y-34762619D02*
X96098093Y-33762619D01*
X96098093Y-33762619D02*
X95859998Y-33762619D01*
X95859998Y-33762619D02*
X95717141Y-33810238D01*
X95717141Y-33810238D02*
X95621903Y-33905476D01*
X95621903Y-33905476D02*
X95574284Y-34000714D01*
X95574284Y-34000714D02*
X95526665Y-34191190D01*
X95526665Y-34191190D02*
X95526665Y-34334047D01*
X95526665Y-34334047D02*
X95574284Y-34524523D01*
X95574284Y-34524523D02*
X95621903Y-34619761D01*
X95621903Y-34619761D02*
X95717141Y-34715000D01*
X95717141Y-34715000D02*
X95859998Y-34762619D01*
X95859998Y-34762619D02*
X96098093Y-34762619D01*
X109621904Y-38002619D02*
X109621904Y-37002619D01*
X109621904Y-37002619D02*
X109383809Y-37002619D01*
X109383809Y-37002619D02*
X109240952Y-37050238D01*
X109240952Y-37050238D02*
X109145714Y-37145476D01*
X109145714Y-37145476D02*
X109098095Y-37240714D01*
X109098095Y-37240714D02*
X109050476Y-37431190D01*
X109050476Y-37431190D02*
X109050476Y-37574047D01*
X109050476Y-37574047D02*
X109098095Y-37764523D01*
X109098095Y-37764523D02*
X109145714Y-37859761D01*
X109145714Y-37859761D02*
X109240952Y-37955000D01*
X109240952Y-37955000D02*
X109383809Y-38002619D01*
X109383809Y-38002619D02*
X109621904Y-38002619D01*
X108669523Y-37955000D02*
X108526666Y-38002619D01*
X108526666Y-38002619D02*
X108288571Y-38002619D01*
X108288571Y-38002619D02*
X108193333Y-37955000D01*
X108193333Y-37955000D02*
X108145714Y-37907380D01*
X108145714Y-37907380D02*
X108098095Y-37812142D01*
X108098095Y-37812142D02*
X108098095Y-37716904D01*
X108098095Y-37716904D02*
X108145714Y-37621666D01*
X108145714Y-37621666D02*
X108193333Y-37574047D01*
X108193333Y-37574047D02*
X108288571Y-37526428D01*
X108288571Y-37526428D02*
X108479047Y-37478809D01*
X108479047Y-37478809D02*
X108574285Y-37431190D01*
X108574285Y-37431190D02*
X108621904Y-37383571D01*
X108621904Y-37383571D02*
X108669523Y-37288333D01*
X108669523Y-37288333D02*
X108669523Y-37193095D01*
X108669523Y-37193095D02*
X108621904Y-37097857D01*
X108621904Y-37097857D02*
X108574285Y-37050238D01*
X108574285Y-37050238D02*
X108479047Y-37002619D01*
X108479047Y-37002619D02*
X108240952Y-37002619D01*
X108240952Y-37002619D02*
X108098095Y-37050238D01*
X107764761Y-37002619D02*
X107145714Y-37002619D01*
X107145714Y-37002619D02*
X107479047Y-37383571D01*
X107479047Y-37383571D02*
X107336190Y-37383571D01*
X107336190Y-37383571D02*
X107240952Y-37431190D01*
X107240952Y-37431190D02*
X107193333Y-37478809D01*
X107193333Y-37478809D02*
X107145714Y-37574047D01*
X107145714Y-37574047D02*
X107145714Y-37812142D01*
X107145714Y-37812142D02*
X107193333Y-37907380D01*
X107193333Y-37907380D02*
X107240952Y-37955000D01*
X107240952Y-37955000D02*
X107336190Y-38002619D01*
X107336190Y-38002619D02*
X107621904Y-38002619D01*
X107621904Y-38002619D02*
X107717142Y-37955000D01*
X107717142Y-37955000D02*
X107764761Y-37907380D01*
X106764761Y-37097857D02*
X106717142Y-37050238D01*
X106717142Y-37050238D02*
X106621904Y-37002619D01*
X106621904Y-37002619D02*
X106383809Y-37002619D01*
X106383809Y-37002619D02*
X106288571Y-37050238D01*
X106288571Y-37050238D02*
X106240952Y-37097857D01*
X106240952Y-37097857D02*
X106193333Y-37193095D01*
X106193333Y-37193095D02*
X106193333Y-37288333D01*
X106193333Y-37288333D02*
X106240952Y-37431190D01*
X106240952Y-37431190D02*
X106812380Y-38002619D01*
X106812380Y-38002619D02*
X106193333Y-38002619D01*
X105859999Y-37002619D02*
X105240952Y-37002619D01*
X105240952Y-37002619D02*
X105574285Y-37383571D01*
X105574285Y-37383571D02*
X105431428Y-37383571D01*
X105431428Y-37383571D02*
X105336190Y-37431190D01*
X105336190Y-37431190D02*
X105288571Y-37478809D01*
X105288571Y-37478809D02*
X105240952Y-37574047D01*
X105240952Y-37574047D02*
X105240952Y-37812142D01*
X105240952Y-37812142D02*
X105288571Y-37907380D01*
X105288571Y-37907380D02*
X105336190Y-37955000D01*
X105336190Y-37955000D02*
X105431428Y-38002619D01*
X105431428Y-38002619D02*
X105717142Y-38002619D01*
X105717142Y-38002619D02*
X105812380Y-37955000D01*
X105812380Y-37955000D02*
X105859999Y-37907380D01*
X104288571Y-38002619D02*
X104859999Y-38002619D01*
X104574285Y-38002619D02*
X104574285Y-37002619D01*
X104574285Y-37002619D02*
X104669523Y-37145476D01*
X104669523Y-37145476D02*
X104764761Y-37240714D01*
X104764761Y-37240714D02*
X104859999Y-37288333D01*
X102526666Y-38002619D02*
X102859999Y-37526428D01*
X103098094Y-38002619D02*
X103098094Y-37002619D01*
X103098094Y-37002619D02*
X102717142Y-37002619D01*
X102717142Y-37002619D02*
X102621904Y-37050238D01*
X102621904Y-37050238D02*
X102574285Y-37097857D01*
X102574285Y-37097857D02*
X102526666Y-37193095D01*
X102526666Y-37193095D02*
X102526666Y-37335952D01*
X102526666Y-37335952D02*
X102574285Y-37431190D01*
X102574285Y-37431190D02*
X102621904Y-37478809D01*
X102621904Y-37478809D02*
X102717142Y-37526428D01*
X102717142Y-37526428D02*
X103098094Y-37526428D01*
X102240951Y-37002619D02*
X101669523Y-37002619D01*
X101955237Y-38002619D02*
X101955237Y-37002619D01*
X100764761Y-37907380D02*
X100812380Y-37955000D01*
X100812380Y-37955000D02*
X100955237Y-38002619D01*
X100955237Y-38002619D02*
X101050475Y-38002619D01*
X101050475Y-38002619D02*
X101193332Y-37955000D01*
X101193332Y-37955000D02*
X101288570Y-37859761D01*
X101288570Y-37859761D02*
X101336189Y-37764523D01*
X101336189Y-37764523D02*
X101383808Y-37574047D01*
X101383808Y-37574047D02*
X101383808Y-37431190D01*
X101383808Y-37431190D02*
X101336189Y-37240714D01*
X101336189Y-37240714D02*
X101288570Y-37145476D01*
X101288570Y-37145476D02*
X101193332Y-37050238D01*
X101193332Y-37050238D02*
X101050475Y-37002619D01*
X101050475Y-37002619D02*
X100955237Y-37002619D01*
X100955237Y-37002619D02*
X100812380Y-37050238D01*
X100812380Y-37050238D02*
X100764761Y-37097857D01*
X100336189Y-37907380D02*
X100288570Y-37955000D01*
X100288570Y-37955000D02*
X100336189Y-38002619D01*
X100336189Y-38002619D02*
X100383808Y-37955000D01*
X100383808Y-37955000D02*
X100336189Y-37907380D01*
X100336189Y-37907380D02*
X100336189Y-38002619D01*
X99098094Y-38002619D02*
X99098094Y-37002619D01*
X98669523Y-37097857D02*
X98621904Y-37050238D01*
X98621904Y-37050238D02*
X98526666Y-37002619D01*
X98526666Y-37002619D02*
X98288571Y-37002619D01*
X98288571Y-37002619D02*
X98193333Y-37050238D01*
X98193333Y-37050238D02*
X98145714Y-37097857D01*
X98145714Y-37097857D02*
X98098095Y-37193095D01*
X98098095Y-37193095D02*
X98098095Y-37288333D01*
X98098095Y-37288333D02*
X98145714Y-37431190D01*
X98145714Y-37431190D02*
X98717142Y-38002619D01*
X98717142Y-38002619D02*
X98098095Y-38002619D01*
X97098095Y-37907380D02*
X97145714Y-37955000D01*
X97145714Y-37955000D02*
X97288571Y-38002619D01*
X97288571Y-38002619D02*
X97383809Y-38002619D01*
X97383809Y-38002619D02*
X97526666Y-37955000D01*
X97526666Y-37955000D02*
X97621904Y-37859761D01*
X97621904Y-37859761D02*
X97669523Y-37764523D01*
X97669523Y-37764523D02*
X97717142Y-37574047D01*
X97717142Y-37574047D02*
X97717142Y-37431190D01*
X97717142Y-37431190D02*
X97669523Y-37240714D01*
X97669523Y-37240714D02*
X97621904Y-37145476D01*
X97621904Y-37145476D02*
X97526666Y-37050238D01*
X97526666Y-37050238D02*
X97383809Y-37002619D01*
X97383809Y-37002619D02*
X97288571Y-37002619D01*
X97288571Y-37002619D02*
X97145714Y-37050238D01*
X97145714Y-37050238D02*
X97098095Y-37097857D01*
X95383809Y-37050238D02*
X95479047Y-37002619D01*
X95479047Y-37002619D02*
X95621904Y-37002619D01*
X95621904Y-37002619D02*
X95764761Y-37050238D01*
X95764761Y-37050238D02*
X95859999Y-37145476D01*
X95859999Y-37145476D02*
X95907618Y-37240714D01*
X95907618Y-37240714D02*
X95955237Y-37431190D01*
X95955237Y-37431190D02*
X95955237Y-37574047D01*
X95955237Y-37574047D02*
X95907618Y-37764523D01*
X95907618Y-37764523D02*
X95859999Y-37859761D01*
X95859999Y-37859761D02*
X95764761Y-37955000D01*
X95764761Y-37955000D02*
X95621904Y-38002619D01*
X95621904Y-38002619D02*
X95526666Y-38002619D01*
X95526666Y-38002619D02*
X95383809Y-37955000D01*
X95383809Y-37955000D02*
X95336190Y-37907380D01*
X95336190Y-37907380D02*
X95336190Y-37574047D01*
X95336190Y-37574047D02*
X95526666Y-37574047D01*
X94907618Y-38002619D02*
X94907618Y-37002619D01*
X94907618Y-37002619D02*
X94526666Y-37002619D01*
X94526666Y-37002619D02*
X94431428Y-37050238D01*
X94431428Y-37050238D02*
X94383809Y-37097857D01*
X94383809Y-37097857D02*
X94336190Y-37193095D01*
X94336190Y-37193095D02*
X94336190Y-37335952D01*
X94336190Y-37335952D02*
X94383809Y-37431190D01*
X94383809Y-37431190D02*
X94431428Y-37478809D01*
X94431428Y-37478809D02*
X94526666Y-37526428D01*
X94526666Y-37526428D02*
X94907618Y-37526428D01*
X93907618Y-38002619D02*
X93907618Y-37002619D01*
X93240952Y-37002619D02*
X93050476Y-37002619D01*
X93050476Y-37002619D02*
X92955238Y-37050238D01*
X92955238Y-37050238D02*
X92860000Y-37145476D01*
X92860000Y-37145476D02*
X92812381Y-37335952D01*
X92812381Y-37335952D02*
X92812381Y-37669285D01*
X92812381Y-37669285D02*
X92860000Y-37859761D01*
X92860000Y-37859761D02*
X92955238Y-37955000D01*
X92955238Y-37955000D02*
X93050476Y-38002619D01*
X93050476Y-38002619D02*
X93240952Y-38002619D01*
X93240952Y-38002619D02*
X93336190Y-37955000D01*
X93336190Y-37955000D02*
X93431428Y-37859761D01*
X93431428Y-37859761D02*
X93479047Y-37669285D01*
X93479047Y-37669285D02*
X93479047Y-37335952D01*
X93479047Y-37335952D02*
X93431428Y-37145476D01*
X93431428Y-37145476D02*
X93336190Y-37050238D01*
X93336190Y-37050238D02*
X93240952Y-37002619D01*
X109669523Y-39575000D02*
X109526666Y-39622619D01*
X109526666Y-39622619D02*
X109288571Y-39622619D01*
X109288571Y-39622619D02*
X109193333Y-39575000D01*
X109193333Y-39575000D02*
X109145714Y-39527380D01*
X109145714Y-39527380D02*
X109098095Y-39432142D01*
X109098095Y-39432142D02*
X109098095Y-39336904D01*
X109098095Y-39336904D02*
X109145714Y-39241666D01*
X109145714Y-39241666D02*
X109193333Y-39194047D01*
X109193333Y-39194047D02*
X109288571Y-39146428D01*
X109288571Y-39146428D02*
X109479047Y-39098809D01*
X109479047Y-39098809D02*
X109574285Y-39051190D01*
X109574285Y-39051190D02*
X109621904Y-39003571D01*
X109621904Y-39003571D02*
X109669523Y-38908333D01*
X109669523Y-38908333D02*
X109669523Y-38813095D01*
X109669523Y-38813095D02*
X109621904Y-38717857D01*
X109621904Y-38717857D02*
X109574285Y-38670238D01*
X109574285Y-38670238D02*
X109479047Y-38622619D01*
X109479047Y-38622619D02*
X109240952Y-38622619D01*
X109240952Y-38622619D02*
X109098095Y-38670238D01*
X108669523Y-39622619D02*
X108669523Y-38622619D01*
X108669523Y-38622619D02*
X108431428Y-38622619D01*
X108431428Y-38622619D02*
X108288571Y-38670238D01*
X108288571Y-38670238D02*
X108193333Y-38765476D01*
X108193333Y-38765476D02*
X108145714Y-38860714D01*
X108145714Y-38860714D02*
X108098095Y-39051190D01*
X108098095Y-39051190D02*
X108098095Y-39194047D01*
X108098095Y-39194047D02*
X108145714Y-39384523D01*
X108145714Y-39384523D02*
X108193333Y-39479761D01*
X108193333Y-39479761D02*
X108288571Y-39575000D01*
X108288571Y-39575000D02*
X108431428Y-39622619D01*
X108431428Y-39622619D02*
X108669523Y-39622619D01*
X107717142Y-39336904D02*
X107240952Y-39336904D01*
X107812380Y-39622619D02*
X107479047Y-38622619D01*
X107479047Y-38622619D02*
X107145714Y-39622619D01*
X106812380Y-39098809D02*
X106050476Y-39098809D01*
X106050476Y-39384523D02*
X106812380Y-39384523D01*
X105098095Y-38622619D02*
X105574285Y-38622619D01*
X105574285Y-38622619D02*
X105621904Y-39098809D01*
X105621904Y-39098809D02*
X105574285Y-39051190D01*
X105574285Y-39051190D02*
X105479047Y-39003571D01*
X105479047Y-39003571D02*
X105240952Y-39003571D01*
X105240952Y-39003571D02*
X105145714Y-39051190D01*
X105145714Y-39051190D02*
X105098095Y-39098809D01*
X105098095Y-39098809D02*
X105050476Y-39194047D01*
X105050476Y-39194047D02*
X105050476Y-39432142D01*
X105050476Y-39432142D02*
X105098095Y-39527380D01*
X105098095Y-39527380D02*
X105145714Y-39575000D01*
X105145714Y-39575000D02*
X105240952Y-39622619D01*
X105240952Y-39622619D02*
X105479047Y-39622619D01*
X105479047Y-39622619D02*
X105574285Y-39575000D01*
X105574285Y-39575000D02*
X105621904Y-39527380D01*
X103907618Y-39575000D02*
X103764761Y-39622619D01*
X103764761Y-39622619D02*
X103526666Y-39622619D01*
X103526666Y-39622619D02*
X103431428Y-39575000D01*
X103431428Y-39575000D02*
X103383809Y-39527380D01*
X103383809Y-39527380D02*
X103336190Y-39432142D01*
X103336190Y-39432142D02*
X103336190Y-39336904D01*
X103336190Y-39336904D02*
X103383809Y-39241666D01*
X103383809Y-39241666D02*
X103431428Y-39194047D01*
X103431428Y-39194047D02*
X103526666Y-39146428D01*
X103526666Y-39146428D02*
X103717142Y-39098809D01*
X103717142Y-39098809D02*
X103812380Y-39051190D01*
X103812380Y-39051190D02*
X103859999Y-39003571D01*
X103859999Y-39003571D02*
X103907618Y-38908333D01*
X103907618Y-38908333D02*
X103907618Y-38813095D01*
X103907618Y-38813095D02*
X103859999Y-38717857D01*
X103859999Y-38717857D02*
X103812380Y-38670238D01*
X103812380Y-38670238D02*
X103717142Y-38622619D01*
X103717142Y-38622619D02*
X103479047Y-38622619D01*
X103479047Y-38622619D02*
X103336190Y-38670238D01*
X102336190Y-39527380D02*
X102383809Y-39575000D01*
X102383809Y-39575000D02*
X102526666Y-39622619D01*
X102526666Y-39622619D02*
X102621904Y-39622619D01*
X102621904Y-39622619D02*
X102764761Y-39575000D01*
X102764761Y-39575000D02*
X102859999Y-39479761D01*
X102859999Y-39479761D02*
X102907618Y-39384523D01*
X102907618Y-39384523D02*
X102955237Y-39194047D01*
X102955237Y-39194047D02*
X102955237Y-39051190D01*
X102955237Y-39051190D02*
X102907618Y-38860714D01*
X102907618Y-38860714D02*
X102859999Y-38765476D01*
X102859999Y-38765476D02*
X102764761Y-38670238D01*
X102764761Y-38670238D02*
X102621904Y-38622619D01*
X102621904Y-38622619D02*
X102526666Y-38622619D01*
X102526666Y-38622619D02*
X102383809Y-38670238D01*
X102383809Y-38670238D02*
X102336190Y-38717857D01*
X101431428Y-39622619D02*
X101907618Y-39622619D01*
X101907618Y-39622619D02*
X101907618Y-38622619D01*
X101098094Y-39098809D02*
X100336190Y-39098809D01*
X100336190Y-39384523D02*
X101098094Y-39384523D01*
X99336190Y-39622619D02*
X99907618Y-39622619D01*
X99621904Y-39622619D02*
X99621904Y-38622619D01*
X99621904Y-38622619D02*
X99717142Y-38765476D01*
X99717142Y-38765476D02*
X99812380Y-38860714D01*
X99812380Y-38860714D02*
X99907618Y-38908333D01*
X109764761Y-40242619D02*
X109193333Y-40242619D01*
X109479047Y-41242619D02*
X109479047Y-40242619D01*
X108669523Y-40242619D02*
X108479047Y-40242619D01*
X108479047Y-40242619D02*
X108383809Y-40290238D01*
X108383809Y-40290238D02*
X108288571Y-40385476D01*
X108288571Y-40385476D02*
X108240952Y-40575952D01*
X108240952Y-40575952D02*
X108240952Y-40909285D01*
X108240952Y-40909285D02*
X108288571Y-41099761D01*
X108288571Y-41099761D02*
X108383809Y-41195000D01*
X108383809Y-41195000D02*
X108479047Y-41242619D01*
X108479047Y-41242619D02*
X108669523Y-41242619D01*
X108669523Y-41242619D02*
X108764761Y-41195000D01*
X108764761Y-41195000D02*
X108859999Y-41099761D01*
X108859999Y-41099761D02*
X108907618Y-40909285D01*
X108907618Y-40909285D02*
X108907618Y-40575952D01*
X108907618Y-40575952D02*
X108859999Y-40385476D01*
X108859999Y-40385476D02*
X108764761Y-40290238D01*
X108764761Y-40290238D02*
X108669523Y-40242619D01*
X107812380Y-40242619D02*
X107812380Y-41052142D01*
X107812380Y-41052142D02*
X107764761Y-41147380D01*
X107764761Y-41147380D02*
X107717142Y-41195000D01*
X107717142Y-41195000D02*
X107621904Y-41242619D01*
X107621904Y-41242619D02*
X107431428Y-41242619D01*
X107431428Y-41242619D02*
X107336190Y-41195000D01*
X107336190Y-41195000D02*
X107288571Y-41147380D01*
X107288571Y-41147380D02*
X107240952Y-41052142D01*
X107240952Y-41052142D02*
X107240952Y-40242619D01*
X106193333Y-41147380D02*
X106240952Y-41195000D01*
X106240952Y-41195000D02*
X106383809Y-41242619D01*
X106383809Y-41242619D02*
X106479047Y-41242619D01*
X106479047Y-41242619D02*
X106621904Y-41195000D01*
X106621904Y-41195000D02*
X106717142Y-41099761D01*
X106717142Y-41099761D02*
X106764761Y-41004523D01*
X106764761Y-41004523D02*
X106812380Y-40814047D01*
X106812380Y-40814047D02*
X106812380Y-40671190D01*
X106812380Y-40671190D02*
X106764761Y-40480714D01*
X106764761Y-40480714D02*
X106717142Y-40385476D01*
X106717142Y-40385476D02*
X106621904Y-40290238D01*
X106621904Y-40290238D02*
X106479047Y-40242619D01*
X106479047Y-40242619D02*
X106383809Y-40242619D01*
X106383809Y-40242619D02*
X106240952Y-40290238D01*
X106240952Y-40290238D02*
X106193333Y-40337857D01*
X105764761Y-41242619D02*
X105764761Y-40242619D01*
X105764761Y-40718809D02*
X105193333Y-40718809D01*
X105193333Y-41242619D02*
X105193333Y-40242619D01*
X104955238Y-41337857D02*
X104193333Y-41337857D01*
X103955237Y-41242619D02*
X103955237Y-40242619D01*
X103479047Y-41242619D02*
X103479047Y-40242619D01*
X103479047Y-40242619D02*
X102907619Y-41242619D01*
X102907619Y-41242619D02*
X102907619Y-40242619D01*
X102574285Y-40242619D02*
X102002857Y-40242619D01*
X102288571Y-41242619D02*
X102288571Y-40242619D01*
X101669523Y-40718809D02*
X100907619Y-40718809D01*
X100907619Y-41004523D02*
X101669523Y-41004523D01*
X100288571Y-40671190D02*
X100383809Y-40623571D01*
X100383809Y-40623571D02*
X100431428Y-40575952D01*
X100431428Y-40575952D02*
X100479047Y-40480714D01*
X100479047Y-40480714D02*
X100479047Y-40433095D01*
X100479047Y-40433095D02*
X100431428Y-40337857D01*
X100431428Y-40337857D02*
X100383809Y-40290238D01*
X100383809Y-40290238D02*
X100288571Y-40242619D01*
X100288571Y-40242619D02*
X100098095Y-40242619D01*
X100098095Y-40242619D02*
X100002857Y-40290238D01*
X100002857Y-40290238D02*
X99955238Y-40337857D01*
X99955238Y-40337857D02*
X99907619Y-40433095D01*
X99907619Y-40433095D02*
X99907619Y-40480714D01*
X99907619Y-40480714D02*
X99955238Y-40575952D01*
X99955238Y-40575952D02*
X100002857Y-40623571D01*
X100002857Y-40623571D02*
X100098095Y-40671190D01*
X100098095Y-40671190D02*
X100288571Y-40671190D01*
X100288571Y-40671190D02*
X100383809Y-40718809D01*
X100383809Y-40718809D02*
X100431428Y-40766428D01*
X100431428Y-40766428D02*
X100479047Y-40861666D01*
X100479047Y-40861666D02*
X100479047Y-41052142D01*
X100479047Y-41052142D02*
X100431428Y-41147380D01*
X100431428Y-41147380D02*
X100383809Y-41195000D01*
X100383809Y-41195000D02*
X100288571Y-41242619D01*
X100288571Y-41242619D02*
X100098095Y-41242619D01*
X100098095Y-41242619D02*
X100002857Y-41195000D01*
X100002857Y-41195000D02*
X99955238Y-41147380D01*
X99955238Y-41147380D02*
X99907619Y-41052142D01*
X99907619Y-41052142D02*
X99907619Y-40861666D01*
X99907619Y-40861666D02*
X99955238Y-40766428D01*
X99955238Y-40766428D02*
X100002857Y-40718809D01*
X100002857Y-40718809D02*
X100098095Y-40671190D01*
X109669523Y-42815000D02*
X109526666Y-42862619D01*
X109526666Y-42862619D02*
X109288571Y-42862619D01*
X109288571Y-42862619D02*
X109193333Y-42815000D01*
X109193333Y-42815000D02*
X109145714Y-42767380D01*
X109145714Y-42767380D02*
X109098095Y-42672142D01*
X109098095Y-42672142D02*
X109098095Y-42576904D01*
X109098095Y-42576904D02*
X109145714Y-42481666D01*
X109145714Y-42481666D02*
X109193333Y-42434047D01*
X109193333Y-42434047D02*
X109288571Y-42386428D01*
X109288571Y-42386428D02*
X109479047Y-42338809D01*
X109479047Y-42338809D02*
X109574285Y-42291190D01*
X109574285Y-42291190D02*
X109621904Y-42243571D01*
X109621904Y-42243571D02*
X109669523Y-42148333D01*
X109669523Y-42148333D02*
X109669523Y-42053095D01*
X109669523Y-42053095D02*
X109621904Y-41957857D01*
X109621904Y-41957857D02*
X109574285Y-41910238D01*
X109574285Y-41910238D02*
X109479047Y-41862619D01*
X109479047Y-41862619D02*
X109240952Y-41862619D01*
X109240952Y-41862619D02*
X109098095Y-41910238D01*
X108669523Y-42862619D02*
X108669523Y-41862619D01*
X108669523Y-41862619D02*
X108288571Y-41862619D01*
X108288571Y-41862619D02*
X108193333Y-41910238D01*
X108193333Y-41910238D02*
X108145714Y-41957857D01*
X108145714Y-41957857D02*
X108098095Y-42053095D01*
X108098095Y-42053095D02*
X108098095Y-42195952D01*
X108098095Y-42195952D02*
X108145714Y-42291190D01*
X108145714Y-42291190D02*
X108193333Y-42338809D01*
X108193333Y-42338809D02*
X108288571Y-42386428D01*
X108288571Y-42386428D02*
X108669523Y-42386428D01*
X107669523Y-42862619D02*
X107669523Y-41862619D01*
X105955238Y-42862619D02*
X106431428Y-42862619D01*
X106431428Y-42862619D02*
X106431428Y-41862619D01*
X105050476Y-42767380D02*
X105098095Y-42815000D01*
X105098095Y-42815000D02*
X105240952Y-42862619D01*
X105240952Y-42862619D02*
X105336190Y-42862619D01*
X105336190Y-42862619D02*
X105479047Y-42815000D01*
X105479047Y-42815000D02*
X105574285Y-42719761D01*
X105574285Y-42719761D02*
X105621904Y-42624523D01*
X105621904Y-42624523D02*
X105669523Y-42434047D01*
X105669523Y-42434047D02*
X105669523Y-42291190D01*
X105669523Y-42291190D02*
X105621904Y-42100714D01*
X105621904Y-42100714D02*
X105574285Y-42005476D01*
X105574285Y-42005476D02*
X105479047Y-41910238D01*
X105479047Y-41910238D02*
X105336190Y-41862619D01*
X105336190Y-41862619D02*
X105240952Y-41862619D01*
X105240952Y-41862619D02*
X105098095Y-41910238D01*
X105098095Y-41910238D02*
X105050476Y-41957857D01*
X104621904Y-42862619D02*
X104621904Y-41862619D01*
X104621904Y-41862619D02*
X104383809Y-41862619D01*
X104383809Y-41862619D02*
X104240952Y-41910238D01*
X104240952Y-41910238D02*
X104145714Y-42005476D01*
X104145714Y-42005476D02*
X104098095Y-42100714D01*
X104098095Y-42100714D02*
X104050476Y-42291190D01*
X104050476Y-42291190D02*
X104050476Y-42434047D01*
X104050476Y-42434047D02*
X104098095Y-42624523D01*
X104098095Y-42624523D02*
X104145714Y-42719761D01*
X104145714Y-42719761D02*
X104240952Y-42815000D01*
X104240952Y-42815000D02*
X104383809Y-42862619D01*
X104383809Y-42862619D02*
X104621904Y-42862619D01*
X102336190Y-41910238D02*
X102431428Y-41862619D01*
X102431428Y-41862619D02*
X102574285Y-41862619D01*
X102574285Y-41862619D02*
X102717142Y-41910238D01*
X102717142Y-41910238D02*
X102812380Y-42005476D01*
X102812380Y-42005476D02*
X102859999Y-42100714D01*
X102859999Y-42100714D02*
X102907618Y-42291190D01*
X102907618Y-42291190D02*
X102907618Y-42434047D01*
X102907618Y-42434047D02*
X102859999Y-42624523D01*
X102859999Y-42624523D02*
X102812380Y-42719761D01*
X102812380Y-42719761D02*
X102717142Y-42815000D01*
X102717142Y-42815000D02*
X102574285Y-42862619D01*
X102574285Y-42862619D02*
X102479047Y-42862619D01*
X102479047Y-42862619D02*
X102336190Y-42815000D01*
X102336190Y-42815000D02*
X102288571Y-42767380D01*
X102288571Y-42767380D02*
X102288571Y-42434047D01*
X102288571Y-42434047D02*
X102479047Y-42434047D01*
X101859999Y-42862619D02*
X101859999Y-41862619D01*
X101859999Y-41862619D02*
X101479047Y-41862619D01*
X101479047Y-41862619D02*
X101383809Y-41910238D01*
X101383809Y-41910238D02*
X101336190Y-41957857D01*
X101336190Y-41957857D02*
X101288571Y-42053095D01*
X101288571Y-42053095D02*
X101288571Y-42195952D01*
X101288571Y-42195952D02*
X101336190Y-42291190D01*
X101336190Y-42291190D02*
X101383809Y-42338809D01*
X101383809Y-42338809D02*
X101479047Y-42386428D01*
X101479047Y-42386428D02*
X101859999Y-42386428D01*
X100859999Y-42862619D02*
X100859999Y-41862619D01*
X100193333Y-41862619D02*
X100002857Y-41862619D01*
X100002857Y-41862619D02*
X99907619Y-41910238D01*
X99907619Y-41910238D02*
X99812381Y-42005476D01*
X99812381Y-42005476D02*
X99764762Y-42195952D01*
X99764762Y-42195952D02*
X99764762Y-42529285D01*
X99764762Y-42529285D02*
X99812381Y-42719761D01*
X99812381Y-42719761D02*
X99907619Y-42815000D01*
X99907619Y-42815000D02*
X100002857Y-42862619D01*
X100002857Y-42862619D02*
X100193333Y-42862619D01*
X100193333Y-42862619D02*
X100288571Y-42815000D01*
X100288571Y-42815000D02*
X100383809Y-42719761D01*
X100383809Y-42719761D02*
X100431428Y-42529285D01*
X100431428Y-42529285D02*
X100431428Y-42195952D01*
X100431428Y-42195952D02*
X100383809Y-42005476D01*
X100383809Y-42005476D02*
X100288571Y-41910238D01*
X100288571Y-41910238D02*
X100193333Y-41862619D01*
X99383809Y-42815000D02*
X99288571Y-42862619D01*
X99288571Y-42862619D02*
X99098095Y-42862619D01*
X99098095Y-42862619D02*
X99002857Y-42815000D01*
X99002857Y-42815000D02*
X98955238Y-42719761D01*
X98955238Y-42719761D02*
X98955238Y-42672142D01*
X98955238Y-42672142D02*
X99002857Y-42576904D01*
X99002857Y-42576904D02*
X99098095Y-42529285D01*
X99098095Y-42529285D02*
X99240952Y-42529285D01*
X99240952Y-42529285D02*
X99336190Y-42481666D01*
X99336190Y-42481666D02*
X99383809Y-42386428D01*
X99383809Y-42386428D02*
X99383809Y-42338809D01*
X99383809Y-42338809D02*
X99336190Y-42243571D01*
X99336190Y-42243571D02*
X99240952Y-42195952D01*
X99240952Y-42195952D02*
X99098095Y-42195952D01*
X99098095Y-42195952D02*
X99002857Y-42243571D01*
X98526666Y-42767380D02*
X98479047Y-42815000D01*
X98479047Y-42815000D02*
X98526666Y-42862619D01*
X98526666Y-42862619D02*
X98574285Y-42815000D01*
X98574285Y-42815000D02*
X98526666Y-42767380D01*
X98526666Y-42767380D02*
X98526666Y-42862619D01*
X98526666Y-42243571D02*
X98479047Y-42291190D01*
X98479047Y-42291190D02*
X98526666Y-42338809D01*
X98526666Y-42338809D02*
X98574285Y-42291190D01*
X98574285Y-42291190D02*
X98526666Y-42243571D01*
X98526666Y-42243571D02*
X98526666Y-42338809D01*
X109621904Y-44482619D02*
X109621904Y-43482619D01*
X109621904Y-43482619D02*
X109288571Y-44196904D01*
X109288571Y-44196904D02*
X108955238Y-43482619D01*
X108955238Y-43482619D02*
X108955238Y-44482619D01*
X108288571Y-43482619D02*
X108098095Y-43482619D01*
X108098095Y-43482619D02*
X108002857Y-43530238D01*
X108002857Y-43530238D02*
X107907619Y-43625476D01*
X107907619Y-43625476D02*
X107860000Y-43815952D01*
X107860000Y-43815952D02*
X107860000Y-44149285D01*
X107860000Y-44149285D02*
X107907619Y-44339761D01*
X107907619Y-44339761D02*
X108002857Y-44435000D01*
X108002857Y-44435000D02*
X108098095Y-44482619D01*
X108098095Y-44482619D02*
X108288571Y-44482619D01*
X108288571Y-44482619D02*
X108383809Y-44435000D01*
X108383809Y-44435000D02*
X108479047Y-44339761D01*
X108479047Y-44339761D02*
X108526666Y-44149285D01*
X108526666Y-44149285D02*
X108526666Y-43815952D01*
X108526666Y-43815952D02*
X108479047Y-43625476D01*
X108479047Y-43625476D02*
X108383809Y-43530238D01*
X108383809Y-43530238D02*
X108288571Y-43482619D01*
X107479047Y-44435000D02*
X107336190Y-44482619D01*
X107336190Y-44482619D02*
X107098095Y-44482619D01*
X107098095Y-44482619D02*
X107002857Y-44435000D01*
X107002857Y-44435000D02*
X106955238Y-44387380D01*
X106955238Y-44387380D02*
X106907619Y-44292142D01*
X106907619Y-44292142D02*
X106907619Y-44196904D01*
X106907619Y-44196904D02*
X106955238Y-44101666D01*
X106955238Y-44101666D02*
X107002857Y-44054047D01*
X107002857Y-44054047D02*
X107098095Y-44006428D01*
X107098095Y-44006428D02*
X107288571Y-43958809D01*
X107288571Y-43958809D02*
X107383809Y-43911190D01*
X107383809Y-43911190D02*
X107431428Y-43863571D01*
X107431428Y-43863571D02*
X107479047Y-43768333D01*
X107479047Y-43768333D02*
X107479047Y-43673095D01*
X107479047Y-43673095D02*
X107431428Y-43577857D01*
X107431428Y-43577857D02*
X107383809Y-43530238D01*
X107383809Y-43530238D02*
X107288571Y-43482619D01*
X107288571Y-43482619D02*
X107050476Y-43482619D01*
X107050476Y-43482619D02*
X106907619Y-43530238D01*
X106479047Y-44482619D02*
X106479047Y-43482619D01*
X106002857Y-43958809D02*
X105240953Y-43958809D01*
X105240953Y-44244523D02*
X106002857Y-44244523D01*
X104574286Y-43482619D02*
X104479048Y-43482619D01*
X104479048Y-43482619D02*
X104383810Y-43530238D01*
X104383810Y-43530238D02*
X104336191Y-43577857D01*
X104336191Y-43577857D02*
X104288572Y-43673095D01*
X104288572Y-43673095D02*
X104240953Y-43863571D01*
X104240953Y-43863571D02*
X104240953Y-44101666D01*
X104240953Y-44101666D02*
X104288572Y-44292142D01*
X104288572Y-44292142D02*
X104336191Y-44387380D01*
X104336191Y-44387380D02*
X104383810Y-44435000D01*
X104383810Y-44435000D02*
X104479048Y-44482619D01*
X104479048Y-44482619D02*
X104574286Y-44482619D01*
X104574286Y-44482619D02*
X104669524Y-44435000D01*
X104669524Y-44435000D02*
X104717143Y-44387380D01*
X104717143Y-44387380D02*
X104764762Y-44292142D01*
X104764762Y-44292142D02*
X104812381Y-44101666D01*
X104812381Y-44101666D02*
X104812381Y-43863571D01*
X104812381Y-43863571D02*
X104764762Y-43673095D01*
X104764762Y-43673095D02*
X104717143Y-43577857D01*
X104717143Y-43577857D02*
X104669524Y-43530238D01*
X104669524Y-43530238D02*
X104574286Y-43482619D01*
X102479048Y-44387380D02*
X102526667Y-44435000D01*
X102526667Y-44435000D02*
X102669524Y-44482619D01*
X102669524Y-44482619D02*
X102764762Y-44482619D01*
X102764762Y-44482619D02*
X102907619Y-44435000D01*
X102907619Y-44435000D02*
X103002857Y-44339761D01*
X103002857Y-44339761D02*
X103050476Y-44244523D01*
X103050476Y-44244523D02*
X103098095Y-44054047D01*
X103098095Y-44054047D02*
X103098095Y-43911190D01*
X103098095Y-43911190D02*
X103050476Y-43720714D01*
X103050476Y-43720714D02*
X103002857Y-43625476D01*
X103002857Y-43625476D02*
X102907619Y-43530238D01*
X102907619Y-43530238D02*
X102764762Y-43482619D01*
X102764762Y-43482619D02*
X102669524Y-43482619D01*
X102669524Y-43482619D02*
X102526667Y-43530238D01*
X102526667Y-43530238D02*
X102479048Y-43577857D01*
X101574286Y-44482619D02*
X102050476Y-44482619D01*
X102050476Y-44482619D02*
X102050476Y-43482619D01*
X101240952Y-44482619D02*
X101240952Y-43482619D01*
X100669524Y-44482619D02*
X101098095Y-43911190D01*
X100669524Y-43482619D02*
X101240952Y-44054047D01*
X100240952Y-43958809D02*
X99479048Y-43958809D01*
X99479048Y-44244523D02*
X100240952Y-44244523D01*
X98574286Y-43482619D02*
X98764762Y-43482619D01*
X98764762Y-43482619D02*
X98860000Y-43530238D01*
X98860000Y-43530238D02*
X98907619Y-43577857D01*
X98907619Y-43577857D02*
X99002857Y-43720714D01*
X99002857Y-43720714D02*
X99050476Y-43911190D01*
X99050476Y-43911190D02*
X99050476Y-44292142D01*
X99050476Y-44292142D02*
X99002857Y-44387380D01*
X99002857Y-44387380D02*
X98955238Y-44435000D01*
X98955238Y-44435000D02*
X98860000Y-44482619D01*
X98860000Y-44482619D02*
X98669524Y-44482619D01*
X98669524Y-44482619D02*
X98574286Y-44435000D01*
X98574286Y-44435000D02*
X98526667Y-44387380D01*
X98526667Y-44387380D02*
X98479048Y-44292142D01*
X98479048Y-44292142D02*
X98479048Y-44054047D01*
X98479048Y-44054047D02*
X98526667Y-43958809D01*
X98526667Y-43958809D02*
X98574286Y-43911190D01*
X98574286Y-43911190D02*
X98669524Y-43863571D01*
X98669524Y-43863571D02*
X98860000Y-43863571D01*
X98860000Y-43863571D02*
X98955238Y-43911190D01*
X98955238Y-43911190D02*
X99002857Y-43958809D01*
X99002857Y-43958809D02*
X99050476Y-44054047D01*
X96717143Y-44387380D02*
X96764762Y-44435000D01*
X96764762Y-44435000D02*
X96907619Y-44482619D01*
X96907619Y-44482619D02*
X97002857Y-44482619D01*
X97002857Y-44482619D02*
X97145714Y-44435000D01*
X97145714Y-44435000D02*
X97240952Y-44339761D01*
X97240952Y-44339761D02*
X97288571Y-44244523D01*
X97288571Y-44244523D02*
X97336190Y-44054047D01*
X97336190Y-44054047D02*
X97336190Y-43911190D01*
X97336190Y-43911190D02*
X97288571Y-43720714D01*
X97288571Y-43720714D02*
X97240952Y-43625476D01*
X97240952Y-43625476D02*
X97145714Y-43530238D01*
X97145714Y-43530238D02*
X97002857Y-43482619D01*
X97002857Y-43482619D02*
X96907619Y-43482619D01*
X96907619Y-43482619D02*
X96764762Y-43530238D01*
X96764762Y-43530238D02*
X96717143Y-43577857D01*
X96336190Y-44435000D02*
X96193333Y-44482619D01*
X96193333Y-44482619D02*
X95955238Y-44482619D01*
X95955238Y-44482619D02*
X95860000Y-44435000D01*
X95860000Y-44435000D02*
X95812381Y-44387380D01*
X95812381Y-44387380D02*
X95764762Y-44292142D01*
X95764762Y-44292142D02*
X95764762Y-44196904D01*
X95764762Y-44196904D02*
X95812381Y-44101666D01*
X95812381Y-44101666D02*
X95860000Y-44054047D01*
X95860000Y-44054047D02*
X95955238Y-44006428D01*
X95955238Y-44006428D02*
X96145714Y-43958809D01*
X96145714Y-43958809D02*
X96240952Y-43911190D01*
X96240952Y-43911190D02*
X96288571Y-43863571D01*
X96288571Y-43863571D02*
X96336190Y-43768333D01*
X96336190Y-43768333D02*
X96336190Y-43673095D01*
X96336190Y-43673095D02*
X96288571Y-43577857D01*
X96288571Y-43577857D02*
X96240952Y-43530238D01*
X96240952Y-43530238D02*
X96145714Y-43482619D01*
X96145714Y-43482619D02*
X95907619Y-43482619D01*
X95907619Y-43482619D02*
X95764762Y-43530238D01*
X95336190Y-43958809D02*
X94574286Y-43958809D01*
X94574286Y-44244523D02*
X95336190Y-44244523D01*
X94193333Y-43482619D02*
X93526667Y-43482619D01*
X93526667Y-43482619D02*
X93955238Y-44482619D01*
X111422857Y-55723714D02*
X111422857Y-56485619D01*
X111346666Y-55723714D02*
X111346666Y-56485619D01*
X111270476Y-55799904D02*
X111270476Y-56409428D01*
X111194285Y-55799904D02*
X111194285Y-56409428D01*
X111118095Y-55799904D02*
X111118095Y-56409428D01*
X111041904Y-55876095D02*
X111041904Y-56333238D01*
X110965714Y-55876095D02*
X110965714Y-56333238D01*
X110889523Y-55876095D02*
X110889523Y-56333238D01*
X110813333Y-55952285D02*
X110813333Y-56257047D01*
X110737142Y-55952285D02*
X110737142Y-56257047D01*
X110660952Y-56028476D02*
X110660952Y-56180857D01*
X110584761Y-56028476D02*
X110584761Y-56180857D01*
X110508571Y-56028476D02*
X110508571Y-56180857D01*
X110432380Y-56104666D02*
X110508571Y-56104666D01*
X111499047Y-55723714D02*
X110356190Y-56104666D01*
X110356190Y-56104666D02*
X111499047Y-56485619D01*
X110280000Y-56104666D02*
X111499047Y-56561809D01*
X111499047Y-56561809D02*
X111499047Y-55647523D01*
X111499047Y-55647523D02*
X110280000Y-56104666D01*
D14*
X115853333Y-33005000D02*
X115710476Y-33052619D01*
X115710476Y-33052619D02*
X115472381Y-33052619D01*
X115472381Y-33052619D02*
X115377143Y-33005000D01*
X115377143Y-33005000D02*
X115329524Y-32957380D01*
X115329524Y-32957380D02*
X115281905Y-32862142D01*
X115281905Y-32862142D02*
X115281905Y-32766904D01*
X115281905Y-32766904D02*
X115329524Y-32671666D01*
X115329524Y-32671666D02*
X115377143Y-32624047D01*
X115377143Y-32624047D02*
X115472381Y-32576428D01*
X115472381Y-32576428D02*
X115662857Y-32528809D01*
X115662857Y-32528809D02*
X115758095Y-32481190D01*
X115758095Y-32481190D02*
X115805714Y-32433571D01*
X115805714Y-32433571D02*
X115853333Y-32338333D01*
X115853333Y-32338333D02*
X115853333Y-32243095D01*
X115853333Y-32243095D02*
X115805714Y-32147857D01*
X115805714Y-32147857D02*
X115758095Y-32100238D01*
X115758095Y-32100238D02*
X115662857Y-32052619D01*
X115662857Y-32052619D02*
X115424762Y-32052619D01*
X115424762Y-32052619D02*
X115281905Y-32100238D01*
X114853333Y-33052619D02*
X114853333Y-32052619D01*
X114853333Y-32528809D02*
X114281905Y-32528809D01*
X114281905Y-33052619D02*
X114281905Y-32052619D01*
X113853333Y-32766904D02*
X113377143Y-32766904D01*
X113948571Y-33052619D02*
X113615238Y-32052619D01*
X113615238Y-32052619D02*
X113281905Y-33052619D01*
X112377143Y-33052619D02*
X112710476Y-32576428D01*
X112948571Y-33052619D02*
X112948571Y-32052619D01*
X112948571Y-32052619D02*
X112567619Y-32052619D01*
X112567619Y-32052619D02*
X112472381Y-32100238D01*
X112472381Y-32100238D02*
X112424762Y-32147857D01*
X112424762Y-32147857D02*
X112377143Y-32243095D01*
X112377143Y-32243095D02*
X112377143Y-32385952D01*
X112377143Y-32385952D02*
X112424762Y-32481190D01*
X112424762Y-32481190D02*
X112472381Y-32528809D01*
X112472381Y-32528809D02*
X112567619Y-32576428D01*
X112567619Y-32576428D02*
X112948571Y-32576428D01*
X111948571Y-33052619D02*
X111948571Y-32052619D01*
X111948571Y-32052619D02*
X111567619Y-32052619D01*
X111567619Y-32052619D02*
X111472381Y-32100238D01*
X111472381Y-32100238D02*
X111424762Y-32147857D01*
X111424762Y-32147857D02*
X111377143Y-32243095D01*
X111377143Y-32243095D02*
X111377143Y-32385952D01*
X111377143Y-32385952D02*
X111424762Y-32481190D01*
X111424762Y-32481190D02*
X111472381Y-32528809D01*
X111472381Y-32528809D02*
X111567619Y-32576428D01*
X111567619Y-32576428D02*
X111948571Y-32576428D01*
X109615238Y-32957380D02*
X109662857Y-33005000D01*
X109662857Y-33005000D02*
X109805714Y-33052619D01*
X109805714Y-33052619D02*
X109900952Y-33052619D01*
X109900952Y-33052619D02*
X110043809Y-33005000D01*
X110043809Y-33005000D02*
X110139047Y-32909761D01*
X110139047Y-32909761D02*
X110186666Y-32814523D01*
X110186666Y-32814523D02*
X110234285Y-32624047D01*
X110234285Y-32624047D02*
X110234285Y-32481190D01*
X110234285Y-32481190D02*
X110186666Y-32290714D01*
X110186666Y-32290714D02*
X110139047Y-32195476D01*
X110139047Y-32195476D02*
X110043809Y-32100238D01*
X110043809Y-32100238D02*
X109900952Y-32052619D01*
X109900952Y-32052619D02*
X109805714Y-32052619D01*
X109805714Y-32052619D02*
X109662857Y-32100238D01*
X109662857Y-32100238D02*
X109615238Y-32147857D01*
X108996190Y-32052619D02*
X108805714Y-32052619D01*
X108805714Y-32052619D02*
X108710476Y-32100238D01*
X108710476Y-32100238D02*
X108615238Y-32195476D01*
X108615238Y-32195476D02*
X108567619Y-32385952D01*
X108567619Y-32385952D02*
X108567619Y-32719285D01*
X108567619Y-32719285D02*
X108615238Y-32909761D01*
X108615238Y-32909761D02*
X108710476Y-33005000D01*
X108710476Y-33005000D02*
X108805714Y-33052619D01*
X108805714Y-33052619D02*
X108996190Y-33052619D01*
X108996190Y-33052619D02*
X109091428Y-33005000D01*
X109091428Y-33005000D02*
X109186666Y-32909761D01*
X109186666Y-32909761D02*
X109234285Y-32719285D01*
X109234285Y-32719285D02*
X109234285Y-32385952D01*
X109234285Y-32385952D02*
X109186666Y-32195476D01*
X109186666Y-32195476D02*
X109091428Y-32100238D01*
X109091428Y-32100238D02*
X108996190Y-32052619D01*
X108139047Y-33052619D02*
X108139047Y-32052619D01*
X108139047Y-32052619D02*
X107567619Y-33052619D01*
X107567619Y-33052619D02*
X107567619Y-32052619D01*
X107234285Y-32052619D02*
X106662857Y-32052619D01*
X106948571Y-33052619D02*
X106948571Y-32052619D01*
X105758095Y-33052619D02*
X106091428Y-32576428D01*
X106329523Y-33052619D02*
X106329523Y-32052619D01*
X106329523Y-32052619D02*
X105948571Y-32052619D01*
X105948571Y-32052619D02*
X105853333Y-32100238D01*
X105853333Y-32100238D02*
X105805714Y-32147857D01*
X105805714Y-32147857D02*
X105758095Y-32243095D01*
X105758095Y-32243095D02*
X105758095Y-32385952D01*
X105758095Y-32385952D02*
X105805714Y-32481190D01*
X105805714Y-32481190D02*
X105853333Y-32528809D01*
X105853333Y-32528809D02*
X105948571Y-32576428D01*
X105948571Y-32576428D02*
X106329523Y-32576428D01*
X105139047Y-32052619D02*
X104948571Y-32052619D01*
X104948571Y-32052619D02*
X104853333Y-32100238D01*
X104853333Y-32100238D02*
X104758095Y-32195476D01*
X104758095Y-32195476D02*
X104710476Y-32385952D01*
X104710476Y-32385952D02*
X104710476Y-32719285D01*
X104710476Y-32719285D02*
X104758095Y-32909761D01*
X104758095Y-32909761D02*
X104853333Y-33005000D01*
X104853333Y-33005000D02*
X104948571Y-33052619D01*
X104948571Y-33052619D02*
X105139047Y-33052619D01*
X105139047Y-33052619D02*
X105234285Y-33005000D01*
X105234285Y-33005000D02*
X105329523Y-32909761D01*
X105329523Y-32909761D02*
X105377142Y-32719285D01*
X105377142Y-32719285D02*
X105377142Y-32385952D01*
X105377142Y-32385952D02*
X105329523Y-32195476D01*
X105329523Y-32195476D02*
X105234285Y-32100238D01*
X105234285Y-32100238D02*
X105139047Y-32052619D01*
X103805714Y-33052619D02*
X104281904Y-33052619D01*
X104281904Y-33052619D02*
X104281904Y-32052619D01*
X102996190Y-33052619D02*
X103472380Y-33052619D01*
X103472380Y-33052619D02*
X103472380Y-32052619D01*
X102662856Y-32528809D02*
X102329523Y-32528809D01*
X102186666Y-33052619D02*
X102662856Y-33052619D01*
X102662856Y-33052619D02*
X102662856Y-32052619D01*
X102662856Y-32052619D02*
X102186666Y-32052619D01*
X101186666Y-33052619D02*
X101519999Y-32576428D01*
X101758094Y-33052619D02*
X101758094Y-32052619D01*
X101758094Y-32052619D02*
X101377142Y-32052619D01*
X101377142Y-32052619D02*
X101281904Y-32100238D01*
X101281904Y-32100238D02*
X101234285Y-32147857D01*
X101234285Y-32147857D02*
X101186666Y-32243095D01*
X101186666Y-32243095D02*
X101186666Y-32385952D01*
X101186666Y-32385952D02*
X101234285Y-32481190D01*
X101234285Y-32481190D02*
X101281904Y-32528809D01*
X101281904Y-32528809D02*
X101377142Y-32576428D01*
X101377142Y-32576428D02*
X101758094Y-32576428D01*
D11*
X76244285Y-50165714D02*
X76244285Y-50927619D01*
X76196666Y-50213333D02*
X76196666Y-50880000D01*
X76149047Y-50213333D02*
X76149047Y-50880000D01*
X76101428Y-50260952D02*
X76101428Y-50832380D01*
X76053809Y-50260952D02*
X76053809Y-50832380D01*
X76006190Y-50308571D02*
X76006190Y-50784761D01*
X75958571Y-50308571D02*
X75958571Y-50784761D01*
X75910952Y-50356190D02*
X75910952Y-50737142D01*
X75863333Y-50403809D02*
X75863333Y-50689523D01*
X75815714Y-50403809D02*
X75815714Y-50689523D01*
X75768095Y-50451428D02*
X75768095Y-50641904D01*
X75720476Y-50451428D02*
X75720476Y-50641904D01*
X75672857Y-50546666D02*
X75625238Y-50546666D01*
X75672857Y-50499047D02*
X75672857Y-50594285D01*
X76291904Y-50165714D02*
X75577619Y-50546666D01*
X75577619Y-50546666D02*
X76291904Y-50927619D01*
X75530000Y-50546666D02*
X76291904Y-50975238D01*
X76291904Y-50975238D02*
X76291904Y-50118095D01*
X76291904Y-50118095D02*
X75530000Y-50546666D01*
X84957619Y-50927619D02*
X84957619Y-50165714D01*
X85005238Y-50880000D02*
X85005238Y-50213333D01*
X85052857Y-50880000D02*
X85052857Y-50213333D01*
X85100476Y-50832380D02*
X85100476Y-50260952D01*
X85148095Y-50832380D02*
X85148095Y-50260952D01*
X85195714Y-50784761D02*
X85195714Y-50308571D01*
X85243333Y-50784761D02*
X85243333Y-50308571D01*
X85290952Y-50737142D02*
X85290952Y-50356190D01*
X85338571Y-50689523D02*
X85338571Y-50403809D01*
X85386190Y-50689523D02*
X85386190Y-50403809D01*
X85433809Y-50641904D02*
X85433809Y-50451428D01*
X85481428Y-50641904D02*
X85481428Y-50451428D01*
X85529047Y-50546666D02*
X85576666Y-50546666D01*
X85529047Y-50594285D02*
X85529047Y-50499047D01*
X84910000Y-50927619D02*
X85624285Y-50546666D01*
X85624285Y-50546666D02*
X84910000Y-50165714D01*
X85671904Y-50546666D02*
X84910000Y-50118095D01*
X84910000Y-50118095D02*
X84910000Y-50975238D01*
X84910000Y-50975238D02*
X85671904Y-50546666D01*
D15*
X73930000Y-39120000D02*
X73930000Y-39420000D01*
X73930000Y-39420000D02*
X78070000Y-39420000D01*
X73930000Y-36280000D02*
X73930000Y-36580000D01*
X78070000Y-39420000D02*
X78070000Y-39120000D01*
X78070000Y-36580000D02*
X78070000Y-36280000D01*
X78070000Y-36280000D02*
X73930000Y-36280000D01*
X105376102Y-61009973D02*
G75*
G03*
X105376102Y-61009973I-381000J0D01*
G01*
X109095000Y-35593900D02*
G75*
G03*
X109095000Y-35593900I-381000J0D01*
G01*
X83010000Y-46690000D02*
X83010000Y-46990000D01*
X83010000Y-49530000D02*
X83010000Y-49830000D01*
X83010000Y-49830000D02*
X87150000Y-49830000D01*
X87150000Y-46690000D02*
X83010000Y-46690000D01*
X87150000Y-46990000D02*
X87150000Y-46690000D01*
X87150000Y-49830000D02*
X87150000Y-49530000D01*
X78070000Y-49830000D02*
X78070000Y-49530000D01*
X78070000Y-46990000D02*
X78070000Y-46690000D01*
X78070000Y-46690000D02*
X73930000Y-46690000D01*
X73930000Y-49830000D02*
X78070000Y-49830000D01*
X73930000Y-49530000D02*
X73930000Y-49830000D01*
X73930000Y-46690000D02*
X73930000Y-46990000D01*
X82280000Y-44070000D02*
X82280000Y-43770000D01*
X82280000Y-41230000D02*
X82280000Y-40930000D01*
X82280000Y-40930000D02*
X78140000Y-40930000D01*
X78140000Y-44070000D02*
X82280000Y-44070000D01*
X78140000Y-43770000D02*
X78140000Y-44070000D01*
X78140000Y-40930000D02*
X78140000Y-41230000D01*
%LPC*%
D16*
X78100000Y-37850000D03*
X73900000Y-37850000D03*
D17*
X107030000Y-60250000D03*
D18*
X109570000Y-60250000D03*
X112110000Y-60250000D03*
X114650000Y-60250000D03*
X117190000Y-60250000D03*
X119730000Y-60250000D03*
D19*
X79400000Y-54235000D03*
X79400000Y-60015000D03*
D20*
X79930000Y-52805000D03*
D21*
X75750000Y-52805000D03*
D20*
X79930000Y-61445000D03*
D21*
X75750000Y-61445000D03*
D22*
X74400000Y-32000000D03*
X99400000Y-32000000D03*
D23*
X82980000Y-48260000D03*
X87180000Y-48260000D03*
D16*
X78100000Y-48260000D03*
X73900000Y-48260000D03*
X82310000Y-42500000D03*
X78110000Y-42500000D03*
%LPD*%
M02*
