G04 #@! TF.GenerationSoftware,KiCad,Pcbnew,7.0.1-3b83917a11~172~ubuntu22.04.1*
G04 #@! TF.CreationDate,2023-04-24T23:34:59+02:00*
G04 #@! TF.ProjectId,sharp-lcd-128x128,73686172-702d-46c6-9364-2d3132387831,rev?*
G04 #@! TF.SameCoordinates,Original*
G04 #@! TF.FileFunction,Copper,L2,Bot*
G04 #@! TF.FilePolarity,Positive*
%FSLAX46Y46*%
G04 Gerber Fmt 4.6, Leading zero omitted, Abs format (unit mm)*
G04 Created by KiCad (PCBNEW 7.0.1-3b83917a11~172~ubuntu22.04.1) date 2023-04-24 23:34:59*
%MOMM*%
%LPD*%
G01*
G04 APERTURE LIST*
G04 Aperture macros list*
%AMRoundRect*
0 Rectangle with rounded corners*
0 $1 Rounding radius*
0 $2 $3 $4 $5 $6 $7 $8 $9 X,Y pos of 4 corners*
0 Add a 4 corners polygon primitive as box body*
4,1,4,$2,$3,$4,$5,$6,$7,$8,$9,$2,$3,0*
0 Add four circle primitives for the rounded corners*
1,1,$1+$1,$2,$3*
1,1,$1+$1,$4,$5*
1,1,$1+$1,$6,$7*
1,1,$1+$1,$8,$9*
0 Add four rect primitives between the rounded corners*
20,1,$1+$1,$2,$3,$4,$5,0*
20,1,$1+$1,$4,$5,$6,$7,0*
20,1,$1+$1,$6,$7,$8,$9,0*
20,1,$1+$1,$8,$9,$2,$3,0*%
G04 Aperture macros list end*
G04 #@! TA.AperFunction,ComponentPad*
%ADD10O,2.100000X1.000000*%
G04 #@! TD*
G04 #@! TA.AperFunction,ComponentPad*
%ADD11O,1.600000X1.000000*%
G04 #@! TD*
G04 #@! TA.AperFunction,ComponentPad*
%ADD12R,1.700000X1.700000*%
G04 #@! TD*
G04 #@! TA.AperFunction,ComponentPad*
%ADD13O,1.700000X1.700000*%
G04 #@! TD*
G04 #@! TA.AperFunction,SMDPad,CuDef*
%ADD14RoundRect,0.200000X0.200000X0.800000X-0.200000X0.800000X-0.200000X-0.800000X0.200000X-0.800000X0*%
G04 #@! TD*
G04 #@! TA.AperFunction,ViaPad*
%ADD15C,0.600000*%
G04 #@! TD*
G04 #@! TA.AperFunction,ViaPad*
%ADD16C,0.500000*%
G04 #@! TD*
G04 #@! TA.AperFunction,Conductor*
%ADD17C,0.500000*%
G04 #@! TD*
G04 #@! TA.AperFunction,Conductor*
%ADD18C,0.250000*%
G04 #@! TD*
G04 #@! TA.AperFunction,Conductor*
%ADD19C,0.300000*%
G04 #@! TD*
G04 #@! TA.AperFunction,Conductor*
%ADD20C,0.350000*%
G04 #@! TD*
G04 APERTURE END LIST*
D10*
X79930000Y-52805000D03*
D11*
X75750000Y-52805000D03*
D10*
X79930000Y-61445000D03*
D11*
X75750000Y-61445000D03*
D12*
X102690000Y-60190000D03*
D13*
X105230000Y-60190000D03*
X107770000Y-60190000D03*
X110310000Y-60190000D03*
X112850000Y-60190000D03*
X115390000Y-60190000D03*
D14*
X78100000Y-48260000D03*
X73900000Y-48260000D03*
X78100000Y-42480000D03*
X73900000Y-42480000D03*
X78100000Y-37850000D03*
X73900000Y-37850000D03*
D15*
X80590000Y-46940000D03*
D16*
X96940000Y-37300000D03*
D15*
X93350000Y-54260000D03*
X82425000Y-61375000D03*
D16*
X73940000Y-40430000D03*
X110740000Y-53610000D03*
X91180000Y-35110000D03*
X99260000Y-45050000D03*
X79740000Y-42450000D03*
X107990000Y-43940000D03*
X85970000Y-47300000D03*
D15*
X82130000Y-39810000D03*
D16*
X85240000Y-55800000D03*
X105658781Y-30772500D03*
D15*
X79300000Y-58825000D03*
X79300000Y-55475000D03*
X80660000Y-44490000D03*
X84270000Y-36120000D03*
X101589900Y-53664900D03*
D16*
X85511935Y-43131935D03*
X90805354Y-45114646D03*
X88640000Y-47540000D03*
X86370000Y-39830000D03*
X97300000Y-44920000D03*
X100720000Y-38170000D03*
X92010000Y-43900500D03*
X101680000Y-36250000D03*
X97690000Y-38220000D03*
X106690000Y-48260000D03*
X92200000Y-47560500D03*
X109684502Y-47356665D03*
X98170000Y-47360000D03*
X91380000Y-47610000D03*
X106720000Y-47270000D03*
X99196815Y-38341685D03*
X94750000Y-45320000D03*
X110000000Y-46480000D03*
X92830000Y-33140000D03*
X100770000Y-42690000D03*
X112060000Y-54890000D03*
X101310000Y-40520000D03*
X85170000Y-57320000D03*
X83800000Y-56750000D03*
X100190000Y-39030000D03*
X83111111Y-42856717D03*
X86698914Y-43188914D03*
X93250000Y-47300000D03*
D17*
X80660000Y-44490000D02*
X77900000Y-44490000D01*
X76610000Y-41690000D02*
X77530000Y-40770000D01*
X77900000Y-44490000D02*
X76610000Y-43200000D01*
X76610000Y-43200000D02*
X76610000Y-41690000D01*
X77530000Y-40770000D02*
X79620000Y-40770000D01*
X79620000Y-40770000D02*
X84270000Y-36120000D01*
X101589900Y-53664900D02*
X98055100Y-53664900D01*
X98055100Y-53664900D02*
X96210000Y-55510000D01*
X96210000Y-55510000D02*
X86290000Y-55510000D01*
X84540000Y-53760000D02*
X84540000Y-48370000D01*
X86290000Y-55510000D02*
X84540000Y-53760000D01*
X84540000Y-48370000D02*
X80660000Y-44490000D01*
D18*
X79300000Y-55475000D02*
X79300000Y-58825000D01*
X90160708Y-44470000D02*
X90805354Y-45114646D01*
X90160000Y-44470000D02*
X90160708Y-44470000D01*
X85511935Y-43131935D02*
X86850000Y-44470000D01*
X86850000Y-44470000D02*
X90160000Y-44470000D01*
D19*
X99595500Y-39286250D02*
X99595500Y-38783750D01*
X99943750Y-38435500D02*
X100454500Y-38435500D01*
X86370000Y-39830000D02*
X84916935Y-41283065D01*
X97300000Y-44920000D02*
X97300000Y-41581750D01*
X84916935Y-43816935D02*
X88640000Y-47540000D01*
X99595500Y-38783750D02*
X99943750Y-38435500D01*
X100454500Y-38435500D02*
X100720000Y-38170000D01*
X84916935Y-41283065D02*
X84916935Y-43816935D01*
X97300000Y-41581750D02*
X99595500Y-39286250D01*
D18*
X98790000Y-37100000D02*
X98790000Y-37120500D01*
X98810500Y-37100000D02*
X98790000Y-37100000D01*
X99660500Y-36250000D02*
X98810500Y-37100000D01*
X101680000Y-36250000D02*
X99660500Y-36250000D01*
X98790000Y-37120500D02*
X92010000Y-43900500D01*
X106375000Y-48575000D02*
X106690000Y-48260000D01*
X90810000Y-47846102D02*
X91538898Y-48575000D01*
X91679500Y-47040000D02*
X91143898Y-47040000D01*
X90810000Y-47373898D02*
X90810000Y-47846102D01*
X91143898Y-47040000D02*
X90810000Y-47373898D01*
X92200000Y-47560500D02*
X91679500Y-47040000D01*
X91538898Y-48575000D02*
X106375000Y-48575000D01*
X98430000Y-47620000D02*
X98170000Y-47360000D01*
X105640000Y-47620000D02*
X98430000Y-47620000D01*
X106483898Y-46700000D02*
X105640000Y-47543898D01*
X105640000Y-47543898D02*
X105640000Y-47620000D01*
X109027837Y-46700000D02*
X106483898Y-46700000D01*
X109684502Y-47356665D02*
X109027837Y-46700000D01*
X91900000Y-48130000D02*
X105860000Y-48130000D01*
X105860000Y-48130000D02*
X106720000Y-47270000D01*
X91380000Y-47610000D02*
X91900000Y-48130000D01*
X94750000Y-45320000D02*
X96220000Y-46790000D01*
D20*
X93453187Y-45350000D02*
X93070000Y-44966813D01*
D18*
X98406102Y-46790000D02*
X98791102Y-47175000D01*
X106205000Y-46255000D02*
X109775000Y-46255000D01*
D20*
X99181502Y-38341685D02*
X99196815Y-38341685D01*
D18*
X106160000Y-46300000D02*
X106205000Y-46255000D01*
X109775000Y-46255000D02*
X110000000Y-46480000D01*
X105360000Y-47175000D02*
X105360000Y-47100000D01*
X96220000Y-46790000D02*
X98406102Y-46790000D01*
D20*
X93070000Y-44966813D02*
X93070000Y-44453187D01*
X93070000Y-44453187D02*
X99181502Y-38341685D01*
X94720000Y-45350000D02*
X93453187Y-45350000D01*
X94750000Y-45320000D02*
X94720000Y-45350000D01*
D18*
X98791102Y-47175000D02*
X105360000Y-47175000D01*
X105360000Y-47100000D02*
X106160000Y-46300000D01*
X75920499Y-38294110D02*
X75920499Y-46080499D01*
X75920499Y-46080499D02*
X78100000Y-48260000D01*
X81074609Y-33140000D02*
X75920499Y-38294110D01*
X92830000Y-33140000D02*
X81074609Y-33140000D01*
D20*
X112060000Y-43450000D02*
X111300000Y-42690000D01*
X111300000Y-42690000D02*
X100770000Y-42690000D01*
X112060000Y-54890000D02*
X112060000Y-43450000D01*
D18*
X80020000Y-37850000D02*
X84170000Y-33700000D01*
X103760000Y-38070000D02*
X101310000Y-40520000D01*
X84170000Y-33700000D02*
X86210000Y-33700000D01*
X78140000Y-37850000D02*
X80020000Y-37850000D01*
X103030000Y-34260000D02*
X103760000Y-34990000D01*
X86770000Y-34260000D02*
X103030000Y-34260000D01*
X103760000Y-34990000D02*
X103760000Y-38070000D01*
X86210000Y-33700000D02*
X86770000Y-34260000D01*
X85170000Y-57320000D02*
X106590000Y-57320000D01*
X106590000Y-57320000D02*
X106655000Y-57385000D01*
X106655000Y-57385000D02*
X107770000Y-58500000D01*
X107770000Y-58500000D02*
X107770000Y-60190000D01*
X110310000Y-58630000D02*
X110310000Y-60190000D01*
X83800000Y-56750000D02*
X108430000Y-56750000D01*
X108430000Y-56750000D02*
X110310000Y-58630000D01*
D19*
X100440000Y-39280000D02*
X100440000Y-40850000D01*
X110575185Y-41230499D02*
X112850000Y-43505314D01*
X100190000Y-39030000D02*
X100440000Y-39280000D01*
X112850000Y-43505314D02*
X112850000Y-60190000D01*
X100440000Y-40850000D02*
X100820499Y-41230499D01*
X100820499Y-41230499D02*
X110575185Y-41230499D01*
D18*
X89685724Y-43188914D02*
X92600000Y-46103190D01*
X92920000Y-47300000D02*
X93250000Y-47300000D01*
X82907329Y-43060499D02*
X83111111Y-42856717D01*
X78100000Y-42480000D02*
X78680499Y-43060499D01*
X78680499Y-43060499D02*
X82907329Y-43060499D01*
X86698914Y-43188914D02*
X89685724Y-43188914D01*
X92600000Y-46980000D02*
X92920000Y-47300000D01*
X92600000Y-46103190D02*
X92600000Y-46980000D01*
G04 #@! TA.AperFunction,Conductor*
G36*
X117937500Y-29517113D02*
G01*
X117982887Y-29562500D01*
X117999500Y-29624500D01*
X117999500Y-36975240D01*
X117999459Y-36975446D01*
X117999459Y-37000000D01*
X117999500Y-37000099D01*
X117999616Y-37000382D01*
X117999617Y-37000383D01*
X117999618Y-37000384D01*
X117999808Y-37000461D01*
X118000000Y-37000541D01*
X118000002Y-37000539D01*
X118024616Y-37000524D01*
X118024616Y-37000528D01*
X118024760Y-37000500D01*
X118775240Y-37000500D01*
X118775383Y-37000528D01*
X118775384Y-37000524D01*
X118799997Y-37000539D01*
X118800000Y-37000541D01*
X118800383Y-37000383D01*
X118800500Y-37000099D01*
X118800541Y-37000000D01*
X118800541Y-36975446D01*
X118800500Y-36975240D01*
X118800500Y-29624500D01*
X118817113Y-29562500D01*
X118862500Y-29517113D01*
X118924500Y-29500500D01*
X122165500Y-29500500D01*
X122227500Y-29517113D01*
X122272887Y-29562500D01*
X122289500Y-29624500D01*
X122289500Y-42375500D01*
X122272887Y-42437500D01*
X122227500Y-42482887D01*
X122165500Y-42499500D01*
X121524760Y-42499500D01*
X121524554Y-42499459D01*
X121499998Y-42499459D01*
X121499807Y-42499538D01*
X121499619Y-42499615D01*
X121499615Y-42499618D01*
X121499459Y-42499999D01*
X121499476Y-42524616D01*
X121499471Y-42524616D01*
X121499500Y-42524760D01*
X121499500Y-48975240D01*
X121499459Y-48975446D01*
X121499459Y-49000000D01*
X121499500Y-49000099D01*
X121499617Y-49000383D01*
X121499618Y-49000384D01*
X121499808Y-49000462D01*
X121500000Y-49000541D01*
X121500002Y-49000539D01*
X121524616Y-49000524D01*
X121524616Y-49000528D01*
X121524760Y-49000500D01*
X122165500Y-49000500D01*
X122227500Y-49017113D01*
X122272887Y-49062500D01*
X122289500Y-49124500D01*
X122289500Y-52095185D01*
X122287876Y-62145517D01*
X122287368Y-62148073D01*
X122287368Y-62188112D01*
X122285824Y-62207622D01*
X122285777Y-62207917D01*
X122284940Y-62212589D01*
X122270728Y-62284066D01*
X122259595Y-62316176D01*
X122252939Y-62329240D01*
X122245557Y-62341836D01*
X122218717Y-62382007D01*
X122203294Y-62400800D01*
X122190800Y-62413294D01*
X122172007Y-62428717D01*
X122131839Y-62455555D01*
X122119239Y-62462939D01*
X122104419Y-62470489D01*
X122074476Y-62481170D01*
X122035864Y-62489565D01*
X122028909Y-62490871D01*
X122013339Y-62493336D01*
X121997499Y-62495843D01*
X121978114Y-62497368D01*
X121944592Y-62497368D01*
X121933874Y-62499500D01*
X100235012Y-62499500D01*
X100172893Y-62482818D01*
X100127488Y-62437262D01*
X100111013Y-62375088D01*
X100114940Y-61193051D01*
X100115287Y-61088638D01*
X101331500Y-61088638D01*
X101334041Y-61112272D01*
X101338011Y-61149205D01*
X101389110Y-61286203D01*
X101476738Y-61403261D01*
X101593796Y-61490889D01*
X101730794Y-61541988D01*
X101730797Y-61541988D01*
X101730799Y-61541989D01*
X101791362Y-61548500D01*
X103588634Y-61548500D01*
X103588638Y-61548500D01*
X103649201Y-61541989D01*
X103649203Y-61541988D01*
X103649205Y-61541988D01*
X103731097Y-61511443D01*
X103786204Y-61490889D01*
X103903261Y-61403261D01*
X103990889Y-61286204D01*
X104039223Y-61156615D01*
X104074200Y-61106240D01*
X104129045Y-61078787D01*
X104190338Y-61080976D01*
X104243084Y-61112272D01*
X104358918Y-61228106D01*
X104552423Y-61363600D01*
X104766507Y-61463430D01*
X104979999Y-61520635D01*
X104980000Y-61520636D01*
X104980000Y-58859364D01*
X104979999Y-58859364D01*
X104766507Y-58916569D01*
X104552421Y-59016400D01*
X104358924Y-59151888D01*
X104243084Y-59267728D01*
X104190338Y-59299023D01*
X104129045Y-59301212D01*
X104074200Y-59273759D01*
X104039222Y-59223382D01*
X103990889Y-59093796D01*
X103957213Y-59048810D01*
X103903261Y-58976738D01*
X103786203Y-58889110D01*
X103649205Y-58838011D01*
X103618919Y-58834755D01*
X103588638Y-58831500D01*
X101791362Y-58831500D01*
X101764445Y-58834393D01*
X101730794Y-58838011D01*
X101593796Y-58889110D01*
X101476738Y-58976738D01*
X101389110Y-59093796D01*
X101338011Y-59230794D01*
X101334393Y-59264445D01*
X101331500Y-59291362D01*
X101331500Y-61088638D01*
X100115287Y-61088638D01*
X100125292Y-58077087D01*
X100142041Y-58015262D01*
X100187410Y-57970044D01*
X100249291Y-57953500D01*
X106276234Y-57953500D01*
X106323687Y-57962939D01*
X106363915Y-57989819D01*
X107100181Y-58726086D01*
X107127061Y-58766314D01*
X107136500Y-58813767D01*
X107136500Y-58914271D01*
X107119023Y-58977745D01*
X107071517Y-59023326D01*
X107024424Y-59048811D01*
X106846760Y-59187094D01*
X106694275Y-59352734D01*
X106600250Y-59496650D01*
X106556334Y-59537405D01*
X106498435Y-59552812D01*
X106440071Y-59539274D01*
X106394867Y-59499951D01*
X106268109Y-59318921D01*
X106101081Y-59151893D01*
X105907576Y-59016399D01*
X105693492Y-58916569D01*
X105480000Y-58859364D01*
X105480000Y-61520635D01*
X105693492Y-61463430D01*
X105907576Y-61363600D01*
X106101081Y-61228106D01*
X106268106Y-61061081D01*
X106394868Y-60880048D01*
X106440072Y-60840726D01*
X106498436Y-60827188D01*
X106556335Y-60842595D01*
X106600252Y-60883351D01*
X106694276Y-61027267D01*
X106772530Y-61112272D01*
X106846760Y-61192906D01*
X107024424Y-61331189D01*
X107222426Y-61438342D01*
X107435365Y-61511444D01*
X107657431Y-61548500D01*
X107882569Y-61548500D01*
X108104635Y-61511444D01*
X108317574Y-61438342D01*
X108515576Y-61331189D01*
X108693240Y-61192906D01*
X108845722Y-61027268D01*
X108936190Y-60888795D01*
X108980982Y-60847561D01*
X109040000Y-60832616D01*
X109099018Y-60847561D01*
X109143809Y-60888795D01*
X109159823Y-60913307D01*
X109234278Y-61027268D01*
X109386760Y-61192906D01*
X109564424Y-61331189D01*
X109762426Y-61438342D01*
X109975365Y-61511444D01*
X110197431Y-61548500D01*
X110422569Y-61548500D01*
X110644635Y-61511444D01*
X110857574Y-61438342D01*
X111055576Y-61331189D01*
X111233240Y-61192906D01*
X111385722Y-61027268D01*
X111476190Y-60888795D01*
X111520982Y-60847561D01*
X111580000Y-60832616D01*
X111639018Y-60847561D01*
X111683809Y-60888795D01*
X111699823Y-60913307D01*
X111774278Y-61027268D01*
X111926760Y-61192906D01*
X112104424Y-61331189D01*
X112302426Y-61438342D01*
X112515365Y-61511444D01*
X112737431Y-61548500D01*
X112962569Y-61548500D01*
X113184635Y-61511444D01*
X113397574Y-61438342D01*
X113595576Y-61331189D01*
X113773240Y-61192906D01*
X113925722Y-61027268D01*
X114016190Y-60888795D01*
X114060982Y-60847561D01*
X114120000Y-60832616D01*
X114179018Y-60847561D01*
X114223809Y-60888795D01*
X114239823Y-60913307D01*
X114314278Y-61027268D01*
X114466760Y-61192906D01*
X114644424Y-61331189D01*
X114842426Y-61438342D01*
X115055365Y-61511444D01*
X115277431Y-61548500D01*
X115502569Y-61548500D01*
X115724635Y-61511444D01*
X115937574Y-61438342D01*
X116135576Y-61331189D01*
X116313240Y-61192906D01*
X116465722Y-61027268D01*
X116588860Y-60838791D01*
X116679296Y-60632616D01*
X116734564Y-60414368D01*
X116753156Y-60190000D01*
X116749013Y-60140000D01*
X118294531Y-60140000D01*
X118314364Y-60366689D01*
X118373261Y-60586497D01*
X118469432Y-60792735D01*
X118599953Y-60979140D01*
X118760859Y-61140046D01*
X118947264Y-61270567D01*
X118947265Y-61270567D01*
X118947266Y-61270568D01*
X119153504Y-61366739D01*
X119373308Y-61425635D01*
X119458261Y-61433067D01*
X119543214Y-61440500D01*
X119543216Y-61440500D01*
X119656784Y-61440500D01*
X119656786Y-61440500D01*
X119724747Y-61434554D01*
X119826692Y-61425635D01*
X120046496Y-61366739D01*
X120252734Y-61270568D01*
X120439139Y-61140047D01*
X120600047Y-60979139D01*
X120730568Y-60792734D01*
X120826739Y-60586496D01*
X120885635Y-60366692D01*
X120905468Y-60140000D01*
X120885635Y-59913308D01*
X120826739Y-59693504D01*
X120730568Y-59487266D01*
X120712254Y-59461111D01*
X120600046Y-59300859D01*
X120439140Y-59139953D01*
X120252735Y-59009432D01*
X120046497Y-58913261D01*
X119826689Y-58854364D01*
X119656786Y-58839500D01*
X119656784Y-58839500D01*
X119543216Y-58839500D01*
X119543214Y-58839500D01*
X119373310Y-58854364D01*
X119153502Y-58913261D01*
X118947264Y-59009432D01*
X118760859Y-59139953D01*
X118599953Y-59300859D01*
X118469432Y-59487264D01*
X118373261Y-59693502D01*
X118314364Y-59913310D01*
X118294531Y-60140000D01*
X116749013Y-60140000D01*
X116734564Y-59965632D01*
X116679296Y-59747384D01*
X116588860Y-59541209D01*
X116465722Y-59352732D01*
X116313240Y-59187094D01*
X116135576Y-59048811D01*
X115937574Y-58941658D01*
X115937573Y-58941657D01*
X115937572Y-58941657D01*
X115724636Y-58868556D01*
X115502569Y-58831500D01*
X115277431Y-58831500D01*
X115055363Y-58868556D01*
X114842427Y-58941657D01*
X114644424Y-59048811D01*
X114466760Y-59187094D01*
X114314279Y-59352730D01*
X114223809Y-59491205D01*
X114179017Y-59532438D01*
X114120000Y-59547383D01*
X114060983Y-59532438D01*
X114016191Y-59491205D01*
X113925723Y-59352734D01*
X113925722Y-59352732D01*
X113773240Y-59187094D01*
X113595576Y-59048811D01*
X113595574Y-59048810D01*
X113595573Y-59048809D01*
X113573482Y-59036854D01*
X113525977Y-58991273D01*
X113508500Y-58927800D01*
X113508500Y-43591704D01*
X113510866Y-43570269D01*
X113508561Y-43496913D01*
X113508500Y-43493018D01*
X113508500Y-43463884D01*
X113507932Y-43459389D01*
X113507015Y-43447738D01*
X113505562Y-43401483D01*
X113499534Y-43380735D01*
X113495591Y-43361698D01*
X113492882Y-43340250D01*
X113475830Y-43297183D01*
X113472062Y-43286175D01*
X113459145Y-43241714D01*
X113448148Y-43223121D01*
X113439587Y-43205644D01*
X113431635Y-43185558D01*
X113404422Y-43148103D01*
X113398008Y-43138338D01*
X113374453Y-43098508D01*
X113374452Y-43098507D01*
X113359172Y-43083227D01*
X113346539Y-43068435D01*
X113333841Y-43050957D01*
X113298165Y-43021443D01*
X113289526Y-43013581D01*
X111101903Y-40825957D01*
X111088419Y-40809126D01*
X111034910Y-40758878D01*
X111032113Y-40756167D01*
X111011517Y-40735571D01*
X111007933Y-40732791D01*
X110999063Y-40725215D01*
X110965318Y-40693527D01*
X110946385Y-40683118D01*
X110930126Y-40672438D01*
X110913053Y-40659195D01*
X110870562Y-40640807D01*
X110860085Y-40635674D01*
X110837192Y-40623089D01*
X110819519Y-40613373D01*
X110798598Y-40608002D01*
X110780189Y-40601699D01*
X110760360Y-40593118D01*
X110714640Y-40585877D01*
X110703201Y-40583508D01*
X110658375Y-40571999D01*
X110658373Y-40571999D01*
X110636766Y-40571999D01*
X110617368Y-40570472D01*
X110608788Y-40569113D01*
X110596034Y-40567093D01*
X110596033Y-40567093D01*
X110549949Y-40571449D01*
X110538282Y-40571999D01*
X102453267Y-40571999D01*
X102396972Y-40558484D01*
X102352949Y-40520884D01*
X102330794Y-40467397D01*
X102335336Y-40409681D01*
X102365586Y-40360318D01*
X102750723Y-39975181D01*
X104148816Y-38577086D01*
X104165097Y-38564044D01*
X104167014Y-38562002D01*
X104167018Y-38562000D01*
X104213706Y-38512279D01*
X104216323Y-38509579D01*
X104236134Y-38489770D01*
X104238672Y-38486497D01*
X104246241Y-38477634D01*
X104276586Y-38445321D01*
X104286422Y-38427427D01*
X104297102Y-38411168D01*
X104309613Y-38395041D01*
X104327211Y-38354372D01*
X104332341Y-38343900D01*
X104353695Y-38305060D01*
X104358772Y-38285282D01*
X104365072Y-38266882D01*
X104373181Y-38248145D01*
X104380112Y-38204376D01*
X104382478Y-38192953D01*
X104393500Y-38150030D01*
X104393500Y-38129616D01*
X104395027Y-38110217D01*
X104396645Y-38100000D01*
X104398220Y-38090057D01*
X104394050Y-38045943D01*
X104393500Y-38034274D01*
X104393500Y-35073633D01*
X104395789Y-35052890D01*
X104395701Y-35050094D01*
X104395702Y-35050091D01*
X104393560Y-34981968D01*
X104393500Y-34978074D01*
X104393500Y-34950147D01*
X104393500Y-34950144D01*
X104392982Y-34946047D01*
X104392065Y-34934398D01*
X104391921Y-34929819D01*
X104390674Y-34890111D01*
X104384974Y-34870494D01*
X104381033Y-34851464D01*
X104378474Y-34831203D01*
X104362163Y-34790007D01*
X104358381Y-34778960D01*
X104348878Y-34746253D01*
X104346018Y-34736407D01*
X104335622Y-34718829D01*
X104327069Y-34701371D01*
X104319552Y-34682383D01*
X104293503Y-34646530D01*
X104287099Y-34636780D01*
X104264542Y-34598638D01*
X104250107Y-34584203D01*
X104237469Y-34569406D01*
X104225472Y-34552893D01*
X104191324Y-34524643D01*
X104182685Y-34516781D01*
X103537091Y-33871187D01*
X103524044Y-33854901D01*
X103472332Y-33806341D01*
X103469564Y-33803659D01*
X103449770Y-33783865D01*
X103449769Y-33783864D01*
X103449768Y-33783863D01*
X103446495Y-33781324D01*
X103437622Y-33773745D01*
X103405321Y-33743414D01*
X103387433Y-33733580D01*
X103371169Y-33722896D01*
X103355040Y-33710385D01*
X103314377Y-33692789D01*
X103303883Y-33687648D01*
X103265062Y-33666305D01*
X103253386Y-33663307D01*
X103245284Y-33661227D01*
X103226879Y-33654926D01*
X103208145Y-33646819D01*
X103208143Y-33646818D01*
X103208142Y-33646818D01*
X103164383Y-33639887D01*
X103152943Y-33637518D01*
X103110031Y-33626500D01*
X103110030Y-33626500D01*
X103089616Y-33626500D01*
X103070217Y-33624973D01*
X103050058Y-33621780D01*
X103050057Y-33621780D01*
X103017318Y-33624874D01*
X103005943Y-33625950D01*
X102994274Y-33626500D01*
X93638123Y-33626500D01*
X93581209Y-33612667D01*
X93536993Y-33574255D01*
X93515341Y-33519834D01*
X93521081Y-33461545D01*
X93574162Y-33309850D01*
X93593299Y-33140000D01*
X93574162Y-32970150D01*
X93517709Y-32808817D01*
X93426771Y-32664091D01*
X93305909Y-32543229D01*
X93161183Y-32452291D01*
X92999850Y-32395838D01*
X92999848Y-32395837D01*
X92999846Y-32395837D01*
X92830000Y-32376700D01*
X92660153Y-32395837D01*
X92660150Y-32395837D01*
X92660150Y-32395838D01*
X92498817Y-32452291D01*
X92498815Y-32452291D01*
X92498815Y-32452292D01*
X92442792Y-32487494D01*
X92376820Y-32506500D01*
X81158242Y-32506500D01*
X81137500Y-32504210D01*
X81134700Y-32504298D01*
X81066592Y-32506439D01*
X81062696Y-32506500D01*
X81034753Y-32506500D01*
X81030651Y-32507018D01*
X81019012Y-32507934D01*
X80974719Y-32509326D01*
X80955116Y-32515022D01*
X80936064Y-32518967D01*
X80915808Y-32521526D01*
X80874606Y-32537838D01*
X80863560Y-32541621D01*
X80821011Y-32553983D01*
X80803440Y-32564374D01*
X80785979Y-32572929D01*
X80766992Y-32580447D01*
X80731151Y-32606487D01*
X80721389Y-32612899D01*
X80683248Y-32635455D01*
X80668805Y-32649898D01*
X80654018Y-32662527D01*
X80637501Y-32674528D01*
X80609261Y-32708663D01*
X80601401Y-32717301D01*
X75531679Y-37787023D01*
X75515395Y-37800071D01*
X75466838Y-37851778D01*
X75464132Y-37854571D01*
X75444360Y-37874343D01*
X75441820Y-37877618D01*
X75434251Y-37886479D01*
X75403913Y-37918787D01*
X75394081Y-37936673D01*
X75383400Y-37952933D01*
X75370884Y-37969069D01*
X75353285Y-38009738D01*
X75348147Y-38020227D01*
X75326802Y-38059053D01*
X75321725Y-38078828D01*
X75315425Y-38097229D01*
X75314035Y-38100442D01*
X75307317Y-38115966D01*
X75300387Y-38159720D01*
X75298019Y-38171156D01*
X75286999Y-38214080D01*
X75286999Y-38234494D01*
X75285472Y-38253893D01*
X75282279Y-38274051D01*
X75286449Y-38318167D01*
X75286999Y-38329836D01*
X75286999Y-45996866D01*
X75284709Y-46017607D01*
X75286938Y-46088516D01*
X75286999Y-46092412D01*
X75286999Y-46120354D01*
X75287517Y-46124455D01*
X75288433Y-46136096D01*
X75289825Y-46180387D01*
X75295521Y-46199991D01*
X75299466Y-46219043D01*
X75302024Y-46239297D01*
X75318337Y-46280500D01*
X75322120Y-46291548D01*
X75334481Y-46334092D01*
X75344873Y-46351665D01*
X75353430Y-46369132D01*
X75360947Y-46388117D01*
X75386990Y-46423962D01*
X75393404Y-46433726D01*
X75415957Y-46471861D01*
X75430389Y-46486293D01*
X75443025Y-46501088D01*
X75455025Y-46517604D01*
X75455026Y-46517605D01*
X75455027Y-46517606D01*
X75478109Y-46536701D01*
X75489166Y-46545848D01*
X75497807Y-46553711D01*
X77155181Y-48211086D01*
X77182061Y-48251314D01*
X77191500Y-48298767D01*
X77191500Y-49117268D01*
X77197986Y-49188649D01*
X77249171Y-49352910D01*
X77338184Y-49500156D01*
X77459843Y-49621815D01*
X77459845Y-49621816D01*
X77607087Y-49710827D01*
X77771351Y-49762013D01*
X77842735Y-49768500D01*
X78357264Y-49768499D01*
X78357268Y-49768499D01*
X78428649Y-49762013D01*
X78592910Y-49710828D01*
X78592910Y-49710827D01*
X78592913Y-49710827D01*
X78740155Y-49621816D01*
X78861816Y-49500155D01*
X78950827Y-49352913D01*
X79002013Y-49188649D01*
X79008500Y-49117265D01*
X79008499Y-47402736D01*
X79005538Y-47370150D01*
X79002013Y-47331350D01*
X78950828Y-47167089D01*
X78928499Y-47130153D01*
X78888564Y-47064091D01*
X78861815Y-47019843D01*
X78740156Y-46898184D01*
X78617587Y-46824089D01*
X78592913Y-46809173D01*
X78428649Y-46757987D01*
X78428646Y-46757986D01*
X78357266Y-46751500D01*
X77842731Y-46751500D01*
X77771352Y-46757986D01*
X77631374Y-46801604D01*
X77564809Y-46803615D01*
X77506804Y-46770899D01*
X76590318Y-45854413D01*
X76563438Y-45814185D01*
X76553999Y-45766732D01*
X76553999Y-44516042D01*
X76567514Y-44459747D01*
X76605114Y-44415724D01*
X76658601Y-44393569D01*
X76716317Y-44398111D01*
X76765680Y-44428361D01*
X77318196Y-44980877D01*
X77329977Y-44994509D01*
X77344531Y-45014058D01*
X77382947Y-45046293D01*
X77390911Y-45053592D01*
X77394900Y-45057582D01*
X77419483Y-45077019D01*
X77422267Y-45079286D01*
X77480360Y-45128032D01*
X77480363Y-45128033D01*
X77481261Y-45128787D01*
X77498034Y-45139472D01*
X77499091Y-45139965D01*
X77499094Y-45139967D01*
X77567852Y-45172028D01*
X77571034Y-45173569D01*
X77638812Y-45207609D01*
X77638815Y-45207609D01*
X77639859Y-45208134D01*
X77658642Y-45214664D01*
X77659791Y-45214901D01*
X77659793Y-45214902D01*
X77734116Y-45230247D01*
X77737549Y-45231009D01*
X77811344Y-45248500D01*
X77812483Y-45248770D01*
X77832269Y-45250791D01*
X77833437Y-45250757D01*
X77833442Y-45250758D01*
X77909257Y-45248552D01*
X77912864Y-45248500D01*
X80294457Y-45248500D01*
X80341910Y-45257939D01*
X80382138Y-45284819D01*
X83745181Y-48647862D01*
X83772061Y-48688090D01*
X83781500Y-48735543D01*
X83781500Y-53695706D01*
X83780191Y-53713676D01*
X83776659Y-53737789D01*
X83781028Y-53787726D01*
X83781500Y-53798533D01*
X83781500Y-53804181D01*
X83785139Y-53835322D01*
X83785505Y-53838905D01*
X83792214Y-53915582D01*
X83796523Y-53935017D01*
X83796920Y-53936109D01*
X83796921Y-53936113D01*
X83822855Y-54007367D01*
X83824037Y-54010771D01*
X83848251Y-54083843D01*
X83856922Y-54101754D01*
X83899245Y-54166103D01*
X83901178Y-54169138D01*
X83940970Y-54233651D01*
X83940972Y-54233653D01*
X83941589Y-54234653D01*
X83954153Y-54250075D01*
X83954997Y-54250871D01*
X83954999Y-54250874D01*
X84008139Y-54301009D01*
X84010173Y-54302928D01*
X84012760Y-54305441D01*
X85612138Y-55904819D01*
X85642388Y-55954182D01*
X85646930Y-56011898D01*
X85624775Y-56065385D01*
X85580752Y-56102985D01*
X85524457Y-56116500D01*
X84253180Y-56116500D01*
X84187208Y-56097494D01*
X84131183Y-56062291D01*
X83969850Y-56005838D01*
X83969848Y-56005837D01*
X83969846Y-56005837D01*
X83800000Y-55986700D01*
X83630153Y-56005837D01*
X83630150Y-56005837D01*
X83630150Y-56005838D01*
X83468817Y-56062291D01*
X83468815Y-56062291D01*
X83468815Y-56062292D01*
X83324089Y-56153230D01*
X83203230Y-56274089D01*
X83112292Y-56418815D01*
X83055837Y-56580153D01*
X83036700Y-56749999D01*
X83055837Y-56919846D01*
X83055837Y-56919848D01*
X83055838Y-56919850D01*
X83112291Y-57081183D01*
X83203229Y-57225909D01*
X83324091Y-57346771D01*
X83468817Y-57437709D01*
X83630150Y-57494162D01*
X83800000Y-57513299D01*
X83969850Y-57494162D01*
X84131183Y-57437709D01*
X84187208Y-57402505D01*
X84253180Y-57383500D01*
X84303042Y-57383500D01*
X84360983Y-57397870D01*
X84405495Y-57437648D01*
X84420115Y-57477049D01*
X84421224Y-57476662D01*
X84425837Y-57489847D01*
X84425838Y-57489850D01*
X84482291Y-57651183D01*
X84573229Y-57795909D01*
X84694091Y-57916771D01*
X84838817Y-58007709D01*
X85000150Y-58064162D01*
X85170000Y-58083299D01*
X85339850Y-58064162D01*
X85501183Y-58007709D01*
X85557208Y-57972505D01*
X85623180Y-57953500D01*
X86337459Y-57953500D01*
X86399173Y-57969948D01*
X86444515Y-58014930D01*
X86461455Y-58076511D01*
X86495729Y-62374511D01*
X86479448Y-62436928D01*
X86434018Y-62482722D01*
X86371733Y-62499500D01*
X81119644Y-62499500D01*
X81057281Y-62482677D01*
X81011840Y-62436771D01*
X80995650Y-62374241D01*
X81013106Y-62312052D01*
X81046168Y-62279982D01*
X81044647Y-62278210D01*
X81208531Y-62137520D01*
X81333021Y-61976692D01*
X81422589Y-61794094D01*
X81448246Y-61695000D01*
X78406634Y-61695000D01*
X78406932Y-61696948D01*
X78477564Y-61887663D01*
X78585145Y-62060263D01*
X78725267Y-62207670D01*
X78820171Y-62273726D01*
X78860661Y-62320891D01*
X78873174Y-62381781D01*
X78854565Y-62441092D01*
X78809510Y-62483919D01*
X78749333Y-62499500D01*
X76689644Y-62499500D01*
X76627281Y-62482677D01*
X76581840Y-62436771D01*
X76565650Y-62374241D01*
X76583106Y-62312052D01*
X76616168Y-62279982D01*
X76614647Y-62278210D01*
X76778531Y-62137520D01*
X76903021Y-61976692D01*
X76992589Y-61794094D01*
X77018246Y-61695000D01*
X74476634Y-61695000D01*
X74476932Y-61696948D01*
X74547564Y-61887663D01*
X74655145Y-62060263D01*
X74795267Y-62207670D01*
X74890171Y-62273726D01*
X74930661Y-62320891D01*
X74943174Y-62381781D01*
X74924565Y-62441092D01*
X74879510Y-62483919D01*
X74819333Y-62499500D01*
X72309761Y-62499500D01*
X72290106Y-62497932D01*
X72289807Y-62497884D01*
X72285270Y-62497069D01*
X72213803Y-62482853D01*
X72181707Y-62471724D01*
X72168638Y-62465066D01*
X72156035Y-62457680D01*
X72115865Y-62430839D01*
X72097075Y-62415418D01*
X72084580Y-62402923D01*
X72069162Y-62384137D01*
X72042312Y-62343953D01*
X72034938Y-62331370D01*
X72028274Y-62318291D01*
X72017145Y-62286196D01*
X72002920Y-62214684D01*
X72002032Y-62209673D01*
X72001983Y-62209359D01*
X72000500Y-62190240D01*
X72000500Y-61195000D01*
X74481753Y-61195000D01*
X75500000Y-61195000D01*
X75500000Y-60445000D01*
X76000000Y-60445000D01*
X76000000Y-61195000D01*
X77023366Y-61195000D01*
X77023067Y-61193051D01*
X76952435Y-61002336D01*
X76844854Y-60829736D01*
X76704733Y-60682330D01*
X76537805Y-60566144D01*
X76350907Y-60485940D01*
X76151689Y-60445000D01*
X76000000Y-60445000D01*
X75500000Y-60445000D01*
X75399290Y-60445000D01*
X75247660Y-60460419D01*
X75053610Y-60521303D01*
X74875785Y-60620003D01*
X74721468Y-60752479D01*
X74596978Y-60913307D01*
X74507410Y-61095905D01*
X74481753Y-61194999D01*
X74481753Y-61195000D01*
X72000500Y-61195000D01*
X72000500Y-53055000D01*
X74476634Y-53055000D01*
X74476932Y-53056948D01*
X74547564Y-53247663D01*
X74655145Y-53420263D01*
X74795266Y-53567669D01*
X74962194Y-53683855D01*
X75149092Y-53764059D01*
X75348311Y-53805000D01*
X75500000Y-53805000D01*
X75500000Y-53055000D01*
X76000000Y-53055000D01*
X76000000Y-53805000D01*
X76100710Y-53805000D01*
X76252339Y-53789580D01*
X76446389Y-53728696D01*
X76624214Y-53629996D01*
X76778531Y-53497520D01*
X76903021Y-53336692D01*
X76992589Y-53154094D01*
X77018246Y-53055000D01*
X78406634Y-53055000D01*
X78406932Y-53056948D01*
X78477564Y-53247663D01*
X78585145Y-53420263D01*
X78725266Y-53567669D01*
X78892193Y-53683854D01*
X78900073Y-53687236D01*
X78945175Y-53720317D01*
X78971150Y-53769853D01*
X78972715Y-53825764D01*
X78949551Y-53876674D01*
X78897302Y-53944766D01*
X78839312Y-54084764D01*
X78819533Y-54234999D01*
X78839312Y-54385235D01*
X78869501Y-54458117D01*
X78897302Y-54525233D01*
X78942769Y-54584486D01*
X78967777Y-54647626D01*
X78955776Y-54714470D01*
X78910365Y-54764966D01*
X78792719Y-54838888D01*
X78663890Y-54967717D01*
X78566957Y-55121984D01*
X78506782Y-55293955D01*
X78486383Y-55474999D01*
X78506782Y-55656044D01*
X78506782Y-55656046D01*
X78506783Y-55656047D01*
X78566957Y-55828015D01*
X78646233Y-55954182D01*
X78647494Y-55956188D01*
X78666500Y-56022160D01*
X78666500Y-58277840D01*
X78647494Y-58343810D01*
X78624433Y-58380513D01*
X78566957Y-58471984D01*
X78506782Y-58643955D01*
X78486383Y-58824999D01*
X78506782Y-59006044D01*
X78506782Y-59006046D01*
X78506783Y-59006047D01*
X78566957Y-59178015D01*
X78663889Y-59332281D01*
X78792719Y-59461111D01*
X78884480Y-59518768D01*
X78929889Y-59569264D01*
X78941891Y-59636106D01*
X78916884Y-59699246D01*
X78897302Y-59724766D01*
X78839312Y-59864764D01*
X78819533Y-60015000D01*
X78839312Y-60165235D01*
X78897302Y-60305233D01*
X78951799Y-60376256D01*
X78974302Y-60424095D01*
X78974832Y-60476959D01*
X78953293Y-60525240D01*
X78913601Y-60560161D01*
X78805783Y-60620004D01*
X78651468Y-60752479D01*
X78526978Y-60913307D01*
X78437410Y-61095905D01*
X78411753Y-61194999D01*
X78411753Y-61195000D01*
X81453366Y-61195000D01*
X81453067Y-61193051D01*
X81382435Y-61002336D01*
X81274854Y-60829736D01*
X81134733Y-60682330D01*
X80967805Y-60566144D01*
X80780907Y-60485940D01*
X80581689Y-60445000D01*
X80030384Y-60445000D01*
X79971931Y-60430358D01*
X79927282Y-60389891D01*
X79906981Y-60333154D01*
X79915823Y-60273547D01*
X79960687Y-60165235D01*
X79980466Y-60015000D01*
X79960687Y-59864764D01*
X79902698Y-59724768D01*
X79902698Y-59724767D01*
X79812995Y-59607865D01*
X79789257Y-59553914D01*
X79793112Y-59495094D01*
X79823692Y-59444700D01*
X79823691Y-59444700D01*
X79936111Y-59332281D01*
X80033043Y-59178015D01*
X80093217Y-59006047D01*
X80113616Y-58825000D01*
X80093217Y-58643953D01*
X80033043Y-58471985D01*
X79952505Y-58343810D01*
X79933500Y-58277840D01*
X79933500Y-56022160D01*
X79952506Y-55956188D01*
X80033043Y-55828015D01*
X80093217Y-55656047D01*
X80113616Y-55475000D01*
X80093217Y-55293953D01*
X80033043Y-55121985D01*
X79936111Y-54967719D01*
X79807281Y-54838889D01*
X79807280Y-54838888D01*
X79799186Y-54830794D01*
X79765807Y-54769951D01*
X79770346Y-54700702D01*
X79801056Y-54658819D01*
X79800513Y-54658402D01*
X79810451Y-54645451D01*
X79902698Y-54525233D01*
X79960687Y-54385236D01*
X79980466Y-54235000D01*
X79980288Y-54233651D01*
X79960687Y-54084764D01*
X79915823Y-53976453D01*
X79906981Y-53916846D01*
X79927282Y-53860109D01*
X79971931Y-53819642D01*
X80030384Y-53805000D01*
X80530710Y-53805000D01*
X80682339Y-53789580D01*
X80876389Y-53728696D01*
X81054214Y-53629996D01*
X81208531Y-53497520D01*
X81333021Y-53336692D01*
X81422589Y-53154094D01*
X81448246Y-53055000D01*
X78406634Y-53055000D01*
X77018246Y-53055000D01*
X76000000Y-53055000D01*
X75500000Y-53055000D01*
X74476634Y-53055000D01*
X72000500Y-53055000D01*
X72000500Y-52555000D01*
X74481753Y-52555000D01*
X75500000Y-52555000D01*
X75500000Y-51805000D01*
X76000000Y-51805000D01*
X76000000Y-52555000D01*
X77023366Y-52555000D01*
X78411753Y-52555000D01*
X79680000Y-52555000D01*
X79680000Y-51805000D01*
X80180000Y-51805000D01*
X80180000Y-52555000D01*
X81453366Y-52555000D01*
X81453067Y-52553051D01*
X81382435Y-52362336D01*
X81274854Y-52189736D01*
X81134733Y-52042330D01*
X80967805Y-51926144D01*
X80780907Y-51845940D01*
X80581689Y-51805000D01*
X80180000Y-51805000D01*
X79680000Y-51805000D01*
X79329290Y-51805000D01*
X79177660Y-51820419D01*
X78983610Y-51881303D01*
X78805785Y-51980003D01*
X78651468Y-52112479D01*
X78526978Y-52273307D01*
X78437410Y-52455905D01*
X78411753Y-52554999D01*
X78411753Y-52555000D01*
X77023366Y-52555000D01*
X77023067Y-52553051D01*
X76952435Y-52362336D01*
X76844854Y-52189736D01*
X76704733Y-52042330D01*
X76537805Y-51926144D01*
X76350907Y-51845940D01*
X76151689Y-51805000D01*
X76000000Y-51805000D01*
X75500000Y-51805000D01*
X75399290Y-51805000D01*
X75247660Y-51820419D01*
X75053610Y-51881303D01*
X74875785Y-51980003D01*
X74721468Y-52112479D01*
X74596978Y-52273307D01*
X74507410Y-52455905D01*
X74481753Y-52554999D01*
X74481753Y-52555000D01*
X72000500Y-52555000D01*
X72000500Y-48510000D01*
X73000001Y-48510000D01*
X73000001Y-49116579D01*
X73006408Y-49187104D01*
X73056981Y-49349397D01*
X73144925Y-49494875D01*
X73265124Y-49615074D01*
X73410603Y-49703019D01*
X73572893Y-49753590D01*
X73643424Y-49760000D01*
X73650000Y-49760000D01*
X73650000Y-48510000D01*
X74150000Y-48510000D01*
X74150000Y-49759999D01*
X74156579Y-49759999D01*
X74227104Y-49753591D01*
X74389397Y-49703018D01*
X74534875Y-49615074D01*
X74655074Y-49494875D01*
X74743019Y-49349396D01*
X74793590Y-49187106D01*
X74800000Y-49116576D01*
X74800000Y-48510000D01*
X74150000Y-48510000D01*
X73650000Y-48510000D01*
X73000001Y-48510000D01*
X72000500Y-48510000D01*
X72000500Y-48010000D01*
X73000000Y-48010000D01*
X73650000Y-48010000D01*
X73650000Y-46760001D01*
X73643421Y-46760001D01*
X73572895Y-46766408D01*
X73410602Y-46816981D01*
X73265124Y-46904925D01*
X73144925Y-47025124D01*
X73056980Y-47170603D01*
X73006409Y-47332893D01*
X73000000Y-47403424D01*
X73000000Y-48010000D01*
X72000500Y-48010000D01*
X72000500Y-46760000D01*
X74150000Y-46760000D01*
X74150000Y-48010000D01*
X74799999Y-48010000D01*
X74799999Y-47403421D01*
X74793591Y-47332895D01*
X74743018Y-47170602D01*
X74655074Y-47025124D01*
X74534875Y-46904925D01*
X74389396Y-46816980D01*
X74227106Y-46766409D01*
X74156576Y-46760000D01*
X74150000Y-46760000D01*
X72000500Y-46760000D01*
X72000500Y-42730000D01*
X73000001Y-42730000D01*
X73000001Y-43336579D01*
X73006408Y-43407104D01*
X73056981Y-43569397D01*
X73144925Y-43714875D01*
X73265124Y-43835074D01*
X73410603Y-43923019D01*
X73572893Y-43973590D01*
X73643424Y-43980000D01*
X73650000Y-43980000D01*
X73650000Y-42730000D01*
X74150000Y-42730000D01*
X74150000Y-43979999D01*
X74156579Y-43979999D01*
X74227104Y-43973591D01*
X74389397Y-43923018D01*
X74534875Y-43835074D01*
X74655074Y-43714875D01*
X74743019Y-43569396D01*
X74793590Y-43407106D01*
X74800000Y-43336576D01*
X74800000Y-42730000D01*
X74150000Y-42730000D01*
X73650000Y-42730000D01*
X73000001Y-42730000D01*
X72000500Y-42730000D01*
X72000500Y-42230000D01*
X73000000Y-42230000D01*
X73650000Y-42230000D01*
X73650000Y-40980001D01*
X73643421Y-40980001D01*
X73572895Y-40986408D01*
X73410602Y-41036981D01*
X73265124Y-41124925D01*
X73144925Y-41245124D01*
X73056980Y-41390603D01*
X73006409Y-41552893D01*
X73000000Y-41623424D01*
X73000000Y-42230000D01*
X72000500Y-42230000D01*
X72000500Y-40980000D01*
X74150000Y-40980000D01*
X74150000Y-42230000D01*
X74799999Y-42230000D01*
X74799999Y-41623421D01*
X74793591Y-41552895D01*
X74743018Y-41390602D01*
X74655074Y-41245124D01*
X74534875Y-41124925D01*
X74389396Y-41036980D01*
X74227106Y-40986409D01*
X74156576Y-40980000D01*
X74150000Y-40980000D01*
X72000500Y-40980000D01*
X72000500Y-38100000D01*
X73000001Y-38100000D01*
X73000001Y-38706579D01*
X73006408Y-38777104D01*
X73056981Y-38939397D01*
X73144925Y-39084875D01*
X73265124Y-39205074D01*
X73410603Y-39293019D01*
X73572893Y-39343590D01*
X73643424Y-39350000D01*
X73650000Y-39350000D01*
X73650000Y-38100000D01*
X74150000Y-38100000D01*
X74150000Y-39349999D01*
X74156579Y-39349999D01*
X74227104Y-39343591D01*
X74389397Y-39293018D01*
X74534875Y-39205074D01*
X74655074Y-39084875D01*
X74743019Y-38939396D01*
X74793590Y-38777106D01*
X74800000Y-38706576D01*
X74800000Y-38100000D01*
X74150000Y-38100000D01*
X73650000Y-38100000D01*
X73000001Y-38100000D01*
X72000500Y-38100000D01*
X72000500Y-37600000D01*
X73000000Y-37600000D01*
X73650000Y-37600000D01*
X73650000Y-36350001D01*
X73643421Y-36350001D01*
X73572895Y-36356408D01*
X73410602Y-36406981D01*
X73265124Y-36494925D01*
X73144925Y-36615124D01*
X73056980Y-36760603D01*
X73006409Y-36922893D01*
X73000000Y-36993424D01*
X73000000Y-37600000D01*
X72000500Y-37600000D01*
X72000500Y-36350000D01*
X74150000Y-36350000D01*
X74150000Y-37600000D01*
X74799999Y-37600000D01*
X74799999Y-36993421D01*
X74793591Y-36922895D01*
X74743018Y-36760602D01*
X74655074Y-36615124D01*
X74534875Y-36494925D01*
X74389396Y-36406980D01*
X74227106Y-36356409D01*
X74156576Y-36350000D01*
X74150000Y-36350000D01*
X72000500Y-36350000D01*
X72000500Y-31999999D01*
X73094531Y-31999999D01*
X73114364Y-32226689D01*
X73173261Y-32446497D01*
X73269432Y-32652735D01*
X73399953Y-32839140D01*
X73560859Y-33000046D01*
X73747264Y-33130567D01*
X73747265Y-33130567D01*
X73747266Y-33130568D01*
X73953504Y-33226739D01*
X74173308Y-33285635D01*
X74258261Y-33293067D01*
X74343214Y-33300500D01*
X74343216Y-33300500D01*
X74456784Y-33300500D01*
X74456786Y-33300500D01*
X74524747Y-33294553D01*
X74626692Y-33285635D01*
X74846496Y-33226739D01*
X75052734Y-33130568D01*
X75239139Y-33000047D01*
X75400047Y-32839139D01*
X75530568Y-32652734D01*
X75626739Y-32446496D01*
X75685635Y-32226692D01*
X75705468Y-32000000D01*
X75705468Y-31999999D01*
X98094531Y-31999999D01*
X98114364Y-32226689D01*
X98173261Y-32446497D01*
X98269432Y-32652735D01*
X98399953Y-32839140D01*
X98560859Y-33000046D01*
X98747264Y-33130567D01*
X98747265Y-33130567D01*
X98747266Y-33130568D01*
X98953504Y-33226739D01*
X99173308Y-33285635D01*
X99258261Y-33293067D01*
X99343214Y-33300500D01*
X99343216Y-33300500D01*
X99456784Y-33300500D01*
X99456786Y-33300500D01*
X99524747Y-33294553D01*
X99626692Y-33285635D01*
X99846496Y-33226739D01*
X100052734Y-33130568D01*
X100239139Y-33000047D01*
X100400047Y-32839139D01*
X100530568Y-32652734D01*
X100626739Y-32446496D01*
X100685635Y-32226692D01*
X100705468Y-32000000D01*
X100685635Y-31773308D01*
X100626739Y-31553504D01*
X100530568Y-31347266D01*
X100400047Y-31160861D01*
X100400046Y-31160859D01*
X100239140Y-30999953D01*
X100052735Y-30869432D01*
X99846497Y-30773261D01*
X99626689Y-30714364D01*
X99456786Y-30699500D01*
X99456784Y-30699500D01*
X99343216Y-30699500D01*
X99343214Y-30699500D01*
X99173310Y-30714364D01*
X98953502Y-30773261D01*
X98747264Y-30869432D01*
X98560859Y-30999953D01*
X98399953Y-31160859D01*
X98269432Y-31347264D01*
X98173261Y-31553502D01*
X98114364Y-31773310D01*
X98094531Y-31999999D01*
X75705468Y-31999999D01*
X75685635Y-31773308D01*
X75626739Y-31553504D01*
X75530568Y-31347266D01*
X75400047Y-31160861D01*
X75400046Y-31160859D01*
X75239140Y-30999953D01*
X75052735Y-30869432D01*
X74846497Y-30773261D01*
X74626689Y-30714364D01*
X74456786Y-30699500D01*
X74456784Y-30699500D01*
X74343216Y-30699500D01*
X74343214Y-30699500D01*
X74173310Y-30714364D01*
X73953502Y-30773261D01*
X73747264Y-30869432D01*
X73560859Y-30999953D01*
X73399953Y-31160859D01*
X73269432Y-31347264D01*
X73173261Y-31553502D01*
X73114364Y-31773310D01*
X73094531Y-31999999D01*
X72000500Y-31999999D01*
X72000500Y-29908124D01*
X72001559Y-29891953D01*
X72002765Y-29882789D01*
X72003199Y-29879798D01*
X72015483Y-29802241D01*
X72023389Y-29774205D01*
X72033260Y-29750375D01*
X72037315Y-29741579D01*
X72061805Y-29693515D01*
X72073901Y-29674343D01*
X72091943Y-29650831D01*
X72102608Y-29638670D01*
X72138670Y-29602608D01*
X72150831Y-29591943D01*
X72174343Y-29573901D01*
X72193515Y-29561805D01*
X72241579Y-29537315D01*
X72250375Y-29533260D01*
X72274205Y-29523389D01*
X72302241Y-29515483D01*
X72379798Y-29503199D01*
X72382789Y-29502765D01*
X72391959Y-29501558D01*
X72408124Y-29500500D01*
X117875500Y-29500500D01*
X117937500Y-29517113D01*
G37*
G04 #@! TD.AperFunction*
G04 #@! TA.AperFunction,Conductor*
G36*
X85943687Y-34342939D02*
G01*
X85983915Y-34369819D01*
X86262910Y-34648814D01*
X86275959Y-34665101D01*
X86277999Y-34667016D01*
X86278000Y-34667018D01*
X86327701Y-34713690D01*
X86330465Y-34716369D01*
X86350231Y-34736135D01*
X86353497Y-34738668D01*
X86362375Y-34746250D01*
X86394679Y-34776586D01*
X86412570Y-34786421D01*
X86428823Y-34797097D01*
X86440816Y-34806399D01*
X86444961Y-34809615D01*
X86485618Y-34827208D01*
X86496102Y-34832343D01*
X86534940Y-34853695D01*
X86554714Y-34858772D01*
X86573119Y-34865073D01*
X86591855Y-34873181D01*
X86635630Y-34880113D01*
X86647041Y-34882477D01*
X86689970Y-34893500D01*
X86710384Y-34893500D01*
X86729783Y-34895027D01*
X86749943Y-34898220D01*
X86794056Y-34894050D01*
X86805726Y-34893500D01*
X102716234Y-34893500D01*
X102763687Y-34902939D01*
X102803915Y-34929819D01*
X103090181Y-35216086D01*
X103117061Y-35256314D01*
X103126500Y-35303767D01*
X103126500Y-37756233D01*
X103117061Y-37803686D01*
X103090181Y-37843914D01*
X101310181Y-39623913D01*
X101260818Y-39654163D01*
X101203102Y-39658705D01*
X101149615Y-39636550D01*
X101112015Y-39592527D01*
X101098500Y-39536232D01*
X101098500Y-39366390D01*
X101100866Y-39344955D01*
X101099479Y-39300828D01*
X101098561Y-39271599D01*
X101098500Y-39267704D01*
X101098500Y-39238570D01*
X101097932Y-39234075D01*
X101097015Y-39222424D01*
X101096470Y-39205074D01*
X101095562Y-39176169D01*
X101089534Y-39155421D01*
X101085591Y-39136384D01*
X101082882Y-39114936D01*
X101065830Y-39071869D01*
X101062062Y-39060861D01*
X101049145Y-39016400D01*
X101049144Y-39016398D01*
X101042719Y-39005534D01*
X101025472Y-38944824D01*
X101040343Y-38883488D01*
X101083474Y-38837418D01*
X101195909Y-38766771D01*
X101316771Y-38645909D01*
X101407709Y-38501183D01*
X101464162Y-38339850D01*
X101483299Y-38170000D01*
X101464162Y-38000150D01*
X101407709Y-37838817D01*
X101316771Y-37694091D01*
X101195909Y-37573229D01*
X101051183Y-37482291D01*
X100889850Y-37425838D01*
X100889848Y-37425837D01*
X100889846Y-37425837D01*
X100720000Y-37406700D01*
X100550153Y-37425837D01*
X100550150Y-37425837D01*
X100550150Y-37425838D01*
X100388817Y-37482291D01*
X100388815Y-37482291D01*
X100388815Y-37482292D01*
X100244089Y-37573230D01*
X100123230Y-37694089D01*
X100109028Y-37716692D01*
X100065713Y-37758291D01*
X100007931Y-37774657D01*
X99935331Y-37776939D01*
X99931435Y-37777000D01*
X99902315Y-37777000D01*
X99897815Y-37777568D01*
X99886183Y-37778483D01*
X99839918Y-37779937D01*
X99819173Y-37785964D01*
X99800123Y-37789908D01*
X99787227Y-37791537D01*
X99731521Y-37785829D01*
X99684006Y-37756196D01*
X99672725Y-37744915D01*
X99672724Y-37744914D01*
X99527998Y-37653976D01*
X99527995Y-37653974D01*
X99436049Y-37621801D01*
X99384544Y-37587387D01*
X99356113Y-37532352D01*
X99357850Y-37470432D01*
X99389321Y-37417081D01*
X99886584Y-36919819D01*
X99926813Y-36892939D01*
X99974266Y-36883500D01*
X101226820Y-36883500D01*
X101292791Y-36902505D01*
X101348817Y-36937709D01*
X101510150Y-36994162D01*
X101680000Y-37013299D01*
X101849850Y-36994162D01*
X102011183Y-36937709D01*
X102155909Y-36846771D01*
X102276771Y-36725909D01*
X102367709Y-36581183D01*
X102424162Y-36419850D01*
X102443299Y-36250000D01*
X102424162Y-36080150D01*
X102367709Y-35918817D01*
X102276771Y-35774091D01*
X102155909Y-35653229D01*
X102011183Y-35562291D01*
X101849850Y-35505838D01*
X101849848Y-35505837D01*
X101849846Y-35505837D01*
X101680000Y-35486700D01*
X101510153Y-35505837D01*
X101510150Y-35505837D01*
X101510150Y-35505838D01*
X101348817Y-35562291D01*
X101348815Y-35562291D01*
X101348815Y-35562292D01*
X101292792Y-35597494D01*
X101226820Y-35616500D01*
X99744134Y-35616500D01*
X99723391Y-35614210D01*
X99652470Y-35616439D01*
X99648575Y-35616500D01*
X99620641Y-35616500D01*
X99616537Y-35617018D01*
X99604905Y-35617933D01*
X99560610Y-35619325D01*
X99540996Y-35625023D01*
X99521960Y-35628965D01*
X99501706Y-35631525D01*
X99460516Y-35647832D01*
X99449470Y-35651613D01*
X99406907Y-35663979D01*
X99389328Y-35674376D01*
X99371864Y-35682932D01*
X99363120Y-35686394D01*
X99352882Y-35690448D01*
X99317039Y-35716489D01*
X99307282Y-35722898D01*
X99269138Y-35745457D01*
X99254700Y-35759895D01*
X99239911Y-35772525D01*
X99223394Y-35784525D01*
X99195144Y-35818673D01*
X99187283Y-35827311D01*
X98459169Y-36555424D01*
X98444372Y-36568062D01*
X98436898Y-36573492D01*
X98430459Y-36577868D01*
X98382980Y-36608000D01*
X98377205Y-36614150D01*
X98359710Y-36629574D01*
X98352893Y-36634527D01*
X98317051Y-36677851D01*
X98311903Y-36683690D01*
X98273413Y-36724679D01*
X98269354Y-36732063D01*
X98256242Y-36751358D01*
X98240887Y-36769921D01*
X98240589Y-36769675D01*
X98230344Y-36784250D01*
X97568785Y-37445809D01*
X97522059Y-37475169D01*
X97358819Y-37532289D01*
X97214089Y-37623230D01*
X97093230Y-37744089D01*
X97002289Y-37888819D01*
X96945169Y-38052059D01*
X96915809Y-38098785D01*
X91888014Y-43126579D01*
X91841288Y-43155939D01*
X91678819Y-43212789D01*
X91534089Y-43303730D01*
X91413230Y-43424589D01*
X91322289Y-43569319D01*
X91294085Y-43649922D01*
X91259670Y-43701427D01*
X91204636Y-43729858D01*
X91142716Y-43728121D01*
X91089363Y-43696648D01*
X90192812Y-42800097D01*
X90179768Y-42783815D01*
X90128072Y-42735270D01*
X90125275Y-42732559D01*
X90105497Y-42712781D01*
X90102219Y-42710238D01*
X90093346Y-42702659D01*
X90061045Y-42672328D01*
X90043157Y-42662494D01*
X90026893Y-42651810D01*
X90010764Y-42639299D01*
X89970101Y-42621703D01*
X89959607Y-42616562D01*
X89920786Y-42595219D01*
X89908804Y-42592143D01*
X89901008Y-42590141D01*
X89882603Y-42583840D01*
X89863869Y-42575733D01*
X89863867Y-42575732D01*
X89863866Y-42575732D01*
X89820107Y-42568801D01*
X89808667Y-42566432D01*
X89765755Y-42555414D01*
X89765754Y-42555414D01*
X89745340Y-42555414D01*
X89725941Y-42553887D01*
X89705782Y-42550694D01*
X89705781Y-42550694D01*
X89673042Y-42553788D01*
X89661667Y-42554864D01*
X89649998Y-42555414D01*
X87152094Y-42555414D01*
X87086122Y-42536408D01*
X87068813Y-42525532D01*
X87030097Y-42501205D01*
X86868764Y-42444752D01*
X86868762Y-42444751D01*
X86868760Y-42444751D01*
X86698914Y-42425614D01*
X86529067Y-42444751D01*
X86529064Y-42444751D01*
X86529064Y-42444752D01*
X86367731Y-42501205D01*
X86367729Y-42501205D01*
X86367729Y-42501206D01*
X86223000Y-42592145D01*
X86221590Y-42593556D01*
X86211318Y-42599486D01*
X86211175Y-42599576D01*
X86211171Y-42599570D01*
X86166003Y-42625647D01*
X86101818Y-42625645D01*
X86046232Y-42593552D01*
X85987845Y-42535165D01*
X85987844Y-42535164D01*
X85843118Y-42444226D01*
X85681785Y-42387773D01*
X85681782Y-42387772D01*
X85668597Y-42383159D01*
X85668984Y-42382050D01*
X85629583Y-42367430D01*
X85589805Y-42322918D01*
X85575435Y-42264977D01*
X85575435Y-41607187D01*
X85584874Y-41559734D01*
X85611754Y-41519506D01*
X85844384Y-41286876D01*
X86546369Y-40584889D01*
X86593091Y-40555531D01*
X86701183Y-40517709D01*
X86845909Y-40426771D01*
X86966771Y-40305909D01*
X87057709Y-40161183D01*
X87114162Y-39999850D01*
X87133299Y-39830000D01*
X87114162Y-39660150D01*
X87057709Y-39498817D01*
X86966771Y-39354091D01*
X86845909Y-39233229D01*
X86701183Y-39142291D01*
X86539850Y-39085838D01*
X86539848Y-39085837D01*
X86539846Y-39085837D01*
X86370000Y-39066700D01*
X86200153Y-39085837D01*
X86200150Y-39085837D01*
X86200150Y-39085838D01*
X86038817Y-39142291D01*
X86038815Y-39142291D01*
X86038815Y-39142292D01*
X85894089Y-39233230D01*
X85773230Y-39354089D01*
X85682289Y-39498819D01*
X85644468Y-39606905D01*
X85615108Y-39653631D01*
X84512388Y-40756351D01*
X84495557Y-40769836D01*
X84445314Y-40823339D01*
X84442635Y-40826103D01*
X84422007Y-40846732D01*
X84422003Y-40846737D01*
X84419222Y-40850322D01*
X84411648Y-40859189D01*
X84379962Y-40892932D01*
X84369554Y-40911864D01*
X84358875Y-40928121D01*
X84345629Y-40945198D01*
X84327244Y-40987681D01*
X84322108Y-40998166D01*
X84299810Y-41038726D01*
X84294438Y-41059651D01*
X84288137Y-41078053D01*
X84279554Y-41097887D01*
X84272314Y-41143601D01*
X84269946Y-41155035D01*
X84258435Y-41199874D01*
X84258435Y-41221484D01*
X84256908Y-41240883D01*
X84253529Y-41262215D01*
X84257885Y-41308299D01*
X84258435Y-41319968D01*
X84258435Y-43730545D01*
X84256068Y-43751979D01*
X84258374Y-43825336D01*
X84258435Y-43829231D01*
X84258435Y-43858367D01*
X84259003Y-43862866D01*
X84259918Y-43874499D01*
X84261372Y-43920768D01*
X84267398Y-43941510D01*
X84271343Y-43960556D01*
X84274052Y-43981998D01*
X84291093Y-44025040D01*
X84294876Y-44036089D01*
X84307790Y-44080536D01*
X84318785Y-44099128D01*
X84327344Y-44116598D01*
X84335299Y-44136689D01*
X84335300Y-44136691D01*
X84362513Y-44174146D01*
X84368912Y-44183887D01*
X84388306Y-44216680D01*
X84392483Y-44223743D01*
X84407757Y-44239017D01*
X84420393Y-44253811D01*
X84433094Y-44271292D01*
X84468755Y-44300793D01*
X84477396Y-44308656D01*
X87885108Y-47716368D01*
X87914468Y-47763094D01*
X87952289Y-47871180D01*
X87952291Y-47871183D01*
X88043229Y-48015909D01*
X88164091Y-48136771D01*
X88308817Y-48227709D01*
X88470150Y-48284162D01*
X88597537Y-48298514D01*
X88639999Y-48303299D01*
X88639999Y-48303298D01*
X88640000Y-48303299D01*
X88809850Y-48284162D01*
X88971183Y-48227709D01*
X89115909Y-48136771D01*
X89236771Y-48015909D01*
X89327709Y-47871183D01*
X89384162Y-47709850D01*
X89403299Y-47540000D01*
X89384162Y-47370150D01*
X89327709Y-47208817D01*
X89236771Y-47064091D01*
X89115909Y-46943229D01*
X88971183Y-46852291D01*
X88971180Y-46852289D01*
X88863094Y-46814468D01*
X88816368Y-46785108D01*
X87346441Y-45315181D01*
X87316191Y-45265818D01*
X87311649Y-45208102D01*
X87333804Y-45154615D01*
X87377827Y-45117015D01*
X87434122Y-45103500D01*
X89846941Y-45103500D01*
X89894394Y-45112939D01*
X89934623Y-45139819D01*
X90031434Y-45236631D01*
X90060793Y-45283357D01*
X90117643Y-45445826D01*
X90117645Y-45445829D01*
X90208583Y-45590555D01*
X90329445Y-45711417D01*
X90474171Y-45802355D01*
X90635504Y-45858808D01*
X90762891Y-45873160D01*
X90805353Y-45877945D01*
X90805353Y-45877944D01*
X90805354Y-45877945D01*
X90975204Y-45858808D01*
X91136537Y-45802355D01*
X91216608Y-45752042D01*
X91268696Y-45733816D01*
X91323534Y-45739994D01*
X91370261Y-45769355D01*
X91790174Y-46189268D01*
X91823507Y-46249899D01*
X91819162Y-46318952D01*
X91778494Y-46374928D01*
X91714163Y-46400399D01*
X91665037Y-46405043D01*
X91655442Y-46405950D01*
X91643774Y-46406500D01*
X91227531Y-46406500D01*
X91206789Y-46404210D01*
X91203989Y-46404298D01*
X91135881Y-46406439D01*
X91131985Y-46406500D01*
X91104042Y-46406500D01*
X91099940Y-46407018D01*
X91088301Y-46407934D01*
X91044009Y-46409326D01*
X91024406Y-46415022D01*
X91005354Y-46418967D01*
X90985102Y-46421525D01*
X90943898Y-46437838D01*
X90932853Y-46441619D01*
X90890308Y-46453980D01*
X90890304Y-46453982D01*
X90890305Y-46453982D01*
X90872725Y-46464377D01*
X90855268Y-46472930D01*
X90836276Y-46480449D01*
X90800432Y-46506491D01*
X90790675Y-46512901D01*
X90752537Y-46535457D01*
X90752536Y-46535457D01*
X90752536Y-46535458D01*
X90738095Y-46549897D01*
X90723313Y-46562523D01*
X90706791Y-46574528D01*
X90706789Y-46574529D01*
X90706789Y-46574530D01*
X90678541Y-46608673D01*
X90670682Y-46617309D01*
X90421179Y-46866812D01*
X90404896Y-46879859D01*
X90356337Y-46931568D01*
X90353632Y-46934360D01*
X90333861Y-46954131D01*
X90331321Y-46957406D01*
X90323752Y-46966267D01*
X90293414Y-46998575D01*
X90283582Y-47016461D01*
X90272901Y-47032721D01*
X90260385Y-47048857D01*
X90242786Y-47089526D01*
X90237648Y-47100015D01*
X90216303Y-47138841D01*
X90211226Y-47158616D01*
X90204925Y-47177021D01*
X90196818Y-47195754D01*
X90189888Y-47239508D01*
X90187520Y-47250944D01*
X90176500Y-47293868D01*
X90176500Y-47314282D01*
X90174973Y-47333681D01*
X90172726Y-47347870D01*
X90171780Y-47353841D01*
X90172318Y-47359532D01*
X90175950Y-47397955D01*
X90176500Y-47409624D01*
X90176500Y-47762469D01*
X90174210Y-47783210D01*
X90176439Y-47854119D01*
X90176500Y-47858015D01*
X90176500Y-47885957D01*
X90177018Y-47890058D01*
X90177934Y-47901699D01*
X90179326Y-47945990D01*
X90185022Y-47965594D01*
X90188967Y-47984646D01*
X90191525Y-48004900D01*
X90207838Y-48046103D01*
X90211621Y-48057151D01*
X90223982Y-48099695D01*
X90234374Y-48117268D01*
X90242931Y-48134735D01*
X90250448Y-48153720D01*
X90276491Y-48189565D01*
X90282905Y-48199329D01*
X90305458Y-48237464D01*
X90319890Y-48251896D01*
X90332526Y-48266691D01*
X90344526Y-48283207D01*
X90344527Y-48283208D01*
X90344528Y-48283209D01*
X90368813Y-48303299D01*
X90378667Y-48311451D01*
X90387308Y-48319314D01*
X91031808Y-48963814D01*
X91044857Y-48980101D01*
X91046897Y-48982016D01*
X91046898Y-48982018D01*
X91096599Y-49028690D01*
X91099332Y-49031338D01*
X91119128Y-49051134D01*
X91122391Y-49053665D01*
X91131267Y-49061245D01*
X91163577Y-49091586D01*
X91181470Y-49101422D01*
X91197729Y-49112103D01*
X91213857Y-49124613D01*
X91254523Y-49142210D01*
X91265004Y-49147346D01*
X91270980Y-49150631D01*
X91303838Y-49168695D01*
X91323608Y-49173771D01*
X91342013Y-49180071D01*
X91360753Y-49188181D01*
X91404516Y-49195111D01*
X91415943Y-49197478D01*
X91458868Y-49208500D01*
X91479289Y-49208500D01*
X91498686Y-49210026D01*
X91507453Y-49211415D01*
X91518840Y-49213219D01*
X91518840Y-49213218D01*
X91518841Y-49213219D01*
X91562947Y-49209049D01*
X91574616Y-49208500D01*
X106291367Y-49208500D01*
X106312108Y-49210789D01*
X106314905Y-49210701D01*
X106314909Y-49210702D01*
X106383017Y-49208560D01*
X106386913Y-49208500D01*
X106414854Y-49208500D01*
X106414856Y-49208500D01*
X106418956Y-49207981D01*
X106430606Y-49207064D01*
X106474889Y-49205673D01*
X106494498Y-49199975D01*
X106513531Y-49196033D01*
X106533797Y-49193474D01*
X106575006Y-49177157D01*
X106586037Y-49173380D01*
X106628593Y-49161018D01*
X106646160Y-49150628D01*
X106663632Y-49142068D01*
X106682617Y-49134552D01*
X106718475Y-49108498D01*
X106728223Y-49102096D01*
X106766362Y-49079542D01*
X106780800Y-49065103D01*
X106795588Y-49052472D01*
X106812107Y-49040472D01*
X106812924Y-49039483D01*
X106867511Y-49001481D01*
X107021183Y-48947709D01*
X107165909Y-48856771D01*
X107286771Y-48735909D01*
X107377709Y-48591183D01*
X107434162Y-48429850D01*
X107453299Y-48260000D01*
X107434162Y-48090150D01*
X107377709Y-47928817D01*
X107331227Y-47854842D01*
X107312221Y-47788872D01*
X107331226Y-47722902D01*
X107407709Y-47601183D01*
X107464162Y-47439850D01*
X107464162Y-47439846D01*
X107468776Y-47426662D01*
X107469884Y-47427049D01*
X107484505Y-47387648D01*
X107529017Y-47347870D01*
X107586958Y-47333500D01*
X108714071Y-47333500D01*
X108761524Y-47342939D01*
X108801752Y-47369819D01*
X108910580Y-47478647D01*
X108939940Y-47525373D01*
X108996791Y-47687845D01*
X108996793Y-47687848D01*
X109087731Y-47832574D01*
X109208593Y-47953436D01*
X109353319Y-48044374D01*
X109514652Y-48100827D01*
X109684502Y-48119964D01*
X109854352Y-48100827D01*
X110015685Y-48044374D01*
X110160411Y-47953436D01*
X110281273Y-47832574D01*
X110372211Y-47687848D01*
X110428664Y-47526515D01*
X110447801Y-47356665D01*
X110428932Y-47189194D01*
X110440439Y-47121494D01*
X110468964Y-47089586D01*
X110466029Y-47086651D01*
X110488591Y-47064089D01*
X110596771Y-46955909D01*
X110687709Y-46811183D01*
X110744162Y-46649850D01*
X110763299Y-46480000D01*
X110762614Y-46473924D01*
X110753328Y-46391501D01*
X110744162Y-46310150D01*
X110687709Y-46148817D01*
X110596771Y-46004091D01*
X110475909Y-45883229D01*
X110347200Y-45802355D01*
X110331180Y-45792289D01*
X110169850Y-45735837D01*
X110168709Y-45735709D01*
X110163909Y-45733758D01*
X110156663Y-45731223D01*
X110156788Y-45730864D01*
X110106592Y-45710467D01*
X110100040Y-45705385D01*
X110059377Y-45687789D01*
X110048883Y-45682648D01*
X110010062Y-45661305D01*
X109998386Y-45658307D01*
X109990284Y-45656227D01*
X109971879Y-45649926D01*
X109953145Y-45641819D01*
X109953143Y-45641818D01*
X109953142Y-45641818D01*
X109909383Y-45634887D01*
X109897943Y-45632518D01*
X109855031Y-45621500D01*
X109855030Y-45621500D01*
X109834616Y-45621500D01*
X109815217Y-45619973D01*
X109795058Y-45616780D01*
X109795057Y-45616780D01*
X109768420Y-45619298D01*
X109750943Y-45620950D01*
X109739274Y-45621500D01*
X106288634Y-45621500D01*
X106267891Y-45619210D01*
X106196970Y-45621439D01*
X106193075Y-45621500D01*
X106165141Y-45621500D01*
X106161037Y-45622018D01*
X106149405Y-45622933D01*
X106105110Y-45624325D01*
X106085496Y-45630023D01*
X106066460Y-45633965D01*
X106046206Y-45636525D01*
X106005016Y-45652832D01*
X105993970Y-45656613D01*
X105951407Y-45668979D01*
X105933828Y-45679376D01*
X105916364Y-45687932D01*
X105907620Y-45691394D01*
X105897382Y-45695448D01*
X105861539Y-45721489D01*
X105851782Y-45727898D01*
X105813639Y-45750457D01*
X105813638Y-45750458D01*
X105799197Y-45764897D01*
X105784415Y-45777523D01*
X105775090Y-45784298D01*
X105767891Y-45789529D01*
X105739645Y-45823671D01*
X105731788Y-45832305D01*
X105683866Y-45880229D01*
X105058914Y-46505181D01*
X105018686Y-46532061D01*
X104971233Y-46541500D01*
X99104869Y-46541500D01*
X99057416Y-46532061D01*
X99017188Y-46505181D01*
X98913190Y-46401183D01*
X98900146Y-46384901D01*
X98848450Y-46336356D01*
X98845653Y-46333645D01*
X98825875Y-46313867D01*
X98822597Y-46311324D01*
X98813724Y-46303745D01*
X98781423Y-46273414D01*
X98763535Y-46263580D01*
X98747271Y-46252896D01*
X98731142Y-46240385D01*
X98690479Y-46222789D01*
X98679985Y-46217648D01*
X98641164Y-46196305D01*
X98629488Y-46193307D01*
X98621386Y-46191227D01*
X98602981Y-46184926D01*
X98584247Y-46176819D01*
X98584245Y-46176818D01*
X98584244Y-46176818D01*
X98540485Y-46169887D01*
X98529045Y-46167518D01*
X98486133Y-46156500D01*
X98486132Y-46156500D01*
X98465718Y-46156500D01*
X98446319Y-46154973D01*
X98426160Y-46151780D01*
X98426159Y-46151780D01*
X98393420Y-46154874D01*
X98382045Y-46155950D01*
X98370376Y-46156500D01*
X96533766Y-46156500D01*
X96486313Y-46147061D01*
X96446085Y-46120181D01*
X95987209Y-45661305D01*
X95523921Y-45198016D01*
X95494560Y-45151290D01*
X95494162Y-45150153D01*
X95494162Y-45150150D01*
X95437709Y-44988817D01*
X95346771Y-44844091D01*
X95225909Y-44723229D01*
X95081183Y-44632291D01*
X94919850Y-44575838D01*
X94919848Y-44575837D01*
X94919846Y-44575837D01*
X94750000Y-44556700D01*
X94580153Y-44575837D01*
X94580150Y-44575837D01*
X94580150Y-44575838D01*
X94418817Y-44632291D01*
X94418815Y-44632291D01*
X94418815Y-44632292D01*
X94394622Y-44647494D01*
X94328650Y-44666500D01*
X94122664Y-44666500D01*
X94066369Y-44652985D01*
X94022346Y-44615385D01*
X94000191Y-44561898D01*
X94004733Y-44504182D01*
X94034983Y-44454819D01*
X96429819Y-42059983D01*
X96479182Y-42029733D01*
X96536898Y-42025191D01*
X96590385Y-42047346D01*
X96627985Y-42091369D01*
X96641500Y-42147664D01*
X96641500Y-44506607D01*
X96622494Y-44572578D01*
X96612293Y-44588812D01*
X96612291Y-44588816D01*
X96612291Y-44588817D01*
X96565258Y-44723229D01*
X96555837Y-44750153D01*
X96536700Y-44920000D01*
X96555837Y-45089846D01*
X96555837Y-45089848D01*
X96555838Y-45089850D01*
X96612291Y-45251183D01*
X96703229Y-45395909D01*
X96824091Y-45516771D01*
X96968817Y-45607709D01*
X97130150Y-45664162D01*
X97300000Y-45683299D01*
X97469850Y-45664162D01*
X97631183Y-45607709D01*
X97775909Y-45516771D01*
X97896771Y-45395909D01*
X97987709Y-45251183D01*
X98044162Y-45089850D01*
X98063299Y-44920000D01*
X98044162Y-44750150D01*
X97987709Y-44588817D01*
X97979554Y-44575838D01*
X97977506Y-44572578D01*
X97958500Y-44506607D01*
X97958500Y-41905872D01*
X97967939Y-41858419D01*
X97994819Y-41818191D01*
X98776030Y-41036980D01*
X99569819Y-40243189D01*
X99619182Y-40212940D01*
X99676898Y-40208398D01*
X99730385Y-40230553D01*
X99767985Y-40274576D01*
X99781500Y-40330871D01*
X99781500Y-40763610D01*
X99779133Y-40785044D01*
X99781439Y-40858401D01*
X99781500Y-40862296D01*
X99781500Y-40891432D01*
X99782068Y-40895931D01*
X99782983Y-40907564D01*
X99784437Y-40953833D01*
X99790463Y-40974575D01*
X99794408Y-40993621D01*
X99797117Y-41015063D01*
X99814158Y-41058105D01*
X99817941Y-41069154D01*
X99830855Y-41113601D01*
X99841850Y-41132193D01*
X99850409Y-41149663D01*
X99852536Y-41155035D01*
X99858365Y-41169756D01*
X99885578Y-41207211D01*
X99891977Y-41216952D01*
X99900428Y-41231241D01*
X99915548Y-41256808D01*
X99930822Y-41272082D01*
X99943458Y-41286876D01*
X99956159Y-41304357D01*
X99991820Y-41333858D01*
X100000461Y-41341721D01*
X100293781Y-41635041D01*
X100307268Y-41651874D01*
X100309082Y-41653577D01*
X100309083Y-41653579D01*
X100360771Y-41702117D01*
X100363537Y-41704797D01*
X100384166Y-41725426D01*
X100387741Y-41728199D01*
X100396621Y-41735782D01*
X100430366Y-41767471D01*
X100449302Y-41777881D01*
X100465584Y-41788580D01*
X100466400Y-41789213D01*
X100467022Y-41789696D01*
X100506397Y-41842289D01*
X100513375Y-41907616D01*
X100485999Y-41967340D01*
X100449295Y-41992706D01*
X100450647Y-41994858D01*
X100438818Y-42002290D01*
X100438817Y-42002291D01*
X100402372Y-42025191D01*
X100294089Y-42093230D01*
X100173230Y-42214089D01*
X100144415Y-42259947D01*
X100082291Y-42358817D01*
X100032889Y-42499999D01*
X100025837Y-42520153D01*
X100006700Y-42690000D01*
X100025837Y-42859846D01*
X100025837Y-42859848D01*
X100025838Y-42859850D01*
X100082291Y-43021183D01*
X100173229Y-43165909D01*
X100294091Y-43286771D01*
X100438817Y-43377709D01*
X100600150Y-43434162D01*
X100770000Y-43453299D01*
X100939850Y-43434162D01*
X101086237Y-43382939D01*
X101093327Y-43380458D01*
X101134281Y-43373500D01*
X110965523Y-43373500D01*
X111012976Y-43382939D01*
X111053204Y-43409819D01*
X111340181Y-43696796D01*
X111367061Y-43737024D01*
X111376500Y-43784477D01*
X111376500Y-54525719D01*
X111369542Y-54566673D01*
X111315837Y-54720152D01*
X111296700Y-54890000D01*
X111315837Y-55059846D01*
X111315837Y-55059848D01*
X111315838Y-55059850D01*
X111372291Y-55221183D01*
X111463229Y-55365909D01*
X111584091Y-55486771D01*
X111728817Y-55577709D01*
X111890150Y-55634162D01*
X111950582Y-55640970D01*
X112073884Y-55654864D01*
X112073596Y-55657413D01*
X112121302Y-55665519D01*
X112172494Y-55711267D01*
X112191500Y-55777239D01*
X112191500Y-58927800D01*
X112174023Y-58991273D01*
X112126518Y-59036854D01*
X112104426Y-59048809D01*
X111926760Y-59187094D01*
X111774279Y-59352730D01*
X111683809Y-59491205D01*
X111639017Y-59532438D01*
X111580000Y-59547383D01*
X111520983Y-59532438D01*
X111476191Y-59491205D01*
X111385723Y-59352734D01*
X111385722Y-59352732D01*
X111233240Y-59187094D01*
X111055576Y-59048811D01*
X111008482Y-59023325D01*
X110960977Y-58977745D01*
X110943500Y-58914271D01*
X110943500Y-58713628D01*
X110945788Y-58692892D01*
X110945700Y-58690094D01*
X110945701Y-58690091D01*
X110943560Y-58622000D01*
X110943500Y-58618106D01*
X110943500Y-58590146D01*
X110942981Y-58586039D01*
X110942064Y-58574388D01*
X110940673Y-58530110D01*
X110934978Y-58510511D01*
X110931033Y-58491462D01*
X110928474Y-58471203D01*
X110912163Y-58430007D01*
X110908380Y-58418958D01*
X110896018Y-58376406D01*
X110885622Y-58358828D01*
X110877067Y-58341366D01*
X110869552Y-58322383D01*
X110849344Y-58294570D01*
X110843512Y-58286542D01*
X110837098Y-58276778D01*
X110814541Y-58238636D01*
X110800107Y-58224202D01*
X110787470Y-58209407D01*
X110786559Y-58208153D01*
X110775472Y-58192893D01*
X110741324Y-58164643D01*
X110732696Y-58156791D01*
X108937088Y-56361183D01*
X108924044Y-56344901D01*
X108872348Y-56296356D01*
X108869551Y-56293645D01*
X108849773Y-56273867D01*
X108846495Y-56271324D01*
X108837622Y-56263745D01*
X108805321Y-56233414D01*
X108787433Y-56223580D01*
X108771169Y-56212896D01*
X108755040Y-56200385D01*
X108714377Y-56182789D01*
X108703883Y-56177648D01*
X108665062Y-56156305D01*
X108653080Y-56153229D01*
X108645284Y-56151227D01*
X108626879Y-56144926D01*
X108608145Y-56136819D01*
X108608143Y-56136818D01*
X108608142Y-56136818D01*
X108564383Y-56129887D01*
X108552943Y-56127518D01*
X108510031Y-56116500D01*
X108510030Y-56116500D01*
X108489616Y-56116500D01*
X108470217Y-56114973D01*
X108450058Y-56111780D01*
X108450057Y-56111780D01*
X108417318Y-56114874D01*
X108405943Y-56115950D01*
X108394274Y-56116500D01*
X96975542Y-56116500D01*
X96919247Y-56102985D01*
X96875224Y-56065385D01*
X96853069Y-56011898D01*
X96857611Y-55954182D01*
X96887861Y-55904819D01*
X97571497Y-55221184D01*
X98332961Y-54459719D01*
X98373190Y-54432839D01*
X98420643Y-54423400D01*
X101288568Y-54423400D01*
X101329521Y-54430357D01*
X101408853Y-54458117D01*
X101589900Y-54478516D01*
X101770947Y-54458117D01*
X101942915Y-54397943D01*
X102097181Y-54301011D01*
X102226011Y-54172181D01*
X102322943Y-54017915D01*
X102383117Y-53845947D01*
X102403516Y-53664900D01*
X102383117Y-53483853D01*
X102322943Y-53311885D01*
X102226011Y-53157619D01*
X102097181Y-53028789D01*
X101942915Y-52931857D01*
X101770947Y-52871683D01*
X101770946Y-52871682D01*
X101770944Y-52871682D01*
X101589900Y-52851283D01*
X101408855Y-52871682D01*
X101329522Y-52899442D01*
X101288568Y-52906400D01*
X98119394Y-52906400D01*
X98101424Y-52905091D01*
X98088601Y-52903212D01*
X98077311Y-52901559D01*
X98077310Y-52901559D01*
X98027374Y-52905928D01*
X98016567Y-52906400D01*
X98010919Y-52906400D01*
X97979777Y-52910039D01*
X97976193Y-52910405D01*
X97899510Y-52917114D01*
X97880089Y-52921419D01*
X97807760Y-52947744D01*
X97804359Y-52948926D01*
X97731253Y-52973152D01*
X97713340Y-52981824D01*
X97649008Y-53024136D01*
X97645968Y-53026073D01*
X97580457Y-53066481D01*
X97565020Y-53079056D01*
X97512152Y-53135091D01*
X97509641Y-53137676D01*
X95932138Y-54715181D01*
X95891910Y-54742061D01*
X95844457Y-54751500D01*
X86655543Y-54751500D01*
X86608090Y-54742061D01*
X86567862Y-54715181D01*
X85334819Y-53482138D01*
X85307939Y-53441910D01*
X85298500Y-53394457D01*
X85298500Y-48434295D01*
X85299809Y-48416325D01*
X85300346Y-48412652D01*
X85303341Y-48392211D01*
X85298971Y-48342273D01*
X85298500Y-48331467D01*
X85298500Y-48325824D01*
X85297739Y-48319314D01*
X85294851Y-48294608D01*
X85294499Y-48291161D01*
X85287887Y-48215574D01*
X85287785Y-48214407D01*
X85283481Y-48194994D01*
X85283079Y-48193890D01*
X85283079Y-48193887D01*
X85257120Y-48122566D01*
X85255981Y-48119290D01*
X85232114Y-48047262D01*
X85232113Y-48047261D01*
X85231742Y-48046140D01*
X85223078Y-48028245D01*
X85180754Y-47963895D01*
X85178815Y-47960852D01*
X85138412Y-47895347D01*
X85125849Y-47879925D01*
X85069826Y-47827071D01*
X85067238Y-47824557D01*
X81420256Y-44177575D01*
X81401701Y-44148045D01*
X81400476Y-44148815D01*
X81374533Y-44107527D01*
X81296111Y-43982719D01*
X81219072Y-43905680D01*
X81188822Y-43856317D01*
X81184280Y-43798601D01*
X81206435Y-43745114D01*
X81250458Y-43707514D01*
X81306753Y-43693999D01*
X82823696Y-43693999D01*
X82844437Y-43696288D01*
X82847234Y-43696200D01*
X82847238Y-43696201D01*
X82915346Y-43694059D01*
X82919242Y-43693999D01*
X82947183Y-43693999D01*
X82947185Y-43693999D01*
X82951285Y-43693480D01*
X82962935Y-43692563D01*
X83007218Y-43691172D01*
X83026827Y-43685474D01*
X83045860Y-43681532D01*
X83066126Y-43678973D01*
X83107335Y-43662656D01*
X83118366Y-43658879D01*
X83160922Y-43646517D01*
X83178499Y-43636121D01*
X83195955Y-43627569D01*
X83214946Y-43620051D01*
X83214948Y-43620049D01*
X83229513Y-43614283D01*
X83230408Y-43616543D01*
X83266584Y-43602498D01*
X83280961Y-43600879D01*
X83442294Y-43544426D01*
X83587020Y-43453488D01*
X83707882Y-43332626D01*
X83798820Y-43187900D01*
X83855273Y-43026567D01*
X83874410Y-42856717D01*
X83855273Y-42686867D01*
X83798820Y-42525534D01*
X83707882Y-42380808D01*
X83587020Y-42259946D01*
X83442294Y-42169008D01*
X83280961Y-42112555D01*
X83280959Y-42112554D01*
X83280957Y-42112554D01*
X83111111Y-42093417D01*
X82941264Y-42112554D01*
X82941261Y-42112554D01*
X82941261Y-42112555D01*
X82779928Y-42169008D01*
X82779926Y-42169008D01*
X82779926Y-42169009D01*
X82635200Y-42259947D01*
X82504468Y-42390680D01*
X82464240Y-42417560D01*
X82416787Y-42426999D01*
X79132499Y-42426999D01*
X79070499Y-42410386D01*
X79025112Y-42364999D01*
X79008499Y-42302999D01*
X79008499Y-41652500D01*
X79025112Y-41590500D01*
X79070499Y-41545113D01*
X79132499Y-41528500D01*
X79555706Y-41528500D01*
X79573676Y-41529809D01*
X79577114Y-41530312D01*
X79597789Y-41533341D01*
X79647726Y-41528971D01*
X79658533Y-41528500D01*
X79664178Y-41528500D01*
X79664180Y-41528500D01*
X79695364Y-41524854D01*
X79698858Y-41524497D01*
X79774426Y-41517887D01*
X79774429Y-41517885D01*
X79775594Y-41517784D01*
X79795015Y-41513478D01*
X79796110Y-41513079D01*
X79796113Y-41513079D01*
X79867414Y-41487126D01*
X79870708Y-41485981D01*
X79942738Y-41462114D01*
X79942742Y-41462111D01*
X79943863Y-41461740D01*
X79961751Y-41453080D01*
X79962732Y-41452435D01*
X80026103Y-41410753D01*
X80029129Y-41408826D01*
X80093651Y-41369030D01*
X80093655Y-41369025D01*
X80094650Y-41368412D01*
X80110069Y-41355853D01*
X80110870Y-41355003D01*
X80110874Y-41355001D01*
X80162962Y-41299789D01*
X80165408Y-41297271D01*
X84582424Y-36880255D01*
X84611954Y-36861702D01*
X84611184Y-36860477D01*
X84633000Y-36846769D01*
X84777281Y-36756111D01*
X84906111Y-36627281D01*
X85003043Y-36473015D01*
X85063217Y-36301047D01*
X85083616Y-36120000D01*
X85063217Y-35938953D01*
X85003043Y-35766985D01*
X84906111Y-35612719D01*
X84777281Y-35483889D01*
X84623015Y-35386957D01*
X84451047Y-35326783D01*
X84451046Y-35326782D01*
X84451044Y-35326782D01*
X84270000Y-35306383D01*
X84088955Y-35326782D01*
X83916984Y-35386957D01*
X83762717Y-35483890D01*
X83633890Y-35612717D01*
X83529525Y-35778813D01*
X83528300Y-35778043D01*
X83509744Y-35807573D01*
X79342138Y-39975181D01*
X79301910Y-40002061D01*
X79254457Y-40011500D01*
X77594294Y-40011500D01*
X77576324Y-40010191D01*
X77563501Y-40008312D01*
X77552211Y-40006659D01*
X77552210Y-40006659D01*
X77502274Y-40011028D01*
X77491467Y-40011500D01*
X77485819Y-40011500D01*
X77454677Y-40015139D01*
X77451093Y-40015505D01*
X77374410Y-40022214D01*
X77354989Y-40026519D01*
X77282660Y-40052844D01*
X77279259Y-40054026D01*
X77206153Y-40078252D01*
X77188240Y-40086924D01*
X77123908Y-40129236D01*
X77120868Y-40131173D01*
X77055357Y-40171581D01*
X77039920Y-40184156D01*
X76987052Y-40240191D01*
X76984541Y-40242776D01*
X76765677Y-40461641D01*
X76716318Y-40491889D01*
X76658601Y-40496431D01*
X76605114Y-40474276D01*
X76567514Y-40430253D01*
X76553999Y-40373958D01*
X76553999Y-38607876D01*
X76563438Y-38560423D01*
X76590318Y-38520195D01*
X76684882Y-38425631D01*
X76979822Y-38130689D01*
X77029182Y-38100442D01*
X77086898Y-38095900D01*
X77140385Y-38118055D01*
X77177985Y-38162078D01*
X77191500Y-38218373D01*
X77191500Y-38707268D01*
X77197986Y-38778649D01*
X77249171Y-38942910D01*
X77338184Y-39090156D01*
X77459843Y-39211815D01*
X77490622Y-39230421D01*
X77607087Y-39300827D01*
X77771351Y-39352013D01*
X77842735Y-39358500D01*
X78357264Y-39358499D01*
X78357268Y-39358499D01*
X78428649Y-39352013D01*
X78592910Y-39300828D01*
X78592910Y-39300827D01*
X78592913Y-39300827D01*
X78740155Y-39211816D01*
X78861816Y-39090155D01*
X78950827Y-38942913D01*
X79002013Y-38778649D01*
X79008500Y-38707265D01*
X79008500Y-38607500D01*
X79025113Y-38545500D01*
X79070500Y-38500113D01*
X79132500Y-38483500D01*
X79936367Y-38483500D01*
X79957108Y-38485789D01*
X79959905Y-38485701D01*
X79959909Y-38485702D01*
X80028017Y-38483560D01*
X80031913Y-38483500D01*
X80059854Y-38483500D01*
X80059856Y-38483500D01*
X80063956Y-38482981D01*
X80075606Y-38482064D01*
X80119889Y-38480673D01*
X80139498Y-38474975D01*
X80158531Y-38471033D01*
X80178797Y-38468474D01*
X80220006Y-38452157D01*
X80231037Y-38448380D01*
X80273593Y-38436018D01*
X80291160Y-38425628D01*
X80308632Y-38417068D01*
X80327617Y-38409552D01*
X80363475Y-38383498D01*
X80373223Y-38377096D01*
X80411362Y-38354542D01*
X80425800Y-38340103D01*
X80440588Y-38327472D01*
X80457107Y-38315472D01*
X80485359Y-38281319D01*
X80493203Y-38272699D01*
X84396084Y-34369819D01*
X84436313Y-34342939D01*
X84483766Y-34333500D01*
X85896234Y-34333500D01*
X85943687Y-34342939D01*
G37*
G04 #@! TD.AperFunction*
M02*
