G04 #@! TF.GenerationSoftware,KiCad,Pcbnew,7.0.1-3b83917a11~172~ubuntu22.04.1*
G04 #@! TF.CreationDate,2023-04-23T17:42:43+02:00*
G04 #@! TF.ProjectId,sharp-lcd-128x128,73686172-702d-46c6-9364-2d3132387831,rev?*
G04 #@! TF.SameCoordinates,Original*
G04 #@! TF.FileFunction,Legend,Top*
G04 #@! TF.FilePolarity,Positive*
%FSLAX46Y46*%
G04 Gerber Fmt 4.6, Leading zero omitted, Abs format (unit mm)*
G04 Created by KiCad (PCBNEW 7.0.1-3b83917a11~172~ubuntu22.04.1) date 2023-04-23 17:42:43*
%MOMM*%
%LPD*%
G01*
G04 APERTURE LIST*
G04 Aperture macros list*
%AMRoundRect*
0 Rectangle with rounded corners*
0 $1 Rounding radius*
0 $2 $3 $4 $5 $6 $7 $8 $9 X,Y pos of 4 corners*
0 Add a 4 corners polygon primitive as box body*
4,1,4,$2,$3,$4,$5,$6,$7,$8,$9,$2,$3,0*
0 Add four circle primitives for the rounded corners*
1,1,$1+$1,$2,$3*
1,1,$1+$1,$4,$5*
1,1,$1+$1,$6,$7*
1,1,$1+$1,$8,$9*
0 Add four rect primitives between the rounded corners*
20,1,$1+$1,$2,$3,$4,$5,0*
20,1,$1+$1,$4,$5,$6,$7,0*
20,1,$1+$1,$6,$7,$8,$9,0*
20,1,$1+$1,$8,$9,$2,$3,0*%
%AMFreePoly0*
4,1,19,0.500000,-0.750000,0.000000,-0.750000,0.000000,-0.744911,-0.071157,-0.744911,-0.207708,-0.704816,-0.327430,-0.627875,-0.420627,-0.520320,-0.479746,-0.390866,-0.500000,-0.250000,-0.500000,0.250000,-0.479746,0.390866,-0.420627,0.520320,-0.327430,0.627875,-0.207708,0.704816,-0.071157,0.744911,0.000000,0.744911,0.000000,0.750000,0.500000,0.750000,0.500000,-0.750000,0.500000,-0.750000,
$1*%
%AMFreePoly1*
4,1,19,0.000000,0.744911,0.071157,0.744911,0.207708,0.704816,0.327430,0.627875,0.420627,0.520320,0.479746,0.390866,0.500000,0.250000,0.500000,-0.250000,0.479746,-0.390866,0.420627,-0.520320,0.327430,-0.627875,0.207708,-0.704816,0.071157,-0.744911,0.000000,-0.744911,0.000000,-0.750000,-0.500000,-0.750000,-0.500000,0.750000,0.000000,0.750000,0.000000,0.744911,0.000000,0.744911,
$1*%
G04 Aperture macros list end*
%ADD10C,0.150000*%
%ADD11C,0.140000*%
%ADD12C,0.130000*%
%ADD13C,0.170000*%
%ADD14C,0.280000*%
%ADD15C,0.160000*%
%ADD16C,0.254000*%
%ADD17C,0.120000*%
%ADD18C,0.200000*%
%ADD19C,0.100000*%
%ADD20RoundRect,0.200000X-0.200000X-0.275000X0.200000X-0.275000X0.200000X0.275000X-0.200000X0.275000X0*%
%ADD21R,0.812800X0.406400*%
%ADD22R,0.406400X0.812800*%
%ADD23R,1.447800X1.447800*%
%ADD24R,0.711200X0.711200*%
%ADD25RoundRect,0.150000X-0.587500X-0.150000X0.587500X-0.150000X0.587500X0.150000X-0.587500X0.150000X0*%
%ADD26RoundRect,0.200000X-0.275000X0.200000X-0.275000X-0.200000X0.275000X-0.200000X0.275000X0.200000X0*%
%ADD27C,2.100000*%
%ADD28R,1.000000X1.000000*%
%ADD29RoundRect,0.250000X-0.250000X-0.475000X0.250000X-0.475000X0.250000X0.475000X-0.250000X0.475000X0*%
%ADD30RoundRect,0.150000X0.587500X0.150000X-0.587500X0.150000X-0.587500X-0.150000X0.587500X-0.150000X0*%
%ADD31RoundRect,0.243750X-0.456250X0.243750X-0.456250X-0.243750X0.456250X-0.243750X0.456250X0.243750X0*%
%ADD32RoundRect,0.150000X-0.150000X0.825000X-0.150000X-0.825000X0.150000X-0.825000X0.150000X0.825000X0*%
%ADD33R,0.558800X0.990600*%
%ADD34RoundRect,0.200000X0.200000X0.275000X-0.200000X0.275000X-0.200000X-0.275000X0.200000X-0.275000X0*%
%ADD35RoundRect,0.150000X0.150000X-0.587500X0.150000X0.587500X-0.150000X0.587500X-0.150000X-0.587500X0*%
%ADD36C,0.650000*%
%ADD37R,1.450000X0.600000*%
%ADD38R,1.450000X0.300000*%
%ADD39O,2.100000X1.000000*%
%ADD40O,1.600000X1.000000*%
%ADD41RoundRect,0.225000X-0.225000X-0.375000X0.225000X-0.375000X0.225000X0.375000X-0.225000X0.375000X0*%
%ADD42RoundRect,0.250000X-0.412500X-0.925000X0.412500X-0.925000X0.412500X0.925000X-0.412500X0.925000X0*%
%ADD43FreePoly0,0.000000*%
%ADD44FreePoly1,0.000000*%
%ADD45R,0.812800X0.304800*%
%ADD46R,0.850000X0.300000*%
%ADD47R,2.000000X0.800000*%
%ADD48RoundRect,0.250000X0.262500X0.450000X-0.262500X0.450000X-0.262500X-0.450000X0.262500X-0.450000X0*%
%ADD49RoundRect,0.150000X0.275000X-0.150000X0.275000X0.150000X-0.275000X0.150000X-0.275000X-0.150000X0*%
%ADD50RoundRect,0.175000X0.225000X-0.175000X0.225000X0.175000X-0.225000X0.175000X-0.225000X-0.175000X0*%
%ADD51RoundRect,0.200000X0.275000X-0.200000X0.275000X0.200000X-0.275000X0.200000X-0.275000X-0.200000X0*%
G04 APERTURE END LIST*
D10*
X114630000Y-48390000D02*
X121230000Y-48390000D01*
X111000000Y-33890000D02*
X117600000Y-33890000D01*
X114630000Y-43240000D02*
X121230000Y-43240000D01*
X111000000Y-30620000D02*
X117600000Y-30620000D01*
D11*
X105353333Y-33372095D02*
X105200952Y-33372095D01*
X105200952Y-33372095D02*
X105124761Y-33410190D01*
X105124761Y-33410190D02*
X105086666Y-33448285D01*
X105086666Y-33448285D02*
X105010476Y-33562571D01*
X105010476Y-33562571D02*
X104972380Y-33714952D01*
X104972380Y-33714952D02*
X104972380Y-34019714D01*
X104972380Y-34019714D02*
X105010476Y-34095904D01*
X105010476Y-34095904D02*
X105048571Y-34134000D01*
X105048571Y-34134000D02*
X105124761Y-34172095D01*
X105124761Y-34172095D02*
X105277142Y-34172095D01*
X105277142Y-34172095D02*
X105353333Y-34134000D01*
X105353333Y-34134000D02*
X105391428Y-34095904D01*
X105391428Y-34095904D02*
X105429523Y-34019714D01*
X105429523Y-34019714D02*
X105429523Y-33829238D01*
X105429523Y-33829238D02*
X105391428Y-33753047D01*
X105391428Y-33753047D02*
X105353333Y-33714952D01*
X105353333Y-33714952D02*
X105277142Y-33676857D01*
X105277142Y-33676857D02*
X105124761Y-33676857D01*
X105124761Y-33676857D02*
X105048571Y-33714952D01*
X105048571Y-33714952D02*
X105010476Y-33753047D01*
X105010476Y-33753047D02*
X104972380Y-33829238D01*
D12*
X94009523Y-44941047D02*
X94276189Y-44941047D01*
X94390475Y-45360095D02*
X94009523Y-45360095D01*
X94009523Y-45360095D02*
X94009523Y-44560095D01*
X94009523Y-44560095D02*
X94390475Y-44560095D01*
X94695237Y-45322000D02*
X94809523Y-45360095D01*
X94809523Y-45360095D02*
X94999999Y-45360095D01*
X94999999Y-45360095D02*
X95076190Y-45322000D01*
X95076190Y-45322000D02*
X95114285Y-45283904D01*
X95114285Y-45283904D02*
X95152380Y-45207714D01*
X95152380Y-45207714D02*
X95152380Y-45131523D01*
X95152380Y-45131523D02*
X95114285Y-45055333D01*
X95114285Y-45055333D02*
X95076190Y-45017238D01*
X95076190Y-45017238D02*
X94999999Y-44979142D01*
X94999999Y-44979142D02*
X94847618Y-44941047D01*
X94847618Y-44941047D02*
X94771428Y-44902952D01*
X94771428Y-44902952D02*
X94733333Y-44864857D01*
X94733333Y-44864857D02*
X94695237Y-44788666D01*
X94695237Y-44788666D02*
X94695237Y-44712476D01*
X94695237Y-44712476D02*
X94733333Y-44636285D01*
X94733333Y-44636285D02*
X94771428Y-44598190D01*
X94771428Y-44598190D02*
X94847618Y-44560095D01*
X94847618Y-44560095D02*
X95038095Y-44560095D01*
X95038095Y-44560095D02*
X95152380Y-44598190D01*
X95495238Y-45360095D02*
X95495238Y-44560095D01*
X95495238Y-44560095D02*
X95800000Y-44560095D01*
X95800000Y-44560095D02*
X95876190Y-44598190D01*
X95876190Y-44598190D02*
X95914285Y-44636285D01*
X95914285Y-44636285D02*
X95952381Y-44712476D01*
X95952381Y-44712476D02*
X95952381Y-44826761D01*
X95952381Y-44826761D02*
X95914285Y-44902952D01*
X95914285Y-44902952D02*
X95876190Y-44941047D01*
X95876190Y-44941047D02*
X95800000Y-44979142D01*
X95800000Y-44979142D02*
X95495238Y-44979142D01*
X96219047Y-44560095D02*
X96714285Y-44560095D01*
X96714285Y-44560095D02*
X96447619Y-44864857D01*
X96447619Y-44864857D02*
X96561904Y-44864857D01*
X96561904Y-44864857D02*
X96638095Y-44902952D01*
X96638095Y-44902952D02*
X96676190Y-44941047D01*
X96676190Y-44941047D02*
X96714285Y-45017238D01*
X96714285Y-45017238D02*
X96714285Y-45207714D01*
X96714285Y-45207714D02*
X96676190Y-45283904D01*
X96676190Y-45283904D02*
X96638095Y-45322000D01*
X96638095Y-45322000D02*
X96561904Y-45360095D01*
X96561904Y-45360095D02*
X96333333Y-45360095D01*
X96333333Y-45360095D02*
X96257142Y-45322000D01*
X96257142Y-45322000D02*
X96219047Y-45283904D01*
X97019047Y-44636285D02*
X97057143Y-44598190D01*
X97057143Y-44598190D02*
X97133333Y-44560095D01*
X97133333Y-44560095D02*
X97323809Y-44560095D01*
X97323809Y-44560095D02*
X97400000Y-44598190D01*
X97400000Y-44598190D02*
X97438095Y-44636285D01*
X97438095Y-44636285D02*
X97476190Y-44712476D01*
X97476190Y-44712476D02*
X97476190Y-44788666D01*
X97476190Y-44788666D02*
X97438095Y-44902952D01*
X97438095Y-44902952D02*
X96980952Y-45360095D01*
X96980952Y-45360095D02*
X97476190Y-45360095D01*
X97819048Y-45055333D02*
X98428572Y-45055333D01*
X99266667Y-45283904D02*
X99228571Y-45322000D01*
X99228571Y-45322000D02*
X99114286Y-45360095D01*
X99114286Y-45360095D02*
X99038095Y-45360095D01*
X99038095Y-45360095D02*
X98923809Y-45322000D01*
X98923809Y-45322000D02*
X98847619Y-45245809D01*
X98847619Y-45245809D02*
X98809524Y-45169619D01*
X98809524Y-45169619D02*
X98771428Y-45017238D01*
X98771428Y-45017238D02*
X98771428Y-44902952D01*
X98771428Y-44902952D02*
X98809524Y-44750571D01*
X98809524Y-44750571D02*
X98847619Y-44674380D01*
X98847619Y-44674380D02*
X98923809Y-44598190D01*
X98923809Y-44598190D02*
X99038095Y-44560095D01*
X99038095Y-44560095D02*
X99114286Y-44560095D01*
X99114286Y-44560095D02*
X99228571Y-44598190D01*
X99228571Y-44598190D02*
X99266667Y-44636285D01*
X99533333Y-44560095D02*
X100028571Y-44560095D01*
X100028571Y-44560095D02*
X99761905Y-44864857D01*
X99761905Y-44864857D02*
X99876190Y-44864857D01*
X99876190Y-44864857D02*
X99952381Y-44902952D01*
X99952381Y-44902952D02*
X99990476Y-44941047D01*
X99990476Y-44941047D02*
X100028571Y-45017238D01*
X100028571Y-45017238D02*
X100028571Y-45207714D01*
X100028571Y-45207714D02*
X99990476Y-45283904D01*
X99990476Y-45283904D02*
X99952381Y-45322000D01*
X99952381Y-45322000D02*
X99876190Y-45360095D01*
X99876190Y-45360095D02*
X99647619Y-45360095D01*
X99647619Y-45360095D02*
X99571428Y-45322000D01*
X99571428Y-45322000D02*
X99533333Y-45283904D01*
D13*
X102140952Y-36072000D02*
X102255238Y-36110095D01*
X102255238Y-36110095D02*
X102445714Y-36110095D01*
X102445714Y-36110095D02*
X102521905Y-36072000D01*
X102521905Y-36072000D02*
X102560000Y-36033904D01*
X102560000Y-36033904D02*
X102598095Y-35957714D01*
X102598095Y-35957714D02*
X102598095Y-35881523D01*
X102598095Y-35881523D02*
X102560000Y-35805333D01*
X102560000Y-35805333D02*
X102521905Y-35767238D01*
X102521905Y-35767238D02*
X102445714Y-35729142D01*
X102445714Y-35729142D02*
X102293333Y-35691047D01*
X102293333Y-35691047D02*
X102217143Y-35652952D01*
X102217143Y-35652952D02*
X102179048Y-35614857D01*
X102179048Y-35614857D02*
X102140952Y-35538666D01*
X102140952Y-35538666D02*
X102140952Y-35462476D01*
X102140952Y-35462476D02*
X102179048Y-35386285D01*
X102179048Y-35386285D02*
X102217143Y-35348190D01*
X102217143Y-35348190D02*
X102293333Y-35310095D01*
X102293333Y-35310095D02*
X102483810Y-35310095D01*
X102483810Y-35310095D02*
X102598095Y-35348190D01*
X102940953Y-36110095D02*
X102940953Y-35310095D01*
X102940953Y-35691047D02*
X103398096Y-35691047D01*
X103398096Y-36110095D02*
X103398096Y-35310095D01*
X103740952Y-35881523D02*
X104121905Y-35881523D01*
X103664762Y-36110095D02*
X103931429Y-35310095D01*
X103931429Y-35310095D02*
X104198095Y-36110095D01*
X104921905Y-36110095D02*
X104655238Y-35729142D01*
X104464762Y-36110095D02*
X104464762Y-35310095D01*
X104464762Y-35310095D02*
X104769524Y-35310095D01*
X104769524Y-35310095D02*
X104845714Y-35348190D01*
X104845714Y-35348190D02*
X104883809Y-35386285D01*
X104883809Y-35386285D02*
X104921905Y-35462476D01*
X104921905Y-35462476D02*
X104921905Y-35576761D01*
X104921905Y-35576761D02*
X104883809Y-35652952D01*
X104883809Y-35652952D02*
X104845714Y-35691047D01*
X104845714Y-35691047D02*
X104769524Y-35729142D01*
X104769524Y-35729142D02*
X104464762Y-35729142D01*
X105264762Y-36110095D02*
X105264762Y-35310095D01*
X105264762Y-35310095D02*
X105569524Y-35310095D01*
X105569524Y-35310095D02*
X105645714Y-35348190D01*
X105645714Y-35348190D02*
X105683809Y-35386285D01*
X105683809Y-35386285D02*
X105721905Y-35462476D01*
X105721905Y-35462476D02*
X105721905Y-35576761D01*
X105721905Y-35576761D02*
X105683809Y-35652952D01*
X105683809Y-35652952D02*
X105645714Y-35691047D01*
X105645714Y-35691047D02*
X105569524Y-35729142D01*
X105569524Y-35729142D02*
X105264762Y-35729142D01*
X107055238Y-36110095D02*
X106674286Y-36110095D01*
X106674286Y-36110095D02*
X106674286Y-35310095D01*
X107779048Y-36033904D02*
X107740952Y-36072000D01*
X107740952Y-36072000D02*
X107626667Y-36110095D01*
X107626667Y-36110095D02*
X107550476Y-36110095D01*
X107550476Y-36110095D02*
X107436190Y-36072000D01*
X107436190Y-36072000D02*
X107360000Y-35995809D01*
X107360000Y-35995809D02*
X107321905Y-35919619D01*
X107321905Y-35919619D02*
X107283809Y-35767238D01*
X107283809Y-35767238D02*
X107283809Y-35652952D01*
X107283809Y-35652952D02*
X107321905Y-35500571D01*
X107321905Y-35500571D02*
X107360000Y-35424380D01*
X107360000Y-35424380D02*
X107436190Y-35348190D01*
X107436190Y-35348190D02*
X107550476Y-35310095D01*
X107550476Y-35310095D02*
X107626667Y-35310095D01*
X107626667Y-35310095D02*
X107740952Y-35348190D01*
X107740952Y-35348190D02*
X107779048Y-35386285D01*
X108121905Y-36110095D02*
X108121905Y-35310095D01*
X108121905Y-35310095D02*
X108312381Y-35310095D01*
X108312381Y-35310095D02*
X108426667Y-35348190D01*
X108426667Y-35348190D02*
X108502857Y-35424380D01*
X108502857Y-35424380D02*
X108540952Y-35500571D01*
X108540952Y-35500571D02*
X108579048Y-35652952D01*
X108579048Y-35652952D02*
X108579048Y-35767238D01*
X108579048Y-35767238D02*
X108540952Y-35919619D01*
X108540952Y-35919619D02*
X108502857Y-35995809D01*
X108502857Y-35995809D02*
X108426667Y-36072000D01*
X108426667Y-36072000D02*
X108312381Y-36110095D01*
X108312381Y-36110095D02*
X108121905Y-36110095D01*
D14*
X102896667Y-34764333D02*
X102830000Y-34831000D01*
X102830000Y-34831000D02*
X102630000Y-34897666D01*
X102630000Y-34897666D02*
X102496667Y-34897666D01*
X102496667Y-34897666D02*
X102296667Y-34831000D01*
X102296667Y-34831000D02*
X102163334Y-34697666D01*
X102163334Y-34697666D02*
X102096667Y-34564333D01*
X102096667Y-34564333D02*
X102030000Y-34297666D01*
X102030000Y-34297666D02*
X102030000Y-34097666D01*
X102030000Y-34097666D02*
X102096667Y-33831000D01*
X102096667Y-33831000D02*
X102163334Y-33697666D01*
X102163334Y-33697666D02*
X102296667Y-33564333D01*
X102296667Y-33564333D02*
X102496667Y-33497666D01*
X102496667Y-33497666D02*
X102630000Y-33497666D01*
X102630000Y-33497666D02*
X102830000Y-33564333D01*
X102830000Y-33564333D02*
X102896667Y-33631000D01*
X103363334Y-33497666D02*
X104230000Y-33497666D01*
X104230000Y-33497666D02*
X103763334Y-34031000D01*
X103763334Y-34031000D02*
X103963334Y-34031000D01*
X103963334Y-34031000D02*
X104096667Y-34097666D01*
X104096667Y-34097666D02*
X104163334Y-34164333D01*
X104163334Y-34164333D02*
X104230000Y-34297666D01*
X104230000Y-34297666D02*
X104230000Y-34631000D01*
X104230000Y-34631000D02*
X104163334Y-34764333D01*
X104163334Y-34764333D02*
X104096667Y-34831000D01*
X104096667Y-34831000D02*
X103963334Y-34897666D01*
X103963334Y-34897666D02*
X103563334Y-34897666D01*
X103563334Y-34897666D02*
X103430000Y-34831000D01*
X103430000Y-34831000D02*
X103363334Y-34764333D01*
D10*
X100289048Y-59231666D02*
X101050953Y-59231666D01*
X100670000Y-59612619D02*
X100670000Y-58850714D01*
D13*
X111824762Y-32710095D02*
X111824762Y-32100571D01*
X111786667Y-32672000D02*
X111786667Y-32138666D01*
X111748572Y-32672000D02*
X111748572Y-32138666D01*
X111710477Y-32633904D02*
X111710477Y-32176761D01*
X111672381Y-32633904D02*
X111672381Y-32176761D01*
X111634286Y-32595809D02*
X111634286Y-32214857D01*
X111596191Y-32595809D02*
X111596191Y-32214857D01*
X111558096Y-32557714D02*
X111558096Y-32252952D01*
X111520000Y-32519619D02*
X111520000Y-32291047D01*
X111481905Y-32519619D02*
X111481905Y-32291047D01*
X111443810Y-32481523D02*
X111443810Y-32329142D01*
X111405715Y-32481523D02*
X111405715Y-32329142D01*
X111367619Y-32405333D02*
X111329524Y-32405333D01*
X111367619Y-32443428D02*
X111367619Y-32367238D01*
X111862858Y-32710095D02*
X111291429Y-32405333D01*
X111291429Y-32405333D02*
X111862858Y-32100571D01*
X111253334Y-32405333D02*
X111862858Y-32062476D01*
X111862858Y-32062476D02*
X111862858Y-32748190D01*
X111862858Y-32748190D02*
X111253334Y-32405333D01*
X112129524Y-31910095D02*
X112586667Y-31910095D01*
X112358095Y-32710095D02*
X112358095Y-31910095D01*
X113005715Y-31910095D02*
X113158096Y-31910095D01*
X113158096Y-31910095D02*
X113234286Y-31948190D01*
X113234286Y-31948190D02*
X113310477Y-32024380D01*
X113310477Y-32024380D02*
X113348572Y-32176761D01*
X113348572Y-32176761D02*
X113348572Y-32443428D01*
X113348572Y-32443428D02*
X113310477Y-32595809D01*
X113310477Y-32595809D02*
X113234286Y-32672000D01*
X113234286Y-32672000D02*
X113158096Y-32710095D01*
X113158096Y-32710095D02*
X113005715Y-32710095D01*
X113005715Y-32710095D02*
X112929524Y-32672000D01*
X112929524Y-32672000D02*
X112853334Y-32595809D01*
X112853334Y-32595809D02*
X112815238Y-32443428D01*
X112815238Y-32443428D02*
X112815238Y-32176761D01*
X112815238Y-32176761D02*
X112853334Y-32024380D01*
X112853334Y-32024380D02*
X112929524Y-31948190D01*
X112929524Y-31948190D02*
X113005715Y-31910095D01*
X113691429Y-31910095D02*
X113691429Y-32557714D01*
X113691429Y-32557714D02*
X113729524Y-32633904D01*
X113729524Y-32633904D02*
X113767619Y-32672000D01*
X113767619Y-32672000D02*
X113843810Y-32710095D01*
X113843810Y-32710095D02*
X113996191Y-32710095D01*
X113996191Y-32710095D02*
X114072381Y-32672000D01*
X114072381Y-32672000D02*
X114110476Y-32633904D01*
X114110476Y-32633904D02*
X114148572Y-32557714D01*
X114148572Y-32557714D02*
X114148572Y-31910095D01*
X114986667Y-32633904D02*
X114948571Y-32672000D01*
X114948571Y-32672000D02*
X114834286Y-32710095D01*
X114834286Y-32710095D02*
X114758095Y-32710095D01*
X114758095Y-32710095D02*
X114643809Y-32672000D01*
X114643809Y-32672000D02*
X114567619Y-32595809D01*
X114567619Y-32595809D02*
X114529524Y-32519619D01*
X114529524Y-32519619D02*
X114491428Y-32367238D01*
X114491428Y-32367238D02*
X114491428Y-32252952D01*
X114491428Y-32252952D02*
X114529524Y-32100571D01*
X114529524Y-32100571D02*
X114567619Y-32024380D01*
X114567619Y-32024380D02*
X114643809Y-31948190D01*
X114643809Y-31948190D02*
X114758095Y-31910095D01*
X114758095Y-31910095D02*
X114834286Y-31910095D01*
X114834286Y-31910095D02*
X114948571Y-31948190D01*
X114948571Y-31948190D02*
X114986667Y-31986285D01*
X115329524Y-32710095D02*
X115329524Y-31910095D01*
X115329524Y-32291047D02*
X115786667Y-32291047D01*
X115786667Y-32710095D02*
X115786667Y-31910095D01*
D12*
X83279047Y-43051523D02*
X83660000Y-43051523D01*
X83202857Y-43280095D02*
X83469524Y-42480095D01*
X83469524Y-42480095D02*
X83736190Y-43280095D01*
X84002857Y-43280095D02*
X84002857Y-42480095D01*
X84002857Y-42480095D02*
X84193333Y-42480095D01*
X84193333Y-42480095D02*
X84307619Y-42518190D01*
X84307619Y-42518190D02*
X84383809Y-42594380D01*
X84383809Y-42594380D02*
X84421904Y-42670571D01*
X84421904Y-42670571D02*
X84460000Y-42822952D01*
X84460000Y-42822952D02*
X84460000Y-42937238D01*
X84460000Y-42937238D02*
X84421904Y-43089619D01*
X84421904Y-43089619D02*
X84383809Y-43165809D01*
X84383809Y-43165809D02*
X84307619Y-43242000D01*
X84307619Y-43242000D02*
X84193333Y-43280095D01*
X84193333Y-43280095D02*
X84002857Y-43280095D01*
X85260000Y-43203904D02*
X85221904Y-43242000D01*
X85221904Y-43242000D02*
X85107619Y-43280095D01*
X85107619Y-43280095D02*
X85031428Y-43280095D01*
X85031428Y-43280095D02*
X84917142Y-43242000D01*
X84917142Y-43242000D02*
X84840952Y-43165809D01*
X84840952Y-43165809D02*
X84802857Y-43089619D01*
X84802857Y-43089619D02*
X84764761Y-42937238D01*
X84764761Y-42937238D02*
X84764761Y-42822952D01*
X84764761Y-42822952D02*
X84802857Y-42670571D01*
X84802857Y-42670571D02*
X84840952Y-42594380D01*
X84840952Y-42594380D02*
X84917142Y-42518190D01*
X84917142Y-42518190D02*
X85031428Y-42480095D01*
X85031428Y-42480095D02*
X85107619Y-42480095D01*
X85107619Y-42480095D02*
X85221904Y-42518190D01*
X85221904Y-42518190D02*
X85260000Y-42556285D01*
X85602857Y-43203904D02*
X85640952Y-43242000D01*
X85640952Y-43242000D02*
X85602857Y-43280095D01*
X85602857Y-43280095D02*
X85564761Y-43242000D01*
X85564761Y-43242000D02*
X85602857Y-43203904D01*
X85602857Y-43203904D02*
X85602857Y-43280095D01*
X86440952Y-43203904D02*
X86402856Y-43242000D01*
X86402856Y-43242000D02*
X86288571Y-43280095D01*
X86288571Y-43280095D02*
X86212380Y-43280095D01*
X86212380Y-43280095D02*
X86098094Y-43242000D01*
X86098094Y-43242000D02*
X86021904Y-43165809D01*
X86021904Y-43165809D02*
X85983809Y-43089619D01*
X85983809Y-43089619D02*
X85945713Y-42937238D01*
X85945713Y-42937238D02*
X85945713Y-42822952D01*
X85945713Y-42822952D02*
X85983809Y-42670571D01*
X85983809Y-42670571D02*
X86021904Y-42594380D01*
X86021904Y-42594380D02*
X86098094Y-42518190D01*
X86098094Y-42518190D02*
X86212380Y-42480095D01*
X86212380Y-42480095D02*
X86288571Y-42480095D01*
X86288571Y-42480095D02*
X86402856Y-42518190D01*
X86402856Y-42518190D02*
X86440952Y-42556285D01*
X86783809Y-43280095D02*
X86783809Y-42480095D01*
X86783809Y-42861047D02*
X87240952Y-42861047D01*
X87240952Y-43280095D02*
X87240952Y-42480095D01*
X87964761Y-42746761D02*
X87964761Y-43280095D01*
X87774285Y-42442000D02*
X87583808Y-43013428D01*
X87583808Y-43013428D02*
X88079047Y-43013428D01*
D11*
X105429523Y-31072095D02*
X104972380Y-31072095D01*
X105200952Y-31072095D02*
X105200952Y-30272095D01*
X105200952Y-30272095D02*
X105124761Y-30386380D01*
X105124761Y-30386380D02*
X105048571Y-30462571D01*
X105048571Y-30462571D02*
X104972380Y-30500666D01*
X105129523Y-48222095D02*
X104672380Y-48222095D01*
X104900952Y-48222095D02*
X104900952Y-47422095D01*
X104900952Y-47422095D02*
X104824761Y-47536380D01*
X104824761Y-47536380D02*
X104748571Y-47612571D01*
X104748571Y-47612571D02*
X104672380Y-47650666D01*
D15*
X114927618Y-38942619D02*
X114594285Y-38466428D01*
X114356190Y-38942619D02*
X114356190Y-37942619D01*
X114356190Y-37942619D02*
X114737142Y-37942619D01*
X114737142Y-37942619D02*
X114832380Y-37990238D01*
X114832380Y-37990238D02*
X114879999Y-38037857D01*
X114879999Y-38037857D02*
X114927618Y-38133095D01*
X114927618Y-38133095D02*
X114927618Y-38275952D01*
X114927618Y-38275952D02*
X114879999Y-38371190D01*
X114879999Y-38371190D02*
X114832380Y-38418809D01*
X114832380Y-38418809D02*
X114737142Y-38466428D01*
X114737142Y-38466428D02*
X114356190Y-38466428D01*
X115737142Y-38895000D02*
X115641904Y-38942619D01*
X115641904Y-38942619D02*
X115451428Y-38942619D01*
X115451428Y-38942619D02*
X115356190Y-38895000D01*
X115356190Y-38895000D02*
X115308571Y-38799761D01*
X115308571Y-38799761D02*
X115308571Y-38418809D01*
X115308571Y-38418809D02*
X115356190Y-38323571D01*
X115356190Y-38323571D02*
X115451428Y-38275952D01*
X115451428Y-38275952D02*
X115641904Y-38275952D01*
X115641904Y-38275952D02*
X115737142Y-38323571D01*
X115737142Y-38323571D02*
X115784761Y-38418809D01*
X115784761Y-38418809D02*
X115784761Y-38514047D01*
X115784761Y-38514047D02*
X115308571Y-38609285D01*
X116356190Y-38942619D02*
X116260952Y-38895000D01*
X116260952Y-38895000D02*
X116213333Y-38799761D01*
X116213333Y-38799761D02*
X116213333Y-37942619D01*
X118022857Y-38942619D02*
X117451429Y-38942619D01*
X117737143Y-38942619D02*
X117737143Y-37942619D01*
X117737143Y-37942619D02*
X117641905Y-38085476D01*
X117641905Y-38085476D02*
X117546667Y-38180714D01*
X117546667Y-38180714D02*
X117451429Y-38228333D01*
X118451429Y-38847380D02*
X118499048Y-38895000D01*
X118499048Y-38895000D02*
X118451429Y-38942619D01*
X118451429Y-38942619D02*
X118403810Y-38895000D01*
X118403810Y-38895000D02*
X118451429Y-38847380D01*
X118451429Y-38847380D02*
X118451429Y-38942619D01*
X119118095Y-37942619D02*
X119213333Y-37942619D01*
X119213333Y-37942619D02*
X119308571Y-37990238D01*
X119308571Y-37990238D02*
X119356190Y-38037857D01*
X119356190Y-38037857D02*
X119403809Y-38133095D01*
X119403809Y-38133095D02*
X119451428Y-38323571D01*
X119451428Y-38323571D02*
X119451428Y-38561666D01*
X119451428Y-38561666D02*
X119403809Y-38752142D01*
X119403809Y-38752142D02*
X119356190Y-38847380D01*
X119356190Y-38847380D02*
X119308571Y-38895000D01*
X119308571Y-38895000D02*
X119213333Y-38942619D01*
X119213333Y-38942619D02*
X119118095Y-38942619D01*
X119118095Y-38942619D02*
X119022857Y-38895000D01*
X119022857Y-38895000D02*
X118975238Y-38847380D01*
X118975238Y-38847380D02*
X118927619Y-38752142D01*
X118927619Y-38752142D02*
X118880000Y-38561666D01*
X118880000Y-38561666D02*
X118880000Y-38323571D01*
X118880000Y-38323571D02*
X118927619Y-38133095D01*
X118927619Y-38133095D02*
X118975238Y-38037857D01*
X118975238Y-38037857D02*
X119022857Y-37990238D01*
X119022857Y-37990238D02*
X119118095Y-37942619D01*
D11*
X81776667Y-42430095D02*
X81510000Y-42049142D01*
X81319524Y-42430095D02*
X81319524Y-41630095D01*
X81319524Y-41630095D02*
X81624286Y-41630095D01*
X81624286Y-41630095D02*
X81700476Y-41668190D01*
X81700476Y-41668190D02*
X81738571Y-41706285D01*
X81738571Y-41706285D02*
X81776667Y-41782476D01*
X81776667Y-41782476D02*
X81776667Y-41896761D01*
X81776667Y-41896761D02*
X81738571Y-41972952D01*
X81738571Y-41972952D02*
X81700476Y-42011047D01*
X81700476Y-42011047D02*
X81624286Y-42049142D01*
X81624286Y-42049142D02*
X81319524Y-42049142D01*
X82081428Y-41706285D02*
X82119524Y-41668190D01*
X82119524Y-41668190D02*
X82195714Y-41630095D01*
X82195714Y-41630095D02*
X82386190Y-41630095D01*
X82386190Y-41630095D02*
X82462381Y-41668190D01*
X82462381Y-41668190D02*
X82500476Y-41706285D01*
X82500476Y-41706285D02*
X82538571Y-41782476D01*
X82538571Y-41782476D02*
X82538571Y-41858666D01*
X82538571Y-41858666D02*
X82500476Y-41972952D01*
X82500476Y-41972952D02*
X82043333Y-42430095D01*
X82043333Y-42430095D02*
X82538571Y-42430095D01*
D10*
X100458095Y-45532619D02*
X100458095Y-46342142D01*
X100458095Y-46342142D02*
X100505714Y-46437380D01*
X100505714Y-46437380D02*
X100553333Y-46485000D01*
X100553333Y-46485000D02*
X100648571Y-46532619D01*
X100648571Y-46532619D02*
X100839047Y-46532619D01*
X100839047Y-46532619D02*
X100934285Y-46485000D01*
X100934285Y-46485000D02*
X100981904Y-46437380D01*
X100981904Y-46437380D02*
X101029523Y-46342142D01*
X101029523Y-46342142D02*
X101029523Y-45532619D01*
X102029523Y-46532619D02*
X101458095Y-46532619D01*
X101743809Y-46532619D02*
X101743809Y-45532619D01*
X101743809Y-45532619D02*
X101648571Y-45675476D01*
X101648571Y-45675476D02*
X101553333Y-45770714D01*
X101553333Y-45770714D02*
X101458095Y-45818333D01*
X100580000Y-54592619D02*
X100580000Y-54830714D01*
X100341905Y-54735476D02*
X100580000Y-54830714D01*
X100580000Y-54830714D02*
X100818095Y-54735476D01*
X100437143Y-55021190D02*
X100580000Y-54830714D01*
X100580000Y-54830714D02*
X100722857Y-55021190D01*
X98072261Y-39887857D02*
X97977023Y-39840238D01*
X97977023Y-39840238D02*
X97881785Y-39745000D01*
X97881785Y-39745000D02*
X97738928Y-39602142D01*
X97738928Y-39602142D02*
X97643690Y-39554523D01*
X97643690Y-39554523D02*
X97548452Y-39554523D01*
X97596071Y-39792619D02*
X97500833Y-39745000D01*
X97500833Y-39745000D02*
X97405595Y-39649761D01*
X97405595Y-39649761D02*
X97357976Y-39459285D01*
X97357976Y-39459285D02*
X97357976Y-39125952D01*
X97357976Y-39125952D02*
X97405595Y-38935476D01*
X97405595Y-38935476D02*
X97500833Y-38840238D01*
X97500833Y-38840238D02*
X97596071Y-38792619D01*
X97596071Y-38792619D02*
X97786547Y-38792619D01*
X97786547Y-38792619D02*
X97881785Y-38840238D01*
X97881785Y-38840238D02*
X97977023Y-38935476D01*
X97977023Y-38935476D02*
X98024642Y-39125952D01*
X98024642Y-39125952D02*
X98024642Y-39459285D01*
X98024642Y-39459285D02*
X97977023Y-39649761D01*
X97977023Y-39649761D02*
X97881785Y-39745000D01*
X97881785Y-39745000D02*
X97786547Y-39792619D01*
X97786547Y-39792619D02*
X97596071Y-39792619D01*
X98405595Y-38887857D02*
X98453214Y-38840238D01*
X98453214Y-38840238D02*
X98548452Y-38792619D01*
X98548452Y-38792619D02*
X98786547Y-38792619D01*
X98786547Y-38792619D02*
X98881785Y-38840238D01*
X98881785Y-38840238D02*
X98929404Y-38887857D01*
X98929404Y-38887857D02*
X98977023Y-38983095D01*
X98977023Y-38983095D02*
X98977023Y-39078333D01*
X98977023Y-39078333D02*
X98929404Y-39221190D01*
X98929404Y-39221190D02*
X98357976Y-39792619D01*
X98357976Y-39792619D02*
X98977023Y-39792619D01*
D11*
X75120095Y-44244285D02*
X74739142Y-44510952D01*
X75120095Y-44701428D02*
X74320095Y-44701428D01*
X74320095Y-44701428D02*
X74320095Y-44396666D01*
X74320095Y-44396666D02*
X74358190Y-44320476D01*
X74358190Y-44320476D02*
X74396285Y-44282381D01*
X74396285Y-44282381D02*
X74472476Y-44244285D01*
X74472476Y-44244285D02*
X74586761Y-44244285D01*
X74586761Y-44244285D02*
X74662952Y-44282381D01*
X74662952Y-44282381D02*
X74701047Y-44320476D01*
X74701047Y-44320476D02*
X74739142Y-44396666D01*
X74739142Y-44396666D02*
X74739142Y-44701428D01*
X75120095Y-43482381D02*
X75120095Y-43939524D01*
X75120095Y-43710952D02*
X74320095Y-43710952D01*
X74320095Y-43710952D02*
X74434380Y-43787143D01*
X74434380Y-43787143D02*
X74510571Y-43863333D01*
X74510571Y-43863333D02*
X74548666Y-43939524D01*
X74320095Y-43215714D02*
X74320095Y-42720476D01*
X74320095Y-42720476D02*
X74624857Y-42987142D01*
X74624857Y-42987142D02*
X74624857Y-42872857D01*
X74624857Y-42872857D02*
X74662952Y-42796666D01*
X74662952Y-42796666D02*
X74701047Y-42758571D01*
X74701047Y-42758571D02*
X74777238Y-42720476D01*
X74777238Y-42720476D02*
X74967714Y-42720476D01*
X74967714Y-42720476D02*
X75043904Y-42758571D01*
X75043904Y-42758571D02*
X75082000Y-42796666D01*
X75082000Y-42796666D02*
X75120095Y-42872857D01*
X75120095Y-42872857D02*
X75120095Y-43101428D01*
X75120095Y-43101428D02*
X75082000Y-43177619D01*
X75082000Y-43177619D02*
X75043904Y-43215714D01*
X86838095Y-43802619D02*
X87409523Y-43802619D01*
X87123809Y-44802619D02*
X87123809Y-43802619D01*
X87742857Y-44802619D02*
X87742857Y-43802619D01*
X87742857Y-43802619D02*
X88123809Y-43802619D01*
X88123809Y-43802619D02*
X88219047Y-43850238D01*
X88219047Y-43850238D02*
X88266666Y-43897857D01*
X88266666Y-43897857D02*
X88314285Y-43993095D01*
X88314285Y-43993095D02*
X88314285Y-44135952D01*
X88314285Y-44135952D02*
X88266666Y-44231190D01*
X88266666Y-44231190D02*
X88219047Y-44278809D01*
X88219047Y-44278809D02*
X88123809Y-44326428D01*
X88123809Y-44326428D02*
X87742857Y-44326428D01*
X89266666Y-44802619D02*
X88695238Y-44802619D01*
X88980952Y-44802619D02*
X88980952Y-43802619D01*
X88980952Y-43802619D02*
X88885714Y-43945476D01*
X88885714Y-43945476D02*
X88790476Y-44040714D01*
X88790476Y-44040714D02*
X88695238Y-44088333D01*
X79225714Y-50113904D02*
X79187618Y-50152000D01*
X79187618Y-50152000D02*
X79073333Y-50190095D01*
X79073333Y-50190095D02*
X78997142Y-50190095D01*
X78997142Y-50190095D02*
X78882856Y-50152000D01*
X78882856Y-50152000D02*
X78806666Y-50075809D01*
X78806666Y-50075809D02*
X78768571Y-49999619D01*
X78768571Y-49999619D02*
X78730475Y-49847238D01*
X78730475Y-49847238D02*
X78730475Y-49732952D01*
X78730475Y-49732952D02*
X78768571Y-49580571D01*
X78768571Y-49580571D02*
X78806666Y-49504380D01*
X78806666Y-49504380D02*
X78882856Y-49428190D01*
X78882856Y-49428190D02*
X78997142Y-49390095D01*
X78997142Y-49390095D02*
X79073333Y-49390095D01*
X79073333Y-49390095D02*
X79187618Y-49428190D01*
X79187618Y-49428190D02*
X79225714Y-49466285D01*
X79987618Y-50190095D02*
X79530475Y-50190095D01*
X79759047Y-50190095D02*
X79759047Y-49390095D01*
X79759047Y-49390095D02*
X79682856Y-49504380D01*
X79682856Y-49504380D02*
X79606666Y-49580571D01*
X79606666Y-49580571D02*
X79530475Y-49618666D01*
X80444761Y-49732952D02*
X80368571Y-49694857D01*
X80368571Y-49694857D02*
X80330476Y-49656761D01*
X80330476Y-49656761D02*
X80292380Y-49580571D01*
X80292380Y-49580571D02*
X80292380Y-49542476D01*
X80292380Y-49542476D02*
X80330476Y-49466285D01*
X80330476Y-49466285D02*
X80368571Y-49428190D01*
X80368571Y-49428190D02*
X80444761Y-49390095D01*
X80444761Y-49390095D02*
X80597142Y-49390095D01*
X80597142Y-49390095D02*
X80673333Y-49428190D01*
X80673333Y-49428190D02*
X80711428Y-49466285D01*
X80711428Y-49466285D02*
X80749523Y-49542476D01*
X80749523Y-49542476D02*
X80749523Y-49580571D01*
X80749523Y-49580571D02*
X80711428Y-49656761D01*
X80711428Y-49656761D02*
X80673333Y-49694857D01*
X80673333Y-49694857D02*
X80597142Y-49732952D01*
X80597142Y-49732952D02*
X80444761Y-49732952D01*
X80444761Y-49732952D02*
X80368571Y-49771047D01*
X80368571Y-49771047D02*
X80330476Y-49809142D01*
X80330476Y-49809142D02*
X80292380Y-49885333D01*
X80292380Y-49885333D02*
X80292380Y-50037714D01*
X80292380Y-50037714D02*
X80330476Y-50113904D01*
X80330476Y-50113904D02*
X80368571Y-50152000D01*
X80368571Y-50152000D02*
X80444761Y-50190095D01*
X80444761Y-50190095D02*
X80597142Y-50190095D01*
X80597142Y-50190095D02*
X80673333Y-50152000D01*
X80673333Y-50152000D02*
X80711428Y-50113904D01*
X80711428Y-50113904D02*
X80749523Y-50037714D01*
X80749523Y-50037714D02*
X80749523Y-49885333D01*
X80749523Y-49885333D02*
X80711428Y-49809142D01*
X80711428Y-49809142D02*
X80673333Y-49771047D01*
X80673333Y-49771047D02*
X80597142Y-49732952D01*
X112576667Y-37120095D02*
X112310000Y-36739142D01*
X112119524Y-37120095D02*
X112119524Y-36320095D01*
X112119524Y-36320095D02*
X112424286Y-36320095D01*
X112424286Y-36320095D02*
X112500476Y-36358190D01*
X112500476Y-36358190D02*
X112538571Y-36396285D01*
X112538571Y-36396285D02*
X112576667Y-36472476D01*
X112576667Y-36472476D02*
X112576667Y-36586761D01*
X112576667Y-36586761D02*
X112538571Y-36662952D01*
X112538571Y-36662952D02*
X112500476Y-36701047D01*
X112500476Y-36701047D02*
X112424286Y-36739142D01*
X112424286Y-36739142D02*
X112119524Y-36739142D01*
X113262381Y-36586761D02*
X113262381Y-37120095D01*
X113071905Y-36282000D02*
X112881428Y-36853428D01*
X112881428Y-36853428D02*
X113376667Y-36853428D01*
D10*
X76148095Y-47062619D02*
X76148095Y-47872142D01*
X76148095Y-47872142D02*
X76195714Y-47967380D01*
X76195714Y-47967380D02*
X76243333Y-48015000D01*
X76243333Y-48015000D02*
X76338571Y-48062619D01*
X76338571Y-48062619D02*
X76529047Y-48062619D01*
X76529047Y-48062619D02*
X76624285Y-48015000D01*
X76624285Y-48015000D02*
X76671904Y-47967380D01*
X76671904Y-47967380D02*
X76719523Y-47872142D01*
X76719523Y-47872142D02*
X76719523Y-47062619D01*
X77671904Y-47062619D02*
X77195714Y-47062619D01*
X77195714Y-47062619D02*
X77148095Y-47538809D01*
X77148095Y-47538809D02*
X77195714Y-47491190D01*
X77195714Y-47491190D02*
X77290952Y-47443571D01*
X77290952Y-47443571D02*
X77529047Y-47443571D01*
X77529047Y-47443571D02*
X77624285Y-47491190D01*
X77624285Y-47491190D02*
X77671904Y-47538809D01*
X77671904Y-47538809D02*
X77719523Y-47634047D01*
X77719523Y-47634047D02*
X77719523Y-47872142D01*
X77719523Y-47872142D02*
X77671904Y-47967380D01*
X77671904Y-47967380D02*
X77624285Y-48015000D01*
X77624285Y-48015000D02*
X77529047Y-48062619D01*
X77529047Y-48062619D02*
X77290952Y-48062619D01*
X77290952Y-48062619D02*
X77195714Y-48015000D01*
X77195714Y-48015000D02*
X77148095Y-47967380D01*
D11*
X95439524Y-30940095D02*
X95439524Y-30140095D01*
X95439524Y-30140095D02*
X95630000Y-30140095D01*
X95630000Y-30140095D02*
X95744286Y-30178190D01*
X95744286Y-30178190D02*
X95820476Y-30254380D01*
X95820476Y-30254380D02*
X95858571Y-30330571D01*
X95858571Y-30330571D02*
X95896667Y-30482952D01*
X95896667Y-30482952D02*
X95896667Y-30597238D01*
X95896667Y-30597238D02*
X95858571Y-30749619D01*
X95858571Y-30749619D02*
X95820476Y-30825809D01*
X95820476Y-30825809D02*
X95744286Y-30902000D01*
X95744286Y-30902000D02*
X95630000Y-30940095D01*
X95630000Y-30940095D02*
X95439524Y-30940095D01*
X96582381Y-30140095D02*
X96430000Y-30140095D01*
X96430000Y-30140095D02*
X96353809Y-30178190D01*
X96353809Y-30178190D02*
X96315714Y-30216285D01*
X96315714Y-30216285D02*
X96239524Y-30330571D01*
X96239524Y-30330571D02*
X96201428Y-30482952D01*
X96201428Y-30482952D02*
X96201428Y-30787714D01*
X96201428Y-30787714D02*
X96239524Y-30863904D01*
X96239524Y-30863904D02*
X96277619Y-30902000D01*
X96277619Y-30902000D02*
X96353809Y-30940095D01*
X96353809Y-30940095D02*
X96506190Y-30940095D01*
X96506190Y-30940095D02*
X96582381Y-30902000D01*
X96582381Y-30902000D02*
X96620476Y-30863904D01*
X96620476Y-30863904D02*
X96658571Y-30787714D01*
X96658571Y-30787714D02*
X96658571Y-30597238D01*
X96658571Y-30597238D02*
X96620476Y-30521047D01*
X96620476Y-30521047D02*
X96582381Y-30482952D01*
X96582381Y-30482952D02*
X96506190Y-30444857D01*
X96506190Y-30444857D02*
X96353809Y-30444857D01*
X96353809Y-30444857D02*
X96277619Y-30482952D01*
X96277619Y-30482952D02*
X96239524Y-30521047D01*
X96239524Y-30521047D02*
X96201428Y-30597238D01*
D10*
X83468095Y-30412619D02*
X83468095Y-31222142D01*
X83468095Y-31222142D02*
X83515714Y-31317380D01*
X83515714Y-31317380D02*
X83563333Y-31365000D01*
X83563333Y-31365000D02*
X83658571Y-31412619D01*
X83658571Y-31412619D02*
X83849047Y-31412619D01*
X83849047Y-31412619D02*
X83944285Y-31365000D01*
X83944285Y-31365000D02*
X83991904Y-31317380D01*
X83991904Y-31317380D02*
X84039523Y-31222142D01*
X84039523Y-31222142D02*
X84039523Y-30412619D01*
X84468095Y-30507857D02*
X84515714Y-30460238D01*
X84515714Y-30460238D02*
X84610952Y-30412619D01*
X84610952Y-30412619D02*
X84849047Y-30412619D01*
X84849047Y-30412619D02*
X84944285Y-30460238D01*
X84944285Y-30460238D02*
X84991904Y-30507857D01*
X84991904Y-30507857D02*
X85039523Y-30603095D01*
X85039523Y-30603095D02*
X85039523Y-30698333D01*
X85039523Y-30698333D02*
X84991904Y-30841190D01*
X84991904Y-30841190D02*
X84420476Y-31412619D01*
X84420476Y-31412619D02*
X85039523Y-31412619D01*
D11*
X89668095Y-32322619D02*
X89668095Y-33132142D01*
X89668095Y-33132142D02*
X89715714Y-33227380D01*
X89715714Y-33227380D02*
X89763333Y-33275000D01*
X89763333Y-33275000D02*
X89858571Y-33322619D01*
X89858571Y-33322619D02*
X90049047Y-33322619D01*
X90049047Y-33322619D02*
X90144285Y-33275000D01*
X90144285Y-33275000D02*
X90191904Y-33227380D01*
X90191904Y-33227380D02*
X90239523Y-33132142D01*
X90239523Y-33132142D02*
X90239523Y-32322619D01*
X91144285Y-32655952D02*
X91144285Y-33322619D01*
X90906190Y-32275000D02*
X90668095Y-32989285D01*
X90668095Y-32989285D02*
X91287142Y-32989285D01*
D10*
X91932619Y-33099999D02*
X92170714Y-33099999D01*
X92075476Y-33338094D02*
X92170714Y-33099999D01*
X92170714Y-33099999D02*
X92075476Y-32861904D01*
X92361190Y-33242856D02*
X92170714Y-33099999D01*
X92170714Y-33099999D02*
X92361190Y-32957142D01*
X84542619Y-48341666D02*
X84066428Y-48674999D01*
X84542619Y-48913094D02*
X83542619Y-48913094D01*
X83542619Y-48913094D02*
X83542619Y-48532142D01*
X83542619Y-48532142D02*
X83590238Y-48436904D01*
X83590238Y-48436904D02*
X83637857Y-48389285D01*
X83637857Y-48389285D02*
X83733095Y-48341666D01*
X83733095Y-48341666D02*
X83875952Y-48341666D01*
X83875952Y-48341666D02*
X83971190Y-48389285D01*
X83971190Y-48389285D02*
X84018809Y-48436904D01*
X84018809Y-48436904D02*
X84066428Y-48532142D01*
X84066428Y-48532142D02*
X84066428Y-48913094D01*
X83542619Y-48008332D02*
X83542619Y-47389285D01*
X83542619Y-47389285D02*
X83923571Y-47722618D01*
X83923571Y-47722618D02*
X83923571Y-47579761D01*
X83923571Y-47579761D02*
X83971190Y-47484523D01*
X83971190Y-47484523D02*
X84018809Y-47436904D01*
X84018809Y-47436904D02*
X84114047Y-47389285D01*
X84114047Y-47389285D02*
X84352142Y-47389285D01*
X84352142Y-47389285D02*
X84447380Y-47436904D01*
X84447380Y-47436904D02*
X84495000Y-47484523D01*
X84495000Y-47484523D02*
X84542619Y-47579761D01*
X84542619Y-47579761D02*
X84542619Y-47865475D01*
X84542619Y-47865475D02*
X84495000Y-47960713D01*
X84495000Y-47960713D02*
X84447380Y-48008332D01*
D11*
X93675714Y-43940095D02*
X93409047Y-43559142D01*
X93218571Y-43940095D02*
X93218571Y-43140095D01*
X93218571Y-43140095D02*
X93523333Y-43140095D01*
X93523333Y-43140095D02*
X93599523Y-43178190D01*
X93599523Y-43178190D02*
X93637618Y-43216285D01*
X93637618Y-43216285D02*
X93675714Y-43292476D01*
X93675714Y-43292476D02*
X93675714Y-43406761D01*
X93675714Y-43406761D02*
X93637618Y-43482952D01*
X93637618Y-43482952D02*
X93599523Y-43521047D01*
X93599523Y-43521047D02*
X93523333Y-43559142D01*
X93523333Y-43559142D02*
X93218571Y-43559142D01*
X94437618Y-43940095D02*
X93980475Y-43940095D01*
X94209047Y-43940095D02*
X94209047Y-43140095D01*
X94209047Y-43140095D02*
X94132856Y-43254380D01*
X94132856Y-43254380D02*
X94056666Y-43330571D01*
X94056666Y-43330571D02*
X93980475Y-43368666D01*
X94932857Y-43140095D02*
X95009047Y-43140095D01*
X95009047Y-43140095D02*
X95085238Y-43178190D01*
X95085238Y-43178190D02*
X95123333Y-43216285D01*
X95123333Y-43216285D02*
X95161428Y-43292476D01*
X95161428Y-43292476D02*
X95199523Y-43444857D01*
X95199523Y-43444857D02*
X95199523Y-43635333D01*
X95199523Y-43635333D02*
X95161428Y-43787714D01*
X95161428Y-43787714D02*
X95123333Y-43863904D01*
X95123333Y-43863904D02*
X95085238Y-43902000D01*
X95085238Y-43902000D02*
X95009047Y-43940095D01*
X95009047Y-43940095D02*
X94932857Y-43940095D01*
X94932857Y-43940095D02*
X94856666Y-43902000D01*
X94856666Y-43902000D02*
X94818571Y-43863904D01*
X94818571Y-43863904D02*
X94780476Y-43787714D01*
X94780476Y-43787714D02*
X94742380Y-43635333D01*
X94742380Y-43635333D02*
X94742380Y-43444857D01*
X94742380Y-43444857D02*
X94780476Y-43292476D01*
X94780476Y-43292476D02*
X94818571Y-43216285D01*
X94818571Y-43216285D02*
X94856666Y-43178190D01*
X94856666Y-43178190D02*
X94932857Y-43140095D01*
D10*
X74194761Y-50597857D02*
X74099523Y-50550238D01*
X74099523Y-50550238D02*
X74004285Y-50455000D01*
X74004285Y-50455000D02*
X73861428Y-50312142D01*
X73861428Y-50312142D02*
X73766190Y-50264523D01*
X73766190Y-50264523D02*
X73670952Y-50264523D01*
X73718571Y-50502619D02*
X73623333Y-50455000D01*
X73623333Y-50455000D02*
X73528095Y-50359761D01*
X73528095Y-50359761D02*
X73480476Y-50169285D01*
X73480476Y-50169285D02*
X73480476Y-49835952D01*
X73480476Y-49835952D02*
X73528095Y-49645476D01*
X73528095Y-49645476D02*
X73623333Y-49550238D01*
X73623333Y-49550238D02*
X73718571Y-49502619D01*
X73718571Y-49502619D02*
X73909047Y-49502619D01*
X73909047Y-49502619D02*
X74004285Y-49550238D01*
X74004285Y-49550238D02*
X74099523Y-49645476D01*
X74099523Y-49645476D02*
X74147142Y-49835952D01*
X74147142Y-49835952D02*
X74147142Y-50169285D01*
X74147142Y-50169285D02*
X74099523Y-50359761D01*
X74099523Y-50359761D02*
X74004285Y-50455000D01*
X74004285Y-50455000D02*
X73909047Y-50502619D01*
X73909047Y-50502619D02*
X73718571Y-50502619D01*
X75004285Y-49835952D02*
X75004285Y-50502619D01*
X74766190Y-49455000D02*
X74528095Y-50169285D01*
X74528095Y-50169285D02*
X75147142Y-50169285D01*
D15*
X82975238Y-57806666D02*
X84403809Y-57806666D01*
X84403809Y-57806666D02*
X84689523Y-57901905D01*
X84689523Y-57901905D02*
X84880000Y-58092381D01*
X84880000Y-58092381D02*
X84975238Y-58378095D01*
X84975238Y-58378095D02*
X84975238Y-58568571D01*
X82975238Y-57044761D02*
X82975238Y-55806666D01*
X82975238Y-55806666D02*
X83737142Y-56473333D01*
X83737142Y-56473333D02*
X83737142Y-56187618D01*
X83737142Y-56187618D02*
X83832380Y-55997142D01*
X83832380Y-55997142D02*
X83927619Y-55901904D01*
X83927619Y-55901904D02*
X84118095Y-55806666D01*
X84118095Y-55806666D02*
X84594285Y-55806666D01*
X84594285Y-55806666D02*
X84784761Y-55901904D01*
X84784761Y-55901904D02*
X84880000Y-55997142D01*
X84880000Y-55997142D02*
X84975238Y-56187618D01*
X84975238Y-56187618D02*
X84975238Y-56759047D01*
X84975238Y-56759047D02*
X84880000Y-56949523D01*
X84880000Y-56949523D02*
X84784761Y-57044761D01*
D10*
X79341905Y-45722619D02*
X79341905Y-44722619D01*
X79341905Y-44722619D02*
X79580000Y-44722619D01*
X79580000Y-44722619D02*
X79722857Y-44770238D01*
X79722857Y-44770238D02*
X79818095Y-44865476D01*
X79818095Y-44865476D02*
X79865714Y-44960714D01*
X79865714Y-44960714D02*
X79913333Y-45151190D01*
X79913333Y-45151190D02*
X79913333Y-45294047D01*
X79913333Y-45294047D02*
X79865714Y-45484523D01*
X79865714Y-45484523D02*
X79818095Y-45579761D01*
X79818095Y-45579761D02*
X79722857Y-45675000D01*
X79722857Y-45675000D02*
X79580000Y-45722619D01*
X79580000Y-45722619D02*
X79341905Y-45722619D01*
X80818095Y-44722619D02*
X80341905Y-44722619D01*
X80341905Y-44722619D02*
X80294286Y-45198809D01*
X80294286Y-45198809D02*
X80341905Y-45151190D01*
X80341905Y-45151190D02*
X80437143Y-45103571D01*
X80437143Y-45103571D02*
X80675238Y-45103571D01*
X80675238Y-45103571D02*
X80770476Y-45151190D01*
X80770476Y-45151190D02*
X80818095Y-45198809D01*
X80818095Y-45198809D02*
X80865714Y-45294047D01*
X80865714Y-45294047D02*
X80865714Y-45532142D01*
X80865714Y-45532142D02*
X80818095Y-45627380D01*
X80818095Y-45627380D02*
X80770476Y-45675000D01*
X80770476Y-45675000D02*
X80675238Y-45722619D01*
X80675238Y-45722619D02*
X80437143Y-45722619D01*
X80437143Y-45722619D02*
X80341905Y-45675000D01*
X80341905Y-45675000D02*
X80294286Y-45627380D01*
X101933333Y-43572619D02*
X101600000Y-43096428D01*
X101361905Y-43572619D02*
X101361905Y-42572619D01*
X101361905Y-42572619D02*
X101742857Y-42572619D01*
X101742857Y-42572619D02*
X101838095Y-42620238D01*
X101838095Y-42620238D02*
X101885714Y-42667857D01*
X101885714Y-42667857D02*
X101933333Y-42763095D01*
X101933333Y-42763095D02*
X101933333Y-42905952D01*
X101933333Y-42905952D02*
X101885714Y-43001190D01*
X101885714Y-43001190D02*
X101838095Y-43048809D01*
X101838095Y-43048809D02*
X101742857Y-43096428D01*
X101742857Y-43096428D02*
X101361905Y-43096428D01*
X102409524Y-43572619D02*
X102600000Y-43572619D01*
X102600000Y-43572619D02*
X102695238Y-43525000D01*
X102695238Y-43525000D02*
X102742857Y-43477380D01*
X102742857Y-43477380D02*
X102838095Y-43334523D01*
X102838095Y-43334523D02*
X102885714Y-43144047D01*
X102885714Y-43144047D02*
X102885714Y-42763095D01*
X102885714Y-42763095D02*
X102838095Y-42667857D01*
X102838095Y-42667857D02*
X102790476Y-42620238D01*
X102790476Y-42620238D02*
X102695238Y-42572619D01*
X102695238Y-42572619D02*
X102504762Y-42572619D01*
X102504762Y-42572619D02*
X102409524Y-42620238D01*
X102409524Y-42620238D02*
X102361905Y-42667857D01*
X102361905Y-42667857D02*
X102314286Y-42763095D01*
X102314286Y-42763095D02*
X102314286Y-43001190D01*
X102314286Y-43001190D02*
X102361905Y-43096428D01*
X102361905Y-43096428D02*
X102409524Y-43144047D01*
X102409524Y-43144047D02*
X102504762Y-43191666D01*
X102504762Y-43191666D02*
X102695238Y-43191666D01*
X102695238Y-43191666D02*
X102790476Y-43144047D01*
X102790476Y-43144047D02*
X102838095Y-43096428D01*
X102838095Y-43096428D02*
X102885714Y-43001190D01*
D11*
X77295714Y-40943904D02*
X77257618Y-40982000D01*
X77257618Y-40982000D02*
X77143333Y-41020095D01*
X77143333Y-41020095D02*
X77067142Y-41020095D01*
X77067142Y-41020095D02*
X76952856Y-40982000D01*
X76952856Y-40982000D02*
X76876666Y-40905809D01*
X76876666Y-40905809D02*
X76838571Y-40829619D01*
X76838571Y-40829619D02*
X76800475Y-40677238D01*
X76800475Y-40677238D02*
X76800475Y-40562952D01*
X76800475Y-40562952D02*
X76838571Y-40410571D01*
X76838571Y-40410571D02*
X76876666Y-40334380D01*
X76876666Y-40334380D02*
X76952856Y-40258190D01*
X76952856Y-40258190D02*
X77067142Y-40220095D01*
X77067142Y-40220095D02*
X77143333Y-40220095D01*
X77143333Y-40220095D02*
X77257618Y-40258190D01*
X77257618Y-40258190D02*
X77295714Y-40296285D01*
X78057618Y-41020095D02*
X77600475Y-41020095D01*
X77829047Y-41020095D02*
X77829047Y-40220095D01*
X77829047Y-40220095D02*
X77752856Y-40334380D01*
X77752856Y-40334380D02*
X77676666Y-40410571D01*
X77676666Y-40410571D02*
X77600475Y-40448666D01*
X78438571Y-41020095D02*
X78590952Y-41020095D01*
X78590952Y-41020095D02*
X78667142Y-40982000D01*
X78667142Y-40982000D02*
X78705238Y-40943904D01*
X78705238Y-40943904D02*
X78781428Y-40829619D01*
X78781428Y-40829619D02*
X78819523Y-40677238D01*
X78819523Y-40677238D02*
X78819523Y-40372476D01*
X78819523Y-40372476D02*
X78781428Y-40296285D01*
X78781428Y-40296285D02*
X78743333Y-40258190D01*
X78743333Y-40258190D02*
X78667142Y-40220095D01*
X78667142Y-40220095D02*
X78514761Y-40220095D01*
X78514761Y-40220095D02*
X78438571Y-40258190D01*
X78438571Y-40258190D02*
X78400476Y-40296285D01*
X78400476Y-40296285D02*
X78362380Y-40372476D01*
X78362380Y-40372476D02*
X78362380Y-40562952D01*
X78362380Y-40562952D02*
X78400476Y-40639142D01*
X78400476Y-40639142D02*
X78438571Y-40677238D01*
X78438571Y-40677238D02*
X78514761Y-40715333D01*
X78514761Y-40715333D02*
X78667142Y-40715333D01*
X78667142Y-40715333D02*
X78743333Y-40677238D01*
X78743333Y-40677238D02*
X78781428Y-40639142D01*
X78781428Y-40639142D02*
X78819523Y-40562952D01*
X92306667Y-39760095D02*
X92040000Y-39379142D01*
X91849524Y-39760095D02*
X91849524Y-38960095D01*
X91849524Y-38960095D02*
X92154286Y-38960095D01*
X92154286Y-38960095D02*
X92230476Y-38998190D01*
X92230476Y-38998190D02*
X92268571Y-39036285D01*
X92268571Y-39036285D02*
X92306667Y-39112476D01*
X92306667Y-39112476D02*
X92306667Y-39226761D01*
X92306667Y-39226761D02*
X92268571Y-39302952D01*
X92268571Y-39302952D02*
X92230476Y-39341047D01*
X92230476Y-39341047D02*
X92154286Y-39379142D01*
X92154286Y-39379142D02*
X91849524Y-39379142D01*
X92573333Y-38960095D02*
X93106667Y-38960095D01*
X93106667Y-38960095D02*
X92763809Y-39760095D01*
D10*
X103509642Y-52707380D02*
X103462023Y-52755000D01*
X103462023Y-52755000D02*
X103319166Y-52802619D01*
X103319166Y-52802619D02*
X103223928Y-52802619D01*
X103223928Y-52802619D02*
X103081071Y-52755000D01*
X103081071Y-52755000D02*
X102985833Y-52659761D01*
X102985833Y-52659761D02*
X102938214Y-52564523D01*
X102938214Y-52564523D02*
X102890595Y-52374047D01*
X102890595Y-52374047D02*
X102890595Y-52231190D01*
X102890595Y-52231190D02*
X102938214Y-52040714D01*
X102938214Y-52040714D02*
X102985833Y-51945476D01*
X102985833Y-51945476D02*
X103081071Y-51850238D01*
X103081071Y-51850238D02*
X103223928Y-51802619D01*
X103223928Y-51802619D02*
X103319166Y-51802619D01*
X103319166Y-51802619D02*
X103462023Y-51850238D01*
X103462023Y-51850238D02*
X103509642Y-51897857D01*
X104462023Y-52802619D02*
X103890595Y-52802619D01*
X104176309Y-52802619D02*
X104176309Y-51802619D01*
X104176309Y-51802619D02*
X104081071Y-51945476D01*
X104081071Y-51945476D02*
X103985833Y-52040714D01*
X103985833Y-52040714D02*
X103890595Y-52088333D01*
X105319166Y-51802619D02*
X105128690Y-51802619D01*
X105128690Y-51802619D02*
X105033452Y-51850238D01*
X105033452Y-51850238D02*
X104985833Y-51897857D01*
X104985833Y-51897857D02*
X104890595Y-52040714D01*
X104890595Y-52040714D02*
X104842976Y-52231190D01*
X104842976Y-52231190D02*
X104842976Y-52612142D01*
X104842976Y-52612142D02*
X104890595Y-52707380D01*
X104890595Y-52707380D02*
X104938214Y-52755000D01*
X104938214Y-52755000D02*
X105033452Y-52802619D01*
X105033452Y-52802619D02*
X105223928Y-52802619D01*
X105223928Y-52802619D02*
X105319166Y-52755000D01*
X105319166Y-52755000D02*
X105366785Y-52707380D01*
X105366785Y-52707380D02*
X105414404Y-52612142D01*
X105414404Y-52612142D02*
X105414404Y-52374047D01*
X105414404Y-52374047D02*
X105366785Y-52278809D01*
X105366785Y-52278809D02*
X105319166Y-52231190D01*
X105319166Y-52231190D02*
X105223928Y-52183571D01*
X105223928Y-52183571D02*
X105033452Y-52183571D01*
X105033452Y-52183571D02*
X104938214Y-52231190D01*
X104938214Y-52231190D02*
X104890595Y-52278809D01*
X104890595Y-52278809D02*
X104842976Y-52374047D01*
X98126666Y-33362619D02*
X98126666Y-34076904D01*
X98126666Y-34076904D02*
X98079047Y-34219761D01*
X98079047Y-34219761D02*
X97983809Y-34315000D01*
X97983809Y-34315000D02*
X97840952Y-34362619D01*
X97840952Y-34362619D02*
X97745714Y-34362619D01*
X98602857Y-34362619D02*
X98602857Y-33362619D01*
X98602857Y-33362619D02*
X98983809Y-33362619D01*
X98983809Y-33362619D02*
X99079047Y-33410238D01*
X99079047Y-33410238D02*
X99126666Y-33457857D01*
X99126666Y-33457857D02*
X99174285Y-33553095D01*
X99174285Y-33553095D02*
X99174285Y-33695952D01*
X99174285Y-33695952D02*
X99126666Y-33791190D01*
X99126666Y-33791190D02*
X99079047Y-33838809D01*
X99079047Y-33838809D02*
X98983809Y-33886428D01*
X98983809Y-33886428D02*
X98602857Y-33886428D01*
X100126666Y-34362619D02*
X99555238Y-34362619D01*
X99840952Y-34362619D02*
X99840952Y-33362619D01*
X99840952Y-33362619D02*
X99745714Y-33505476D01*
X99745714Y-33505476D02*
X99650476Y-33600714D01*
X99650476Y-33600714D02*
X99555238Y-33648333D01*
D11*
X104976667Y-40140095D02*
X104710000Y-39759142D01*
X104519524Y-40140095D02*
X104519524Y-39340095D01*
X104519524Y-39340095D02*
X104824286Y-39340095D01*
X104824286Y-39340095D02*
X104900476Y-39378190D01*
X104900476Y-39378190D02*
X104938571Y-39416285D01*
X104938571Y-39416285D02*
X104976667Y-39492476D01*
X104976667Y-39492476D02*
X104976667Y-39606761D01*
X104976667Y-39606761D02*
X104938571Y-39682952D01*
X104938571Y-39682952D02*
X104900476Y-39721047D01*
X104900476Y-39721047D02*
X104824286Y-39759142D01*
X104824286Y-39759142D02*
X104519524Y-39759142D01*
X105433809Y-39682952D02*
X105357619Y-39644857D01*
X105357619Y-39644857D02*
X105319524Y-39606761D01*
X105319524Y-39606761D02*
X105281428Y-39530571D01*
X105281428Y-39530571D02*
X105281428Y-39492476D01*
X105281428Y-39492476D02*
X105319524Y-39416285D01*
X105319524Y-39416285D02*
X105357619Y-39378190D01*
X105357619Y-39378190D02*
X105433809Y-39340095D01*
X105433809Y-39340095D02*
X105586190Y-39340095D01*
X105586190Y-39340095D02*
X105662381Y-39378190D01*
X105662381Y-39378190D02*
X105700476Y-39416285D01*
X105700476Y-39416285D02*
X105738571Y-39492476D01*
X105738571Y-39492476D02*
X105738571Y-39530571D01*
X105738571Y-39530571D02*
X105700476Y-39606761D01*
X105700476Y-39606761D02*
X105662381Y-39644857D01*
X105662381Y-39644857D02*
X105586190Y-39682952D01*
X105586190Y-39682952D02*
X105433809Y-39682952D01*
X105433809Y-39682952D02*
X105357619Y-39721047D01*
X105357619Y-39721047D02*
X105319524Y-39759142D01*
X105319524Y-39759142D02*
X105281428Y-39835333D01*
X105281428Y-39835333D02*
X105281428Y-39987714D01*
X105281428Y-39987714D02*
X105319524Y-40063904D01*
X105319524Y-40063904D02*
X105357619Y-40102000D01*
X105357619Y-40102000D02*
X105433809Y-40140095D01*
X105433809Y-40140095D02*
X105586190Y-40140095D01*
X105586190Y-40140095D02*
X105662381Y-40102000D01*
X105662381Y-40102000D02*
X105700476Y-40063904D01*
X105700476Y-40063904D02*
X105738571Y-39987714D01*
X105738571Y-39987714D02*
X105738571Y-39835333D01*
X105738571Y-39835333D02*
X105700476Y-39759142D01*
X105700476Y-39759142D02*
X105662381Y-39721047D01*
X105662381Y-39721047D02*
X105586190Y-39682952D01*
X116640095Y-32626666D02*
X117211523Y-32626666D01*
X117211523Y-32626666D02*
X117325809Y-32664761D01*
X117325809Y-32664761D02*
X117402000Y-32740952D01*
X117402000Y-32740952D02*
X117440095Y-32855237D01*
X117440095Y-32855237D02*
X117440095Y-32931428D01*
X116716285Y-32283809D02*
X116678190Y-32245713D01*
X116678190Y-32245713D02*
X116640095Y-32169523D01*
X116640095Y-32169523D02*
X116640095Y-31979047D01*
X116640095Y-31979047D02*
X116678190Y-31902856D01*
X116678190Y-31902856D02*
X116716285Y-31864761D01*
X116716285Y-31864761D02*
X116792476Y-31826666D01*
X116792476Y-31826666D02*
X116868666Y-31826666D01*
X116868666Y-31826666D02*
X116982952Y-31864761D01*
X116982952Y-31864761D02*
X117440095Y-32321904D01*
X117440095Y-32321904D02*
X117440095Y-31826666D01*
D10*
X108181619Y-32329999D02*
X108419714Y-32329999D01*
X108324476Y-32568094D02*
X108419714Y-32329999D01*
X108419714Y-32329999D02*
X108324476Y-32091904D01*
X108610190Y-32472856D02*
X108419714Y-32329999D01*
X108419714Y-32329999D02*
X108610190Y-32187142D01*
D11*
X102626667Y-40230095D02*
X102360000Y-39849142D01*
X102169524Y-40230095D02*
X102169524Y-39430095D01*
X102169524Y-39430095D02*
X102474286Y-39430095D01*
X102474286Y-39430095D02*
X102550476Y-39468190D01*
X102550476Y-39468190D02*
X102588571Y-39506285D01*
X102588571Y-39506285D02*
X102626667Y-39582476D01*
X102626667Y-39582476D02*
X102626667Y-39696761D01*
X102626667Y-39696761D02*
X102588571Y-39772952D01*
X102588571Y-39772952D02*
X102550476Y-39811047D01*
X102550476Y-39811047D02*
X102474286Y-39849142D01*
X102474286Y-39849142D02*
X102169524Y-39849142D01*
X103312381Y-39430095D02*
X103160000Y-39430095D01*
X103160000Y-39430095D02*
X103083809Y-39468190D01*
X103083809Y-39468190D02*
X103045714Y-39506285D01*
X103045714Y-39506285D02*
X102969524Y-39620571D01*
X102969524Y-39620571D02*
X102931428Y-39772952D01*
X102931428Y-39772952D02*
X102931428Y-40077714D01*
X102931428Y-40077714D02*
X102969524Y-40153904D01*
X102969524Y-40153904D02*
X103007619Y-40192000D01*
X103007619Y-40192000D02*
X103083809Y-40230095D01*
X103083809Y-40230095D02*
X103236190Y-40230095D01*
X103236190Y-40230095D02*
X103312381Y-40192000D01*
X103312381Y-40192000D02*
X103350476Y-40153904D01*
X103350476Y-40153904D02*
X103388571Y-40077714D01*
X103388571Y-40077714D02*
X103388571Y-39887238D01*
X103388571Y-39887238D02*
X103350476Y-39811047D01*
X103350476Y-39811047D02*
X103312381Y-39772952D01*
X103312381Y-39772952D02*
X103236190Y-39734857D01*
X103236190Y-39734857D02*
X103083809Y-39734857D01*
X103083809Y-39734857D02*
X103007619Y-39772952D01*
X103007619Y-39772952D02*
X102969524Y-39811047D01*
X102969524Y-39811047D02*
X102931428Y-39887238D01*
D16*
X110657526Y-46423332D02*
X111564669Y-46423332D01*
X111564669Y-46423332D02*
X111746097Y-46483809D01*
X111746097Y-46483809D02*
X111867050Y-46604761D01*
X111867050Y-46604761D02*
X111927526Y-46786190D01*
X111927526Y-46786190D02*
X111927526Y-46907142D01*
X111927526Y-45153332D02*
X111927526Y-45879047D01*
X111927526Y-45516190D02*
X110657526Y-45516190D01*
X110657526Y-45516190D02*
X110838954Y-45637142D01*
X110838954Y-45637142D02*
X110959907Y-45758094D01*
X110959907Y-45758094D02*
X111020383Y-45879047D01*
D11*
X94495714Y-36310095D02*
X94229047Y-35929142D01*
X94038571Y-36310095D02*
X94038571Y-35510095D01*
X94038571Y-35510095D02*
X94343333Y-35510095D01*
X94343333Y-35510095D02*
X94419523Y-35548190D01*
X94419523Y-35548190D02*
X94457618Y-35586285D01*
X94457618Y-35586285D02*
X94495714Y-35662476D01*
X94495714Y-35662476D02*
X94495714Y-35776761D01*
X94495714Y-35776761D02*
X94457618Y-35852952D01*
X94457618Y-35852952D02*
X94419523Y-35891047D01*
X94419523Y-35891047D02*
X94343333Y-35929142D01*
X94343333Y-35929142D02*
X94038571Y-35929142D01*
X95257618Y-36310095D02*
X94800475Y-36310095D01*
X95029047Y-36310095D02*
X95029047Y-35510095D01*
X95029047Y-35510095D02*
X94952856Y-35624380D01*
X94952856Y-35624380D02*
X94876666Y-35700571D01*
X94876666Y-35700571D02*
X94800475Y-35738666D01*
X96019523Y-36310095D02*
X95562380Y-36310095D01*
X95790952Y-36310095D02*
X95790952Y-35510095D01*
X95790952Y-35510095D02*
X95714761Y-35624380D01*
X95714761Y-35624380D02*
X95638571Y-35700571D01*
X95638571Y-35700571D02*
X95562380Y-35738666D01*
X92195714Y-31060095D02*
X91929047Y-30679142D01*
X91738571Y-31060095D02*
X91738571Y-30260095D01*
X91738571Y-30260095D02*
X92043333Y-30260095D01*
X92043333Y-30260095D02*
X92119523Y-30298190D01*
X92119523Y-30298190D02*
X92157618Y-30336285D01*
X92157618Y-30336285D02*
X92195714Y-30412476D01*
X92195714Y-30412476D02*
X92195714Y-30526761D01*
X92195714Y-30526761D02*
X92157618Y-30602952D01*
X92157618Y-30602952D02*
X92119523Y-30641047D01*
X92119523Y-30641047D02*
X92043333Y-30679142D01*
X92043333Y-30679142D02*
X91738571Y-30679142D01*
X92957618Y-31060095D02*
X92500475Y-31060095D01*
X92729047Y-31060095D02*
X92729047Y-30260095D01*
X92729047Y-30260095D02*
X92652856Y-30374380D01*
X92652856Y-30374380D02*
X92576666Y-30450571D01*
X92576666Y-30450571D02*
X92500475Y-30488666D01*
X93262380Y-30336285D02*
X93300476Y-30298190D01*
X93300476Y-30298190D02*
X93376666Y-30260095D01*
X93376666Y-30260095D02*
X93567142Y-30260095D01*
X93567142Y-30260095D02*
X93643333Y-30298190D01*
X93643333Y-30298190D02*
X93681428Y-30336285D01*
X93681428Y-30336285D02*
X93719523Y-30412476D01*
X93719523Y-30412476D02*
X93719523Y-30488666D01*
X93719523Y-30488666D02*
X93681428Y-30602952D01*
X93681428Y-30602952D02*
X93224285Y-31060095D01*
X93224285Y-31060095D02*
X93719523Y-31060095D01*
D10*
X76096666Y-33822619D02*
X76096666Y-34536904D01*
X76096666Y-34536904D02*
X76049047Y-34679761D01*
X76049047Y-34679761D02*
X75953809Y-34775000D01*
X75953809Y-34775000D02*
X75810952Y-34822619D01*
X75810952Y-34822619D02*
X75715714Y-34822619D01*
X77001428Y-34155952D02*
X77001428Y-34822619D01*
X76763333Y-33775000D02*
X76525238Y-34489285D01*
X76525238Y-34489285D02*
X77144285Y-34489285D01*
X90054761Y-39537857D02*
X89959523Y-39490238D01*
X89959523Y-39490238D02*
X89864285Y-39395000D01*
X89864285Y-39395000D02*
X89721428Y-39252142D01*
X89721428Y-39252142D02*
X89626190Y-39204523D01*
X89626190Y-39204523D02*
X89530952Y-39204523D01*
X89578571Y-39442619D02*
X89483333Y-39395000D01*
X89483333Y-39395000D02*
X89388095Y-39299761D01*
X89388095Y-39299761D02*
X89340476Y-39109285D01*
X89340476Y-39109285D02*
X89340476Y-38775952D01*
X89340476Y-38775952D02*
X89388095Y-38585476D01*
X89388095Y-38585476D02*
X89483333Y-38490238D01*
X89483333Y-38490238D02*
X89578571Y-38442619D01*
X89578571Y-38442619D02*
X89769047Y-38442619D01*
X89769047Y-38442619D02*
X89864285Y-38490238D01*
X89864285Y-38490238D02*
X89959523Y-38585476D01*
X89959523Y-38585476D02*
X90007142Y-38775952D01*
X90007142Y-38775952D02*
X90007142Y-39109285D01*
X90007142Y-39109285D02*
X89959523Y-39299761D01*
X89959523Y-39299761D02*
X89864285Y-39395000D01*
X89864285Y-39395000D02*
X89769047Y-39442619D01*
X89769047Y-39442619D02*
X89578571Y-39442619D01*
X90340476Y-38442619D02*
X90959523Y-38442619D01*
X90959523Y-38442619D02*
X90626190Y-38823571D01*
X90626190Y-38823571D02*
X90769047Y-38823571D01*
X90769047Y-38823571D02*
X90864285Y-38871190D01*
X90864285Y-38871190D02*
X90911904Y-38918809D01*
X90911904Y-38918809D02*
X90959523Y-39014047D01*
X90959523Y-39014047D02*
X90959523Y-39252142D01*
X90959523Y-39252142D02*
X90911904Y-39347380D01*
X90911904Y-39347380D02*
X90864285Y-39395000D01*
X90864285Y-39395000D02*
X90769047Y-39442619D01*
X90769047Y-39442619D02*
X90483333Y-39442619D01*
X90483333Y-39442619D02*
X90388095Y-39395000D01*
X90388095Y-39395000D02*
X90340476Y-39347380D01*
D11*
X80416667Y-38890095D02*
X80150000Y-38509142D01*
X79959524Y-38890095D02*
X79959524Y-38090095D01*
X79959524Y-38090095D02*
X80264286Y-38090095D01*
X80264286Y-38090095D02*
X80340476Y-38128190D01*
X80340476Y-38128190D02*
X80378571Y-38166285D01*
X80378571Y-38166285D02*
X80416667Y-38242476D01*
X80416667Y-38242476D02*
X80416667Y-38356761D01*
X80416667Y-38356761D02*
X80378571Y-38432952D01*
X80378571Y-38432952D02*
X80340476Y-38471047D01*
X80340476Y-38471047D02*
X80264286Y-38509142D01*
X80264286Y-38509142D02*
X79959524Y-38509142D01*
X81178571Y-38890095D02*
X80721428Y-38890095D01*
X80950000Y-38890095D02*
X80950000Y-38090095D01*
X80950000Y-38090095D02*
X80873809Y-38204380D01*
X80873809Y-38204380D02*
X80797619Y-38280571D01*
X80797619Y-38280571D02*
X80721428Y-38318666D01*
D17*
X81232742Y-42657500D02*
X81707258Y-42657500D01*
X81232742Y-43702500D02*
X81707258Y-43702500D01*
X100091000Y-62402800D02*
X86629000Y-62402800D01*
X100091000Y-45537200D02*
X100091000Y-62402800D01*
X86629000Y-62402800D02*
X86629000Y-45537200D01*
X86629000Y-45537200D02*
X100091000Y-45537200D01*
X98167500Y-40170000D02*
X96492500Y-40170000D01*
X98167500Y-40170000D02*
X98817500Y-40170000D01*
X98167500Y-43290000D02*
X97517500Y-43290000D01*
X98167500Y-43290000D02*
X98817500Y-43290000D01*
X73842500Y-43492742D02*
X73842500Y-43967258D01*
X72797500Y-43492742D02*
X72797500Y-43967258D01*
X89820000Y-43460000D02*
X91220000Y-43460000D01*
X89820000Y-44860000D02*
X89820000Y-43460000D01*
X91220000Y-43460000D02*
X91220000Y-44860000D01*
X91220000Y-44860000D02*
X89820000Y-44860000D01*
X79378748Y-47435000D02*
X79901252Y-47435000D01*
X79378748Y-48905000D02*
X79901252Y-48905000D01*
X112417742Y-34527500D02*
X112892258Y-34527500D01*
X112417742Y-35572500D02*
X112892258Y-35572500D01*
X77922500Y-46780000D02*
X79597500Y-46780000D01*
X77922500Y-46780000D02*
X77272500Y-46780000D01*
X77922500Y-43660000D02*
X78572500Y-43660000D01*
X77922500Y-43660000D02*
X77272500Y-43660000D01*
X97000000Y-31117500D02*
X95080000Y-31117500D01*
X95080000Y-31117500D02*
X95080000Y-33802500D01*
X97000000Y-33802500D02*
X97000000Y-31117500D01*
X87050000Y-35550000D02*
X87050000Y-32100000D01*
X87050000Y-35550000D02*
X87050000Y-37500000D01*
X81930000Y-35550000D02*
X81930000Y-33600000D01*
X81930000Y-35550000D02*
X81930000Y-37500000D01*
X89561700Y-34630500D02*
X89561700Y-36611700D01*
X92838300Y-36611700D02*
X92838300Y-34630500D01*
X83172500Y-47937742D02*
X83172500Y-48412258D01*
X82127500Y-47937742D02*
X82127500Y-48412258D01*
X94337258Y-42922500D02*
X93862742Y-42922500D01*
X94337258Y-41877500D02*
X93862742Y-41877500D01*
X72720000Y-47322500D02*
X72720000Y-48997500D01*
X72720000Y-47322500D02*
X72720000Y-46672500D01*
X75840000Y-47322500D02*
X75840000Y-47972500D01*
X75840000Y-47322500D02*
X75840000Y-46672500D01*
X78700000Y-52425000D02*
X76700000Y-52425000D01*
X74800000Y-52425000D02*
X72900000Y-52425000D01*
X72900000Y-52425000D02*
X72900000Y-61825000D01*
X78700000Y-61825000D02*
X76700000Y-61825000D01*
X74800000Y-61825000D02*
X72900000Y-61825000D01*
X81250000Y-44260000D02*
X81250000Y-46260000D01*
X81250000Y-44260000D02*
X85260000Y-44260000D01*
X81250000Y-46260000D02*
X85260000Y-46260000D01*
X102337258Y-42202500D02*
X101862742Y-42202500D01*
X102337258Y-41157500D02*
X101862742Y-41157500D01*
X77568748Y-41515000D02*
X78091252Y-41515000D01*
X77568748Y-42985000D02*
X78091252Y-42985000D01*
X94337258Y-41082500D02*
X93862742Y-41082500D01*
X94337258Y-40037500D02*
X93862742Y-40037500D01*
X101692500Y-53180000D02*
X101692500Y-56200000D01*
X101692500Y-56200000D02*
X105902500Y-56200000D01*
X105902500Y-53180000D02*
X101692500Y-53180000D01*
X97560000Y-36000000D02*
X97560000Y-35400000D01*
X98260000Y-34700000D02*
X99660000Y-34700000D01*
X99660000Y-36700000D02*
X98260000Y-36700000D01*
X100360000Y-35400000D02*
X100360000Y-36000000D01*
X98260000Y-34700000D02*
G75*
G03*
X97560000Y-35400000I-1J-699999D01*
G01*
X97560000Y-36000000D02*
G75*
G03*
X98260000Y-36700000I699999J-1D01*
G01*
X100360000Y-35400000D02*
G75*
G03*
X99660000Y-34700000I-700000J0D01*
G01*
X99660000Y-36700000D02*
G75*
G03*
X100360000Y-36000000I0J700000D01*
G01*
X105622500Y-37212742D02*
X105622500Y-37687258D01*
X104577500Y-37212742D02*
X104577500Y-37687258D01*
X106687000Y-34958900D02*
X106687000Y-29701100D01*
X109404152Y-34958900D02*
X106687000Y-34958900D01*
X110751000Y-30501086D02*
X110751000Y-34158914D01*
X106687000Y-29701100D02*
X109404152Y-29701100D01*
X102502742Y-37697500D02*
X102977258Y-37697500D01*
X102502742Y-38742500D02*
X102977258Y-38742500D01*
D18*
X109290000Y-50650000D02*
X114290000Y-50650000D01*
X114290000Y-50650000D02*
X114290000Y-41350000D01*
X109290000Y-48600000D02*
X109290000Y-50650000D01*
D19*
X107790000Y-48250000D02*
X107790000Y-48250000D01*
X107890000Y-48250000D02*
X107890000Y-48250000D01*
D18*
X109290000Y-41350000D02*
X109290000Y-43400000D01*
X114290000Y-41350000D02*
X109290000Y-41350000D01*
D19*
X107890000Y-48250000D02*
G75*
G03*
X107790000Y-48250000I-50000J0D01*
G01*
X107790000Y-48250000D02*
G75*
G03*
X107890000Y-48250000I50000J0D01*
G01*
D17*
X95227064Y-38065000D02*
X94772936Y-38065000D01*
X95227064Y-36595000D02*
X94772936Y-36595000D01*
X93017258Y-32432500D02*
X92542742Y-32432500D01*
X93017258Y-31387500D02*
X92542742Y-31387500D01*
X73775000Y-39530000D02*
X73775000Y-38480000D01*
X77125000Y-39530000D02*
X73775000Y-39530000D01*
X73775000Y-38480000D02*
X73585000Y-38480000D01*
X78295000Y-38460000D02*
X78295000Y-38110000D01*
X72731447Y-38170000D02*
X73085000Y-37920000D01*
X78295000Y-38110000D02*
X77795000Y-37710000D01*
X73085000Y-37920000D02*
X72731447Y-37670000D01*
X77795000Y-37710000D02*
X77795000Y-36930000D01*
X72731447Y-37670000D02*
X72731447Y-38170000D01*
X77795000Y-36930000D02*
X78295000Y-36530000D01*
X78295000Y-36530000D02*
X78295000Y-36180000D01*
X73775000Y-35110000D02*
X73775000Y-36160000D01*
X77125000Y-35110000D02*
X73775000Y-35110000D01*
X90342500Y-42950000D02*
X92017500Y-42950000D01*
X90342500Y-42950000D02*
X89692500Y-42950000D01*
X90342500Y-39830000D02*
X90992500Y-39830000D01*
X90342500Y-39830000D02*
X89692500Y-39830000D01*
X79937500Y-40952258D02*
X79937500Y-40477742D01*
X80982500Y-40952258D02*
X80982500Y-40477742D01*
%LPC*%
D20*
X80645000Y-43180000D03*
X82295000Y-43180000D03*
D21*
X99259998Y-55264900D03*
X99259998Y-54464899D03*
X99259998Y-53664900D03*
X99259998Y-52864899D03*
X99259998Y-52064901D03*
X99259998Y-51264900D03*
X99259998Y-50464899D03*
X99259998Y-49664901D03*
X99259998Y-48864900D03*
X99259998Y-48064901D03*
X99259998Y-47264900D03*
D22*
X98160001Y-46364900D03*
X97360000Y-46364900D03*
X96559999Y-46364900D03*
X95760000Y-46364900D03*
X94959999Y-46364900D03*
X94160001Y-46364900D03*
X93360000Y-46364900D03*
X92559999Y-46364900D03*
X91760001Y-46364900D03*
X90960000Y-46364900D03*
X90160001Y-46364900D03*
X89360000Y-46364900D03*
X88560002Y-46364900D03*
D21*
X87460002Y-47264900D03*
X87460002Y-48064901D03*
X87460002Y-48864900D03*
X87460002Y-49664901D03*
X87460002Y-50464899D03*
X87460002Y-51264900D03*
X87460002Y-52064901D03*
X87460002Y-52864899D03*
X87460002Y-53664900D03*
X87460002Y-54464899D03*
X87460002Y-55264900D03*
D22*
X88559999Y-56164900D03*
X89360000Y-56164900D03*
X90160001Y-56164900D03*
X90960000Y-56164900D03*
X91760001Y-56164900D03*
X92559999Y-56164900D03*
X93360000Y-56164900D03*
X94160001Y-56164900D03*
X94959999Y-56164900D03*
X95760000Y-56164900D03*
X96559999Y-56164900D03*
X97360000Y-56164900D03*
X98159998Y-56164900D03*
D23*
X93360000Y-51264900D03*
D24*
X87410000Y-56214900D03*
X87410000Y-46314900D03*
X99310000Y-46314900D03*
X99310000Y-56214900D03*
D23*
X91385000Y-53239900D03*
X91385000Y-51264900D03*
X91385000Y-49289900D03*
X93360000Y-49289900D03*
X95335000Y-49289900D03*
X95335000Y-51264900D03*
X95335000Y-53239900D03*
X93360000Y-53239900D03*
D25*
X97230000Y-40780000D03*
X97230000Y-42680000D03*
X99105000Y-41730000D03*
D26*
X73320000Y-42905000D03*
X73320000Y-44555000D03*
D27*
X119120000Y-60140000D03*
D28*
X90520000Y-44160000D03*
D29*
X78690000Y-48170000D03*
X80590000Y-48170000D03*
D20*
X111830000Y-35050000D03*
X113480000Y-35050000D03*
D30*
X78860000Y-46170000D03*
X78860000Y-44270000D03*
X76985000Y-45220000D03*
D31*
X96040000Y-31865000D03*
X96040000Y-33740000D03*
D32*
X86395000Y-33075000D03*
X85125000Y-33075000D03*
X83855000Y-33075000D03*
X82585000Y-33075000D03*
X82585000Y-38025000D03*
X83855000Y-38025000D03*
X85125000Y-38025000D03*
X86395000Y-38025000D03*
D33*
X92150001Y-34262200D03*
X91200000Y-34262200D03*
X90249999Y-34262200D03*
X90249999Y-36980000D03*
X91200000Y-36980000D03*
X92150001Y-36980000D03*
D26*
X82650000Y-47350000D03*
X82650000Y-49000000D03*
D34*
X94925000Y-42400000D03*
X93275000Y-42400000D03*
D35*
X73330000Y-48260000D03*
X75230000Y-48260000D03*
X74280000Y-46385000D03*
D36*
X79400000Y-54235000D03*
X79400000Y-60015000D03*
D37*
X80845000Y-53875000D03*
X80845000Y-54675000D03*
D38*
X80845000Y-55875000D03*
X80845000Y-56875000D03*
X80845000Y-57375000D03*
X80845000Y-58375000D03*
D37*
X80845000Y-59575000D03*
X80845000Y-60375000D03*
X80845000Y-60375000D03*
X80845000Y-59575000D03*
D38*
X80845000Y-58875000D03*
X80845000Y-57875000D03*
X80845000Y-56375000D03*
X80845000Y-55375000D03*
D37*
X80845000Y-54675000D03*
X80845000Y-53875000D03*
D39*
X79930000Y-52805000D03*
D40*
X75750000Y-52805000D03*
D39*
X79930000Y-61445000D03*
D40*
X75750000Y-61445000D03*
D41*
X81960000Y-45260000D03*
X85260000Y-45260000D03*
D34*
X102925000Y-41680000D03*
X101275000Y-41680000D03*
D27*
X74400000Y-32000000D03*
D29*
X76880000Y-42250000D03*
X78780000Y-42250000D03*
D34*
X94925000Y-40560000D03*
X93275000Y-40560000D03*
D42*
X102615000Y-54690000D03*
X105690000Y-54690000D03*
D43*
X98310000Y-35700000D03*
D44*
X99610000Y-35700000D03*
D26*
X105100000Y-36625000D03*
X105100000Y-38275000D03*
D45*
X107580000Y-31080000D03*
X107580000Y-31579999D03*
X107580000Y-32080001D03*
X107580000Y-32580000D03*
X107580000Y-33080001D03*
X107580000Y-33580000D03*
D21*
X110093122Y-34580001D03*
X110093122Y-30079999D03*
D20*
X101915000Y-38220000D03*
X103565000Y-38220000D03*
D46*
X108815000Y-48250000D03*
X108815000Y-47750000D03*
X108815000Y-47250000D03*
X108815000Y-46750000D03*
X108815000Y-46250000D03*
X108815000Y-45750000D03*
X108815000Y-45250000D03*
X108815000Y-44750000D03*
X108815000Y-44250000D03*
X108815000Y-43750000D03*
D47*
X111990000Y-49950000D03*
X111990000Y-42050000D03*
D48*
X95912500Y-37330000D03*
X94087500Y-37330000D03*
D34*
X93605000Y-31910000D03*
X91955000Y-31910000D03*
D49*
X74010000Y-37920000D03*
X74010000Y-36720000D03*
D50*
X77785000Y-39070000D03*
X77785000Y-35570000D03*
D30*
X91280000Y-42340000D03*
X91280000Y-40440000D03*
X89405000Y-41390000D03*
D51*
X80460000Y-41540000D03*
X80460000Y-39890000D03*
D27*
X99400000Y-32000000D03*
M02*
