%TF.GenerationSoftware,KiCad,Pcbnew,6.0.7-f9a2dced07~116~ubuntu20.04.1*%
%TF.CreationDate,2022-09-27T22:25:40+02:00*%
%TF.ProjectId,S3-44-to-33-FPC,53332d34-342d-4746-9f2d-33332d465043,1.0*%
%TF.SameCoordinates,Original*%
%TF.FileFunction,Paste,Top*%
%TF.FilePolarity,Positive*%
%FSLAX46Y46*%
G04 Gerber Fmt 4.6, Leading zero omitted, Abs format (unit mm)*
G04 Created by KiCad (PCBNEW 6.0.7-f9a2dced07~116~ubuntu20.04.1) date 2022-09-27 22:25:40*
%MOMM*%
%LPD*%
G01*
G04 APERTURE LIST*
%ADD10R,0.254000X0.812800*%
%ADD11R,1.524000X1.701800*%
%ADD12R,0.127000X0.863600*%
%ADD13R,0.330200X0.711200*%
G04 APERTURE END LIST*
D10*
%TO.C,J1*%
X121574999Y-94415650D03*
X121075000Y-94415650D03*
X120574999Y-94415650D03*
X120075000Y-94415650D03*
X119574998Y-94415650D03*
X119074999Y-94415650D03*
X118575000Y-94415650D03*
X118074999Y-94415650D03*
X117575000Y-94415650D03*
X117074998Y-94415650D03*
X116574999Y-94415650D03*
X116075000Y-94415650D03*
X115574999Y-94415650D03*
X115075000Y-94415650D03*
X114574998Y-94415650D03*
X114074999Y-94415650D03*
X113575000Y-94415650D03*
X113074998Y-94415650D03*
X112574999Y-94415650D03*
X112075000Y-94415650D03*
X111574999Y-94415650D03*
X111075000Y-94415650D03*
X110574998Y-94415650D03*
X110074999Y-94415650D03*
X109575000Y-94415650D03*
X109074999Y-94415650D03*
X108575000Y-94415650D03*
X108074998Y-94415650D03*
X107574999Y-94415650D03*
X107075000Y-94415650D03*
X106574999Y-94415650D03*
X106075000Y-94415650D03*
X105574998Y-94415650D03*
D11*
X103923000Y-90402450D03*
X123227000Y-90402450D03*
%TD*%
D12*
%TO.C,J2*%
X117799999Y-112880000D03*
X117799999Y-115420000D03*
X117400000Y-112880000D03*
X117400000Y-115420000D03*
X116999998Y-112880000D03*
X116999998Y-115420000D03*
X116599999Y-112880000D03*
X116599999Y-115420000D03*
X116200000Y-112880000D03*
X116200000Y-115420000D03*
X115800001Y-112880000D03*
X115800001Y-115420000D03*
X115399999Y-112880000D03*
X115399999Y-115420000D03*
X115000000Y-112880000D03*
X115000000Y-115420000D03*
X114600001Y-112880000D03*
X114600001Y-115420000D03*
X114199999Y-112880000D03*
X114199999Y-115420000D03*
X113800000Y-112880000D03*
X113800000Y-115420000D03*
X113400000Y-112880000D03*
X113400000Y-115420000D03*
X113000001Y-112880000D03*
X113000001Y-115420000D03*
X112599999Y-112880000D03*
X112599999Y-115420000D03*
X112200000Y-115420000D03*
X111800001Y-112880000D03*
X111800001Y-115420000D03*
X111399999Y-112880000D03*
X111399999Y-115420000D03*
X111000000Y-112880000D03*
X111000000Y-115420000D03*
X110600001Y-112880000D03*
X110600001Y-115420000D03*
X110199999Y-112880000D03*
X110199999Y-115420000D03*
X109800000Y-112880000D03*
X109800000Y-115420000D03*
X109400001Y-112880000D03*
X109400001Y-115420000D03*
D13*
X108500000Y-112370000D03*
X118700000Y-112370000D03*
X108500000Y-115930000D03*
X118700000Y-115930000D03*
%TD*%
M02*
