%TF.GenerationSoftware,KiCad,Pcbnew,6.0.7-f9a2dced07~116~ubuntu20.04.1*%
%TF.CreationDate,2022-09-27T22:25:40+02:00*%
%TF.ProjectId,S3-44-to-33-FPC,53332d34-342d-4746-9f2d-33332d465043,1.0*%
%TF.SameCoordinates,Original*%
%TF.FileFunction,Legend,Bot*%
%TF.FilePolarity,Positive*%
%FSLAX46Y46*%
G04 Gerber Fmt 4.6, Leading zero omitted, Abs format (unit mm)*
G04 Created by KiCad (PCBNEW 6.0.7-f9a2dced07~116~ubuntu20.04.1) date 2022-09-27 22:25:40*
%MOMM*%
%LPD*%
G01*
G04 APERTURE LIST*
%ADD10C,0.150000*%
%ADD11C,0.140000*%
%ADD12C,0.120000*%
G04 APERTURE END LIST*
D10*
X121101190Y-112053571D02*
X121434523Y-112053571D01*
X121434523Y-112577380D02*
X121434523Y-111577380D01*
X120958333Y-111577380D01*
X120625000Y-112291666D02*
X120148809Y-112291666D01*
X120720238Y-112577380D02*
X120386904Y-111577380D01*
X120053571Y-112577380D01*
X119767857Y-112529761D02*
X119625000Y-112577380D01*
X119386904Y-112577380D01*
X119291666Y-112529761D01*
X119244047Y-112482142D01*
X119196428Y-112386904D01*
X119196428Y-112291666D01*
X119244047Y-112196428D01*
X119291666Y-112148809D01*
X119386904Y-112101190D01*
X119577380Y-112053571D01*
X119672619Y-112005952D01*
X119720238Y-111958333D01*
X119767857Y-111863095D01*
X119767857Y-111767857D01*
X119720238Y-111672619D01*
X119672619Y-111625000D01*
X119577380Y-111577380D01*
X119339285Y-111577380D01*
X119196428Y-111625000D01*
X118815476Y-112291666D02*
X118339285Y-112291666D01*
X118910714Y-112577380D02*
X118577380Y-111577380D01*
X118244047Y-112577380D01*
X117910714Y-112577380D02*
X117910714Y-111577380D01*
X117339285Y-112577380D01*
X117339285Y-111577380D01*
X116863095Y-112577380D02*
X116863095Y-111577380D01*
X115053571Y-112482142D02*
X115101190Y-112529761D01*
X115244047Y-112577380D01*
X115339285Y-112577380D01*
X115482142Y-112529761D01*
X115577380Y-112434523D01*
X115625000Y-112339285D01*
X115672619Y-112148809D01*
X115672619Y-112005952D01*
X115625000Y-111815476D01*
X115577380Y-111720238D01*
X115482142Y-111625000D01*
X115339285Y-111577380D01*
X115244047Y-111577380D01*
X115101190Y-111625000D01*
X115053571Y-111672619D01*
X114434523Y-111577380D02*
X114244047Y-111577380D01*
X114148809Y-111625000D01*
X114053571Y-111720238D01*
X114005952Y-111910714D01*
X114005952Y-112244047D01*
X114053571Y-112434523D01*
X114148809Y-112529761D01*
X114244047Y-112577380D01*
X114434523Y-112577380D01*
X114529761Y-112529761D01*
X114625000Y-112434523D01*
X114672619Y-112244047D01*
X114672619Y-111910714D01*
X114625000Y-111720238D01*
X114529761Y-111625000D01*
X114434523Y-111577380D01*
X113005952Y-112577380D02*
X113339285Y-112101190D01*
X113577380Y-112577380D02*
X113577380Y-111577380D01*
X113196428Y-111577380D01*
X113101190Y-111625000D01*
X113053571Y-111672619D01*
X113005952Y-111767857D01*
X113005952Y-111910714D01*
X113053571Y-112005952D01*
X113101190Y-112053571D01*
X113196428Y-112101190D01*
X113577380Y-112101190D01*
X112577380Y-112577380D02*
X112577380Y-111577380D01*
X112196428Y-111577380D01*
X112101190Y-111625000D01*
X112053571Y-111672619D01*
X112005952Y-111767857D01*
X112005952Y-111910714D01*
X112053571Y-112005952D01*
X112101190Y-112053571D01*
X112196428Y-112101190D01*
X112577380Y-112101190D01*
X111386904Y-111577380D02*
X111196428Y-111577380D01*
X111101190Y-111625000D01*
X111005952Y-111720238D01*
X110958333Y-111910714D01*
X110958333Y-112244047D01*
X111005952Y-112434523D01*
X111101190Y-112529761D01*
X111196428Y-112577380D01*
X111386904Y-112577380D01*
X111482142Y-112529761D01*
X111577380Y-112434523D01*
X111625000Y-112244047D01*
X111625000Y-111910714D01*
X111577380Y-111720238D01*
X111482142Y-111625000D01*
X111386904Y-111577380D01*
X109958333Y-112577380D02*
X110291666Y-112101190D01*
X110529761Y-112577380D02*
X110529761Y-111577380D01*
X110148809Y-111577380D01*
X110053571Y-111625000D01*
X110005952Y-111672619D01*
X109958333Y-111767857D01*
X109958333Y-111910714D01*
X110005952Y-112005952D01*
X110053571Y-112053571D01*
X110148809Y-112101190D01*
X110529761Y-112101190D01*
X109577380Y-112291666D02*
X109101190Y-112291666D01*
X109672619Y-112577380D02*
X109339285Y-111577380D01*
X109005952Y-112577380D01*
X108815476Y-111577380D02*
X108244047Y-111577380D01*
X108529761Y-112577380D02*
X108529761Y-111577380D01*
X107910714Y-112577380D02*
X107910714Y-111577380D01*
X107244047Y-111577380D02*
X107053571Y-111577380D01*
X106958333Y-111625000D01*
X106863095Y-111720238D01*
X106815476Y-111910714D01*
X106815476Y-112244047D01*
X106863095Y-112434523D01*
X106958333Y-112529761D01*
X107053571Y-112577380D01*
X107244047Y-112577380D01*
X107339285Y-112529761D01*
X107434523Y-112434523D01*
X107482142Y-112244047D01*
X107482142Y-111910714D01*
X107434523Y-111720238D01*
X107339285Y-111625000D01*
X107244047Y-111577380D01*
X106386904Y-112577380D02*
X106386904Y-111577380D01*
X105815476Y-112577380D01*
X105815476Y-111577380D01*
D11*
X121097619Y-118011904D02*
X121364285Y-117630952D01*
X121554761Y-118011904D02*
X121554761Y-117211904D01*
X121250000Y-117211904D01*
X121173809Y-117250000D01*
X121135714Y-117288095D01*
X121097619Y-117364285D01*
X121097619Y-117478571D01*
X121135714Y-117554761D01*
X121173809Y-117592857D01*
X121250000Y-117630952D01*
X121554761Y-117630952D01*
X120450000Y-117973809D02*
X120526190Y-118011904D01*
X120678571Y-118011904D01*
X120754761Y-117973809D01*
X120792857Y-117897619D01*
X120792857Y-117592857D01*
X120754761Y-117516666D01*
X120678571Y-117478571D01*
X120526190Y-117478571D01*
X120450000Y-117516666D01*
X120411904Y-117592857D01*
X120411904Y-117669047D01*
X120792857Y-117745238D01*
X120145238Y-117478571D02*
X119954761Y-118011904D01*
X119764285Y-117478571D01*
X119459523Y-117935714D02*
X119421428Y-117973809D01*
X119459523Y-118011904D01*
X119497619Y-117973809D01*
X119459523Y-117935714D01*
X119459523Y-118011904D01*
X118050000Y-118011904D02*
X118507142Y-118011904D01*
X118278571Y-118011904D02*
X118278571Y-117211904D01*
X118354761Y-117326190D01*
X118430952Y-117402380D01*
X118507142Y-117440476D01*
X117707142Y-117935714D02*
X117669047Y-117973809D01*
X117707142Y-118011904D01*
X117745238Y-117973809D01*
X117707142Y-117935714D01*
X117707142Y-118011904D01*
X117173809Y-117211904D02*
X117097619Y-117211904D01*
X117021428Y-117250000D01*
X116983333Y-117288095D01*
X116945238Y-117364285D01*
X116907142Y-117516666D01*
X116907142Y-117707142D01*
X116945238Y-117859523D01*
X116983333Y-117935714D01*
X117021428Y-117973809D01*
X117097619Y-118011904D01*
X117173809Y-118011904D01*
X117250000Y-117973809D01*
X117288095Y-117935714D01*
X117326190Y-117859523D01*
X117364285Y-117707142D01*
X117364285Y-117516666D01*
X117326190Y-117364285D01*
X117288095Y-117288095D01*
X117250000Y-117250000D01*
X117173809Y-117211904D01*
%TO.C,T-20*%
X105285714Y-94213904D02*
X104828571Y-94213904D01*
X105057142Y-95013904D02*
X105057142Y-94213904D01*
X104561904Y-94709142D02*
X103952380Y-94709142D01*
X103609523Y-94290095D02*
X103571428Y-94252000D01*
X103495238Y-94213904D01*
X103304761Y-94213904D01*
X103228571Y-94252000D01*
X103190476Y-94290095D01*
X103152380Y-94366285D01*
X103152380Y-94442476D01*
X103190476Y-94556761D01*
X103647619Y-95013904D01*
X103152380Y-95013904D01*
X102657142Y-94213904D02*
X102580952Y-94213904D01*
X102504761Y-94252000D01*
X102466666Y-94290095D01*
X102428571Y-94366285D01*
X102390476Y-94518666D01*
X102390476Y-94709142D01*
X102428571Y-94861523D01*
X102466666Y-94937714D01*
X102504761Y-94975809D01*
X102580952Y-95013904D01*
X102657142Y-95013904D01*
X102733333Y-94975809D01*
X102771428Y-94937714D01*
X102809523Y-94861523D01*
X102847619Y-94709142D01*
X102847619Y-94518666D01*
X102809523Y-94366285D01*
X102771428Y-94290095D01*
X102733333Y-94252000D01*
X102657142Y-94213904D01*
%TO.C,T+15*%
X124935714Y-94036904D02*
X124478571Y-94036904D01*
X124707142Y-94836904D02*
X124707142Y-94036904D01*
X124211904Y-94532142D02*
X123602380Y-94532142D01*
X123907142Y-94836904D02*
X123907142Y-94227380D01*
X122802380Y-94836904D02*
X123259523Y-94836904D01*
X123030952Y-94836904D02*
X123030952Y-94036904D01*
X123107142Y-94151190D01*
X123183333Y-94227380D01*
X123259523Y-94265476D01*
X122078571Y-94036904D02*
X122459523Y-94036904D01*
X122497619Y-94417857D01*
X122459523Y-94379761D01*
X122383333Y-94341666D01*
X122192857Y-94341666D01*
X122116666Y-94379761D01*
X122078571Y-94417857D01*
X122040476Y-94494047D01*
X122040476Y-94684523D01*
X122078571Y-94760714D01*
X122116666Y-94798809D01*
X122192857Y-94836904D01*
X122383333Y-94836904D01*
X122459523Y-94798809D01*
X122497619Y-94760714D01*
D10*
%TO.C,T_VCOM1*%
X116591666Y-91754380D02*
X116020238Y-91754380D01*
X116305952Y-92754380D02*
X116305952Y-91754380D01*
X115925000Y-92849619D02*
X115163095Y-92849619D01*
X115067857Y-91754380D02*
X114734523Y-92754380D01*
X114401190Y-91754380D01*
X113496428Y-92659142D02*
X113544047Y-92706761D01*
X113686904Y-92754380D01*
X113782142Y-92754380D01*
X113925000Y-92706761D01*
X114020238Y-92611523D01*
X114067857Y-92516285D01*
X114115476Y-92325809D01*
X114115476Y-92182952D01*
X114067857Y-91992476D01*
X114020238Y-91897238D01*
X113925000Y-91802000D01*
X113782142Y-91754380D01*
X113686904Y-91754380D01*
X113544047Y-91802000D01*
X113496428Y-91849619D01*
X112877380Y-91754380D02*
X112686904Y-91754380D01*
X112591666Y-91802000D01*
X112496428Y-91897238D01*
X112448809Y-92087714D01*
X112448809Y-92421047D01*
X112496428Y-92611523D01*
X112591666Y-92706761D01*
X112686904Y-92754380D01*
X112877380Y-92754380D01*
X112972619Y-92706761D01*
X113067857Y-92611523D01*
X113115476Y-92421047D01*
X113115476Y-92087714D01*
X113067857Y-91897238D01*
X112972619Y-91802000D01*
X112877380Y-91754380D01*
X112020238Y-92754380D02*
X112020238Y-91754380D01*
X111686904Y-92468666D01*
X111353571Y-91754380D01*
X111353571Y-92754380D01*
X110353571Y-92754380D02*
X110925000Y-92754380D01*
X110639285Y-92754380D02*
X110639285Y-91754380D01*
X110734523Y-91897238D01*
X110829761Y-91992476D01*
X110925000Y-92040095D01*
D12*
%TO.C,T-20*%
X104750000Y-96300000D02*
G75*
G03*
X104750000Y-96300000I-950000J0D01*
G01*
%TO.C,T+15*%
X124125000Y-96200000D02*
G75*
G03*
X124125000Y-96200000I-950000J0D01*
G01*
%TO.C,T_VCOM1*%
X114375000Y-93950000D02*
G75*
G03*
X114375000Y-93950000I-950000J0D01*
G01*
%TD*%
M02*
