%TF.GenerationSoftware,KiCad,Pcbnew,6.0.7-f9a2dced07~116~ubuntu20.04.1*%
%TF.CreationDate,2022-09-27T22:25:40+02:00*%
%TF.ProjectId,S3-44-to-33-FPC,53332d34-342d-4746-9f2d-33332d465043,1.0*%
%TF.SameCoordinates,Original*%
%TF.FileFunction,Legend,Top*%
%TF.FilePolarity,Positive*%
%FSLAX46Y46*%
G04 Gerber Fmt 4.6, Leading zero omitted, Abs format (unit mm)*
G04 Created by KiCad (PCBNEW 6.0.7-f9a2dced07~116~ubuntu20.04.1) date 2022-09-27 22:25:40*
%MOMM*%
%LPD*%
G01*
G04 APERTURE LIST*
%ADD10C,0.140000*%
%ADD11C,0.150000*%
%ADD12C,0.152400*%
%ADD13C,0.120000*%
%ADD14C,0.100000*%
G04 APERTURE END LIST*
D10*
X114964285Y-117917857D02*
X114697619Y-117917857D01*
X114697619Y-118336904D02*
X114697619Y-117536904D01*
X115078571Y-117536904D01*
X115345238Y-118108333D02*
X115726190Y-118108333D01*
X115269047Y-118336904D02*
X115535714Y-117536904D01*
X115802380Y-118336904D01*
X116030952Y-118298809D02*
X116145238Y-118336904D01*
X116335714Y-118336904D01*
X116411904Y-118298809D01*
X116450000Y-118260714D01*
X116488095Y-118184523D01*
X116488095Y-118108333D01*
X116450000Y-118032142D01*
X116411904Y-117994047D01*
X116335714Y-117955952D01*
X116183333Y-117917857D01*
X116107142Y-117879761D01*
X116069047Y-117841666D01*
X116030952Y-117765476D01*
X116030952Y-117689285D01*
X116069047Y-117613095D01*
X116107142Y-117575000D01*
X116183333Y-117536904D01*
X116373809Y-117536904D01*
X116488095Y-117575000D01*
X116792857Y-118108333D02*
X117173809Y-118108333D01*
X116716666Y-118336904D02*
X116983333Y-117536904D01*
X117250000Y-118336904D01*
X117516666Y-118336904D02*
X117516666Y-117536904D01*
X117973809Y-118336904D01*
X117973809Y-117536904D01*
X118354761Y-118336904D02*
X118354761Y-117536904D01*
X119802380Y-118260714D02*
X119764285Y-118298809D01*
X119650000Y-118336904D01*
X119573809Y-118336904D01*
X119459523Y-118298809D01*
X119383333Y-118222619D01*
X119345238Y-118146428D01*
X119307142Y-117994047D01*
X119307142Y-117879761D01*
X119345238Y-117727380D01*
X119383333Y-117651190D01*
X119459523Y-117575000D01*
X119573809Y-117536904D01*
X119650000Y-117536904D01*
X119764285Y-117575000D01*
X119802380Y-117613095D01*
X120297619Y-117536904D02*
X120450000Y-117536904D01*
X120526190Y-117575000D01*
X120602380Y-117651190D01*
X120640476Y-117803571D01*
X120640476Y-118070238D01*
X120602380Y-118222619D01*
X120526190Y-118298809D01*
X120450000Y-118336904D01*
X120297619Y-118336904D01*
X120221428Y-118298809D01*
X120145238Y-118222619D01*
X120107142Y-118070238D01*
X120107142Y-117803571D01*
X120145238Y-117651190D01*
X120221428Y-117575000D01*
X120297619Y-117536904D01*
X121440476Y-118336904D02*
X121173809Y-117955952D01*
X120983333Y-118336904D02*
X120983333Y-117536904D01*
X121288095Y-117536904D01*
X121364285Y-117575000D01*
X121402380Y-117613095D01*
X121440476Y-117689285D01*
X121440476Y-117803571D01*
X121402380Y-117879761D01*
X121364285Y-117917857D01*
X121288095Y-117955952D01*
X120983333Y-117955952D01*
X121783333Y-118336904D02*
X121783333Y-117536904D01*
X122088095Y-117536904D01*
X122164285Y-117575000D01*
X122202380Y-117613095D01*
X122240476Y-117689285D01*
X122240476Y-117803571D01*
X122202380Y-117879761D01*
X122164285Y-117917857D01*
X122088095Y-117955952D01*
X121783333Y-117955952D01*
X105652380Y-118336904D02*
X105385714Y-117955952D01*
X105195238Y-118336904D02*
X105195238Y-117536904D01*
X105500000Y-117536904D01*
X105576190Y-117575000D01*
X105614285Y-117613095D01*
X105652380Y-117689285D01*
X105652380Y-117803571D01*
X105614285Y-117879761D01*
X105576190Y-117917857D01*
X105500000Y-117955952D01*
X105195238Y-117955952D01*
X106300000Y-118298809D02*
X106223809Y-118336904D01*
X106071428Y-118336904D01*
X105995238Y-118298809D01*
X105957142Y-118222619D01*
X105957142Y-117917857D01*
X105995238Y-117841666D01*
X106071428Y-117803571D01*
X106223809Y-117803571D01*
X106300000Y-117841666D01*
X106338095Y-117917857D01*
X106338095Y-117994047D01*
X105957142Y-118070238D01*
X106604761Y-117803571D02*
X106795238Y-118336904D01*
X106985714Y-117803571D01*
X107290476Y-118260714D02*
X107328571Y-118298809D01*
X107290476Y-118336904D01*
X107252380Y-118298809D01*
X107290476Y-118260714D01*
X107290476Y-118336904D01*
X108700000Y-118336904D02*
X108242857Y-118336904D01*
X108471428Y-118336904D02*
X108471428Y-117536904D01*
X108395238Y-117651190D01*
X108319047Y-117727380D01*
X108242857Y-117765476D01*
X109042857Y-118260714D02*
X109080952Y-118298809D01*
X109042857Y-118336904D01*
X109004761Y-118298809D01*
X109042857Y-118260714D01*
X109042857Y-118336904D01*
X109576190Y-117536904D02*
X109652380Y-117536904D01*
X109728571Y-117575000D01*
X109766666Y-117613095D01*
X109804761Y-117689285D01*
X109842857Y-117841666D01*
X109842857Y-118032142D01*
X109804761Y-118184523D01*
X109766666Y-118260714D01*
X109728571Y-118298809D01*
X109652380Y-118336904D01*
X109576190Y-118336904D01*
X109500000Y-118298809D01*
X109461904Y-118260714D01*
X109423809Y-118184523D01*
X109385714Y-118032142D01*
X109385714Y-117841666D01*
X109423809Y-117689285D01*
X109461904Y-117613095D01*
X109500000Y-117575000D01*
X109576190Y-117536904D01*
X104108333Y-87986904D02*
X104603571Y-87986904D01*
X104336904Y-88291666D01*
X104451190Y-88291666D01*
X104527380Y-88329761D01*
X104565476Y-88367857D01*
X104603571Y-88444047D01*
X104603571Y-88634523D01*
X104565476Y-88710714D01*
X104527380Y-88748809D01*
X104451190Y-88786904D01*
X104222619Y-88786904D01*
X104146428Y-88748809D01*
X104108333Y-88710714D01*
X104870238Y-87986904D02*
X105365476Y-87986904D01*
X105098809Y-88291666D01*
X105213095Y-88291666D01*
X105289285Y-88329761D01*
X105327380Y-88367857D01*
X105365476Y-88444047D01*
X105365476Y-88634523D01*
X105327380Y-88710714D01*
X105289285Y-88748809D01*
X105213095Y-88786904D01*
X104984523Y-88786904D01*
X104908333Y-88748809D01*
X104870238Y-88710714D01*
X106317857Y-88253571D02*
X106317857Y-89053571D01*
X106317857Y-88291666D02*
X106394047Y-88253571D01*
X106546428Y-88253571D01*
X106622619Y-88291666D01*
X106660714Y-88329761D01*
X106698809Y-88405952D01*
X106698809Y-88634523D01*
X106660714Y-88710714D01*
X106622619Y-88748809D01*
X106546428Y-88786904D01*
X106394047Y-88786904D01*
X106317857Y-88748809D01*
X107041666Y-88786904D02*
X107041666Y-88253571D01*
X107041666Y-87986904D02*
X107003571Y-88025000D01*
X107041666Y-88063095D01*
X107079761Y-88025000D01*
X107041666Y-87986904D01*
X107041666Y-88063095D01*
X107422619Y-88253571D02*
X107422619Y-88786904D01*
X107422619Y-88329761D02*
X107460714Y-88291666D01*
X107536904Y-88253571D01*
X107651190Y-88253571D01*
X107727380Y-88291666D01*
X107765476Y-88367857D01*
X107765476Y-88786904D01*
X109098809Y-88786904D02*
X109098809Y-88367857D01*
X109060714Y-88291666D01*
X108984523Y-88253571D01*
X108832142Y-88253571D01*
X108755952Y-88291666D01*
X109098809Y-88748809D02*
X109022619Y-88786904D01*
X108832142Y-88786904D01*
X108755952Y-88748809D01*
X108717857Y-88672619D01*
X108717857Y-88596428D01*
X108755952Y-88520238D01*
X108832142Y-88482142D01*
X109022619Y-88482142D01*
X109098809Y-88444047D01*
X109822619Y-88786904D02*
X109822619Y-87986904D01*
X109822619Y-88748809D02*
X109746428Y-88786904D01*
X109594047Y-88786904D01*
X109517857Y-88748809D01*
X109479761Y-88710714D01*
X109441666Y-88634523D01*
X109441666Y-88405952D01*
X109479761Y-88329761D01*
X109517857Y-88291666D01*
X109594047Y-88253571D01*
X109746428Y-88253571D01*
X109822619Y-88291666D01*
X110546428Y-88786904D02*
X110546428Y-88367857D01*
X110508333Y-88291666D01*
X110432142Y-88253571D01*
X110279761Y-88253571D01*
X110203571Y-88291666D01*
X110546428Y-88748809D02*
X110470238Y-88786904D01*
X110279761Y-88786904D01*
X110203571Y-88748809D01*
X110165476Y-88672619D01*
X110165476Y-88596428D01*
X110203571Y-88520238D01*
X110279761Y-88482142D01*
X110470238Y-88482142D01*
X110546428Y-88444047D01*
X110927380Y-88253571D02*
X110927380Y-89053571D01*
X110927380Y-88291666D02*
X111003571Y-88253571D01*
X111155952Y-88253571D01*
X111232142Y-88291666D01*
X111270238Y-88329761D01*
X111308333Y-88405952D01*
X111308333Y-88634523D01*
X111270238Y-88710714D01*
X111232142Y-88748809D01*
X111155952Y-88786904D01*
X111003571Y-88786904D01*
X110927380Y-88748809D01*
X111536904Y-88253571D02*
X111841666Y-88253571D01*
X111651190Y-87986904D02*
X111651190Y-88672619D01*
X111689285Y-88748809D01*
X111765476Y-88786904D01*
X111841666Y-88786904D01*
X112413095Y-88748809D02*
X112336904Y-88786904D01*
X112184523Y-88786904D01*
X112108333Y-88748809D01*
X112070238Y-88672619D01*
X112070238Y-88367857D01*
X112108333Y-88291666D01*
X112184523Y-88253571D01*
X112336904Y-88253571D01*
X112413095Y-88291666D01*
X112451190Y-88367857D01*
X112451190Y-88444047D01*
X112070238Y-88520238D01*
X112794047Y-88786904D02*
X112794047Y-88253571D01*
X112794047Y-88405952D02*
X112832142Y-88329761D01*
X112870238Y-88291666D01*
X112946428Y-88253571D01*
X113022619Y-88253571D01*
X113784523Y-88253571D02*
X114089285Y-88253571D01*
X113898809Y-88786904D02*
X113898809Y-88101190D01*
X113936904Y-88025000D01*
X114013095Y-87986904D01*
X114089285Y-87986904D01*
X114470238Y-88786904D02*
X114394047Y-88748809D01*
X114355952Y-88710714D01*
X114317857Y-88634523D01*
X114317857Y-88405952D01*
X114355952Y-88329761D01*
X114394047Y-88291666D01*
X114470238Y-88253571D01*
X114584523Y-88253571D01*
X114660714Y-88291666D01*
X114698809Y-88329761D01*
X114736904Y-88405952D01*
X114736904Y-88634523D01*
X114698809Y-88710714D01*
X114660714Y-88748809D01*
X114584523Y-88786904D01*
X114470238Y-88786904D01*
X115079761Y-88786904D02*
X115079761Y-88253571D01*
X115079761Y-88405952D02*
X115117857Y-88329761D01*
X115155952Y-88291666D01*
X115232142Y-88253571D01*
X115308333Y-88253571D01*
X116222619Y-88786904D02*
X116374999Y-88786904D01*
X116451190Y-88748809D01*
X116489285Y-88710714D01*
X116565476Y-88596428D01*
X116603571Y-88444047D01*
X116603571Y-88139285D01*
X116565476Y-88063095D01*
X116527380Y-88025000D01*
X116451190Y-87986904D01*
X116298809Y-87986904D01*
X116222619Y-88025000D01*
X116184523Y-88063095D01*
X116146428Y-88139285D01*
X116146428Y-88329761D01*
X116184523Y-88405952D01*
X116222619Y-88444047D01*
X116298809Y-88482142D01*
X116451190Y-88482142D01*
X116527380Y-88444047D01*
X116565476Y-88405952D01*
X116603571Y-88329761D01*
X116946428Y-88710714D02*
X116984523Y-88748809D01*
X116946428Y-88786904D01*
X116908333Y-88748809D01*
X116946428Y-88710714D01*
X116946428Y-88786904D01*
X117251190Y-87986904D02*
X117784523Y-87986904D01*
X117441666Y-88786904D01*
X118051190Y-87986904D02*
X118051190Y-88139285D01*
X118355952Y-87986904D02*
X118355952Y-88139285D01*
X119613095Y-88748809D02*
X119536904Y-88786904D01*
X119384523Y-88786904D01*
X119308333Y-88748809D01*
X119270238Y-88672619D01*
X119270238Y-88367857D01*
X119308333Y-88291666D01*
X119384523Y-88253571D01*
X119536904Y-88253571D01*
X119613095Y-88291666D01*
X119651190Y-88367857D01*
X119651190Y-88444047D01*
X119270238Y-88520238D01*
X119994047Y-88253571D02*
X119994047Y-89053571D01*
X119994047Y-88291666D02*
X120070238Y-88253571D01*
X120222619Y-88253571D01*
X120298809Y-88291666D01*
X120336904Y-88329761D01*
X120374999Y-88405952D01*
X120374999Y-88634523D01*
X120336904Y-88710714D01*
X120298809Y-88748809D01*
X120222619Y-88786904D01*
X120070238Y-88786904D01*
X119994047Y-88748809D01*
X121060714Y-88786904D02*
X121060714Y-88367857D01*
X121022619Y-88291666D01*
X120946428Y-88253571D01*
X120794047Y-88253571D01*
X120717857Y-88291666D01*
X121060714Y-88748809D02*
X120984523Y-88786904D01*
X120794047Y-88786904D01*
X120717857Y-88748809D01*
X120679761Y-88672619D01*
X120679761Y-88596428D01*
X120717857Y-88520238D01*
X120794047Y-88482142D01*
X120984523Y-88482142D01*
X121060714Y-88444047D01*
X121441666Y-88253571D02*
X121441666Y-89053571D01*
X121441666Y-88291666D02*
X121517857Y-88253571D01*
X121670238Y-88253571D01*
X121746428Y-88291666D01*
X121784523Y-88329761D01*
X121822619Y-88405952D01*
X121822619Y-88634523D01*
X121784523Y-88710714D01*
X121746428Y-88748809D01*
X121670238Y-88786904D01*
X121517857Y-88786904D01*
X121441666Y-88748809D01*
X122470238Y-88748809D02*
X122394047Y-88786904D01*
X122241666Y-88786904D01*
X122165476Y-88748809D01*
X122127380Y-88672619D01*
X122127380Y-88367857D01*
X122165476Y-88291666D01*
X122241666Y-88253571D01*
X122394047Y-88253571D01*
X122470238Y-88291666D01*
X122508333Y-88367857D01*
X122508333Y-88444047D01*
X122127380Y-88520238D01*
X122851190Y-88786904D02*
X122851190Y-88253571D01*
X122851190Y-88405952D02*
X122889285Y-88329761D01*
X122927380Y-88291666D01*
X123003571Y-88253571D01*
X123079761Y-88253571D01*
D11*
%TO.C,J1*%
X107667857Y-90298130D02*
X108334523Y-91298130D01*
X108334523Y-90298130D02*
X107667857Y-91298130D01*
X109048809Y-90774321D02*
X108715476Y-90774321D01*
X108715476Y-91298130D02*
X108715476Y-90298130D01*
X109191666Y-90298130D01*
X109525000Y-90393369D02*
X109572619Y-90345750D01*
X109667857Y-90298130D01*
X109905952Y-90298130D01*
X110001190Y-90345750D01*
X110048809Y-90393369D01*
X110096428Y-90488607D01*
X110096428Y-90583845D01*
X110048809Y-90726702D01*
X109477380Y-91298130D01*
X110096428Y-91298130D01*
X110525000Y-91298130D02*
X110525000Y-90298130D01*
X110858333Y-91012416D01*
X111191666Y-90298130D01*
X111191666Y-91298130D01*
X111667857Y-90917178D02*
X112429761Y-90917178D01*
X112810714Y-90298130D02*
X113429761Y-90298130D01*
X113096428Y-90679083D01*
X113239285Y-90679083D01*
X113334523Y-90726702D01*
X113382142Y-90774321D01*
X113429761Y-90869559D01*
X113429761Y-91107654D01*
X113382142Y-91202892D01*
X113334523Y-91250511D01*
X113239285Y-91298130D01*
X112953571Y-91298130D01*
X112858333Y-91250511D01*
X112810714Y-91202892D01*
X113763095Y-90298130D02*
X114382142Y-90298130D01*
X114048809Y-90679083D01*
X114191666Y-90679083D01*
X114286904Y-90726702D01*
X114334523Y-90774321D01*
X114382142Y-90869559D01*
X114382142Y-91107654D01*
X114334523Y-91202892D01*
X114286904Y-91250511D01*
X114191666Y-91298130D01*
X113905952Y-91298130D01*
X113810714Y-91250511D01*
X113763095Y-91202892D01*
X115334523Y-91298130D02*
X114763095Y-91298130D01*
X115048809Y-91298130D02*
X115048809Y-90298130D01*
X114953571Y-90440988D01*
X114858333Y-90536226D01*
X114763095Y-90583845D01*
X116239285Y-90298130D02*
X115763095Y-90298130D01*
X115715476Y-90774321D01*
X115763095Y-90726702D01*
X115858333Y-90679083D01*
X116096428Y-90679083D01*
X116191666Y-90726702D01*
X116239285Y-90774321D01*
X116286904Y-90869559D01*
X116286904Y-91107654D01*
X116239285Y-91202892D01*
X116191666Y-91250511D01*
X116096428Y-91298130D01*
X115858333Y-91298130D01*
X115763095Y-91250511D01*
X115715476Y-91202892D01*
X116715476Y-90917178D02*
X117477380Y-90917178D01*
X118477380Y-91298130D02*
X117905952Y-91298130D01*
X118191666Y-91298130D02*
X118191666Y-90298130D01*
X118096428Y-90440988D01*
X118001190Y-90536226D01*
X117905952Y-90583845D01*
X118858333Y-91012416D02*
X119334523Y-91012416D01*
X118763095Y-91298130D02*
X119096428Y-90298130D01*
X119429761Y-91298130D01*
D10*
%TO.C,T-15*%
X118939285Y-95861904D02*
X119396428Y-95861904D01*
X119167857Y-96661904D02*
X119167857Y-95861904D01*
X119663095Y-96357142D02*
X120272619Y-96357142D01*
X121072619Y-96661904D02*
X120615476Y-96661904D01*
X120844047Y-96661904D02*
X120844047Y-95861904D01*
X120767857Y-95976190D01*
X120691666Y-96052380D01*
X120615476Y-96090476D01*
X121796428Y-95861904D02*
X121415476Y-95861904D01*
X121377380Y-96242857D01*
X121415476Y-96204761D01*
X121491666Y-96166666D01*
X121682142Y-96166666D01*
X121758333Y-96204761D01*
X121796428Y-96242857D01*
X121834523Y-96319047D01*
X121834523Y-96509523D01*
X121796428Y-96585714D01*
X121758333Y-96623809D01*
X121682142Y-96661904D01*
X121491666Y-96661904D01*
X121415476Y-96623809D01*
X121377380Y-96585714D01*
%TO.C,T+22*%
X108714285Y-95811904D02*
X109171428Y-95811904D01*
X108942857Y-96611904D02*
X108942857Y-95811904D01*
X109438095Y-96307142D02*
X110047619Y-96307142D01*
X109742857Y-96611904D02*
X109742857Y-96002380D01*
X110390476Y-95888095D02*
X110428571Y-95850000D01*
X110504761Y-95811904D01*
X110695238Y-95811904D01*
X110771428Y-95850000D01*
X110809523Y-95888095D01*
X110847619Y-95964285D01*
X110847619Y-96040476D01*
X110809523Y-96154761D01*
X110352380Y-96611904D01*
X110847619Y-96611904D01*
X111152380Y-95888095D02*
X111190476Y-95850000D01*
X111266666Y-95811904D01*
X111457142Y-95811904D01*
X111533333Y-95850000D01*
X111571428Y-95888095D01*
X111609523Y-95964285D01*
X111609523Y-96040476D01*
X111571428Y-96154761D01*
X111114285Y-96611904D01*
X111609523Y-96611904D01*
D11*
%TO.C,J2*%
X108791666Y-113552380D02*
X108791666Y-114266666D01*
X108744047Y-114409523D01*
X108648809Y-114504761D01*
X108505952Y-114552380D01*
X108410714Y-114552380D01*
X109220238Y-113647619D02*
X109267857Y-113600000D01*
X109363095Y-113552380D01*
X109601190Y-113552380D01*
X109696428Y-113600000D01*
X109744047Y-113647619D01*
X109791666Y-113742857D01*
X109791666Y-113838095D01*
X109744047Y-113980952D01*
X109172619Y-114552380D01*
X109791666Y-114552380D01*
X113700000Y-114027380D02*
X113700000Y-114265476D01*
X113461904Y-114170238D02*
X113700000Y-114265476D01*
X113938095Y-114170238D01*
X113557142Y-114455952D02*
X113700000Y-114265476D01*
X113842857Y-114455952D01*
D12*
%TO.C,J1*%
X123696900Y-94542650D02*
X123696900Y-91586090D01*
X103453100Y-94542650D02*
X105115258Y-94542650D01*
X103453100Y-91586090D02*
X103453100Y-94542650D01*
X122176109Y-89386450D02*
X104973891Y-89386450D01*
X122034739Y-94542650D02*
X123696900Y-94542650D01*
D13*
%TO.C,T-15*%
X124125000Y-96350000D02*
G75*
G03*
X124125000Y-96350000I-950000J0D01*
G01*
%TO.C,T+22*%
X110950000Y-97525000D02*
G75*
G03*
X110950000Y-97525000I-700000J0D01*
G01*
%TO.C,J2*%
X117767499Y-112063340D02*
X118251548Y-111125610D01*
X119480100Y-112829200D02*
X119181301Y-112829200D01*
X108018699Y-112829200D02*
X107719900Y-112829200D01*
X119480100Y-115470800D02*
X119480100Y-112829200D01*
X119181301Y-115470800D02*
X119480100Y-115470800D01*
X117291548Y-111115610D02*
X117767499Y-112063340D01*
X118231548Y-111115610D02*
X117291548Y-111115610D01*
X107719900Y-115470800D02*
X108018699Y-115470800D01*
X107719900Y-112829200D02*
X107719900Y-115470800D01*
G36*
X116327000Y-116550300D02*
G01*
X116073000Y-116550300D01*
X116073000Y-116169300D01*
X116327000Y-116169300D01*
X116327000Y-116550300D01*
G37*
D14*
X116327000Y-116550300D02*
X116073000Y-116550300D01*
X116073000Y-116169300D01*
X116327000Y-116169300D01*
X116327000Y-116550300D01*
G36*
X110330000Y-112130300D02*
G01*
X110076000Y-112130300D01*
X110076000Y-111749300D01*
X110330000Y-111749300D01*
X110330000Y-112130300D01*
G37*
X110330000Y-112130300D02*
X110076000Y-112130300D01*
X110076000Y-111749300D01*
X110330000Y-111749300D01*
X110330000Y-112130300D01*
G36*
X114330000Y-112130300D02*
G01*
X114076000Y-112130300D01*
X114076000Y-111749300D01*
X114330000Y-111749300D01*
X114330000Y-112130300D01*
G37*
X114330000Y-112130300D02*
X114076000Y-112130300D01*
X114076000Y-111749300D01*
X114330000Y-111749300D01*
X114330000Y-112130300D01*
G36*
X112330001Y-112130300D02*
G01*
X112076001Y-112130300D01*
X112076001Y-111749300D01*
X112330001Y-111749300D01*
X112330001Y-112130300D01*
G37*
X112330001Y-112130300D02*
X112076001Y-112130300D01*
X112076001Y-111749300D01*
X112330001Y-111749300D01*
X112330001Y-112130300D01*
G36*
X112327000Y-116550300D02*
G01*
X112073000Y-116550300D01*
X112073000Y-116169300D01*
X112327000Y-116169300D01*
X112327000Y-116550300D01*
G37*
X112327000Y-116550300D02*
X112073000Y-116550300D01*
X112073000Y-116169300D01*
X112327000Y-116169300D01*
X112327000Y-116550300D01*
G36*
X114326999Y-116550300D02*
G01*
X114072999Y-116550300D01*
X114072999Y-116169300D01*
X114326999Y-116169300D01*
X114326999Y-116550300D01*
G37*
X114326999Y-116550300D02*
X114072999Y-116550300D01*
X114072999Y-116169300D01*
X114326999Y-116169300D01*
X114326999Y-116550300D01*
G36*
X110326999Y-116550300D02*
G01*
X110072999Y-116550300D01*
X110072999Y-116169300D01*
X110326999Y-116169300D01*
X110326999Y-116550300D01*
G37*
X110326999Y-116550300D02*
X110072999Y-116550300D01*
X110072999Y-116169300D01*
X110326999Y-116169300D01*
X110326999Y-116550300D01*
G36*
X116330001Y-112130300D02*
G01*
X116076001Y-112130300D01*
X116076001Y-111749300D01*
X116330001Y-111749300D01*
X116330001Y-112130300D01*
G37*
X116330001Y-112130300D02*
X116076001Y-112130300D01*
X116076001Y-111749300D01*
X116330001Y-111749300D01*
X116330001Y-112130300D01*
%TD*%
M02*
